<?xml version="1.0" encoding="UTF-8"?>
<!-- Generator: visioncortex VTracer 0.6.12 -->
<svg version="1.1" xmlns="http://www.w3.org/2000/svg" width="768" height="1344">
<path d="M0 0 C253.44 0 506.88 0 768 0 C768 443.52 768 887.04 768 1344 C514.56 1344 261.12 1344 0 1344 C0 900.48 0 456.96 0 0 Z " fill="#EEEEEE" transform="translate(0,0)"/>
<path d="M0 0 C4 4 4 4 4 13 C-1 21 -1 21 -7 26 C-8.98 26.33 -10.96 26.66 -13 27 C-13 29.64 -13 32.28 -13 35 C-12.34 35 -11.68 35 -11 35 C-10.34 33.68 -9.68 32.36 -9 31 C-1.8 25 -1.8 25 9 25 C10.32 25.99 11.64 26.98 13 28 C13 35 13 35 9 41 C2.448 45.914 -0.144 45 -9 45 C-9.66 44.67 -10.32 44.34 -11 44 C-11.33 45.98 -11.66 47.96 -12 50 C-10.02 50.33 -8.04 50.66 -6 51 C-0 55 -0 55 4 61 C4.33 63.97 4.66 66.94 5 70 C11.27 70 17.54 70 24 70 C76.875 75.875 76.875 75.875 83 82 C83 85.63 83 89.26 83 93 C57.62 105.69 25.875 105 -2 105 C-2 127.44 -2 149.88 -2 173 C20.77 173 43.54 173 67 173 C67 167.39 67 161.78 67 156 C66.175 155.34 66.175 155.34 62 152 C62 148.7 62 145.4 62 142 C81.15 131.057 103.735 134 125 134 C125.289 130.762 125.577 127.524 125.875 124.188 C126.812 113.78 127.872 103.388 129 93 C126.69 92.67 124.38 92.34 122 92 C121.67 91.67 121.34 91.34 121 91 C121 65.5 121 65.5 124 61 C136 62 136 62 148 64 C153.94 64.66 159.88 65.32 166 66 C166.66 66.66 167.32 67.32 168 68 C166.2 93.2 166.2 93.2 163 98 C161.35 98 159.7 98 158 98 C157.67 101.63 157.34 105.26 157 109 C154 130 154 130 153 133 C153 135.97 153 138.94 153 142 C153.33 142.33 153.66 142.66 154 143 C154 151 154 151 151 155 C151 160.94 151 166.88 151 173 C179.71 173 208.42 173 238 173 C238 286.19 238 399.38 238 516 C-15.44 516 -268.88 516 -530 516 C-530 452.97 -530 389.94 -530 325 C-498.99 308.679 -467.612 293.119 -436 278 C-398.38 259.19 -360.76 240.38 -322 221 C-321.34 221 -320.68 221 -320 221 C-320.99 219.35 -321.98 217.7 -323 216 C-323 204 -323 204 -322 203 C-322 195 -322 195 -325 179 C-328 160 -328 160 -328 152 C-329.65 152 -331.3 152 -333 152 C-339.803 145.197 -338.48 133.5 -340 124 C-340 122.02 -340 120.04 -340 118 C-337 115 -337 115 -318 113 C-311.4 112.01 -304.8 111.02 -298 110 C-296.02 110 -294.04 110 -292 110 C-285.596 116.404 -288 135.329 -288 143 C-290 145 -290 145 -296 146 C-293.765 177.176 -293.765 177.176 -292 186 C-292 188.97 -292 191.94 -292 195 C-270 194 -270 194 -228 173 C-209.85 173 -191.7 173 -173 173 C-173 169.7 -173 166.4 -173 163 C-172.67 161.35 -172.34 159.7 -172 158 C-175.63 158 -179.26 158 -183 158 C-237.654 152.346 -237.654 152.346 -245 145 C-245 140.71 -245 136.42 -245 132 C-224.001 121.5 -200.172 120 -177 120 C-177.66 114.72 -178.32 109.44 -179 104 C-179 102.35 -179 100.7 -179 99 C-180.65 98.67 -182.3 98.34 -184 98 C-186 96 -186 96 -189 80 C-189 68 -189 68 -187 66 C-158 62 -158 62 -146 62 C-140.25 67.75 -143 86.532 -143 91 C-148 93 -148 93 -151 93 C-150.34 97.62 -149.68 102.24 -149 107 C-149 110.96 -149 114.92 -149 119 C-136.46 119 -123.92 119 -111 119 C-50.429 124.048 -50.429 124.048 -37 133 C-37 136.63 -37 140.26 -37 144 C-52.315 154.21 -73.05 156 -91 156 C-90.67 158.31 -90.34 160.62 -90 163 C-90 166.3 -90 169.6 -90 173 C-66.57 173 -43.14 173 -19 173 C-19 150.56 -19 128.12 -19 105 C-26.59 105 -34.18 105 -42 105 C-97.935 100.065 -97.935 100.065 -105 93 C-105 89.37 -105 85.74 -105 82 C-87.731 68.185 -49.569 70.952 -31 70 C-30.67 66.7 -30.34 63.4 -30 60 C-26 54 -26 54 -21 51 C-19.02 51 -17.04 51 -15 51 C-15 48.36 -15 45.72 -15 43 C-15.495 43.165 -15.495 43.165 -18 44 C-27 44 -27 44 -33 40 C-37 35 -37 35 -37 28 C-36.34 27.34 -35.68 26.68 -35 26 C-26 26 -26 26 -18 31 C-17.34 31.99 -16.68 32.98 -16 34 C-17 26 -17 26 -19 22 C-21.97 22 -24.94 22 -28 22 C-34 18 -34 18 -38 12 C-37.67 9.69 -37.34 7.38 -37 5 C-35.845 4.835 -35.845 4.835 -30 4 C-22 10 -22 10 -19 14 C-17.35 11.36 -15.7 8.72 -14 6 C-7 0 -7 0 0 0 Z " fill="#F3D6B4" transform="translate(530,828)"/>
<path d="M0 0 C38.94 0 77.88 0 118 0 C118 23.1 118 46.2 118 70 C116.02 70.66 114.04 71.32 112 72 C108 75 108 75 107 79 C108.98 78.34 110.96 77.68 113 77 C129 77 129 77 134 79 C131 74 131 74 126 71 C125.34 70.835 125.34 70.835 122 70 C122.33 46.9 122.66 23.8 123 0 C158.64 0 194.28 0 231 0 C231 23.1 231 46.2 231 70 C229.845 70.33 229.845 70.33 224 72 C222.68 73.65 221.36 75.3 220 77 C215 82 215 82 208 87 C199.505 99.742 198 105.333 198 121 C202.759 135.277 206.7 140.39 219 149 C232.932 152.981 241.312 151.344 254 145 C263.379 137.184 267.312 128.817 269 117 C269 105.084 266.617 98.926 260 89 C253 83 253 83 248 80 C246.68 78.02 245.36 76.04 244 74 C239 71 239 71 235 70 C235.165 58.45 235.165 58.45 236 0 C269 0 302 0 336 0 C336 22.77 336 45.54 336 69 C333.03 70.65 330.06 72.3 327 74 C326.67 75.32 326.34 76.64 326 78 C326.495 77.835 326.495 77.835 329 77 C346 77 346 77 352 79 C351.34 77.02 350.68 75.04 350 73 C348.35 72.34 346.7 71.68 345 71 C343.68 70.34 342.36 69.68 341 69 C341 46.23 341 23.46 341 0 C382.25 0 423.5 0 466 0 C466 186.78 466 373.56 466 566 C437.29 566 408.58 566 379 566 C376.929 549.429 376.929 549.429 381 544 C381 541.36 381 538.72 381 536 C380.67 535.67 380.34 535.34 380 535 C380 526 380 526 383 510 C383.99 503.73 384.98 497.46 386 491 C387.65 490.67 389.3 490.34 391 490 C393.408 480.367 395 470.952 395 461 C388 459 388 459 369 457 C365.37 456.34 361.74 455.68 358 455 C356.02 455 354.04 455 352 455 C348.382 462.236 350 477.192 350 484 C352.31 484.66 354.62 485.32 357 486 C355.333 517.667 355.333 517.667 353 527 C342.11 527.33 331.22 527.66 320 528 C298.667 530.667 298.667 530.667 290 535 C290.33 538.3 290.66 541.6 291 545 C292.65 546.32 294.3 547.64 296 549 C295.67 554.61 295.34 560.22 295 566 C272.23 566 249.46 566 226 566 C226 543.56 226 521.12 226 498 C238.54 497.34 251.08 496.68 264 496 C301.818 490.091 301.818 490.091 310 486 C310 482.37 310 478.74 310 475 C286.961 463.481 258.262 464.33 233 463 C232.34 460.03 231.68 457.06 231 454 C226 447 226 447 216 443 C216 440.69 216 438.38 216 436 C216.99 436.33 217.98 436.66 219 437 C229 437 229 437 234 435 C239 430 239 430 240 428 C240 425.69 240 423.38 240 421 C237 419 237 419 227 419 C221 423 221 423 217 428 C216.34 428 215.68 428 215 428 C215 425.36 215 422.72 215 420 C217.64 419.01 220.28 418.02 223 417 C231 407.667 231 407.667 231 397 C230.01 396.01 229.02 395.02 228 394 C221 394 221 394 213 401 C212.01 403.64 211.02 406.28 210 409 C208.68 407.35 207.36 405.7 206 404 C198 398 198 398 191 398 C191 405 191 405 195 411 C200 414 200 414 209 414 C212 419 212 419 213 429 C211.68 427.35 210.36 425.7 209 424 C202 420 202 420 193 420 C192.67 420.33 192.34 420.66 192 421 C192 428 192 428 197 434 C201 436 201 436 213 436 C213 438.64 213 441.28 213 444 C210.36 444.66 207.72 445.32 205 446 C202 447 202 447 200 451 C199.01 454.96 198.02 458.92 197 463 C184.033 464.365 171.022 465.349 158 466 C129.714 470.714 129.714 470.714 124 475 C124 478.63 124 482.26 124 486 C150.895 497.206 180.205 496.748 209 498 C209 520.44 209 542.88 209 566 C185.57 566 162.14 566 138 566 C137.67 560.39 137.34 554.78 137 549 C141.29 548.67 145.58 548.34 150 548 C178.8 542.6 178.8 542.6 190 537 C190 533.37 190 529.74 190 526 C157.182 509.591 114.777 512.942 79 512 C77 493 77 493 77 486 C79.31 485.34 81.62 484.68 84 484 C84 464 84 464 83 457 C82.67 456.67 82.34 456.34 82 456 C70 456 70 456 41 460 C40.67 460.33 40.34 460.66 40 461 C40 473 40 473 43 489 C45 491 45 491 49 492 C51 503 51 503 51 513 C40.11 513.99 29.22 514.98 18 516 C14.37 516.66 10.74 517.32 7 518 C4.69 518 2.38 518 0 518 C0 347.06 0 176.12 0 0 Z " fill="#FDFEFD" transform="translate(302,435)"/>
<path d="M0 0 C16.121 3.582 31.682 8.873 47 15 C55.607 17.913 64.214 20.825 72.821 23.737 C76.819 25.09 80.818 26.443 84.816 27.796 C88.687 29.106 92.557 30.416 96.428 31.725 C97.893 32.221 99.357 32.716 100.821 33.212 C102.899 33.915 104.977 34.618 107.055 35.321 C107.642 35.52 107.642 35.52 110.615 36.526 C117.072 38.697 123.537 40.846 130 43 C130 223.18 130 403.36 130 589 C124.39 591.31 118.78 593.62 113 596 C111.735 596.557 111.735 596.557 105.332 599.375 C81.926 609.671 58.483 619.879 35 630 C30.05 632.31 25.1 634.62 20 637 C1 645 1 645 0 645 C0 432.15 0 219.3 0 0 Z " fill="#AEDEE9" transform="translate(0,452)"/>
<path d="M0 0 C4 4 4 4 4 13 C-1 21 -1 21 -7 26 C-8.98 26.33 -10.96 26.66 -13 27 C-13 29.64 -13 32.28 -13 35 C-12.34 35 -11.68 35 -11 35 C-10.34 33.68 -9.68 32.36 -9 31 C-1.8 25 -1.8 25 9 25 C9.66 25.495 9.66 25.495 13 28 C13 35 13 35 9 41 C2.448 45.914 -0.144 45 -9 45 C-9.66 44.67 -10.32 44.34 -11 44 C-11.33 45.98 -11.66 47.96 -12 50 C-10.02 50.33 -8.04 50.66 -6 51 C0 55 0 55 4 61 C4.33 63.97 4.66 66.94 5 70 C11.27 70 17.54 70 24 70 C76.875 75.875 76.875 75.875 83 82 C83 85.63 83 89.26 83 93 C57.62 105.69 25.875 105 -2 105 C-2 127.44 -2 149.88 -2 173 C20.77 173 43.54 173 67 173 C67 167.39 67 161.78 67 156 C65.35 154.68 63.7 153.36 62 152 C62 148.7 62 145.4 62 142 C81.15 131.057 103.735 134 125 134 C125.289 130.762 125.577 127.524 125.875 124.188 C126.812 113.78 127.872 103.388 129 93 C126.69 92.67 124.38 92.34 122 92 C121.67 91.67 121.34 91.34 121 91 C121 65.5 121 65.5 124 61 C136 62 136 62 148 64 C153.94 64.66 159.88 65.32 166 66 C166.66 66.66 167.32 67.32 168 68 C166.2 93.2 166.2 93.2 163 98 C161.35 98 159.7 98 158 98 C157.67 101.63 157.34 105.26 157 109 C154 130 154 130 153 133 C153 135.97 153 138.94 153 142 C153.33 142.33 153.66 142.66 154 143 C154 151 154 151 151 155 C151 175.734 154.016 196.361 156 217 C160.29 218.32 164.58 219.64 169 221 C170.32 221.99 171.64 222.98 173 224 C171 228 171 228 158 233 C63.341 251.03 -35.4 246.626 -131 240 C-131.33 251.88 -131.66 263.76 -132 276 C-125.4 276 -118.8 276 -112 276 C-45.872 283.085 -45.872 283.085 -31 293 C-30.67 294.65 -30.34 296.3 -30 298 C-58.553 326.553 -134.912 319.095 -172 320 C-310.333 320 -310.333 320 -347 300 C-347.33 299.67 -347.66 299.34 -348 299 C-348 297.35 -348 295.7 -348 294 C-333.6 285 -333.6 285 -325 285 C-325 282.03 -325 279.06 -325 276 C-320 224 -320 224 -319 218 C-320.32 217.34 -321.64 216.68 -323 216 C-323 204 -323 204 -322 203 C-322 195 -322 195 -325 179 C-328 160 -328 160 -328 152 C-329.65 152 -331.3 152 -333 152 C-339.803 145.197 -338.48 133.5 -340 124 C-340 122.02 -340 120.04 -340 118 C-337 115 -337 115 -318 113 C-311.4 112.01 -304.8 111.02 -298 110 C-296.02 110 -294.04 110 -292 110 C-285.596 116.404 -288 135.329 -288 143 C-290 145 -290 145 -296 146 C-293.765 177.176 -293.765 177.176 -292 186 C-292 188.97 -292 191.94 -292 195 C-270 194 -270 194 -228 173 C-209.85 173 -191.7 173 -173 173 C-173 169.7 -173 166.4 -173 163 C-172.67 161.35 -172.34 159.7 -172 158 C-175.63 158 -179.26 158 -183 158 C-237.654 152.346 -237.654 152.346 -245 145 C-245 140.71 -245 136.42 -245 132 C-224.001 121.5 -200.172 120 -177 120 C-177.33 117.36 -177.33 117.36 -179 104 C-179 102.35 -179 100.7 -179 99 C-180.65 98.67 -182.3 98.34 -184 98 C-186 96 -186 96 -189 80 C-189 68 -189 68 -187 66 C-158 62 -158 62 -146 62 C-140.25 67.75 -143 86.532 -143 91 C-148 93 -148 93 -151 93 C-150.67 95.31 -150.67 95.31 -149 107 C-149 110.96 -149 114.92 -149 119 C-136.46 119 -123.92 119 -111 119 C-50.429 124.048 -50.429 124.048 -37 133 C-37 136.63 -37 140.26 -37 144 C-52.315 154.21 -73.05 156 -91 156 C-90.67 158.31 -90.34 160.62 -90 163 C-90 166.3 -90 169.6 -90 173 C-66.57 173 -43.14 173 -19 173 C-19 150.56 -19 128.12 -19 105 C-26.59 105 -34.18 105 -42 105 C-97.935 100.065 -97.935 100.065 -105 93 C-105 89.37 -105 85.74 -105 82 C-87.731 68.185 -49.569 70.952 -31 70 C-30.67 66.7 -30.34 63.4 -30 60 C-26 54 -26 54 -21 51 C-19.02 51 -17.04 51 -15 51 C-15 48.36 -15 45.72 -15 43 C-15.495 43.165 -15.495 43.165 -18 44 C-27 44 -27 44 -33 40 C-37 35 -37 35 -37 28 C-36.34 27.34 -35.68 26.68 -35 26 C-26 26 -26 26 -18 31 C-17.34 31.99 -16.68 32.98 -16 34 C-17 26 -17 26 -19 22 C-21.97 22 -24.94 22 -28 22 C-34 18 -34 18 -38 12 C-37.67 9.69 -37.34 7.38 -37 5 C-35.845 4.835 -35.845 4.835 -30 4 C-22 10 -22 10 -19 14 C-17.35 11.36 -15.7 8.72 -14 6 C-7 0 -7 0 0 0 Z " fill="#E9C59F" transform="translate(530,828)"/>
<path d="M0 0 C37.548 8.344 74.488 23.829 111 36 C111.66 36.165 111.66 36.165 115 37 C115 179.89 115 322.78 115 470 C109.39 472.31 103.78 474.62 98 477 C75 487 75 487 73 489 C71 472 71 472 71 467 C73.64 466.01 76.28 465.02 79 464 C79 447 79 447 77 433 C76.67 432.67 76.34 432.34 76 432 C61 433 61 433 41 436 C37.7 436.33 34.4 436.66 31 437 C30.34 437.66 29.68 438.32 29 439 C31.455 468.455 31.455 468.455 35 472 C36.65 472.33 38.3 472.66 40 473 C41.32 482.57 42.64 492.14 44 502 C42.02 502.33 40.04 502.66 38 503 C17 512 17 512 9 516 C6.03 516.99 3.06 517.98 0 519 C0 347.73 0 176.46 0 0 Z " fill="#AEDEE9" transform="translate(162,507)"/>
<path d="M0 0 C108.57 0 217.14 0 329 0 C357.992 28.992 330 81.999 330 123 C221.76 123 113.52 123 2 123 C-20.746 88.881 0 41.005 0 0 Z " fill="#94C09F" transform="translate(373,621)"/>
<path d="M0 0 C6.404 6.404 4 25.329 4 33 C2 35 2 35 -4 36 C-1.765 67.176 -1.765 67.176 0 76 C0 78.97 0 81.94 0 85 C22 84 22 84 64 63 C81.82 63 99.64 63 118 63 C118 77.701 116.255 92.353 115 107 C115 109.31 115 111.62 115 114 C116.65 114 118.3 114 120 114 C127.741 98.518 126.062 70.036 128 53 C128.33 51.68 128.66 50.36 129 49 C131.97 49 134.94 49 138 49 C137.34 63.19 136.68 77.38 136 92 C136 98.93 136 105.86 136 113 C137.65 113 139.3 113 141 113 C141 133.46 141 153.92 141 175 C134.07 175.99 127.14 176.98 120 178 C110 182 110 182 108 184 C108.33 185.65 108.66 187.3 109 189 C134.929 199.371 163.495 197.951 190 190 C190.99 189.34 191.98 188.68 193 188 C192.67 186.35 192.34 184.7 192 183 C183 179 183 179 160 175 C160 172.03 160 169.06 160 166 C235.5 166 235.5 166 261 183 C261.33 184.65 261.66 186.3 262 188 C233.447 216.553 157.088 209.095 120 210 C-18.333 210 -18.333 210 -55 190 C-55.33 189.67 -55.66 189.34 -56 189 C-56 187.35 -56 185.7 -56 184 C-41.6 175 -41.6 175 -33 175 C-33 172.03 -33 169.06 -33 166 C-28 114 -28 114 -27 108 C-28.32 107.34 -29.64 106.68 -31 106 C-31 94 -31 94 -30 93 C-30 85 -30 85 -33 69 C-36 50 -36 50 -36 42 C-37.65 42 -39.3 42 -41 42 C-47.803 35.197 -46.48 23.5 -48 14 C-48 12.02 -48 10.04 -48 8 C-45 5 -45 5 -26 3 C-6 0 -6 0 0 0 Z " fill="#E9C6A0" transform="translate(238,938)"/>
<path d="M0 0 C5.75 5.75 3 24.532 3 29 C-2 31 -2 31 -5 31 C-4.67 33.31 -4.67 33.31 -3 45 C-3 48.96 -3 52.92 -3 57 C9.54 57 22.08 57 35 57 C95.571 62.048 95.571 62.048 109 71 C109 74.63 109 78.26 109 82 C93.685 92.21 72.95 94 55 94 C60 141 60 141 61 148 C61 152.62 61 157.24 61 162 C60.67 162.33 60.34 162.66 60 163 C58.35 163 56.7 163 55 163 C47.718 144.796 46 116.745 46 97 C44.35 97.165 44.35 97.165 36 98 C36.33 104.27 36.66 110.54 37 117 C37.33 131.85 37.66 146.7 38 162 C37.67 162.33 37.34 162.66 37 163 C35.02 163 33.04 163 31 163 C23.107 155.107 26.761 111.798 26 100 C21.71 99.67 17.42 99.34 13 99 C13 139.92 13 180.84 13 223 C17.62 223.33 22.24 223.66 27 224 C43 228 43 228 48 232 C47.67 233.65 47.34 235.3 47 237 C23.264 248.868 -4.471 246.471 -30 241 C-32.64 239.68 -35.28 238.36 -38 237 C-38.165 236.175 -38.165 236.175 -39 232 C-28.87 223.896 -17.671 223 -5 223 C-5.33 202.87 -5.66 182.74 -6 162 C-7.65 161.67 -9.3 161.34 -11 161 C-11 112 -11 112 -8 97 C-10.97 97 -13.94 97 -17 97 C-17.66 104.26 -18.32 111.52 -19 119 C-20.32 128.9 -21.64 138.8 -23 149 C-23.33 152.63 -23.66 156.26 -24 160 C-24.66 160.99 -25.32 161.98 -26 163 C-27.65 163 -29.3 163 -31 163 C-31.33 162.67 -31.66 162.34 -32 162 C-29.6 114 -29.6 114 -26 96 C-29.63 96 -33.26 96 -37 96 C-91.654 90.346 -91.654 90.346 -99 83 C-99 78.71 -99 74.42 -99 70 C-78.001 59.5 -54.172 58 -31 58 C-31.33 55.36 -31.33 55.36 -33 42 C-33 40.35 -33 38.7 -33 37 C-34.65 36.67 -36.3 36.34 -38 36 C-40 34 -40 34 -43 18 C-43 6 -43 6 -41 4 C-12 0 -12 0 0 0 Z " fill="#9C5F38" transform="translate(384,890)"/>
<path d="M0 0 C8.26 4.13 16.22 8.122 24.227 12.571 C26.652 13.918 29.077 15.264 31.502 16.611 C37.634 20.017 43.765 23.425 49.891 26.844 C65.186 35.373 80.557 43.742 96 52 C96.639 52.362 97.278 52.725 97.937 53.098 C100.895 54.775 103.854 56.45 106.812 58.125 C107.817 58.695 108.822 59.265 109.857 59.852 C110.86 60.419 111.862 60.986 112.895 61.57 C113.801 62.084 114.706 62.597 115.64 63.125 C120.407 65.785 125.207 68.386 130 71 C130 102.02 130 133.04 130 165 C120 162 120 162 108 157 C103.71 155.35 99.42 153.7 95 152 C91.37 150.35 87.74 148.7 84 147 C83.205 146.706 82.409 146.412 81.59 146.109 C54.191 135.912 27.096 124.985 0 114 C0 76.38 0 38.76 0 0 Z " fill="#AEDEE9" transform="translate(0,298)"/>
<path d="M0 0 C27.155 5.431 54.276 18.195 80.288 27.597 C102.463 35.587 124.731 43.254 147 51 C147 234.81 147 418.62 147 608 C118 622 118 622 103.5 628.562 C86.598 636.229 69.787 644.084 53 652 C47.72 654.31 42.44 656.62 37 659 C25.643 664.285 14.315 669.628 3 675 C2.01 675 1.02 675 0 675 C0 668.73 0 662.46 0 656 C11.225 650.762 22.583 645.807 34 641 C38.95 638.69 43.9 636.38 49 634 C126.23 600 126.23 600 130 600 C130 419.82 130 239.64 130 54 C128.35 53.67 126.7 53.34 125 53 C111.806 48.877 98.719 44.526 85.629 40.097 C82.01 38.872 78.391 37.648 74.772 36.425 C59.817 31.371 44.867 26.31 30 21 C20.1 17.7 10.2 14.4 0 11 C0 7.37 0 3.74 0 0 Z " fill="#FEFEFE" transform="translate(0,441)"/>
<path d="M0 0 C4 4 4 4 4 13 C-1 21 -1 21 -7 26 C-8.98 26.33 -10.96 26.66 -13 27 C-13 29.64 -13 32.28 -13 35 C-12.34 35 -11.68 35 -11 35 C-10.34 33.68 -9.68 32.36 -9 31 C-1.8 25 -1.8 25 9 25 C10.32 25.99 11.64 26.98 13 28 C13 35 13 35 9 41 C2.448 45.914 -0.144 45 -9 45 C-9.66 44.67 -10.32 44.34 -11 44 C-11.33 45.98 -11.66 47.96 -12 50 C-10.02 50.33 -8.04 50.66 -6 51 C0 55 0 55 4 61 C4.165 62.485 4.165 62.485 5 70 C11.27 70 17.54 70 24 70 C76.875 75.875 76.875 75.875 83 82 C83 85.63 83 89.26 83 93 C57.334 105.833 25.168 105 -3 105 C-3 140.97 -3 176.94 -3 214 C1.29 214.33 5.58 214.66 10 215 C21 217 21 217 29 222 C28.67 223.32 28.34 224.64 28 226 C5.272 237.364 -20.786 235.457 -45 229 C-46.65 227.68 -48.3 226.36 -50 225 C-49.67 223.68 -49.34 222.36 -49 221 C-38.831 215.189 -30.64 215 -19 215 C-19 178.7 -19 142.4 -19 105 C-26.59 105 -34.18 105 -42 105 C-97.935 100.065 -97.935 100.065 -105 93 C-105 89.37 -105 85.74 -105 82 C-87.731 68.185 -49.569 70.952 -31 70 C-30.835 68.35 -30.835 68.35 -30 60 C-26 54 -26 54 -21 51 C-19.02 51 -17.04 51 -15 51 C-15 48.36 -15 45.72 -15 43 C-15.495 43.165 -15.495 43.165 -18 44 C-27 44 -27 44 -33 40 C-37 35 -37 35 -37 28 C-36.34 27.34 -35.68 26.68 -35 26 C-26 26 -26 26 -18 31 C-17.67 31.495 -17.67 31.495 -16 34 C-17 26 -17 26 -19 22 C-21.97 22 -24.94 22 -28 22 C-34 18 -34 18 -38 12 C-37.67 9.69 -37.34 7.38 -37 5 C-35.845 4.835 -35.845 4.835 -30 4 C-22 10 -22 10 -19 14 C-17.35 11.36 -15.7 8.72 -14 6 C-7 0 -7 0 0 0 Z " fill="#BD7949" transform="translate(530,828)"/>
<path d="M0 0 C10 3 10 3 13.533 4.259 C38.172 13.033 62.841 21.714 87.562 30.25 C88.729 30.653 89.895 31.056 91.097 31.471 C103.377 35.712 115.66 39.936 128 44 C225.817 141.817 129 320.666 129 459 C128.175 459.495 128.175 459.495 124 462 C124 466.29 124 470.58 124 475 C137.767 481.883 152.668 483.657 167.786 485.227 C169.766 485.433 171.745 485.639 173.725 485.846 C181.146 486.616 188.568 487.343 196 488 C195.67 492.95 195.34 497.9 195 503 C185.925 503.165 185.925 503.165 140 504 C126.14 510.93 112.28 517.86 98 525 C90.74 525 83.48 525 76 525 C74 511 74 511 74 496 C108 479 108 479 115 479 C115 336.11 115 193.22 115 46 C112.69 45.67 110.38 45.34 108 45 C3 10 3 10 0 8 C0 5.36 0 2.72 0 0 Z " fill="#FBFDFD" transform="translate(162,498)"/>
<path d="M0 0 C14.332 4.777 27.627 13.697 40.875 20.938 C55.729 29.05 70.637 37.061 85.559 45.047 C86.187 45.383 86.816 45.72 87.464 46.067 C90.5 47.692 93.537 49.316 96.575 50.939 C97.675 51.527 98.776 52.116 99.91 52.723 C100.871 53.236 101.831 53.749 102.821 54.278 C106.898 56.486 110.946 58.748 115 61 C115 85.42 115 109.84 115 135 C76.106 125.277 37.295 104.918 0 90 C0 60.3 0 30.6 0 0 Z " fill="#AEDEE9" transform="translate(162,387)"/>
<path d="M0 0 C6.404 6.404 4 25.329 4 33 C2 35 2 35 -4 36 C-1.765 67.176 -1.765 67.176 0 76 C0 78.97 0 81.94 0 85 C12.21 85 24.42 85 37 85 C65.235 89.235 65.235 89.235 70 94 C70 97.63 70 101.26 70 105 C68.35 106.32 66.7 107.64 65 109 C65 131.423 68.693 153.696 71 176 C71 179.63 71 183.26 71 187 C70.67 187.33 70.34 187.66 70 188 C68.02 188 66.04 188 64 188 C62 184 62 184 61.772 182.086 C56.569 138.411 56.569 138.411 54 123 C54 119.7 54 116.4 54 113 C52.845 113.33 52.845 113.33 47 115 C45.68 115 44.36 115 43 115 C43.165 117.805 43.165 117.805 44 132 C44.555 150.328 45 168.664 45 187 C44.34 187.66 43.68 188.32 43 189 C38 188 38 188 36 186 C35.67 179.73 35.34 173.46 35 167 C34.67 164.36 34.34 161.72 34 159 C33.67 151.905 33.67 151.905 32 116 C22.1 116 12.2 116 2 116 C1.723 119.975 1.446 123.951 1.16 128.047 C0.936 131.249 0.713 134.452 0.489 137.654 C0.253 141.017 0.019 144.379 -0.216 147.742 C-0.485 151.614 -0.756 155.487 -1.027 159.359 C-1.069 159.952 -1.069 159.952 -1.277 162.95 C-2.811 184.811 -2.811 184.811 -4 186 C-6.31 186 -8.62 186 -11 186 C-11 126 -11 126 -8 114 C-10.97 113.67 -13.94 113.34 -17 113 C-17.33 117.62 -17.66 122.24 -18 127 C-25.571 187.571 -25.571 187.571 -27 189 C-28.98 189 -30.96 189 -33 189 C-33.33 188.67 -33.66 188.34 -34 188 C-34 161.187 -31.414 134.484 -27 108 C-28.32 107.34 -29.64 106.68 -31 106 C-31 94 -31 94 -30 93 C-30 85 -30 85 -33 69 C-36 50 -36 50 -36 42 C-37.65 42 -39.3 42 -41 42 C-47.803 35.197 -46.48 23.5 -48 14 C-48 12.02 -48 10.04 -48 8 C-45 5 -45 5 -26 3 C-6 0 -6 0 0 0 Z " fill="#BC7849" transform="translate(238,938)"/>
<path d="M0 0 C108.57 0 217.14 0 329 0 C357.992 28.992 330 81.999 330 123 C221.76 123 113.52 123 2 123 C-20.746 88.881 0 41.005 0 0 Z M10 7 C10 41.98 10 76.96 10 113 C111.97 113 213.94 113 319 113 C319 78.02 319 43.04 319 7 C217.03 7 115.06 7 10 7 Z " fill="#8CBA98" transform="translate(373,621)"/>
<path d="M0 0 C2.97 0 5.94 0 9 0 C8.34 14.19 7.68 28.38 7 43 C7 49.93 7 56.86 7 64 C8.65 64 10.3 64 12 64 C11.67 80.83 11.34 97.66 11 115 C-11.44 115.33 -33.88 115.66 -57 116 C-57.66 116.66 -58.32 117.32 -59 118 C-62.823 98.885 -65 79.506 -65 60 C-63.35 58.68 -61.7 57.36 -60 56 C-60 52.37 -60 48.74 -60 45 C-74.989 37.506 -90.413 37.442 -107 36 C-69.504 7.878 -57.679 14 -11 14 C-11 28.701 -12.745 43.353 -14 58 C-14 60.31 -14 62.62 -14 65 C-12.35 65 -10.7 65 -9 65 C-1.259 49.518 -2.938 21.036 -1 4 C-0.67 2.68 -0.34 1.36 0 0 Z " fill="#F3D6B3" transform="translate(367,987)"/>
<path d="M0 0 C12 1 12 1 24 3 C29.94 3.66 35.88 4.32 42 5 C42.33 5.33 42.33 5.33 44 7 C42.2 32.2 42.2 32.2 39 37 C37.35 37 35.7 37 34 37 C33.67 40.63 33.34 44.26 33 48 C30 69 30 69 29 72 C29 74.97 29 77.94 29 81 C29.33 81.33 29.66 81.66 30 82 C30 90 30 90 27 94 C27 114.734 30.016 135.361 32 156 C32 158.64 32 161.28 32 164 C30.02 164.33 28.04 164.66 26 165 C18.482 146.206 17 118.43 17 98 C14.36 98.33 11.72 98.66 9 99 C9.165 101.145 9.165 101.145 10 112 C10.641 128.658 11 145.33 11 162 C10.67 162.33 10.34 162.66 10 163 C8.35 163 6.7 163 5 163 C-1.012 156.988 -0.084 116.58 -1 101 C-9.91 101 -18.82 101 -28 101 C-28 108.26 -28 115.52 -28 123 C-28.66 130.92 -29.32 138.84 -30 147 C-30.33 152.28 -30.66 157.56 -31 163 C-31.33 163.33 -31.33 163.33 -33 165 C-38 164 -38 164 -39 163 C-39 141.989 -37.857 120.993 -37 100 C-40.3 99.34 -43.6 98.68 -47 98 C-47.33 101.63 -47.66 105.26 -48 109 C-53.875 161.875 -53.875 161.875 -56 164 C-57.98 164 -59.96 164 -62 164 C-62 143.266 -59.023 122.635 -57 102 C-57 99.69 -57 97.38 -57 95 C-58.65 93.68 -60.3 92.36 -62 91 C-62 87.7 -62 84.4 -62 81 C-42.85 70.057 -20.265 73 1 73 C1.289 69.762 1.577 66.524 1.875 63.188 C2.812 52.78 3.872 42.388 5 32 C2.69 31.67 0.38 31.34 -2 31 C-2.33 30.67 -2.66 30.34 -3 30 C-3 4.5 -3 4.5 0 0 Z " fill="#BE7A4B" transform="translate(654,889)"/>
<path d="M0 0 C5.75 5.75 3 24.532 3 29 C-2 31 -2 31 -5 31 C-4.67 33.31 -4.67 33.31 -3 45 C-3 48.96 -3 52.92 -3 57 C9.54 57 22.08 57 35 57 C95.571 62.048 95.571 62.048 109 71 C109 74.63 109 78.26 109 82 C108.67 82 108.34 82 108 82 C107.67 79.69 107.34 77.38 107 75 C101.72 76.65 96.44 78.3 91 80 C43.297 86.505 -3.755 89.078 -52 84 C-56.062 83.614 -60.123 83.234 -64.188 82.875 C-64.669 82.832 -64.669 82.832 -67.107 82.613 C-69.405 82.408 -71.702 82.204 -74 82 C-94.8 76.8 -94.8 76.8 -99 74 C-98.67 72.35 -98.34 70.7 -98 69 C-76.589 60.079 -54.04 58 -31 58 C-31.33 55.36 -31.33 55.36 -33 42 C-33 40.35 -33 38.7 -33 37 C-34.65 36.67 -36.3 36.34 -38 36 C-40 34 -40 34 -43 18 C-43 6 -43 6 -41 4 C-12 0 -12 0 0 0 Z " fill="#BD7847" transform="translate(384,890)"/>
<path d="M0 0 C2.97 0.99 5.94 1.98 9 3 C24.787 6.947 39.735 8.144 56 9 C58.31 9.33 60.62 9.66 63 10 C158.5 10 158.5 10 186 0 C186.66 0 187.32 0 188 0 C188 2.64 188 5.28 188 8 C162.334 20.833 130.168 20 102 20 C102 55.97 102 91.94 102 129 C106.29 129.33 110.58 129.66 115 130 C126 132 126 132 134 137 C133.67 138.32 133.34 139.64 133 141 C110.272 152.364 84.214 150.457 60 144 C58.35 142.68 56.7 141.36 55 140 C55.33 138.68 55.66 137.36 56 136 C66.169 130.189 74.36 130 86 130 C86 93.7 86 57.4 86 20 C78.41 20 70.82 20 63 20 C7.065 15.065 7.065 15.065 0 8 C0 5.36 0 2.72 0 0 Z " fill="#9C5F38" transform="translate(425,913)"/>
<path d="M0 0 C0 0.66 0 1.32 0 2 C0.825 2.33 0.825 2.33 5 4 C14.428 12.25 18.397 17.99 22 30 C22 44.875 18.741 54.635 9 66 C-4.937 74.362 -4.442 74 -22 74 C-33.942 70.019 -39.298 64.902 -47 55 C-52.127 39.619 -52.255 31.011 -46 16 C-33.069 -1.241 -21.088 -3.013 0 0 Z " fill="#EFEFEF" transform="translate(550,513)"/>
<path d="M0 0 C12 6 12 6 16.266 8.5 C27.477 15.06 38.714 21.57 50 28 C62.718 35.246 75.373 42.596 88 50 C88.324 50.181 88.324 50.181 89.962 51.095 C128.437 72.576 128.437 72.576 147 84 C147 118.98 147 153.96 147 190 C141.39 188.02 135.78 186.04 130 184 C130 152.65 130 121.3 130 89 C128.35 88.34 126.7 87.68 125 87 C106 77 106 77 98.5 72.812 C90.989 68.63 83.44 64.521 75.875 60.438 C68.668 56.545 61.482 52.625 54.356 48.587 C48.45 45.242 42.513 41.953 36.576 38.664 C24.325 31.877 12.138 24.986 0 18 C0 12.06 0 6.12 0 0 Z " fill="#FEFEFE" transform="translate(0,280)"/>
<path d="M0 0 C0.825 0.33 0.825 0.33 5 2 C29.924 10.308 57.773 11.557 83.359 5.16 C88.906 3.773 94.453 2.387 100 1 C100 3.31 100 5.62 100 8 C98.68 8.99 97.36 9.98 96 11 C96 33.423 99.693 55.696 102 78 C102 81.63 102 85.26 102 89 C101.67 89.33 101.34 89.66 101 90 C99.02 90 97.04 90 95 90 C93 86 93 86 92.772 84.086 C87.569 40.411 87.569 40.411 85 25 C85 21.7 85 18.4 85 15 C82.69 15.66 80.38 16.32 78 17 C76.68 17 75.36 17 74 17 C74.165 19.805 74.165 19.805 75 34 C75.555 52.328 76 70.664 76 89 C75.34 89.66 74.68 90.32 74 91 C69 90 69 90 67 88 C66.67 81.73 66.34 75.46 66 69 C65.835 67.68 65.835 67.68 65 61 C64.67 53.905 64.67 53.905 63 18 C53.1 18 43.2 18 33 18 C32.723 21.975 32.446 25.951 32.16 30.047 C31.936 33.249 31.713 36.452 31.489 39.654 C31.253 43.017 31.019 46.379 30.784 49.742 C30.515 53.614 30.244 57.487 29.973 61.359 C29.931 61.952 29.931 61.952 29.723 64.95 C28.189 86.811 28.189 86.811 27 88 C24.69 88 22.38 88 20 88 C20 28 20 28 23 16 C20.03 15.67 17.06 15.34 14 15 C13.67 19.62 13.34 24.24 13 29 C5.429 89.571 5.429 89.571 4 91 C2.02 91 0.04 91 -2 91 C-2.33 90.67 -2.66 90.34 -3 90 C-3 63.187 -0.414 36.484 4 10 C2.68 9.34 1.36 8.68 0 8 C0 5.36 0 2.72 0 0 Z " fill="#9E6139" transform="translate(207,1036)"/>
<path d="M0 0 C0.33 1.32 0.66 2.64 1 4 C1.66 4.33 1.66 4.33 5 6 C5 46.59 5 87.18 5 129 C-103.57 129 -212.14 129 -324 129 C-324.99 126.36 -325.98 123.72 -327 121 C-219.09 121 -111.18 121 0 121 C0 81.07 0 41.14 0 0 Z " fill="#E5E7E6" transform="translate(703,623)"/>
<path d="M0 0 C2.97 0.99 5.94 1.98 9 3 C35.528 10.58 64.022 8.659 90 0 C90 2.31 90 4.62 90 7 C89.34 7.66 88.68 8.32 88 9 C88 29.734 91.016 50.361 93 71 C93 73.64 93 76.28 93 79 C91.02 79.33 89.04 79.66 87 80 C79.482 61.206 78 33.43 78 13 C75.36 13.33 72.72 13.66 70 14 C70.165 16.145 70.165 16.145 71 27 C71.641 43.658 72 60.33 72 77 C71.67 77.33 71.34 77.66 71 78 C69.35 78 67.7 78 66 78 C59.988 71.988 60.916 31.58 60 16 C51.09 16 42.18 16 33 16 C33 23.26 33 30.52 33 38 C32.34 45.92 31.68 53.84 31 62 C30.67 67.28 30.34 72.56 30 78 C29.67 78.33 29.67 78.33 28 80 C23 79 23 79 22 78 C22 56.989 23.143 35.993 24 15 C20.7 14.34 17.4 13.68 14 13 C13.67 16.63 13.34 20.26 13 24 C7.125 76.875 7.125 76.875 5 79 C3.02 79 1.04 79 -1 79 C-1 58.266 1.977 37.635 4 17 C4 14.69 4 12.38 4 10 C2.68 9.01 1.36 8.02 0 7 C0 4.69 0 2.38 0 0 Z " fill="#A0633B" transform="translate(593,974)"/>
<path d="M0 0 C4 4 4 4 4 13 C-1 21 -1 21 -7 26 C-8.98 26.33 -10.96 26.66 -13 27 C-13 29.64 -13 32.28 -13 35 C-12.34 35 -11.68 35 -11 35 C-10.34 33.68 -9.68 32.36 -9 31 C-1.8 25 -1.8 25 9 25 C10.32 25.99 11.64 26.98 13 28 C13 35 13 35 9 41 C2.448 45.914 -0.144 45 -9 45 C-9.66 44.67 -10.32 44.34 -11 44 C-11.33 45.98 -11.66 47.96 -12 50 C-10.02 50.33 -8.04 50.66 -6 51 C0 55 0 55 4 61 C4.165 62.485 4.165 62.485 5 70 C11.27 70 17.54 70 24 70 C24 70.33 24 70.66 24 71 C17.73 71 11.46 71 5 71 C5 72.65 5 74.3 5 76 C1 82 1 82 -3 85 C-24 85 -24 85 -29 81 C-31 77 -31 77 -31 71 C-32.98 71 -34.96 71 -37 71 C-37 70.67 -37 70.34 -37 70 C-35.02 70 -33.04 70 -31 70 C-30.67 66.7 -30.34 63.4 -30 60 C-26 54 -26 54 -21 51 C-19.02 51 -17.04 51 -15 51 C-15 48.36 -15 45.72 -15 43 C-15.495 43.165 -15.495 43.165 -18 44 C-27 44 -27 44 -33 40 C-37 35 -37 35 -37 28 C-36.34 27.34 -35.68 26.68 -35 26 C-26 26 -26 26 -18 31 C-17.34 31.99 -16.68 32.98 -16 34 C-17 26 -17 26 -19 22 C-21.97 22 -24.94 22 -28 22 C-34 18 -34 18 -38 12 C-37.67 9.69 -37.34 7.38 -37 5 C-35.845 4.835 -35.845 4.835 -30 4 C-22 10 -22 10 -19 14 C-17.35 11.36 -15.7 8.72 -14 6 C-7 0 -7 0 0 0 Z " fill="#87B791" transform="translate(530,828)"/>
<path d="M0 0 C4.832 1.611 8.096 3.198 12.398 5.656 C14.286 6.735 16.175 7.814 18.063 8.893 C22.797 11.597 27.53 14.303 32.262 17.012 C42.134 22.662 52.023 28.28 61.93 33.867 C68.964 37.839 75.977 41.846 82.985 45.863 C97.251 54.04 111.605 62.053 126 70 C126.495 70.33 126.495 70.33 129 72 C129 99.39 129 126.78 129 155 C124.71 153.35 120.42 151.7 116 150 C116 125.25 116 100.5 116 75 C114.02 74.34 112.04 73.68 110 73 C85 60 85 60 75.875 55 C61.644 47.221 47.321 39.613 33 32 C32.35 31.632 31.701 31.265 31.031 30.886 C28.042 29.194 25.052 27.503 22.062 25.812 C21.041 25.234 20.019 24.656 18.967 24.061 C12.992 20.682 7.007 17.322 1 14 C0.67 13.67 0.34 13.34 0 13 C0 8.71 0 4.42 0 0 Z " fill="#FDFEFE" transform="translate(162,373)"/>
<path d="M0 0 C6.404 6.404 4 25.329 4 33 C2 35 2 35 -4 36 C-1.765 67.176 -1.765 67.176 0 76 C0 79.3 0 82.6 0 86 C-2.31 86 -4.62 86 -7 86 C-10.17 70.148 -12 54.179 -12 38 C-15.63 38.66 -19.26 39.32 -23 40 C-24.98 40 -26.96 40 -29 40 C-27.02 51.55 -25.04 63.1 -23 75 C-22.67 79.95 -22.34 84.9 -22 90 C-22.495 90.33 -22.495 90.33 -25 92 C-26.32 91.67 -27.64 91.34 -29 91 C-36 58.333 -36 58.333 -36 42 C-37.65 42 -39.3 42 -41 42 C-47.803 35.197 -46.48 23.5 -48 14 C-48 12.02 -48 10.04 -48 8 C-45 5 -45 5 -26 3 C-6 0 -6 0 0 0 Z " fill="#995E38" transform="translate(238,938)"/>
<path d="M0 0 C3.63 0.825 3.63 0.825 22 5 C36.941 7.134 51.96 8.747 67 10 C66.67 14.95 66.34 19.9 66 25 C56.925 25.165 56.925 25.165 11 26 C-2.86 32.93 -16.72 39.86 -31 47 C-38.26 47 -45.52 47 -53 47 C-55 33 -55 33 -55 25 C-54.67 25 -54.34 25 -54 25 C-53.67 26.65 -53.34 28.3 -53 30 C-52.095 29.587 -51.189 29.175 -50.256 28.75 C-2.507 7 -2.507 7 0 7 C0 4.69 0 2.38 0 0 Z " fill="#EAEAE9" transform="translate(291,976)"/>
<path d="M0 0 C23.1 0 46.2 0 70 0 C70 10.89 70 21.78 70 33 C19 35 19 35 4 35 C0 4 0 4 0 0 Z " fill="#F4D6B3" transform="translate(440,1001)"/>
<path d="M0 0 C22.44 0 44.88 0 68 0 C68 25 68 25 65 34 C44.54 34 24.08 34 3 34 C2.505 34.165 2.505 34.165 0 35 C0 23.45 0 11.9 0 0 Z " fill="#F4D6B3" transform="translate(528,1001)"/>
<path d="M0 0 C0.66 0.165 0.66 0.165 4 1 C4 41.26 4 81.52 4 123 C-104.24 123 -212.48 123 -324 123 C-324.165 122.175 -324.165 122.175 -325 118 C-217.75 118 -110.5 118 0 118 C0 79.06 0 40.12 0 0 Z " fill="#739D7E" transform="translate(699,621)"/>
<path d="M0 0 C12 1 12 1 24 3 C29.94 3.66 35.88 4.32 42 5 C42.66 5.66 43.32 6.32 44 7 C42.2 32.2 42.2 32.2 39 37 C37.35 37 35.7 37 34 37 C33.67 40.63 33.34 44.26 33 48 C30 69 30 69 28 78 C27.175 78.165 27.175 78.165 23 79 C22.34 78.34 21.68 77.68 21 77 C23.857 48.429 23.857 48.429 28 36 C24.37 35.67 20.74 35.34 17 35 C15.35 34.67 13.7 34.34 12 34 C11.34 42.91 10.68 51.82 10 61 C9.34 65.29 8.68 69.58 8 74 C6.02 74 4.04 74 2 74 C2 59.964 3.556 45.961 5 32 C2.69 31.67 0.38 31.34 -2 31 C-2.33 30.67 -2.66 30.34 -3 30 C-3 4.5 -3 4.5 0 0 Z " fill="#9C5F39" transform="translate(654,889)"/>
<path d="M0 0 C9.9 0 19.8 0 30 0 C34.063 16.252 33 33.318 33 50 C20.79 50.99 8.58 51.98 -4 53 C-4 12 -4 12 0 0 Z " fill="#F1D4B1" transform="translate(240,1054)"/>
<path d="M0 0 C5.75 5.75 3 24.532 3 29 C-2 31 -2 31 -5 31 C-4.34 35.62 -3.68 40.24 -3 45 C-3 48.96 -3 52.92 -3 57 C-4.98 57 -6.96 57 -9 57 C-11 48 -11 48 -11 33 C-15.95 33.99 -20.9 34.98 -26 36 C-25.34 41.61 -24.68 47.22 -24 53 C-24 54.65 -24 56.3 -24 58 C-25.98 58 -27.96 58 -30 58 C-33 42 -33 42 -33 37 C-34.65 36.67 -36.3 36.34 -38 36 C-40 34 -40 34 -43 18 C-43 6 -43 6 -41 4 C-12 0 -12 0 0 0 Z " fill="#9C6039" transform="translate(384,890)"/>
<path d="M0 0 C8.91 0 17.82 0 27 0 C33.954 13.908 31 34.836 31 51 C20.44 50.01 9.88 49.02 -1 48 C-1.33 48.66 -1.66 49.32 -2 50 C-2 30 -2 30 -1 22 C-0.67 14.74 -0.34 7.48 0 0 Z " fill="#F2D5B2" transform="translate(626,990)"/>
<path d="M0 0 C6.93 0 13.86 0 21 0 C21.66 3.3 22.32 6.6 23 10 C26 15 26 15 32 18 C39 18 39 18 45 14 C48 9 48 9 50 0 C56.93 0 63.86 0 71 0 C69.751 11.241 66.325 17.455 59 26 C45.063 34.362 45.558 34 28 34 C16.058 30.019 10.702 24.902 3 15 C0 6 0 6 0 0 Z " fill="#FDEFCA" transform="translate(500,553)"/>
<path d="M0 0 C6.93 0 13.86 0 21 0 C21.33 2.97 21.66 5.94 22 9 C26 15 26 15 29 17 C41 17 41 17 45 15 C49 8 49 8 50 0 C56.93 0 63.86 0 71 0 C69.653 13.465 65.097 20.165 55 29 C40.763 35.471 31.65 35.327 17 30 C7 21 7 21 0 7 C0 4.69 0 2.38 0 0 Z " fill="#FDEFCA" transform="translate(387,553)"/>
<path d="M0 0 C6.93 0 13.86 0 21 0 C21.66 3.3 22.32 6.6 23 10 C23.66 11.65 24.32 13.3 25 15 C30 17 30 17 41 17 C46 14 46 14 49 8 C49.33 5.36 49.66 2.72 50 0 C56.93 0 63.86 0 71 0 C71 11.025 65.971 17.867 59 26 C45.868 33.879 42.89 34 27 34 C12.37 26.685 5.76 21.361 0 6 C0 4.02 0 2.04 0 0 Z " fill="#FDEFCA" transform="translate(605,553)"/>
<path d="M0 0 C0.165 1.155 0.165 1.155 1 7 C7 9 7 9 16 8 C17 7 17 7 18 0 C43 0 43 0 53 8 C52.67 9.65 52.34 11.3 52 13 C28.264 24.868 0.529 22.471 -25 17 C-27.64 15.68 -30.28 14.36 -33 13 C-33.33 11.35 -33.66 9.7 -34 8 C-23.394 -0.485 -13.191 0 0 0 Z " fill="#965B35" transform="translate(379,1114)"/>
<path d="M0 0 C2.97 0 5.94 0 9 0 C8.34 14.19 7.68 28.38 7 43 C7 49.93 7 56.86 7 64 C8.65 64 10.3 64 12 64 C12 68.62 12 73.24 12 78 C-22.1 74.9 -22.1 74.9 -30 67 C-29.67 65.68 -29.34 64.36 -29 63 C-19 59 -19 59 -15 59 C-14.67 60.98 -14.34 62.96 -14 65 C-12.35 65 -10.7 65 -9 65 C-1.259 49.518 -2.938 21.036 -1 4 C-0.67 2.68 -0.34 1.36 0 0 Z " fill="#E9C49E" transform="translate(367,987)"/>
<path d="M0 0 C0.33 0 0.66 0 1 0 C1 2.31 1 4.62 1 7 C1.99 7.165 1.99 7.165 7 8 C13 12 13 12 17 18 C17.165 19.485 17.165 19.485 18 27 C24.27 27 30.54 27 37 27 C37 27.33 37 27.66 37 28 C30.73 28 24.46 28 18 28 C18 29.65 18 31.3 18 33 C14 39 14 39 10 42 C-11 42 -11 42 -16 38 C-18 34 -18 34 -18 28 C-19.98 28 -21.96 28 -24 28 C-24 27.67 -24 27.34 -24 27 C-22.02 27 -20.04 27 -18 27 C-17.67 23.7 -17.34 20.4 -17 17 C-13 11 -13 11 -8 8 C-5.36 8 -2.72 8 0 8 C0 5.36 0 2.72 0 0 Z " fill="#D8AA81" transform="translate(517,871)"/>
<path d="M0 0 C0.66 2.31 1.32 4.62 2 7 C11 8 11 8 16 7 C16 4.69 16 2.38 16 0 C29.026 0 36.931 0.082 48 7 C47.67 8.32 47.34 9.64 47 11 C24.272 22.364 -1.786 20.457 -26 14 C-27.65 12.68 -29.3 11.36 -31 10 C-30.67 8.68 -30.34 7.36 -30 6 C-19.831 0.189 -11.64 0 0 0 Z " fill="#965C36" transform="translate(511,1043)"/>
<path d="M0 0 C10.706 0.973 21.358 2.48 32 4 C39.92 4.66 47.84 5.32 56 6 C55.67 10.95 55.34 15.9 55 21 C36.85 21 18.7 21 0 21 C0 14.07 0 7.14 0 0 Z " fill="#FCFCFB" transform="translate(302,980)"/>
<path d="M0 0 C0.66 6.93 1.32 13.86 2 21 C2.66 26.61 3.32 32.22 4 38 C4 41.63 4 45.26 4 49 C-0.62 49.66 -5.24 50.32 -10 51 C-17 8 -17 8 -17 2 C-7 0 -7 0 0 0 Z " fill="#AFDBE6" transform="translate(226,976)"/>
<path d="M0 0 C4.29 0 8.58 0 13 0 C14.031 15.981 15 31.986 15 48 C10.05 48.33 5.1 48.66 0 49 C0 32.83 0 16.66 0 0 Z " fill="#F2D4B2" transform="translate(398,990)"/>
<path d="M0 0 C0.99 0 1.98 0 3 0 C3 41.91 3 83.82 3 127 C4.155 127.165 4.155 127.165 10 128 C15 133 15 133 15 136 C13.35 135.67 11.7 135.34 10 135 C-6 135 -6 135 -12 136 C-11 131 -11 131 -6 127 C-4.35 127 -2.7 127 -1 127 C-1 85.42 -1 43.84 -1 1 C-0.67 0.67 -0.34 0.34 0 0 Z " fill="#8C6E5A" transform="translate(421,378)"/>
<path d="M0 0 C0.99 0 1.98 0 3 0 C3 41.91 3 83.82 3 127 C4.98 127.33 6.96 127.66 9 128 C9.99 128.825 9.99 128.825 15 133 C15 133.99 15 134.98 15 136 C13.02 135.67 11.04 135.34 9 135 C-8 135 -8 135 -13 136 C-11 131 -11 131 -6 127 C-4.35 127 -2.7 127 -1 127 C-1 85.42 -1 43.84 -1 1 C-0.67 0.67 -0.34 0.34 0 0 Z " fill="#8B6D58" transform="translate(534,378)"/>
<path d="M0 0 C0.165 1.98 0.165 1.98 1 12 C-39 32 -39 32 -44 32 C-44 27.05 -44 22.1 -44 17 C-38.72 14.69 -33.44 12.38 -28 10 C-23.71 8.02 -19.42 6.04 -15 4 C-3 -1 -3 -1 0 0 Z " fill="#FDFDFD" transform="translate(206,1009)"/>
<path d="M0 0 C0.552 4.392 1.103 8.785 1.654 13.177 C1.841 14.668 2.028 16.159 2.216 17.649 C3.664 29.171 5 40.351 5 52 C0.05 52 -4.9 52 -10 52 C-10.505 35.338 -11 18.67 -11 2 C-2 0 -2 0 0 0 Z " fill="#F0D2AF" transform="translate(292,1051)"/>
<path d="M0 0 C2.97 0.33 5.94 0.66 9 1 C7 45 7 45 6 57 C-1 59 -1 59 -6 59 C-6 39.133 -2.804 19.631 0 0 Z " fill="#F0D1AE" transform="translate(221,1051)"/>
<path d="M0 0 C0.99 0.99 1.98 1.98 3 3 C2.67 4.32 2.34 5.64 2 7 C3.65 6.34 5.3 5.68 7 5 C7 5.66 7 6.32 7 7 C7.66 7 8.32 7 9 7 C8.67 7.99 8.34 8.98 8 10 C6.68 10.33 5.36 10.66 4 11 C4 11.66 4 12.32 4 13 C4.66 13 5.32 13 6 13 C6 14.32 6 15.64 6 17 C6.66 17 7.32 17 8 17 C8.66 16.01 9.32 15.02 10 14 C10.66 17.96 11.32 21.92 12 26 C13.98 26.99 15.96 27.98 18 29 C17.01 29.33 16.02 29.66 15 30 C15.165 30.495 15.165 30.495 16 33 C14.02 32.34 12.04 31.68 10 31 C9.34 31 8.68 31 8 31 C8 32.65 8 34.3 8 36 C7.01 36.99 6.02 37.98 5 39 C4.34 36.36 3.68 33.72 3 31 C3 33.97 3 36.94 3 40 C1.02 40 -0.96 40 -3 40 C-3 36.7 -3 33.4 -3 30 C-3.165 29.175 -3.165 29.175 -4 25 C-3.34 24.01 -2.68 23.02 -2 22 C-0.35 22.33 1.3 22.66 3 23 C3 22.34 3 21.68 3 21 C3.66 21 4.32 21 5 21 C5.33 21.33 5.66 21.66 6 22 C6 20.68 6 19.36 6 18 C5.01 18 4.02 18 3 18 C3 18.66 3 19.32 3 20 C1 20 -1 20 -3 20 C-4 29 -4 29 -4 37 C-4.66 37.66 -5.32 38.32 -6 39 C-6 38.01 -6 37.02 -6 36 C-6.66 36.165 -6.66 36.165 -10 37 C-10 35.02 -10 33.04 -10 31 C-12 31 -12 31 -15 32 C-15 31.34 -15 30.68 -15 30 C-15.66 30 -16.32 30 -17 30 C-17 29.34 -17 28.68 -17 28 C-15.02 27.34 -13.04 26.68 -11 26 C-10 16 -10 16 -10 14 C-11.32 14.66 -11.32 14.66 -18 18 C-18.66 18 -19.32 18 -20 18 C-18.667 14.667 -17.333 11.333 -16 8 C-13.333 8.667 -10.667 9.333 -8 10 C-8 9.01 -8 8.02 -8 7 C-6.02 6.67 -4.04 6.34 -2 6 C-2.33 4.68 -2.66 3.36 -3 2 C-2.01 1.34 -1.02 0.68 0 0 Z " fill="#D2E6D3" transform="translate(645,647)"/>
<path d="M0 0 C11 1 11 1 16 2 C14.168 15.743 11.618 29.385 9 43 C4.71 42.34 0.42 41.68 -4 41 C-1.667 8.333 -1.667 8.333 0 0 Z " fill="#FAF9F7" transform="translate(666,923)"/>
<path d="M0 0 C7 1 7 1 10 2 C10 18.014 9.102 34.024 8 50 C-1 50 -1 50 -5 49 C-5 32.465 -2.955 16.253 0 0 Z " fill="#F1D2B0" transform="translate(607,987)"/>
<path d="M0 0 C5 35 5 35 5 50 C2.855 50.165 2.855 50.165 -8 51 C-10.079 34.372 -10 17.727 -10 1 C-5 0 -5 0 0 0 Z " fill="#F1D3B0" transform="translate(430,987)"/>
<path d="M0 0 C2.97 0 5.94 0 9 0 C7 43 7 43 6 45 C5.67 48.3 5.34 51.6 5 55 C3.185 55.165 3.185 55.165 -6 56 C-6 45 -6 45 -3 22 C-2.34 16.06 -1.68 10.12 -1 4 C-0.67 2.68 -0.34 1.36 0 0 Z " fill="#EFD0AE" transform="translate(367,987)"/>
<path d="M0 0 C1.65 13.53 3.3 27.06 5 41 C5.33 42.32 5.66 43.64 6 45 C6 48.63 6 52.26 6 56 C-5 55 -5 55 -6 54 C-8 14 -8 14 -8 1 C-5 0 -5 0 0 0 Z " fill="#F1D4B2" transform="translate(671,987)"/>
<path d="M0 0 C0.99 0 1.98 0 3 0 C3 41.91 3 83.82 3 127 C4.155 127.165 4.155 127.165 10 128 C15 133 15 133 15 136 C13.02 135.67 11.04 135.34 9 135 C-8 135 -8 135 -12 136 C-11.67 134.35 -11.34 132.7 -11 131 C-5 127 -5 127 0 127 C0 85.09 0 43.18 0 0 Z " fill="#84644C" transform="translate(639,378)"/>
<path d="M0 0 C24.09 0 48.18 0 73 0 C72.67 0.99 72.34 1.98 72 3 C72 2.34 72 1.68 72 1 C65.07 1 58.14 1 51 1 C51 3.64 51 6.28 51 9 C46 17 46 17 42 19 C30 19 30 19 25 15 C22 10 22 10 22 1 C15.07 1 8.14 1 1 1 C0.67 1.99 0.34 2.98 0 4 C0 2.68 0 1.36 0 0 Z " fill="#FDFAE9" transform="translate(386,552)"/>
<path d="M0 0 C0.33 0 0.66 0 1 0 C1 2.31 1 4.62 1 7 C24.43 7 47.86 7 72 7 C72 7.33 72 7.66 72 8 C65.07 8 58.14 8 51 8 C51 10.64 51 13.28 51 16 C46 24 46 24 42 26 C31 26 31 26 26 23 C22 16 22 16 22 8 C18.37 8.165 18.37 8.165 0 9 C0 6.03 0 3.06 0 0 Z " fill="#FDF9E8" transform="translate(604,545)"/>
<path d="M0 0 C9.57 0 19.14 0 29 0 C29 7 29 7 26 13 C18.8 19 18.8 19 11 19 C3 14 3 14 0 8 C0 5.36 0 2.72 0 0 Z " fill="#FEFBE8" transform="translate(521,553)"/>
<path d="M0 0 C2 16 2 16 2 27 C-2.62 27.66 -7.24 28.32 -12 29 C-12.99 21.41 -13.98 13.82 -15 6 C-5 0 -5 0 0 0 Z " fill="#FAF9F9" transform="translate(228,998)"/>
<path d="M0 0 C0.33 7.92 0.66 15.84 1 24 C-3.62 24 -8.24 24 -13 24 C-16 7 -16 7 -15 2 C-5 0 -5 0 0 0 Z " fill="#F9F7F5" transform="translate(373,923)"/>
<path d="M0 0 C8.91 0 17.82 0 27 0 C28 2 28 2 28 11 C18.76 11 9.52 11 0 11 C0 7.37 0 3.74 0 0 Z " fill="#FBFBFA" transform="translate(626,990)"/>
<path d="M0 0 C0.99 0 1.98 0 3 0 C3 35.64 3 71.28 3 108 C2.67 108.165 2.67 108.165 1 109 C0.825 100.021 0.659 91.042 0.5 82.062 C0.488 81.392 0.476 80.721 0.464 80.03 C-0.005 53.352 -0.119 26.682 0 0 Z " fill="#7C5B44" transform="translate(639,378)"/>
<path d="M0 0 C6 1 6 1 11 5 C15 13 15 13 15 19 C21.27 19 27.54 19 34 19 C34 19.33 34 19.66 34 20 C27.73 20 21.46 20 15 20 C15 21.65 15 23.3 15 25 C11 31 11 31 7 34 C4.69 34 2.38 34 0 34 C1.98 31.03 3.96 28.06 6 25 C7.854 17.585 7.376 12.752 4 6 C4 5.34 4 4.68 4 4 C3.01 3.67 2.02 3.34 1 3 C0.67 2.01 0.34 1.02 0 0 Z " fill="#D1A076" transform="translate(520,879)"/>
<path d="M0 0 C0.33 1.32 0.66 2.64 1 4 C1.66 4 2.32 4 3 4 C3.66 3.01 4.32 2.02 5 1 C5.66 4.96 6.32 8.92 7 13 C8.98 13.99 10.96 14.98 13 16 C12.01 16.33 11.02 16.66 10 17 C10.33 17.99 10.66 18.98 11 20 C9.02 19.34 7.04 18.68 5 18 C4.34 18 3.68 18 3 18 C3 19.65 3 21.3 3 23 C2.01 23.99 1.02 24.98 0 26 C-0.66 23.36 -1.32 20.72 -2 18 C-2 20.97 -2 23.94 -2 27 C-3.98 27 -5.96 27 -8 27 C-8 23.7 -8 20.4 -8 17 C-8.33 15.35 -8.66 13.7 -9 12 C-8.34 11.01 -7.68 10.02 -7 9 C-5.35 9.33 -3.7 9.66 -2 10 C-2 9.34 -2 8.68 -2 8 C-1.34 8 -0.68 8 0 8 C0 7.01 0 6.02 0 5 C0 3.333 0 1.667 0 0 Z " fill="#DAEADA" transform="translate(650,660)"/>
<path d="M0 0 C4.62 0 9.24 0 14 0 C13 7 13 7 11 16 C8.03 16 5.06 16 2 16 C0 5 0 5 0 0 Z " fill="#92BF9C" transform="translate(655,703)"/>
<path d="M0 0 C4.62 0 9.24 0 14 0 C12 14 12 14 11 16 C8.03 16 5.06 16 2 16 C1.34 10.72 0.68 5.44 0 0 Z " fill="#93BD9D" transform="translate(623,703)"/>
<path d="M0 0 C0.99 0.99 1.98 1.98 3 3 C2.67 4.32 2.34 5.64 2 7 C3.65 6.34 5.3 5.68 7 5 C7 5.66 7 6.32 7 7 C7.66 7 8.32 7 9 7 C8.67 7.99 8.34 8.98 8 10 C3.05 10.66 -1.9 11.32 -7 12 C-7 16.62 -7 21.24 -7 26 C-7.33 26 -7.66 26 -8 26 C-8.33 21.71 -8.66 17.42 -9 13 C-11.31 14.32 -13.62 15.64 -16 17 C-17.32 17.33 -18.64 17.66 -20 18 C-18.667 14.667 -17.333 11.333 -16 8 C-13.333 8.667 -10.667 9.333 -8 10 C-8 9.01 -8 8.02 -8 7 C-6.02 6.67 -4.04 6.34 -2 6 C-2.33 4.68 -2.66 3.36 -3 2 C-2.01 1.34 -1.02 0.68 0 0 Z " fill="#9CC7A6" transform="translate(645,647)"/>
<path d="M0 0 C2 3 2 3 2 14 C-2.62 14.66 -7.24 15.32 -12 16 C-12.33 12.7 -12.66 9.4 -13 6 C-8.71 4.02 -4.42 2.04 0 0 Z " fill="#E8E5E4" transform="translate(228,1011)"/>
<path d="M0 0 C5.28 0 10.56 0 16 0 C16 1.65 16 3.3 16 5 C17.32 5.33 18.64 5.66 20 6 C20.33 7.65 20.66 9.3 21 11 C18 14 18 14 15 15 C14.67 15.825 14.67 15.825 13 20 C9.37 20 5.74 20 2 20 C0 13 0 13 -1 1 C-0.67 0.67 -0.34 0.34 0 0 Z M1 2 C2 15 2 15 3 18 C5.97 18 8.94 18 12 18 C15 6 15 6 15 2 C10.38 2 5.76 2 1 2 Z " fill="#DDE9DF" transform="translate(654,701)"/>
<path d="M0 0 C0.66 0 1.32 0 2 0 C2 1.65 2 3.3 2 5 C4.97 5 7.94 5 11 5 C11 5.33 11 5.66 11 6 C8.03 6 5.06 6 2 6 C2.66 8.64 3.32 11.28 4 14 C6 12 6 12 7 9 C7.66 9 8.32 9 9 9 C8.34 10.98 7.68 12.96 7 15 C6.67 16.65 6.34 18.3 6 20 C6.99 20.99 7.98 21.98 9 23 C9.33 21.02 9.66 19.04 10 17 C10.33 17 10.66 17 11 17 C10.67 19.31 10.34 21.62 10 24 C5 23 5 23 3 21 C1.35 21.99 -0.3 22.98 -2 24 C-1 21 -1 21 2 19 C1.67 17.35 1.34 15.7 1 14 C1 11.36 1 8.72 1 6 C-2.3 6 -5.6 6 -9 6 C-9 7.65 -9 9.3 -9 11 C-6.69 11 -4.38 11 -2 11 C-2 13.97 -2 16.94 -2 20 C-2.66 20.66 -3.32 21.32 -4 22 C-5.32 22 -6.64 22 -8 22 C-8 21.34 -8 20.68 -8 20 C-6.68 20 -5.36 20 -4 20 C-3.67 17.36 -3.34 14.72 -3 12 C-4.98 12 -6.96 12 -9 12 C-9 14.97 -9 17.94 -9 21 C-9.99 21.99 -10.98 22.98 -12 24 C-11.34 17.73 -10.68 11.46 -10 5 C-6.7 5 -3.4 5 0 5 C0 3.35 0 1.7 0 0 Z " fill="#F9EDDF" transform="translate(78,1296)"/>
<path d="M0 0 C1 6 1 6 1 14 C-2.63 14 -6.26 14 -10 14 C-10 9.71 -10 5.42 -10 1 C-5 0 -5 0 0 0 Z " fill="#FAF8F6" transform="translate(430,987)"/>
<path d="M0 0 C7 1 7 1 10 2 C10 5.96 10 9.92 10 14 C6.37 14 2.74 14 -1 14 C-1 5 -1 5 0 0 Z " fill="#F9F9F6" transform="translate(607,987)"/>
<path d="M0 0 C5.61 0 11.22 0 17 0 C17 1.32 17 2.64 17 4 C18.32 4.33 19.64 4.66 21 5 C21.33 6.65 21.66 8.3 22 10 C21.01 10.99 20.02 11.98 19 13 C17.68 13 16.36 13 15 13 C15 14.65 15 16.3 15 18 C14.67 18.33 14.34 18.66 14 19 C10.37 19 6.74 19 3 19 C-0.375 15.625 0.726 9.717 0 5 C0 3.35 0 1.7 0 0 Z M2 1 C2.66 6.28 3.32 11.56 4 17 C6.97 17 9.94 17 13 17 C15 9 15 9 16 1 C11.38 1 6.76 1 2 1 Z " fill="#EEF2EF" transform="translate(621,702)"/>
<path d="M0 0 C3 17 3 17 3 22 C1.02 22 -0.96 22 -3 22 C-6 6 -6 6 -6 1 C-3 0 -3 0 0 0 Z " fill="#995B34" transform="translate(357,926)"/>
<path d="M0 0 C3.96 0 7.92 0 12 0 C12 3.63 12 7.26 12 11 C8.04 11 4.08 11 0 11 C0 7.37 0 3.74 0 0 Z " fill="#FAFDFD" transform="translate(398,990)"/>
<path d="M0 0 C6 0 6 0 10 3 C10 4.98 10 6.96 10 9 C9.01 9.99 8.02 10.98 7 12 C4.69 12 2.38 12 0 12 C-0.99 11.01 -1.98 10.02 -3 9 C-3 7.02 -3 5.04 -3 3 C-2.01 2.01 -1.02 1.02 0 0 Z " fill="#F7F9F5" transform="translate(538,642)"/>
<path d="M0 0 C2 1 2 1 6 10 C6 16 6 16 5 19 C3.68 18.67 2.36 18.34 1 18 C0.67 15.69 0.34 13.38 0 11 C-1.32 9.68 -2.64 8.36 -4 7 C-4 9.31 -4 11.62 -4 14 C-4.99 14 -5.98 14 -7 14 C-7 12.02 -7 10.04 -7 8 C-7.66 8 -8.32 8 -9 8 C-9 6.68 -9 5.36 -9 4 C-6 2 -6 2 0 0 Z " fill="#9CC4A4" transform="translate(660,656)"/>
<path d="M0 0 C2.97 0 5.94 0 9 0 C8.67 4.62 8.34 9.24 8 14 C5.03 14 2.06 14 -1 14 C-1 4 -1 4 0 0 Z " fill="#F9F7F6" transform="translate(367,987)"/>
<path d="M0 0 C2.97 0 5.94 0 9 0 C10 5 10 5 9 7 C9.66 7 10.32 7 11 7 C10 11 10 11 9 12 C6.03 12 3.06 12 0 12 C0 8.04 0 4.08 0 0 Z " fill="#F1F6F1" transform="translate(454,642)"/>
<path d="M0 0 C0.33 4.62 0.66 9.24 1 14 C-1.97 14 -4.94 14 -8 14 C-8 9.71 -8 5.42 -8 1 C-5 0 -5 0 0 0 Z " fill="#F6F4F2" transform="translate(671,987)"/>
<path d="M0 0 C2.64 0 5.28 0 8 0 C8.99 0.99 9.98 1.98 11 3 C10.67 4.98 10.34 6.96 10 9 C10.33 9.99 10.66 10.98 11 12 C6 11 6 11 5 10 C4.67 10.66 4.34 11.32 4 12 C2.68 12 1.36 12 0 12 C0 8.04 0 4.08 0 0 Z " fill="#F0F4EF" transform="translate(441,642)"/>
<path d="M0 0 C3 3 3 3 9 20 C8.01 19.67 7.02 19.34 6 19 C5.67 17.02 5.34 15.04 5 13 C2.03 13 -0.94 13 -4 13 C-4.33 14.98 -4.66 16.96 -5 19 C-5.66 19.33 -6.32 19.66 -7 20 C-3.286 3.286 -3.286 3.286 0 0 Z " fill="#F9ECDB" transform="translate(24,1299)"/>
<path d="M0 0 C1.65 0.33 3.3 0.66 5 1 C6 7 6 7 5 12 C5 13.98 5 15.96 5 18 C3.02 18 1.04 18 -1 18 C-1 14.7 -1 11.4 -1 8 C-1.33 6.35 -1.66 4.7 -2 3 C-1.34 2.01 -0.68 1.02 0 0 Z " fill="#FBFCFB" transform="translate(643,669)"/>
<path d="M0 0 C0.33 0 0.66 0 1 0 C1 1.65 1 3.3 1 5 C4.3 5 7.6 5 11 5 C11 5.33 11 5.66 11 6 C7.7 6 4.4 6 1 6 C1 8.31 1 10.62 1 13 C3.97 13 6.94 13 10 13 C10 13.33 10 13.66 10 14 C7.03 14 4.06 14 1 14 C1 16.31 1 18.62 1 21 C4.63 21 8.26 21 12 21 C12 21.33 12 21.66 12 22 C4.41 22 -3.18 22 -11 22 C-11 21.67 -11 21.34 -11 21 C-7.37 21 -3.74 21 0 21 C0 18.69 0 16.38 0 14 C-2.64 14 -5.28 14 -8 14 C-8 13.67 -8 13.34 -8 13 C-5.36 13 -2.72 13 0 13 C0 11.02 0 9.04 0 7 C-2.31 7.33 -4.62 7.66 -7 8 C-7.33 8.495 -7.33 8.495 -9 11 C-9.66 10.67 -10.32 10.34 -11 10 C-9.68 7.03 -8.36 4.06 -7 1 C-6.34 1 -5.68 1 -5 1 C-5.33 2.32 -5.66 3.64 -6 5 C-4.02 5 -2.04 5 0 5 C0 3.35 0 1.7 0 0 Z " fill="#FAF0E3" transform="translate(51,1297)"/>
<path d="M0 0 C1.32 0 2.64 0 4 0 C4 2.97 4 5.94 4 9 C4.66 8.67 5.32 8.34 6 8 C6.33 5.36 6.66 2.72 7 0 C8.32 0 9.64 0 11 0 C11 3.3 11 6.6 11 10 C10.34 10.66 9.68 11.32 9 12 C6.36 12 3.72 12 1 12 C0 10 0 10 0 0 Z " fill="#F5F8F4" transform="translate(467,642)"/>
<path d="M0 0 C1.65 0.33 3.3 0.66 5 1 C8 8 8 8 8 12 C6.68 12 5.36 12 4 12 C4 11.34 4 10.68 4 10 C2.35 10.66 0.7 11.32 -1 12 C-1.99 12 -2.98 12 -4 12 C-3 6 -3 6 0 0 Z " fill="#EFF4EE" transform="translate(431,642)"/>
<path d="M0 0 C0.33 2.31 0.66 4.62 1 7 C0.34 7 -0.32 7 -1 7 C-1 7.66 -1 8.32 -1 9 C-3 9 -5 9 -7 9 C-7.33 10.32 -7.66 11.64 -8 13 C-8.66 13 -9.32 13 -10 13 C-10.33 9.04 -10.66 5.08 -11 1 C-8 0 -8 0 0 0 Z " fill="#BCD8C1" transform="translate(649,658)"/>
<path d="M0 0 C0.825 0.165 0.825 0.165 5 1 C6.65 0.67 8.3 0.34 10 0 C9.34 2.31 8.68 4.62 8 7 C8.66 8.65 9.32 10.3 10 12 C8.35 11.67 6.7 11.34 5 11 C3.35 11.33 1.7 11.66 0 12 C0 8.04 0 4.08 0 0 Z " fill="#F7F9F7" transform="translate(493,642)"/>
<path d="M0 0 C1.98 0 3.96 0 6 0 C6.33 0.99 6.66 1.98 7 3 C6.01 3.33 5.02 3.66 4 4 C5.32 4.99 6.64 5.98 8 7 C7 11 7 11 5 13 C2.69 12.67 0.38 12.34 -2 12 C-2 11.01 -2 10.02 -2 9 C-1.175 9.165 -1.175 9.165 3 10 C3 9.34 3 8.68 3 8 C2.175 7.67 2.175 7.67 -2 6 C-1 1 -1 1 0 0 Z " fill="#F6F9F5" transform="translate(407,642)"/>
<path d="M0 0 C2.97 0 5.94 0 9 0 C9 0.99 9 1.98 9 3 C7.35 3 5.7 3 4 3 C4 3.66 4 4.32 4 5 C5.32 5 6.64 5 8 5 C8 5.66 8 6.32 8 7 C6.68 7 5.36 7 4 7 C4 7.66 4 8.32 4 9 C5.65 9 7.3 9 9 9 C9 9.99 9 10.98 9 12 C6.03 12 3.06 12 0 12 C0 8.04 0 4.08 0 0 Z " fill="#F7F9F8" transform="translate(584,642)"/>
<path d="M0 0 C2.31 0 4.62 0 7 0 C7 0.99 7 1.98 7 3 C6.01 3.33 5.02 3.66 4 4 C4.99 4.66 5.98 5.32 7 6 C7 7.65 7 9.3 7 11 C6.67 11.33 6.34 11.66 6 12 C3.69 12 1.38 12 -1 12 C-1.33 11.01 -1.66 10.02 -2 9 C-1.01 8.67 -0.02 8.34 1 8 C0.01 7.34 -0.98 6.68 -2 6 C-1 1 -1 1 0 0 Z " fill="#F7F9F6" transform="translate(507,642)"/>
<path d="M0 0 C2.64 0 5.28 0 8 0 C8 0.66 8 1.32 8 2 C6.68 2 5.36 2 4 2 C4 2.66 4 3.32 4 4 C5.32 4 6.64 4 8 4 C8.33 6.31 8.66 8.62 9 11 C6.03 11 3.06 11 0 11 C0 7.37 0 3.74 0 0 Z " fill="#F5F8F5" transform="translate(573,643)"/>
<path d="M0 0 C2.97 0 5.94 0 9 0 C9 0.99 9 1.98 9 3 C7.35 3 5.7 3 4 3 C4 3.66 4 4.32 4 5 C5.65 5 7.3 5 9 5 C9 5.99 9 6.98 9 8 C7.35 8 5.7 8 4 8 C4 9.32 4 10.64 4 12 C2.68 12 1.36 12 0 12 C0 8.04 0 4.08 0 0 Z " fill="#F1F5F0" transform="translate(561,642)"/>
<path d="M0 0 C2.31 0 4.62 0 7 0 C7 1.32 7 2.64 7 4 C5.35 4 3.7 4 2 4 C2 5.32 2 6.64 2 8 C3.65 8.33 5.3 8.66 7 9 C7 9.99 7 10.98 7 12 C4.69 12 2.38 12 0 12 C-0.99 11.01 -1.98 10.02 -3 9 C-3 7.02 -3 5.04 -3 3 C-2.01 2.01 -1.02 1.02 0 0 Z " fill="#F2F6F0" transform="translate(526,642)"/>
<path d="M0 0 C0.99 0.99 1.98 1.98 3 3 C2.67 4.32 2.34 5.64 2 7 C3.65 6.34 5.3 5.68 7 5 C7 5.66 7 6.32 7 7 C7.66 7 8.32 7 9 7 C8.67 7.99 8.34 8.98 8 10 C2.72 10 -2.56 10 -8 10 C-8 9.01 -8 8.02 -8 7 C-6.02 6.67 -4.04 6.34 -2 6 C-2.33 4.68 -2.66 3.36 -3 2 C-2.01 1.34 -1.02 0.68 0 0 Z " fill="#F1F6F0" transform="translate(645,647)"/>
<path d="M0 0 C2.97 0 5.94 0 9 0 C9 0.99 9 1.98 9 3 C7.35 3 5.7 3 4 3 C4 3.66 4 4.32 4 5 C5.32 5 6.64 5 8 5 C8 5.99 8 6.98 8 8 C6.68 8 5.36 8 4 8 C4 9.32 4 10.64 4 12 C2.68 12 1.36 12 0 12 C0 8.04 0 4.08 0 0 Z " fill="#F8F9F7" transform="translate(550,642)"/>
<path d="M0 0 C0.33 0.99 0.66 1.98 1 3 C-0.65 3.66 -2.3 4.32 -4 5 C-4 5.99 -4 6.98 -4 8 C-3.01 8.165 -3.01 8.165 2 9 C1.67 9.99 1.34 10.98 1 12 C-1.31 12 -3.62 12 -6 12 C-6.99 11.01 -7.98 10.02 -9 9 C-8.67 6.69 -8.34 4.38 -8 2 C-5 0 -5 0 0 0 Z " fill="#F4F7F1" transform="translate(489,642)"/>
<path d="M0 0 C3.63 0 7.26 0 11 0 C11 0.99 11 1.98 11 3 C9.68 3 8.36 3 7 3 C7 5.97 7 8.94 7 12 C5.68 12 4.36 12 3 12 C3 9.03 3 6.06 3 3 C2.01 3 1.02 3 0 3 C0 2.01 0 1.02 0 0 Z " fill="#F2F4F0" transform="translate(416,642)"/>
<path d="M0 0 C1 2 1 2 -2 14 C-3.32 14.33 -4.64 14.66 -6 15 C-6 14.34 -6 13.68 -6 13 C-7.65 13.33 -9.3 13.66 -11 14 C-10 12 -10 12 -7 11 C-6.67 10.34 -6.34 9.68 -6 9 C-6.66 8.67 -7.32 8.34 -8 8 C-7.01 7.67 -6.02 7.34 -5 7 C-5.33 6.01 -5.66 5.02 -6 4 C-4.02 2.68 -2.04 1.36 0 0 Z " fill="#7EB38C" transform="translate(636,659)"/>
<path d="M0 0 C2.31 0.66 4.62 1.32 7 2 C7 1.34 7 0.68 7 0 C7.99 0 8.98 0 10 0 C10.33 1.98 10.66 3.96 11 6 C10.34 5.67 9.68 5.34 9 5 C9 5.33 9 5.66 9 6 C9 7.667 9 9.333 9 11 C8 9 7 7 6 5 C4.68 5 3.36 5 2 5 C1 10 1 10 2 16 C1.67 17.98 1.34 19.96 1 22 C-3.405 15.392 -1.232 7.391 0 0 Z " fill="#A0C8AA" transform="translate(641,665)"/>
<path d="M0 0 C0.33 0 0.66 0 1 0 C1.33 1.98 1.66 3.96 2 6 C4 4 4 4 5 1 C5.66 1 6.32 1 7 1 C6.34 2.98 5.68 4.96 5 7 C4.67 8.65 4.34 10.3 4 12 C4.99 12.99 5.98 13.98 7 15 C7.33 13.02 7.66 11.04 8 9 C8.33 9 8.66 9 9 9 C8.67 11.31 8.34 13.62 8 16 C3 15 3 15 1 13 C0.175 13.495 0.175 13.495 -4 16 C-3 13 -3 13 0 11 C-0.33 8.03 -0.66 5.06 -1 2 C-0.67 1.34 -0.34 0.68 0 0 Z " fill="#F9EBDB" transform="translate(80,1304)"/>
<path d="M0 0 C0.33 0 0.66 0 1 0 C1 3.96 1 7.92 1 12 C0.34 11.67 -0.32 11.34 -1 11 C-1 10.34 -1 9.68 -1 9 C-2.98 9 -4.96 9 -7 9 C-7.33 7.68 -7.66 6.36 -8 5 C-7.34 4.34 -6.68 3.68 -6 3 C-4.68 3 -3.36 3 -2 3 C-1.67 2.34 -1.34 1.68 -1 1 C-0.67 0.67 -0.34 0.34 0 0 Z " fill="#A7C9AC" transform="translate(492,642)"/>
<path d="M0 0 C6.27 0 12.54 0 19 0 C19 0.99 19 1.98 19 3 C12.73 3 6.46 3 0 3 C0 2.01 0 1.02 0 0 Z " fill="#E8F0E8" transform="translate(524,685)"/>
<path d="M0 0 C3.96 0 7.92 0 12 0 C12 3.96 12 7.92 12 12 C11.34 11.67 10.68 11.34 10 11 C10 10.34 10 9.68 10 9 C8.35 9 6.7 9 5 9 C6.32 8.67 7.64 8.34 9 8 C9 7.01 9 6.02 9 5 C7.68 5 6.36 5 5 5 C5 4.34 5 3.68 5 3 C6.32 3 7.64 3 9 3 C9 2.34 9 1.68 9 1 C6.36 1 3.72 1 1 1 C1 4.63 1 8.26 1 12 C0.67 12 0.34 12 0 12 C0 8.04 0 4.08 0 0 Z " fill="#B2D1B8" transform="translate(572,642)"/>
<path d="M0 0 C0.99 0.33 1.98 0.66 3 1 C3 3.64 3 6.28 3 9 C3.33 9.66 3.66 10.32 4 11 C2.68 11 1.36 11 0 11 C0 10.34 0 9.68 0 9 C-1.65 9 -3.3 9 -5 9 C-5.33 7.35 -5.66 5.7 -6 4 C-2 3 -2 3 0 3 C0 2.01 0 1.02 0 0 Z " fill="#8FBC97" transform="translate(533,642)"/>
<path d="M0 0 C0.66 0.33 1.32 0.66 2 1 C2.33 2.32 2.66 3.64 3 5 C4.32 5.99 5.64 6.98 7 8 C5.35 8 3.7 8 2 8 C2.33 8.99 2.66 9.98 3 11 C2.67 11.33 2.34 11.66 2 12 C0.35 12 -1.3 12 -3 12 C-2.01 11.67 -1.02 11.34 0 11 C-0.99 9.35 -1.98 7.7 -3 6 C-1 1 -1 1 0 0 Z " fill="#A0C5A6" transform="translate(503,643)"/>
<path d="M0 0 C1.98 0.66 3.96 1.32 6 2 C6.33 3.65 6.66 5.3 7 7 C6.34 7.66 5.68 8.32 5 9 C3.35 9 1.7 9 0 9 C0 6.03 0 3.06 0 0 Z " fill="#CFE3D4" transform="translate(636,705)"/>
<path d="M0 0 C1.32 0 2.64 0 4 0 C4 3.3 4 6.6 4 10 C3.34 10.66 2.68 11.32 2 12 C1.01 12 0.02 12 -1 12 C-0.67 8.04 -0.34 4.08 0 0 Z " fill="#F7F7F1" transform="translate(474,642)"/>
<path d="M0 0 C1.98 0 3.96 0 6 0 C5.67 2.64 5.34 5.28 5 8 C3.68 8 2.36 8 1 8 C0.67 8.99 0.34 9.98 0 11 C-1 9 -1 9 0 0 Z " fill="#F3D9B9" transform="translate(69,1308)"/>
<path d="M0 0 C0.99 0 1.98 0 3 0 C6 7 6 7 6 11 C4.68 11 3.36 11 2 11 C2 10.34 2 9.68 2 9 C1.01 9 0.02 9 -1 9 C-0.34 6.69 0.32 4.38 1 2 C0.34 1.67 -0.32 1.34 -1 1 C-0.67 0.67 -0.34 0.34 0 0 Z " fill="#F8FAF8" transform="translate(433,643)"/>
<path d="M0 0 C4.95 0 9.9 0 15 0 C15 0.99 15 1.98 15 3 C10.05 3 5.1 3 0 3 C0 2.01 0 1.02 0 0 Z " fill="#DFEDE0" transform="translate(524,694)"/>
<path d="M0 0 C2.31 0.66 4.62 1.32 7 2 C7 8 7 8 6 11 C4.68 10.67 3.36 10.34 2 10 C1.67 7.69 1.34 5.38 1 3 C0.67 2.01 0.34 1.02 0 0 Z " fill="#BDD8C3" transform="translate(659,664)"/>
<path d="M0 0 C0.66 0.33 0.66 0.33 4 2 C5 5 5 5 4 11 C2.68 10.67 1.36 10.34 0 10 C0 6.7 0 3.4 0 0 Z " fill="#86B992" transform="translate(656,663)"/>
<path d="M0 0 C2.97 0 5.94 0 9 0 C8.67 0.165 8.67 0.165 7 1 C7 1.66 7 2.32 7 3 C6.34 3 5.68 3 5 3 C4.67 4.65 4.34 6.3 4 8 C3.34 8.66 2.68 9.32 2 10 C1.34 6.7 0.68 3.4 0 0 Z " fill="#F3D9BB" transform="translate(80,1302)"/>
<path d="M0 0 C0.66 0.33 1.32 0.66 2 1 C2 1.66 2 2.32 2 3 C2.99 3.33 3.98 3.66 5 4 C4.34 5.32 3.68 6.64 3 8 C0.69 8.66 -1.62 9.32 -4 10 C-2.667 6.667 -1.333 3.333 0 0 Z " fill="#EEF5EC" transform="translate(629,655)"/>
<path d="M0 0 C4.62 0 9.24 0 14 0 C14 1.32 14 2.64 14 4 C15.32 4.33 16.64 4.66 18 5 C18.33 6.65 18.66 8.3 19 10 C18.34 10.33 18.34 10.33 15 12 C15.66 10.02 16.32 8.04 17 6 C15.35 6.33 13.7 6.66 12 7 C12.33 5.02 12.66 3.04 13 1 C8.71 1 4.42 1 0 1 C0 0.67 0 0.34 0 0 Z " fill="#F4F7F5" transform="translate(656,702)"/>
<path d="M0 0 C3 3 3 3 9 20 C8.01 19.67 7.02 19.34 6 19 C5.67 17.02 5.34 15.04 5 13 C3.68 12.67 2.36 12.34 1 12 C1.99 12 2.98 12 4 12 C3.01 9.03 2.02 6.06 1 3 C0.34 3 -0.32 3 -1 3 C-0.67 2.01 -0.34 1.02 0 0 Z " fill="#F9EDDF" transform="translate(24,1299)"/>
<path d="M0 0 C-0.33 2.31 -0.66 4.62 -1 7 C-1.99 7.33 -2.98 7.66 -4 8 C-4.66 8.99 -5.32 9.98 -6 11 C-6 8.03 -6 5.06 -6 2 C-3 0 -3 0 0 0 Z " fill="#EFF4F0" transform="translate(673,708)"/>
<path d="M0 0 C3 1 3 1 5 4 C5 5.65 5 7.3 5 9 C3.35 9.66 1.7 10.32 0 11 C0 9.02 0 7.04 0 5 C-0.33 4.01 -0.66 3.02 -1 2 C-0.67 1.34 -0.34 0.68 0 0 Z " fill="#B2D5BA" transform="translate(635,673)"/>
<path d="M0 0 C0.66 0.33 1.32 0.66 2 1 C2.66 3.31 3.32 5.62 4 8 C-2 6 -2 6 -5 4 C-5 3.34 -5 2.68 -5 2 C-3.35 1.34 -1.7 0.68 0 0 Z " fill="#F8FBF7" transform="translate(660,656)"/>
<path d="M0 0 C0.99 0.99 1.98 1.98 3 3 C2.67 4.65 2.34 6.3 2 8 C0.68 7.67 -0.64 7.34 -2 7 C-2.33 5.35 -2.66 3.7 -3 2 C-2.01 1.34 -1.02 0.68 0 0 Z " fill="#EBF3EB" transform="translate(645,647)"/>
<path d="M0 0 C0.33 0.66 0.66 1.32 1 2 C1.99 2.33 2.98 2.66 4 3 C4.33 4.32 4.66 5.64 5 7 C1 9 1 9 -3 9 C-3.33 8.01 -3.66 7.02 -4 6 C-2.35 5.67 -0.7 5.34 1 5 C1.33 4.34 1.66 3.68 2 3 C1.34 3 0.68 3 0 3 C0 2.01 0 1.02 0 0 Z " fill="#92BF9C" transform="translate(652,651)"/>
<path d="M0 0 C1.98 0 3.96 0 6 0 C6 1.65 6 3.3 6 5 C4.35 5 2.7 5 1 5 C0.67 3.35 0.34 1.7 0 0 Z " fill="#F5F7F5" transform="translate(642,662)"/>
<path d="M0 0 C3.3 0 6.6 0 10 0 C9.67 0.99 9.34 1.98 9 3 C6.36 3 3.72 3 1 3 C0.67 2.01 0.34 1.02 0 0 Z " fill="#D9EADC" transform="translate(565,704)"/>
<path d="M0 0 C0.33 0 0.66 0 1 0 C1.33 3.63 1.66 7.26 2 11 C0.35 11.33 -1.3 11.66 -3 12 C-2.34 10.35 -1.68 8.7 -1 7 C-1.66 7 -2.32 7 -3 7 C-2 2 -2 2 0 0 Z " fill="#A9CCAF" transform="translate(466,642)"/>
<path d="M0 0 C2.97 0 5.94 0 9 0 C9 0.99 9 1.98 9 3 C6.03 3 3.06 3 0 3 C0 2.01 0 1.02 0 0 Z " fill="#E1EEE2" transform="translate(485,704)"/>
<path d="M0 0 C2.97 0 5.94 0 9 0 C9 0.99 9 1.98 9 3 C6.03 3 3.06 3 0 3 C0 2.01 0 1.02 0 0 Z " fill="#E0EDE2" transform="translate(485,695)"/>
<path d="M0 0 C2.97 0 5.94 0 9 0 C9 0.99 9 1.98 9 3 C6.03 3 3.06 3 0 3 C0 2.01 0 1.02 0 0 Z " fill="#E1EDE2" transform="translate(468,695)"/>
<path d="M0 0 C2.97 0 5.94 0 9 0 C9 0.99 9 1.98 9 3 C6.03 3 3.06 3 0 3 C0 2.01 0 1.02 0 0 Z " fill="#E5F0E5" transform="translate(485,686)"/>
<path d="M0 0 C2.97 0 5.94 0 9 0 C9 0.99 9 1.98 9 3 C6.03 3 3.06 3 0 3 C0 2.01 0 1.02 0 0 Z " fill="#E5EFE5" transform="translate(468,686)"/>
<path d="M0 0 C2.97 0 5.94 0 9 0 C9 0.99 9 1.98 9 3 C6.03 3 3.06 3 0 3 C0 2.01 0 1.02 0 0 Z " fill="#E0ECE1" transform="translate(485,668)"/>
<path d="M0 0 C2 2 2 2 4 8 C2.02 8 0.04 8 -2 8 C-1.34 5.36 -0.68 2.72 0 0 Z " fill="#F3D8B8" transform="translate(24,1302)"/>
<path d="M0 0 C2.31 0 4.62 0 7 0 C7.33 0.99 7.66 1.98 8 3 C5.03 3 2.06 3 -1 3 C-0.67 2.01 -0.34 1.02 0 0 Z " fill="#E3EEE1" transform="translate(552,685)"/>
<path d="M0 0 C2.64 0 5.28 0 8 0 C8 0.66 8 1.32 8 2 C6.68 2 5.36 2 4 2 C4 2.66 4 3.32 4 4 C2.68 4.33 1.36 4.66 0 5 C0 3.35 0 1.7 0 0 Z " fill="#F9FAF9" transform="translate(573,643)"/>
<path d="M0 0 C0.66 0 1.32 0 2 0 C1.67 1.32 1.34 2.64 1 4 C1.99 4.165 1.99 4.165 7 5 C7 5.33 7 5.66 7 6 C4.69 6.33 2.38 6.66 0 7 C-0.33 7.495 -0.33 7.495 -2 10 C-2.66 9.67 -3.32 9.34 -4 9 C-2.68 6.03 -1.36 3.06 0 0 Z " fill="#F8EAD9" transform="translate(44,1298)"/>
<path d="M0 0 C0.66 0.99 1.32 1.98 2 3 C1.67 3.33 1.34 3.66 1 4 C-2.63 4 -6.26 4 -10 4 C-9.67 3.34 -9.34 2.68 -9 2 C-6.03 2 -3.06 2 0 2 C0 1.34 0 0.68 0 0 Z " fill="#E0EDE2" transform="translate(666,717)"/>
<path d="M0 0 C2.64 0 5.28 0 8 0 C8 0.99 8 1.98 8 3 C5.36 3 2.72 3 0 3 C0 2.01 0 1.02 0 0 Z " fill="#DDECE0" transform="translate(577,694)"/>
<path d="M0 0 C2.64 0 5.28 0 8 0 C8 0.99 8 1.98 8 3 C5.36 3 2.72 3 0 3 C0 2.01 0 1.02 0 0 Z " fill="#E1ECE1" transform="translate(593,685)"/>
<path d="M0 0 C2.64 0 5.28 0 8 0 C8 0.99 8 1.98 8 3 C5.36 3 2.72 3 0 3 C0 2.01 0 1.02 0 0 Z " fill="#DDEADF" transform="translate(593,667)"/>
<path d="M0 0 C2.64 0 5.28 0 8 0 C8 0.99 8 1.98 8 3 C5.36 3 2.72 3 0 3 C0 2.01 0 1.02 0 0 Z " fill="#D7E8D9" transform="translate(577,667)"/>
<path d="M0 0 C0.33 0.99 0.66 1.98 1 3 C2.32 3.33 3.64 3.66 5 4 C3.68 4 2.36 4 1 4 C1 5.65 1 7.3 1 9 C-0.65 9.33 -2.3 9.66 -4 10 C-4 9.34 -4 8.68 -4 8 C-3.01 8 -2.02 8 -1 8 C-0.67 5.36 -0.34 2.72 0 0 Z " fill="#E1ECE4" transform="translate(635,711)"/>
<path d="M0 0 C1 3 1 3 0 12 C-0.33 12 -0.66 12 -1 12 C-1 10.02 -1 8.04 -1 6 C-1.66 6 -2.32 6 -3 6 C-3 4.68 -3 3.36 -3 2 C-2.01 1.34 -1.02 0.68 0 0 Z " fill="#9FC4A6" transform="translate(654,658)"/>
<path d="M0 0 C-4 2 -4 2 -9 2 C-9 1.01 -9 0.02 -9 -1 C-6 -2 -6 -2 0 0 Z " fill="#F4F6F2" transform="translate(646,655)"/>
<path d="M0 0 C0.825 0.165 0.825 0.165 5 1 C4.67 2.32 4.34 3.64 4 5 C2.68 4.67 1.36 4.34 0 4 C0 2.68 0 1.36 0 0 Z " fill="#9DC3A4" transform="translate(539,646)"/>
<path d="M0 0 C0.99 0 1.98 0 3 0 C3 0.99 3 1.98 3 3 C3.99 3.33 4.98 3.66 6 4 C4.02 4.66 2.04 5.32 0 6 C-1.32 5.01 -2.64 4.02 -4 3 C-2.35 3 -0.7 3 1 3 C0.67 2.01 0.34 1.02 0 0 Z " fill="#AACFAF" transform="translate(413,642)"/>
<path d="M0 0 C-0.33 1.32 -0.66 2.64 -1 4 C-1.99 4.33 -2.98 4.66 -4 5 C-4 4.34 -4 3.68 -4 3 C-4.66 3 -5.32 3 -6 3 C-6 2.34 -6 1.68 -6 1 C-4 0 -4 0 0 0 Z " fill="#DEEDDD" transform="translate(634,674)"/>
<path d="M0 0 C1.32 0 2.64 0 4 0 C3.67 1.65 3.34 3.3 3 5 C2.34 5 1.68 5 1 5 C0.67 5.66 0.34 6.32 0 7 C0 4.69 0 2.38 0 0 Z " fill="#87B890" transform="translate(424,646)"/>
<path d="M0 0 C1.98 0.66 3.96 1.32 6 2 C5.01 2.33 4.02 2.66 3 3 C3.33 3.99 3.66 4.98 4 6 C2.68 5.67 1.36 5.34 0 5 C0 3.35 0 1.7 0 0 Z " fill="#EFF7EF" transform="translate(657,674)"/>
<path d="M0 0 C1.32 0.33 2.64 0.66 4 1 C3.34 2.32 2.68 3.64 2 5 C2 7.31 2 9.62 2 12 C1.67 12 1.34 12 1 12 C0.67 8.04 0.34 4.08 0 0 Z " fill="#A3CAD0" transform="translate(209,978)"/>
<path d="M0 0 C0.99 0 1.98 0 3 0 C2.67 1.65 2.34 3.3 2 5 C1.01 5 0.02 5 -1 5 C-0.67 3.35 -0.34 1.7 0 0 Z " fill="#9FCAA7" transform="translate(670,708)"/>
<path d="M0 0 C0.66 1.32 1.32 2.64 2 4 C3.32 4.99 4.64 5.98 6 7 C4.02 7 2.04 7 0 7 C-1 4 -1 4 0 0 Z " fill="#9AC3A5" transform="translate(655,674)"/>
<path d="M0 0 C0.33 0 0.66 0 1 0 C0.67 2.64 0.34 5.28 0 8 C-0.33 7.01 -0.66 6.02 -1 5 C-2.32 5 -3.64 5 -5 5 C-5 4.34 -5 3.68 -5 3 C-3.35 3 -1.7 3 0 3 C0 2.01 0 1.02 0 0 Z " fill="#ACCDAE" transform="translate(559,642)"/>
<path d="M0 0 C1.65 0 3.3 0 5 0 C4.67 1.65 4.34 3.3 4 5 C2.68 4.67 1.36 4.34 0 4 C-0.33 3.01 -0.66 2.02 -1 1 C-0.67 0.67 -0.34 0.34 0 0 Z " fill="#B3D3BA" transform="translate(661,670)"/>
<path d="M0 0 C1 2 2 4 3 6 C1.68 6 0.36 6 -1 6 C-1 5.34 -1 4.68 -1 4 C-2.65 4 -4.3 4 -6 4 C-6 3.67 -6 3.34 -6 3 C-4.02 3 -2.04 3 0 3 C0 2.01 0 1.02 0 0 Z " fill="#A1C8A6" transform="translate(534,647)"/>
</svg>
