<?xml version="1.0" encoding="UTF-8"?>
<!-- Generator: visioncortex VTracer 0.6.12 -->
<svg version="1.1" xmlns="http://www.w3.org/2000/svg" width="768" height="1344">
<path d="M0 0 C253.44 0 506.88 0 768 0 C768 443.52 768 887.04 768 1344 C514.56 1344 261.12 1344 0 1344 C0 900.48 0 456.96 0 0 Z " fill="#E1E0E0" transform="translate(0,0)"/>
<path d="M0 0 C9.401 12.535 -2.451 51.064 -3 55 C-12 112 -12 112 -14 119 C-16.31 118.67 -18.62 118.34 -21 118 C-21.33 119.32 -21.66 120.64 -22 122 C-30.446 130.446 -46.32 130.398 -57 132 C-114.25 132 -114.25 132 -130 125 C-131.32 123.68 -132.64 122.36 -134 121 C-134 119.35 -134 117.7 -134 116 C-120.921 105.101 -103.416 105 -87 105 C-86.67 99.39 -86.34 93.78 -86 88 C-85.34 83.38 -84.68 78.76 -84 74 C-90.6 75.32 -97.2 76.64 -104 78 C-131.346 81.729 -158.413 83 -186 83 C-186 117.32 -186 151.64 -186 187 C-181.71 185.845 -181.71 185.845 -160 180 C-143 176 -143 176 -140 176 C-140 173.69 -140 171.38 -140 169 C-135 143 -135 143 -134 139 C-130 140 -130 140 -127 141 C-129.6 164.4 -129.6 164.4 -132 174 C-119.13 170.7 -106.26 167.4 -93 164 C-92.01 164 -91.02 164 -90 164 C-89.67 158.72 -89.34 153.44 -89 148 C-87.02 148 -85.04 148 -83 148 C-83 152.62 -83 157.24 -83 162 C-80.03 161.34 -77.06 160.68 -74 160 C-72.02 160 -70.04 160 -68 160 C-59.557 189.549 -63.445 221.302 -62 252 C-61.67 252.33 -61.34 252.66 -61 253 C-59.35 253 -57.7 253 -56 253 C-56 226.981 -57.557 200.979 -59 175 C-59 169.06 -59 163.12 -59 157 C-56.669 156.423 -54.339 155.845 -51.938 155.25 C-43.933 153.258 -35.963 151.151 -28 149 C-26.02 149 -24.04 149 -22 149 C-22.33 145.37 -22.66 141.74 -23 138 C-18 135 -18 135 -16 135 C-15.34 138.63 -14.68 142.26 -14 146 C-6.74 144.35 0.52 142.7 8 141 C21 141 21 141 42 143 C42 157.697 38.175 171.714 35 186 C35 188.97 35 191.94 35 195 C36.98 195 38.96 195 41 195 C41 192.36 41 189.72 41 187 C46 158 46 158 49 144 C63.368 144 77.687 145.737 92 147 C92 158.22 92 169.44 92 181 C93.65 180.34 95.3 179.68 97 179 C97.33 168.44 97.66 157.88 98 147 C99.65 147.33 101.3 147.66 103 148 C104.267 167.637 105 187.322 105 207 C106.98 207 108.96 207 111 207 C111 183 111 183 110 172 C110 164.41 110 156.82 110 149 C125.061 149.886 140.052 150.865 155 153 C155.66 157.29 156.32 161.58 157 166 C157.99 170.29 158.98 174.58 160 179 C160.66 183.62 161.32 188.24 162 193 C161.526 193.134 161.526 193.134 159.125 193.812 C145.336 197.748 145.336 197.748 141 201 C141 202.65 141 204.3 141 206 C163.397 218.799 191.633 215.569 216 211 C225 208 225 208 227 206 C227 204.35 227 202.7 227 201 C216.188 194.822 205.237 194.02 193 193 C193 180.79 193 168.58 193 156 C226 156 226 156 238 159 C236.149 174.731 233.604 190.376 231 206 C230.67 209.3 230.34 212.6 230 216 C231.65 216 233.3 216 235 216 C239.24 207.52 238.558 197.371 240 188 C241.65 178.76 243.3 169.52 245 160 C272 161 272 161 280 162 C281 167 281 167 280 175 C280 182.59 280 190.18 280 198 C281.65 197.67 283.3 197.34 285 197 C285.66 186.11 286.32 175.22 287 164 C296.158 162.168 305.696 164.191 315 165 C316.938 178.565 317.195 192.32 318 206 C318.66 212.6 319.32 219.2 320 226 C321.65 226 323.3 226 325 226 C325 207 325 207 324 201 C323.67 194.73 323.34 188.46 323 182 C322.67 179.69 322.34 177.38 322 175 C322 172.03 322 169.06 322 166 C345 167 345 167 358 169 C360.466 182.981 362.839 196.969 365 211 C366.98 210.67 368.96 210.34 371 210 C369.789 197.895 367.297 185.947 365 174 C365 172.68 365 171.36 365 170 C379.701 170 394.368 171.584 409 173 C409 270.68 409 368.36 409 469 C155.56 469 -97.88 469 -359 469 C-359 389.8 -359 310.6 -359 229 C-278 209 -278 209 -252 203 C-237.638 199.445 -223.319 195.727 -209 192 C-208.01 192 -207.02 192 -206 192 C-206 156.36 -206 120.72 -206 84 C-213.26 84 -220.52 84 -228 84 C-300.533 79.733 -300.533 79.733 -322 69 C-324.39 64.22 -323 58.344 -323 53 C-264.298 16.311 -155.131 32.974 -90 46 C-87.69 46 -85.38 46 -83 46 C-81.68 31.81 -80.36 17.62 -79 3 C-75 -3 -75 -3 -71 -5 C-47.753 -7.325 -22.176 -8.316 0 0 Z " fill="#B4B7BB" transform="translate(359,875)"/>
<path d="M0 0 C0 5.28 0 10.56 0 16 C1.415 15.998 2.83 15.995 4.288 15.993 C40.408 15.94 76.522 16.087 112.641 16.404 C116.569 16.438 120.498 16.471 124.426 16.504 C169.619 16.884 214.81 17.376 260 18 C260 13.05 260 8.1 260 3 C275.18 3 290.36 3 306 3 C306 92.43 306 181.86 306 274 C291.32 273.227 276.654 272.172 262 271 C264.31 282.88 266.62 294.76 269 307 C268.67 308.65 268.34 310.3 268 312 C266.02 312 264.04 312 262 312 C258.772 298.012 256.193 284.315 255 270 C249.06 269.505 249.06 269.505 219 267 C219.66 272.28 220.32 277.56 221 283 C221.33 289.27 221.66 295.54 222 302 C222.33 303.98 222.66 305.96 223 308 C223 314.27 223 320.54 223 327 C222.67 327.33 222.34 327.66 222 328 C220.35 328 218.7 328 217 328 C212.423 323.423 212.255 273.388 212 266 C203.09 265.67 194.18 265.34 185 265 C184.34 275.89 183.68 286.78 183 298 C182.34 298.66 181.68 299.32 181 300 C179.35 299.67 177.7 299.34 176 299 C176 287.329 176.031 275.631 177 264 C165.45 263.01 153.9 262.02 142 261 C141.34 266.28 140.68 271.56 140 277 C138.35 286.57 136.7 296.14 135 306 C134.67 308.97 134.34 311.94 134 315 C133.34 315.99 132.68 316.98 132 318 C130.35 318 128.7 318 127 318 C126.67 317.67 126.34 317.34 126 317 C127.912 297.878 131.727 278.928 135 260 C127.575 259.505 127.575 259.505 90 257 C90 269.21 90 281.42 90 294 C93.96 294 97.92 294 102 294 C117 297 117 297 125 302 C125 303.65 125 305.3 125 307 C117.975 314.025 106.151 314.284 97 316 C49 316 49 316 37 307 C37 305.35 37 303.7 37 302 C42 298 42 298 58 294 C54 269 54 269 52 262 C52 259.36 52 256.72 52 254 C51.34 253.951 50.68 253.902 50 253.852 C19.211 251.526 19.211 251.526 7 250 C8 273 8 273 9 284 C9 291.92 9 299.84 9 308 C4 309 4 309 2 308 C1.67 298.76 1.34 289.52 1 280 C0.67 275.71 0.34 271.42 0 267 C0 261.06 0 255.12 0 249 C-1.32 249 -2.64 249 -4 249 C-4.33 259.23 -4.66 269.46 -5 280 C-5.66 280.66 -6.32 281.32 -7 282 C-8.32 282 -9.64 282 -11 282 C-16.068 271.863 -11.354 259.328 -11 248 C-19.25 247.67 -27.5 247.34 -36 247 C-41.94 246.34 -47.88 245.68 -54 245 C-54.33 248.63 -54.66 252.26 -55 256 C-55.99 261.28 -56.98 266.56 -58 272 C-59.32 279.92 -60.64 287.84 -62 296 C-63.98 296.33 -65.96 296.66 -68 297 C-68.33 296.67 -68.66 296.34 -69 296 C-69 287 -69 287 -65 269 C-63.68 260.75 -62.36 252.5 -61 244 C-64.96 244 -68.92 244 -73 244 C-75.97 243.67 -78.94 243.34 -82 243 C-95 243 -95 243 -112 247 C-113.65 247 -115.3 247 -117 247 C-119 241 -119 241 -119 236 C-120.98 236.99 -122.96 237.98 -125 239 C-125 242.63 -125 246.26 -125 250 C-152 256 -152 256 -162 258 C-161.34 269.88 -161.34 269.88 -158 330 C-158 337.92 -158 345.84 -158 354 C-158.33 354.33 -158.66 354.66 -159 355 C-160.65 355 -162.3 355 -164 355 C-184.555 334.445 -168.634 297.037 -170 268 C-170.33 266.02 -170.66 264.04 -171 262 C-175.95 262.33 -180.9 262.66 -186 263 C-186 258.38 -186 253.76 -186 249 C-187.98 249 -189.96 249 -192 249 C-192 251.97 -192 254.94 -192 258 C-192.33 260.31 -192.66 262.62 -193 265 C-230.143 275 -230.143 275 -235 275 C-233.62 263.96 -231.933 252.956 -230 242 C-231.32 241.67 -232.64 241.34 -234 241 C-234.99 240.67 -235.98 240.34 -237 240 C-237.33 242.64 -237.66 245.28 -238 248 C-238.825 252.785 -238.825 252.785 -243 277 C-254.583 280.309 -266.281 283.21 -278 286 C-280.31 286.66 -282.62 287.32 -285 288 C-286.32 288 -287.64 288 -289 288 C-289 253.68 -289 219.36 -289 184 C-269.2 183.01 -249.4 182.02 -229 181 C-215.968 179.223 -202.953 177.286 -190 175 C-189.01 175 -188.02 175 -187 175 C-187.74 185.355 -188.787 195.69 -190 206 C-193.465 206.33 -193.465 206.33 -211 208 C-231.571 212.571 -231.571 212.571 -236 217 C-236 218.65 -236 220.3 -236 222 C-217.37 237.525 -180.487 232 -160 232 C-136 228 -136 228 -127 224 C-126.505 223.175 -126.505 223.175 -124 219 C-121.69 219.33 -119.38 219.66 -117 220 C-116.844 218.986 -116.689 217.972 -116.529 216.928 C-115.927 213.007 -115.324 209.086 -114.722 205.165 C-114.448 203.384 -114.175 201.603 -113.901 199.822 C-112.505 190.729 -111.108 181.636 -109.664 172.551 C-101 117.939 -101 117.939 -101 105 C-104 101 -104 101 -117 98 C-166.91 92.746 -166.91 92.746 -179 100 C-186.063 114.126 -183.537 131.274 -185 147 C-185.33 147.33 -185.66 147.66 -186 148 C-196.088 148 -206.061 145.729 -216 144 C-368.163 129.735 -368.163 129.735 -424 153 C-424.33 153.33 -424.66 153.66 -425 154 C-425 159.28 -425 164.56 -425 170 C-388.688 184.525 -347.334 183.175 -309 185 C-309 220.64 -309 256.28 -309 293 C-347 303 -347 303 -357.945 305.496 C-373.254 309.014 -388.503 312.767 -403.751 316.538 C-406.594 317.24 -409.438 317.941 -412.282 318.642 C-427.528 322.401 -442.77 326.177 -458 330 C-459.32 330 -460.64 330 -462 330 C-462 224.4 -462 118.8 -462 10 C-390.706 7.498 -319.41 5.089 -248.109 2.799 C-247.672 2.785 -247.672 2.785 -245.461 2.714 C-244.589 2.686 -243.716 2.657 -242.818 2.629 C-236.759 2.434 -230.7 2.238 -224.642 2.041 C-149.694 -0.391 -75.092 -1.502 0 0 Z " fill="#DCDCDC" transform="translate(462,774)"/>
<path d="M0 0 C0.33 0.33 0.33 0.33 2 2 C1.67 3.98 1.34 5.96 1 8 C-6 12 -6 12 -13 12 C-12.67 54.57 -12.34 97.14 -12 141 C-3.712 144.767 4.632 148.414 13 152 C14.815 152.825 14.815 152.825 24 157 C28.562 158.98 33.125 160.959 37.688 162.938 C38.369 163.233 39.051 163.529 39.753 163.833 C49.12 167.894 58.495 171.934 67.882 175.947 C75.608 179.253 83.308 182.616 91 186 C95.29 187.65 99.58 189.3 104 191 C110 194 116 197 122 200 C122 229.04 122 258.08 122 288 C122.66 288 123.32 288 124 288 C123.835 254.835 123.835 254.835 123 87 C120.36 87 117.72 87 115 87 C113.35 85.68 111.7 84.36 110 83 C110.33 81.68 110.66 80.36 111 79 C117 76 117 76 132 76 C133.98 76.99 135.96 77.98 138 79 C138 80.65 138 82.3 138 84 C131 88 131 88 126 88 C126 125.62 126 163.24 126 202 C127.485 202.495 127.485 202.495 135 205 C160 216 160 216 166 219 C166.33 248.7 166.66 278.4 167 309 C168.98 311.97 170.96 314.94 173 318 C179.391 332.38 180 340.686 180 357 C173 356 173 356 165 354 C155 353 155 353 142 353 C141.01 354.98 140.02 356.96 139 359 C131.572 365.19 129.707 366 120 366 C111 362 111 362 107 357 C106.67 355.02 106.34 353.04 106 351 C108.31 350.67 110.62 350.34 113 350 C110.69 348.02 108.38 346.04 106 344 C99.942 331.885 99 327.802 99 314 C103 302 103 302 110 292 C98.504 292 91.355 299.164 83 306 C69.159 325.032 68.025 337.419 67 361 C93.43 369.81 123.694 370.413 151 367 C155.95 367 160.9 367 166 367 C166 428.71 166 490.42 166 554 C148.918 554 131.928 551.288 115 549 C106.09 548.01 97.18 547.02 88 546 C78.43 544.68 68.86 543.36 59 542 C55.7 541.67 52.4 541.34 49 541 C49 583.57 49 626.14 49 670 C12.491 670 -23.996 669.905 -60.5 669.5 C-75.845 669.335 -91.19 669.17 -107 669 C-107 620.16 -107 571.32 -107 521 C-111.95 520.67 -116.9 520.34 -122 520 C-149.381 516.638 -176.688 512.902 -204 509 C-204 360.17 -204 211.34 -204 58 C-196.08 61.3 -188.16 64.6 -180 68 C-175.005 70.012 -170.007 72.018 -165 74 C-162.525 75.155 -162.525 75.155 -150 81 C-146.7 82.32 -143.4 83.64 -140 85 C-136.7 86.65 -133.4 88.3 -130 90 C-126.7 91.32 -123.4 92.64 -120 94 C-111.09 97.96 -102.18 101.92 -93 106 C-88.71 107.65 -84.42 109.3 -80 111 C-78.226 111.825 -76.453 112.65 -74.625 113.5 C-57.865 121.252 -40.905 128.572 -24 136 C-22.68 136.66 -22.68 136.66 -16 140 C-16 97.76 -16 55.52 -16 12 C-18.97 11.67 -21.94 11.34 -25 11 C-26.98 9.68 -28.96 8.36 -31 7 C-31.33 5.35 -31.66 3.7 -32 2 C-20.63 -4.497 -12.732 -3.82 0 0 Z " fill="#F7F5F5" transform="translate(204,71)"/>
<path d="M0 0 C28.006 23.697 43.603 50.75 50 87 C50 116.37 50 145.74 50 176 C59.57 175.67 69.14 175.34 79 175 C84.61 175 90.22 175 96 175 C96 229.12 96 283.24 96 339 C80.82 339 65.64 339 50 339 C50 343.95 50 348.9 50 354 C3.478 354.134 -43.039 353.972 -89.559 353.594 C-93.429 353.563 -97.3 353.533 -101.17 353.503 C-137.452 353.22 -173.724 352.701 -210 352 C-210 346.72 -210 341.44 -210 336 C-325.557 336 -325.557 336 -376.215 337.305 C-377.201 337.33 -378.188 337.356 -379.204 337.382 C-406.577 338.092 -433.945 338.981 -461.312 339.875 C-462.602 339.917 -463.891 339.959 -465.219 340.003 C-477.175 340.393 -489.13 340.786 -501.086 341.181 C-521.233 341.845 -541.38 342.5 -561.527 343.148 C-561.89 343.16 -561.89 343.16 -563.727 343.219 C-570.907 343.451 -578.087 343.682 -585.268 343.913 C-598.051 344.324 -610.834 344.736 -623.618 345.149 C-629.273 345.331 -634.929 345.514 -640.585 345.696 C-643.692 345.797 -646.799 345.897 -650 346 C-657.26 346 -664.52 346 -672 346 C-672 278.68 -672 211.36 -672 142 C-665 142 -665 142 -662.83 142.317 C-651.578 143.942 -640.312 145.46 -629.045 146.977 C-625.667 147.432 -622.288 147.889 -618.91 148.346 C-616.682 148.646 -614.454 148.946 -612.227 149.246 C-611.257 149.377 -610.287 149.509 -609.288 149.644 C-597.868 151.177 -586.435 152.571 -575 154 C-575 202.84 -575 251.68 -575 302 C-542 302 -509 302 -475 302 C-456.52 302.33 -438.04 302.66 -419 303 C-419 260.43 -419 217.86 -419 174 C-405.932 174 -392.946 176.214 -380 178 C-365.48 179.65 -350.96 181.3 -336 183 C-329.4 183.99 -322.8 184.98 -316 186 C-301.241 187.64 -286.785 186.924 -272 186 C-251.338 185.456 -230.669 185 -210 185 C-210 156.95 -210 128.9 -210 100 C-205.714 72.857 -205.714 72.857 -200 60 C-198.68 56.7 -197.36 53.4 -196 50 C-176.298 17.164 -151.779 -5.689 -116 -20 C-73.48 -30.63 -36.263 -24.175 0 0 Z " fill="#9B9797" transform="translate(672,438)"/>
<path d="M0 0 C0 80.19 0 160.38 0 243 C-20 248 -20 248 -25 248 C-27 242 -27 242 -27 237 C-28.98 237.99 -30.96 238.98 -33 240 C-33 243.63 -33 247.26 -33 251 C-60 257 -60 257 -70 259 C-69.34 270.88 -69.34 270.88 -66 331 C-66 338.92 -66 346.84 -66 355 C-66.33 355.33 -66.66 355.66 -67 356 C-68.65 356 -70.3 356 -72 356 C-92.555 335.445 -76.634 298.037 -78 269 C-78.33 267.02 -78.66 265.04 -79 263 C-83.95 263.33 -88.9 263.66 -94 264 C-94 259.38 -94 254.76 -94 250 C-95.98 250 -97.96 250 -100 250 C-100 252.97 -100 255.94 -100 259 C-100.33 261.31 -100.66 263.62 -101 266 C-138.143 276 -138.143 276 -143 276 C-141.62 264.96 -139.933 253.956 -138 243 C-139.32 242.67 -140.64 242.34 -142 242 C-142.99 241.67 -143.98 241.34 -145 241 C-145.33 243.64 -145.66 246.28 -146 249 C-146.825 253.785 -146.825 253.785 -151 278 C-162.583 281.309 -174.281 284.21 -186 287 C-188.31 287.66 -190.62 288.32 -193 289 C-194.32 289 -195.64 289 -197 289 C-197 254.68 -197 220.36 -197 185 C-177.2 184.01 -157.4 183.02 -137 182 C-123.968 180.223 -110.953 178.286 -98 176 C-97.01 176 -96.02 176 -95 176 C-95.74 186.355 -96.787 196.69 -98 207 C-101.465 207.33 -101.465 207.33 -119 209 C-139.571 213.571 -139.571 213.571 -144 218 C-144 219.65 -144 221.3 -144 223 C-125.37 238.525 -88.487 233 -68 233 C-44 229 -44 229 -35 225 C-34.505 224.175 -34.505 224.175 -32 220 C-29.69 220.33 -27.38 220.66 -25 221 C-24.844 219.986 -24.689 218.972 -24.529 217.928 C-23.927 214.007 -23.324 210.086 -22.722 206.165 C-22.448 204.384 -22.175 202.603 -21.901 200.822 C-20.505 191.729 -19.108 182.636 -17.664 173.551 C-9 118.939 -9 118.939 -9 106 C-12 102 -12 102 -25 99 C-74.91 93.746 -74.91 93.746 -87 101 C-94.063 115.126 -91.537 132.274 -93 148 C-93.33 148.33 -93.66 148.66 -94 149 C-104.088 149 -114.061 146.729 -124 145 C-276.163 130.735 -276.163 130.735 -332 154 C-332.33 154.33 -332.66 154.66 -333 155 C-333 160.28 -333 165.56 -333 171 C-296.688 185.525 -255.334 184.175 -217 186 C-217 221.64 -217 257.28 -217 294 C-255 304 -255 304 -265.945 306.496 C-281.254 310.014 -296.503 313.767 -311.751 317.538 C-314.594 318.24 -317.438 318.941 -320.282 319.642 C-335.528 323.401 -350.77 327.177 -366 331 C-367.32 331 -368.64 331 -370 331 C-370 225.4 -370 119.8 -370 11 C-298.706 8.498 -227.41 6.089 -156.109 3.799 C-155.672 3.785 -155.672 3.785 -153.461 3.714 C-152.589 3.686 -151.716 3.657 -150.818 3.629 C-144.759 3.434 -138.7 3.238 -132.642 3.041 C-38.911 0 -38.911 0 0 0 Z " fill="#F7F7F7" transform="translate(370,773)"/>
<path d="M0 0 C7 0 7 0 9.17 0.317 C20.422 1.942 31.688 3.46 42.955 4.977 C46.333 5.432 49.712 5.889 53.09 6.346 C55.318 6.646 57.546 6.946 59.773 7.246 C60.743 7.377 61.713 7.509 62.712 7.644 C74.132 9.177 85.565 10.571 97 12 C97 60.84 97 109.68 97 160 C130 160 163 160 197 160 C215.48 160.33 233.96 160.66 253 161 C253 118.43 253 75.86 253 32 C266.068 32 279.054 34.214 292 36 C299.26 36.825 299.26 36.825 336 41 C342.6 41.99 349.2 42.98 356 44 C370.759 45.64 385.215 44.924 400 44 C420.662 43.456 441.331 43 462 43 C462 92.5 462 142 462 193 C445.356 193.124 428.711 193.247 411.562 193.375 C401.245 193.464 390.927 193.554 380.609 193.66 C379.352 193.673 378.094 193.686 376.798 193.699 C341.186 194.073 305.597 194.902 270 196 C268.938 196.033 267.877 196.065 266.783 196.099 C235.502 197.065 204.223 198.082 172.944 199.114 C152.12 199.801 131.297 200.478 110.473 201.148 C109.747 201.172 109.021 201.195 108.273 201.219 C101.093 201.451 93.913 201.682 86.732 201.913 C73.949 202.324 61.166 202.736 48.382 203.149 C42.727 203.331 37.071 203.514 31.415 203.696 C28.308 203.797 25.201 203.897 22 204 C14.74 204 7.48 204 0 204 C0 136.68 0 69.36 0 0 Z " fill="#D04A48" transform="translate(0,580)"/>
<path d="M0 0 C9.652 4.826 12.021 10.053 16 20 C18 29 18 29 18 47 C19.65 47.66 21.3 48.32 23 49 C35.29 59.754 38.395 69.945 40 86 C42.31 83.69 44.62 81.38 47 79 C48.98 78.34 50.96 77.68 53 77 C53 68.75 53 60.5 53 52 C56.382 38.471 59.882 27.078 72 19 C83 19 83 19 90 23 C134.204 81.939 93 170.327 93 244 C87 246 87 246 80 246 C80 255.9 80 265.8 80 276 C77.03 276 74.06 276 71 276 C71 265.77 71 255.54 71 245 C67.7 244.34 64.4 243.68 61 243 C48.103 234.793 38.056 227.112 31 213 C26 215 26 215 17 221 C6 226 6 226 -5 226 C-4.67 229.3 -4.34 232.6 -4 236 C-4 248.87 -4 261.74 -4 275 C-7.3 275 -10.6 275 -14 275 C-14 234 -14 234 -13 225 C-15.97 224.34 -18.94 223.68 -22 223 C-34.585 216.135 -41.782 209.741 -50 198 C-52.31 202.95 -54.62 207.9 -57 213 C-65.961 225.322 -73.072 233.024 -88 238 C-90.97 238 -93.94 238 -97 238 C-97 249.88 -97 261.76 -97 274 C-99.64 274 -102.28 274 -105 274 C-105 261.79 -105 249.58 -105 237 C-106.98 236.67 -108.96 236.34 -111 236 C-123 229 -123 229 -128 224 C-128 178.79 -128 133.58 -128 87 C-121 82 -121 82 -119 82 C-119.33 79.36 -119.66 76.72 -120 74 C-120 60.098 -118.789 50.221 -112 38 C-105 31 -105 31 -101 29 C-93 29 -93 29 -85 36 C-77.689 50.623 -77 56.36 -77 73 C-76.01 73.33 -76.01 73.33 -71 75 C-64.517 81.483 -61.96 87.121 -59 96 C-59 124 -59 124 -65 138 C-65 139.32 -65 140.64 -65 142 C-64.34 142.33 -64.34 142.33 -61 144 C-60.67 142.68 -60.67 142.68 -59 136 C-53 127 -53 127 -44 119 C-43.34 119 -42.68 119 -42 119 C-43.65 115.04 -45.3 111.08 -47 107 C-49.903 92.485 -49.345 83.897 -44 70 C-37 62 -37 62 -30 58 C-29.67 49.09 -29.34 40.18 -29 31 C-24.821 17.419 -21.665 10.332 -11 1 C-9 0 -9 0 0 0 Z " fill="#A1BB64" transform="translate(614,502)"/>
<path d="M0 0 C9.396 1.446 18.429 3.203 27.667 5.253 C29.324 5.621 30.981 5.988 32.638 6.356 C42.436 8.527 52.227 10.721 62 13 C63.258 13.293 64.516 13.586 65.812 13.887 C69.812 14.819 73.812 15.753 77.812 16.688 C93.491 20.348 109.25 23.659 125 27 C181.805 83.805 126 187.666 126 268 C83.995 268 41.985 267.312 0 266 C0 178.22 0 90.44 0 0 Z " fill="#F6F5F4" transform="translate(119,462)"/>
<path d="M0 0 C27.169 22.229 43.428 44.95 50 80 C49.67 81.32 49.34 82.64 49 84 C48.175 83.175 48.175 83.175 44 79 C40 77 40 77 29 77 C17.879 86.885 14.587 94.654 11 109 C10.67 117.25 10.34 125.5 10 134 C7.36 135.65 4.72 137.3 2 139 C0.02 140.65 -1.96 142.3 -4 144 C-4.33 141.36 -4.33 141.36 -6 128 C-10.917 116.2 -13.927 110.327 -25 104 C-25.33 98.06 -25.66 92.12 -26 86 C-31.5 65.375 -31.5 65.375 -40 59 C-43 58 -43 58 -52 58 C-63.751 65.834 -67.36 74.655 -71 88 C-71.33 96.91 -71.66 105.82 -72 115 C-75.3 117.31 -78.6 119.62 -82 122 C-90.063 134.095 -91 139.184 -91 154 C-89.156 161.374 -87.184 168.719 -85 176 C-87.64 177.98 -90.28 179.96 -93 182 C-99 189 -99 189 -104 201 C-105.65 200.34 -107.3 199.68 -109 199 C-108 193 -108 193 -104 182 C-101.127 164.764 -101.373 150.441 -111 136 C-116 132 -116 132 -120 130 C-120.33 124.72 -120.66 119.44 -121 114 C-124.121 101.516 -126.253 95.354 -136 87 C-144 87 -144 87 -150 91 C-162.922 106.075 -162 119.374 -162 139 C-169 144 -169 144 -171 144 C-170.67 189.21 -170.34 234.42 -170 281 C-163.144 286.877 -156.766 291.078 -148 294 C-148 306.338 -148.44 318.675 -149 331 C-159.56 331 -170.12 331 -181 331 C-181 56.364 -181 56.364 -144 16 C-101.387 -23.062 -50.248 -27.056 0 0 Z " fill="#AEE3EF" transform="translate(657,445)"/>
<path d="M0 0 C9.401 12.535 -2.451 51.064 -3 55 C-12 112 -12 112 -14 119 C-16.31 118.67 -18.62 118.34 -21 118 C-21.33 119.32 -21.66 120.64 -22 122 C-30.446 130.446 -46.32 130.398 -57 132 C-114.25 132 -114.25 132 -130 125 C-131.32 123.68 -132.64 122.36 -134 121 C-134 119.35 -134 117.7 -134 116 C-120.921 105.101 -103.416 105 -87 105 C-86.67 99.39 -86.34 93.78 -86 88 C-85.34 83.38 -84.68 78.76 -84 74 C-90.6 75.32 -97.2 76.64 -104 78 C-171.215 87.166 -254.47 96.812 -319 71 C-320.32 69.68 -321.64 68.36 -323 67 C-323 62.38 -323 57.76 -323 53 C-264.298 16.311 -155.131 32.974 -90 46 C-87.69 46 -85.38 46 -83 46 C-81.68 31.81 -80.36 17.62 -79 3 C-75 -3 -75 -3 -71 -5 C-47.753 -7.325 -22.176 -8.316 0 0 Z " fill="#DFDFDF" transform="translate(359,875)"/>
<path d="M0 0 C14.368 0 28.687 1.737 43 3 C43 14.22 43 25.44 43 37 C44.65 36.34 46.3 35.68 48 35 C48.33 24.44 48.66 13.88 49 3 C50.65 3.33 52.3 3.66 54 4 C55.267 23.637 56 43.322 56 63 C57.98 63 59.96 63 62 63 C62 39 62 39 61 28 C61 20.41 61 12.82 61 5 C76.061 5.886 91.052 6.865 106 9 C106.33 11.145 106.33 11.145 108 22 C108.99 26.29 109.98 30.58 111 35 C111.33 37.31 111.33 37.31 113 49 C112.051 49.268 111.102 49.536 110.125 49.812 C96.336 53.748 96.336 53.748 92 57 C92 58.65 92 60.3 92 62 C114.397 74.799 142.633 71.569 167 67 C176 64 176 64 178 62 C178 60.35 178 58.7 178 57 C167.188 50.822 156.237 50.02 144 49 C144 36.79 144 24.58 144 12 C177 12 177 12 189 15 C187.149 30.731 184.604 46.376 182 62 C181.67 65.3 181.34 68.6 181 72 C182.65 72 184.3 72 186 72 C190.24 63.52 189.558 53.371 191 44 C191.825 39.38 191.825 39.38 196 16 C223 17 223 17 231 18 C232 23 232 23 231 31 C231 38.59 231 46.18 231 54 C231.825 53.835 231.825 53.835 236 53 C236.66 42.11 237.32 31.22 238 20 C247.158 18.168 256.696 20.191 266 21 C267.938 34.565 268.195 48.32 269 62 C269.66 68.6 270.32 75.2 271 82 C272.65 82 274.3 82 276 82 C276 63 276 63 275 57 C274.67 50.73 274.34 44.46 274 38 C273.67 35.69 273.34 33.38 273 31 C273 28.03 273 25.06 273 22 C296 23 296 23 309 25 C311.466 38.981 313.839 52.969 316 67 C318.31 67 320.62 67 323 67 C323 68.65 323 70.3 323 72 C296.014 94.488 248.784 87.649 217 85 C200 82 200 82 193 79 C185 79 185 79 171 81 C140.128 83.205 99.076 86.051 72 68 C56.82 67.67 41.64 67.34 26 67 C-4.585 61.439 -4.585 61.439 -15 54 C-15 53.34 -15 52.68 -15 52 C-13.845 51.835 -13.845 51.835 -8 51 C-8 48.36 -8 45.72 -8 43 C-3 14 -3 14 0 0 Z " fill="#A5A9AD" transform="translate(408,1019)"/>
<path d="M0 0 C0 49.5 0 99 0 150 C-77 150 -77 150 -92 149 C-92 11 -92 11 -91 4 C-60.917 -0.628 -30.378 0 0 0 Z " fill="#BB3E40" transform="translate(462,623)"/>
<path d="M0 0 C9.567 8.371 13.251 15.627 16 28 C16 33.28 16 38.56 16 44 C17.98 44.66 19.96 45.32 22 46 C28.483 52.483 31.04 58.121 34 67 C34 95 34 95 28 109 C28 110.32 28 111.64 28 113 C28.99 113.66 29.98 114.32 31 115 C31 121.6 31 128.2 31 135 C35 152 35 152 42 166 C39.934 180.464 32.515 189.533 23 200 C12.812 206.113 7.789 209 -4 209 C-4 220.88 -4 232.76 -4 245 C-6.64 245 -9.28 245 -12 245 C-12 232.79 -12 220.58 -12 208 C-13.98 207.67 -15.96 207.34 -18 207 C-30 200 -30 200 -35 195 C-35 149.79 -35 104.58 -35 58 C-28 53 -28 53 -26 53 C-26.33 50.36 -26.66 47.72 -27 45 C-27 31.098 -25.789 21.221 -19 9 C-10 0 -10 0 0 0 Z " fill="#91A659" transform="translate(521,531)"/>
<path d="M0 0 C7 4 7 4 10 8 C10 79.61 10 151.22 10 225 C4 227 4 227 -3 227 C-3 236.9 -3 246.8 -3 257 C-5.97 257 -8.94 257 -12 257 C-12 246.77 -12 236.54 -12 226 C-15.3 225.34 -18.6 224.68 -22 224 C-43.398 210.383 -53.945 194.164 -62 170 C-62 143.714 -62 143.714 -52 128 C-49.36 126.02 -46.72 124.04 -44 122 C-45.158 116.208 -47.132 110.604 -49 105 C-52.056 92.776 -50.886 82.993 -46 72 C-36.769 59.692 -36.769 59.692 -30 58 C-30 49.75 -30 41.5 -30 33 C-25.303 14.212 -20.484 0 0 0 Z " fill="#90A75B" transform="translate(697,521)"/>
<path d="M0 0 C13.86 0 27.72 0 42 0 C42 34.32 42 68.64 42 104 C50.58 101.69 59.16 99.38 68 97 C85 93 85 93 88 93 C88 90.69 88 88.38 88 86 C93 60 93 60 94 56 C98 57 98 57 101 58 C98.4 81.4 98.4 81.4 96 91 C108.87 87.7 121.74 84.4 135 81 C135.99 81 136.98 81 138 81 C138.33 75.72 138.66 70.44 139 65 C140.98 65 142.96 65 145 65 C145 69.62 145 74.24 145 79 C146.485 78.67 146.485 78.67 154 77 C155.98 77 157.96 77 160 77 C165.735 97.074 164 118.258 164 139 C156.41 139.33 148.82 139.66 141 140 C139.35 140.33 137.7 140.66 136 141 C135.67 140.67 135.34 140.34 135 140 C119.256 141.431 105.302 143.75 90 148 C88.35 148 86.7 148 85 148 C84.67 150.97 84.34 153.94 84 157 C82 162 82 162 76 166 C47.499 174.143 14.719 177.319 -13 165 C-14.32 164.01 -15.64 163.02 -17 162 C-17 160.02 -17 158.04 -17 156 C-6.139 147.311 8.43 146 22 146 C22 134.12 22 122.24 22 110 C21.01 109.67 20.02 109.34 19 109 C19.99 109 20.98 109 22 109 C22 73.36 22 37.72 22 1 C14.74 1 7.48 1 0 1 C0 0.67 0 0.34 0 0 Z " fill="#B3B6BA" transform="translate(131,958)"/>
<path d="M0 0 C0 5.28 0 10.56 0 16 C-60.123 53.577 -170.001 35.037 -235 23 C-245 19 -245 19 -249 15 C-249 10.38 -249 5.76 -249 1 C-196.179 -32.013 -54.975 -31.414 0 0 Z " fill="#DDAC73" transform="translate(285,927)"/>
<path d="M0 0 C5 1 5 1 9 6 C11 11 11 11 11 28 C9.35 30.97 7.7 33.94 6 37 C5.34 37 4.68 37 4 37 C4 42.94 4 48.88 4 55 C10.93 55 17.86 55 25 55 C25 62 25 62 24 64 C23.01 64 22.02 64 21 64 C20.67 68.29 20.34 72.58 20 77 C19.67 77.99 19.34 78.98 19 80 C27.58 80 36.16 80 45 80 C97.364 82.909 97.364 82.909 111 92 C111 96.62 111 101.24 111 106 C53.287 134.857 -43.809 125.048 -104 110 C-106.64 108.35 -109.28 106.7 -112 105 C-112 100.71 -112 96.42 -112 92 C-84.257 76.147 -44.339 80 -14 80 C-14.33 78.185 -14.33 78.185 -16 69 C-16 67.68 -16 66.36 -16 65 C-16.495 64.835 -16.495 64.835 -19 64 C-19 61.03 -19 58.06 -19 55 C-12.07 55 -5.14 55 2 55 C1 38 1 38 -3 34 C-6 27 -6 27 -6 10 C-1 1 -1 1 0 0 Z " fill="#DCAC75" transform="translate(543,816)"/>
<path d="M0 0 C0 54.12 0 108.24 0 164 C-14.85 164 -29.7 164 -45 164 C-45.33 163.67 -45.66 163.34 -46 163 C-46 109.87 -46 56.74 -46 2 C-30.689 0.944 -15.348 0 0 0 Z " fill="#BC4142" transform="translate(768,613)"/>
<path d="M0 0 C0.33 -0.33 0.66 -0.66 1 -1 C8.59 -1 16.18 -1 24 -1 C24.33 3.95 24.33 3.95 26 29 C26.33 29.33 26.66 29.66 27 30 C28.65 30 30.3 30 32 30 C32.33 20.1 32.66 10.2 33 0 C49.323 0 63.472 3.147 79 8 C83 12 83 12 84 15 C85.65 15.33 87.3 15.66 89 16 C87 21 87 21 81 25 C45.801 36.733 12.166 38.13 -25 34 C-32 35 -32 35 -50 41 C-95.281 48.875 -148.023 54.586 -189 30 C-190 28 -190 28 -190 22 C-175.455 7.455 -153.342 6.901 -134 4 C-128.72 4 -123.44 4 -118 4 C-118 4.66 -118 5.32 -118 6 C-121.465 6.495 -121.465 6.495 -139 9 C-152 13 -152 13 -156 16 C-156 17.98 -156 19.96 -156 22 C-135.117 35.922 -105.668 31.821 -82 30 C-67 26 -67 26 -59 22 C-56 14 -56 14 -55 8 C-13.774 -2.755 -13.774 -2.755 0 0 Z " fill="#A4A8AD" transform="translate(271,1098)"/>
<path d="M0 0 C0.66 0.66 1.32 1.32 2 2 C1 7 1 7 -3 10 C-6 11 -6 11 -13 11 C-13 82.28 -13 153.56 -13 227 C-9.37 227.33 -5.74 227.66 -2 228 C15.985 233.534 26.628 240.86 39 255 C48.236 273.472 50 285.535 50 306 C43 305 43 305 32 302 C23.75 301.34 15.5 300.68 7 300 C6.34 301.65 5.68 303.3 5 305 C-2 313 -2 313 -10 316 C-20 316 -20 316 -29 311 C-35 303.5 -35 303.5 -35 299 C-31.7 298.67 -28.4 298.34 -25 298 C-27.64 296.02 -30.28 294.04 -33 292 C-41.869 277.81 -41 270.739 -41 253 C-36.905 242.353 -34.003 236.003 -26 228 C-22.37 227.67 -18.74 227.34 -15 227 C-14.67 154.73 -14.34 82.46 -14 8 C-14.66 8 -15.32 8 -16 8 C-16 8.99 -16 9.98 -16 11 C-25 10 -25 10 -30 7 C-30.33 5.35 -30.66 3.7 -31 2 C-21.424 -5.182 -10.698 -4.012 0 0 Z " fill="#F7F7F6" transform="translate(554,90)"/>
<path d="M0 0 C2 2 2 2 2 11 C1.01 15.62 0.02 20.24 -1 25 C-1.66 28.63 -2.32 32.26 -3 36 C-5.64 49.2 -8.28 62.4 -11 76 C-11.66 79.96 -12.32 83.92 -13 88 C-13.66 90.64 -14.32 93.28 -15 96 C-16.32 102.6 -17.64 109.2 -19 116 C-27.925 129.388 -46.17 131.578 -61 135 C-61.99 135 -62.98 135 -64 135 C-58 78 -58 78 -56 62 C-54.68 48.47 -53.36 34.94 -52 21 C-49 11 -49 11 -45 7 C-44.34 7 -43.68 7 -43 7 C-43 6.34 -43 5.68 -43 5 C-28.491 1.373 -14.914 0 0 0 Z " fill="#F6F7F6" transform="translate(739,866)"/>
<path d="M0 0 C0 13 0 13 -3 18 C-5.475 20.475 -5.475 20.475 -18 33 C-18.66 33 -19.32 33 -20 33 C-20.66 34.32 -21.32 35.64 -22 37 C-34.667 49.667 -47.333 62.333 -60 75 C-63.63 78.96 -67.26 82.92 -71 87 C-73.64 89.64 -76.28 92.28 -79 95 C-80.65 96.98 -82.3 98.96 -84 101 C-85.32 101.33 -85.32 101.33 -92 103 C-102.367 112.071 -105.551 119.531 -108 133 C-108 139.93 -108 146.86 -108 154 C-115 159 -115 159 -117 159 C-117 105.974 -114.958 71.953 -79 32 C-55.125 11.798 -31.798 0 0 0 Z " fill="#B3DCE7" transform="translate(603,430)"/>
<path d="M0 0 C5.434 13.584 5 28.549 5 43 C1.7 43.825 1.7 43.825 -15 48 C-16.65 48.99 -18.3 49.98 -20 51 C-20.66 51 -21.32 51 -22 51 C-21.835 53.145 -21.835 53.145 -21 64 C-11 69 -11 69 9 73 C9.33 79.6 9.66 86.2 10 93 C-1.88 94.32 -13.76 95.64 -26 97 C-37 101 -37 101 -39 104 C-39.33 105.65 -39.66 107.3 -40 109 C-41.98 109 -43.96 109 -46 109 C-48 104 -48 104 -48.435 101.381 C-49.802 93.16 -51.17 84.939 -52.538 76.718 C-53.242 72.493 -53.945 68.269 -54.647 64.044 C-55.327 59.953 -56.008 55.861 -56.689 51.77 C-56.947 50.224 -57.204 48.678 -57.46 47.132 C-59.241 36.409 -61.093 25.701 -63 15 C-63 4 -63 4 -58 -1 C-12.319 -8.213 -12.319 -8.213 0 0 Z " fill="#F6F6F6" transform="translate(453,857)"/>
<path d="M0 0 C20.514 17.584 30.128 41.013 35 67 C34.835 67.66 34.835 67.66 34 71 C32.35 69.35 30.7 67.7 29 66 C25 64 25 64 14 64 C2.879 73.885 -0.413 81.654 -4 96 C-4.33 104.25 -4.66 112.5 -5 121 C-7.64 122.65 -10.28 124.3 -13 126 C-14.98 127.65 -16.96 129.3 -19 131 C-19.66 125.72 -20.32 120.44 -21 115 C-25.917 103.2 -28.927 97.327 -40 91 C-40.33 85.06 -40.66 79.12 -41 73 C-45 58 -45 58 -49 50 C-34.81 35.81 -20.62 21.62 -6 7 C-4.02 4.69 -2.04 2.38 0 0 Z " fill="#AEE3EE" transform="translate(672,458)"/>
<path d="M0 0 C13.86 0 27.72 0 42 0 C42 48.18 42 96.36 42 146 C46.62 146.33 51.24 146.66 56 147 C74 151 74 151 82 156 C82 157.98 82 159.96 82 162 C57.87 178.087 22.632 172.995 -4 169 C-13 165 -13 165 -17 162 C-17 160.02 -17 158.04 -17 156 C-6.139 147.311 8.43 146 22 146 C22 134.12 22 122.24 22 110 C21.01 109.67 20.02 109.34 19 109 C19.99 109 20.98 109 22 109 C22 73.36 22 37.72 22 1 C14.74 1 7.48 1 0 1 C0 0.67 0 0.34 0 0 Z " fill="#CBCBCC" transform="translate(131,958)"/>
<path d="M0 0 C5.94 0 11.88 0 18 0 C18 31.35 18 62.7 18 95 C19.32 95.33 20.64 95.66 22 96 C20.68 96 19.36 96 18 96 C18 108.21 18 120.42 18 133 C21.96 133 25.92 133 30 133 C45 136 45 136 53 141 C53 142.65 53 144.3 53 146 C45.975 153.025 34.151 153.284 25 155 C-23 155 -23 155 -35 146 C-35 144.35 -35 142.7 -35 141 C-30 137 -30 137 -14 133 C-18 108 -18 108 -20 101 C-20 98.36 -20 95.72 -20 93 C-22.31 93 -24.62 93 -27 93 C-27 92.67 -27 92.34 -27 92 C-25.02 92 -23.04 92 -21 92 C-23.64 78.47 -26.28 64.94 -29 51 C-29 49.68 -29 48.36 -29 47 C-27.02 46.34 -25.04 45.68 -23 45 C-14 84 -14 84 -14 93 C-10.37 93 -6.74 93 -3 93 C-2.01 93.33 -1.02 93.66 0 94 C0 62.98 0 31.96 0 0 Z " fill="#CCCCCC" transform="translate(534,935)"/>
<path d="M0 0 C0 0.33 0 0.66 0 1 C-8.58 1.33 -17.16 1.66 -26 2 C-44 6 -44 6 -55 11 C-58.3 12.32 -61.6 13.64 -65 15 C-97.762 37.681 -116.848 64.104 -126 103 C-134.021 167.168 -127 232.332 -127 297 C-120.144 302.877 -113.766 307.078 -105 310 C-105 322.338 -105.44 334.675 -106 347 C-116.56 347 -127.12 347 -138 347 C-138 72.364 -138 72.364 -101 32 C-74.793 7.977 -36.357 -10.388 0 0 Z " fill="#F6F5F4" transform="translate(614,429)"/>
<path d="M0 0 C4.346 4.346 8.16 9.2 12 14 C21.004 20.548 27.456 24.987 38 28 C37.67 44.17 37.34 60.34 37 77 C9.94 77 -17.12 77 -45 77 C-45.666 65.014 -46 53.005 -46 41 C-42.04 40.34 -38.08 39.68 -34 39 C-14.978 29.489 -8.308 19.386 0 0 Z " fill="#C0E7EC" transform="translate(563,699)"/>
<path d="M0 0 C-2.31 3.3 -4.62 6.6 -7 10 C-13.914 26.594 -14.883 38.351 -9 56 C-4.335 62.22 -1.262 65.826 5 70 C1.04 70 -2.92 70 -7 70 C-2.875 80.312 -2.209 81.895 8 87 C20 87 20 87 28 83 C28.99 82.67 29.98 82.34 31 82 C32.801 78.398 34.413 74.702 36 71 C51.24 71 63.628 72.867 78 78 C78.66 79.32 79.32 80.64 80 82 C56.135 99.899 5.573 92.563 -21 91 C-42 87 -42 87 -47 85 C-48.98 85 -50.96 85 -53 85 C-53 53.451 -50.416 33.416 -28 11 C-7.031 -2.344 -7.031 -2.344 0 0 Z " fill="#D7D7D8" transform="translate(175,315)"/>
<path d="M0 0 C9.567 8.371 13.251 15.627 16 28 C16 33.28 16 38.56 16 44 C17.98 44.66 19.96 45.32 22 46 C23.98 48.31 25.96 50.62 28 53 C26.35 53.99 24.7 54.98 23 56 C1 78 1 78 -6 86 C-14.25 94.25 -22.5 102.5 -31 111 C-31.165 111.33 -31.165 111.33 -32 113 C-32.66 113 -33.32 113 -34 113 C-34 140.06 -34 167.12 -34 195 C-34.33 195 -34.66 195 -35 195 C-35 149.79 -35 104.58 -35 58 C-28 53 -28 53 -26 53 C-26.33 50.36 -26.66 47.72 -27 45 C-27 31.098 -25.789 21.221 -19 9 C-10 0 -10 0 0 0 Z " fill="#91A659" transform="translate(521,531)"/>
<path d="M0 0 C16.364 0 32.682 1.776 49 3 C56.59 3.33 64.18 3.66 72 4 C72 35.02 72 66.04 72 98 C69.69 97.835 69.69 97.835 58 97 C50 57 50 57 49 49 C46.36 49.99 43.72 50.98 41 52 C22 56 22 56 -6 56 C-6 52.04 -6 48.08 -6 44 C1.26 43.67 8.52 43.34 16 43 C37 40 37 40 46 36 C46.66 36 47.32 36 48 36 C48 34.02 48 32.04 48 30 C35.172 17.172 7.924 20.612 -8 20 C-8 19.67 -8 19.34 -8 19 C-5.03 19 -2.06 19 1 19 C0.67 17.68 0.34 16.36 0 15 C0 10.05 0 5.1 0 0 Z " fill="#DCDCDC" transform="translate(462,931)"/>
<path d="M0 0 C3 1 3 1 10 12 C18.829 23.036 28.893 29.068 42 33 C42 42.9 42 52.8 42 63 C17.58 63 -6.84 63 -32 63 C-34 24 -34 24 -34 14 C-32.185 13.835 -32.185 13.835 -23 13 C-7 5 -7 5 0 0 Z " fill="#C0E7EC" transform="translate(643,714)"/>
<path d="M0 0 C3.96 0 7.92 0 12 0 C12 96.03 12 192.06 12 291 C8.04 291 4.08 291 0 291 C0 194.97 0 98.94 0 0 Z " fill="#D8D8D8" transform="translate(97,449)"/>
<path d="M0 0 C0.66 0 1.32 0 2 0 C2 3.96 2 7.92 2 12 C-58.123 49.577 -168.001 31.037 -233 19 C-243 15 -243 15 -246 13 C-246 9.04 -246 5.08 -246 1 C-245.175 1.33 -245.175 1.33 -241 3 C-169.619 20.845 -70.759 28.904 -1 1 C-0.67 0.67 -0.34 0.34 0 0 Z " fill="#BF9160" transform="translate(283,931)"/>
<path d="M0 0 C-2.31 2.97 -4.62 5.94 -7 9 C-12.462 24.02 -13.286 32.142 -8 48 C-2 56 -2 56 3 60 C0.03 60 -2.94 60 -6 60 C-3 68 -3 68 2 72 C8 74 8 74 16 74 C23.618 70.191 26.298 68.404 30 61 C43.582 61 54.352 61.941 67 67 C67 68.32 67 69.64 67 71 C37.39 85.805 -10.926 81.322 -42 72 C-42.99 71.34 -43.98 70.68 -45 70 C-45 44.39 -43.109 30.01 -26 11 C-7.846 -2.615 -7.846 -2.615 0 0 Z " fill="#D8D7D7" transform="translate(316,362)"/>
<path d="M0 0 C0.99 0.99 1.98 1.98 3 3 C3 5.31 3 7.62 3 10 C-5.446 18.446 -21.32 18.398 -32 20 C-89.25 20 -89.25 20 -105 13 C-106.32 11.68 -107.64 10.36 -109 9 C-109 7.35 -109 5.7 -109 4 C-82.965 -17.696 -28.523 -10.372 0 0 Z " fill="#D04E4B" transform="translate(334,987)"/>
<path d="M0 0 C3.63 1.32 7.26 2.64 11 4 C76.075 19.017 156.163 20.451 221 1 C221 4.63 221 8.26 221 12 C161.533 38.43 68.153 30.288 7 15 C5.845 14.34 5.845 14.34 0 11 C0 7.37 0 3.74 0 0 Z " fill="#BD8F60" transform="translate(432,911)"/>
<path d="M0 0 C8 38.667 8 38.667 8 45 C-6.765 45 -21.344 43.832 -36 42 C-35 65 -35 65 -34 76 C-34 83.92 -34 91.84 -34 100 C-39 101 -39 101 -41 100 C-41.33 90.76 -41.66 81.52 -42 72 C-42.165 69.855 -42.165 69.855 -43 59 C-43 53.06 -43 47.12 -43 41 C-44.32 41 -45.64 41 -47 41 C-47 11 -47 11 -45 5 C-37.08 4.67 -29.16 4.34 -21 4 C-2 0 -2 0 0 0 Z " fill="#DBDBDA" transform="translate(505,982)"/>
<path d="M0 0 C0.66 0.33 1.32 0.66 2 1 C0.68 3.64 -0.64 6.28 -2 9 C-5 20 -5 20 -6 47 C-9.3 49.31 -12.6 51.62 -16 54 C-24.063 66.095 -25 71.184 -25 86 C-23.156 93.374 -21.184 100.719 -19 108 C-21.64 109.98 -24.28 111.96 -27 114 C-33 121 -33 121 -38 133 C-39.65 132.34 -41.3 131.68 -43 131 C-42 125 -42 125 -38 114 C-35.127 96.764 -35.373 82.441 -45 68 C-50 64 -50 64 -54 62 C-52.71 50.394 -48.703 47.46 -40 40 C-39.67 39.34 -39.34 38.68 -39 38 C-38.34 38 -37.68 38 -37 38 C-37 37.34 -37 36.68 -37 36 C-35.35 34.68 -33.7 33.36 -32 32 C-30.35 30.02 -28.7 28.04 -27 26 C-24.36 23.69 -21.72 21.38 -19 19 C-15.865 15.865 -15.865 15.865 0 0 Z " fill="#C1E9F4" transform="translate(591,513)"/>
<path d="M0 0 C8 4 8 4 12 9 C14.97 9.99 17.94 10.98 21 12 C21 12.66 21 13.32 21 14 C19.68 15.155 19.68 15.155 13 21 C3.977 39.046 3.846 48.845 3 70 C0.36 71.65 -2.28 73.3 -5 75 C-6.98 76.65 -8.96 78.3 -11 80 C-11.66 74.72 -12.32 69.44 -13 64 C-17.917 52.2 -20.927 46.327 -32 40 C-32.33 31.09 -32.66 22.18 -33 13 C-30.69 12.01 -28.38 11.02 -26 10 C-22.37 7.03 -18.74 4.06 -15 1 C-12 0 -12 0 0 0 Z " fill="#B0E3ED" transform="translate(664,509)"/>
<path d="M0 0 C2.31 1.98 4.62 3.96 7 6 C28.52 11.38 45.952 11.36 69 12 C68.67 16.62 68.34 21.24 68 26 C58.43 26 48.86 26 39 26 C39 31.28 39 36.56 39 42 C38.34 48.27 37.68 54.54 37 61 C10 60 10 60 2 58 C2 52 2 52 2.332 50.375 C7 27.301 7 27.301 7 21 C4.03 19.02 1.06 17.04 -2 15 C-2.33 14.67 -2.66 14.34 -3 14 C-3 5 -3 5 0 0 Z " fill="#DDDDDC" transform="translate(603,976)"/>
<path d="M0 0 C9.396 1.446 18.429 3.203 27.667 5.253 C29.324 5.621 30.981 5.988 32.638 6.356 C42.436 8.527 52.227 10.721 62 13 C63.258 13.293 64.516 13.586 65.812 13.887 C69.812 14.819 73.812 15.753 77.812 16.688 C93.491 20.348 109.25 23.659 125 27 C181.805 83.805 126 187.666 126 268 C83.995 268 41.985 267.312 0 266 C0 178.22 0 90.44 0 0 Z M3 4 C3 89.47 3 174.94 3 263 C101 265 101 265 124 265 C124 187.45 124 109.9 124 30 C114.43 28.02 104.86 26.04 95 24 C85.1 21.69 75.2 19.38 65 17 C51.14 14.03 37.28 11.06 23 8 C18.05 6.68 13.1 5.36 8 4 C6.35 4 4.7 4 3 4 Z " fill="#CE4C4A" transform="translate(119,462)"/>
<path d="M0 0 C11.55 0 23.1 0 35 0 C37 14 37 14 38 38 C39.65 38 41.3 38 43 38 C42.34 38.165 42.34 38.165 39 39 C39.66 44.28 40.32 49.56 41 55 C41.165 58.135 41.165 58.135 42 74 C42.33 75.98 42.66 77.96 43 80 C43 86.27 43 92.54 43 99 C42.67 99.33 42.34 99.66 42 100 C40.35 100 38.7 100 37 100 C32.423 95.423 32.255 45.388 32 38 C23.09 37.67 14.18 37.34 5 37 C4.34 47.89 3.68 58.78 3 70 C2.67 70.33 2.67 70.33 1 72 C-0.65 71.67 -2.3 71.34 -4 71 C-4 48 -4 48 -1 16 C-0.67 10.72 -0.34 5.44 0 0 Z " fill="#DCDCDC" transform="translate(642,1002)"/>
<path d="M0 0 C-2.124 19.118 -5.838 38.026 -9 57 C-13 58 -13 58 -31 54 C-35.62 53.34 -40.24 52.68 -45 52 C-45 38.14 -45 24.28 -45 10 C-7.857 0 -7.857 0 0 0 Z " fill="#B4B7BB" transform="translate(218,1052)"/>
<path d="M0 0 C0.165 0.99 0.165 0.99 1 6 C-6.344 13.344 -13.779 13.428 -24 15 C-79 15 -79 15 -94 9 C-94.99 8.01 -95.98 7.02 -97 6 C-96.67 4.02 -96.34 2.04 -96 0 C-71.686 -16.209 -24.699 -12.35 0 0 Z " fill="#D04D4B" transform="translate(510,959)"/>
<path d="M0 0 C5 1 5 1 9 6 C11 11 11 11 11 28 C9.35 30.97 7.7 33.94 6 37 C5.34 37 4.68 37 4 37 C4 42.94 4 48.88 4 55 C10.93 55 17.86 55 25 55 C25 62 25 62 24 64 C23.01 64 22.02 64 21 64 C20.67 68.29 20.34 72.58 20 77 C19.34 78.98 18.68 80.96 18 83 C17.34 85.97 16.68 88.94 16 92 C6.523 93.895 -2.93 94.628 -12 91 C-13.524 82.365 -15.032 73.715 -16 65 C-16.99 64.67 -17.98 64.34 -19 64 C-19 61.03 -19 58.06 -19 55 C-12.07 55 -5.14 55 2 55 C1 38 1 38 -3 34 C-6 27 -6 27 -6 10 C-1 1 -1 1 0 0 Z " fill="#D2755E" transform="translate(543,816)"/>
<path d="M0 0 C0.165 1.485 0.165 1.485 1 9 C4 11 4 11 15 11 C16.32 10.67 17.64 10.34 19 10 C19 6.7 19 3.4 19 0 C33.892 0 46.13 0.956 59 9 C59 10.98 59 12.96 59 15 C34.87 31.087 -0.368 25.995 -27 22 C-36 18 -36 18 -40 15 C-40 13.02 -40 11.04 -40 9 C-28.117 -0.506 -14.454 0 0 0 Z " fill="#E3E3E3" transform="translate(154,1105)"/>
<path d="M0 0 C0.825 1.65 0.825 1.65 5 10 C15 16 15 16 27 16 C29.64 14.68 32.28 13.36 35 12 C35.99 11.67 36.98 11.34 38 11 C39.801 7.398 41.413 3.702 43 0 C58.24 0 70.628 1.867 85 7 C85.33 7.66 85.33 7.66 87 11 C63.135 28.899 12.573 21.563 -14 20 C-35 16 -35 16 -45 12 C-44.67 10.35 -44.34 8.7 -44 7 C-29.522 0.565 -15.708 0 0 0 Z " fill="#C44645" transform="translate(168,386)"/>
<path d="M0 0 C14.368 0 28.687 1.737 43 3 C43 14.22 43 25.44 43 37 C36.07 37 29.14 37 22 37 C2 41 2 41 -7 43 C-5.675 28.43 -3.064 14.296 0 0 Z " fill="#B3B6BA" transform="translate(408,1019)"/>
<path d="M0 0 C0.825 1.65 0.825 1.65 5 10 C14.6 16 14.6 16 25 16 C33.594 12.777 37.805 9.39 42 1 C57.105 1 70.263 1.131 84 8 C84.33 9.32 84.66 10.64 85 12 C52.522 31.487 -4.564 23.609 -39 15 C-40.65 14.01 -42.3 13.02 -44 12 C-43.67 10.68 -43.34 9.36 -43 8 C-29.452 1.226 -14.974 0 0 0 Z " fill="#C04747" transform="translate(519,389)"/>
<path d="M0 0 C0.33 0 0.66 0 1 0 C1 5.28 1 10.56 1 16 C2.98 16.66 4.96 17.32 7 18 C8.98 20.31 10.96 22.62 13 25 C11.35 25.99 9.7 26.98 8 28 C-14 50 -14 50 -21 58 C-29.25 66.25 -37.5 74.5 -46 83 C-46.165 83.33 -46.165 83.33 -47 85 C-47.66 85 -48.32 85 -49 85 C-49 112.06 -49 139.12 -49 167 C-49.33 167 -49.66 167 -50 167 C-50 121.79 -50 76.58 -50 30 C-49.67 30 -49.34 30 -49 30 C-48.67 39.57 -48.34 49.14 -48 59 C-41.831 52.831 -35.745 46.566 -30 40 C-20.76 30.76 -11.52 21.52 -2 12 C-1 10 -1 10 0 0 Z " fill="#ABBB7F" transform="translate(536,559)"/>
<path d="M0 0 C9.737 14.606 10 33.652 10 51 C-2.299 51 -13.964 50.675 -26 48 C-29 17 -29 17 -29 9 C-26.69 8.34 -24.38 7.68 -22 7 C-6 2 -6 2 0 0 Z " fill="#DCDCDC" transform="translate(706,992)"/>
<path d="M0 0 C-4.011 8.022 -11.658 13.658 -18 20 C-19.98 22.31 -21.96 24.62 -24 27 C-24.66 27 -25.32 27 -26 27 C-26.66 28.32 -27.32 29.64 -28 31 C-34.93 37.93 -41.86 44.86 -49 52 C-49.165 52.33 -49.165 52.33 -50 54 C-50.66 54 -51.32 54 -52 54 C-52.66 55.32 -53.32 56.64 -54 58 C-56.475 60.475 -56.475 60.475 -69 73 C-71.31 75.64 -73.62 78.28 -76 81 C-82.27 87.27 -88.54 93.54 -95 100 C-96.32 101.65 -97.64 103.3 -99 105 C-103 103 -103 103 -108 99 C-101.443 91.897 -94.835 84.835 -88 78 C-86.35 76.02 -84.7 74.04 -83 72 C-64 53 -45 34 -26 15 C-24.3 9.901 -24.412 4.359 -24 -1 C-15.109 -1.808 -8.614 -1.723 0 0 Z " fill="#C1E6F0" transform="translate(627,431)"/>
<path d="M0 0 C-2 23 -2 23 -3 24 C-52.25 24 -52.25 24 -68 17 C-68.66 16.34 -69.32 15.68 -70 15 C-70 12.69 -70 10.38 -70 8 C-50.672 -4.885 -20.414 0 0 0 Z " fill="#D04C4C" transform="translate(675,964)"/>
<path d="M0 0 C15.061 0.886 30.052 1.865 45 4 C45.66 8.29 46.32 12.58 47 17 C47.99 21.29 48.98 25.58 50 30 C50.165 31.485 50.165 31.485 51 39 C47.04 38.01 43.08 37.02 39 36 C26 33 26 33 6 31 C4.68 30.67 3.36 30.34 2 30 C1.67 31.32 1.34 32.64 1 34 C-0.027 22.708 0 11.338 0 0 Z " fill="#B3B6BA" transform="translate(469,1024)"/>
<path d="M0 0 C0.165 1.32 0.165 1.32 1 8 C4 10 4 10 13 10 C14.32 9.34 15.64 8.68 17 8 C17.33 5.36 17.66 2.72 18 0 C31.327 0 41.543 0.839 53 8 C53 9.65 53 11.3 53 13 C45.975 20.025 34.151 20.284 25 22 C-23 22 -23 22 -35 13 C-35 11.35 -35 9.7 -35 8 C-24.573 -0.342 -12.813 0 0 0 Z " fill="#E0E0E0" transform="translate(534,1068)"/>
<path d="M0 0 C5 1 5 1 16 10 C7.981 26.037 -25.667 54.667 -32 61 C-35.333 59.333 -38.667 57.667 -42 56 C-45.3 56 -48.6 56 -52 56 C-49.913 47.651 -41.228 42.449 -35 37 C-33.515 35.35 -33.515 35.35 -26 27 C-20.39 21.39 -14.78 15.78 -9 10 C-8.67 9.34 -8.34 8.68 -8 8 C-7.34 8 -6.68 8 -6 8 C-5.34 6.68 -4.68 5.36 -4 4 C-2.68 2.68 -1.36 1.36 0 0 Z " fill="#C0E8F3" transform="translate(656,447)"/>
<path d="M0 0 C33 0 33 0 45 3 C41.769 30.462 41.769 30.462 40 34 C33.07 33.34 26.14 32.68 19 32 C12.73 31.67 6.46 31.34 0 31 C0 20.77 0 10.54 0 0 Z " fill="#B3B6BA" transform="translate(552,1031)"/>
<path d="M0 0 C27 1 27 1 35 2 C36 7 36 7 35 15 C34.67 22.59 34.34 30.18 34 38 C16 39 16 39 9 35 C4.38 33.68 -0.24 32.36 -5 31 C-2 10 -2 10 0 0 Z " fill="#B2B5B9" transform="translate(604,1035)"/>
<path d="M0 0 C23 1 23 1 36 3 C38.141 15.31 40.233 27.631 42 40 C35 39 35 39 20 35 C14.39 34.34 8.78 33.68 3 33 C2.67 33.66 2.34 34.32 2 35 C1.67 28.73 1.34 22.46 1 16 C0.67 13.69 0.34 11.38 0 9 C0 6.03 0 3.06 0 0 Z " fill="#B3B6BA" transform="translate(681,1041)"/>
<path d="M0 0 C0.33 0 0.66 0 1 0 C1 78.87 1 157.74 1 239 C3.97 239 6.94 239 10 239 C10 222.83 10 206.66 10 190 C12.64 191.98 15.28 193.96 18 196 C30 202 30 202 33 203 C33 215.338 32.56 227.675 32 240 C21.44 240 10.88 240 0 240 C0 160.8 0 81.6 0 0 Z " fill="#C5E4E8" transform="translate(476,536)"/>
<path d="M0 0 C1.32 2.64 2.64 5.28 4 8 C12.75 13 12.75 13 22 13 C29.618 9.191 32.298 7.404 36 0 C49.582 0 60.352 0.941 73 6 C73 7.32 73 8.64 73 10 C43.39 24.805 -4.926 20.322 -36 11 C-36.99 10.34 -37.98 9.68 -39 9 C-39 8.01 -39 7.02 -39 6 C-26.408 -0.296 -13.878 0 0 0 Z " fill="#C04545" transform="translate(310,423)"/>
<path d="M0 0 C0.33 0 0.66 0 1 0 C1 6.93 1 13.86 1 21 C-2.3 23.31 -5.6 25.62 -9 28 C-17.063 40.095 -18 45.184 -18 60 C-16.156 67.374 -14.184 74.719 -12 82 C-14.64 83.98 -17.28 85.96 -20 88 C-26 95 -26 95 -31 107 C-32.65 106.34 -34.3 105.68 -36 105 C-35 99 -35 99 -31 88 C-28.189 71.133 -29.876 58.309 -36 43 C-29.73 36.73 -23.46 30.46 -17 24 C-16.34 24 -15.68 24 -15 24 C-14.67 23.01 -14.34 22.02 -14 21 C-13.34 21 -12.68 21 -12 21 C-11.34 19.68 -10.68 18.36 -10 17 C-7.03 14.03 -4.06 11.06 -1 8 C-0.67 5.36 -0.34 2.72 0 0 Z " fill="#B2E3EC" transform="translate(584,539)"/>
<path d="M0 0 C0.66 0 1.32 0 2 0 C2.33 8.25 2.66 16.5 3 25 C3.33 26.98 3.66 28.96 4 31 C9.94 25.06 15.88 19.12 22 13 C22 24.253 11.515 32.314 5 41 C5.33 57.5 5.66 74 6 91 C6 103.87 6 116.74 6 130 C2.7 130 -0.6 130 -4 130 C-4 101.659 -3.287 73.312 -2 45 C-2 32 -2 32 -9 22 C-10.155 20.02 -10.155 20.02 -16 10 C-15.67 9.34 -15.34 8.68 -15 8 C-8 15 -8 15 -2 22 C-1.34 22.33 -0.68 22.66 0 23 C0 15.41 0 7.82 0 0 Z " fill="#926F59" transform="translate(604,647)"/>
<path d="M0 0 C9 39 9 39 9 48 C12.63 48 16.26 48 20 48 C20.495 48.165 20.495 48.165 23 49 C23 61.54 23 74.08 23 87 C20.69 87.33 20.69 87.33 9 89 C8.34 84.05 7.68 79.1 7 74 C5.68 68.06 4.36 62.12 3 56 C3 53.36 3 50.72 3 48 C0.69 48 -1.62 48 -4 48 C-4 47.67 -4 47.34 -4 47 C-2.02 47 -0.04 47 2 47 C-0.64 33.47 -3.28 19.94 -6 6 C-6 4.68 -6 3.36 -6 2 C-2 0 -2 0 0 0 Z " fill="#CACACA" transform="translate(511,980)"/>
<path d="M0 0 C2.31 1.98 4.62 3.96 7 6 C28.52 11.38 45.952 11.36 69 12 C68.67 16.62 68.34 21.24 68 26 C11.4 26 11.4 26 -3 14 C-3 5 -3 5 0 0 Z " fill="#F6F6F6" transform="translate(603,976)"/>
<path d="M0 0 C8.91 0.66 17.82 1.32 27 2 C28.558 12.909 28.576 23.988 29 35 C18.77 34.67 8.54 34.34 -2 34 C-2 2 -2 2 0 0 Z " fill="#B2B6BA" transform="translate(647,1038)"/>
<path d="M0 0 C2.31 0 4.62 0 7 0 C8 1 8 1 8 9 C8.99 9.33 9.98 9.66 11 10 C10.01 10 9.02 10 8 10 C9.32 33.76 10.64 57.52 12 82 C12 89.92 12 97.84 12 106 C11.835 106.165 11.835 106.165 11 107 C9.35 107 7.7 107 6 107 C-14.555 86.445 1.366 49.037 0 20 C-0.33 18.02 -0.66 16.04 -1 14 C-1.99 13.34 -2.98 12.68 -4 12 C-2.68 12 -1.36 12 0 12 C0 8.04 0 4.08 0 0 Z " fill="#DCDCDC" transform="translate(292,1022)"/>
<path d="M0 0 C0.66 3.63 1.32 7.26 2 11 C3.32 11.33 4.64 11.66 6 12 C4.68 12 3.36 12 2 12 C2.66 13.98 3.32 15.96 4 18 C5.32 25.92 6.64 33.84 8 42 C8.471 44.413 8.941 46.826 9.426 49.312 C9.893 51.709 10.359 54.105 10.826 56.502 C11.145 58.139 11.464 59.775 11.783 61.412 C18 93.29 18 93.29 18 103 C15.69 103 13.38 103 11 103 C6 79 6 79 4.426 70.324 C0.653 49.543 -3.128 28.763 -7 8 C-7 6.35 -7 4.7 -7 3 C-2 0 -2 0 0 0 Z " fill="#CACACA" transform="translate(343,1010)"/>
<path d="M0 0 C15.24 0 27.628 1.867 42 7 C42.33 7.66 42.33 7.66 44 11 C26.449 24.163 -5.534 20 -25 20 C-25 19.67 -25 19.34 -25 19 C-21.7 18.34 -18.4 17.68 -15 17 C-14.67 16.34 -14.34 15.68 -14 15 C-7 11 -7 11 -5 11 C-3.199 7.398 -1.587 3.702 0 0 Z " fill="#BF4141" transform="translate(211,386)"/>
<path d="M0 0 C15.105 0 28.263 0.131 42 7 C42.165 7.66 42.165 7.66 43 11 C22.931 23.042 -7.502 19 -29 19 C-28.835 18.505 -28.835 18.505 -28 16 C-23.05 15.34 -18.1 14.68 -13 14 C-7.094 10.063 -3.308 6.616 0 0 Z " fill="#BD4242" transform="translate(561,390)"/>
<path d="M0 0 C4 1 4 1 7 2 C4.4 25.4 4.4 25.4 2 35 C2.66 35.33 3.32 35.66 4 36 C3.01 36 2.02 36 1 36 C0.34 41.61 -0.32 47.22 -1 53 C-9 98 -9 98 -11 105 C-11.33 105 -11.66 105 -12 105 C-12.33 104.01 -12.33 104.01 -14 99 C-15.32 98.01 -16.64 97.02 -18 96 C-17.34 93.69 -16.68 91.38 -16 89 C-13.69 75.14 -11.38 61.28 -9 47 C-8.34 44.03 -7.68 41.06 -7 38 C-7.66 37.67 -8.32 37.34 -9 37 C-8.01 37 -7.02 37 -6 37 C-6 34.69 -6 32.38 -6 30 C-1 4 -1 4 0 0 Z " fill="#CACACA" transform="translate(225,1014)"/>
<path d="M0 0 C5.074 1.015 10.044 2.513 15 4 C45.176 9.325 75.228 8.616 105 2 C105.99 1.835 105.99 1.835 111 1 C110.67 2.65 110.34 4.3 110 6 C81.963 22.822 42.543 16.165 12 12 C3 8 3 8 0 5 C0 3.35 0 1.7 0 0 Z " fill="#BE4643" transform="translate(226,992)"/>
<path d="M0 0 C0.66 0.66 1.32 1.32 2 2 C1.67 3.98 1.34 5.96 1 8 C-6 12 -6 12 -13 12 C-12.999 12.573 -12.998 13.145 -12.997 13.735 C-12.967 32.574 -12.948 51.412 -12.938 70.25 C-12.937 70.974 -12.937 71.698 -12.936 72.444 C-12.912 114.653 -13.035 156.855 -13.5 199.062 C-13.512 200.148 -13.524 201.233 -13.536 202.351 C-13.679 215.234 -13.833 228.117 -14 241 C-14.33 241 -14.66 241 -15 241 C-15.33 165.43 -15.66 89.86 -16 12 C-18.97 11.67 -21.94 11.34 -25 11 C-26.98 9.68 -28.96 8.36 -31 7 C-31.33 5.35 -31.66 3.7 -32 2 C-20.63 -4.497 -12.732 -3.82 0 0 Z " fill="#F1F1F1" transform="translate(204,71)"/>
<path d="M0 0 C2.31 0 4.62 0 7 0 C9 14 9 14 10 38 C11.65 38 13.3 38 15 38 C14.34 38.165 14.34 38.165 11 39 C11.66 44.28 12.32 49.56 13 55 C13.33 61.27 13.66 67.54 14 74 C14.33 75.98 14.66 77.96 15 80 C15 86.27 15 92.54 15 99 C14.835 99.165 14.835 99.165 14 100 C12.35 100 10.7 100 9 100 C4.423 95.423 4.255 45.388 4 38 C3.34 37.67 2.68 37.34 2 37 C1.939 35.837 1.879 34.675 1.816 33.477 C1.233 22.316 0.627 11.158 0 0 Z " fill="#D3D4D4" transform="translate(670,1002)"/>
<path d="M0 0 C1.32 0.33 2.64 0.66 4 1 C4 4.3 4 7.6 4 11 C-4.251 19.251 -14.92 19.784 -26 22 C-35.24 22 -44.48 22 -54 22 C-54 18.04 -54 14.08 -54 10 C-46.74 9.67 -39.48 9.34 -32 9 C-11 6 -11 6 -2 2 C-1.34 2 -0.68 2 0 2 C0 1.34 0 0.68 0 0 Z " fill="#F7F8F8" transform="translate(510,965)"/>
<path d="M0 0 C6 3 6 3 9 7 C-25 41 -25 41 -29 43 C-29 28.77 -26.307 20.178 -19 8 C-9.857 0 -9.857 0 0 0 Z " fill="#BACA8A" transform="translate(614,502)"/>
<path d="M0 0 C3.667 17.6 6.945 35.283 10 53 C12.97 53.33 15.94 53.66 19 54 C19 54.33 19 54.66 19 55 C16.03 55 13.06 55 10 55 C12.31 66.88 14.62 78.76 17 91 C16.67 92.65 16.34 94.3 16 96 C14.02 96 12.04 96 10 96 C6.772 82.012 4.193 68.315 3 54 C2.01 53.67 1.02 53.34 0 53 C0.66 53 1.32 53 2 53 C-0.952 36.991 -3.933 20.988 -7 5 C-6.67 3.68 -6.34 2.36 -6 1 C-3 0 -3 0 0 0 Z " fill="#CBCBCB" transform="translate(714,990)"/>
<path d="M0 0 C6 2 6 2 7 3 C5.751 15.492 4.048 27.808 1 40 C2.65 40 4.3 40 6 40 C6 40.33 6 40.66 6 41 C4.02 41 2.04 41 0 41 C-0.66 46.28 -1.32 51.56 -2 57 C-3.65 66.57 -5.3 76.14 -7 86 C-7.33 88.97 -7.66 91.94 -8 95 C-8.66 95.99 -9.32 96.98 -10 98 C-11.65 98 -13.3 98 -15 98 C-15.33 97.67 -15.66 97.34 -16 97 C-13.224 69.241 -7.462 41.312 -2 14 C-1.34 9.38 -0.68 4.76 0 0 Z " fill="#C9C9CA" transform="translate(604,994)"/>
<path d="M0 0 C0.33 0 0.66 0 1 0 C4.558 24.908 2.05 51.83 2.062 77 C2.063 77.865 2.063 78.73 2.064 79.621 C2.087 126.938 2.009 174.248 1.5 221.562 C1.488 222.675 1.476 223.788 1.464 224.934 C1.323 237.956 1.169 250.978 1 264 C0.34 264.33 -0.32 264.66 -1 265 C-1 1 -1 1 0 0 Z " fill="#C84445" transform="translate(120,463)"/>
<path d="M0 0 C8 4 8 4 12 9 C14.97 9.99 17.94 10.98 21 12 C21 12.66 21 13.32 21 14 C6.09 25.182 -15.854 18 -33 18 C-33 16.35 -33 14.7 -33 13 C-30.69 12.01 -28.38 11.02 -26 10 C-22.37 7.03 -18.74 4.06 -15 1 C-12 0 -12 0 0 0 Z " fill="#CAEAF3" transform="translate(664,509)"/>
<path d="M0 0 C1.98 0.66 3.96 1.32 6 2 C6 9 6 9 5.604 10.962 C0.175 37.922 -4.592 64.816 -9 92 C-9.99 92.165 -9.99 92.165 -15 93 C-15.33 92.67 -15.66 92.34 -16 92 C-16 83 -16 83 -12 65 C-11.709 63.217 -11.417 61.434 -11.117 59.598 C-1.958 3.916 -1.958 3.916 0 0 Z " fill="#CACACA" transform="translate(409,978)"/>
<path d="M0 0 C0.33 0 0.66 0 1 0 C2.472 11.778 2.534 23.641 2.938 35.5 C2.949 35.837 2.949 35.837 3.007 37.541 C5 96.173 5 96.173 5 115 C2.03 115 -0.94 115 -4 115 C-4 32 -4 32 0 0 Z " fill="#946E59" transform="translate(689,663)"/>
<path d="M0 0 C8 1 8 1 12 2 C11.67 3.32 11.34 4.64 11 6 C10.34 6 9.68 6 9 6 C9 8.97 9 11.94 9 15 C11.31 13.02 13.62 11.04 16 9 C16 7.35 16 5.7 16 4 C17.815 4.165 17.815 4.165 27 5 C27.165 5.66 27.165 5.66 28 9 C26.845 9.66 26.845 9.66 21 13 C19.35 14.65 17.7 16.3 16 18 C19 28 19 28 23 35 C23 35.99 23 36.98 23 38 C19.7 37.34 16.4 36.68 13 36 C8 26 8 26 6 21 C5 31 5 31 5 34 C-3 34 -3 34 -7 33 C-6 29 -6 29 -3 22 C0 8 0 8 0 0 Z " fill="#D15553" transform="translate(150,487)"/>
<path d="M0 0 C15.51 0 31.02 0 47 0 C45.68 0.33 44.36 0.66 43 1 C42.34 3.31 41.68 5.62 41 8 C36.506 12.494 32.723 15.139 27 18 C15 18 15 18 5 12 C0 4 0 4 0 0 Z " fill="#F9F1CD" transform="translate(168,385)"/>
<path d="M0 0 C0.66 0 1.32 0 2 0 C2.33 12.21 2.66 24.42 3 37 C3.33 39.97 3.66 42.94 4 46 C5 93 5 93 5 115 C2.36 115 -0.28 115 -3 115 C-3 76.613 -1.565 38.353 0 0 Z " fill="#946E56" transform="translate(512,661)"/>
<path d="M0 0 C13.582 0 24.352 0.941 37 6 C37 7.32 37 8.64 37 10 C18.632 19.184 -6.702 16 -26 16 C-23 14 -23 14 -11 12 C-5.219 8.146 -3.025 6.049 0 0 Z " fill="#BC4040" transform="translate(346,423)"/>
<path d="M0 0 C2.805 0.66 2.805 0.66 17 4 C43.14 6.011 68.191 5.301 94 1 C94 2.32 94 3.64 94 5 C68.446 17.777 37.528 13.933 10 10 C8.35 9.34 8.35 9.34 0 6 C-0.33 4.35 -0.66 2.7 -1 1 C-0.67 0.67 -0.34 0.34 0 0 Z " fill="#BF4644" transform="translate(416,962)"/>
<path d="M0 0 C16.5 0 33 0 50 0 C50 0.33 50 0.66 50 1 C47.36 1 44.72 1 42 1 C41.34 2.65 40.68 4.3 40 6 C33 14 33 14 25 17 C15 17 15 17 6 12 C0 4.5 0 4.5 0 0 Z " fill="#F9EEC9" transform="translate(519,389)"/>
<path d="M0 0 C14 0 14 0 16 1 C15 13 15 13 13 19 C12.34 21.97 11.68 24.94 11 28 C6 29 6 29 -5 29 C-9 9 -9 9 -9 4 C2 3 2 3 12 3 C12 2.34 12 1.68 12 1 C8.04 1 4.08 1 0 1 C0 0.67 0 0.34 0 0 Z " fill="#D8765D" transform="translate(548,880)"/>
<path d="M0 0 C1.98 1.65 3.96 3.3 6 5 C-1.376 13.605 -8.98 21.98 -17 30 C-17.66 30 -18.32 30 -19 30 C-19.66 31.32 -20.32 32.64 -21 34 C-22.32 35.32 -23.64 36.64 -25 38 C-25.33 40.31 -25.66 42.62 -26 45 C-26.33 45 -26.66 45 -27 45 C-27 31.098 -25.789 21.221 -19 9 C-10 0 -10 0 0 0 Z " fill="#ACBB7E" transform="translate(521,531)"/>
<path d="M0 0 C5 1 5 1 9 6 C11 11 11 11 11 28 C10.175 29.485 10.175 29.485 6 37 C5.34 37 4.68 37 4 37 C4 42.61 4 48.22 4 54 C3.67 54 3.34 54 3 54 C2.835 51.525 2.835 51.525 2 39 C0.35 37.35 -1.3 35.7 -3 34 C-6 27 -6 27 -6 10 C-1 1 -1 1 0 0 Z " fill="#9EB55B" transform="translate(543,816)"/>
<path d="M0 0 C1.98 0 3.96 0 6 0 C6 4.62 6 9.24 6 14 C6.66 14.33 7.32 14.66 8 15 C7.34 15 6.68 15 6 15 C5.01 34.47 4.02 53.94 3 74 C2.67 74.33 2.67 74.33 1 76 C-0.65 75.67 -2.3 75.34 -4 75 C-4 52 -4 52 -1 17 C-1.99 16.67 -2.98 16.34 -4 16 C-3.01 16 -2.02 16 -1 16 C-0.67 10.72 -0.34 5.44 0 0 Z " fill="#C9C9C9" transform="translate(270,1023)"/>
<path d="M0 0 C2.31 0 4.62 0 7 0 C6.44 17.353 5.646 34.716 4 52 C3.67 57.94 3.34 63.88 3 70 C2.67 70.33 2.67 70.33 1 72 C-0.65 71.67 -2.3 71.34 -4 71 C-4 48 -4 48 -1 16 C-0.67 10.72 -0.34 5.44 0 0 Z " fill="#CACACA" transform="translate(642,1002)"/>
<path d="M0 0 C1.98 0.99 3.96 1.98 6 3 C6 4.65 6 6.3 6 8 C-1 12 -1 12 -6 12 C-6 48.3 -6 84.6 -6 122 C-6.33 122.165 -6.33 122.165 -8 123 C-8.33 86.04 -8.66 49.08 -9 11 C-11.64 11 -14.28 11 -17 11 C-18.65 9.68 -20.3 8.36 -22 7 C-21.67 5.68 -21.34 4.36 -21 3 C-15 0 -15 0 0 0 Z " fill="#F2F2F2" transform="translate(336,147)"/>
<path d="M0 0 C1.815 0.495 1.815 0.495 11 3 C31.063 6.762 45.901 7 67 7 C67 9.31 67 11.62 67 14 C17.75 14 17.75 14 2 7 C1.34 6.34 0.68 5.68 0 5 C0 3.35 0 1.7 0 0 Z " fill="#BB4645" transform="translate(605,974)"/>
<path d="M0 0 C14.52 0 29.04 0 44 0 C44 0.33 44 0.66 44 1 C41.36 1.33 38.72 1.66 36 2 C35.01 3.98 34.02 5.96 33 8 C25.572 14.19 23.707 15 14 15 C5 11 5 11 1 6 C0.67 4.02 0.34 2.04 0 0 Z " fill="#FBEFCA" transform="translate(310,422)"/>
<path d="M0 0 C9.396 1.446 18.429 3.203 27.667 5.253 C29.324 5.621 30.981 5.988 32.638 6.356 C42.436 8.527 52.227 10.721 62 13 C63.258 13.293 64.516 13.586 65.812 13.887 C69.812 14.819 73.812 15.753 77.812 16.688 C93.491 20.348 109.25 23.659 125 27 C124.505 27.165 124.505 27.165 122 28 C122 28.66 122 29.32 122 30 C82.171 25.575 42.046 13.067 3 4 C2.67 5.32 2.34 6.64 2 8 C1.67 6.02 1.34 4.04 1 2 C0.67 1.34 0.34 0.68 0 0 Z " fill="#D96964" transform="translate(119,462)"/>
<path d="M0 0 C1.342 0.193 2.684 0.387 4.066 0.586 C14.704 2.115 25.344 3.609 36 5 C37.98 5.495 37.98 5.495 48 8 C48 10.64 48 13.28 48 16 C31.878 14.76 15.937 11.732 0 9 C0 6.03 0 3.06 0 0 Z " fill="#D3534F" transform="translate(131,542)"/>
<path d="M0 0 C16.031 0 32.024 1.669 48 3 C48 5.97 48 8.94 48 12 C38 12 38 12 31 11 C21.1 10.34 11.2 9.68 1 9 C0.67 8.67 0.34 8.34 0 8 C0 5.36 0 2.72 0 0 Z " fill="#D1524D" transform="translate(131,640)"/>
<path d="M0 0 C6 0 6 0 8 1 C21.2 2.32 34.4 3.64 48 5 C48 7.97 48 10.94 48 14 C39 14 39 14 35 13 C27.74 12.34 20.48 11.68 13 11 C8.71 10.34 4.42 9.68 0 9 C0 6.03 0 3.06 0 0 Z " fill="#D45550" transform="translate(131,607)"/>
<path d="M0 0 C16.014 0 32.015 1.031 48 2 C48 4.97 48 7.94 48 11 C32.319 11 16.655 9.895 1 9 C0.67 8.67 0.34 8.34 0 8 C0 5.36 0 2.72 0 0 Z " fill="#CE544E" transform="translate(131,671)"/>
<path d="M0 0 C12.706 1.733 25.396 3.637 38 6 C41.3 6.33 44.6 6.66 48 7 C48 9.97 48 12.94 48 16 C2.444 11.444 2.444 11.444 0 9 C0 6.03 0 3.06 0 0 Z " fill="#D55550" transform="translate(131,558)"/>
<path d="M0 0 C14 2 14 2 20 4 C20 6.97 20 9.94 20 13 C19.01 13 18.02 13 17 13 C16.67 12.01 16.34 11.02 16 10 C13.69 9.67 11.38 9.34 9 9 C9 11.31 9 13.62 9 16 C10.98 16 12.96 16 15 16 C15 18.31 15 20.62 15 23 C12.36 22.67 9.72 22.34 7 22 C7 25.96 7 29.92 7 34 C3.37 33.67 -0.26 33.34 -4 33 C-3.059 27.194 -1.994 21.411 -0.938 15.625 C-0.751 14.603 -0.565 13.581 -0.373 12.527 C0.084 10.018 0.542 7.509 1 5 C0.67 3.35 0.34 1.7 0 0 Z " fill="#D04E4E" transform="translate(179,493)"/>
<path d="M0 0 C42 4 42 4 48 6 C48 8.64 48 11.28 48 14 C31 13 31 13 17 11 C11.39 10.34 5.78 9.68 0 9 C0 6.03 0 3.06 0 0 Z " fill="#D3534E" transform="translate(131,591)"/>
<path d="M0 0 C4.29 0 8.58 0 13 0 C13 12.54 13 25.08 13 38 C10.69 38 8.38 38 6 38 C0 7 0 7 0 0 Z " fill="#B3B6BB" transform="translate(521,1029)"/>
<path d="M0 0 C1.32 0.66 2.64 1.32 4 2 C4 4.64 4 7.28 4 10 C3.01 10 2.02 10 1 10 C0.67 9.34 0.34 8.68 0 8 C-2.31 8 -4.62 8 -7 8 C-10 12 -10 12 -10 19 C-9.34 19.99 -9.34 19.99 -6 25 C-3.69 25.33 -1.38 25.66 1 26 C1 28.31 1 30.62 1 33 C-7 33 -7 33 -15 28 C-19 21 -19 21 -19 13 C-14.629 1.343 -12.565 0 0 0 Z " fill="#D1534F" transform="translate(216,500)"/>
<path d="M0 0 C0 9.9 0 19.8 0 30 C-3.96 30 -7.92 30 -12 30 C-13 20 -13 20 -13 1 C-6 0 -6 0 0 0 Z " fill="#C0E8EE" transform="translate(707,747)"/>
<path d="M0 0 C0.66 0.66 1.32 1.32 2 2 C1 7 1 7 -3 10 C-6 11 -6 11 -13 11 C-13.33 11.66 -13.66 12.32 -14 13 C-14 11.35 -14 9.7 -14 8 C-14.66 8 -15.32 8 -16 8 C-16 8.99 -16 9.98 -16 11 C-25 10 -25 10 -30 7 C-30.33 5.35 -30.66 3.7 -31 2 C-21.424 -5.182 -10.698 -4.012 0 0 Z " fill="#F3F3F4" transform="translate(554,90)"/>
<path d="M0 0 C10.56 0 21.12 0 32 0 C32 0.66 32 1.32 32 2 C22 3 22 3 11 3 C12.32 9.93 13.64 16.86 15 24 C15 25.32 15 26.64 15 28 C8 28 8 28 3 26 C0 9 0 9 0 0 Z " fill="#CB6550" transform="translate(528,881)"/>
<path d="M0 0 C1 1 1 1 1 9 C-5.333 21.667 -5.333 21.667 -12 25 C-14.31 25 -16.62 25 -19 25 C-20 23 -20 23 -20 17 C-10.727 0 -10.727 0 0 0 Z " fill="#9EB75B" transform="translate(568,840)"/>
<path d="M0 0 C34 0 34 0 40 3 C39.34 8.28 38.68 13.56 38 19 C37.01 18.67 36.02 18.34 35 18 C34.34 16.35 33.68 14.7 33 13 C22.491 7.745 11.553 6.963 0 6 C0 4.02 0 2.04 0 0 Z " fill="#A7AAAF" transform="translate(552,1062)"/>
<path d="M0 0 C7 1 7 1 13 5 C20 15.5 20 15.5 20 24 C12 24 12 24 3 16 C0 9 0 9 0 0 Z " fill="#9EB75F" transform="translate(523,841)"/>
<path d="M0 0 C8 1 8 1 12 2 C11.67 3.32 11.34 4.64 11 6 C10.34 6 9.68 6 9 6 C8.67 9.96 8.34 13.92 8 18 C7.01 20.31 6.02 22.62 5 25 C5 27.97 5 30.94 5 34 C-3 34 -3 34 -7 33 C-6 29 -6 29 -3 22 C0 8 0 8 0 0 Z " fill="#CD4D4B" transform="translate(150,487)"/>
<path d="M0 0 C14 0 14 0 33 2 C33 4.64 33 7.28 33 10 C9 10 9 10 0 9 C0 6.03 0 3.06 0 0 Z " fill="#CF5450" transform="translate(131,687)"/>
<path d="M0 0 C0.99 1.32 1.98 2.64 3 4 C-1 26 -1 26 -3 31 C-3.66 31 -4.32 31 -5 31 C-11 18 -11 18 -13 11 C-6 4 -6 4 -3 2 C-2.01 2 -1.02 2 0 2 C0 1.34 0 0.68 0 0 Z " fill="#F3EFED" transform="translate(178,494)"/>
<path d="M0 0 C0.33 0 0.66 0 1 0 C2.399 41.978 2 83.999 2 126 C-3.94 126 -9.88 126 -16 126 C-15.835 125.67 -15.835 125.67 -15 124 C-10.05 124 -5.1 124 0 124 C0 83.08 0 42.16 0 0 Z " fill="#CC4748" transform="translate(243,604)"/>
<path d="M0 0 C0.33 0 0.66 0 1 0 C1 7.26 1 14.52 1 22 C2.65 20.68 4.3 19.36 6 18 C6.66 18 7.32 18 8 18 C8.33 26.58 8.66 35.16 9 44 C2 49 2 49 0 49 C0 32.83 0 16.66 0 0 Z " fill="#C6E8F1" transform="translate(486,540)"/>
<path d="M0 0 C14 1 14 1 26 3 C26 5.97 26 8.94 26 12 C1 9 1 9 0 8 C0 5.36 0 2.72 0 0 Z " fill="#D45752" transform="translate(131,575)"/>
<path d="M0 0 C12 0 12 0 24 2 C24 4.64 24 7.28 24 10 C4 10 4 10 0 8 C0 5.36 0 2.72 0 0 Z " fill="#D2554E" transform="translate(132,624)"/>
<path d="M0 0 C0.33 0 0.66 0 1 0 C4.536 24.751 2 49.998 2 75 C1.67 75 1.34 75 1 75 C0.67 79.95 0.34 84.9 0 90 C-0.33 90 -0.66 90 -1 90 C-1 1 -1 1 0 0 Z " fill="#CA4A4A" transform="translate(120,463)"/>
<path d="M0 0 C7.59 0.33 15.18 0.66 23 1 C23 3.64 23 6.28 23 9 C11 9 11 9 0 8 C0 5.36 0 2.72 0 0 Z " fill="#D25955" transform="translate(213,661)"/>
<path d="M0 0 C12 0 12 0 20 1 C20 3.64 20 6.28 20 9 C13.4 9 6.8 9 0 9 C0 6.03 0 3.06 0 0 Z " fill="#D45D59" transform="translate(216,691)"/>
<path d="M0 0 C0.825 0.165 0.825 0.165 5 1 C5.573 11.323 6 21.661 6 32 C4.02 32 2.04 32 0 32 C0 21.44 0 10.88 0 0 Z " fill="#B4B6BA" transform="translate(457,1022)"/>
<path d="M0 0 C15 1 15 1 19 2 C19 4.64 19 7.28 19 10 C12.73 9.67 6.46 9.34 0 9 C0 6.03 0 3.06 0 0 Z " fill="#D55552" transform="translate(216,617)"/>
<path d="M0 0 C6.27 0 12.54 0 19 0 C19 2.64 19 5.28 19 8 C12.73 8 6.46 8 0 8 C0 5.36 0 2.72 0 0 Z " fill="#D25654" transform="translate(217,677)"/>
<path d="M0 0 C7 0 7 0 19 3 C19 5.31 19 7.62 19 10 C10 10 10 10 0 8 C0 5.36 0 2.72 0 0 Z " fill="#D34D4D" transform="translate(216,556)"/>
<path d="M0 0 C15 1 15 1 19 2 C19 4.31 19 6.62 19 9 C6 9 6 9 0 8 C0 5.36 0 2.72 0 0 Z " fill="#D45653" transform="translate(216,587)"/>
<path d="M0 0 C14 1 14 1 19 2 C19 4.64 19 7.28 19 10 C17.721 9.856 16.442 9.711 15.125 9.562 C10.087 9.002 5.045 8.495 0 8 C0 5.36 0 2.72 0 0 Z " fill="#D45653" transform="translate(216,572)"/>
<path d="M0 0 C8 0 8 0 19 2 C19 4.31 19 6.62 19 9 C6 9 6 9 0 8 C0 5.36 0 2.72 0 0 Z " fill="#D35551" transform="translate(216,602)"/>
<path d="M0 0 C0.66 0 1.32 0 2 0 C2 1.65 2 3.3 2 5 C4.97 5 7.94 5 11 5 C11 5.33 11 5.66 11 6 C8.03 6 5.06 6 2 6 C2.66 8.64 3.32 11.28 4 14 C6 12 6 12 7 9 C7.66 9 8.32 9 9 9 C8.34 10.98 7.68 12.96 7 15 C6.67 16.65 6.34 18.3 6 20 C6.99 20.99 7.98 21.98 9 23 C9.33 21.35 9.66 19.7 10 18 C11 22 11 22 10 24 C5 23 5 23 3 21 C1.35 21.99 -0.3 22.98 -2 24 C-2 23.34 -2 22.68 -2 22 C-0.68 21.01 0.64 20.02 2 19 C1.67 17.35 1.34 15.7 1 14 C1 11.36 1 8.72 1 6 C-2.3 6 -5.6 6 -9 6 C-9 7.65 -9 9.3 -9 11 C-6.69 11 -4.38 11 -2 11 C-2 13.97 -2 16.94 -2 20 C-2.66 20.66 -3.32 21.32 -4 22 C-5.32 22 -6.64 22 -8 22 C-8 21.34 -8 20.68 -8 20 C-6.68 19.67 -5.36 19.34 -4 19 C-3.67 16.69 -3.34 14.38 -3 12 C-4.98 12 -6.96 12 -9 12 C-9 14.97 -9 17.94 -9 21 C-9.99 22.32 -10.98 23.64 -12 25 C-11.34 18.4 -10.68 11.8 -10 5 C-6.7 5 -3.4 5 0 5 C0 3.35 0 1.7 0 0 Z " fill="#DEDFE1" transform="translate(78,1296)"/>
<path d="M0 0 C15 0 15 0 34 2 C34.165 2.825 34.165 2.825 35 7 C31 8 31 8 13 4 C8.71 3.34 4.42 2.68 0 2 C0 1.34 0 0.68 0 0 Z " fill="#A9ACB0" transform="translate(174,1102)"/>
<path d="M0 0 C0.33 0 0.66 0 1 0 C1 1.65 1 3.3 1 5 C4.3 5 7.6 5 11 5 C11 5.66 11 6.32 11 7 C8.03 7 5.06 7 2 7 C2 8.65 2 10.3 2 12 C4.64 12 7.28 12 10 12 C10 12.66 10 13.32 10 14 C7.03 14 4.06 14 1 14 C1 16.31 1 18.62 1 21 C4.63 21 8.26 21 12 21 C12 21.33 12 21.66 12 22 C4.41 22 -3.18 22 -11 22 C-11 21.67 -11 21.34 -11 21 C-7.37 21 -3.74 21 0 21 C0 18.69 0 16.38 0 14 C-2.64 14 -5.28 14 -8 14 C-8 13.67 -8 13.34 -8 13 C-5.36 13 -2.72 13 0 13 C0 11.02 0 9.04 0 7 C-2.31 7.33 -4.62 7.66 -7 8 C-7.33 8.495 -7.33 8.495 -9 11 C-9.66 10.67 -10.32 10.34 -11 10 C-9.68 7.03 -8.36 4.06 -7 1 C-6.34 1 -5.68 1 -5 1 C-5.33 2.32 -5.66 3.64 -6 5 C-4.02 5 -2.04 5 0 5 C0 3.35 0 1.7 0 0 Z " fill="#D6D8DA" transform="translate(51,1297)"/>
<path d="M0 0 C0 0.66 0 1.32 0 2 C-2.64 4.31 -5.28 6.62 -8 9 C-11.96 13.29 -15.92 17.58 -20 22 C-21 18 -21 18 -16 9 C-7 0 -7 0 0 0 Z " fill="#98A863" transform="translate(518,531)"/>
<path d="M0 0 C17.003 0 34.013 0.261 51 1 C51 1.33 51 1.66 51 2 C46.05 2.33 41.1 2.66 36 3 C35.67 3.33 35.34 3.66 35 4 C20.48 4 5.96 4 -9 4 C-9 3.67 -9 3.34 -9 3 C-4.05 2.835 -4.05 2.835 21 2 C14.07 1.67 7.14 1.34 0 1 C0 0.67 0 0.34 0 0 Z " fill="#D8726F" transform="translate(192,726)"/>
<path d="M0 0 C3 3 3 3 9 20 C8.01 19.67 7.02 19.34 6 19 C5.67 17.02 5.34 15.04 5 13 C2.03 13 -0.94 13 -4 13 C-4.33 14.98 -4.66 16.96 -5 19 C-5.66 19.33 -6.32 19.66 -7 20 C-3.286 3.286 -3.286 3.286 0 0 Z " fill="#DADCDE" transform="translate(24,1299)"/>
<path d="M0 0 C1 5 1 5 1 13 C-6 18 -6 18 -8 18 C-8 14.04 -8 10.08 -8 6 C-1 0 -1 0 0 0 Z " fill="#B1E3EE" transform="translate(494,571)"/>
<path d="M0 0 C26 4 26 4 32 7 C32 7.66 32 8.32 32 9 C23 9 23 9 3 4 C2.67 5.32 2.34 6.64 2 8 C1.67 6.02 1.34 4.04 1 2 C0.67 1.34 0.34 0.68 0 0 Z " fill="#D86561" transform="translate(119,462)"/>
<path d="M0 0 C10.56 0 21.12 0 32 0 C32 0.66 32 1.32 32 2 C10 4 10 4 0 4 C0 2.68 0 1.36 0 0 Z " fill="#C4604C" transform="translate(528,881)"/>
<path d="M0 0 C3.3 0 6.6 0 10 0 C10.66 4.29 11.32 8.58 12 13 C11.01 13.99 10.02 14.98 9 16 C8.34 16 7.68 16 7 16 C6.67 16.66 6.34 17.32 6 18 C5.67 17.01 5.34 16.02 5 15 C5.33 14.67 5.66 14.34 6 14 C6.33 11.03 6.66 8.06 7 5 C4.69 5 2.38 5 0 5 C0 3.35 0 1.7 0 0 Z " fill="#B9BBC0" transform="translate(69,1302)"/>
<path d="M0 0 C0.33 0 0.66 0 1 0 C1.914 10.967 2 21.995 2 33 C-3.94 33 -9.88 33 -16 33 C-15.67 32.34 -15.34 31.68 -15 31 C-10.05 31 -5.1 31 0 31 C0 20.77 0 10.54 0 0 Z " fill="#CA4342" transform="translate(243,697)"/>
<path d="M0 0 C8.25 1.65 16.5 3.3 25 5 C24.01 5.33 23.02 5.66 22 6 C22 6.66 22 7.32 22 8 C13 7 13 7 -5 3 C-5 2.67 -5 2.34 -5 2 C-3.35 2 -1.7 2 0 2 C0 1.34 0 0.68 0 0 Z " fill="#D45B58" transform="translate(219,484)"/>
<path d="M0 0 C3.96 0 7.92 0 12 0 C11.67 0.66 11.34 1.32 11 2 C10.34 2 9.68 2 9 2 C9 2.66 9 3.32 9 4 C8.34 4 7.68 4 7 4 C6.34 5.32 5.68 6.64 5 8 C3.35 9.32 1.7 10.64 0 12 C0 8.04 0 4.08 0 0 Z " fill="#AAE5F1" transform="translate(603,430)"/>
<path d="M0 0 C8.25 0 16.5 0 25 0 C25 0.33 25 0.66 25 1 C20.05 1 15.1 1 10 1 C10 1.66 10 2.32 10 3 C-1.22 3 -12.44 3 -24 3 C-24 2.67 -24 2.34 -24 2 C-16.41 1.67 -8.82 1.34 -1 1 C-0.67 0.67 -0.34 0.34 0 0 Z " fill="#D35853" transform="translate(167,726)"/>
<path d="M0 0 C1.32 0.66 2.64 1.32 4 2 C4.33 3.65 4.66 5.3 5 7 C-3 14 -3 14 -4 14 C-3.67 10.7 -3.34 7.4 -3 4 C-2.34 3.67 -1.68 3.34 -1 3 C-0.67 2.01 -0.34 1.02 0 0 Z " fill="#F0E7E5" transform="translate(162,489)"/>
<path d="M0 0 C1.32 0 2.64 0 4 0 C4 9.57 4 19.14 4 29 C3.34 29 2.68 29 2 29 C2 20.09 2 11.18 2 2 C1.34 2 0.68 2 0 2 C0 1.34 0 0.68 0 0 Z " fill="#CE4D4F" transform="translate(241,490)"/>
<path d="M0 0 C7 0 7 0 22 4 C22 4.66 22 5.32 22 6 C14 6 7.656 4.552 0 2 C0 1.34 0 0.68 0 0 Z " fill="#D7605C" transform="translate(197,480)"/>
<path d="M0 0 C0.33 0 0.66 0 1 0 C1.33 1.98 1.66 3.96 2 6 C4 4 4 4 5 1 C5.66 1 6.32 1 7 1 C6.34 2.98 5.68 4.96 5 7 C4.67 8.65 4.34 10.3 4 12 C4.99 12.99 5.98 13.98 7 15 C7.33 13.35 7.66 11.7 8 10 C9 14 9 14 8 16 C3 15 3 15 1 13 C0.175 13.495 0.175 13.495 -4 16 C-4 15.34 -4 14.68 -4 14 C-2.68 13.01 -1.36 12.02 0 11 C-0.33 8.03 -0.66 5.06 -1 2 C-0.67 1.34 -0.34 0.68 0 0 Z " fill="#DBDCDE" transform="translate(80,1304)"/>
<path d="M0 0 C4 5 4 5 4 7 C4.99 7.33 5.98 7.66 7 8 C7 13.61 7 19.22 7 25 C3.04 25 -0.92 25 -5 25 C-5 24.67 -5 24.34 -5 24 C-1.37 24 2.26 24 6 24 C3 9 3 9 0 4 C0 2.68 0 1.36 0 0 Z " fill="#CBC7B9" transform="translate(538,846)"/>
<path d="M0 0 C0.33 0 0.66 0 1 0 C2 8 2 8 2 24 C1.01 24.66 0.02 25.32 -1 26 C-1 8 -1 8 0 0 Z " fill="#94725C" transform="translate(689,663)"/>
<path d="M0 0 C22 0 22 0 29 2 C29 2.33 29 2.66 29 3 C22.73 3 16.46 3 10 3 C10 2.34 10 1.68 10 1 C6.7 1 3.4 1 0 1 C0 0.67 0 0.34 0 0 Z " fill="#E6DFDC" transform="translate(585,427)"/>
<path d="M0 0 C4.95 0.99 9.9 1.98 15 3 C14.67 3.99 14.34 4.98 14 6 C14.99 6.33 15.98 6.66 17 7 C9 6 9 6 -3 3 C-2.01 2.67 -1.02 2.34 0 2 C0 1.34 0 0.68 0 0 Z " fill="#D96D69" transform="translate(183,476)"/>
<path d="M0 0 C0.33 0 0.66 0 1 0 C1 1.98 1 3.96 1 6 C3.97 6 6.94 6 10 6 C10 6.33 10 6.66 10 7 C7.03 7 4.06 7 1 7 C1 9.31 1 11.62 1 14 C4.63 14 8.26 14 12 14 C12 14.33 12 14.66 12 15 C4.41 15 -3.18 15 -11 15 C-11 14.67 -11 14.34 -11 14 C-7.37 14 -3.74 14 0 14 C0 11.69 0 9.38 0 7 C-2.64 7 -5.28 7 -8 7 C-8 6.67 -8 6.34 -8 6 C-5.36 6 -2.72 6 0 6 C0 4.02 0 2.04 0 0 Z " fill="#E3E5E6" transform="translate(51,1304)"/>
<path d="M0 0 C2.31 0 4.62 0 7 0 C7 1.98 7 3.96 7 6 C5.515 6.165 5.515 6.165 -2 7 C-2 6.34 -2 5.68 -2 5 C-2.66 4.67 -3.32 4.34 -4 4 C-3.34 4 -2.68 4 -2 4 C-1.34 2.68 -0.68 1.36 0 0 Z " fill="#B9BCC0" transform="translate(44,1304)"/>
<path d="M0 0 C3 3 3 3 9 20 C8.01 19.67 7.02 19.34 6 19 C5.67 17.02 5.34 15.04 5 13 C2.36 13 -0.28 13 -3 13 C-3 12.67 -3 12.34 -3 12 C-0.69 12 1.62 12 4 12 C3.01 9.69 2.02 7.38 1 5 C0.67 5.495 0.67 5.495 -1 8 C-1.66 8 -2.32 8 -3 8 C-1 1 -1 1 0 0 Z " fill="#DEE0E1" transform="translate(24,1299)"/>
<path d="M0 0 C8 1 8 1 15 3 C15 3.66 15 4.32 15 5 C5 5 5 5 -3 3 C-2.01 2.67 -1.02 2.34 0 2 C0 1.34 0 0.68 0 0 Z " fill="#D76562" transform="translate(151,469)"/>
<path d="M0 0 C1.98 0 3.96 0 6 0 C6 2.31 6 4.62 6 7 C4.02 7.66 2.04 8.32 0 9 C0 6.03 0 3.06 0 0 Z " fill="#BABDC1" transform="translate(69,1308)"/>
<path d="M0 0 C0.33 0 0.66 0 1 0 C2.603 11.224 2 22.662 2 34 C1.67 34 1.34 34 1 34 C0.67 26.74 0.34 19.48 0 12 C-0.33 12 -0.66 12 -1 12 C-1 1 -1 1 0 0 Z " fill="#CA4E4D" transform="translate(120,463)"/>
<path d="M0 0 C2.97 0 5.94 0 9 0 C8.67 0.165 8.67 0.165 7 1 C7 1.66 7 2.32 7 3 C6.34 3 5.68 3 5 3 C4.67 4.65 4.34 6.3 4 8 C3.34 8.66 2.68 9.32 2 10 C1.34 6.7 0.68 3.4 0 0 Z " fill="#B9BCC1" transform="translate(80,1302)"/>
<path d="M0 0 C0 3 0 3 -4 9 C-4.66 9.33 -4.66 9.33 -8 11 C-9.65 12.65 -11.3 14.3 -13 16 C-13.66 15.67 -14.32 15.34 -15 15 C-10.05 10.05 -5.1 5.1 0 0 Z " fill="#927357" transform="translate(626,660)"/>
<path d="M0 0 C5.28 0 10.56 0 16 0 C16 0.66 16 1.32 16 2 C14.02 2.165 14.02 2.165 4 3 C4 2.34 4 1.68 4 1 C2.68 0.67 1.36 0.34 0 0 Z " fill="#A9ADB2" transform="translate(137,1102)"/>
<path d="M0 0 C9 1 9 1 12 4 C9.03 4 6.06 4 3 4 C2.67 5.32 2.34 6.64 2 8 C1.67 6.02 1.34 4.04 1 2 C0.67 1.34 0.34 0.68 0 0 Z " fill="#D35A58" transform="translate(119,462)"/>
<path d="M0 0 C0.99 0 1.98 0 3 0 C3 0.99 3 1.98 3 3 C3.99 3.33 4.98 3.66 6 4 C5.67 5.32 5.34 6.64 5 8 C4.01 7.01 3.02 6.02 2 5 C-0.64 5 -3.28 5 -6 5 C-6.33 4.34 -6.66 3.68 -7 3 C-5.845 2.835 -5.845 2.835 0 2 C0 1.34 0 0.68 0 0 Z " fill="#D66361" transform="translate(214,503)"/>
<path d="M0 0 C0.33 0 0.66 0 1 0 C1.33 5.28 1.66 10.56 2 16 C1.01 16.66 0.02 17.32 -1 18 C-1 8 -1 8 0 0 Z " fill="#92805D" transform="translate(689,663)"/>
<path d="M0 0 C3 4 3 4 4 8 C2.02 8 0.04 8 -2 8 C-1 2 -1 2 0 0 Z " fill="#B8BBBE" transform="translate(24,1302)"/>
<path d="M0 0 C0.99 0 1.98 0 3 0 C3 2.97 3 5.94 3 9 C2.01 9 1.02 9 0 9 C-1 5 -1 5 0 0 Z " fill="#D75856" transform="translate(196,497)"/>
<path d="M0 0 C2.97 0.33 5.94 0.66 9 1 C8.01 1.33 7.02 1.66 6 2 C6 2.66 6 3.32 6 4 C3.03 3.67 0.06 3.34 -3 3 C-2.01 2.67 -1.02 2.34 0 2 C0 1.34 0 0.68 0 0 Z " fill="#DB726F" transform="translate(235,488)"/>
<path d="M0 0 C0.66 0 1.32 0 2 0 C1.67 1.32 1.34 2.64 1 4 C1.99 4.165 1.99 4.165 7 5 C7 5.33 7 5.66 7 6 C4.69 6.33 2.38 6.66 0 7 C-0.33 7.495 -0.33 7.495 -2 10 C-2.66 9.67 -3.32 9.34 -4 9 C-2.68 6.03 -1.36 3.06 0 0 Z " fill="#D8DADC" transform="translate(44,1298)"/>
<path d="M0 0 C2 3 2 3 2 5 C1.67 5.165 1.67 5.165 0 6 C0 8.64 0 11.28 0 14 C-2 11 -2 11 -1 1 C-0.67 0.67 -0.34 0.34 0 0 Z " fill="#E7CAC6" transform="translate(156,507)"/>
<path d="M0 0 C-5 2 -5 2 -12 3 C-12.66 2.01 -13.32 1.02 -14 0 C-2 -1 -2 -1 0 0 Z " fill="#C44746" transform="translate(197,403)"/>
<path d="M0 0 C3.3 0.33 6.6 0.66 10 1 C10 1.66 10 2.32 10 3 C7.36 3 4.72 3 2 3 C1.34 2.01 0.68 1.02 0 0 Z " fill="#D45C58" transform="translate(209,483)"/>
<path d="M0 0 C2.31 0.33 4.62 0.66 7 1 C6.01 1.33 5.02 1.66 4 2 C4 2.66 4 3.32 4 4 C1.03 3.67 -1.94 3.34 -5 3 C-5 2.67 -5 2.34 -5 2 C-3.35 2 -1.7 2 0 2 C0 1.34 0 0.68 0 0 Z " fill="#DA746F" transform="translate(219,484)"/>
<path d="M0 0 C4.62 0 9.24 0 14 0 C14.66 0.66 15.32 1.32 16 2 C14.68 2.33 13.36 2.66 12 3 C12 2.34 12 1.68 12 1 C8.04 1 4.08 1 0 1 C0 0.67 0 0.34 0 0 Z " fill="#CE6E57" transform="translate(548,880)"/>
<path d="M0 0 C7 0 7 0 9 1 C9 1.66 9 2.32 9 3 C6.36 2.67 3.72 2.34 1 2 C0.67 1.34 0.34 0.68 0 0 Z " fill="#D1524F" transform="translate(142,468)"/>
<path d="M0 0 C0.33 0 0.66 0 1 0 C1.33 2.64 1.66 5.28 2 8 C0.68 7.67 -0.64 7.34 -2 7 C-1 2 -1 2 0 0 Z " fill="#AEDDE6" transform="translate(646,617)"/>
<path d="M0 0 C0.66 0.33 1.32 0.66 2 1 C-1 9 -1 9 -3 10 C-2 4 -2 4 0 0 Z " fill="#98AD64" transform="translate(500,543)"/>
<path d="M0 0 C0.66 0.33 1.32 0.66 2 1 C0 5 0 5 -5 8 C-3 3 -3 3 0 0 Z " fill="#D3605C" transform="translate(204,501)"/>
<path d="M0 0 C2.31 0.33 4.62 0.66 7 1 C7 1.66 7 2.32 7 3 C4.36 2.67 1.72 2.34 -1 2 C-0.67 1.34 -0.34 0.68 0 0 Z " fill="#D25651" transform="translate(176,475)"/>
<path d="M0 0 C0.825 0.165 0.825 0.165 5 1 C5 1.99 5 2.98 5 4 C3.35 4 1.7 4 0 4 C0 2.68 0 1.36 0 0 Z " fill="#A5A9AD" transform="translate(528,1063)"/>
<path d="M0 0 C2.31 0 4.62 0 7 0 C6.67 0.165 6.67 0.165 5 1 C5 1.66 5 2.32 5 3 C3.35 3 1.7 3 0 3 C0 2.01 0 1.02 0 0 Z " fill="#D76461" transform="translate(223,486)"/>
</svg>
