<?xml version="1.0" encoding="UTF-8"?>
<!-- Generator: visioncortex VTracer 0.6.12 -->
<svg version="1.1" xmlns="http://www.w3.org/2000/svg" width="768" height="1344">
<path d="M0 0 C253.44 0 506.88 0 768 0 C768 443.52 768 887.04 768 1344 C514.56 1344 261.12 1344 0 1344 C0 900.48 0 456.96 0 0 Z " fill="#F8F5ED" transform="translate(0,0)"/>
<path d="M0 0 C15.798 3.16 29.517 12.944 44 20 C47.939 21.815 51.879 23.63 55.938 25.5 C66.85 30.549 77.693 35.73 88.5 41 C99.913 46.565 111.372 52.003 122.903 57.319 C157.107 73.107 157.107 73.107 159 75 C159 243.63 159 412.26 159 586 C186.555 585.835 186.555 585.835 326 585 C327.32 583.02 328.64 581.04 330 579 C337.2 573 337.2 573 344 573 C350 578 350 578 352 582 C352 583.32 352 584.64 352 586 C376.75 586 401.5 586 427 586 C427.33 584.35 427.66 582.7 428 581 C432 575 432 575 435 573 C442 573 442 573 448 577 C449.98 579.31 451.96 581.62 454 584 C487.99 584 521.98 584 557 584 C557 581.36 557 578.72 557 576 C562.61 576 568.22 576 574 576 C573.01 572.37 572.02 568.74 571 565 C571 564.01 571 563.02 571 562 C568.36 562 565.72 562 563 562 C552.749 555.166 548.975 550.194 544 539 C543.34 535.04 542.68 531.08 542 527 C553.922 529.649 562.009 533.677 570 543 C573 550 573 550 573 562 C573.99 565.63 574.98 569.26 576 573 C576 573.99 576 574.98 576 576 C576.99 576 577.98 576 579 576 C579 567.42 579 558.84 579 550 C577.68 549.34 576.36 548.68 575 548 C566.965 538.359 567 531.499 567 519 C571 506 571 506 578 492 C578.66 492 579.32 492 580 492 C589.728 509.024 593 515.723 593 535 C588 545 588 545 583 550 C582.34 550 581.68 550 581 550 C580.67 558.58 580.34 567.16 580 576 C580.66 576 581.32 576 582 576 C582.061 575.383 582.121 574.765 582.184 574.129 C583.857 557.214 583.857 557.214 590 548 C598.038 541.971 604.019 538.426 614 537 C612.833 551.009 609.858 559.693 599 569 C595 571 595 571 585 571 C584.67 572.32 584.34 573.64 584 575 C588.95 575.33 593.9 575.66 599 576 C598.67 578.97 598.34 581.94 598 585 C631.66 585 665.32 585 700 585 C701.32 583.02 702.64 581.04 704 579 C711.2 573 711.2 573 718 573 C724 578 724 578 726 581 C726 582.32 726 583.64 726 585 C739.86 585 753.72 585 768 585 C768 740.76 768 896.52 768 1057 C514.56 1057 261.12 1057 0 1057 C0 708.19 0 359.38 0 0 Z " fill="#E36F32" transform="translate(0,287)"/>
<path d="M0 0 C253.44 0 506.88 0 768 0 C768 94.05 768 188.1 768 285 C514.56 285 261.12 285 0 285 C0 190.95 0 96.9 0 0 Z " fill="#FEFEFE" transform="translate(0,0)"/>
<path d="M0 0 C253.44 0 506.88 0 768 0 C768 93.72 768 187.44 768 284 C514.56 284 261.12 284 0 284 C0 190.28 0 96.56 0 0 Z " fill="#FEFEFE" transform="translate(0,1060)"/>
<path d="M0 0 C253.44 0 506.88 0 768 0 C768 43.56 768 87.12 768 132 C704.64 132.33 641.28 132.66 576 133 C575.67 142.24 575.34 151.48 575 161 C577.64 161.33 580.28 161.66 583 162 C596.578 167.431 602.587 171.981 611 184 C615.543 195.358 616 196.705 616 209 C612.7 208.34 609.4 207.68 606 207 C580.868 204.715 557.041 204.423 532 208 C532 194.104 534.663 186.116 543 175 C552.477 166.576 558.359 162.405 571 161 C571 151.76 571 142.52 571 133 C513.58 133 456.16 133 397 133 C397 138.61 397 144.22 397 150 C400.63 150.66 404.26 151.32 408 152 C424.323 160.162 430.825 169.018 437 186 C437 189.63 437 193.26 437 197 C431.72 196.34 426.44 195.68 421 195 C397.947 192.904 375.812 193.741 353 197 C353 181.011 355.6 174.926 365 162 C376.094 153.932 379.738 151.326 393 150 C392.67 144.39 392.34 138.78 392 133 C331.61 132.67 271.22 132.34 209 132 C209 141.9 209 151.8 209 162 C211.64 162 214.28 162 217 162 C229.685 167.074 235.447 172.309 244 183 C249 196 249 196 249 208 C242.73 207.34 236.46 206.68 230 206 C174 206 174 206 165 209 C165 194.676 168.323 187.064 176 175 C191.889 162 191.889 162 205 162 C205 152.43 205 142.86 205 133 C190.15 133 175.3 133 160 133 C160 282.82 160 432.64 160 587 C214.78 587 269.56 587 326 587 C326 587.33 326 587.66 326 588 C270.89 588 215.78 588 159 588 C158.67 419.37 158.34 250.74 158 77 C139.99 68.268 122.051 59.588 103.891 51.211 C96.721 47.888 89.608 44.452 82.5 41 C68.411 34.159 54.221 27.564 40 21 C27.79 15.06 15.58 9.12 3 3 C2.01 2.67 1.02 2.34 0 2 C0 1.34 0 0.68 0 0 Z " fill="#F0E7DD" transform="translate(0,285)"/>
<path d="M0 0 C0.66 0 1.32 0 2 0 C11.728 17.024 15 23.723 15 43 C10 53 10 53 5 58 C4.34 58 3.68 58 3 58 C2.67 66.58 2.34 75.16 2 84 C2.66 84 3.32 84 4 84 C4.061 83.383 4.121 82.765 4.184 82.129 C5.857 65.214 5.857 65.214 12 56 C20.038 49.971 26.019 46.426 36 45 C34.833 59.009 31.858 67.693 21 77 C17 79 17 79 7 79 C6.67 80.32 6.34 81.64 6 83 C10.95 83.33 15.9 83.66 21 84 C20.67 86.97 20.34 89.94 20 93 C53.66 93 87.32 93 122 93 C123.32 91.02 124.64 89.04 126 87 C133.2 81 133.2 81 140 81 C146 86 146 86 148 89 C148 90.32 148 91.64 148 93 C161.86 93 175.72 93 190 93 C190 155.04 190 217.08 190 281 C-63.44 281 -316.88 281 -578 281 C-578 275.39 -578 269.78 -578 264 C-525 254 -525 254 -518 253 C-518 254.98 -518 256.96 -518 259 C-516.68 258.67 -515.36 258.34 -514 258 C-513.34 255.69 -512.68 253.38 -512 251 C-499 249 -499 249 -492 249 C-492 251.31 -492 253.62 -492 256 C-490.35 256 -488.7 256 -487 256 C-486.67 253.03 -486.34 250.06 -486 247 C-485.346 246.864 -484.693 246.728 -484.019 246.589 C-472.005 244.093 -459.992 241.597 -448 239 C-446.35 239 -444.7 239 -443 239 C-442.01 244.94 -441.02 250.88 -440 257 C-439.01 257 -438.02 257 -437 257 C-437 250.4 -437 243.8 -437 237 C-431.06 236.01 -425.12 235.02 -419 234 C-417 241 -417 241 -415 258 C-413.68 258 -412.36 258 -411 258 C-411.33 254.7 -411.66 251.4 -412 248 C-412 243.38 -412 238.76 -412 234 C-402.1 234 -392.2 234 -382 234 C-382 238.95 -382 243.9 -382 249 C-387.28 249.66 -392.56 250.32 -398 251 C-408 256 -408 256 -409 258 C-386.56 258 -364.12 258 -341 258 C-348.632 250.368 -357.52 250.497 -368 249 C-368 244.05 -368 239.1 -368 234 C-357.77 234 -347.54 234 -337 234 C-337.33 237.96 -337.33 237.96 -339 258 C-337.68 258 -336.36 258 -335 258 C-334.34 252.72 -333.68 247.44 -333 242 C-332.67 240.68 -332.67 240.68 -331 234 C-324.73 234 -318.46 234 -312 234 C-312.33 241.59 -312.66 249.18 -313 257 C-311.68 257 -310.36 257 -309 257 C-308.505 253.37 -308.505 253.37 -306 235 C-305.67 234.67 -305.34 234.34 -305 234 C-292.13 234 -279.26 234 -266 234 C-264 240 -264 240 -262 256 C-260.35 256 -258.7 256 -257 256 C-257.33 253.69 -257.66 251.38 -258 249 C-258 244.05 -258 239.1 -258 234 C-251.73 234 -245.46 234 -239 234 C-235 257 -235 257 -235 259 C-233.68 259 -232.36 259 -231 259 C-231.33 250.75 -231.66 242.5 -232 234 C-202.96 234 -173.92 234 -144 234 C-145 252 -145 252 -146 259 C-144.68 258.67 -143.36 258.34 -142 258 C-140.68 251.07 -139.36 244.14 -138 237 C-137.67 236.01 -137.34 235.02 -137 234 C-130.73 234 -124.46 234 -118 234 C-118.33 241.26 -118.66 248.52 -119 256 C-117.68 255.67 -116.36 255.34 -115 255 C-114.505 251.865 -114.505 251.865 -112 236 C-111.67 235.34 -111.34 234.68 -111 234 C-98.13 234 -85.26 234 -72 234 C-70 241 -70 241 -68 256 C-66.35 256.33 -64.7 256.66 -63 257 C-63.66 251.72 -64.32 246.44 -65 241 C-65 238.69 -65 236.38 -65 234 C-58.73 234 -52.46 234 -46 234 C-43.334 241.999 -42 249.57 -42 258 C-40.35 258 -38.7 258 -37 258 C-37.33 256.35 -37.66 254.7 -38 253 C-38.33 246.73 -38.66 240.46 -39 234 C-29.1 234 -19.2 234 -9 234 C-9 238.95 -9 243.9 -9 249 C-13.95 249.66 -18.9 250.32 -24 251 C-33 255 -33 255 -36 258 C-13.23 258 9.54 258 33 258 C25.112 250.112 15.851 250.447 5 249 C5 244.05 5 239.1 5 234 C15.23 234 25.46 234 36 234 C36 242.007 35.57 250.013 35 258 C36.32 258 37.64 258 39 258 C39.66 252.72 40.32 247.44 41 242 C41.66 239.36 42.32 236.72 43 234 C49.27 234 55.54 234 62 234 C61.67 241.92 61.34 249.84 61 258 C62.32 257.67 63.64 257.34 65 257 C65.495 253.535 65.495 253.535 68 236 C68.33 235.34 68.66 234.68 69 234 C81.87 234 94.74 234 108 234 C109.32 240.93 110.64 247.86 112 255 C113.32 255.33 114.64 255.66 116 256 C115.67 248.74 115.34 241.48 115 234 C121.27 234 127.54 234 134 234 C136.245 241.857 137.58 249.953 139 258 C140.32 258.33 141.64 258.66 143 259 C142.34 254.05 141.68 249.1 141 244 C141 240.7 141 237.4 141 234 C156.84 234 172.68 234 189 234 C189 226.74 189 219.48 189 212 C172.5 212 156 212 139 212 C134.466 207.466 136.708 199.373 136 193 C136 185 136 185 138 177 C132.39 177.99 126.78 178.98 121 180 C93.394 182.51 66.327 181.904 39 178 C40 185 40 185 41 186 C41 197 41 197 39 211 C28.11 211 17.22 211 6 211 C6 186.91 6 162.82 6 138 C-6.21 138 -18.42 138 -31 138 C-78.455 134.727 -78.455 134.727 -88 129 C-88 125.7 -88 122.4 -88 119 C-64.475 111.158 -39.548 112 -15 112 C-15.495 109.69 -15.495 109.69 -18 98 C-18 96.68 -18 95.36 -18 94 C-52.65 94 -87.3 94 -123 94 C-121.02 99.28 -119.04 104.56 -117 110 C-115.02 120.89 -113.04 131.78 -111 143 C-106 156 -106 156 -102 160 C-91.128 164.349 -78.703 162.61 -67 163 C-51 167 -51 167 -44 171 C-43.01 172.98 -42.02 174.96 -41 177 C-72.612 184.903 -109.576 185.978 -141 177 C-140.34 179.31 -139.68 181.62 -139 184 C-139 196 -139 196 -141 212 C-172.02 212 -203.04 212 -235 212 C-239.021 186.532 -239.021 186.532 -236 182 C-235.67 180.35 -235.34 178.7 -235 177 C-239.62 177.99 -244.24 178.98 -249 180 C-310.385 182.923 -310.385 182.923 -335 178 C-333 185 -333 185 -332 186 C-333 201 -333 201 -335 211 C-345.89 211 -356.78 211 -368 211 C-368 186.91 -368 162.82 -368 138 C-352.49 137.01 -336.98 136.02 -321 135 C-316.834 134.361 -312.668 133.721 -308.375 133.062 C-307.072 132.863 -305.769 132.663 -304.427 132.457 C-303.386 132.297 -302.346 132.137 -301.273 131.973 C-300.216 131.81 -299.158 131.648 -298.068 131.481 C-295.042 131.007 -292.02 130.509 -289 130 C-289 126.37 -289 122.74 -289 119 C-332.848 110.778 -373.605 113 -419 113 C-419 106.73 -419 100.46 -419 94 C-391.445 93.835 -391.445 93.835 -252 93 C-250.68 91.02 -249.36 89.04 -248 87 C-240.8 81 -240.8 81 -234 81 C-228 86 -228 86 -226 90 C-226 91.32 -226 92.64 -226 94 C-201.25 94 -176.5 94 -151 94 C-150.67 92.35 -150.34 90.7 -150 89 C-146 83 -146 83 -143 81 C-136 81 -136 81 -130 85 C-128.02 87.31 -126.04 89.62 -124 92 C-90.01 92 -56.02 92 -21 92 C-21 89.36 -21 86.72 -21 84 C-15.39 84 -9.78 84 -4 84 C-4.99 80.37 -5.98 76.74 -7 73 C-7 72.01 -7 71.02 -7 70 C-9.64 70 -12.28 70 -15 70 C-25.251 63.166 -29.025 58.194 -34 47 C-34.66 43.04 -35.32 39.08 -36 35 C-24.078 37.649 -15.991 41.677 -8 51 C-5 58 -5 58 -5 70 C-4.01 73.63 -3.02 77.26 -2 81 C-2 81.99 -2 82.98 -2 84 C-1.01 84 -0.02 84 1 84 C1 75.42 1 66.84 1 58 C-0.32 57.34 -1.64 56.68 -3 56 C-11.035 46.359 -11 39.499 -11 27 C-7 14 -7 14 0 0 Z " fill="#AB6436" transform="translate(578,779)"/>
<path d="M0 0 C124.41 0 248.82 0 377 0 C377 71.94 377 143.88 377 218 C357.2 218 337.4 218 317 218 C317.495 216.515 317.495 216.515 320 209 C320.66 205.04 321.32 201.08 322 197 C309.202 201.266 302.129 204.162 294 215 C292 220 292 220 292 231 C291.34 232.65 290.68 234.3 290 236 C289.34 236 288.68 236 288 236 C288 219 288 219 289 210 C290.32 209.67 291.64 209.34 293 209 C293.276 208.448 293.552 207.897 293.836 207.328 C294.863 205.273 294.863 205.273 300 195 C300 176.962 297.579 171.087 289 155 C288.67 154.01 288.34 153.02 288 152 C287.34 152 286.68 152 286 152 C285.34 153.65 284.68 155.3 284 157 C282.02 161.62 280.04 166.24 278 171 C275.159 182.362 275.647 190.822 279 202 C285 209 285 209 287 210 C287 218.58 287 227.16 287 236 C286.01 236 285.02 236 284 236 C280 222 280 222 280 210 C273.651 197.303 268.867 194.849 256 189 C255.01 188.67 255.01 188.67 250 187 C253.345 198.709 256.33 208.413 264 218 C176.88 218 89.76 218 0 218 C0 146.06 0 74.12 0 0 Z " fill="#9CD2F1" transform="translate(292,627)"/>
<path d="M0 0 C78 0 78 0 84 1 C122 1 122 1 129 0 C165.63 0 202.26 0 240 0 C240 1.98 240 3.96 240 6 C242.31 5.34 244.62 4.68 247 4 C272.719 1.551 298.93 -0.521 324 7 C324 4.69 324 2.38 324 0 C341.49 0 358.98 0 377 0 C377 41.58 377 83.16 377 126 C252.59 126 128.18 126 0 126 C0 84.42 0 42.84 0 0 Z " fill="#9CD2F1" transform="translate(292,487)"/>
<path d="M0 0 C34.65 0 69.3 0 105 0 C108 13 108 13 108 18 C101.4 18.33 101.4 18.33 68 20 C49 22 49 22 35 25 C35.33 28.3 35.66 31.6 36 35 C65.582 44.861 98.262 43.169 129 44 C129 68.09 129 92.18 129 117 C139.89 117 150.78 117 162 117 C162.594 108.681 163 100.34 163 92 C162.67 91.67 162.34 91.34 162 91 C162 88.69 162 86.38 162 84 C169.011 84.539 176.023 85.128 183 86 C233 86 233 86 257 83 C258.32 83 259.64 83 261 83 C261 89 261 89 260 91 C261 109 261 109 262 117 C270.25 117.165 270.25 117.165 312 118 C312 125.26 312 132.52 312 140 C296.16 140 280.32 140 264 140 C264.66 145.94 265.32 151.88 266 158 C266 160.31 266 162.62 266 165 C264.35 164.67 262.7 164.34 261 164 C259.68 156.41 258.36 148.82 257 141 C250.73 140.67 244.46 140.34 238 140 C238.33 141.98 238.66 143.96 239 146 C239 151.28 239 156.56 239 162 C237.35 161.67 235.7 161.34 234 161 C233.01 154.07 232.02 147.14 231 140 C218.13 140 205.26 140 192 140 C191.505 143.795 191.505 143.795 189 163 C187.35 163.33 185.7 163.66 184 164 C184 149 184 149 185 140 C178.73 140 172.46 140 166 140 C165.67 142.64 165.34 145.28 165 148 C164.505 150.64 164.505 150.64 162 164 C160.68 164 159.36 164 158 164 C158 150 158 150 159 140 C148.77 140 138.54 140 128 140 C128 144.95 128 149.9 128 155 C131.3 155 134.6 155 138 155 C149 158 149 158 155 161 C155.33 161.99 155.66 162.98 156 164 C133.23 164 110.46 164 87 164 C87.33 163.01 87.66 162.02 88 161 C96.813 156.593 104.145 155 114 155 C114 150.05 114 145.1 114 140 C104.1 140 94.2 140 84 140 C84.33 141.65 84.66 143.3 85 145 C85.33 151.27 85.66 157.54 86 164 C84.35 164 82.7 164 81 164 C79.68 156.41 78.36 148.82 77 141 C70.73 140.67 64.46 140.34 58 140 C58.66 145.28 59.32 150.56 60 156 C60 158.31 60 160.62 60 163 C58.35 163 56.7 163 55 163 C53 156 53 156 51 141 C38.13 140.67 25.26 140.34 12 140 C11.505 143.465 11.505 143.465 9 161 C7.35 161.33 5.7 161.66 4 162 C4 149 4 149 5 140 C-1.27 140 -7.54 140 -14 140 C-14.66 144.62 -15.32 149.24 -16 154 C-16.66 157.3 -17.32 160.6 -18 164 C-19.65 164.33 -21.3 164.66 -23 165 C-22 147 -22 147 -21 140 C-50.04 140 -79.08 140 -109 140 C-108.67 143.3 -108.34 146.6 -108 150 C-108 154.95 -108 159.9 -108 165 C-109.32 165 -110.64 165 -112 165 C-116 145 -116 145 -116 140 C-122.27 140 -128.54 140 -135 140 C-134.67 147.26 -134.34 154.52 -134 162 C-135.65 162 -137.3 162 -139 162 C-140.546 155.044 -141.829 148.029 -143 141 C-155.87 141 -168.74 141 -182 141 C-182.99 148.26 -183.98 155.52 -185 163 C-186.65 163.33 -188.3 163.66 -190 164 C-190.33 163.67 -190.66 163.34 -191 163 C-190 146 -190 146 -189 140 C-195.27 140 -201.54 140 -208 140 C-208.33 142.475 -208.33 142.475 -210 155 C-210.66 157.97 -211.32 160.94 -212 164 C-213.32 164 -214.64 164 -216 164 C-216 151 -216 151 -214 140 C-224.23 140 -234.46 140 -245 140 C-245 144.95 -245 149.9 -245 155 C-242.03 155 -239.06 155 -236 155 C-224 158 -224 158 -218 162 C-218 162.66 -218 163.32 -218 164 C-240.44 164 -262.88 164 -286 164 C-284 160 -284 160 -275 156 C-269 155 -269 155 -259 155 C-259 150.05 -259 145.1 -259 140 C-268.9 140 -278.8 140 -289 140 C-288.67 144.62 -288.34 149.24 -288 154 C-288 157.3 -288 160.6 -288 164 C-289.32 164 -290.64 164 -292 164 C-292.66 160.205 -292.66 160.205 -296 141 C-298.145 141.33 -298.145 141.33 -309 143 C-310.65 143 -312.3 143 -314 143 C-313.67 149.6 -313.34 156.2 -313 163 C-314.32 163.33 -315.64 163.66 -317 164 C-319 159 -319 159 -320 145 C-333.2 147.64 -346.4 150.28 -360 153 C-360.99 153 -361.98 153 -363 153 C-363 155.31 -363 157.62 -363 160 C-363.33 160.66 -363.66 161.32 -364 162 C-365.65 162 -367.3 162 -369 162 C-369 159.69 -369 157.38 -369 155 C-375.6 155.99 -382.2 156.98 -389 158 C-389.66 160.31 -390.32 162.62 -391 165 C-392.32 165 -393.64 165 -395 165 C-395 163.02 -395 161.04 -395 159 C-397.805 159.66 -397.805 159.66 -412 163 C-449 170 -449 170 -455 170 C-455 161.75 -455 153.5 -455 145 C-406 136 -406 136 -393 134 C-389 99 -389 99 -389 90 C-389.33 89.67 -389.66 89.34 -390 89 C-390 87.35 -390 85.7 -390 84 C-386.04 84.33 -382.08 84.66 -378 85 C-351.236 86.673 -324.665 86.963 -298 84 C-296.02 84 -294.04 84 -292 84 C-292 86.31 -292 88.62 -292 91 C-292.66 91 -293.32 91 -294 91 C-293.67 94.135 -293.67 94.135 -292 110 C-292 112.31 -292 114.62 -292 117 C-281.11 117 -270.22 117 -259 117 C-259 92.91 -259 68.82 -259 44 C-254.38 44 -249.76 44 -245 44 C-245 68.09 -245 92.18 -245 117 C-234.11 117 -223.22 117 -212 117 C-210 98 -210 98 -210 92 C-210.66 91.34 -211.32 90.68 -212 90 C-212 88.02 -212 86.04 -212 84 C-211.334 84.061 -210.667 84.121 -209.98 84.184 C-209.059 84.267 -208.137 84.351 -207.188 84.438 C-206.741 84.478 -206.741 84.478 -204.48 84.684 C-203.332 84.788 -202.183 84.892 -201 85 C-197.37 85.33 -193.74 85.66 -190 86 C-133 86 -133 86 -112 83 C-113 90 -113 90 -114 91 C-113.47 100.009 -112.898 109.02 -112 118 C-80.98 118 -49.96 118 -18 118 C-16.478 93.652 -16.478 93.652 -18 83 C-8.76 83.99 0.48 84.98 10 86 C60 86 60 86 80 83 C80 82.01 80 81.02 80 80 C66.735 66.735 42.648 69.555 26 69 C18 65 18 65 13 55 C9.187 42.289 7.255 29.078 5 16 C3.35 11.38 1.7 6.76 0 2 C0 1.34 0 0.68 0 0 Z " fill="#6E3A1F" transform="translate(455,873)"/>
<path d="M0 0 C0.33 0.66 0.33 0.66 2 4 C-4.424 7.854 -5.254 8 -13 8 C-13 23.51 -13 39.02 -13 55 C44.42 55 101.84 55 161 55 C161 40.15 161 25.3 161 10 C158.36 10 155.72 10 153 10 C151.02 9.01 149.04 8.02 147 7 C146.67 5.68 146.34 4.36 146 3 C155.09 -2.454 157.591 -1 170 -1 C172.97 -0.01 175.94 0.98 179 2 C179.33 3.65 179.66 5.3 180 7 C173 10 173 10 165 10 C165 52.57 165 95.14 165 139 C167.64 139.33 170.28 139.66 173 140 C186.578 145.431 192.587 149.981 201 162 C205.543 173.358 206 174.705 206 187 C202.7 186.34 199.4 185.68 196 185 C170.868 182.715 147.041 182.423 122 186 C122 172.104 124.663 164.116 133 153 C142.477 144.576 148.359 140.405 161 139 C161 129.76 161 120.52 161 111 C103.58 111 46.16 111 -13 111 C-13 116.61 -13 122.22 -13 128 C-9.37 128.66 -5.74 129.32 -2 130 C14.323 138.162 20.825 147.018 27 164 C27 167.63 27 171.26 27 175 C21.72 174.34 16.44 173.68 11 173 C-12.053 170.904 -34.188 171.741 -57 175 C-57 159.011 -54.4 152.926 -45 140 C-33.906 131.932 -30.262 129.326 -17 128 C-17.33 122.39 -17.66 116.78 -18 111 C-78.39 110.67 -138.78 110.34 -201 110 C-201 119.9 -201 129.8 -201 140 C-198.36 140 -195.72 140 -193 140 C-180.315 145.074 -174.553 150.309 -166 161 C-161 174 -161 174 -161 186 C-167.27 185.34 -173.54 184.68 -180 184 C-236 184 -236 184 -245 187 C-245 172.676 -241.677 165.064 -234 153 C-218.111 140 -218.111 140 -205 140 C-205 97.43 -205 54.86 -205 11 C-206.98 10.67 -206.98 10.67 -217 9 C-217.99 8.01 -218.98 7.02 -220 6 C-220 5.01 -220 4.02 -220 3 C-214 0 -214 0 -194 0 C-191.69 0.99 -189.38 1.98 -187 3 C-186.835 3.66 -186.835 3.66 -186 7 C-193 10 -193 10 -201 10 C-201 24.85 -201 39.7 -201 55 C-140.61 55 -80.22 55 -18 55 C-18 39.49 -18 23.98 -18 8 C-20.31 8 -22.62 8 -25 8 C-27.31 7.01 -29.62 6.02 -32 5 C-31.67 3.35 -31.34 1.7 -31 0 C-20.048 -4.694 -11.083 -3.694 0 0 Z " fill="#E5D1BF" transform="translate(410,307)"/>
<path d="M0 0 C13.53 0 27.06 0 41 0 C41 62.04 41 124.08 41 188 C-212.44 188 -465.88 188 -727 188 C-727 182.39 -727 176.78 -727 171 C-674 161 -674 161 -667 160 C-667 161.98 -667 163.96 -667 166 C-665.68 165.67 -664.36 165.34 -663 165 C-662.34 162.69 -661.68 160.38 -661 158 C-648 156 -648 156 -641 156 C-641 158.31 -641 160.62 -641 163 C-639.35 163 -637.7 163 -636 163 C-635.67 160.03 -635.34 157.06 -635 154 C-634.346 153.864 -633.693 153.728 -633.019 153.589 C-621.005 151.093 -608.992 148.597 -597 146 C-595.35 146 -593.7 146 -592 146 C-591.01 151.94 -590.02 157.88 -589 164 C-588.01 164 -587.02 164 -586 164 C-586 157.4 -586 150.8 -586 144 C-580.06 143.01 -574.12 142.02 -568 141 C-566 148 -566 148 -564 165 C-562.68 165 -561.36 165 -560 165 C-560.33 161.7 -560.66 158.4 -561 155 C-561 150.38 -561 145.76 -561 141 C-551.1 141 -541.2 141 -531 141 C-531 145.95 -531 150.9 -531 156 C-536.28 156.66 -541.56 157.32 -547 158 C-557 163 -557 163 -558 165 C-535.56 165 -513.12 165 -490 165 C-497.632 157.368 -506.52 157.497 -517 156 C-517 151.05 -517 146.1 -517 141 C-506.77 141 -496.54 141 -486 141 C-486.33 144.96 -486.33 144.96 -488 165 C-486.68 165 -485.36 165 -484 165 C-483.34 159.72 -482.68 154.44 -482 149 C-481.67 147.68 -481.67 147.68 -480 141 C-473.73 141 -467.46 141 -461 141 C-461.33 148.59 -461.66 156.18 -462 164 C-460.68 164 -459.36 164 -458 164 C-457.505 160.37 -457.505 160.37 -455 142 C-454.67 141.67 -454.34 141.34 -454 141 C-441.13 141 -428.26 141 -415 141 C-413 147 -413 147 -411 163 C-409.35 163 -407.7 163 -406 163 C-406.33 160.69 -406.66 158.38 -407 156 C-407 151.05 -407 146.1 -407 141 C-400.73 141 -394.46 141 -388 141 C-384 164 -384 164 -384 166 C-382.68 166 -381.36 166 -380 166 C-380.33 157.75 -380.66 149.5 -381 141 C-351.96 141 -322.92 141 -293 141 C-294 159 -294 159 -295 166 C-293.68 165.67 -292.36 165.34 -291 165 C-289.68 158.07 -288.36 151.14 -287 144 C-286.67 143.01 -286.34 142.02 -286 141 C-279.73 141 -273.46 141 -267 141 C-267.33 148.26 -267.66 155.52 -268 163 C-266.68 162.67 -265.36 162.34 -264 162 C-263.505 158.865 -263.505 158.865 -261 143 C-260.67 142.34 -260.34 141.68 -260 141 C-247.13 141 -234.26 141 -221 141 C-219 148 -219 148 -217 163 C-215.35 163.33 -213.7 163.66 -212 164 C-212.66 158.72 -213.32 153.44 -214 148 C-214 145.69 -214 143.38 -214 141 C-207.73 141 -201.46 141 -195 141 C-192.334 148.999 -191 156.57 -191 165 C-189.35 165 -187.7 165 -186 165 C-186.33 163.35 -186.66 161.7 -187 160 C-187.33 153.73 -187.66 147.46 -188 141 C-178.1 141 -168.2 141 -158 141 C-158 145.95 -158 150.9 -158 156 C-162.95 156.66 -167.9 157.32 -173 158 C-182 162 -182 162 -185 165 C-162.23 165 -139.46 165 -116 165 C-123.888 157.112 -133.149 157.447 -144 156 C-144 151.05 -144 146.1 -144 141 C-133.77 141 -123.54 141 -113 141 C-113 149.007 -113.43 157.013 -114 165 C-112.68 165 -111.36 165 -110 165 C-109.34 159.72 -108.68 154.44 -108 149 C-107.34 146.36 -106.68 143.72 -106 141 C-99.73 141 -93.46 141 -87 141 C-87.33 148.92 -87.66 156.84 -88 165 C-87.34 164.835 -87.34 164.835 -84 164 C-83.505 160.535 -83.505 160.535 -81 143 C-80.67 142.34 -80.34 141.68 -80 141 C-67.13 141 -54.26 141 -41 141 C-39.68 147.93 -38.36 154.86 -37 162 C-35.68 162.33 -34.36 162.66 -33 163 C-33.33 155.74 -33.66 148.48 -34 141 C-27.73 141 -21.46 141 -15 141 C-12.755 148.857 -11.42 156.953 -10 165 C-8.68 165.33 -7.36 165.66 -6 166 C-6.66 161.05 -7.32 156.1 -8 151 C-8 147.7 -8 144.4 -8 141 C7.84 141 23.68 141 40 141 C40 94.8 40 48.6 40 1 C26.8 1 13.6 1 0 1 C0 0.67 0 0.34 0 0 Z " fill="#DAA475" transform="translate(727,872)"/>
<path d="M0 0 C6 5 6 5 8 9 C8 10.32 8 11.64 8 13 C32.75 13 57.5 13 83 13 C82.67 20.59 82.34 28.18 82 36 C83.188 56.198 86.969 74.7 93 94 C95.913 107.11 94.674 117.605 93 131 C61.98 131 30.96 131 -1 131 C-5.021 105.532 -5.021 105.532 -2 101 C-1.67 99.35 -1.34 97.7 -1 96 C-5.62 96.99 -10.24 97.98 -15 99 C-76.385 101.923 -76.385 101.923 -101 97 C-99 104 -99 104 -98 105 C-99 120 -99 120 -101 130 C-111.89 130 -122.78 130 -134 130 C-134 105.91 -134 81.82 -134 57 C-118.49 56.01 -102.98 55.02 -87 54 C-82.834 53.361 -78.668 52.721 -74.375 52.062 C-73.072 51.863 -71.769 51.663 -70.427 51.457 C-69.386 51.297 -68.346 51.137 -67.273 50.973 C-66.216 50.81 -65.158 50.648 -64.068 50.481 C-61.042 50.007 -58.02 49.509 -55 49 C-55 45.37 -55 41.74 -55 38 C-98.848 29.778 -139.605 32 -185 32 C-185 25.73 -185 19.46 -185 13 C-157.445 12.835 -157.445 12.835 -18 12 C-16.68 10.02 -15.36 8.04 -14 6 C-6.8 0 -6.8 0 0 0 Z " fill="#AB6537" transform="translate(344,860)"/>
<path d="M0 0 C4.62 0 9.24 0 14 0 C14 24.09 14 48.18 14 73 C24.89 73 35.78 73 47 73 C49 54 49 54 49 48 C48.34 47.34 47.68 46.68 47 46 C47 44.02 47 42.04 47 40 C47.666 40.061 48.333 40.121 49.02 40.184 C49.941 40.267 50.863 40.351 51.812 40.438 C52.706 40.519 53.599 40.6 54.52 40.684 C55.668 40.788 56.817 40.892 58 41 C61.63 41.33 65.26 41.66 69 42 C126 42 126 42 147 39 C146 46 146 46 145 47 C145.53 56.009 146.102 65.02 147 74 C178.02 74 209.04 74 241 74 C240.34 82.25 239.68 90.5 239 99 C238.67 98.01 238.34 97.02 238 96 C208.96 96 179.92 96 150 96 C150.33 99.3 150.66 102.6 151 106 C151 110.95 151 115.9 151 121 C149.68 121 148.36 121 147 121 C143 101 143 101 143 96 C136.73 96 130.46 96 124 96 C124.33 103.26 124.66 110.52 125 118 C123.35 118 121.7 118 120 118 C118.454 111.044 117.171 104.029 116 97 C103.13 97 90.26 97 77 97 C76.505 100.63 76.505 100.63 74 119 C72.35 119.33 70.7 119.66 69 120 C68.67 119.67 68.34 119.34 68 119 C69 102 69 102 70 96 C63.73 96 57.46 96 51 96 C50.34 100.95 49.68 105.9 49 111 C48.34 113.97 47.68 116.94 47 120 C45.68 120 44.36 120 43 120 C43 107 43 107 45 96 C34.77 96 24.54 96 14 96 C14 100.95 14 105.9 14 111 C16.97 111 19.94 111 23 111 C35 114 35 114 41 118 C41 118.66 41 119.32 41 120 C18.56 120 -3.88 120 -27 120 C-25 116 -25 116 -16 112 C-10 111 -10 111 0 111 C0 106.05 0 101.1 0 96 C-9.9 96 -19.8 96 -30 96 C-29.67 100.62 -29.34 105.24 -29 110 C-29 113.3 -29 116.6 -29 120 C-30.32 120 -31.64 120 -33 120 C-33.66 116.205 -33.66 116.205 -37 97 C-39.145 97.33 -39.145 97.33 -50 99 C-51.65 99 -53.3 99 -55 99 C-54.67 105.6 -54.34 112.2 -54 119 C-55.32 119.33 -56.64 119.66 -58 120 C-60 115 -60 115 -61 101 C-74.2 103.64 -87.4 106.28 -101 109 C-101.99 109 -102.98 109 -104 109 C-104 111.31 -104 113.62 -104 116 C-104.33 116.66 -104.66 117.32 -105 118 C-106.65 118 -108.3 118 -110 118 C-110 115.69 -110 113.38 -110 111 C-116.6 111.99 -123.2 112.98 -130 114 C-130.66 116.31 -131.32 118.62 -132 121 C-133.32 121 -134.64 121 -136 121 C-136 119.02 -136 117.04 -136 115 C-141.61 116.32 -147.22 117.64 -153 119 C-190 126 -190 126 -196 126 C-196 117.75 -196 109.5 -196 101 C-147 92 -147 92 -134 90 C-130 55 -130 55 -130 46 C-130.33 45.67 -130.66 45.34 -131 45 C-131 43.35 -131 41.7 -131 40 C-127.04 40.33 -123.08 40.66 -119 41 C-92.236 42.673 -65.665 42.963 -39 40 C-37.02 40 -35.04 40 -33 40 C-33 42.31 -33 44.62 -33 47 C-33.66 47 -34.32 47 -35 47 C-34.67 50.135 -34.67 50.135 -33 66 C-33 68.31 -33 70.62 -33 73 C-22.11 73 -11.22 73 0 73 C0 48.91 0 24.82 0 0 Z " fill="#753F24" transform="translate(196,917)"/>
<path d="M0 0 C12.15 1.35 24.066 4.348 36 7 C38.006 7.387 40.012 7.773 42.078 8.172 C44.101 8.562 46.123 8.953 48.146 9.344 C49.513 9.608 50.88 9.871 52.247 10.135 C63.842 12.37 75.42 14.684 87 17 C87 78.38 87 139.76 87 203 C57.998 203 28.991 202.805 0 202 C0 135.34 0 68.68 0 0 Z " fill="#E77A39" transform="translate(39,516)"/>
<path d="M0 0 C2.31 0.99 4.62 1.98 7 3 C7.165 3.66 7.165 3.66 8 7 C1 10 1 10 -7 10 C-7 24.85 -7 39.7 -7 55 C53.39 55 113.78 55 176 55 C176 39.49 176 23.98 176 8 C176.33 8 176.66 8 177 8 C177 41.99 177 75.98 177 111 C116.28 110.67 55.56 110.34 -7 110 C-7 119.9 -7 129.8 -7 140 C-4.36 140 -1.72 140 1 140 C13.685 145.074 19.447 150.309 28 161 C33 174 33 174 33 186 C26.73 185.34 20.46 184.68 14 184 C-42 184 -42 184 -51 187 C-51 172.676 -47.677 165.064 -40 153 C-24.111 140 -24.111 140 -11 140 C-11 97.43 -11 54.86 -11 11 C-12.98 10.67 -12.98 10.67 -23 9 C-23.99 8.01 -24.98 7.02 -26 6 C-26 5.01 -26 4.02 -26 3 C-20 0 -20 0 0 0 Z " fill="#E5D2C0" transform="translate(216,307)"/>
<path d="M0 0 C0.66 0 1.32 0 2 0 C11.728 17.024 15 23.723 15 43 C10 53 10 53 5 58 C4.34 58 3.68 58 3 58 C2.67 66.58 2.34 75.16 2 84 C2.66 84 3.32 84 4 84 C4.061 83.383 4.121 82.765 4.184 82.129 C5.857 65.214 5.857 65.214 12 56 C20.038 49.971 26.019 46.426 36 45 C34.833 59.009 31.858 67.693 21 77 C17 79 17 79 7 79 C6.67 80.32 6.34 81.64 6 83 C10.95 83.33 15.9 83.66 21 84 C20.67 86.97 20.34 89.94 20 93 C19.67 93.165 19.67 93.165 18 94 C16.68 99.94 15.36 105.88 14 112 C22.25 112 30.5 112 39 112 C80.44 116.44 80.44 116.44 84 120 C84 122.97 84 125.94 84 129 C41.729 154.363 -36.266 140.128 -83 132 C-84.65 131.01 -86.3 130.02 -88 129 C-88 125.7 -88 122.4 -88 119 C-64.475 111.158 -39.548 112 -15 112 C-15.99 107.38 -16.98 102.76 -18 98 C-18 96.68 -18 95.36 -18 94 C-52.65 94 -87.3 94 -123 94 C-121.02 99.28 -119.04 104.56 -117 110 C-115.02 120.89 -113.04 131.78 -111 143 C-106 156 -106 156 -102 160 C-91.128 164.349 -78.703 162.61 -67 163 C-51 167 -51 167 -44 171 C-43.01 172.98 -42.02 174.96 -41 177 C-72.612 184.903 -109.576 185.978 -141 177 C-150.263 149.21 -159.751 115.67 -149 87 C-147 85 -145 83 -143 81 C-136 81 -136 81 -130 85 C-129.01 86.155 -129.01 86.155 -124 92 C-90.01 92 -56.02 92 -21 92 C-21 89.36 -21 86.72 -21 84 C-15.39 84 -9.78 84 -4 84 C-4.99 80.37 -5.98 76.74 -7 73 C-7 72.01 -7 71.02 -7 70 C-9.64 70 -12.28 70 -15 70 C-25.251 63.166 -29.025 58.194 -34 47 C-34.33 45.02 -34.33 45.02 -36 35 C-24.078 37.649 -15.991 41.677 -8 51 C-5 58 -5 58 -5 70 C-4.01 73.63 -3.02 77.26 -2 81 C-2 81.99 -2 82.98 -2 84 C-1.01 84 -0.02 84 1 84 C1 75.42 1 66.84 1 58 C-0.32 57.34 -1.64 56.68 -3 56 C-11.035 46.359 -11 39.499 -11 27 C-7 14 -7 14 0 0 Z " fill="#E97A36" transform="translate(578,779)"/>
<path d="M0 0 C1.32 0.33 2.64 0.66 4 1 C3.01 1 2.02 1 1 1 C1 15.52 1 30.04 1 45 C64.03 45 127.06 45 192 45 C192 63.15 192 81.3 192 100 C128.64 100.33 65.28 100.66 0 101 C0 67.67 0 34.34 0 0 Z " fill="#E5D1BF" transform="translate(575,317)"/>
<path d="M0 0 C15.798 3.16 29.517 12.944 44 20 C47.939 21.815 51.879 23.63 55.938 25.5 C66.85 30.549 77.693 35.73 88.5 41 C99.913 46.565 111.372 52.003 122.903 57.319 C157.107 73.107 157.107 73.107 159 75 C159 93.15 159 111.3 159 130 C135.202 122.067 112.242 111.132 89.202 101.234 C81.344 97.859 73.483 94.491 65.622 91.124 C61.275 89.261 56.929 87.398 52.582 85.535 C50.835 84.787 49.089 84.038 47.342 83.29 C31.562 76.526 15.781 69.763 0 63 C0 42.21 0 21.42 0 0 Z " fill="#CB5D28" transform="translate(0,287)"/>
<path d="M0 0 C57.42 0 114.84 0 174 0 C174 9.24 174 18.48 174 28 C172.185 28.495 172.185 28.495 163 31 C148.373 38.978 144.555 43.891 137 59 C136.34 62.3 135.68 65.6 135 69 C102.66 69 70.32 69 37 69 C37.99 67.68 38.98 66.36 40 65 C37.954 48.634 34.864 39.416 24 27 C14 21 14 21 0 17 C0 11.39 0 5.78 0 0 Z " fill="#F9F5ED" transform="translate(397,418)"/>
<path d="M0 0 C3.96 0.33 7.92 0.66 12 1 C38.764 2.673 65.335 2.963 92 0 C93.98 0 95.96 0 98 0 C98 2.31 98 4.62 98 7 C97.34 7 96.68 7 96 7 C96.33 10.135 96.33 10.135 98 26 C98 28.31 98 30.62 98 33 C108.89 33 119.78 33 131 33 C131 40.59 131 48.18 131 56 C121.1 56 111.2 56 101 56 C101.33 60.62 101.66 65.24 102 70 C102 73.3 102 76.6 102 80 C100.68 80 99.36 80 98 80 C97.34 76.205 97.34 76.205 94 57 C89.71 57.66 85.42 58.32 81 59 C79.35 59 77.7 59 76 59 C76.33 65.6 76.66 72.2 77 79 C75.68 79.33 74.36 79.66 73 80 C71 75 71 75 70 61 C56.8 63.64 43.6 66.28 30 69 C29.01 69 28.02 69 27 69 C27 71.31 27 73.62 27 76 C26.67 76.66 26.34 77.32 26 78 C24.35 78 22.7 78 21 78 C21 75.69 21 73.38 21 71 C14.4 71.99 7.8 72.98 1 74 C0.34 76.31 -0.32 78.62 -1 81 C-2.32 81 -3.64 81 -5 81 C-5 79.02 -5 77.04 -5 75 C-10.61 76.32 -16.22 77.64 -22 79 C-59 86 -59 86 -65 86 C-65 77.75 -65 69.5 -65 61 C-16 52 -16 52 -3 50 C1 15 1 15 1 6 C0.835 5.835 0.835 5.835 0 5 C0 3.35 0 1.7 0 0 Z " fill="#6A371F" transform="translate(65,957)"/>
<path d="M0 0 C54.78 0 109.56 0 166 0 C165.01 2.97 164.02 5.94 163 9 C159 25 159 25 157 40 C152 58 152 58 147 66 C139 69 139 69 110 70 C100.785 71.024 94.319 72.145 87 78 C85 84 85 84 85 90 C85.66 90.66 86.32 91.32 87 92 C86 107 86 107 84 117 C73.11 117 62.22 117 51 117 C51 92.91 51 68.82 51 44 C66.51 43.01 82.02 42.02 98 41 C102.166 40.361 106.332 39.721 110.625 39.062 C111.928 38.863 113.231 38.663 114.573 38.457 C115.614 38.297 116.654 38.137 117.727 37.973 C118.784 37.81 119.842 37.648 120.932 37.481 C123.958 37.007 126.98 36.509 130 36 C130 32.37 130 28.74 130 25 C86.152 16.778 45.395 19 0 19 C0 12.73 0 6.46 0 0 Z " fill="#AC6637" transform="translate(159,873)"/>
<path d="M0 0 C0.33 0 0.66 0 1 0 C1 24.09 1 48.18 1 73 C11.89 73 22.78 73 34 73 C34.594 64.681 35 56.34 35 48 C34.67 47.67 34.34 47.34 34 47 C34 44.69 34 42.38 34 40 C41.011 40.539 48.023 41.128 55 42 C105 42 105 42 129 39 C130.32 39 131.64 39 133 39 C133 45 133 45 132 47 C133 65 133 65 134 73 C142.25 73.165 142.25 73.165 184 74 C184 81.26 184 88.52 184 96 C168.16 96 152.32 96 136 96 C136.33 98.97 136.33 98.97 138 114 C138 116.31 138 118.62 138 121 C136.35 120.67 134.7 120.34 133 120 C132.34 116.205 132.34 116.205 129 97 C122.73 96.67 116.46 96.34 110 96 C110.33 97.98 110.66 99.96 111 102 C111 107.28 111 112.56 111 118 C109.35 117.67 107.7 117.34 106 117 C105.01 110.07 104.02 103.14 103 96 C90.13 96 77.26 96 64 96 C63.01 103.59 62.02 111.18 61 119 C60.175 119.165 60.175 119.165 56 120 C56 105 56 105 57 96 C50.73 96 44.46 96 38 96 C37.67 98.64 37.34 101.28 37 104 C36.01 109.28 35.02 114.56 34 120 C32.68 120 31.36 120 30 120 C30 106 30 106 31 96 C20.77 96 10.54 96 0 96 C0 64.32 0 32.64 0 0 Z " fill="#6D3A20" transform="translate(583,917)"/>
<path d="M0 0 C6.27 0 12.54 0 19 0 C18.67 7.26 18.34 14.52 18 22 C19.32 21.67 20.64 21.34 22 21 C22.99 14.73 23.98 8.46 25 2 C25.33 1.34 25.66 0.68 26 0 C38.87 0 51.74 0 65 0 C67 7 67 7 69 22 C70.65 22.33 72.3 22.66 74 23 C73.67 20.36 73.67 20.36 72 7 C72 4.69 72 2.38 72 0 C78.27 0 84.54 0 91 0 C93.666 7.999 95 15.57 95 24 C96.65 24 98.3 24 100 24 C99.67 22.35 99.34 20.7 99 19 C98.67 12.73 98.34 6.46 98 0 C107.9 0 117.8 0 128 0 C128 4.95 128 9.9 128 15 C123.05 15.66 118.1 16.32 113 17 C104 21 104 21 101 24 C123.77 24 146.54 24 170 24 C162.112 16.112 152.851 16.447 142 15 C142 10.05 142 5.1 142 0 C152.23 0 162.46 0 173 0 C173 8.007 172.57 16.013 172 24 C173.32 24 174.64 24 176 24 C176.66 18.72 177.32 13.44 178 8 C178.66 5.36 179.32 2.72 180 0 C186.27 0 192.54 0 199 0 C198.67 7.92 198.34 15.84 198 24 C198.66 23.835 198.66 23.835 202 23 C202.99 16.07 203.98 9.14 205 2 C205.33 1.34 205.66 0.68 206 0 C218.87 0 231.74 0 245 0 C245.66 3.465 245.66 3.465 249 21 C250.32 21.33 251.64 21.66 253 22 C252.67 14.74 252.34 7.48 252 0 C258.27 0 264.54 0 271 0 C273.245 7.857 274.58 15.953 276 24 C276.99 24.66 277.98 25.32 279 26 C185.465 38.542 84.529 44.506 -8 26 C-7.01 25.34 -6.02 24.68 -5 24 C-3.68 17.07 -2.36 10.14 -1 3 C-0.67 2.01 -0.34 1.02 0 0 Z " fill="#C98C5C" transform="translate(441,1013)"/>
<path d="M0 0 C34.65 0 69.3 0 105 0 C103.35 4.62 101.7 9.24 100 14 C97.002 26.592 94.25 39.253 92 52 C86.286 64.857 86.286 64.857 78 69 C68.1 69.33 58.2 69.66 48 70 C29.526 72.842 29.526 72.842 23 81 C22.67 81.66 22.34 82.32 22 83 C22.33 83.165 22.33 83.165 24 84 C23.34 84 22.68 84 22 84 C23 91 23 91 24 92 C24 103 24 103 22 117 C11.11 117 0.22 117 -11 117 C-11 92.91 -11 68.82 -11 44 C5.17 43.01 21.34 42.02 38 41 C57 38 57 38 66 35 C66 32.03 66 29.06 66 26 C44.118 18.706 19.849 18.914 -3 18 C-2 8 -2 8 0 0 Z " fill="#AB6537" transform="translate(595,873)"/>
<path d="M0 0 C34.65 0 69.3 0 105 0 C108 13 108 13 108 18 C101.4 18.33 101.4 18.33 68 20 C49 22 49 22 35 25 C35.165 26.65 35.165 26.65 36 35 C61.05 43.35 87.864 42.812 114 44 C114 68.09 114 92.18 114 117 C103.44 117 92.88 117 82 117 C80 106 80 106 79 92 C79.66 91.34 80.32 90.68 81 90 C81.33 88.02 81.66 86.04 82 84 C81.34 83.67 80.68 83.34 80 83 C80 82.01 80 81.02 80 80 C66.735 66.735 42.648 69.555 26 69 C18 65 18 65 13 55 C9.187 42.289 7.255 29.078 5 16 C3.35 11.38 1.7 6.76 0 2 C0 1.34 0 0.68 0 0 Z " fill="#AC6637" transform="translate(455,873)"/>
<path d="M0 0 C26.325 0 54.1 9.264 79.768 15.049 C101.46 19.933 101.46 19.933 110 21 C110 87.66 110 154.32 110 223 C73.37 223 36.74 223 -1 223 C-1 1 -1 1 0 0 Z M14 11 C14 77.66 14 144.32 14 213 C42.991 213.805 71.998 214 101 214 C101 152.62 101 91.24 101 28 C95.885 27.01 95.885 27.01 70 22 C52.644 18.44 35.321 14.729 18 11 C16.68 11 15.36 11 14 11 Z " fill="#7E482A" transform="translate(25,505)"/>
<path d="M0 0 C3 19 3 19 3 23 C4.32 23 5.64 23 7 23 C6.67 19.7 6.34 16.4 6 13 C6 8.38 6 3.76 6 -1 C15.9 -1 25.8 -1 36 -1 C36 3.95 36 8.9 36 14 C30.72 14.66 25.44 15.32 20 16 C10 21 10 21 9 23 C31.44 23 53.88 23 77 23 C69.368 15.368 60.48 15.497 50 14 C50 9.05 50 4.1 50 -1 C60.23 -1 70.46 -1 81 -1 C80.34 6.92 79.68 14.84 79 23 C80.32 23 81.64 23 83 23 C83.66 17.72 84.32 12.44 85 7 C85.66 4.36 86.32 1.72 87 -1 C93.27 -1 99.54 -1 106 -1 C105.67 6.59 105.34 14.18 105 22 C106.32 22 107.64 22 109 22 C109.99 14.74 110.98 7.48 112 0 C112.33 -0.33 112.66 -0.66 113 -1 C125.87 -1 138.74 -1 152 -1 C154 5 154 5 156 21 C157.65 21 159.3 21 161 21 C160.67 18.69 160.34 16.38 160 14 C160 9.05 160 4.1 160 -1 C166.27 -1 172.54 -1 179 -1 C183 22 183 22 183 24 C183.99 24.33 184.98 24.66 186 25 C115.734 33.783 -42.121 52.439 -99 24 C-98.01 23.67 -97.02 23.34 -96 23 C-95.67 21.845 -95.67 21.845 -94 16 C-81 14 -81 14 -74 14 C-74 16.31 -74 18.62 -74 21 C-72.35 21 -70.7 21 -69 21 C-68.67 18.03 -68.34 15.06 -68 12 C-67.346 11.864 -66.693 11.728 -66.019 11.589 C-54.005 9.093 -41.992 6.597 -30 4 C-28.35 4 -26.7 4 -25 4 C-24.01 9.94 -23.02 15.88 -22 22 C-21.01 22 -20.02 22 -19 22 C-19 15.4 -19 8.8 -19 2 C-3 -1 -3 -1 0 0 Z " fill="#C78B5B" transform="translate(160,1014)"/>
<path d="M0 0 C0 3.63 0 7.26 0 11 C-53.144 25.494 -113.371 23.055 -167 13 C-168.65 12.01 -170.3 11.02 -172 10 C-172 6.7 -172 3.4 -172 0 C-123.935 -14.419 -45.101 -22.55 0 0 Z " fill="#F8F4EC" transform="translate(289,898)"/>
<path d="M0 0 C2.31 0.99 4.62 1.98 7 3 C7.165 3.66 7.165 3.66 8 7 C1 10 1 10 -7 10 C-7 52.9 -7 95.8 -7 140 C-4.36 140 -1.72 140 1 140 C13.685 145.074 19.447 150.309 28 161 C33 174 33 174 33 186 C26.73 185.34 20.46 184.68 14 184 C-42 184 -42 184 -51 187 C-51 172.676 -47.677 165.064 -40 153 C-24.111 140 -24.111 140 -11 140 C-11 97.43 -11 54.86 -11 11 C-12.98 10.67 -12.98 10.67 -23 9 C-23.99 8.01 -24.98 7.02 -26 6 C-26 5.01 -26 4.02 -26 3 C-20 0 -20 0 0 0 Z " fill="#DD6D35" transform="translate(216,307)"/>
<path d="M0 0 C0.165 0.825 0.165 0.825 1 5 C-6 8 -6 8 -14 8 C-14 50.57 -14 93.14 -14 137 C-11.36 137.33 -8.72 137.66 -6 138 C7.578 143.431 13.587 147.981 22 160 C26.543 171.358 27 172.705 27 185 C23.7 184.34 20.4 183.68 17 183 C-8.132 180.715 -31.959 180.423 -57 184 C-57 170.104 -54.337 162.116 -46 151 C-35.857 141.984 -30.675 138 -17 138 C-17 95.1 -17 52.2 -17 8 C-19.97 8 -22.94 8 -26 8 C-27.98 7.01 -29.96 6.02 -32 5 C-32.33 3.68 -32.66 2.36 -33 1 C-22.33 -5.402 -11.596 -3.865 0 0 Z " fill="#DF692E" transform="translate(589,309)"/>
<path d="M0 0 C0.165 1.485 0.165 1.485 1 9 C9.25 9 17.5 9 26 9 C26.33 6.03 26.66 3.06 27 0 C50.618 0 72.815 1.363 96 6 C98 8 98 8 98 17 C55.729 42.363 -22.266 28.128 -69 20 C-70.65 19.01 -72.3 18.02 -74 17 C-74 13.7 -74 10.4 -74 7 C-50.162 -0.946 -24.865 0 0 0 Z " fill="#F8F3EB" transform="translate(564,891)"/>
<path d="M0 0 C0.66 1.32 1.32 2.64 2 4 C-4.854 8.112 -5.495 8 -14 8 C-14 47.6 -14 87.2 -14 128 C-11.03 128.33 -8.06 128.66 -5 129 C8.987 134.828 15.215 140.025 23 153 C27 164 27 164 27 175 C21.72 174.34 16.44 173.68 11 173 C-12.053 170.904 -34.188 171.741 -57 175 C-57 159.011 -54.4 152.926 -45 140 C-33.906 131.932 -30.262 129.326 -17 128 C-17 88.4 -17 48.8 -17 8 C-19.64 8 -22.28 8 -25 8 C-27.31 7.01 -29.62 6.02 -32 5 C-31.67 3.35 -31.34 1.7 -31 0 C-20.048 -4.694 -11.083 -3.694 0 0 Z " fill="#E26B2E" transform="translate(410,307)"/>
<path d="M0 0 C5.182 5.182 3 19.33 3 25 C-4.302 79.764 -4.302 79.764 -24 97 C-45.733 107.867 -72.563 100.93 -96 98 C-97.65 97.34 -99.3 96.68 -101 96 C-99 91 -99 91 -93 86 C-76.565 80.522 -63.3 81.61 -45 81 C-43.02 80.01 -41.04 79.02 -39 78 C-38.34 78 -37.68 78 -37 78 C-31.396 63.99 -30.052 54.483 -27 38 C-19.448 10.812 -19.448 10.812 -8 1 C-6 0 -6 0 0 0 Z " fill="#EB7C37" transform="translate(718,860)"/>
<path d="M0 0 C9 9 9 9 13 16 C18.28 16.33 23.56 16.66 29 17 C37 19 37 19 46 25 C49.654 26.044 53.313 27.078 57 28 C57 28.66 57 29.32 57 30 C4.86 30 -47.28 30 -101 30 C-101 29.34 -101 28.68 -101 28 C-100.34 28 -99.68 28 -99 28 C-98.34 26.68 -97.68 25.36 -97 24 C-85.244 13.714 -78.144 12 -63 12 C-62.34 10.35 -61.68 8.7 -61 7 C-42.449 -11.551 -23.021 -13.813 0 0 Z " fill="#C5E6F8" transform="translate(421,570)"/>
<path d="M0 0 C8.263 8.263 2 23.314 2 35 C-7.021 81.907 -7.021 81.907 -24 97 C-45.187 107.593 -77.208 102.698 -100 97 C-99 91 -99 91 -91 85 C-76.013 80.718 -61.959 81.55 -46 81 C-38 78 -38 78 -33 69 C-29 53 -29 53 -26 33 C-18.927 10.366 -18.927 10.366 -8 1 C-6 0 -6 0 0 0 Z " fill="#EA7B36" transform="translate(344,860)"/>
<path d="M0 0 C4.95 0 9.9 0 15 0 C15 71.94 15 143.88 15 218 C10.05 218 5.1 218 0 218 C0 146.06 0 74.12 0 0 Z " fill="#E4D1C0" transform="translate(277,627)"/>
<path d="M0 0 C9 6 9 6 14 12 C14 12.66 14 13.32 14 14 C15.32 13.505 15.32 13.505 22 11 C32 11 32 11 38 14 C43 20 43 20 43 24 C45.31 24 47.62 24 50 24 C60 28 60 28 63 31 C63 31.66 63 32.32 63 33 C10.86 33 -41.28 33 -95 33 C-87.836 24.404 -81.551 21.837 -71 18 C-63.74 18 -56.48 18 -49 18 C-48.34 16.35 -47.68 14.7 -47 13 C-33.643 -2.265 -20.039 -7.515 0 0 Z " fill="#C6E6F8" transform="translate(587,527)"/>
<path d="M0 0 C7.755 0.165 7.755 0.165 47 1 C47 19.48 47 37.96 47 57 C32.15 57 17.3 57 2 57 C2 206.82 2 356.64 2 511 C56.78 511 111.56 511 168 511 C168 511.33 168 511.66 168 512 C112.89 512 57.78 512 1 512 C0.67 343.04 0.34 174.08 0 0 Z " fill="#E7D2BF" transform="translate(158,361)"/>
<path d="M0 0 C6 0 6 0 10 3 C10 5.31 10 7.62 10 10 C10.33 7.36 10.66 4.72 11 2 C12.65 2.33 14.3 2.66 16 3 C16 7.29 16 11.58 16 16 C16.66 16 17.32 16 18 16 C18 11.71 18 7.42 18 3 C18.825 3.165 18.825 3.165 23 4 C25.31 4 27.62 4 30 4 C30.825 4.825 30.825 4.825 35 9 C35.99 8.01 36.98 7.02 38 6 C40.31 6.33 42.62 6.66 45 7 C45.165 7.825 45.165 7.825 46 12 C43.69 12 41.38 12 39 12 C39 13.98 39 15.96 39 18 C39.66 18.33 40.32 18.66 41 19 C40.67 17.35 40.34 15.7 40 14 C40.33 13.67 40.66 13.34 41 13 C42.98 13 44.96 13 47 13 C47 11.35 47 9.7 47 8 C49.97 8 52.94 8 56 8 C56.165 8.165 56.165 8.165 57 9 C59.64 9.33 62.28 9.66 65 10 C65.33 10.33 65.33 10.33 67 12 C66.67 14.97 66.34 17.94 66 21 C66.165 21.825 66.165 21.825 67 26 C65.68 26 64.36 26 63 26 C62.835 25.67 62.835 25.67 62 24 C61.67 24.66 61.34 25.32 61 26 C60.01 26.66 59.02 27.32 58 28 C60.64 29.32 63.28 30.64 66 32 C66.165 32.825 66.165 32.825 67 37 C63 38 63 38 58 37 C57.67 37.33 57.34 37.66 57 38 C57 40.64 57 43.28 57 46 C58.32 46.33 59.64 46.66 61 47 C61 46.34 61 45.68 61 45 C60.01 45 59.02 45 58 45 C58 43.35 58 41.7 58 40 C62 39 62 39 67 41 C67 50 67 50 64 54 C55 54 55 54 51 51 C49.515 51.165 49.515 51.165 42 52 C41.175 50.68 41.175 50.68 37 44 C36.34 46.31 35.68 48.62 35 51 C33.35 51 31.7 51 30 51 C24.324 45.324 28.349 35.02 28 27 C27.67 33.93 27.34 40.86 27 48 C26.67 48.66 26.34 49.32 26 50 C24.35 50 22.7 50 21 50 C19 48 19 48 18 38 C17.67 41.3 17.34 44.6 17 48 C16.175 48.165 16.175 48.165 12 49 C10.68 46.69 9.36 44.38 8 42 C7.67 42.825 7.67 42.825 6 47 C4.35 47 2.7 47 1 47 C0.67 46.67 0.34 46.34 0 46 C0 38.08 0 30.16 0 22 C2.31 21.34 4.62 20.68 7 20 C7.66 19.67 8.32 19.34 9 19 C6.36 18.67 3.72 18.34 1 18 C0.67 17.67 0.34 17.34 0 17 C0 11.39 0 5.78 0 0 Z " fill="#EA8649" transform="translate(49,535)"/>
<path d="M0 0 C54.78 0 109.56 0 166 0 C165.01 2.97 164.02 5.94 163 9 C162.34 11.31 161.68 13.62 161 16 C107.87 16 54.74 16 0 16 C0 10.72 0 5.44 0 0 Z " fill="#733D22" transform="translate(159,873)"/>
<path d="M0 0 C6.105 0.165 6.105 0.165 37 1 C37 25.09 37 49.18 37 74 C26.11 74 15.22 74 4 74 C2 59 2 59 2 48 C2.66 48 3.32 48 4 48 C3 37 3 37 0 33 C0 22.11 0 11.22 0 0 Z " fill="#AA6436" transform="translate(159,916)"/>
<path d="M0 0 C4.62 0 9.24 0 14 0 C14 36.63 14 73.26 14 111 C16.97 111 19.94 111 23 111 C35 114 35 114 41 118 C41 118.66 41 119.32 41 120 C18.56 120 -3.88 120 -27 120 C-25 116 -25 116 -16 112 C-10 111 -10 111 0 111 C0 74.37 0 37.74 0 0 Z " fill="#5E301A" transform="translate(196,917)"/>
<path d="M0 0 C4.29 0 8.58 0 13 0 C13 36.63 13 73.26 13 111 C16.3 111 19.6 111 23 111 C34 114 34 114 40 117 C40.33 117.99 40.66 118.98 41 120 C18.23 120 -4.54 120 -28 120 C-27.67 119.01 -27.34 118.02 -27 117 C-18.348 112.674 -10.515 111.359 -1 110 C-0.67 73.7 -0.34 37.4 0 0 Z " fill="#5F3019" transform="translate(570,917)"/>
<path d="M0 0 C4.95 0 9.9 0 15 0 C15 41.58 15 83.16 15 126 C10.05 126 5.1 126 0 126 C0 84.42 0 42.84 0 0 Z " fill="#E4D1C0" transform="translate(277,487)"/>
<path d="M0 0 C7.92 0 15.84 0 24 0 C28.554 15.938 32 32.373 32 49 C3 55 3 55 -10 57 C-7.683 41.942 -5.139 26.908 -2 12 C-1.34 8.04 -0.68 4.08 0 0 Z " fill="#764025" transform="translate(102,969)"/>
<path d="M0 0 C34.65 0 69.3 0 105 0 C108 13 108 13 108 16 C74.01 16 40.02 16 5 16 C0 2 0 2 0 0 Z " fill="#733E22" transform="translate(455,873)"/>
<path d="M0 0 C34.65 0 69.3 0 105 0 C103.02 5.28 101.04 10.56 99 16 C65.67 16 32.34 16 -2 16 C-2 8 -2 8 0 0 Z " fill="#723D22" transform="translate(595,873)"/>
<path d="M0 0 C1.98 0 3.96 0 6 0 C6 73.59 6 147.18 6 223 C3.69 223 1.38 223 -1 223 C-1 1 -1 1 0 0 Z " fill="#64341B" transform="translate(25,505)"/>
<path d="M0 0 C4.326 8.651 -0.285 19.354 -1 29 C-1.165 28.34 -1.165 28.34 -2 25 C-7.61 26.32 -13.22 27.64 -19 29 C-56 36 -56 36 -62 36 C-62 27.75 -62 19.5 -62 11 C-13 2 -13 2 0 0 Z " fill="#743F24" transform="translate(62,1007)"/>
<path d="M0 0 C0.33 0.99 0.66 1.98 1 3 C53.531 14.674 119.981 16.005 172 3 C172 5.64 172 8.28 172 11 C118.856 25.494 58.629 23.055 5 13 C3.35 12.01 1.7 11.02 0 10 C0 6.7 0 3.4 0 0 Z " fill="#E3CDBC" transform="translate(117,898)"/>
<path d="M0 0 C3.63 0.66 7.26 1.32 11 2 C63.882 8.61 119.53 10.494 172 0 C172 2.31 172 4.62 172 7 C129.729 32.363 51.734 18.128 5 10 C3.35 9.01 1.7 8.02 0 7 C0 4.69 0 2.38 0 0 Z " fill="#E3CCBB" transform="translate(490,901)"/>
<path d="M0 0 C8.25 0 16.5 0 25 0 C31.333 31.667 31.333 31.667 33 45 C26.4 44.835 26.4 44.835 -7 44 C-5.522 29.223 -2.581 14.625 0 0 Z " fill="#784125" transform="translate(280,969)"/>
<path d="M0 0 C7.92 0 15.84 0 24 0 C26.568 11.555 28.2 23.301 30 35 C30.66 38.3 31.32 41.6 32 45 C25.4 44.835 25.4 44.835 -8 44 C-4 4 -4 4 0 0 Z " fill="#784225" transform="translate(475,969)"/>
<path d="M0 0 C8.25 0 16.5 0 25 0 C29 20 29 20 32 44 C19.46 44 6.92 44 -6 44 C-5 28 -5 28 0 0 Z " fill="#784226" transform="translate(654,969)"/>
<path d="M0 0 C24.42 0 48.84 0 74 0 C73.67 5.28 73.34 10.56 73 16 C49.24 16 25.48 16 1 16 C0.67 10.72 0.34 5.44 0 0 Z " fill="#733E22" transform="translate(353,873)"/>
<path d="M0 0 C2.97 0 5.94 0 9 0 C9.33 0.33 9.66 0.66 10 1 C12.64 1.33 15.28 1.66 18 2 C18.66 2.66 19.32 3.32 20 4 C19.67 6.97 19.34 9.94 19 13 C19.165 13.825 19.165 13.825 20 18 C18.68 18 17.36 18 16 18 C15.835 17.67 15.835 17.67 15 16 C14.67 16.66 14.34 17.32 14 18 C13.01 18.66 12.02 19.32 11 20 C13.64 21.32 16.28 22.64 19 24 C19.165 24.825 19.165 24.825 20 29 C16 30 16 30 11 29 C10.67 29.33 10.34 29.66 10 30 C10 32.64 10 35.28 10 38 C11.32 38.33 12.64 38.66 14 39 C14 38.34 14 37.68 14 37 C13.01 37 12.02 37 11 37 C11 35.35 11 33.7 11 32 C15 31 15 31 20 33 C20 42 20 42 17 46 C8 46 8 46 4 43 C2.515 43.165 2.515 43.165 -5 44 C-5.825 42.68 -5.825 42.68 -10 36 C-10.66 38.31 -11.32 40.62 -12 43 C-13.65 43 -15.3 43 -17 43 C-17.33 42.67 -17.66 42.34 -18 42 C-18 34.41 -18 26.82 -18 19 C-16.35 18.67 -14.7 18.34 -13 18 C-9 23 -9 23 -7 27 C-6.67 24.69 -6.34 22.38 -6 20 C-4.35 18.68 -2.7 17.36 -1 16 C-0.67 10.72 -0.34 5.44 0 0 Z " fill="#E98A52" transform="translate(96,543)"/>
<path d="M0 0 C0.66 0 1.32 0 2 0 C11.728 17.024 15 23.723 15 43 C10 53 10 53 5 58 C4.34 58 3.68 58 3 58 C2.67 66.58 2.34 75.16 2 84 C1.67 84 1.34 84 1 84 C1 75.42 1 66.84 1 58 C-0.32 57.34 -1.64 56.68 -3 56 C-11.035 46.359 -11 39.499 -11 27 C-7 14 -7 14 0 0 Z " fill="#7A8B38" transform="translate(578,779)"/>
<path d="M0 0 C16.83 0.33 33.66 0.66 51 1 C51 8.26 51 15.52 51 23 C35.16 23 19.32 23 3 23 C2.67 24.32 2.34 25.64 2 27 C1.67 21.39 1.34 15.78 1 10 C0.67 6.7 0.34 3.4 0 0 Z " fill="#784226" transform="translate(716,990)"/>
<path d="M0 0 C0.66 0.33 1.32 0.66 2 1 C1.34 2.98 0.68 4.96 0 7 C0 34.956 3.418 60.836 16 86 C20.594 90.083 25.2 94.16 30 98 C16 98 16 98 4 96 C3.835 96.33 3.835 96.33 3 98 C2.841 97.354 2.683 96.708 2.52 96.043 C0.116 86.334 -2.444 76.67 -5 67 C-12.625 21.25 -12.625 21.25 -4 4 C-2.68 2.68 -1.36 1.36 0 0 Z " fill="#D15C28" transform="translate(61,861)"/>
<path d="M0 0 C0.99 0 1.98 0 3 0 C2.67 1.98 2.34 3.96 2 6 C2 33.803 3.747 64.996 21 88 C23.31 89.98 25.62 91.96 28 94 C28.99 94.99 29.98 95.98 31 97 C12 96 12 96 5 94 C-4.263 66.21 -13.751 32.67 -3 4 C-2.01 2.68 -1.02 1.36 0 0 Z " fill="#D25D28" transform="translate(432,862)"/>
<path d="M0 0 C4 2 4 2 7 7 C11.756 28.401 9.271 50.918 4 72 C3.505 74.31 3.505 74.31 1 86 C0.01 88.64 -0.98 91.28 -2 94 C-16 97 -16 97 -29 97 C-27.35 95.68 -25.7 94.36 -24 93 C-6.481 77.671 -4.003 55.014 0 33 C0 22.11 0 11.22 0 0 Z " fill="#D15D29" transform="translate(345,862)"/>
<path d="M0 0 C4 2 4 2 7 6 C14.387 35.549 6.837 65.721 -2 94 C-20 97 -20 97 -30 97 C-29.505 96.67 -29.505 96.67 -27 95 C-6.998 79.443 -4.224 56.933 0 33 C1.115 21.854 1.392 11.136 0 0 Z " fill="#D25C28" transform="translate(719,862)"/>
<path d="M0 0 C0.33 0 0.66 0 1 0 C1 66.66 1 133.32 1 202 C0.34 202 -0.32 202 -1 202 C-1.66 203.32 -2.32 204.64 -3 206 C-3.33 206.33 -3.66 206.66 -4 207 C-39.31 207 -74.62 207 -111 207 C-111 205.02 -111 203.04 -111 201 C-74.37 201 -37.74 201 0 201 C0 134.67 0 68.34 0 0 Z " fill="#C85F2A" transform="translate(135,527)"/>
<path d="M0 0 C11.22 0 22.44 0 34 0 C31.429 23.143 31.429 23.143 29 28 C20.75 28 12.5 28 4 28 C-1 5 -1 5 0 0 Z " fill="#E1672D" transform="translate(561,872)"/>
<path d="M0 0 C7.92 0 15.84 0 24 0 C26.56 8.961 28 17.67 28 27 C1 32 1 32 -4 32 C-4 23 -4 23 0 0 Z " fill="#E16E32" transform="translate(102,969)"/>
<path d="M0 0 C0.33 0 0.66 0 1 0 C1 24.09 1 48.18 1 73 C11.89 73 22.78 73 34 73 C33.34 82.9 32.68 92.8 32 103 C31.67 103 31.34 103 31 103 C31 100.69 31 98.38 31 96 C20.77 96 10.54 96 0 96 C0 64.32 0 32.64 0 0 Z " fill="#7B4426" transform="translate(583,917)"/>
<path d="M0 0 C0.33 0 0.66 0 1 0 C1 36.3 1 72.6 1 110 C0.67 110 0.34 110 0 110 C0 105.38 0 100.76 0 96 C-9.9 96 -19.8 96 -30 96 C-33 74 -33 74 -32 70 C-32 70.99 -32 71.98 -32 73 C-21.44 73 -10.88 73 0 73 C0 48.91 0 24.82 0 0 Z " fill="#7A4326" transform="translate(569,917)"/>
<path d="M0 0 C4.62 0 9.24 0 14 0 C15.32 6.6 16.64 13.2 18 20 C18.33 20.66 18.66 21.32 19 22 C19.99 29.26 20.98 36.52 22 44 C20 46 20 46 9 48 C7.35 48 5.7 48 4 48 C4 49.65 4 51.3 4 53 C3.67 53 3.34 53 3 53 C0 7 0 7 0 0 Z " fill="#764125" transform="translate(137,968)"/>
<path d="M0 0 C4.62 0 9.24 0 14 0 C17 15 20 30 23 45 C16.73 45 10.46 45 4 45 C4 47.97 4 50.94 4 54 C3.67 54 3.34 54 3 54 C0 11 0 11 0 0 Z " fill="#794227" transform="translate(316,968)"/>
<path d="M0 0 C4.62 0 9.24 0 14 0 C22 35.2 22 35.2 22 45 C15.73 45 9.46 45 3 45 C0 13.5 0 13.5 0 0 Z " fill="#7B4326" transform="translate(510,968)"/>
<path d="M0 0 C4.62 0 9.24 0 14 0 C14 15.059 11.71 30.038 10 45 C3.73 45 -2.54 45 -9 45 C-9.33 46.32 -9.66 47.64 -10 49 C-8.735 38.881 -6.26 28.944 -4 19 C-3.01 13.39 -2.02 7.78 -1 2 C-0.67 1.34 -0.34 0.68 0 0 Z " fill="#784226" transform="translate(630,968)"/>
<path d="M0 0 C9 0 9 0 14 1 C13.081 15.698 11.569 30.357 10 45 C3.73 45 -2.54 45 -9 45 C-7.818 37.316 -6.573 29.744 -5.125 22.125 C-4.951 21.207 -4.777 20.289 -4.598 19.344 C-1.136 1.136 -1.136 1.136 0 0 Z " fill="#794227" transform="translate(450,968)"/>
<path d="M0 0 C0.33 -0.99 0.66 -1.98 1 -3 C0.67 -1.02 0.34 0.96 0 3 C-19.003 15.669 -56.347 7.547 -78 5 C-79.98 3.68 -81.96 2.36 -84 1 C-68.453 -14.547 -20.342 -5.086 0 0 Z " fill="#F5EFD1" transform="translate(437,482)"/>
<path d="M0 0 C9 36 9 36 9 45 C2.73 45 -3.54 45 -10 45 C-13 13 -13 13 -13 1 C-10 0 -10 0 0 0 Z " fill="#794326" transform="translate(703,968)"/>
<path d="M0 0 C10.89 0 21.78 0 33 0 C32.34 7.59 31.68 15.18 31 23 C20.77 23 10.54 23 0 23 C0 15.41 0 7.82 0 0 Z " fill="#794226" transform="translate(210,990)"/>
<path d="M0 0 C10.89 0 21.78 0 33 0 C33 7.59 33 15.18 33 23 C23.1 23 13.2 23 3 23 C2.67 24.32 2.34 25.64 2 27 C1.34 18.09 0.68 9.18 0 0 Z " fill="#784227" transform="translate(163,990)"/>
<path d="M0 0 C4.29 0.33 8.58 0.66 13 1 C13 16.681 11.921 32.346 11 48 C10.67 47.01 10.34 46.02 10 45 C4.06 45 -1.88 45 -8 45 C-3.167 6.333 -3.167 6.333 0 0 Z " fill="#794326" transform="translate(256,968)"/>
<path d="M0 0 C0.165 0.825 0.165 0.825 1 5 C-6 8 -6 8 -14 8 C-14 50.57 -14 93.14 -14 137 C-14.99 137 -15.98 137 -17 137 C-17 94.43 -17 51.86 -17 8 C-19.97 8 -22.94 8 -26 8 C-27.98 7.01 -29.96 6.02 -32 5 C-32.33 3.68 -32.66 2.36 -33 1 C-22.33 -5.402 -11.596 -3.865 0 0 Z " fill="#6F4128" transform="translate(589,309)"/>
<path d="M0 0 C-0.33 0.66 -0.66 1.32 -1 2 C-26.723 8.431 -58.248 11.608 -83 1 C-79.453 -2.547 -77.245 -2.349 -72.562 -2.938 C-71.875 -3.025 -71.187 -3.112 -70.479 -3.201 C-47.229 -6.121 -22.452 -7.484 0 0 Z " fill="#F5EECD" transform="translate(615,494)"/>
<path d="M0 0 C0.33 0 0.66 0 1 0 C1 2.64 1 5.28 1 8 C0.01 8 -0.98 8 -2 8 C-2.33 8.99 -2.66 9.98 -3 11 C-28.421 15.622 -57.272 18.243 -82 10 C-81.67 8.68 -81.34 7.36 -81 6 C-53.844 2.121 -27.008 2.736 0 7 C0 4.69 0 2.38 0 0 Z " fill="#F8F0D0" transform="translate(249,486)"/>
<path d="M0 0 C1.155 0.495 1.155 0.495 7 3 C7.165 3.66 7.165 3.66 8 7 C1 10 1 10 -7 10 C-7 52.57 -7 95.14 -7 139 C-7.99 139 -8.98 139 -10 139 C-10 96.43 -10 53.86 -10 10 C-13.3 10 -16.6 10 -20 10 C-21.65 9.01 -23.3 8.02 -25 7 C-25.33 5.68 -25.66 4.36 -26 3 C-20 0 -20 0 0 0 Z " fill="#75462C" transform="translate(216,307)"/>
<path d="M0 0 C0.66 1.32 1.32 2.64 2 4 C-4.854 8.112 -5.495 8 -14 8 C-14 47.6 -14 87.2 -14 128 C-14.99 128 -15.98 128 -17 128 C-17 88.4 -17 48.8 -17 8 C-19.64 8 -22.28 8 -25 8 C-27.31 7.01 -29.62 6.02 -32 5 C-31.67 3.35 -31.34 1.7 -31 0 C-20.048 -4.694 -11.083 -3.694 0 0 Z " fill="#75472D" transform="translate(410,307)"/>
<path d="M0 0 C-1.167 14.009 -4.142 22.693 -15 32 C-19 34 -19 34 -29 34 C-29.33 35.32 -29.66 36.64 -30 38 C-30.66 38 -31.32 38 -32 38 C-30 20 -30 20 -24 11 C-9.333 0 -9.333 0 0 0 Z " fill="#7D8D3B" transform="translate(614,824)"/>
<path d="M0 0 C12.653 3.796 18.208 8.109 27 18 C34 33.167 34 33.167 34 46 C28.72 45.34 23.44 44.68 18 44 C14.37 43.67 10.74 43.34 7 43 C7 42.67 7 42.34 7 42 C9.64 42 12.28 42 15 42 C13.96 27.44 12.111 18.166 4 6 C3.01 5.34 2.02 4.68 1 4 C0.67 2.68 0.34 1.36 0 0 Z " fill="#E57031" transform="translate(403,436)"/>
<path d="M0 0 C11.922 2.649 20.009 6.677 28 16 C31 23 31 23 31 35 C31.495 36.815 31.495 36.815 34 46 C34 46.99 34 47.98 34 49 C33.34 49 32.68 49 32 49 C29 38 29 38 29 35 C26.36 35 23.72 35 21 35 C10.749 28.166 6.975 23.194 2 12 C1.34 8.04 0.68 4.08 0 0 Z " fill="#7F8F3C" transform="translate(542,814)"/>
<path d="M0 0 C11.717 5.208 16.911 9.889 25 20 C30 33 30 33 30 45 C23.73 44.34 17.46 43.68 11 43 C10.67 37.06 10.34 31.12 10 25 C6 13 6 13 0 5 C-0.33 4.01 -0.66 3.02 -1 2 C-0.67 1.34 -0.34 0.68 0 0 Z " fill="#E46D30" transform="translate(219,448)"/>
<path d="M0 0 C15.738 7.869 22.363 14.409 29 31 C30 35 30 35 30 46 C26.7 45.34 23.4 44.68 20 44 C16.7 43.67 13.4 43.34 10 43 C10.66 42.34 11.32 41.68 12 41 C8.043 17.261 8.043 17.261 0 6 C0 5.34 0 4.68 0 4 C-0.66 4 -1.32 4 -2 4 C-2 3.34 -2 2.68 -2 2 C-1.34 2 -0.68 2 0 2 C0 1.34 0 0.68 0 0 Z " fill="#E47135" transform="translate(586,448)"/>
<path d="M0 0 C13.2 0 26.4 0 40 0 C40 5.28 40 10.56 40 16 C27.13 16 14.26 16 1 16 C0.67 10.72 0.34 5.44 0 0 Z " fill="#733D22" transform="translate(727,873)"/>
<path d="M0 0 C8.25 0 16.5 0 25 0 C28 15 28 15 28 22 C17.77 22 7.54 22 -3 22 C-2 11 -2 11 0 0 Z " fill="#A76235" transform="translate(654,969)"/>
<path d="M0 0 C8.25 0 16.5 0 25 0 C28 15 28 15 28 22 C17.77 22 7.54 22 -3 22 C-1 4 -1 4 0 0 Z " fill="#AA6536" transform="translate(280,969)"/>
<path d="M0 0 C7.92 0 15.84 0 24 0 C26 9 26 9 27 22 C16.77 22 6.54 22 -4 22 C-2 6 -2 6 0 0 Z " fill="#AA6435" transform="translate(475,969)"/>
<path d="M0 0 C12 1 12 1 13 2 C13 15 13 15 11 35 C-3 38 -3 38 -7 38 C-7 7 -7 7 0 0 Z " fill="#E16D32" transform="translate(78,968)"/>
<path d="M0 0 C12.87 0 25.74 0 39 0 C41 9 41 9 41 14 C20 14 20 14 -1 12 C-1 2 -1 2 0 0 Z " fill="#D8A171" transform="translate(647,1013)"/>
<path d="M0 0 C8.297 12.445 6.142 38.411 7 53 C7.66 57.62 8.32 62.24 9 67 C9 69.31 9 71.62 9 74 C7.35 73.67 5.7 73.34 4 73 C3.885 72.371 3.77 71.741 3.652 71.093 C-0.077 50.698 -4.016 30.346 -8 10 C-8 7.69 -8 5.38 -8 3 C-5.36 2.01 -2.72 1.02 0 0 Z " fill="#62321B" transform="translate(712,964)"/>
<path d="M0 0 C1.485 0.33 1.485 0.33 9 2 C9 19.83 3.764 37.684 0 55 C-0.99 60.61 -1.98 66.22 -3 72 C-3.825 72.165 -3.825 72.165 -8 73 C-7 55 -7 55 -5 40 C-4.01 30.1 -3.02 20.2 -2 10 C-1.34 6.7 -0.68 3.4 0 0 Z " fill="#61321A" transform="translate(440,965)"/>
<path d="M0 0 C12.87 0 25.74 0 39 0 C41 6 41 6 41 14 C26.984 14 12.983 12.964 -1 12 C-1 1 -1 1 0 0 Z " fill="#D7A071" transform="translate(273,1013)"/>
<path d="M0 0 C5.097 17.839 5.583 36.574 7 55 C7.33 55.99 7.66 56.98 8 58 C8 62.95 8 67.9 8 73 C6.68 73 5.36 73 4 73 C2.347 64.822 0.766 56.63 -0.812 48.438 C-3.48 34.612 -6.215 20.802 -9 7 C-9 5.35 -9 3.7 -9 2 C-2 0 -2 0 0 0 Z " fill="#62331C" transform="translate(339,965)"/>
<path d="M0 0 C2.97 0.33 5.94 0.66 9 1 C7.831 10.355 6.55 19.7 5 29 C4.34 34.28 3.68 39.56 3 45 C2.34 47.97 1.68 50.94 1 54 C0.34 58.62 -0.32 63.24 -1 68 C-1.825 68.165 -1.825 68.165 -6 69 C-6 6 -6 6 0 0 Z " fill="#61321A" transform="translate(645,968)"/>
<path d="M0 0 C1.735 11.279 2.918 22.64 4 34 C4.33 35.32 4.66 36.64 5 38 C5.66 48.89 6.32 59.78 7 71 C5.35 71 3.7 71 2 71 C0.35 61.1 -1.3 51.2 -3 41 C-3.784 37.081 -4.567 33.163 -5.375 29.125 C-10 6 -10 6 -10 1 C-2 -1 -2 -1 0 0 Z " fill="#62311A" transform="translate(534,966)"/>
<path d="M0 0 C12.87 0 25.74 0 39 0 C41.838 2.838 40 7.986 40 12 C8 14 8 14 -2 14 C-2 7 -2 7 0 0 Z " fill="#D8A070" transform="translate(467,1013)"/>
<path d="M0 0 C2.97 0.33 5.94 0.66 9 1 C9 10 9 10 5 29 C4.34 33.95 3.68 38.9 3 44 C2.01 47.63 1.02 51.26 0 55 C-0.99 60.28 -1.98 65.56 -3 71 C-4.32 71 -5.64 71 -7 71 C-7 47.104 -3.537 23.583 0 0 Z " fill="#62331B" transform="translate(246,966)"/>
<path d="M0 0 C2.97 0 5.94 0 9 0 C12.421 22.236 14 44.515 14 67 C12.35 66.67 10.7 66.34 9 66 C3 31 3 31 1 16 C0.34 12.37 -0.32 8.74 -1 5 C-0.67 3.35 -0.34 1.7 0 0 Z " fill="#61321B" transform="translate(680,968)"/>
<path d="M0 0 C4.078 22.428 6 45.184 6 68 C4.35 68 2.7 68 1 68 C-1.695 58.568 -2.675 48.719 -4 39 C-4.66 36.03 -5.32 33.06 -6 30 C-7.32 20.43 -8.64 10.86 -10 1 C-8 0 -8 0 0 0 Z " fill="#63331A" transform="translate(509,968)"/>
<path d="M0 0 C1.485 0.33 1.485 0.33 9 2 C9 17.539 4.978 32.083 1 47 C0.01 53.93 -0.98 60.86 -2 68 C-2.33 69.32 -2.66 70.64 -3 72 C-4.32 72 -5.64 72 -7 72 C-7 58 -7 58 -6 55 C-5.01 43.45 -4.02 31.9 -3 20 C-2.01 13.4 -1.02 6.8 0 0 Z " fill="#60311A" transform="translate(620,965)"/>
<path d="M0 0 C2.97 0 5.94 0 9 0 C7.751 17.493 4.177 34.753 1 52 C0.34 56.62 -0.32 61.24 -1 66 C-1.825 66.165 -1.825 66.165 -6 67 C-6 6 -6 6 0 0 Z " fill="#60311A" transform="translate(465,968)"/>
<path d="M0 0 C3.3 0.33 6.6 0.66 10 1 C8.1 18.103 5.078 35.07 2 52 C1.34 57.28 0.68 62.56 0 68 C-0.825 68.165 -0.825 68.165 -5 69 C-5.33 68.67 -5.66 68.34 -6 68 C-5 51 -5 51 -4 48 C-3.34 36.78 -2.68 25.56 -2 14 C-1.34 9.38 -0.68 4.76 0 0 Z " fill="#62331C" transform="translate(270,968)"/>
<path d="M0 0 C3.3 0 6.6 0 10 0 C12 11 12 11 12.26 14.741 C12.581 19.38 12.904 24.019 13.227 28.657 C13.366 30.654 13.504 32.651 13.643 34.648 C14.391 45.435 15.143 56.221 16 67 C14.35 67 12.7 67 11 67 C8.503 55.766 6.818 44.364 5 33 C3.35 23.76 1.7 14.52 0 5 C0 3.35 0 1.7 0 0 Z " fill="#5F311B" transform="translate(305,968)"/>
<path d="M0 0 C6.35 22.224 9.559 46.207 5 69 C3.68 68.67 2.36 68.34 1 68 C-9 10.209 -9 10.209 -9 1 C-4 0 -4 0 0 0 Z " fill="#63331B" transform="translate(136,968)"/>
<path d="M0 0 C3.3 0 6.6 0 10 0 C9 13 9 13 4 39 C2.68 47.58 1.36 56.16 0 65 C-0.165 65.33 -0.165 65.33 -1 67 C-2.32 67 -3.64 67 -5 67 C-5 44.494 -2.974 22.303 0 0 Z " fill="#61321B" transform="translate(92,968)"/>
<path d="M0 0 C4.7 23.502 7 48.03 7 72 C5.68 72 4.36 72 3 72 C2.34 68.205 2.34 68.205 -1 49 C-1.165 48.505 -1.165 48.505 -2 46 C-2.99 39.07 -3.98 32.14 -5 25 C-5.66 22.36 -6.32 19.72 -7 17 C-9 6 -9 6 -9 2 C-3 0 -3 0 0 0 Z " fill="#61311B" transform="translate(160,965)"/>
<path d="M0 0 C-0.66 10.56 -1.32 21.12 -2 32 C-2.33 32 -2.66 32 -3 32 C-3 29.69 -3 27.38 -3 25 C-9.93 25.99 -16.86 26.98 -24 28 C-22.374 18.992 -20.693 9.995 -19 1 C-18.67 1.66 -18.34 2.32 -18 3 C-4 0 -4 0 0 0 Z " fill="#733F25" transform="translate(89,1003)"/>
<path d="M0 0 C-0.33 2.97 -0.66 5.94 -1 9 C-46.538 24.179 -96.999 10 -145 10 C-145 9.67 -145 9.34 -145 9 C-128.005 8.835 -128.005 8.835 -42 8 C-42 5.36 -42 2.72 -42 0 C-17 -1 -17 -1 0 0 Z " fill="#DE8252" transform="translate(599,863)"/>
<path d="M0 0 C4.62 0 9.24 0 14 0 C18 20 18 20 18 24 C7 26 7 26 2 26 C0 7 0 7 0 0 Z " fill="#E06D31" transform="translate(137,968)"/>
<path d="M0 0 C1.65 0.33 3.3 0.66 5 1 C6.65 3.64 8.3 6.28 10 9 C10.33 6.69 10.66 4.38 11 2 C12.98 2 14.96 2 17 2 C17 9.59 17 17.18 17 25 C15.35 25.33 13.7 25.66 12 26 C11.175 24.68 11.175 24.68 7 18 C6.34 20.31 5.68 22.62 5 25 C3.35 25 1.7 25 0 25 C-0.33 24.67 -0.66 24.34 -1 24 C-1 1 -1 1 0 0 Z " fill="#F5F0E8" transform="translate(79,561)"/>
<path d="M0 0 C4.62 0 9.24 0 14 0 C14 10 14 10 12 23 C6.72 23 1.44 23 -4 23 C-3 13 -3 13 0 0 Z " fill="#A76235" transform="translate(630,968)"/>
<path d="M0 0 C4.62 0 9.24 0 14 0 C18 19 18 19 18 23 C12.72 23 7.44 23 2 23 C-0.867 20.133 0.367 15.039 0 11 C0 7.37 0 3.74 0 0 Z " fill="#A66235" transform="translate(510,968)"/>
<path d="M0 0 C1.65 0 3.3 0 5 0 C7 2 7 2 8 6 C8.99 4.68 9.98 3.36 11 2 C12.65 2 14.3 2 16 2 C16.33 2.33 16.66 2.66 17 3 C16 10 16 10 14 12 C15 16 15 16 17 20 C17 21.98 17 23.96 17 26 C15.35 26.33 13.7 26.66 12 27 C10.68 24.69 9.36 22.38 8 20 C7.67 20.825 7.67 20.825 6 25 C4.35 25 2.7 25 1 25 C0.67 24.67 0.34 24.34 0 24 C0 16.08 0 8.16 0 0 Z " fill="#F5F1EA" transform="translate(49,557)"/>
<path d="M0 0 C1.65 0 3.3 0 5 0 C6.32 1.65 7.64 3.3 9 5 C9.99 3.35 10.98 1.7 12 0 C17 1 17 1 18 2 C18 8.6 18 15.2 18 22 C16.35 22 14.7 22 13 22 C13 19.03 13 16.06 13 13 C12.34 13 11.68 13 11 13 C10.67 15.31 10.34 17.62 10 20 C8.68 19.34 7.36 18.68 6 18 C5.34 19.32 4.68 20.64 4 22 C2.35 21.67 0.7 21.34 -1 21 C-1 2 -1 2 0 0 Z " fill="#F2EBE3" transform="translate(50,668)"/>
<path d="M0 0 C4 16 4 16 4 23 C-1.28 23 -6.56 23 -12 23 C-13 13 -13 13 -13 1 C-10 0 -10 0 0 0 Z " fill="#A76235" transform="translate(703,968)"/>
<path d="M0 0 C1.98 1.32 3.96 2.64 6 4 C5.67 5.65 5.34 7.3 5 9 C2.36 8.67 -0.28 8.34 -3 8 C-3.33 8.33 -3.66 8.66 -4 9 C-4 11.64 -4 14.28 -4 17 C-2.68 17.33 -1.36 17.66 0 18 C0 17.34 0 16.68 0 16 C-0.99 16 -1.98 16 -3 16 C-3 14.35 -3 12.7 -3 11 C1 10 1 10 6 12 C6 21 6 21 3 25 C0.03 25 -2.94 25 -6 25 C-11 20 -11 20 -12 18 C-12 6 -12 6 -8 1 C-6 0 -6 0 0 0 Z " fill="#F3EEE6" transform="translate(110,564)"/>
<path d="M0 0 C4.62 0 9.24 0 14 0 C17 13 17 13 17 22 C11.72 22 6.44 22 1 22 C0 11 0 11 0 0 Z " fill="#AA6536" transform="translate(316,968)"/>
<path d="M0 0 C9 0 9 0 14 1 C13 17 13 17 12 22 C6.72 22 1.44 22 -4 22 C-2 6 -2 6 0 0 Z " fill="#AC6536" transform="translate(450,968)"/>
<path d="M0 0 C4.29 0.33 8.58 0.66 13 1 C13 14 13 14 12 23 C6.72 23 1.44 23 -4 23 C-3 13 -3 13 0 0 Z " fill="#A96436" transform="translate(256,968)"/>
<path d="M0 0 C6.27 0 12.54 0 19 0 C21 7 21 7 22 17 C13 17 13 17 1 15 C0.67 10.05 0.34 5.1 0 0 Z " fill="#D9A475" transform="translate(693,1013)"/>
<path d="M0 0 C6.27 0 12.54 0 19 0 C21 11 21 11 21 17 C12 17 12 17 0 15 C0 10.05 0 5.1 0 0 Z " fill="#D7A071" transform="translate(320,1013)"/>
<path d="M0 0 C6 0 6 0 10 3 C10 5.31 10 7.62 10 10 C10.33 7.36 10.66 4.72 11 2 C12.65 2.33 14.3 2.66 16 3 C16 7.29 16 11.58 16 16 C16.66 16 17.32 16 18 16 C18 11.71 18 7.42 18 3 C19.32 3 20.64 3 22 3 C22 17 22 17 20 20 C18.02 20 16.04 20 14 20 C13.34 18.35 12.68 16.7 12 15 C11.34 15 10.68 15 10 15 C9.67 15.99 9.34 16.98 9 18 C6.36 18 3.72 18 1 18 C0.67 17.67 0.34 17.34 0 17 C0 11.39 0 5.78 0 0 Z " fill="#F3E9E1" transform="translate(49,535)"/>
<path d="M0 0 C9.9 0 19.8 0 30 0 C30 3.63 30 7.26 30 11 C20.43 11 10.86 11 1 11 C0.67 7.37 0.34 3.74 0 0 Z " fill="#D8A070" transform="translate(539,1013)"/>
<path d="M0 0 C6.27 0 12.54 0 19 0 C19 9 19 9 18 15 C3 17 3 17 -2 17 C-2 7 -2 7 0 0 Z " fill="#D7A070" transform="translate(441,1013)"/>
<path d="M0 0 C0.33 0 0.66 0 1 0 C7.576 39.457 2 79.999 2 120 C1.01 120 0.02 120 -1 120 C-1 79.999 -0.851 39.992 0 0 Z " fill="#6F3E24" transform="translate(394,315)"/>
<path d="M0 0 C0.33 1.32 0.66 2.64 1 4 C2.32 4.66 3.64 5.32 5 6 C14.672 13.737 17.438 22.424 21 34 C21 36.97 21 39.94 21 43 C21.495 43.165 21.495 43.165 24 44 C19.71 43.67 15.42 43.34 11 43 C10.67 37.06 10.34 31.12 10 25 C6 13 6 13 0 5 C-0.33 4.01 -0.66 3.02 -1 2 C-0.67 1.34 -0.34 0.68 0 0 Z " fill="#EE853F" transform="translate(219,448)"/>
<path d="M0 0 C9.57 0 19.14 0 29 0 C29 2.97 29 5.94 29 9 C19.733 10.158 10.339 10 1 10 C0.67 6.7 0.34 3.4 0 0 Z " fill="#DAA475" transform="translate(166,1014)"/>
<path d="M0 0 C9.446 3.778 12.891 10.485 18 19 C21 28 21 28 21 40 C15.39 39.67 9.78 39.34 4 39 C4 38.67 4 38.34 4 38 C6.64 38 9.28 38 12 38 C10.96 23.44 9.111 14.166 1 2 C0.67 1.34 0.34 0.68 0 0 Z " fill="#F08A44" transform="translate(406,440)"/>
<path d="M0 0 C9.9 0 19.8 0 30 0 C30 2.97 30 5.94 30 9 C6 10 6 10 0 9 C0 6.03 0 3.06 0 0 Z " fill="#DAA270" transform="translate(584,1014)"/>
<path d="M0 0 C11.958 4.783 14.288 13.575 20 25 C22 35 22 35 22 40 C22.495 40.165 22.495 40.165 25 41 C22.69 40.835 22.69 40.835 11 40 C11.66 39.34 12.32 38.68 13 38 C10.36 22.157 8.649 13.974 0 1 C0 0.67 0 0.34 0 0 Z " fill="#F08540" transform="translate(585,451)"/>
<path d="M0 0 C10.23 0 20.46 0 31 0 C31 0.33 31 0.66 31 1 C21.1 1 11.2 1 1 1 C1 3.97 1 6.94 1 10 C10.57 10 20.14 10 30 10 C30 14.62 30 19.24 30 24 C29.34 24 28.68 24 28 24 C26.68 22.68 25.36 21.36 24 20 C15 17 15 17 0 15 C0 10.05 0 5.1 0 0 Z " fill="#C3875A" transform="translate(583,1013)"/>
<path d="M0 0 C9.57 0 19.14 0 29 0 C29 7 29 7 28 9 C18.76 9 9.52 9 0 9 C0 6.03 0 3.06 0 0 Z " fill="#DAA374" transform="translate(211,1014)"/>
<path d="M0 0 C1.65 0 3.3 0 5 0 C5.99 1.65 6.98 3.3 8 5 C8.33 3.68 8.66 2.36 9 1 C10.65 1 12.3 1 14 1 C14 7.93 14 14.86 14 22 C12.68 22 11.36 22 10 22 C8.68 19.36 7.36 16.72 6 14 C5.67 16.31 5.34 18.62 5 21 C3.35 21 1.7 21 0 21 C0 14.07 0 7.14 0 0 Z " fill="#F2EBE4" transform="translate(83,670)"/>
<path d="M0 0 C10.23 0 20.46 0 31 0 C30.67 0.99 30.34 1.98 30 3 C30 2.34 30 1.68 30 1 C20.43 1 10.86 1 1 1 C1 3.97 1 6.94 1 10 C10.24 10 19.48 10 29 10 C29.33 9.34 29.66 8.68 30 8 C29.67 11.63 29.34 15.26 29 19 C26 20 26 20 19 18 C15.865 17.505 15.865 17.505 0 15 C0 10.05 0 5.1 0 0 Z " fill="#C68C5F" transform="translate(210,1013)"/>
<path d="M0 0 C1.65 0.33 3.3 0.66 5 1 C5 5.62 5 10.24 5 15 C5.99 15 6.98 15 8 15 C8 10.38 8 5.76 8 1 C9.32 0.67 10.64 0.34 12 0 C16.249 4.249 13 11.991 13 18 C12.01 19.32 11.02 20.64 10 22 C8.02 22 6.04 22 4 22 C0 18 0 18 -1 16 C-1 1 -1 1 0 0 Z " fill="#F4EFE7" transform="translate(100,671)"/>
<path d="M0 0 C9.9 0 19.8 0 30 0 C30 4.95 30 9.9 30 15 C24.72 15.66 19.44 16.32 14 17 C4 22 4 22 2 24 C0 14 0 14 0 6 C0.33 6 0.66 6 1 6 C1 7.65 1 9.3 1 11 C10.24 10.67 19.48 10.34 29 10 C29 7.03 29 4.06 29 1 C19.43 1 9.86 1 0 1 C0 0.67 0 0.34 0 0 Z " fill="#C58B5E" transform="translate(166,1013)"/>
<path d="M0 0 C6.27 0 12.54 0 19 0 C21 6 21 6 21 11 C14.4 11 7.8 11 1 11 C0 7 0 7 0 0 Z " fill="#D69F6F" transform="translate(513,1013)"/>
<path d="M0 0 C6.27 0 12.54 0 19 0 C18.67 3.96 18.34 7.92 18 12 C11.73 11.67 5.46 11.34 -1 11 C-1 3 -1 3 0 0 Z " fill="#D59E6F" transform="translate(247,1013)"/>
<path d="M0 0 C6.27 0 12.54 0 19 0 C19 9 19 9 18 11 C11.73 11 5.46 11 -1 11 C-1 4 -1 4 0 0 Z " fill="#D7A171" transform="translate(621,1013)"/>
<path d="M0 0 C8 0 8 0 10 1 C10 2.65 10 4.3 10 6 C8.35 6 6.7 6 5 6 C5 6.66 5 7.32 5 8 C6.32 8 7.64 8 9 8 C9 9.98 9 11.96 9 14 C7.68 14 6.36 14 5 14 C5 14.66 5 15.32 5 16 C6.65 16 8.3 16 10 16 C10 17.98 10 19.96 10 22 C6.7 22 3.4 22 0 22 C-0.33 21.67 -0.66 21.34 -1 21 C-1 1 -1 1 0 0 Z " fill="#F2EDE7" transform="translate(71,669)"/>
<path d="M0 0 C0.33 0 0.66 0 1 0 C1 36.63 1 73.26 1 111 C0.01 111 -0.98 111 -2 111 C-2 94.83 -2 78.66 -2 62 C-1.67 62 -1.34 62 -1 62 C-0.67 41.54 -0.34 21.08 0 0 Z " fill="#76462B" transform="translate(574,335)"/>
<path d="M0 0 C0 2.31 0 4.62 0 7 C-5.676 12.676 -15.98 8.651 -24 9 C-29.94 9 -35.88 9 -42 9 C-31.605 -1.395 -14.198 0 0 0 Z " fill="#D39C6D" transform="translate(135,1018)"/>
<path d="M0 0 C1.65 0 3.3 0 5 0 C10.442 5.442 7 15.304 7 23 C6.67 23.66 6.34 24.32 6 25 C4.35 25 2.7 25 1 25 C0.34 24.34 -0.32 23.68 -1 23 C-1 1 -1 1 0 0 Z " fill="#F2E8DC" transform="translate(69,560)"/>
<path d="M0 0 C0 3.3 0 6.6 0 10 C-8 11 -8 11 -19 11 C-19 8.03 -19 5.06 -19 2 C-3 -1 -3 -1 0 0 Z " fill="#D8A172" transform="translate(160,1014)"/>
<path d="M0 0 C21.718 0 43.327 0.555 65 2 C65.165 2.495 65.165 2.495 66 5 C21 5 21 5 0 2 C0 1.34 0 0.68 0 0 Z " fill="#F4E1CE" transform="translate(48,700)"/>
<path d="M0 0 C0.33 0 0.66 0 1 0 C1.99 3.3 2.98 6.6 4 10 C10 17 10 17 12 18 C12 26.58 12 35.16 12 44 C11.01 44 10.02 44 9 44 C5 30 5 30 5 18 C0 8 0 8 -3 4 C-2.34 4 -1.68 4 -1 4 C-0.67 2.68 -0.34 1.36 0 0 Z " fill="#ACC8D2" transform="translate(567,819)"/>
<path d="M0 0 C9.57 0 19.14 0 29 0 C29 1.32 29 2.64 29 4 C24.05 4.66 19.1 5.32 14 6 C11.03 7.32 8.06 8.64 5 10 C3.68 10 2.36 10 1 10 C0 8 0 8 0 0 Z " fill="#C68A5D" transform="translate(540,1024)"/>
<path d="M0 0 C8.43 0 16.309 0.178 24.604 0.816 C25.037 0.849 25.037 0.849 27.229 1.018 C31.689 1.361 36.15 1.704 40.611 2.047 C41.465 2.113 42.319 2.178 43.199 2.246 C44.89 2.376 46.58 2.506 48.271 2.636 C49.07 2.698 49.869 2.759 50.692 2.822 C55.795 3.215 60.897 3.607 66 4 C66.165 4.495 66.165 4.495 67 7 C58 7 58 7 54.598 6.74 C50.347 6.417 46.095 6.095 41.844 5.773 C40.02 5.635 38.196 5.496 36.372 5.357 C24.587 4.458 12.802 3.649 1 3 C0.67 2.01 0.34 1.02 0 0 Z " fill="#F4E8D9" transform="translate(48,654)"/>
<path d="M0 0 C2.31 0 4.62 0 7 0 C7.99 0.99 8.98 1.98 10 3 C10 6.333 10 9.667 10 13 C10.33 14.65 10.66 16.3 11 18 C9.68 18 8.36 18 7 18 C6.34 16.35 5.68 14.7 5 13 C4.67 14.32 4.34 15.64 4 17 C2.68 17 1.36 17 0 17 C0 11.39 0 5.78 0 0 Z " fill="#F4ECE4" transform="translate(72,539)"/>
<path d="M0 0 C0.33 1.65 0.66 3.3 1 5 C-1.31 5 -3.62 5 -6 5 C-6 6.98 -6 8.96 -6 11 C-5.34 11.33 -4.68 11.66 -4 12 C-4.33 10.35 -4.66 8.7 -5 7 C-1 6 -1 6 1 7 C1 9.31 1 11.62 1 14 C0.01 14.99 -0.98 15.98 -2 17 C-7 16 -7 16 -11 11 C-11 4 -11 4 -9 0 C-7 -1 -7 -1 0 0 Z " fill="#F0EBE4" transform="translate(94,542)"/>
<path d="M0 0 C8 1 8 1 10 3 C9.67 5.97 9.34 8.94 9 12 C9.33 13.65 9.66 15.3 10 17 C8.68 17 7.36 17 6 17 C5.67 16.34 5.34 15.68 5 15 C3.35 15.33 1.7 15.66 0 16 C0 10.72 0 5.44 0 0 Z " fill="#F2EAE2" transform="translate(106,544)"/>
<path d="M0 0 C0.33 0.66 0.66 1.32 1 2 C1.66 2 2.32 2 3 2 C3 1.34 3 0.68 3 0 C3.99 0.33 4.98 0.66 6 1 C5.01 2.32 5.01 2.32 0 9 C-2 14 -2 14 -2 25 C-2.33 25.825 -2.33 25.825 -4 30 C-4.66 30 -5.32 30 -6 30 C-6 13 -6 13 -5 4 C-3.68 3.67 -2.36 3.34 -1 3 C-0.67 2.01 -0.34 1.02 0 0 Z " fill="#97C5DF" transform="translate(586,833)"/>
<path d="M0 0 C8.673 0 17.349 0.382 26 1 C26.33 2.65 26.66 4.3 27 6 C8 5 8 5 1 4 C0.67 2.68 0.34 1.36 0 0 Z " fill="#F1DFCF" transform="translate(48,611)"/>
<path d="M0 0 C2.64 0 5.28 0 8 0 C8 1.32 8 2.64 8 4 C7.01 4 6.02 4 5 4 C5 4.66 5 5.32 5 6 C5.99 6 6.98 6 8 6 C8 7.32 8 8.64 8 10 C7.01 10 6.02 10 5 10 C5 10.66 5 11.32 5 12 C5.99 12 6.98 12 8 12 C8 13.32 8 14.64 8 16 C5.36 16 2.72 16 0 16 C0 10.72 0 5.44 0 0 Z " fill="#EEDDD2" transform="translate(96,543)"/>
<path d="M0 0 C22.003 0 44.011 0.242 66 1 C66 1.33 66 1.66 66 2 C44.22 2.33 22.44 2.66 0 3 C0 2.01 0 1.02 0 0 Z " fill="#BD865F" transform="translate(159,889)"/>
<path d="M0 0 C14 0 14 0 26 2 C26 3.32 26 4.64 26 6 C17.42 5.34 8.84 4.68 0 4 C0 2.68 0 1.36 0 0 Z " fill="#F3E7DC" transform="translate(49,622)"/>
<path d="M0 0 C1.98 0 3.96 0 6 0 C6.99 0.99 7.98 1.98 9 3 C8.01 4.32 7.02 5.64 6 7 C6 6.01 6 5.02 6 4 C5.34 4 4.68 4 4 4 C4.66 6.31 5.32 8.62 6 11 C5.34 11 4.68 11 4 11 C4 11.99 4 12.98 4 14 C5.32 14.33 6.64 14.66 8 15 C8 15.99 8 16.98 8 18 C5.69 18 3.38 18 1 18 C0.67 17.67 0.34 17.34 0 17 C0 11.39 0 5.78 0 0 Z " fill="#F2EFEB" transform="translate(49,535)"/>
<path d="M0 0 C11.22 0 22.44 0 34 0 C34 1.98 34 3.96 34 6 C33.835 5.34 33.835 5.34 33 2 C31.02 2.33 29.04 2.66 27 3 C18.09 3 9.18 3 0 3 C-0.33 3.66 -0.66 4.32 -1 5 C-0.67 3.35 -0.34 1.7 0 0 Z " fill="#C35422" transform="translate(561,872)"/>
<path d="M0 0 C19 1 19 1 26 2 C26 3.32 26 4.64 26 6 C8 5 8 5 0 4 C0 2.68 0 1.36 0 0 Z " fill="#F0E2D2" transform="translate(49,600)"/>
<path d="M0 0 C14 0 14 0 26 1 C26 2.32 26 3.64 26 5 C17.75 4.67 9.5 4.34 1 4 C0.67 2.68 0.34 1.36 0 0 Z " fill="#F2DCC9" transform="translate(49,633)"/>
<path d="M0 0 C0.33 0 0.66 0 1 0 C1.33 7.26 1.66 14.52 2 22 C2.33 22 2.66 22 3 22 C3 30.91 3 39.82 3 49 C2.01 49 1.02 49 0 49 C0 32.83 0 16.66 0 0 Z " fill="#7A472C" transform="translate(393,386)"/>
<path d="M0 0 C0.99 0 1.98 0 3 0 C3 11 3 11 1 14 C0.01 14.33 -0.98 14.66 -2 15 C-2.33 17.64 -2.66 20.28 -3 23 C-6 20 -6 20 -10 14 C-10.99 13.34 -11.98 12.68 -13 12 C-11.68 11.34 -10.36 10.68 -9 10 C-9 9.34 -9 8.68 -9 8 C-7.68 8.66 -6.36 9.32 -5 10 C0 9 0 9 1 8 C1.33 5.69 1.66 3.38 2 1 C1.34 0.67 0.68 0.34 0 0 Z " fill="#EC8343" transform="translate(93,548)"/>
<path d="M0 0 C11.22 0 22.44 0 34 0 C34.165 0.495 34.165 0.495 35 3 C17 3 17 3 0 1 C0 0.67 0 0.34 0 0 Z " fill="#F5E9DA" transform="translate(79,702)"/>
<path d="M0 0 C0.33 0 0.66 0 1 0 C1 4.29 1 8.58 1 13 C0.34 13 -0.32 13 -1 13 C-1.33 13.99 -1.66 14.98 -2 16 C-2.33 15.01 -2.66 14.02 -3 13 C-4.32 12.67 -5.64 12.34 -7 12 C-6.67 10.68 -6.34 9.36 -6 8 C-6.33 6.02 -6.66 4.04 -7 2 C-5.02 1.67 -3.04 1.34 -1 1 C-1 3.31 -1 5.62 -1 8 C-0.67 5.36 -0.34 2.72 0 0 Z " fill="#EDD3C1" transform="translate(60,537)"/>
<path d="M0 0 C16 1 16 1 20 3 C20 3.66 20 4.32 20 5 C3 5 3 5 0 3 C0 2.01 0 1.02 0 0 Z " fill="#F2EDE3" transform="translate(95,615)"/>
<path d="M0 0 C0.165 0.495 0.165 0.495 1 3 C-11.351 3 -23.68 1.88 -36 1 C-36 0.67 -36 0.34 -36 0 C-23.717 -1.117 -12.304 -0.946 0 0 Z " fill="#F2E8DB" transform="translate(114,658)"/>
<path d="M0 0 C11 0 11 0 19 1 C19 2.32 19 3.64 19 5 C10 5 10 5 1 4 C0.67 2.68 0.34 1.36 0 0 Z " fill="#F3EADF" transform="translate(95,626)"/>
<path d="M0 0 C5.94 0.33 11.88 0.66 18 1 C18.33 2.32 18.66 3.64 19 5 C8 5 8 5 0 3 C0 2.01 0 1.02 0 0 Z " fill="#F3E7DA" transform="translate(96,605)"/>
<path d="M0 0 C17 0 17 0 19 1 C19 1.99 19 2.98 19 4 C5 4 5 4 0 3 C0 2.01 0 1.02 0 0 Z " fill="#F2E2D3" transform="translate(95,637)"/>
<path d="M0 0 C1.32 0.33 2.64 0.66 4 1 C4 6.61 4 12.22 4 18 C3.01 17.67 2.02 17.34 1 17 C-1.539 11.923 0 5.676 0 0 Z " fill="#F2EBE4" transform="translate(61,537)"/>
<path d="M0 0 C1.65 0 3.3 0 5 0 C5 5.61 5 11.22 5 17 C4.34 17 3.68 17 3 17 C0 6 0 6 0 0 Z " fill="#F7F6F4" transform="translate(573,846)"/>
<path d="M0 0 C0.66 0.33 1.32 0.66 2 1 C-2.29 5.29 -6.58 9.58 -11 14 C-13.64 17.63 -16.28 21.26 -19 25 C-19.33 24.01 -19.66 23.02 -20 22 C-13.725 13.933 -7.857 6.547 0 0 Z " fill="#596726" transform="translate(605,832)"/>
<path d="M0 0 C1.65 0 3.3 0 5 0 C4.34 4.29 3.68 8.58 3 13 C3.33 14.32 3.66 15.64 4 17 C2.68 17 1.36 17 0 17 C0 11.39 0 5.78 0 0 Z " fill="#F3EEE9" transform="translate(72,539)"/>
<path d="M0 0 C0.33 0 0.66 0 1 0 C2.376 6.881 2.149 13.105 1 20 C0.67 20 0.34 20 0 20 C0 18.35 0 16.7 0 15 C-1.65 15 -3.3 15 -5 15 C-5 14.34 -5 13.68 -5 13 C-3.68 13 -2.36 13 -1 13 C-1 11.02 -1 9.04 -1 7 C-2.32 7 -3.64 7 -5 7 C-5 6.34 -5 5.68 -5 5 C-3.35 5 -1.7 5 0 5 C0 3.35 0 1.7 0 0 Z " fill="#EA894E" transform="translate(81,670)"/>
<path d="M0 0 C0.99 0 1.98 0 3 0 C4 12 4 12 2 17 C1.34 17 0.68 17 0 17 C0 11.39 0 5.78 0 0 Z " fill="#E8E8DE" transform="translate(580,846)"/>
<path d="M0 0 C9.57 4.785 14.471 14.311 20 23 C20 23.66 20 24.32 20 25 C19.34 25 18.68 25 18 25 C16.35 22.03 14.7 19.06 13 16 C9.37 11.71 5.74 7.42 2 3 C1.34 2.01 0.68 1.02 0 0 Z " fill="#5C6B2B" transform="translate(551,823)"/>
<path d="M0 0 C2 2 2 2 2 16 C1.67 16.33 1.34 16.66 1 17 C-1.64 17 -4.28 17 -7 17 C-7 16.67 -7 16.34 -7 16 C-4.69 16 -2.38 16 0 16 C0 14.68 0 13.36 0 12 C-0.99 12 -1.98 12 -3 12 C-3 11.34 -3 10.68 -3 10 C-2.01 10 -1.02 10 0 10 C0 8.68 0 7.36 0 6 C-0.99 6 -1.98 6 -3 6 C-3 5.34 -3 4.68 -3 4 C-2.01 4 -1.02 4 0 4 C0 2.68 0 1.36 0 0 Z " fill="#EB9D6E" transform="translate(104,543)"/>
<path d="M0 0 C4.62 0 9.24 0 14 0 C14 1.32 14 2.64 14 4 C5 4 5 4 1 2 C0.67 1.34 0.34 0.68 0 0 Z " fill="#F4EDE5" transform="translate(61,634)"/>
<path d="M0 0 C0 1.98 0 3.96 0 6 C-8 5 -8 5 -12 2 C-3 0 -3 0 0 0 Z " fill="#C48759" transform="translate(60,1032)"/>
<path d="M0 0 C0.66 0 1.32 0 2 0 C2.33 1.98 2.66 3.96 3 6 C3.66 6.33 4.32 6.66 5 7 C4.67 7.33 4.34 7.66 4 8 C2.02 8 0.04 8 -2 8 C-2.33 9.32 -2.66 10.64 -3 12 C-3.66 10.35 -4.32 8.7 -5 7 C-3.68 5.68 -2.36 4.36 -1 3 C-0.67 2.01 -0.34 1.02 0 0 Z " fill="#E9844A" transform="translate(59,550)"/>
<path d="M0 0 C0.33 0 0.66 0 1 0 C1.99 3.3 2.98 6.6 4 10 C4.825 11.155 4.825 11.155 9 17 C7.68 17.33 6.36 17.66 5 18 C3.35 14.7 1.7 11.4 0 8 C-0.99 6.68 -1.98 5.36 -3 4 C-2.34 4 -1.68 4 -1 4 C-0.67 2.68 -0.34 1.36 0 0 Z " fill="#91BED0" transform="translate(567,819)"/>
<path d="M0 0 C1.65 0.33 3.3 0.66 5 1 C5 3.31 5 5.62 5 8 C4.01 8.99 3.02 9.98 2 11 C0.68 11 -0.64 11 -2 11 C-2 10.34 -2 9.68 -2 9 C-0.68 8.34 0.64 7.68 2 7 C2.66 5.35 3.32 3.7 4 2 C3.01 2 2.02 2 1 2 C1 3.65 1 5.3 1 7 C0.34 6.67 -0.32 6.34 -1 6 C-1 1 -1 1 0 0 Z " fill="#F0E8E3" transform="translate(90,548)"/>
<path d="M0 0 C5 1 5 1 8 4 C3 7 3 7 0 7 C0 4.69 0 2.38 0 0 Z " fill="#CA8C59" transform="translate(721,1031)"/>
<path d="M0 0 C1.65 0.33 3.3 0.66 5 1 C4.67 1.66 4.34 2.32 4 3 C3.01 3.33 2.02 3.66 1 4 C0.67 5.65 0.34 7.3 0 9 C0.99 9 1.98 9 3 9 C3 9.66 3 10.32 3 11 C1.35 10.67 -0.3 10.34 -2 10 C-2 2 -2 2 0 0 Z " fill="#E9874C" transform="translate(107,571)"/>
<path d="M0 0 C2.31 0 4.62 0 7 0 C7 1.32 7 2.64 7 4 C5.35 4 3.7 4 2 4 C1.67 6.31 1.34 8.62 1 11 C0.67 11 0.34 11 0 11 C0 7.37 0 3.74 0 0 Z " fill="#F2F4F4" transform="translate(97,543)"/>
<path d="M0 0 C0.33 0.99 0.66 1.98 1 3 C-6.92 2.67 -14.84 2.34 -23 2 C-23 1.67 -23 1.34 -23 1 C-7 0 -7 0 0 0 Z " fill="#B6784E" transform="translate(248,889)"/>
<path d="M0 0 C3.3 0 6.6 0 10 0 C10 1.32 10 2.64 10 4 C3 4 3 4 0 3 C0 2.01 0 1.02 0 0 Z " fill="#F3EFE8" transform="translate(65,602)"/>
<path d="M0 0 C0 2.31 0 4.62 0 7 C-5 6 -5 6 -7 5 C-7 4.01 -7 3.02 -7 2 C-3 0 -3 0 0 0 Z " fill="#C98B59" transform="translate(432,1031)"/>
<path d="M0 0 C0.99 0 1.98 0 3 0 C3 3.63 3 7.26 3 11 C2.01 11.66 1.02 12.32 0 13 C0 8.71 0 4.42 0 0 Z " fill="#F6F7F6" transform="translate(67,538)"/>
<path d="M0 0 C2 3 2 3 3 17 C2.01 17.33 1.02 17.66 0 18 C0 12.06 0 6.12 0 0 Z " fill="#EA9055" transform="translate(97,672)"/>
<path d="M0 0 C0.99 0.33 1.98 0.66 3 1 C3 1.66 3 2.32 3 3 C-1.29 3 -5.58 3 -10 3 C-10 2.34 -10 1.68 -10 1 C-8 0 -8 0 0 0 Z " fill="#F5ECE1" transform="translate(72,623)"/>
<path d="M0 0 C2 3 2 3 2 10 C2.33 11.98 2.66 13.96 3 16 C1.35 16.33 -0.3 16.66 -2 17 C-2 16.34 -2 15.68 -2 15 C-1.01 15 -0.02 15 1 15 C0.01 12.03 -0.98 9.06 -2 6 C-1.34 4.02 -0.68 2.04 0 0 Z " fill="#E98C51" transform="translate(82,543)"/>
<path d="M0 0 C2.31 0 4.62 0 7 0 C7.99 0.99 8.98 1.98 10 3 C8 4 8 4 2 4 C1.34 3.67 0.68 3.34 0 3 C0 2.01 0 1.02 0 0 Z " fill="#F4EBE0" transform="translate(96,605)"/>
<path d="M0 0 C3.3 0 6.6 0 10 0 C10.33 0.99 10.66 1.98 11 3 C2 3 2 3 0 2 C0 1.34 0 0.68 0 0 Z " fill="#F1E0CE" transform="translate(104,658)"/>
<path d="M0 0 C0 1.65 0 3.3 0 5 C-0.66 5 -1.32 5 -2 5 C-2.33 5.99 -2.66 6.98 -3 8 C-3.99 7.01 -4.98 6.02 -6 5 C-6 3.68 -6 2.36 -6 1 C-2 0 -2 0 0 0 Z " fill="#EFD9C9" transform="translate(59,538)"/>
<path d="M0 0 C0.99 0.165 0.99 0.165 6 1 C6 1.99 6 2.98 6 4 C4.02 4.66 2.04 5.32 0 6 C0 4.02 0 2.04 0 0 Z " fill="#C6895A" transform="translate(347,1032)"/>
<path d="M0 0 C7 0 7 0 11 1 C11 1.66 11 2.32 11 3 C7.37 3 3.74 3 0 3 C0 2.01 0 1.02 0 0 Z " fill="#F5F3EB" transform="translate(49,600)"/>
<path d="M0 0 C1.98 0 3.96 0 6 0 C6 1.32 6 2.64 6 4 C3.03 4 0.06 4 -3 4 C-2.01 3.67 -1.02 3.34 0 3 C0 2.01 0 1.02 0 0 Z " fill="#F1E1D0" transform="translate(108,627)"/>
<path d="M0 0 C1.98 0 3.96 0 6 0 C6 0.99 6 1.98 6 3 C7.65 3.33 9.3 3.66 11 4 C11 4.33 11 4.66 11 5 C3 5 3 5 0 3 C0 2.01 0 1.02 0 0 Z " fill="#F1DAC4" transform="translate(95,615)"/>
<path d="M0 0 C2.97 0 5.94 0 9 0 C9 1.98 9 3.96 9 6 C8.67 4.68 8.34 3.36 8 2 C4.7 2.33 1.4 2.66 -2 3 C-1.34 2.67 -0.68 2.34 0 2 C0 1.34 0 0.68 0 0 Z " fill="#CC5D29" transform="translate(586,872)"/>
<path d="M0 0 C0.33 0 0.66 0 1 0 C2 7 2 7 0 12 C-0.33 12 -0.66 12 -1 12 C-1 10.35 -1 8.7 -1 7 C-2.32 7 -3.64 7 -5 7 C-5 6.34 -5 5.68 -5 5 C-3.35 5 -1.7 5 0 5 C0 3.35 0 1.7 0 0 Z " fill="#E89660" transform="translate(81,670)"/>
<path d="M0 0 C0.33 0.66 0.66 1.32 1 2 C2.32 2 3.64 2 5 2 C5 2.99 5 3.98 5 5 C2.69 5 0.38 5 -2 5 C-2 3.68 -2 2.36 -2 1 C-1.34 0.67 -0.68 0.34 0 0 Z " fill="#F7FAFA" transform="translate(99,554)"/>
<path d="M0 0 C-0.33 0.66 -0.66 1.32 -1 2 C-5 3 -5 3 -13 3 C-9.305 -0.695 -4.99 0 0 0 Z " fill="#D69F70" transform="translate(106,1024)"/>
<path d="M0 0 C0.825 0.33 0.825 0.33 5 2 C5 2.99 5 3.98 5 5 C2.69 5 0.38 5 -2 5 C-1.34 3.35 -0.68 1.7 0 0 Z " fill="#F5F2ED" transform="translate(52,548)"/>
<path d="M0 0 C0.99 0 1.98 0 3 0 C2.34 2.31 1.68 4.62 1 7 C-0.65 6.67 -2.3 6.34 -4 6 C-4.33 5.34 -4.66 4.68 -5 4 C-4.175 4.165 -4.175 4.165 0 5 C0 3.35 0 1.7 0 0 Z " fill="#F4F2EC" transform="translate(91,550)"/>
<path d="M0 0 C0.66 0.66 1.32 1.32 2 2 C-0.31 4.97 -2.62 7.94 -5 11 C-5.33 10.01 -5.66 9.02 -6 8 C-4.02 5.36 -2.04 2.72 0 0 Z " fill="#5E6A2B" transform="translate(591,846)"/>
<path d="M0 0 C0.33 0 0.66 0 1 0 C1.66 2.97 2.32 5.94 3 9 C3.33 9.99 3.66 10.98 4 12 C3.01 12.33 2.02 12.66 1 13 C0.67 12.67 0.34 12.34 0 12 C0 8.04 0 4.08 0 0 Z " fill="#EB8345" transform="translate(96,573)"/>
<path d="M0 0 C0.66 0.165 0.66 0.165 4 1 C3.34 1.66 2.68 2.32 2 3 C2 4.65 2 6.3 2 8 C1.01 7.67 0.02 7.34 -1 7 C-1 1 -1 1 0 0 Z " fill="#E38F56" transform="translate(88,546)"/>
<path d="M0 0 C0.33 0 0.66 0 1 0 C1 1.65 1 3.3 1 5 C-0.65 5.33 -2.3 5.66 -4 6 C-4 4.35 -4 2.7 -4 1 C-3.67 1.66 -3.34 2.32 -3 3 C-2.34 3 -1.68 3 -1 3 C-0.67 2.01 -0.34 1.02 0 0 Z " fill="#734123" transform="translate(643,1031)"/>
<path d="M0 0 C2.64 0 5.28 0 8 0 C7.67 0.99 7.34 1.98 7 3 C4.69 3 2.38 3 0 3 C0 2.01 0 1.02 0 0 Z " fill="#F5EEE1" transform="translate(95,637)"/>
<path d="M0 0 C2.31 0 4.62 0 7 0 C7 0.99 7 1.98 7 3 C4.69 3 2.38 3 0 3 C0 2.01 0 1.02 0 0 Z " fill="#F8F7F1" transform="translate(49,633)"/>
<path d="M0 0 C7 0 7 0 12 1 C12 1.33 12 1.66 12 2 C10.515 2.165 10.515 2.165 3 3 C2.01 2.01 1.02 1.02 0 0 Z " fill="#F8F3EA" transform="translate(50,612)"/>
<path d="M0 0 C3.96 0 7.92 0 12 0 C12 0.33 12 0.66 12 1 C10.515 1.165 10.515 1.165 3 2 C3.66 2.66 4.32 3.32 5 4 C3.35 3.67 1.7 3.34 0 3 C0 2.01 0 1.02 0 0 Z " fill="#EFD5C0" transform="translate(48,611)"/>
<path d="M0 0 C0.495 0.33 0.495 0.33 3 2 C2.67 3.65 2.34 5.3 2 7 C1.01 6.67 0.02 6.34 -1 6 C-1 1 -1 1 0 0 Z " fill="#F2E5D7" transform="translate(113,566)"/>
<path d="M0 0 C0.66 0 1.32 0 2 0 C2 2.31 2 4.62 2 7 C0.35 7.33 -1.3 7.66 -3 8 C-2.34 7.67 -1.68 7.34 -1 7 C-0.67 4.69 -0.34 2.38 0 0 Z " fill="#EA9D69" transform="translate(61,681)"/>
<path d="M0 0 C1.65 0.33 3.3 0.66 5 1 C4.67 1.99 4.34 2.98 4 4 C4 3.34 4 2.68 4 2 C3.01 2 2.02 2 1 2 C1 3.65 1 5.3 1 7 C0.34 6.67 -0.32 6.34 -1 6 C-1 1 -1 1 0 0 Z " fill="#EADBD1" transform="translate(90,548)"/>
<path d="M0 0 C0.66 0.165 0.66 0.165 4 1 C3.67 1.165 3.67 1.165 2 2 C1.67 4.97 1.34 7.94 1 11 C0.34 10.67 -0.32 10.34 -1 10 C-1 1 -1 1 0 0 Z " fill="#E67434" transform="translate(59,535)"/>
<path d="M0 0 C0.33 0.99 0.66 1.98 1 3 C2.32 2.67 3.64 2.34 5 2 C5 3.32 5 4.64 5 6 C3.35 5.67 1.7 5.34 0 5 C0 3.35 0 1.7 0 0 Z " fill="#704224" transform="translate(264,1031)"/>
<path d="M0 0 C0 1.65 0 3.3 0 5 C-0.66 5 -1.32 5 -2 5 C-3.32 3.35 -4.64 1.7 -6 0 C-4 -1 -4 -1 0 0 Z " fill="#C08355" transform="translate(239,1032)"/>
<path d="M0 0 C2.64 0 5.28 0 8 0 C8 0.33 8 0.66 8 1 C6.02 1.66 4.04 2.32 2 3 C1.34 4.32 0.68 5.64 0 7 C0 4.69 0 2.38 0 0 Z " fill="#C25D2B" transform="translate(137,968)"/>
<path d="M0 0 C1.98 0 3.96 0 6 0 C3.667 2.333 1.333 4.667 -1 7 C-0.67 4.69 -0.34 2.38 0 0 Z " fill="#F1945B" transform="translate(57,558)"/>
<path d="M0 0 C0.99 0 1.98 0 3 0 C3.33 1.65 3.66 3.3 4 5 C2.68 5 1.36 5 0 5 C-0.33 4.01 -0.66 3.02 -1 2 C-0.67 1.34 -0.34 0.68 0 0 Z " fill="#F0E2D7" transform="translate(79,552)"/>
<path d="M0 0 C1.32 0.33 2.64 0.66 4 1 C4 2.65 4 4.3 4 6 C3.01 5.67 2.02 5.34 1 5 C0.67 3.35 0.34 1.7 0 0 Z " fill="#F3F0EC" transform="translate(61,549)"/>
</svg>
