<?xml version="1.0" encoding="UTF-8"?>
<!-- Generator: visioncortex VTracer 0.6.12 -->
<svg version="1.1" xmlns="http://www.w3.org/2000/svg" width="768" height="1344">
<path d="M0 0 C253.44 0 506.88 0 768 0 C768 443.52 768 887.04 768 1344 C514.56 1344 261.12 1344 0 1344 C0 900.48 0 456.96 0 0 Z " fill="#405067" transform="translate(0,0)"/>
<path d="M0 0 C8 5 8 5 13 14 C18.053 39.264 9.337 62.657 0 86 C-0.33 89.3 -0.66 92.6 -1 96 C-3 100 -3 100 -5 101 C-4.34 106.61 -3.68 112.22 -3 118 C-3 120.64 -3 123.28 -3 126 C26.04 125.67 55.08 125.34 85 125 C85.66 123.68 86.32 122.36 87 121 C85.02 120.67 83.04 120.34 81 120 C77 116 77 116 76 109 C76.33 108.34 76.66 107.68 77 107 C75.02 105.68 73.04 104.36 71 103 C68 98 68 98 69 92 C70.32 90.68 71.64 89.36 73 88 C73.66 88 74.32 88 75 88 C74.34 87.01 73.68 86.02 73 85 C73 75 73 75 76 70 C81 67 81 67 87 67 C87.66 67.33 88.32 67.66 89 68 C89.33 66.35 89.66 64.7 90 63 C91.65 61.35 93.3 59.7 95 58 C98.3 58.33 101.6 58.66 105 59 C106.32 57.35 107.64 55.7 109 54 C111 53 111 53 117 53 C117.825 53.66 117.825 53.66 122 57 C122 57.99 122 58.98 122 60 C122.99 59.34 123.98 58.68 125 58 C126.98 58 128.96 58 131 58 C134 62 134 62 134 65 C135.98 65 137.96 65 140 65 C140.99 65.99 141.98 66.98 143 68 C143 70.31 143 72.62 143 75 C144.98 75 146.96 75 149 75 C150.65 76.65 152.3 78.3 154 80 C153.67 83.96 153.34 87.92 153 92 C153.99 93.32 154.98 94.64 156 96 C155 104 155 104 151 108 C149.68 108.33 148.36 108.66 147 109 C147 111.31 147 113.62 147 116 C142 121 142 121 138 122 C138.66 122.99 139.32 123.98 140 125 C166.07 125.33 192.14 125.66 219 126 C219 242.49 219 358.98 219 479 C-34.44 479 -287.88 479 -549 479 C-549 370.1 -549 261.2 -549 149 C-517.32 149 -485.64 149 -453 149 C-454 161 -454 161 -456 171 C-458.31 171.99 -460.62 172.98 -463 174 C-468 178 -468 178 -470 182 C-470 188 -470 188 -464 195 C-429.348 212.326 -390.972 211.563 -354 201 C-353.34 200.67 -352.68 200.34 -352 200 C-341.585 201.041 -331.282 203.042 -321 205 C-294.561 207.203 -268.655 207.141 -245 194 C-243 190 -243 190 -244 184 C-258.544 173.092 -270.776 172.377 -289 170 C-289.33 170.66 -289.66 171.32 -290 172 C-290 164.74 -290 157.48 -290 150 C-245.12 150 -200.24 150 -154 150 C-154 158.25 -154 166.5 -154 175 C-160.27 175.99 -166.54 176.98 -173 178 C-175.97 179.32 -178.94 180.64 -182 182 C-182.66 182 -183.32 182 -184 182 C-183.67 184.31 -183.34 186.62 -183 189 C-159.571 198.762 -134.842 198.67 -111 190 C-110.34 189.34 -109.68 188.68 -109 188 C-109 186.35 -109 184.7 -109 183 C-119.015 177.993 -128.947 176.382 -140 175 C-140 166.42 -140 157.84 -140 149 C-125.81 149 -111.62 149 -97 149 C-97.33 157.25 -97.66 165.5 -98 174 C-97.67 174.33 -97.34 174.66 -97 175 C-95.35 175 -93.7 175 -92 175 C-88.844 167.109 -88.261 158.404 -87 150 C-83.7 150 -80.4 150 -77 150 C-77.33 156.93 -77.66 163.86 -78 171 C-78 174.63 -78 178.26 -78 182 C-74 134 -74 134 -74 126 C-74.33 126.33 -74.66 126.66 -75 127 C-75 131.29 -75 135.58 -75 140 C-75.33 142.64 -75.66 145.28 -76 148 C-79.3 148 -82.6 148 -86 148 C-85.67 143.05 -85.34 138.1 -85 133 C-86.98 146.2 -88.96 159.4 -91 173 C-91.33 173.33 -91.66 173.66 -92 174 C-93.65 174 -95.3 174 -97 174 C-95.779 149.586 -92.75 125.29 -90 101 C-89.01 101 -88.02 101 -87 101 C-88.98 99.68 -90.96 98.36 -93 97 C-93.66 96.34 -94.32 95.68 -95 95 C-95 92.03 -95 89.06 -95 86 C-91.37 87.65 -87.74 89.3 -84 91 C-67 94 -67 94 -62 94 C-68.27 93.01 -74.54 92.02 -81 91 C-92 87 -92 87 -95 84 C-93 80 -93 80 -83 76 C-71 74 -71 74 -39 74 C-39 70.7 -39 67.4 -39 64 C-30.762 19.514 -30.762 19.514 -17 3 C-11 0 -11 0 0 0 Z " fill="#ADC8E1" transform="translate(549,865)"/>
<path d="M0 0 C253.44 0 506.88 0 768 0 C768 102.63 768 205.26 768 311 C623.46 311 478.92 311 330 311 C330 307.7 330 304.4 330 301 C329.34 301 328.68 301 328 301 C328 304.3 328 307.6 328 311 C283.12 311 238.24 311 192 311 C192 308.03 192 305.06 192 302 C191.34 302 190.68 302 190 302 C190 304.97 190 307.94 190 311 C127.3 311 64.6 311 0 311 C0 208.37 0 105.74 0 0 Z " fill="#FEFEFE" transform="translate(0,0)"/>
<path d="M0 0 C89.43 0 178.86 0 271 0 C271 3.3 271 6.6 271 10 C271.33 10 271.66 10 272 10 C272 6.7 272 3.4 272 0 C371 0 371 0 373 1 C373 139.27 373 277.54 373 420 C369.667 416.667 366.333 413.333 363 410 C358 406 358 406 346 406 C344.68 406.66 343.36 407.32 342 408 C-81 408 -81 408 -90 405 C-90 275.97 -90 146.94 -90 14 C-66.24 14 -42.48 14 -18 14 C-21 17 -24 20 -27 23 C-27.33 23.66 -27.66 24.32 -28 25 C-27.175 24.175 -27.175 24.175 -23 20 C-12.787 12.34 -10.029 12.086 3 11 C2.01 10.67 1.02 10.34 0 10 C0 6.7 0 3.4 0 0 Z " fill="#CADFF1" transform="translate(192,458)"/>
<path d="M0 0 C100.32 0 200.64 0 304 0 C304 224.07 304 448.14 304 679 C277.93 679 251.86 679 225 679 C224.01 677.35 223.02 675.7 222 674 C224.31 673.34 226.62 672.68 229 672 C231 669 231 669 232 662 C233.98 661.34 235.96 660.68 238 660 C240 654 240 654 239 647 C238.34 646.34 237.68 645.68 237 645 C237.33 641.04 237.66 637.08 238 633 C237.67 632.01 237.34 631.02 237 630 C234.03 629.34 231.06 628.68 228 628 C227.67 625.69 227.34 623.38 227 621 C225 619 225 619 219 618 C218.01 616.02 217.02 614.04 216 612 C210 612 210 612 207 613 C206.01 611.35 205.02 609.7 204 608 C202 607 202 607 196 607 C195.175 607.825 195.175 607.825 191 612 C189 613 189 613 180 612 C176 616 176 616 174 621 C171.36 621 168.72 621 166 621 C161 624 161 624 159 628 C159 638 159 638 160 641 C158.35 642.32 156.7 643.64 155 645 C154 651 154 651 157 656 C158.98 656.99 160.96 657.98 163 659 C162.67 661.31 162.34 663.62 162 666 C165 671 165 671 172 674 C171.67 674.825 171.67 674.825 170 679 C140.96 679 111.92 679 82 679 C79 658 79 658 80 653 C80.66 653 81.32 653 82 653 C82.99 647.39 83.98 641.78 85 636 C86.98 630.72 88.96 625.44 91 620 C97.908 596.314 98.872 592.684 100 569 C100.66 569 101.32 569 102 569 C102 429.08 102 289.16 102 145 C68.34 145 34.68 145 0 145 C0 97.15 0 49.3 0 0 Z " fill="#FDFEFE" transform="translate(464,312)"/>
<path d="M0 0 C62.7 0 125.4 0 190 0 C190 47.52 190 95.04 190 144 C155.68 144 121.36 144 86 144 C86 280.95 86 417.9 86 559 C84.68 562.3 83.36 565.6 82 569 C82 592.878 87.206 616.412 98 638 C98.165 639.815 98.165 639.815 99 649 C99.99 650.32 100.98 651.64 102 653 C101.303 661.364 100.276 669.704 99 678 C66.33 678 33.66 678 0 678 C0 454.26 0 230.52 0 0 Z " fill="#FDFEFE" transform="translate(0,313)"/>
<path d="M0 0 C131.01 0 262.02 0 397 0 C396.505 1.485 396.505 1.485 394 9 C389 26 389 26 384 57 C375.75 57 367.5 57 359 57 C337 59.75 337 59.75 330 65 C330 70.61 330 76.22 330 82 C331.32 82.66 332.64 83.32 334 84 C332 105 332 105 331 110 C315.82 110 300.64 110 285 110 C285 88.88 285 67.76 285 46 C289.785 45.67 289.785 45.67 314 44 C342.5 39.5 342.5 39.5 347 35 C347 31.37 347 27.74 347 24 C336.091 13.091 317.524 14.32 303 13 C227.6 13 227.6 13 210 24 C210 26.97 210 29.94 210 33 C214 37 214 37 218 38 C215.69 36.68 213.38 35.36 211 34 C211 32.35 211 30.7 211 29 C215.62 30.65 220.24 32.3 225 34 C263.525 39.779 308.49 45.227 345 29 C345.66 29 346.32 29 347 29 C347 30.65 347 32.3 347 34 C316.866 54.089 265.4 45.822 231 42 C244.184 44.397 257.632 45.078 271 46 C271 67.12 271 88.24 271 110 C225.79 110 180.58 110 134 110 C134 88.88 134 67.76 134 46 C145.88 45.01 157.76 44.02 170 43 C187 39 187 39 195 34 C195 30.04 195 26.08 195 22 C153.95 8.317 99.993 4.226 60 22 C59.34 22.66 58.68 23.32 58 24 C58 27.3 58 30.6 58 34 C76.35 45.468 98.911 44.89 120 46 C120 67.12 120 88.24 120 110 C102.18 110 84.36 110 66 110 C64 94 64 94 64 83 C64.99 82.34 65.98 81.68 67 81 C67 75.72 67 70.44 67 65 C51.7 54.8 31.447 57 14 57 C13.588 54.773 13.175 52.545 12.75 50.25 C7.675 23.025 7.675 23.025 5.977 17.93 C3.984 11.953 1.992 5.977 0 0 Z " fill="#FDFDFD" transform="translate(124,881)"/>
<path d="M0 0 C121 0 121 0 125 3 C125 64.38 125 125.76 125 189 C124.34 189.66 123.68 190.32 123 191 C82.08 191 41.16 191 -1 191 C-38.405 141.127 -4 66.341 -4 4 C-2.68 2.68 -1.36 1.36 0 0 Z " fill="#ADC7DF" transform="translate(601,536)"/>
<path d="M0 0 C4 2 4 2 14 11 C14 119.866 14 228.733 14 405 C16.31 405 18.62 405 21 405 C30.977 411.651 34.198 418.224 40 429 C40.33 429.495 40.33 429.495 42 432 C47 450 47 450 51 475 C51.33 475.66 51.66 476.32 52 477 C59.92 477 67.84 477 76 477 C100 481 100 481 105 486 C105 491.28 105 496.56 105 502 C103.68 502.66 102.36 503.32 101 504 C101.66 509.28 102.32 514.56 103 520 C103 523.63 103 527.26 103 531 C120.82 531 138.64 531 157 531 C157 538.26 157 545.52 157 553 C139.84 553 122.68 553 105 553 C105.66 561.58 106.32 570.16 107 579 C106.67 579.33 106.34 579.66 106 580 C104.35 580 102.7 580 101 580 C95.938 572.407 96 562.935 96 554 C92.7 554 89.4 554 86 554 C86.66 559.94 87.32 565.88 88 572 C88.33 578.27 88.66 584.54 89 591 C88.67 591.33 88.34 591.66 88 592 C86.35 592 84.7 592 83 592 C81 589 81 589 80 577 C80 579.31 80 581.62 80 584 C79.67 584 79.34 584 79 584 C75 557 75 557 75 554 C65.76 554 56.52 554 47 554 C46.67 557.3 46.34 560.6 46 564 C45.039 572.948 45.039 572.948 42 577 C37 576 37 576 36 575 C36 560 36 560 37 555 C31.39 555 25.78 555 20 555 C18.35 564.9 16.7 574.8 15 585 C14.505 585.825 14.505 585.825 12 590 C10.35 590 8.7 590 7 590 C6.34 589.34 5.68 588.68 5 588 C6 572 6 572 9 554 C-22.68 554 -54.36 554 -87 554 C-87 546.41 -87 538.82 -87 531 C-54.33 531 -21.66 531 12 531 C12.165 528.855 12.165 528.855 13 518 C13.185 515.729 13.371 513.458 13.562 511.188 C13.604 510.689 13.604 510.689 13.816 508.168 C13.877 507.453 13.938 506.737 14 506 C13.505 505.34 13.505 505.34 11 502 C10.67 498.37 10.34 494.74 10 491 C8.02 485.72 6.04 480.44 4 475 C-2.174 456.479 -6 441.381 -6 422 C-5.34 421.67 -4.68 421.34 -4 421 C52.997 292.756 0 140.34 0 0 Z " fill="#506076" transform="translate(87,460)"/>
<path d="M0 0 C44.88 0 89.76 0 136 0 C136 47.85 136 95.7 136 145 C91.12 145 46.24 145 0 145 C0 97.15 0 49.3 0 0 Z " fill="#FDFDFD" transform="translate(192,312)"/>
<path d="M0 0 C43.89 0 87.78 0 133 0 C167.178 34.178 134 96.666 134 145 C89.78 145 45.56 145 0 145 C0 97.15 0 49.3 0 0 Z " fill="#FCFCFC" transform="translate(329,312)"/>
<path d="M0 0 C1 2 1 2 1 12 C-15.608 25.286 -40.752 24 -61 24 C-61 45.78 -61 67.56 -61 90 C-15.79 90 29.42 90 76 90 C76.33 96.93 76.66 103.86 77 111 C76.67 111.33 76.34 111.66 76 112 C31.12 112 -13.76 112 -60 112 C-59.67 118.6 -59.34 125.2 -59 132 C-56.03 132 -53.06 132 -50 132 C-35.623 134.054 -24.237 136.368 -13 146 C-12 152 -12 152 -15 157 C-46.496 174.18 -82.056 170.543 -116 163 C-122 163 -122 163 -133 167 C-165.877 173.164 -197.57 173.088 -229 161 C-237 155 -237 155 -241 150 C-241 144 -241 144 -237 138 C-230 133 -230 133 -226 133 C-226 136.96 -226 140.92 -226 145 C-225.67 145.33 -225.34 145.66 -225 146 C-223.35 146 -221.7 146 -220 146 C-215.731 137.463 -215.569 127.415 -214 118 C-213.34 116.02 -212.68 114.04 -212 112 C-206.39 112 -200.78 112 -195 112 C-195 118.6 -195 125.2 -195 132 C-193.35 132.33 -191.7 132.66 -190 133 C-185.828 126.743 -186.173 118.428 -185 111 C-175.76 111 -166.52 111 -157 111 C-155.474 118.631 -154.183 126.309 -153 134 C-152.67 132.68 -152.34 131.36 -152 130 C-150.3 135.099 -150.412 140.641 -150 146 C-149.67 146.66 -149.34 147.32 -149 148 C-147.35 148 -145.7 148 -144 148 C-144.643 135.665 -145.308 123.332 -146 111 C-142.7 111 -139.4 111 -136 111 C-134.333 119.333 -132.667 127.667 -131 136 C-129.35 136 -127.7 136 -126 136 C-126.33 131.71 -126.66 127.42 -127 123 C-127 118.71 -127 114.42 -127 110 C-109.84 110 -92.68 110 -75 110 C-75 81.62 -75 53.24 -75 24 C-81.27 24 -87.54 24 -94 24 C-130.8 19.2 -130.8 19.2 -138 12 C-138 8.7 -138 5.4 -138 2 C-107.47 -23.442 -32.947 -16.474 0 0 Z " fill="#52647B" transform="translate(319,903)"/>
<path d="M0 0 C89.43 0 178.86 0 271 0 C271 3.3 271 6.6 271 10 C271.33 10 271.66 10 272 10 C272 6.7 272 3.4 272 0 C371 0 371 0 373 1 C373 139.27 373 277.54 373 420 C369.667 416.667 366.333 413.333 363 410 C361.02 408.68 359.04 407.36 357 406 C357 276.64 357 147.28 357 14 C345.945 14.165 345.945 14.165 290 15 C292.97 17.64 295.94 20.28 299 23 C305.487 34.893 306 36.04 306 49 C305.67 49.33 305.34 49.66 305 50 C282.56 50 260.12 50 237 50 C236 48 236 48 237 37 C240.77 27.574 244.157 20.895 253 15 C220.66 15 188.32 15 155 15 C157.64 16.98 160.28 18.96 163 21 C171 34.333 171 34.333 171 49 C170.67 49.33 170.34 49.66 170 50 C148.22 50 126.44 50 104 50 C103.67 49.67 103.34 49.34 103 49 C103 33.342 105.984 27.016 117 16 C117.66 15.67 118.32 15.34 119 15 C85.34 15 51.68 15 17 15 C19.31 16.65 21.62 18.3 24 20 C31.822 31.733 33 34.524 33 49 C32.67 49.33 32.34 49.66 32 50 C9.89 50 -12.22 50 -35 50 C-35.33 49.67 -35.66 49.34 -36 49 C-36 34.297 -31.532 28.532 -22 19 C-12.524 12.232 -9.037 12.003 3 11 C2.01 10.67 1.02 10.34 0 10 C0 6.7 0 3.4 0 0 Z " fill="#758699" transform="translate(192,458)"/>
<path d="M0 0 C8 5 8 5 13 14 C18.053 39.264 9.337 62.657 0 86 C-0.33 89.3 -0.66 92.6 -1 96 C-3 100 -3 100 -5 101 C-4.67 103.805 -4.67 103.805 -3 118 C-3 120.64 -3 123.28 -3 126 C11.52 125.835 11.52 125.835 85 125 C85.33 124.34 85.33 124.34 87 121 C86.01 120.835 86.01 120.835 81 120 C77 116 77 116 76 109 C76.33 108.34 76.66 107.68 77 107 C76.01 106.34 76.01 106.34 71 103 C68 98 68 98 69 92 C69.66 91.34 69.66 91.34 73 88 C73.66 88 74.32 88 75 88 C74.67 86.68 74.34 85.36 74 84 C75.32 85.32 76.64 86.64 78 88 C77.01 88.66 76.02 89.32 75 90 C74.34 90.495 74.34 90.495 71 93 C71 95.31 71 97.62 71 100 C75 103 75 103 80 104 C79.67 107.3 79.34 110.6 79 114 C79.99 115.32 80.98 116.64 82 118 C91 118 91 118 94 117 C94.99 118.65 95.98 120.3 97 122 C101 124 101 124 108 123 C108.66 122.505 108.66 122.505 112 120 C110 124 110 124 107 126 C99 126 99 126 94 122 C93.34 121.34 92.68 120.68 92 120 C87.126 124.874 85.345 129.277 84 136 C84 150 84 150 86 159 C85.34 158.67 84.68 158.34 84 158 C83.67 156.515 83.67 156.515 82 149 C55.27 149 28.54 149 1 149 C2.32 158.57 3.64 168.14 5 178 C5 179.65 5 181.3 5 183 C4.34 183.66 3.68 184.32 3 185 C1.35 185 -0.3 185 -2 185 C-2.66 184.34 -3.32 183.68 -4 183 C-3.67 182.01 -3.34 181.02 -3 180 C-2.34 180.99 -1.68 181.98 -1 183 C-0.01 183 0.98 183 2 183 C0.182 157.554 -3.735 132.301 -7 107 C-7 105.35 -7 103.7 -7 102 C-8.65 102.66 -10.3 103.32 -12 104 C-13.32 104 -14.64 104 -16 104 C-15.01 110.93 -14.02 117.86 -13 125 C-13.33 125.165 -13.33 125.165 -15 126 C-18 109 -18 109 -18 105 C-20.31 105.33 -20.31 105.33 -32 107 C-32 109.31 -32 111.62 -32 114 C-32.33 114 -32.66 114 -33 114 C-33 111.69 -33 109.38 -33 107 C-35.97 107 -38.94 107 -42 107 C-40.35 117.89 -38.7 128.78 -37 140 C-37 142.97 -37 145.94 -37 149 C-46.57 149 -56.14 149 -66 149 C-66.33 153.95 -66.66 158.9 -67 164 C-70 185 -70 185 -72 188 C-76 187 -76 187 -78 185 C-76.828 167.984 -75.547 150.986 -74 134 C-74 131.36 -74 128.72 -74 126 C-74.33 126.33 -74.66 126.66 -75 127 C-75 131.29 -75 135.58 -75 140 C-75.33 142.64 -75.66 145.28 -76 148 C-79.3 148 -82.6 148 -86 148 C-85.835 145.525 -85.835 145.525 -85 133 C-86.98 146.2 -88.96 159.4 -91 173 C-91.33 173.33 -91.66 173.66 -92 174 C-93.65 174 -95.3 174 -97 174 C-95.779 149.586 -92.75 125.29 -90 101 C-89.01 101 -88.02 101 -87 101 C-88.98 99.68 -90.96 98.36 -93 97 C-93.66 96.34 -94.32 95.68 -95 95 C-95 92.03 -95 89.06 -95 86 C-91.37 87.65 -87.74 89.3 -84 91 C-67 94 -67 94 -62 94 C-68.27 93.01 -74.54 92.02 -81 91 C-92 87 -92 87 -95 84 C-93 80 -93 80 -83 76 C-71 74 -71 74 -39 74 C-39 70.7 -39 67.4 -39 64 C-30.762 19.514 -30.762 19.514 -17 3 C-11 0 -11 0 0 0 Z " fill="#6E7D90" transform="translate(549,865)"/>
<path d="M0 0 C0.825 0.66 0.825 0.66 5 4 C5 4.99 5 5.98 5 7 C5.99 6.34 6.98 5.68 8 5 C9.98 5 11.96 5 14 5 C17 9 17 9 17 12 C18.98 12 20.96 12 23 12 C23.99 12.99 24.98 13.98 26 15 C26 17.31 26 19.62 26 22 C27.98 22 29.96 22 32 22 C33.65 23.65 35.3 25.3 37 27 C36.67 30.96 36.34 34.92 36 39 C36.99 40.32 37.98 41.64 39 43 C38 51 38 51 34 55 C32.68 55.33 31.36 55.66 30 56 C30 58.31 30 60.62 30 63 C25 68 25 68 21 69 C21.33 69.495 21.33 69.495 23 72 C49.07 72.33 75.14 72.66 102 73 C102 80.59 102 88.18 102 96 C76.92 96.33 51.84 96.66 26 97 C25.01 100.96 24.02 104.92 23 109 C24.65 109.66 26.3 110.32 28 111 C29.65 112.98 31.3 114.96 33 117 C32 123 32 123 27 128 C9.319 136.84 -6.8 135.4 -26 133 C-38.857 127.286 -38.857 127.286 -41 123 C-41 117 -41 117 -37 112 C-36.01 111.67 -36.01 111.67 -31 110 C-33 101 -33 101 -34 97 C-34 84.474 -33.902 77.352 -27 67 C-26.505 66.835 -26.505 66.835 -24 66 C-22.68 67.65 -21.36 69.3 -20 71 C-18 72 -18 72 -10 72 C-9.67 71.67 -9.34 71.34 -9 71 C-10.155 71.165 -10.155 71.165 -16 72 C-22 68 -22 68 -24 65 C-24.33 65.165 -24.33 65.165 -26 66 C-28.97 66 -31.94 66 -35 66 C-39 61 -39 61 -39 55 C-38.34 53.68 -37.68 52.36 -37 51 C-39.31 50.67 -41.62 50.34 -44 50 C-44.99 49.01 -45.98 48.02 -47 47 C-47 44.69 -47 42.38 -47 40 C-42 36 -42 36 -40 35 C-40.99 34.01 -41.98 33.02 -43 32 C-43.33 32 -43.66 32 -44 32 C-44 22 -44 22 -41 17 C-36 14 -36 14 -30 14 C-29.34 14.33 -28.68 14.66 -28 15 C-27.67 13.35 -27.34 11.7 -27 10 C-25.35 8.35 -23.7 6.7 -22 5 C-18.7 5.33 -15.4 5.66 -12 6 C-10.68 4.35 -9.36 2.7 -8 1 C-6 0 -6 0 0 0 Z " fill="#91C7BD" transform="translate(666,918)"/>
<path d="M0 0 C10 70 10 70 10 81 C6 82 6 82 5 82 C6.65 82 8.3 82 10 82 C10.33 81.67 10.66 81.34 11 81 C10.67 76.38 10.34 71.76 10 67 C17.59 70.253 22.687 72.812 27 80 C27 86 27 86 20 94 C-14.778 111.389 -53.118 110.059 -90 100 C-98 101 -98 101 -106 103 C-133.74 106.963 -167.464 109.357 -192 93 C-195 90 -195 90 -196 84 C-184.485 69.607 -164.926 68.991 -148 67 C-147 68 -147 68 -147 73 C-150.135 73.495 -150.135 73.495 -166 76 C-168.97 77.32 -171.94 78.64 -175 80 C-175.66 80 -176.32 80 -177 80 C-176.67 82.31 -176.34 84.62 -176 87 C-152.571 96.762 -127.842 96.67 -104 88 C-103.34 87.34 -102.68 86.68 -102 86 C-102 84.35 -102 82.7 -102 81 C-112.015 75.993 -121.947 74.382 -133 73 C-133 64.42 -133 55.84 -133 47 C-118.81 47 -104.62 47 -90 47 C-90.33 55.25 -90.66 63.5 -91 72 C-90.67 72.33 -90.34 72.66 -90 73 C-88.35 73 -86.7 73 -85 73 C-81.844 65.109 -81.261 56.404 -80 48 C-76.7 48 -73.4 48 -70 48 C-70.33 54.93 -70.66 61.86 -71 69 C-71 73.95 -71 78.9 -71 84 C-69.35 84 -67.7 84 -66 84 C-65.67 84.33 -65.34 84.66 -65 85 C-61.89 72.559 -60.695 59.711 -59 47 C-49.43 47 -39.86 47 -30 47 C-31.65 35.12 -33.3 23.24 -35 11 C-35 9.02 -35 7.04 -35 5 C-31.7 5 -28.4 5 -25 5 C-22.03 4.34 -19.06 3.68 -16 3 C-14.35 3 -12.7 3 -11 3 C-10.34 5.97 -10.34 5.97 -7 21 C-7.33 19.185 -7.33 19.185 -9 10 C-9 7.36 -9 4.72 -9 2 C-2 0 -2 0 0 0 Z " fill="#9BBAD8" transform="translate(542,967)"/>
<path d="M0 0 C9.24 0 18.48 0 28 0 C29.526 7.631 30.817 15.309 32 23 C32.33 21.68 32.66 20.36 33 19 C34.7 24.099 34.588 29.641 35 35 C35.33 35.66 35.66 36.32 36 37 C37.65 37 39.3 37 41 37 C40.357 24.665 39.692 12.332 39 0 C42.3 0 45.6 0 49 0 C50.667 8.333 52.333 16.667 54 25 C54.33 25.33 54.66 25.66 55 26 C56.65 26 58.3 26 60 26 C60 13 60 13 59 0 C75.83 0 92.66 0 110 0 C110 8.58 110 17.16 110 26 C106.865 26.495 106.865 26.495 91 29 C88.03 30.32 85.06 31.64 82 33 C81.34 33 80.68 33 80 33 C80 34.98 80 36.96 80 39 C101.329 51.188 125.873 47.625 149 43 C150.98 41.68 152.96 40.36 155 39 C155 37.02 155 35.04 155 33 C144.434 28.774 135.474 27.434 124 26 C124 17.42 124 8.84 124 0 C169.21 0 214.42 0 261 0 C261 0.33 261 0.66 261 1 C216.12 1 171.24 1 125 1 C125.33 7.6 125.66 14.2 126 21 C128.97 21 131.94 21 135 21 C149.377 23.054 160.763 25.368 172 35 C173 41 173 41 170 46 C138.504 63.18 102.944 59.543 69 52 C63 52 63 52 52 56 C19.123 62.164 -12.57 62.088 -44 50 C-52 44 -52 44 -56 39 C-56 33 -56 33 -52 27 C-45 22 -45 22 -41 22 C-41 25.96 -41 29.92 -41 34 C-40.67 34.33 -40.34 34.66 -40 35 C-38.35 35 -36.7 35 -35 35 C-30.731 26.463 -30.569 16.415 -29 7 C-28.34 5.02 -27.68 3.04 -27 1 C-21.39 1 -15.78 1 -10 1 C-10 7.6 -10 14.2 -10 21 C-8.35 21.33 -6.7 21.66 -5 22 C-0.828 15.743 -1.173 7.428 0 0 Z " fill="#99B9D7" transform="translate(134,1014)"/>
<path d="M0 0 C0 138.27 0 276.54 0 419 C-3.333 415.667 -6.667 412.333 -10 409 C-10.66 408.505 -10.66 408.505 -14 406 C-14 275.98 -14 145.96 -14 12 C-1 0 -1 0 0 0 Z " fill="#EDF5FA" transform="translate(565,459)"/>
<path d="M0 0 C4 2 4 2 14 11 C14 140.69 14 270.38 14 404 C11.36 404.66 8.72 405.32 6 406 C5.01 406.66 5.01 406.66 0 410 C0 274.7 0 139.4 0 0 Z " fill="#EBF2F8" transform="translate(87,460)"/>
<path d="M0 0 C121 0 121 0 125 3 C125 64.38 125 125.76 125 189 C124.34 189.66 123.68 190.32 123 191 C82.08 191 41.16 191 -1 191 C-38.405 141.127 -4 66.341 -4 4 C-2.68 2.68 -1.36 1.36 0 0 Z M8 9 C7.34 9.66 6.68 10.32 6 11 C6 67.1 6 123.2 6 181 C6.33 181.33 6.66 181.66 7 182 C42.64 182 78.28 182 115 182 C115.33 181.67 115.66 181.34 116 181 C116 124.9 116 68.8 116 11 C115.67 10.67 115.67 10.67 114 9 C79.02 9 44.04 9 8 9 Z " fill="#8BA6C0" transform="translate(601,536)"/>
<path d="M0 0 C2.31 0 4.62 0 7 0 C16.977 6.651 20.198 13.224 26 24 C26.33 24.495 26.33 24.495 28 27 C33 45 33 45 37 70 C37.33 70.66 37.66 71.32 38 72 C45.92 72 53.84 72 62 72 C86 76 86 76 91 81 C91 86.28 91 91.56 91 97 C90.34 97.33 90.34 97.33 87 99 C87.33 101.64 87.33 101.64 89 115 C89 118.63 89 122.26 89 126 C106.82 126 124.64 126 143 126 C143 133.26 143 140.52 143 148 C125.51 148.33 108.02 148.66 90 149 C89.34 142.4 88.68 135.8 88 129 C87.34 124.71 86.68 120.42 86 116 C85.67 112.37 85.34 108.74 85 105 C84.67 104.01 84.34 103.02 84 102 C81.03 102.99 78.06 103.98 75 105 C74.67 104.34 74.34 103.68 74 103 C78.62 101.02 83.24 99.04 88 97 C89 95 89 95 89 87 C88.34 87.495 88.34 87.495 85 90 C74.232 93.23 71.357 94 60 94 C60 93.67 60 93.34 60 93 C66.6 91.68 73.2 90.36 80 89 C82.64 87.68 85.28 86.36 88 85 C88 83.68 88 82.36 88 81 C58.063 69.025 31.6 75.3 3 87 C15.915 95.61 45.806 93.529 59 94 C59 94.33 59 94.66 59 95 C13.75 95 13.75 95 -2 88 C-1.67 89.815 -1.67 89.815 0 99 C3.96 99.99 7.92 100.98 12 102 C8 104 8 104 4 103 C-0.351 118.23 -1.035 134.283 -3 150 C-3.66 149.34 -4.32 148.68 -5 148 C-4.34 141.73 -3.68 135.46 -3 129 C-35.34 128.67 -67.68 128.34 -101 128 C-101 127.34 -101 126.68 -101 126 C-68.33 126 -35.66 126 -2 126 C-1.67 121.71 -1.34 117.42 -1 113 C-0.815 110.729 -0.629 108.458 -0.438 106.188 C-0.396 105.689 -0.396 105.689 -0.184 103.168 C-0.123 102.453 -0.062 101.737 0 101 C-0.495 100.34 -0.495 100.34 -3 97 C-3.33 93.37 -3.66 89.74 -4 86 C-5.98 80.72 -7.96 75.44 -10 70 C-16.174 51.479 -20 36.381 -20 17 C-19.67 16.835 -19.67 16.835 -18 16 C-16.35 12.04 -14.7 8.08 -13 4 C-6.621 -1.103 -6.621 -1.103 0 0 Z " fill="#697788" transform="translate(101,865)"/>
<path d="M0 0 C9 8 9 8 12 12 C12 12.66 12 13.32 12 14 C14.31 13.34 16.62 12.68 19 12 C38.919 12 45.509 12.119 60 25 C65 33 65 33 66 38 C15.51 38 -34.98 38 -87 38 C-87 28.1 -87 18.2 -87 8 C-81.465 6.616 -75.689 6.438 -70 6 C-67.69 3.36 -65.38 0.72 -63 -2 C-40.957 -15.226 -21.681 -12.648 0 0 Z " fill="#DEECF6" transform="translate(190,667)"/>
<path d="M0 0 C0.66 0 1.32 0 2 0 C2 3.3 2 6.6 2 10 C45.89 10 89.78 10 135 10 C135 6.7 135 3.4 135 0 C135.33 0 135.66 0 136 0 C136 3.3 136 6.6 136 10 C236.32 10 336.64 10 440 10 C440 10.33 440 10.66 440 11 C339.68 11 239.36 11 136 11 C136 58.85 136 106.7 136 156 C169.66 156 203.32 156 238 156 C238 295.92 238 435.84 238 580 C237.34 580 236.68 580 236 580 C236 585.61 236 591.22 236 597 C235.67 597 235.34 597 235 597 C234.67 592.38 234.34 587.76 234 583 C229.647 569.941 229.647 569.941 221 565 C219.02 564.67 217.04 564.34 215 564 C215 563.67 215 563.34 215 563 C217.31 563 219.62 563 222 563 C222 446.51 222 330.02 222 210 C222.33 210 222.66 210 223 210 C223.33 326.82 223.66 443.64 224 564 C225.32 564.99 225.32 564.99 232 570 C233.32 571.98 234.64 573.96 236 576 C236.165 507.03 236.165 507.03 237 158 C203.67 157.67 170.34 157.34 136 157 C136 160.3 136 163.6 136 167 C136.66 167.33 137.32 167.66 138 168 C136.68 167.67 135.36 167.34 134 167 C134.33 163.7 134.66 160.4 135 157 C134.305 157.007 134.305 157.007 130.79 157.045 C112.527 157.236 94.264 157.406 76 157.562 C75.256 157.569 74.512 157.575 73.745 157.582 C23.68 158.01 -26.372 157.988 -76.438 157.562 C-76.815 157.559 -76.815 157.559 -78.726 157.543 C-97.817 157.381 -116.909 157.201 -136 157 C-136 160.3 -136 163.6 -136 167 C-134.02 167 -132.04 167 -130 167 C-133 169 -133 169 -145 170 C-154.794 174.353 -159.77 177.278 -166 186 C-166.33 185.34 -166.66 184.68 -167 184 C-160 175 -160 175 -156 172 C-167.55 171.835 -167.55 171.835 -226 171 C-225.67 300.69 -225.34 430.38 -225 564 C-226.32 564.33 -227.64 564.66 -229 565 C-229.99 564.34 -230.98 563.68 -232 563 C-230.35 563 -228.7 563 -227 563 C-227.33 433.31 -227.66 303.62 -228 170 C-239 160 -239 160 -241 159 C-240.67 294.96 -240.34 430.92 -240 571 C-241.32 573.97 -242.64 576.94 -244 580 C-244.165 580.825 -244.165 580.825 -245 585 C-245.33 585 -245.66 585 -246 585 C-246 578 -246 578 -243 571 C-242.835 502.525 -242.835 502.525 -242 156 C-207.68 156 -173.36 156 -138 156 C-138 108.48 -138 60.96 -138 12 C-200.7 12 -263.4 12 -328 12 C-328 11.34 -328 10.68 -328 10 C-265.3 10 -202.6 10 -138 10 C-138 7.03 -138 4.06 -138 1 C-137.34 1 -136.68 1 -136 1 C-136 3.97 -136 6.94 -136 10 C-91.12 10 -46.24 10 0 10 C0 6.7 0 3.4 0 0 Z M-136 11 C-136 58.85 -136 106.7 -136 156 C-91.12 156 -46.24 156 0 156 C0 108.15 0 60.3 0 11 C-44.88 11 -89.76 11 -136 11 Z M1 11 C1 58.85 1 106.7 1 156 C45.22 156 89.44 156 135 156 C135 108.48 135 60.96 135 12 C134.67 11.67 134.34 11.34 134 11 C90.11 11 46.22 11 1 11 Z " fill="#445467" transform="translate(328,301)"/>
<path d="M0 0 C-5.148 5.148 -13.876 4.5 -21 6 C-8 4 -8 4 2 1 C2 9 2 9 -1 13 C-20.687 18.625 -34.957 19 -56 19 C-55.67 19.33 -55.34 19.66 -55 20 C-49.72 20 -44.44 20 -39 20 C-36 36 -36 36 -35.062 43.438 C-34.967 44.191 -34.872 44.944 -34.774 45.72 C-34.135 50.81 -33.567 55.9 -33 61 C-42.24 61 -51.48 61 -61 61 C-62.98 73.54 -64.96 86.08 -67 99 C-68.65 99 -70.3 99 -72 99 C-76.211 82.156 -70.442 64.302 -69 47 C-69 44.36 -69 41.72 -69 39 C-69.33 39.33 -69.66 39.66 -70 40 C-70 44.29 -70 48.58 -70 53 C-70.33 55.64 -70.66 58.28 -71 61 C-74.3 61 -77.6 61 -81 61 C-80.67 56.05 -80.34 51.1 -80 46 C-81.98 59.2 -83.96 72.4 -86 86 C-86.165 86.165 -86.165 86.165 -87 87 C-88.65 87 -90.3 87 -92 87 C-90.779 62.586 -87.75 38.29 -85 14 C-84.01 14 -83.02 14 -82 14 C-83.98 12.68 -85.96 11.36 -88 10 C-88.66 9.34 -89.32 8.68 -90 8 C-90 5.03 -90 2.06 -90 -1 C-86.37 0.65 -82.74 2.3 -79 4 C-62 7 -62 7 -57 7 C-60.135 6.505 -60.135 6.505 -76 4 C-87 0 -87 0 -90 -3 C-88 -7 -88 -7 -78 -11 C-48.105 -15.983 -27.164 -11.319 0 0 Z " fill="#6F7B8A" transform="translate(544,952)"/>
<path d="M0 0 C136.95 0 273.9 0 415 0 C413 4 413 4 408 11 C276 11 144 11 8 11 C0 1 0 1 0 0 Z " fill="#EFF8FC" transform="translate(115,868)"/>
<path d="M0 0 C9 7 9 7 12 11 C15.3 11 18.6 11 22 11 C22 20.9 22 30.8 22 41 C-22.22 41 -66.44 41 -112 41 C-109 32 -109 32 -100 22 C-86.939 15.47 -77.635 15.67 -63 17 C-61.02 14.69 -59.04 12.38 -57 10 C-38.188 -3.682 -22.799 -8.291 0 0 Z " fill="#DDEBF5" transform="translate(527,575)"/>
<path d="M0 0 C11.453 11.453 10 19.893 10 36 C9.34 38.64 8.68 41.28 8 44 C9.65 44.66 11.3 45.32 13 46 C14.65 47.98 16.3 49.96 18 52 C17 58 17 58 12 63 C-5.681 71.84 -21.8 70.4 -41 68 C-53.857 62.286 -53.857 62.286 -56 58 C-56 52 -56 52 -52 47 C-50.02 46.34 -48.04 45.68 -46 45 C-48 36 -48 36 -49 32 C-49 19.474 -48.902 12.352 -42 2 C-41.01 1.67 -40.02 1.34 -39 1 C-37.68 2.65 -36.36 4.3 -35 6 C-33 7 -33 7 -25 7 C-23.35 5.35 -21.7 3.7 -20 2 C-17 2 -17 2 -12 5 C-9.69 5 -7.38 5 -5 5 C-3.35 3.35 -1.7 1.7 0 0 Z " fill="#8AB8DB" transform="translate(681,983)"/>
<path d="M0 0 C7 1 7 1 9 2 C432 2 432 2 436 0 C438.64 0 441.28 0 444 0 C441 2 441 2 430 5 C429.34 6.32 428.68 7.64 428 9 C426.02 11.64 424.04 14.28 422 17 C414.356 36.11 410.049 55.511 408 76 C402.72 76.165 402.72 76.165 376 77 C360 80 360 80 353 84 C355 88 355 88 366 92 C385 95 385 95 411 96 C411 96.33 411 96.66 411 97 C369 97 369 97 353 89 C353 91.64 353 94.28 353 97 C355.968 99.374 358.96 101.72 362 104 C360.35 103.67 358.7 103.34 357 103 C356.67 108.28 356.34 113.56 356 119 C355.505 123.95 355.505 123.95 353 149 C339.282 155.859 322.337 150 307 150 C307 142.74 307 135.48 307 128 C322.18 128 337.36 128 353 128 C353.787 119.343 354.422 110.673 355 102 C353.68 100.68 352.36 99.36 351 98 C351 93.05 351 88.1 351 83 C366.372 72.02 384.845 74 403 74 C403.99 74.33 404.98 74.66 406 75 C406.33 70.38 406.66 65.76 407 61 C412.846 30.308 412.846 30.308 419 18 C287.99 18 156.98 18 22 18 C22.99 19.98 23.98 21.96 25 24 C24.67 24.99 24.34 25.98 24 27 C21.69 22.38 19.38 17.76 17 13 C10 5 10 5 0 1 C0 0.67 0 0.34 0 0 Z M13 5 C19 14 19 14 21 16 C153 16 285 16 421 16 C427 8 427 8 428 5 C291.05 5 154.1 5 13 5 Z " fill="#778595" transform="translate(102,863)"/>
<path d="M0 0 C45.21 0 90.42 0 137 0 C137 6.6 137 13.2 137 20 C91.79 20 46.58 20 0 20 C0 13.4 0 6.8 0 0 Z " fill="#C6DDF0" transform="translate(258,993)"/>
<path d="M0 0 C0.33 1.32 0.66 2.64 1 4 C-29.028 24.019 -79.289 15.635 -112 12 C-128 8 -128 8 -134 4 C-133.67 2.68 -133.34 1.36 -133 0 C-121.879 -6.355 -117.379 -7.044 -104 -8 C-71.194 -11.281 -30.489 -15.245 0 0 Z " fill="#A3C5E3" transform="translate(317,904)"/>
<path d="M0 0 C0.33 0.66 0.33 0.66 2 4 C-20.627 20.97 -73.239 14 -95 14 C-129.273 8.727 -129.273 8.727 -134 4 C-133 0 -133 0 -128 -3 C-89.941 -12.515 -36.503 -18.252 0 0 Z " fill="#A3C5E3" transform="translate(469,904)"/>
<path d="M0 0 C8.469 9.881 9 16.02 9 29 C5.598 47.711 -0.409 65.837 -6 84 C-14.106 81.298 -22.037 78.097 -30 75 C-31.65 74.67 -33.3 74.34 -35 74 C-35 48.756 -29.379 22.655 -13 3 C-7 0 -7 0 0 0 Z " fill="#FCFCFC" transform="translate(545,865)"/>
<path d="M0 0 C14.278 9.519 18.029 23.092 23 39 C27 60 27 60 28 73 C21.4 75.31 14.8 77.62 8 80 C5.03 81.32 2.06 82.64 -1 84 C-20.545 25.364 -20.545 25.364 -12 4 C-7 0 -7 0 0 0 Z " fill="#FCFDFC" transform="translate(108,865)"/>
<path d="M0 0 C10 70 10 70 10 81 C8.68 81.33 7.36 81.66 6 82 C-1.732 72.335 -3 60.577 -3 48 C-8.61 48 -14.22 48 -20 48 C-19.67 54.6 -19.34 61.2 -19 68 C-19.66 68.66 -20.32 69.32 -21 70 C-21.99 69.835 -21.99 69.835 -27 69 C-27.99 66.03 -28.98 63.06 -30 60 C-39.9 60 -49.8 60 -60 60 C-59.67 55.71 -59.34 51.42 -59 47 C-49.43 47 -39.86 47 -30 47 C-31.65 35.12 -33.3 23.24 -35 11 C-35 9.02 -35 7.04 -35 5 C-31.7 5 -28.4 5 -25 5 C-22.03 4.34 -19.06 3.68 -16 3 C-14.35 3 -12.7 3 -11 3 C-9.68 8.94 -8.36 14.88 -7 21 C-7.66 17.37 -8.32 13.74 -9 10 C-9 7.36 -9 4.72 -9 2 C-2 0 -2 0 0 0 Z " fill="#68798D" transform="translate(542,967)"/>
<path d="M0 0 C1.98 1.32 3.96 2.64 6 4 C4 8 4 8 -4 12 C-8.62 12.99 -13.24 13.98 -18 15 C-9.104 14.012 -1.746 12.648 6 8 C6 10.97 6 13.94 6 17 C-2.714 25.714 -11.872 25.86 -24 28 C-64 28 -64 28 -82 22 C-85 19 -85 19 -86 17 C-86 14.69 -86 12.38 -86 10 C-83.03 10.99 -80.06 11.98 -77 13 C-58 16 -58 16 -53 16 C-59.93 15.01 -66.86 14.02 -74 13 C-76.97 12.01 -79.94 11.02 -83 10 C-63.036 -9.964 -23.741 -5.935 0 0 Z " fill="#FCFCFC" transform="translate(185,943)"/>
<path d="M0 0 C-5.148 5.148 -13.876 4.5 -21 6 C-8 4 -8 4 2 1 C2 9 2 9 -1 13 C-29.023 21.007 -58.47 22.589 -86 12 C-87.32 10.68 -88.64 9.36 -90 8 C-90 5.03 -90 2.06 -90 -1 C-86.37 0.65 -82.74 2.3 -79 4 C-62 7 -62 7 -57 7 C-60.135 6.505 -60.135 6.505 -76 4 C-87 0 -87 0 -90 -3 C-88 -7 -88 -7 -78 -11 C-48.105 -15.983 -27.164 -11.319 0 0 Z " fill="#FBFCFB" transform="translate(544,952)"/>
<path d="M0 0 C32.67 0 65.34 0 99 0 C97 17 97 17 96 20 C64.32 20 32.64 20 0 20 C0 13.4 0 6.8 0 0 Z " fill="#C5DCEF" transform="translate(0,993)"/>
<path d="M0 0 C2 4 2 4 4 24 C4.33 25.32 4.66 26.64 5 28 C5.41 32.319 5.819 36.638 6.227 40.958 C6.365 42.421 6.504 43.884 6.643 45.347 C7.518 54.559 8.329 63.771 9 73 C8.67 73.33 8.34 73.66 8 74 C6.35 74 4.7 74 3 74 C-2.062 66.407 -2 56.935 -2 48 C-5.3 48 -8.6 48 -12 48 C-11.34 53.94 -10.68 59.88 -10 66 C-9.835 69.135 -9.835 69.135 -9 85 C-9.33 85.33 -9.66 85.66 -10 86 C-11.65 86 -13.3 86 -15 86 C-17 83 -17 83 -18 70 C-18.99 64.39 -19.98 58.78 -21 53 C-27 11 -27 11 -27 6 C-23.7 5.67 -20.4 5.34 -17 5 C-17.33 4.67 -17.66 4.34 -18 4 C-18 3.67 -18 3.34 -18 3 C-10 2 -10 2 -8 3 C-5.36 2.01 -2.72 1.02 0 0 Z " fill="#768495" transform="translate(185,966)"/>
<path d="M0 0 C5 2 5 2 6 3 C6 64.38 6 125.76 6 189 C-28.951 212.3 -77.995 191 -120 191 C-120.66 189.68 -121.32 188.36 -122 187 C-122.66 186.67 -123.32 186.34 -124 186 C-83.74 185.67 -43.48 185.34 -2 185 C41.607 141.393 -0.335 61.669 0 0 Z " fill="#D6E3ED" transform="translate(726,541)"/>
<path d="M0 0 C28.38 0 56.76 0 86 0 C85.34 2.31 84.68 4.62 84 7 C83.67 11.29 83.34 15.58 83 20 C56.27 20 29.54 20 2 20 C0 8 0 8 0 0 Z " fill="#C4DCEF" transform="translate(547,993)"/>
<path d="M0 0 C44.88 0 89.76 0 136 0 C136 3.3 136 6.6 136 10 C91.615 19.863 44.385 19.863 0 10 C0 6.7 0 3.4 0 0 Z " fill="#EBF3F8" transform="translate(192,458)"/>
<path d="M0 0 C0.66 0 1.32 0 2 0 C2 3.3 2 6.6 2 10 C45.89 10 89.78 10 135 10 C135 6.7 135 3.4 135 0 C135.33 0 135.66 0 136 0 C136 3.3 136 6.6 136 10 C236.32 10 336.64 10 440 10 C440 10.33 440 10.66 440 11 C339.68 11 239.36 11 136 11 C136 58.85 136 106.7 136 156 C135.67 156 135.34 156 135 156 C134.835 132.24 134.835 132.24 134 12 C90.11 11.67 46.22 11.34 1 11 C1 58.85 1 106.7 1 156 C0.67 156 0.34 156 0 156 C0 108.15 0 60.3 0 11 C-44.88 11 -89.76 11 -136 11 C-136 58.85 -136 106.7 -136 156 C-136.66 156 -137.32 156 -138 156 C-138 108.48 -138 60.96 -138 12 C-200.7 12 -263.4 12 -328 12 C-328 11.34 -328 10.68 -328 10 C-265.3 10 -202.6 10 -138 10 C-138 7.03 -138 4.06 -138 1 C-137.34 1 -136.68 1 -136 1 C-136 3.97 -136 6.94 -136 10 C-91.12 10 -46.24 10 0 10 C0 6.7 0 3.4 0 0 Z " fill="#536377" transform="translate(328,301)"/>
<path d="M0 0 C43.89 0 87.78 0 133 0 C133 3.3 133 6.6 133 10 C89.455 18.709 43.197 20.799 0 10 C0 6.7 0 3.4 0 0 Z " fill="#EAF2F7" transform="translate(330,458)"/>
<path d="M0 0 C9 8 9 8 15 20 C15 21.98 15 23.96 15 26 C-6.45 26 -27.9 26 -50 26 C-50 14.301 -45.056 9.056 -37 1 C-23.779 -5.61 -14.208 -5.167 0 0 Z " fill="#9CC2E2" transform="translate(481,474)"/>
<path d="M0 0 C10.538 9.484 14.256 13.28 17 27 C-4.78 27 -26.56 27 -49 27 C-47.797 18.581 -45.322 12.653 -40 6 C-26.145 -3.699 -16.761 -5.587 0 0 Z " fill="#9CC3E2" transform="translate(207,473)"/>
<path d="M0 0 C9.656 8.449 11.548 10.758 16 23 C16 23.99 16 24.98 16 26 C-5.45 26 -26.9 26 -49 26 C-47.702 14.32 -44.265 9.265 -36 1 C-23.142 -5.429 -13.834 -5.534 0 0 Z " fill="#9DC3E2" transform="translate(346,474)"/>
<path d="M0 0 C25.74 0 51.48 0 78 0 C78 6.6 78 13.2 78 20 C52.92 20 27.84 20 2 20 C2 16.04 2 12.08 2 8 C1.34 5.36 0.68 2.72 0 0 Z " fill="#C4DCEF" transform="translate(690,993)"/>
<path d="M0 0 C3.63 0 7.26 0 11 0 C11 39.93 11 79.86 11 121 C10.835 121.165 10.835 121.165 10 122 C7.03 122 4.06 122 1 122 C0.67 121.67 0.34 121.34 0 121 C0 81.07 0 41.14 0 0 Z " fill="#94BBDE" transform="translate(246,927)"/>
<path d="M0 0 C3.63 0 7.26 0 11 0 C11 39.93 11 79.86 11 121 C10.835 121.165 10.835 121.165 10 122 C7.03 122 4.06 122 1 122 C0.67 121.67 0.34 121.34 0 121 C0 81.07 0 41.14 0 0 Z " fill="#97BCDE" transform="translate(397,927)"/>
<path d="M0 0 C20.46 0 40.92 0 62 0 C62 8.783 58.511 13.386 53 20 C41.58 26.852 39.226 28 26 28 C16 24 16 24 12 22 C12 21.34 12 20.68 12 20 C10.68 19.34 9.36 18.68 8 18 C3.173 12.208 0 7.785 0 0 Z " fill="#FCFDFD" transform="translate(432,509)"/>
<path d="M0 0 C20.79 0 41.58 0 63 0 C61.332 11.676 56.758 16.215 48 24 C34.505 28.907 29.495 28.907 16 24 C6.477 17.651 3.23 10.766 0 0 Z " fill="#FDFDFD" transform="translate(159,509)"/>
<path d="M0 0 C20.46 0 40.92 0 62 0 C60.708 11.624 56.749 15.501 48 23 C38.184 28.609 37.273 28 25 28 C11.02 22.408 6.755 17.509 0 4 C0 2.68 0 1.36 0 0 Z " fill="#FCFDFD" transform="translate(298,509)"/>
<path d="M0 0 C33.33 0 66.66 0 101 0 C101 3.3 101 6.6 101 10 C72.032 16.437 41.674 12 12 12 C8.04 8.37 4.08 4.74 0 1 C0 0.67 0 0.34 0 0 Z " fill="#ECF3F8" transform="translate(89,458)"/>
<path d="M0 0 C0.165 0.495 0.165 0.495 1 3 C2.65 3.66 4.3 4.32 6 5 C7.65 6.98 9.3 8.96 11 11 C10 17 10 17 5 22 C-12.681 30.84 -28.8 29.4 -48 27 C-60.857 21.286 -60.857 21.286 -63 17 C-63 11 -63 11 -59 6 C-57.02 5.34 -55.04 4.68 -53 4 C-52.67 3.34 -52.34 2.68 -52 2 C-50.845 3.32 -50.845 3.32 -45 10 C-33 16 -33 16 -22 16 C-11.661 12.24 -5.736 9.561 0 0 Z " fill="#98BAD8" transform="translate(688,1024)"/>
<path d="M0 0 C16.83 0 33.66 0 51 0 C51 6.6 51 13.2 51 20 C45.265 22.867 38.368 22.251 32 23 C27.71 23.66 23.42 24.32 19 25 C13 25 13 25 2 21 C1.34 14.07 0.68 7.14 0 0 Z " fill="#ABC6DF" transform="translate(193,1014)"/>
<path d="M0 0 C3.3 0 6.6 0 10 0 C10 0.33 10 0.66 10 1 C8.02 1.33 6.04 1.66 4 2 C15 12 15 12 95 12 C96.485 11.835 96.485 11.835 104 11 C104 7.7 104 4.4 104 1 C104.66 1 105.32 1 106 1 C106 4.3 106 7.6 106 11 C107.98 11 109.96 11 112 11 C109 13 109 13 97 14 C87.206 18.353 82.23 21.278 76 30 C75.835 29.67 75.835 29.67 75 28 C82 19 82 19 86 16 C62.9 15.67 39.8 15.34 16 15 C16.33 144.69 16.66 274.38 17 408 C15.68 408.33 14.36 408.66 13 409 C12.01 408.34 11.02 407.68 10 407 C11.65 407 13.3 407 15 407 C14.67 277.31 14.34 147.62 14 14 C3 4 3 4 1 3 C1.33 138.96 1.66 274.92 2 415 C0.68 417.97 -0.64 420.94 -2 424 C-2.33 425.65 -2.66 427.3 -3 429 C-3.33 429 -3.66 429 -4 429 C-4 422 -4 422 -1 415 C-0.835 346.525 -0.835 346.525 0 0 Z " fill="#47586A" transform="translate(86,457)"/>
<path d="M0 0 C32.67 0 65.34 0 99 0 C93 7 93 7 87 12 C9 12 9 12 0 10 C0 6.7 0 3.4 0 0 Z " fill="#EEF5FA" transform="translate(464,458)"/>
<path d="M0 0 C17.49 0 34.98 0 53 0 C53 6.6 53 13.2 53 20 C36.17 20 19.34 20 2 20 C0 4 0 4 0 0 Z " fill="#C5DDF0" transform="translate(191,993)"/>
<path d="M0 0 C0.33 0 0.66 0 1 0 C1 2.97 1 5.94 1 9 C-7.714 17.714 -16.872 17.86 -29 20 C-69 20 -69 20 -87 14 C-90 11 -90 11 -91 9 C-91 6.69 -91 4.38 -91 2 C-88.03 2.99 -85.06 3.98 -82 5 C-63 8 -63 8 -58 8 C-58 7.67 -58 7.34 -58 7 C-44.8 7 -31.6 7 -18 7 C-2.875 2.875 -2.875 2.875 0 0 Z " fill="#F6F7F7" transform="translate(190,951)"/>
<path d="M0 0 C3.63 1.65 7.26 3.3 11 5 C28 8 28 8 33 8 C33 7.67 33 7.34 33 7 C45.87 7 58.74 7 72 7 C87 4 87 4 92 2 C92 10 92 10 89 14 C60.977 22.007 31.53 23.589 4 13 C2.68 11.68 1.36 10.36 0 9 C0 6.03 0 3.06 0 0 Z " fill="#F7F8F7" transform="translate(454,951)"/>
<path d="M0 0 C24.116 2.837 24.116 2.837 31 8 C30.67 9.32 30.34 10.64 30 12 C9.027 22.486 -13.496 20.219 -36 16 C-37.155 15.34 -37.155 15.34 -43 12 C-43 10.35 -43 8.7 -43 7 C-32.746 2.443 -25.216 1 -14 1 C-13.67 3.31 -13.34 5.62 -13 8 C-11 9 -11 9 -3 9 C-2.34 8.67 -1.68 8.34 -1 8 C-0.67 5.36 -0.34 2.72 0 0 Z " fill="#A1C1DF" transform="translate(409,1041)"/>
<path d="M0 0 C14.19 0 28.38 0 43 0 C42 19 42 19 41 24 C31 25 31 25 15 22 C10.71 21.67 6.42 21.34 2 21 C2 22.65 2 24.3 2 26 C1.34 26 0.68 26 0 26 C0 17.42 0 8.84 0 0 Z " fill="#AAC5DE" transform="translate(409,1014)"/>
<path d="M0 0 C0.33 2.31 0.66 4.62 1 7 C4 8 4 8 11 8 C11.66 7.67 12.32 7.34 13 7 C13.33 4.69 13.66 2.38 14 0 C25.373 0 34.344 0.563 44 7 C43.67 8.65 43.34 10.3 43 12 C21.209 19.924 0.796 19.023 -22 15 C-23.155 14.34 -23.155 14.34 -29 11 C-29 9.35 -29 7.7 -29 6 C-18.97 1.542 -10.959 0 0 0 Z " fill="#A0C1E0" transform="translate(244,1042)"/>
<path d="M0 0 C15.18 0 30.36 0 46 0 C45.34 6.6 44.68 13.2 44 20 C29.48 20 14.96 20 0 20 C0 13.4 0 6.8 0 0 Z " fill="#C4DBEE" transform="translate(409,993)"/>
<path d="M0 0 C7 1 7 1 9 2 C432 2 432 2 436 0 C438.64 0 441.28 0 444 0 C441 2 441 2 430 5 C429.67 5.99 429.34 6.98 429 8 C428.67 7.01 428.34 6.02 428 5 C290.72 5 153.44 5 12 5 C8.37 4.01 4.74 3.02 1 2 C0.67 1.34 0.34 0.68 0 0 Z " fill="#6F8294" transform="translate(102,863)"/>
<path d="M0 0 C35.64 0 71.28 0 108 0 C106 4 106 4 98 11 C93 20 93 20 91 29 C112.45 29 133.9 29 156 29 C156 29.33 156 29.66 156 30 C134.22 30 112.44 30 90 30 C89 23 89 23 95 11 C103 3 103 3 105 2 C71.34 2 37.68 2 3 2 C5.31 3.65 7.62 5.3 10 7 C17.822 18.733 19 21.524 19 36 C18.67 36.33 18.34 36.66 18 37 C-4.11 37 -26.22 37 -49 37 C-49.33 36.67 -49.66 36.34 -50 36 C-50 26 -50 26 -46 16 C-45 19 -45 19 -48 29 C-26.22 29 -4.44 29 18 29 C13.903 16.708 10.707 11.32 1 3 C0.835 2.505 0.835 2.505 0 0 Z " fill="#65778D" transform="translate(206,471)"/>
<path d="M0 0 C4.62 1.65 9.24 3.3 14 5 C52.525 10.779 97.49 16.227 134 0 C134.66 0 135.32 0 136 0 C136 1.65 136 3.3 136 5 C107.145 24.237 56.975 17.711 24 13 C20.7 13 17.4 13 14 13 C13.67 12.34 13.34 11.68 13 11 C11.35 10.34 11.35 10.34 3 7 C2.01 6.34 1.02 5.68 0 5 C0 3.35 0 1.7 0 0 Z " fill="#92BADE" transform="translate(335,910)"/>
<path d="M0 0 C0 1.65 0 3.3 0 5 C-27.959 23.639 -76.232 15.985 -107 14 C-126 10 -126 10 -134 6 C-134.33 4.35 -134.66 2.7 -135 1 C-132.03 1.99 -129.06 2.98 -126 4 C-82.177 11.968 -41.492 0 0 0 Z " fill="#94BBDF" transform="translate(318,910)"/>
<path d="M0 0 C34.32 0 68.64 0 104 0 C102 4 102 4 94 11 C89 20 89 20 87 29 C108.45 29 129.9 29 152 29 C152.33 28.01 152.66 27.02 153 26 C153.33 26 153.66 26 154 26 C154 29.3 154 32.6 154 36 C153.67 36.33 153.34 36.66 153 37 C130.56 37 108.12 37 85 37 C84 35 84 35 85 24 C88.77 14.574 92.157 7.895 101 2 C68 2 35 2 1 2 C0.67 1.34 0.34 0.68 0 0 Z " fill="#788EA5" transform="translate(344,471)"/>
<path d="M0 0 C0.66 0 1.32 0 2 0 C2 51.15 2 102.3 2 155 C1.34 155 0.68 155 0 155 C0 107.48 0 59.96 0 11 C-62.7 11 -125.4 11 -190 11 C-190 10.34 -190 9.68 -190 9 C-127.3 9 -64.6 9 0 9 C0 6.03 0 3.06 0 0 Z " fill="#818C9A" transform="translate(190,302)"/>
<path d="M0 0 C8.409 2.803 10.628 6.349 15 14 C19.543 36.715 9.716 66.568 0 86 C-2.31 85.67 -4.62 85.34 -7 85 C-4.139 72.127 0.091 59.594 4 47 C7.556 31.593 8.975 18.938 3 4 C2.01 2.68 1.02 1.36 0 0 Z " fill="#F8F8F8" transform="translate(547,865)"/>
<path d="M0 0 C1.485 0.33 1.485 0.33 9 2 C1.333 71 1.333 71 -6 82 C-7.32 81.67 -8.64 81.34 -10 81 C-10 53.744 -6.612 26.447 0 0 Z " fill="#F6F8F8" transform="translate(104,967)"/>
<path d="M0 0 C10 70 10 70 10 81 C9.34 81.165 9.34 81.165 6 82 C4 80 4 80 3.685 78.281 C2.583 72.26 1.479 66.239 0.375 60.219 C-0.035 57.985 -0.444 55.752 -0.853 53.519 C-3.512 39.002 -6.216 24.494 -9 10 C-9 7.36 -9 4.72 -9 2 C-2 0 -2 0 0 0 Z " fill="#F7F8F8" transform="translate(542,967)"/>
<path d="M0 0 C6 64.8 6 64.8 6 80 C5.34 80.165 5.34 80.165 2 81 C0 78 0 78 -1 65 C-1.99 59.39 -2.98 53.78 -4 48 C-10 6 -10 6 -10 1 C-6 0 -6 0 0 0 Z " fill="#F7F8F9" transform="translate(168,971)"/>
<path d="M0 0 C2.97 0.33 5.94 0.66 9 1 C9 27.144 2.914 54.15 -1 80 C-2.65 80 -4.3 80 -6 80 C-11.142 59.434 -5.144 20.577 0 0 Z " fill="#F7F9F9" transform="translate(478,971)"/>
<path d="M0 0 C0.99 0.33 1.98 0.66 3 1 C2.34 1.99 2.34 1.99 -1 7 C-7.394 32.578 2.979 55.936 11 80 C11 81.32 11 82.64 11 84 C10.01 84.165 10.01 84.165 5 85 C-5.406 61.586 -11 40.427 -11 15 C-7 6 -7 6 0 0 Z " fill="#F9F9F8" transform="translate(94,866)"/>
<path d="M0 0 C1 2 1 2 1 13 C-15.016 23.677 -35.254 24.704 -54 23 C-54 22.67 -54 22.34 -54 22 C-48.72 21.505 -48.72 21.505 -22 19 C-6 15 -6 15 -1 12 C-0.67 10.35 -0.34 8.7 0 7 C-2.64 8.32 -5.28 9.64 -8 11 C-46.472 20.618 -98.794 26.103 -135 8 C-135 9.32 -135 10.64 -135 12 C-126 16 -126 16 -120 18 C-120 18.33 -120 18.66 -120 19 C-128 18 -128 18 -136 14 C-138 11 -138 11 -138 2 C-106.665 -23.068 -33.314 -16.657 0 0 Z M-136 2 C-135.67 3.32 -135.34 4.64 -135 6 C-102.571 25.457 -53.105 16.388 -18 12 C-12.72 10.35 -7.44 8.7 -2 7 C-1.34 5.68 -0.68 4.36 0 3 C-27.833 -19.266 -108.463 -16.358 -136 2 Z " fill="#5C6C81" transform="translate(471,903)"/>
<path d="M0 0 C2.97 0.99 5.94 1.98 9 3 C6.342 23.381 3.206 43.698 0 64 C-0.33 66.64 -0.66 69.28 -1 72 C-1.165 72.165 -1.165 72.165 -2 73 C-3.65 73 -5.3 73 -7 73 C-5.779 48.586 -2.75 24.29 0 0 Z " fill="#F6F7F8" transform="translate(459,966)"/>
<path d="M0 0 C2 4 2 4 4 24 C4.33 25.32 4.66 26.64 5 28 C5.41 32.319 5.819 36.638 6.227 40.958 C6.365 42.421 6.504 43.884 6.643 45.347 C7.518 54.559 8.329 63.771 9 73 C8.175 73.165 8.175 73.165 4 74 C-7 24.5 -7 24.5 -7 3 C-4.69 2.01 -2.38 1.02 0 0 Z " fill="#F7F7F7" transform="translate(185,966)"/>
<path d="M0 0 C7.59 0 15.18 0 23 0 C23.66 6.6 24.32 13.2 25 20 C16.09 20 7.18 20 -2 20 C-1 4 -1 4 0 0 Z " fill="#C4DBEF" transform="translate(137,993)"/>
<path d="M0 0 C0.33 0.165 0.33 0.165 2 1 C2 105 2 105 1 113 C0.67 113 0.34 113 0 113 C0 97.49 0 81.98 0 66 C-45.21 66 -90.42 66 -137 66 C-137 65.34 -137 64.68 -137 64 C-91.79 64 -46.58 64 0 64 C0 42.88 0 21.76 0 0 Z " fill="#6C7E94" transform="translate(395,927)"/>
<path d="M0 0 C7.26 0 14.52 0 22 0 C25 17 25 17 25 20 C16.09 20 7.18 20 -2 20 C-2 12 -2 12 0 0 Z " fill="#C4DBEE" transform="translate(486,993)"/>
<path d="M0 0 C2.97 0 5.94 0 9 0 C15 57 15 57 15 62 C14.175 62.165 14.175 62.165 10 63 C0.412 43.823 0 21.263 0 0 Z " fill="#F6F7F8" transform="translate(507,972)"/>
<path d="M0 0 C2.64 0 5.28 0 8 0 C8 20.838 3.054 41.387 0 62 C-0.825 62.165 -0.825 62.165 -5 63 C-5.33 62.67 -5.66 62.34 -6 62 C-3.412 10.235 -3.412 10.235 0 0 Z " fill="#F5F6F7" transform="translate(130,972)"/>
<path d="M0 0 C0.33 0 0.66 0 1 0 C1 138.27 1 276.54 1 419 C-0.32 417.68 -1.64 416.36 -3 415 C-2.34 414.67 -1.68 414.34 -1 414 C-1 277.71 -1 141.42 -1 1 C-0.67 0.67 -0.34 0.34 0 0 Z " fill="#DDE5E9" transform="translate(564,459)"/>
<path d="M0 0 C0.66 0 1.32 0 2 0 C4 3 4 3 3 15 C3.99 16.32 4.98 17.64 6 19 C5 27 5 27 1 31 C-0.32 31.33 -1.64 31.66 -3 32 C-3 34.31 -3 36.62 -3 39 C-8 44 -8 44 -12 45 C-11.34 45.99 -10.68 46.98 -10 48 C16.07 48.33 42.14 48.66 69 49 C69 49.66 69 50.32 69 51 C56.295 51.165 56.295 51.165 -8 52 C-7.34 54.31 -6.68 56.62 -6 59 C-6 69 -6 69 -7 71 C18.08 71 43.16 71 69 71 C69 71.33 69 71.66 69 72 C56.295 72.165 56.295 72.165 -8 73 C-8.165 70.69 -8.165 70.69 -9 59 C-12 49 -12 49 -17 42 C-17.99 42.825 -17.99 42.825 -23 47 C-30 47 -30 47 -37 43 C-37.165 42.505 -37.165 42.505 -38 40 C-37.01 40 -36.02 40 -35 40 C-33.68 41.32 -32.36 42.64 -31 44 C-25 45 -25 45 -20 42 C-19.01 41.01 -18.02 40.02 -17 39 C-16.34 39.66 -15.68 40.32 -15 41 C-12.69 41 -10.38 41 -8 41 C-7.01 40.01 -6.02 39.02 -5 38 C-5 33 -5 33 -6 31 C-3.69 30.01 -1.38 29.02 1 28 C1.66 27.34 2.32 26.68 3 26 C3 19 3 19 2 17 C1.01 16.67 0.02 16.34 -1 16 C-0.34 14.35 0.32 12.7 1 11 C1 3 1 3 0 0 Z " fill="#5F7085" transform="translate(699,942)"/>
<path d="M0 0 C0.99 0.33 1.98 0.66 3 1 C2.67 1.66 2.34 2.32 2 3 C2 136.98 2 270.96 2 409 C1.34 409.33 0.68 409.66 0 410 C0 274.7 0 139.4 0 0 Z " fill="#DEE7EC" transform="translate(87,460)"/>
<path d="M0 0 C1.32 1.32 2.64 2.64 4 4 C3.01 4.66 2.02 5.32 1 6 C-0.32 6.99 -1.64 7.98 -3 9 C-3 11.31 -3 13.62 -3 16 C1 19 1 19 6 20 C5.67 23.3 5.34 26.6 5 30 C5.99 31.32 6.98 32.64 8 34 C17 34 17 34 20 33 C20.99 34.65 21.98 36.3 23 38 C27 40 27 40 34 39 C35.32 38.01 36.64 37.02 38 36 C36 40 36 40 33 42 C25 42 25 42 20 38 C19.34 37.34 18.68 36.68 18 36 C13.126 40.874 11.345 45.277 10 52 C10 66 10 66 12 75 C11.34 74.67 10.68 74.34 10 74 C9.67 72.515 9.67 72.515 8 65 C-18.73 65 -45.46 65 -73 65 C-71.68 74.57 -70.36 84.14 -69 94 C-69 95.65 -69 97.3 -69 99 C-69.33 99.33 -69.33 99.33 -71 101 C-72.65 101 -74.3 101 -76 101 C-76.66 100.34 -77.32 99.68 -78 99 C-77.67 98.01 -77.34 97.02 -77 96 C-76.34 96.99 -75.68 97.98 -75 99 C-74.01 99 -73.02 99 -72 99 C-72.74 88.645 -73.787 78.31 -75 68 C-75 65.69 -75 63.38 -75 61 C-74.67 61.99 -74.34 62.98 -74 64 C-47.27 64 -20.54 64 7 64 C7 59.71 7 55.42 7 51 C7.99 48.36 8.98 45.72 10 43 C-1.55 43 -13.1 43 -25 43 C-25 42.67 -25 42.34 -25 42 C-13.12 41.67 -1.24 41.34 11 41 C11.66 39.68 12.32 38.36 13 37 C11.02 36.67 9.04 36.34 7 36 C3 32 3 32 2 25 C2.33 24.34 2.66 23.68 3 23 C1.02 21.68 -0.96 20.36 -3 19 C-6 14 -6 14 -5 8 C-3.68 6.68 -2.36 5.36 -1 4 C-0.34 4 0.32 4 1 4 C0.835 3.34 0.835 3.34 0 0 Z " fill="#4F6078" transform="translate(623,949)"/>
<path d="M0 0 C9.24 0 18.48 0 28 0 C29 3 29 3 29 13 C24.05 12.835 24.05 12.835 -1 12 C-1 5 -1 5 0 0 Z " fill="#ACC6DE" transform="translate(134,1014)"/>
<path d="M0 0 C5.28 0 10.56 0 16 0 C20.534 4.534 18.292 12.627 19 19 C12.07 19 5.14 19 -2 19 C-1 6 -1 6 0 0 Z " fill="#F9FAFA" transform="translate(140,972)"/>
<path d="M0 0 C5.28 0 10.56 0 16 0 C19 16 19 16 19 19 C12.07 19 5.14 19 -2 19 C-1 4 -1 4 0 0 Z " fill="#F8F9F9" transform="translate(489,972)"/>
<path d="M0 0 C9.57 0 19.14 0 29 0 C29.33 3.96 29.66 7.92 30 12 C19.77 12 9.54 12 -1 12 C-1 5 -1 5 0 0 Z " fill="#ABC6DF" transform="translate(483,1015)"/>
<path d="M0 0 C22.11 0 44.22 0 67 0 C66.67 1.65 66.34 3.3 66 5 C44.55 5 23.1 5 1 5 C0.67 3.35 0.34 1.7 0 0 Z " fill="#A5C7E4" transform="translate(430,502)"/>
<path d="M0 0 C5.28 0 10.56 0 16 0 C15.67 6.6 15.34 13.2 15 20 C9.06 20 3.12 20 -3 20 C-2.34 16.04 -1.68 12.08 -1 8 C-0.67 5.36 -0.34 2.72 0 0 Z " fill="#C4DAED" transform="translate(110,993)"/>
<path d="M0 0 C21.78 0 43.56 0 66 0 C66 1.65 66 3.3 66 5 C44.22 5 22.44 5 0 5 C0 3.35 0 1.7 0 0 Z " fill="#AECEE9" transform="translate(158,502)"/>
<path d="M0 0 C21.78 0 43.56 0 66 0 C66 1.65 66 3.3 66 5 C44.55 5 23.1 5 1 5 C0.67 3.35 0.34 1.7 0 0 Z " fill="#ACCBE5" transform="translate(296,502)"/>
<path d="M0 0 C0 0.33 0 0.66 0 1 C-3.465 1.495 -3.465 1.495 -21 4 C-24.3 5.32 -27.6 6.64 -31 8 C-31 9.32 -31 10.64 -31 12 C-12.887 21.057 6.065 20.233 26 21 C26 21.33 26 21.66 26 22 C-16 22 -16 22 -32 14 C-32 16.64 -32 19.28 -32 22 C-29.032 24.374 -26.04 26.72 -23 29 C-24.65 28.67 -26.3 28.34 -28 28 C-28.33 33.28 -28.66 38.56 -29 44 C-29.495 48.95 -29.495 48.95 -32 74 C-34 70 -34 70 -33 58 C-32.67 57.01 -32.34 56.02 -32 55 C-47.18 55 -62.36 55 -78 55 C-78 54.34 -78 53.68 -78 53 C-62.82 53 -47.64 53 -32 53 C-31.213 44.343 -30.578 35.673 -30 27 C-31.32 25.68 -32.64 24.36 -34 23 C-34 18.05 -34 13.1 -34 8 C-22.866 0.047 -13.478 0 0 0 Z " fill="#5B6879" transform="translate(487,938)"/>
<path d="M0 0 C4.95 0 9.9 0 15 0 C18 14 18 14 18 20 C12.39 20 6.78 20 1 20 C0 10 0 10 0 0 Z " fill="#C8DCED" transform="translate(520,993)"/>
<path d="M0 0 C0.66 0 1.32 0 2 0 C2 3.3 2 6.6 2 10 C5.96 10 9.92 10 14 10 C14 10.33 14 10.66 14 11 C9.71 11 5.42 11 1 11 C1 58.85 1 106.7 1 156 C0.67 156 0.34 156 0 156 C0 108.15 0 60.3 0 11 C-44.88 11 -89.76 11 -136 11 C-136 10.67 -136 10.34 -136 10 C-91.12 10 -46.24 10 0 10 C0 6.7 0 3.4 0 0 Z " fill="#566478" transform="translate(328,301)"/>
<path d="M0 0 C0.66 0.66 1.32 1.32 2 2 C1.34 7.61 0.68 13.22 0 19 C6.93 19 13.86 19 21 19 C20.01 12.73 19.02 6.46 18 0 C18.66 0 19.32 0 20 0 C29 60.429 29 60.429 29 72 C28.67 72 28.34 72 28 72 C24 45 24 45 24 42 C14.76 42 5.52 42 -4 42 C-4.33 45.3 -4.66 48.6 -5 52 C-5.961 60.948 -5.961 60.948 -9 65 C-14 64 -14 64 -15 63 C-15 58.05 -15 53.1 -15 48 C-13 50 -13 50 -13 62 C-11.68 62 -10.36 62 -9 62 C-6.03 41.54 -3.06 21.08 0 0 Z M-1 21 C-3 34 -3 34 -3 41 C5.91 41 14.82 41 24 41 C23.34 34.4 22.68 27.8 22 21 C14.41 21 6.82 21 -1 21 Z " fill="#576980" transform="translate(138,972)"/>
<path d="M0 0 C0 0.66 0 1.32 0 2 C-5 4 -5 4 -9 4 C-8.01 10.93 -7.02 17.86 -6 25 C-6.33 25.165 -6.33 25.165 -8 26 C-11 9 -11 9 -11 5 C-15.62 5.66 -20.24 6.32 -25 7 C-25 9.31 -25 11.62 -25 14 C-25.33 14 -25.66 14 -26 14 C-26 11.69 -26 9.38 -26 7 C-28.97 7 -31.94 7 -35 7 C-33.35 17.89 -31.7 28.78 -30 40 C-30 42.97 -30 45.94 -30 49 C-39.57 49 -49.14 49 -59 49 C-59.33 53.95 -59.66 58.9 -60 64 C-63 85 -63 85 -65 88 C-66.32 87.67 -67.64 87.34 -69 87 C-68.505 86.835 -68.505 86.835 -66 86 C-64.02 73.13 -62.04 60.26 -60 47 C-50.43 47.33 -40.86 47.66 -31 48 C-31.99 43.05 -32.98 38.1 -34 33 C-34 31.02 -34 29.04 -34 27 C-39.28 27 -44.56 27 -50 27 C-50 26.67 -50 26.34 -50 26 C-44.72 26 -39.44 26 -34 26 C-34.99 21.38 -35.98 16.76 -37 12 C-37 10.35 -37 8.7 -37 7 C-42.28 7 -47.56 7 -53 7 C-53.33 7.66 -53.66 8.32 -54 9 C-54 8.01 -54 7.02 -54 6 C-45.09 5.67 -36.18 5.34 -27 5 C-22.697 4.283 -6.753 0 0 0 Z " fill="#5B697D" transform="translate(542,965)"/>
<path d="M0 0 C0.33 0 0.66 0 1 0 C1.165 2.64 1.165 2.64 2 16 C4.97 16 7.94 16 11 16 C11.33 13.36 11.66 10.72 12 8 C23.7 8 33.502 9.751 44 15 C45 16 45 16 45 21 C30.991 32.207 11.894 30 -5 30 C-21 27 -21 27 -31 22 C-31.33 20.35 -31.66 18.7 -32 17 C-25.548 10.548 -17.777 9.254 -9 8 C-6.03 8 -3.06 8 0 8 C0 5.36 0 2.72 0 0 Z M13 9 C12.67 11.64 12.34 14.28 12 17 C10 18 10 18 2 18 C1.34 17.67 0.68 17.34 0 17 C-0.33 14.69 -0.66 12.38 -1 10 C-11.118 10 -21.163 10.109 -30 16 C-30 17.65 -30 19.3 -30 21 C-10.436 32.18 13.727 29.559 35 25 C37.64 23.68 40.28 22.36 43 21 C43.33 19.68 43.66 18.36 44 17 C33.973 11.271 24.391 10.036 13 9 Z " fill="#4E6179" transform="translate(396,1032)"/>
<path d="M0 0 C2.31 0.165 2.31 0.165 14 1 C14 10 14 10 13 21 C7.72 21 2.44 21 -3 21 C-2.219 13.972 -1.162 6.975 0 0 Z " fill="#F9FAF9" transform="translate(114,970)"/>
<path d="M0 0 C3 15 3 15 3 21 C-1.95 21 -6.9 21 -12 21 C-13.545 14.822 -13.576 8.354 -14 2 C-5 0 -5 0 0 0 Z " fill="#F9F9F9" transform="translate(531,970)"/>
<path d="M0 0 C0.99 0.33 1.98 0.66 3 1 C0.69 2.32 -1.62 3.64 -4 5 C-3.67 6.32 -3.34 7.64 -3 9 C38.488 24.086 86.725 20.569 129 10 C118.257 20.743 97.11 19.059 83 20 C14 20 14 20 -4 11 C-4 12.32 -4 13.64 -4 15 C5 19 5 19 11 21 C11 21.33 11 21.66 11 22 C3 21 3 21 -5 17 C-7 14 -7 14 -7 5 C-2 1 -2 1 0 0 Z " fill="#566A82" transform="translate(340,900)"/>
<path d="M0 0 C2.31 0 4.62 0 7 0 C7 1.32 7 2.64 7 4 C8.32 4.66 9.64 5.32 11 6 C11 15 11 15 9 22 C5.37 22 1.74 22 -2 22 C-4 13 -4 13 -4 6 C-3.01 5.67 -2.02 5.34 -1 5 C-0.67 3.35 -0.34 1.7 0 0 Z " fill="#F0F5F9" transform="translate(626,687)"/>
<path d="M0 0 C0.33 0 0.66 0 1 0 C1 20.377 -1.308 40.693 -3 61 C-3 62.65 -3 64.3 -3 66 C-3.66 65.67 -4.32 65.34 -5 65 C-5 50 -5 50 -3 29 C-6.3 29 -9.6 29 -13 29 C-13.33 33.62 -13.66 38.24 -14 43 C-16 53 -16 53 -18 55 C-19.65 55 -21.3 55 -23 55 C-23.66 54.34 -24.32 53.68 -25 53 C-24 36 -24 36 -23 28 C-22.34 28.33 -21.68 28.66 -21 29 C-22 46 -22 46 -23 53 C-22.175 52.835 -22.175 52.835 -18 52 C-16.02 38.8 -14.04 25.6 -12 12 C-11.34 10.68 -10.68 9.36 -10 8 C-11 22 -11 22 -12 27 C-8.7 27 -5.4 27 -2 27 C-1.67 20.07 -1.34 13.14 -1 6 C-2.65 6 -4.3 6 -6 6 C-6 5.67 -6 5.34 -6 5 C-4.02 5 -2.04 5 0 5 C0 3.35 0 1.7 0 0 Z " fill="#607287" transform="translate(475,986)"/>
<path d="M0 0 C5.61 0 11.22 0 17 0 C16.67 3.96 16.34 7.92 16 12 C10.39 13.32 4.78 14.64 -1 16 C-1.66 16.33 -2.32 16.66 -3 17 C-2 6 -2 6 0 0 Z " fill="#AAC6E1" transform="translate(107,1015)"/>
<path d="M0 0 C5.61 0 11.22 0 17 0 C19 10 19 10 19 15 C1 13 1 13 0 12 C0 8.04 0 4.08 0 0 Z " fill="#ADC7DF" transform="translate(522,1015)"/>
<path d="M0 0 C0.33 0.165 0.33 0.165 2 1 C-1.96 4.63 -5.92 8.26 -10 12 C-10.33 25.2 -10.66 38.4 -11 52 C-11.33 52 -11.66 52 -12 52 C-12 38.8 -12 25.6 -12 12 C-23.55 12.165 -23.55 12.165 -82 13 C-79.36 14.98 -76.72 16.96 -74 19 C-65 31 -65 31 -65 39 C-67.667 33.667 -70.333 28.333 -73 23 C-81 16 -81 16 -92 12 C-92.99 11.34 -93.98 10.68 -95 10 C-67.28 10 -39.56 10 -11 10 C-7.37 6.7 -3.74 3.4 0 0 Z " fill="#4E5E73" transform="translate(562,459)"/>
<path d="M0 0 C0.33 0 0.66 0 1 0 C1.33 42.57 1.66 85.14 2 129 C4.64 130.98 7.28 132.96 10 135 C14 141 14 141 14 144 C14.66 144.33 15.32 144.66 16 145 C15.34 145 14.68 145 14 145 C14 150.61 14 156.22 14 162 C13.67 162 13.34 162 13 162 C12.67 157.38 12.34 152.76 12 148 C7.647 134.941 7.647 134.941 -1 130 C-2.98 129.67 -4.96 129.34 -7 129 C-7 128.67 -7 128.34 -7 128 C-4.69 128 -2.38 128 0 128 C0 85.76 0 43.52 0 0 Z " fill="#485566" transform="translate(550,736)"/>
<path d="M0 0 C0.33 0 0.66 0 1 0 C3 15 3 15 3 26 C20.82 26 38.64 26 57 26 C57 26.66 57 27.32 57 28 C39.51 28 22.02 28 4 28 C4.66 32.95 5.32 37.9 6 43 C6 44.65 6 46.3 6 48 C5.67 48.165 5.67 48.165 4 49 C3.34 42.4 2.68 35.8 2 29 C1.34 24.71 0.68 20.42 0 16 C-0.33 11.05 -0.66 6.1 -1 1 C-0.67 0.67 -0.34 0.34 0 0 Z " fill="#6F7F94" transform="translate(187,965)"/>
<path d="M0 0 C2.64 0 5.28 0 8 0 C8 12 8 12 7 20 C3.7 20 0.4 20 -3 20 C-2 8 -2 8 0 0 Z " fill="#C2D8EB" transform="translate(466,993)"/>
<path d="M0 0 C2.64 0 5.28 0 8 0 C11 17 11 17 11 20 C7.7 20 4.4 20 1 20 C-0.619 13.524 0 6.675 0 0 Z " fill="#C3D9EE" transform="translate(172,993)"/>
<path d="M0 0 C5 4 5 4 9 14 C9 39.855 2.25 60.25 -6 85 C-16.587 83.236 -26.981 80.012 -36 74 C-25.362 75.33 -16.913 79.044 -7 84 C-6.67 81.69 -6.34 79.38 -6 77 C-3.03 67.43 -0.06 57.86 3 48 C7.001 33.331 8.443 21.81 4 7 C2.68 5.35 1.36 3.7 0 2 C0 1.34 0 0.68 0 0 Z " fill="#667181" transform="translate(546,865)"/>
<path d="M0 0 C0.99 0.33 1.98 0.66 3 1 C2.67 1.66 2.34 2.32 2 3 C1.67 57.78 1.34 112.56 1 169 C0.67 169 0.34 169 0 169 C0 113.23 0 57.46 0 0 Z " fill="#DBE4EA" transform="translate(87,460)"/>
<path d="M0 0 C-3 2 -3 2 -14 5 C-14.33 5.99 -14.66 6.98 -15 8 C-15.165 7.505 -15.165 7.505 -16 5 C-16.776 5.003 -17.551 5.005 -18.35 5.008 C-39.787 5.07 -61.213 4.871 -82.647 4.536 C-86.658 4.474 -90.669 4.415 -94.68 4.355 C-102.453 4.24 -110.227 4.121 -118 4 C-118 3.67 -118 3.34 -118 3 C-83.02 2.67 -48.04 2.34 -12 2 C-8 0 -8 0 0 0 Z " fill="#64798F" transform="translate(546,863)"/>
<path d="M0 0 C3.3 0 6.6 0 10 0 C12 9 12 9 12 17 C6 16 6 16 1 14 C0.67 9.38 0.34 4.76 0 0 Z " fill="#ACC6E0" transform="translate(173,1014)"/>
<path d="M0 0 C3.3 0 6.6 0 10 0 C10 8 10 8 9 14 C5.37 15.32 1.74 16.64 -2 18 C-1.34 12.06 -0.68 6.12 0 0 Z " fill="#AEC8E0" transform="translate(462,1015)"/>
<path d="M0 0 C0.33 1.32 0.66 2.64 1 4 C23.11 4 45.22 4 68 4 C68.33 3.34 68.66 2.68 69 2 C69 4.64 69 7.28 69 10 C68.67 10.33 68.34 10.66 68 11 C45.56 11 23.12 11 0 11 C-1 9 -1 9 0 0 Z M1 5 C1.33 6.65 1.66 8.3 2 10 C23.45 10 44.9 10 67 10 C67.33 8.35 67.66 6.7 68 5 C45.89 5 23.78 5 1 5 Z " fill="#4B5A6C" transform="translate(429,497)"/>
<path d="M0 0 C0.66 0.66 1.32 1.32 2 2 C0.782 16.01 -0.528 30.014 -2 44 C-4 40 -4 40 -3 28 C-2.835 27.505 -2.835 27.505 -2 25 C-17.18 25 -32.36 25 -48 25 C-48 24.34 -48 23.68 -48 23 C-32.82 23 -17.64 23 -2 23 C-0.875 10.625 -0.875 10.625 -0.438 5.312 C-0.354 4.298 -0.27 3.284 -0.184 2.238 C-0.153 1.869 -0.153 1.869 0 0 Z " fill="#6F7E91" transform="translate(457,968)"/>
<path d="M0 0 C2.31 0.33 4.62 0.66 7 1 C7 12 7 12 6 21 C3.03 21 0.06 21 -3 21 C-2.01 14.07 -1.02 7.14 0 0 Z " fill="#F6F7F7" transform="translate(469,970)"/>
<path d="M0 0 C49.5 0 99 0 150 0 C150 0.33 150 0.66 150 1 C101.49 1.33 52.98 1.66 3 2 C2.34 2.66 1.68 3.32 1 4 C0.67 2.68 0.34 1.36 0 0 Z " fill="#F3F5F6" transform="translate(124,881)"/>
<path d="M0 0 C1.98 0 3.96 0 6 0 C8 10 8 10 9 21 C6.36 21 3.72 21 1 21 C0 12 0 12 0 0 Z " fill="#F7F9F8" transform="translate(170,970)"/>
<path d="M0 0 C0.66 0 1.32 0 2 0 C2 1.65 2 3.3 2 5 C4.97 5 7.94 5 11 5 C11 5.33 11 5.66 11 6 C8.03 6 5.06 6 2 6 C2.66 8.64 3.32 11.28 4 14 C6 12 6 12 7 9 C7.66 9 8.32 9 9 9 C8.34 10.98 7.68 12.96 7 15 C6.67 16.65 6.34 18.3 6 20 C6.99 20.99 7.98 21.98 9 23 C9.33 21.35 9.66 19.7 10 18 C11 22 11 22 10 24 C5 23 5 23 3 21 C1.35 21.99 -0.3 22.98 -2 24 C-1 21 -1 21 2 19 C1.67 17.35 1.34 15.7 1 14 C1 11.36 1 8.72 1 6 C-2.3 6 -5.6 6 -9 6 C-9 7.65 -9 9.3 -9 11 C-6.69 11 -4.38 11 -2 11 C-2 13.97 -2 16.94 -2 20 C-2.66 20.66 -3.32 21.32 -4 22 C-5.32 22 -6.64 22 -8 22 C-8 21.34 -8 20.68 -8 20 C-6.68 20 -5.36 20 -4 20 C-4 17.36 -4 14.72 -4 12 C-5.65 12 -7.3 12 -9 12 C-9 14.97 -9 17.94 -9 21 C-9.99 22.32 -10.98 23.64 -12 25 C-11.34 18.4 -10.68 11.8 -10 5 C-6.7 5 -3.4 5 0 5 C0 3.35 0 1.7 0 0 Z " fill="#DAE6F1" transform="translate(78,1296)"/>
<path d="M0 0 C0.66 0 1.32 0 2 0 C4 3 4 3 3 15 C3.99 16.32 4.98 17.64 6 19 C5 27 5 27 1 31 C-0.32 31.33 -1.64 31.66 -3 32 C-3 34.31 -3 36.62 -3 39 C-8 44 -8 44 -14 45 C-14.99 44.01 -15.98 43.02 -17 42 C-17.99 42.825 -17.99 42.825 -23 47 C-30 47 -30 47 -37 43 C-37.165 42.505 -37.165 42.505 -38 40 C-37.01 40 -36.02 40 -35 40 C-33.68 41.32 -32.36 42.64 -31 44 C-25 45 -25 45 -20 42 C-19.01 41.01 -18.02 40.02 -17 39 C-16.34 39.66 -15.68 40.32 -15 41 C-12.69 41 -10.38 41 -8 41 C-7.01 40.01 -6.02 39.02 -5 38 C-5 33 -5 33 -6 31 C-3.69 30.01 -1.38 29.02 1 28 C1.66 27.34 2.32 26.68 3 26 C3 19 3 19 2 17 C1.01 16.67 0.02 16.34 -1 16 C-0.34 14.35 0.32 12.7 1 11 C1 3 1 3 0 0 Z " fill="#667384" transform="translate(699,942)"/>
<path d="M0 0 C7.829 11.743 8.932 33.078 11 46 C11.33 46.66 11.66 47.32 12 48 C19.92 48 27.84 48 36 48 C36 48.33 36 48.66 36 49 C27.802 50.64 19.35 50.583 11 51 C10.01 51.165 10.01 51.165 5 52 C4.34 51.34 3.68 50.68 3 50 C3.99 49.835 3.99 49.835 9 49 C3.222 15.778 3.222 15.778 -1 1 C-0.67 0.67 -0.34 0.34 0 0 Z " fill="#78808E" transform="translate(127,889)"/>
<path d="M0 0 C0.66 0.66 1.32 1.32 2 2 C1.34 7.61 0.68 13.22 0 19 C6.93 19 13.86 19 21 19 C20.505 15.865 20.505 15.865 18 0 C18.66 0 19.32 0 20 0 C22 12 22 12 22 21 C14.41 21 6.82 21 -1 21 C-1.66 27.6 -2.32 34.2 -3 41 C-8.635 32.547 -1.389 10.348 0 0 Z " fill="#6C7A8D" transform="translate(138,972)"/>
<path d="M0 0 C6.227 12.454 5.771 27.255 8 41 C7.67 41.66 7.34 42.32 7 43 C1.938 35.407 2 25.935 2 17 C-1.3 17 -4.6 17 -8 17 C-7.34 22.94 -6.68 28.88 -6 35 C-5.67 41.27 -5.34 47.54 -5 54 C-5.99 54 -6.98 54 -8 54 C-8 50.37 -8 46.74 -8 43 C-8.165 40.525 -8.165 40.525 -9 28 C-9 24.04 -9 20.08 -9 16 C-5.37 16 -1.74 16 2 16 C1.34 13.03 0.68 10.06 0 7 C0 4.69 0 2.38 0 0 Z " fill="#5A6C82" transform="translate(181,997)"/>
<path d="M0 0 C0.825 0.33 0.825 0.33 5 2 C5.99 2.33 6.98 2.66 8 3 C7.34 6.3 6.68 9.6 6 13 C2.7 13 -0.6 13 -4 13 C-6 7 -6 7 -6 3 C-4.02 2.01 -2.04 1.02 0 0 Z " fill="#ECF2F7" transform="translate(695,694)"/>
<path d="M0 0 C0.33 0 0.66 0 1 0 C1 1.65 1 3.3 1 5 C4.3 5 7.6 5 11 5 C11 5.66 11 6.32 11 7 C8.03 7 5.06 7 2 7 C2 8.65 2 10.3 2 12 C4.64 12 7.28 12 10 12 C10 12.66 10 13.32 10 14 C7.03 14 4.06 14 1 14 C1 16.31 1 18.62 1 21 C4.63 21 8.26 21 12 21 C12 21.33 12 21.66 12 22 C4.41 22 -3.18 22 -11 22 C-11 21.67 -11 21.34 -11 21 C-7.37 21 -3.74 21 0 21 C0 18.69 0 16.38 0 14 C-2.64 14 -5.28 14 -8 14 C-8 13.67 -8 13.34 -8 13 C-5.36 13 -2.72 13 0 13 C0 11.02 0 9.04 0 7 C-2.31 7.33 -4.62 7.66 -7 8 C-7.33 8.495 -7.33 8.495 -9 11 C-9.66 10.67 -10.32 10.34 -11 10 C-9.68 7.03 -8.36 4.06 -7 1 C-6.34 1 -5.68 1 -5 1 C-5.33 2.32 -5.66 3.64 -6 5 C-4.02 5 -2.04 5 0 5 C0 3.35 0 1.7 0 0 Z " fill="#DAE6F1" transform="translate(51,1297)"/>
<path d="M0 0 C3.63 0 7.26 0 11 0 C10.67 3.96 10.34 7.92 10 12 C7.03 12 4.06 12 1 12 C0.67 8.04 0.34 4.08 0 0 Z " fill="#ADC8E1" transform="translate(624,695)"/>
<path d="M0 0 C11 0 11 0 17 1 C16.67 1.165 16.67 1.165 15 2 C15 2.66 15 3.32 15 4 C15.66 4.33 16.32 4.66 17 5 C16.34 5 15.68 5 15 5 C15 5.66 15 6.32 15 7 C15.66 7.33 16.32 7.66 17 8 C13.37 8 9.74 8 6 8 C6 7.34 6 6.68 6 6 C5.01 6 4.02 6 3 6 C3 6.99 3 7.98 3 9 C2.01 9 1.02 9 0 9 C0 6.03 0 3.06 0 0 Z " fill="#D5E3EF" transform="translate(686,554)"/>
<path d="M0 0 C0.825 0.66 0.825 0.66 5 4 C4.67 4.99 4.34 5.98 4 7 C3.175 6.175 3.175 6.175 -1 2 C-2.98 2.33 -4.96 2.66 -7 3 C-7.99 5.31 -8.98 7.62 -10 10 C-11.65 9.34 -13.3 8.68 -15 8 C-17.97 8 -20.94 8 -24 8 C-24.66 11.3 -25.32 14.6 -26 18 C-26.66 17.67 -27.32 17.34 -28 17 C-30.97 17 -33.94 17 -37 17 C-41 21 -41 21 -43 30 C-43.33 30 -43.66 30 -44 30 C-44 22 -44 22 -41 17 C-36 14 -36 14 -30 14 C-29.34 14.33 -28.68 14.66 -28 15 C-27.67 13.35 -27.34 11.7 -27 10 C-25.35 8.35 -23.7 6.7 -22 5 C-18.7 5.33 -15.4 5.66 -12 6 C-10.68 4.35 -9.36 2.7 -8 1 C-6 0 -6 0 0 0 Z " fill="#5D6F7D" transform="translate(666,918)"/>
<path d="M0 0 C0.66 0.66 1.32 1.32 2 2 C1.945 2.347 1.945 2.347 1.668 4.105 C0.013 14.723 -1.49 25.361 -3 36 C-26 36 -26 36 -30 34 C-8 34 -8 34 -5 35 C-4.67 30.38 -4.34 25.76 -4 21 C-2.68 14.07 -1.36 7.14 0 0 Z " fill="#727B89" transform="translate(513,903)"/>
<path d="M0 0 C-0.99 0.33 -1.98 0.66 -3 1 C-2.67 2.65 -2.34 4.3 -2 6 C-2.66 10.95 -3.32 15.9 -4 21 C2.93 21.33 9.86 21.66 17 22 C17 22.33 17 22.66 17 23 C9.74 23 2.48 23 -5 23 C-5 25.31 -5 27.62 -5 30 C-5.66 34.29 -6.32 38.58 -7 43 C-7.66 42.67 -8.32 42.34 -9 42 C-7.46 28.651 -5.9 15.302 -4 2 C-6.64 2 -9.28 2 -12 2 C-8 0 -8 0 0 0 Z " fill="#778697" transform="translate(491,970)"/>
<path d="M0 0 C32.67 0 65.34 0 99 0 C97.35 1.65 95.7 3.3 94 5 C94 4.01 94 3.02 94 2 C78.49 1.835 78.49 1.835 0 1 C0 0.67 0 0.34 0 0 Z " fill="#D5DEE6" transform="translate(464,458)"/>
<path d="M0 0 C3 3 3 3 9 20 C8.01 19.67 7.02 19.34 6 19 C5.67 17.02 5.34 15.04 5 13 C2.36 13.33 -0.28 13.66 -3 14 C-3.99 15.98 -4.98 17.96 -6 20 C-7 17 -7 17 -1 1 C-0.67 0.67 -0.34 0.34 0 0 Z " fill="#D9E5F1" transform="translate(24,1299)"/>
<path d="M0 0 C24.09 0 48.18 0 73 0 C72 4 72 4 65 9 C63.35 11.31 61.7 13.62 60 16 C59.835 15.67 59.835 15.67 59 14 C66 5 66 5 70 2 C46.9 1.67 23.8 1.34 0 1 C0 0.67 0 0.34 0 0 Z " fill="#8EA0B3" transform="translate(102,471)"/>
<path d="M0 0 C0.33 0 0.66 0 1 0 C1.165 2.64 1.165 2.64 2 16 C4.31 16.33 6.62 16.66 9 17 C9 17.33 9 17.66 9 18 C2 19 2 19 -1 17 C-1 14.69 -1 12.38 -1 10 C-11.945 11.368 -19.815 12.605 -30 16 C-30 17.65 -30 19.3 -30 21 C-29.34 21.33 -28.68 21.66 -28 22 C-28.99 22 -29.98 22 -31 22 C-31.33 20.35 -31.66 18.7 -32 17 C-25.548 10.548 -17.777 9.254 -9 8 C-6.03 8 -3.06 8 0 8 C0 5.36 0 2.72 0 0 Z " fill="#506680" transform="translate(396,1032)"/>
<path d="M0 0 C0.66 0 1.32 0 2 0 C2 3.3 2 6.6 2 10 C3.98 10 5.96 10 8 10 C5 12 5 12 -7 13 C-9.64 13.66 -12.28 14.32 -15 15 C-15 14.34 -15 13.68 -15 13 C-25.23 13 -35.46 13 -46 13 C-46 12.67 -46 12.34 -46 12 C-33.79 11.67 -21.58 11.34 -9 11 C-7.515 10.835 -7.515 10.835 0 10 C0 6.7 0 3.4 0 0 Z " fill="#4E5B73" transform="translate(190,458)"/>
<path d="M0 0 C3.63 0 7.26 0 11 0 C11 1.65 11 3.3 11 5 C11.33 3.35 11.66 1.7 12 0 C12.66 0 13.32 0 14 0 C14 2.31 14 4.62 14 7 C12.68 7.33 11.36 7.66 10 8 C9.67 7.01 9.34 6.02 9 5 C8.34 5 7.68 5 7 5 C7 5.66 7 6.32 7 7 C4.69 7 2.38 7 0 7 C-0.33 6.67 -0.66 6.34 -1 6 C-1 1 -1 1 0 0 Z " fill="#B0CAE2" transform="translate(638,555)"/>
<path d="M0 0 C0.66 0.33 1.32 0.66 2 1 C0 13 0 13 -1 17 C3.95 17 8.9 17 14 17 C14 17.66 14 18.32 14 19 C8.72 19 3.44 19 -2 19 C-2 21.64 -2 24.28 -2 27 C-2.66 29.97 -3.32 32.94 -4 36 C-4.66 35.67 -5.32 35.34 -6 35 C-1 4 -1 4 0 0 Z " fill="#6A7A8D" transform="translate(112,974)"/>
<path d="M0 0 C1.32 1.32 2.64 2.64 4 4 C3.01 4.66 2.02 5.32 1 6 C-0.32 6.99 -1.64 7.98 -3 9 C-3 11.31 -3 13.62 -3 16 C1 19 1 19 6 20 C5.67 23.3 5.34 26.6 5 30 C5.99 31.32 6.98 32.64 8 34 C9.155 34.165 9.155 34.165 15 35 C13.68 35.66 12.36 36.32 11 37 C6 35 6 35 3 32 C2 25 2 25 3 23 C1.02 21.68 -0.96 20.36 -3 19 C-6 14 -6 14 -5 8 C-3.68 6.68 -2.36 5.36 -1 4 C-0.34 4 0.32 4 1 4 C0.67 2.68 0.34 1.36 0 0 Z " fill="#607584" transform="translate(623,949)"/>
<path d="M0 0 C3.3 0 6.6 0 10 0 C10 0.33 10 0.66 10 1 C8.02 1.33 6.04 1.66 4 2 C15 12 15 12 58 13 C58 13.33 58 13.66 58 14 C14 14 14 14 3 4 C2.01 4 1.02 4 0 4 C0 2.68 0 1.36 0 0 Z " fill="#4F5F75" transform="translate(86,457)"/>
<path d="M0 0 C-3 2 -3 2 -13 6 C-13.33 7.32 -13.66 8.64 -14 10 C-7 14 -7 14 12 18 C12 18.33 12 18.66 12 19 C2.369 19 -5.596 18.042 -14 13 C-14.99 13 -15.98 13 -17 13 C-17 11.02 -17 9.04 -17 7 C-10.91 1.925 -7.875 0 0 0 Z " fill="#50637B" transform="translate(198,898)"/>
<path d="M0 0 C0.33 0 0.66 0 1 0 C6 33 6 33 5 38 C4.67 38 4.34 38 4 38 C2 26 2 26 2 20 C-3.28 20 -8.56 20 -14 20 C-14 19.67 -14 19.34 -14 19 C-8.72 19 -3.44 19 2 19 C1.01 14.38 0.02 9.76 -1 5 C-0.67 3.35 -0.34 1.7 0 0 Z " fill="#6B7A8C" transform="translate(506,972)"/>
<path d="M0 0 C4.29 0.33 8.58 0.66 13 1 C19.6 1.165 19.6 1.165 53 2 C53 2.33 53 2.66 53 3 C19 4 19 4 -2 2 C-1.34 1.34 -0.68 0.68 0 0 Z " fill="#677E98" transform="translate(210,916)"/>
<path d="M0 0 C6.27 0 12.54 0 19 0 C18.67 1.32 18.34 2.64 18 4 C12.06 4 6.12 4 0 4 C0 2.68 0 1.36 0 0 Z " fill="#D7E4EF" transform="translate(669,609)"/>
<path d="M0 0 C0.66 0 1.32 0 2 0 C2 3.3 2 6.6 2 10 C5.96 10 9.92 10 14 10 C14 10.33 14 10.66 14 11 C9.71 11 5.42 11 1 11 C1 21.56 1 32.12 1 43 C0.67 43 0.34 43 0 43 C0 32.44 0 21.88 0 11 C-2.64 11 -5.28 11 -8 11 C-8 10.67 -8 10.34 -8 10 C-5.36 10 -2.72 10 0 10 C0 6.7 0 3.4 0 0 Z " fill="#647182" transform="translate(328,301)"/>
<path d="M0 0 C3 4 3 4 3 7 C4.98 7 6.96 7 9 7 C9.99 7.99 10.98 8.98 12 10 C12 12.31 12 14.62 12 17 C13.98 17 15.96 17 18 17 C18.33 17.66 18.66 18.32 19 19 C17.35 19.165 17.35 19.165 9 20 C9.33 17.36 9.66 14.72 10 12 C9.34 11.01 8.68 10.02 8 9 C5.69 9.33 3.38 9.66 1 10 C0.67 7.69 0.34 5.38 0 3 C-1.65 2.67 -3.3 2.34 -5 2 C-6.32 2.99 -7.64 3.98 -9 5 C-9 4.01 -9 3.02 -9 2 C-6 0 -6 0 0 0 Z " fill="#607080" transform="translate(680,923)"/>
<path d="M0 0 C11 1 11 1 21 6 C22 8 22 8 22 19 C16 23 16 23 10 24 C12 22 12 22 20 18 C20.33 16.35 20.66 14.7 21 13 C20.34 12.67 19.68 12.34 19 12 C19 10.68 19 9.36 19 8 C11 4 11 4 0 1 C0 0.67 0 0.34 0 0 Z " fill="#54657E" transform="translate(450,897)"/>
<path d="M0 0 C-3 2 -3 2 -14 5 C-14.33 5.99 -14.66 6.98 -15 8 C-15.165 7.505 -15.165 7.505 -16 5 C-26.56 5 -37.12 5 -48 5 C-48 4.67 -48 4.34 -48 4 C-43.05 3.835 -43.05 3.835 -18 3 C-6 0 -6 0 0 0 Z " fill="#718192" transform="translate(546,863)"/>
<path d="M0 0 C15 1 15 1 21 2 C27.6 2.33 34.2 2.66 41 3 C41 3.33 41 3.66 41 4 C26.576 4.901 14.068 4.517 0 1 C0 0.67 0 0.34 0 0 Z " fill="#67798D" transform="translate(352,922)"/>
<path d="M0 0 C0.33 0 0.66 0 1 0 C1.33 1.98 1.66 3.96 2 6 C4 4 4 4 5 1 C5.66 1 6.32 1 7 1 C6.34 2.98 5.68 4.96 5 7 C4.67 8.65 4.34 10.3 4 12 C4.99 12.99 5.98 13.98 7 15 C7.33 13.35 7.66 11.7 8 10 C9 14 9 14 8 16 C3 15 3 15 1 13 C0.175 13.495 0.175 13.495 -4 16 C-3 13 -3 13 0 11 C-0.33 8.03 -0.66 5.06 -1 2 C-0.67 1.34 -0.34 0.68 0 0 Z " fill="#D7E4F1" transform="translate(80,1304)"/>
<path d="M0 0 C6 4 6 4 11 11 C11 11.99 11 12.98 11 14 C11.66 14.33 12.32 14.66 13 15 C12.34 15 11.68 15 11 15 C11 20.61 11 26.22 11 32 C10.67 32 10.34 32 10 32 C9.67 27.38 9.34 22.76 9 18 C4.714 5.143 4.714 5.143 0 2 C0 1.34 0 0.68 0 0 Z " fill="#59687B" transform="translate(553,866)"/>
<path d="M0 0 C6.27 0 12.54 0 19 0 C19 0.99 19 1.98 19 3 C12.73 3 6.46 3 0 3 C0 2.01 0 1.02 0 0 Z " fill="#EFF4F7" transform="translate(669,653)"/>
<path d="M0 0 C6.27 0 12.54 0 19 0 C19 0.99 19 1.98 19 3 C12.73 3 6.46 3 0 3 C0 2.01 0 1.02 0 0 Z " fill="#EDF4F7" transform="translate(617,653)"/>
<path d="M0 0 C6.27 0 12.54 0 19 0 C19 0.99 19 1.98 19 3 C12.73 3 6.46 3 0 3 C0 2.01 0 1.02 0 0 Z " fill="#E5EEF6" transform="translate(617,618)"/>
<path d="M0 0 C6.27 0 12.54 0 19 0 C19 0.99 19 1.98 19 3 C12.73 3 6.46 3 0 3 C0 2.01 0 1.02 0 0 Z " fill="#EAF1F7" transform="translate(669,601)"/>
<path d="M0 0 C6.27 0 12.54 0 19 0 C19 0.99 19 1.98 19 3 C12.73 3 6.46 3 0 3 C0 2.01 0 1.02 0 0 Z " fill="#EDF4F9" transform="translate(617,601)"/>
<path d="M0 0 C6.27 0 12.54 0 19 0 C19 0.99 19 1.98 19 3 C12.73 3 6.46 3 0 3 C0 2.01 0 1.02 0 0 Z " fill="#EEF4F7" transform="translate(669,592)"/>
<path d="M0 0 C6.27 0 12.54 0 19 0 C19 0.99 19 1.98 19 3 C12.73 3 6.46 3 0 3 C0 2.01 0 1.02 0 0 Z " fill="#ECF3F8" transform="translate(617,592)"/>
<path d="M0 0 C6.27 0 12.54 0 19 0 C19 0.99 19 1.98 19 3 C12.73 3 6.46 3 0 3 C0 2.01 0 1.02 0 0 Z " fill="#E9F2F7" transform="translate(617,583)"/>
<path d="M0 0 C1.65 1.32 3.3 2.64 5 4 C4.67 4.99 4.34 5.98 4 7 C2.35 5.35 0.7 3.7 -1 2 C-2.98 2.33 -4.96 2.66 -7 3 C-7.99 5.31 -8.98 7.62 -10 10 C-10.825 9.67 -10.825 9.67 -15 8 C-17.31 7.34 -19.62 6.68 -22 6 C-22 5.67 -22 5.34 -22 5 C-18.7 5.33 -15.4 5.66 -12 6 C-10.68 4.35 -9.36 2.7 -8 1 C-6 0 -6 0 0 0 Z " fill="#627581" transform="translate(666,918)"/>
<path d="M0 0 C16.5 0 33 0 50 0 C50 0.33 50 0.66 50 1 C34.49 1.33 18.98 1.66 3 2 C2.34 2.66 1.68 3.32 1 4 C0.67 2.68 0.34 1.36 0 0 Z " fill="#EFF2F3" transform="translate(124,881)"/>
<path d="M0 0 C9.899 3.96 13.825 11.606 18 21 C18 21.99 18 22.98 18 24 C17.34 24 16.68 24 16 24 C14.68 20.37 13.36 16.74 12 13 C3 3 3 3 0 0 Z " fill="#576881" transform="translate(207,473)"/>
<path d="M0 0 C1.98 1.65 3.96 3.3 6 5 C12 6 12 6 17 3 C17.99 2.01 18.98 1.02 20 0 C21.32 1.32 22.64 2.64 24 4 C23.67 4.66 23.34 5.32 23 6 C22.01 5.01 21.02 4.02 20 3 C18.02 4.65 16.04 6.3 14 8 C7 8 7 8 0 4 C-0.33 3.01 -0.66 2.02 -1 1 C-0.67 0.67 -0.34 0.34 0 0 Z " fill="#445872" transform="translate(662,981)"/>
<path d="M0 0 C0.33 0 0.66 0 1 0 C1 3.3 1 6.6 1 10 C3.64 10.33 6.28 10.66 9 11 C9 11.66 9 12.32 9 13 C-5 12 -5 12 -7 10 C-5.02 10 -3.04 10 -1 10 C-1 7.03 -1 4.06 -1 1 C-0.67 0.67 -0.34 0.34 0 0 Z " fill="#6E7C90" transform="translate(329,458)"/>
<path d="M0 0 C2.31 0 4.62 0 7 0 C7 1.32 7 2.64 7 4 C7.99 4.66 8.98 5.32 10 6 C5.71 6 1.42 6 -3 6 C-2.34 5.67 -1.68 5.34 -1 5 C-0.67 3.35 -0.34 1.7 0 0 Z " fill="#D7E4F1" transform="translate(626,687)"/>
<path d="M0 0 C3 3 3 3 4 7 C3.67 7.165 3.67 7.165 2 8 C1.34 7.01 0.68 6.02 0 5 C-0.66 7.31 -1.32 9.62 -2 12 C-3.32 14.64 -4.64 17.28 -6 20 C-7 17 -7 17 -1 1 C-0.67 0.67 -0.34 0.34 0 0 Z " fill="#DBE7F2" transform="translate(24,1299)"/>
<path d="M0 0 C0.33 1.32 0.66 2.64 1 4 C-0.155 4.495 -0.155 4.495 -6 7 C-6.33 4.69 -6.66 2.38 -7 0 C-5 -1 -5 -1 0 0 Z " fill="#AFCBE7" transform="translate(699,698)"/>
<path d="M0 0 C1.65 0 3.3 0 5 0 C6 1 6 1 6 6 C5.67 6.33 5.34 6.66 5 7 C3.35 7 1.7 7 0 7 C-1 2 -1 2 0 0 Z " fill="#D7E5F0" transform="translate(673,555)"/>
<path d="M0 0 C1.65 0 3.3 0 5 0 C5 1.65 5 3.3 5 5 C5.33 3.35 5.66 1.7 6 0 C6.66 0 7.32 0 8 0 C8 2.31 8 4.62 8 7 C6.68 7.33 5.36 7.66 4 8 C3.67 7.01 3.34 6.02 3 5 C2.34 5 1.68 5 1 5 C0.67 5.66 0.34 6.32 0 7 C0 4.69 0 2.38 0 0 Z " fill="#E1ECF4" transform="translate(644,555)"/>
<path d="M0 0 C0.66 0 1.32 0 2 0 C2 3.3 2 6.6 2 10 C3.98 10 5.96 10 8 10 C5 12 5 12 -4 12 C-4.66 11.34 -5.32 10.68 -6 10 C-4.02 10 -2.04 10 0 10 C0 6.7 0 3.4 0 0 Z " fill="#738193" transform="translate(190,458)"/>
<path d="M0 0 C2.97 0 5.94 0 9 0 C8.67 0.495 8.67 0.495 7 3 C6.34 3 5.68 3 5 3 C4.67 4.65 4.34 6.3 4 8 C3.34 8.66 2.68 9.32 2 10 C1.34 6.7 0.68 3.4 0 0 Z " fill="#B3CCE4" transform="translate(80,1302)"/>
<path d="M0 0 C0.33 0 0.66 0 1 0 C3 15 3 15 2 25 C1.67 25 1.34 25 1 25 C0.34 17.08 -0.32 9.16 -1 1 C-0.67 0.67 -0.34 0.34 0 0 Z " fill="#7E8796" transform="translate(187,965)"/>
<path d="M0 0 C-0.33 0.165 -0.33 0.165 -2 1 C-2 1.66 -2 2.32 -2 3 C-1.34 3.33 -0.68 3.66 0 4 C-0.66 4 -1.32 4 -2 4 C-2 4.66 -2 5.32 -2 6 C-1.34 6.33 -0.68 6.66 0 7 C-2.64 6.67 -5.28 6.34 -8 6 C-8 4.35 -8 2.7 -8 1 C-6 0 -6 0 0 0 Z " fill="#C1D6E8" transform="translate(703,555)"/>
<path d="M0 0 C8.882 3.553 11.284 10.639 15 19 C14.67 19.99 14.34 20.98 14 22 C11.667 17.333 9.333 12.667 7 8 C4.69 5.69 2.38 3.38 0 1 C0 0.67 0 0.34 0 0 Z " fill="#55667E" transform="translate(348,475)"/>
<path d="M0 0 C10.23 0 20.46 0 31 0 C29.35 1.65 27.7 3.3 26 5 C26 4.01 26 3.02 26 2 C21.71 1.835 21.71 1.835 0 1 C0 0.67 0 0.34 0 0 Z " fill="#D8E0E8" transform="translate(532,458)"/>
<path d="M0 0 C1.65 0 3.3 0 5 0 C5 2.64 5 5.28 5 8 C3.35 8 1.7 8 0 8 C0 5.36 0 2.72 0 0 Z " fill="#B0CAE2" transform="translate(69,1308)"/>
<path d="M0 0 C0.66 0 1.32 0 2 0 C4 3 4 3 3 15 C3.66 15.66 4.32 16.32 5 17 C4.67 17.99 4.34 18.98 4 20 C3.34 19.01 2.68 18.02 2 17 C1.01 16.67 0.02 16.34 -1 16 C-0.34 14.35 0.32 12.7 1 11 C1 3 1 3 0 0 Z " fill="#606D7C" transform="translate(699,942)"/>
<path d="M0 0 C-3 2 -3 2 -19 4 C-19.99 3.34 -20.98 2.68 -22 2 C-19.69 1.67 -19.69 1.67 -8 0 C-4 -1 -4 -1 0 0 Z " fill="#5A708A" transform="translate(308,914)"/>
<path d="M0 0 C0.66 0 1.32 0 2 0 C2 2.64 2 5.28 2 8 C0.68 7.34 -0.64 6.68 -2 6 C-2.33 6.66 -2.66 7.32 -3 8 C-3.66 8 -4.32 8 -5 8 C-5 5.69 -5 3.38 -5 1 C-4.34 1.33 -4.34 1.33 -1 3 C-0.67 2.01 -0.34 1.02 0 0 Z " fill="#EDF2F7" transform="translate(659,554)"/>
<path d="M0 0 C0.66 0.66 1.32 1.32 2 2 C0 15 0 15 -1 20 C-1.66 19.34 -2.32 18.68 -3 18 C-1 4 -1 4 0 0 Z " fill="#848E9C" transform="translate(513,903)"/>
<path d="M0 0 C3.3 0 6.6 0 10 0 C10 0.33 10 0.66 10 1 C8.02 1.33 6.04 1.66 4 2 C7.3 4.97 10.6 7.94 14 11 C13.67 11.165 13.67 11.165 12 12 C9.36 9.69 6.72 7.38 4 5 C2.68 4.67 1.36 4.34 0 4 C0 2.68 0 1.36 0 0 Z " fill="#59687C" transform="translate(86,457)"/>
<path d="M0 0 C0.66 0 1.32 0 2 0 C2 3.63 2 7.26 2 11 C-3.94 10.67 -9.88 10.34 -16 10 C-16 9.67 -16 9.34 -16 9 C-10.72 9 -5.44 9 0 9 C0 6.03 0 3.06 0 0 Z " fill="#657386" transform="translate(190,302)"/>
<path d="M0 0 C6 0 6 0 8 1 C7.67 1.66 7.34 2.32 7 3 C6.01 2.835 6.01 2.835 1 2 C0.01 2.99 -0.98 3.98 -2 5 C-1 11 -1 11 2 14 C-2 13 -2 13 -4 10 C-4 4 -4 4 0 0 Z " fill="#4D6875" transform="translate(644,965)"/>
<path d="M0 0 C6.93 0 13.86 0 21 0 C21 0.33 21 0.66 21 1 C16.38 1.33 11.76 1.66 7 2 C8.32 2.99 9.64 3.98 11 5 C6 4 6 4 0 1 C0 0.67 0 0.34 0 0 Z " fill="#46566F" transform="translate(338,470)"/>
<path d="M0 0 C0.825 0.33 0.825 0.33 5 2 C4.67 2.99 4.34 3.98 4 5 C2.35 4.67 0.7 4.34 -1 4 C-3 5 -3 5 -5 8 C-5.33 6.35 -5.66 4.7 -6 3 C-4.02 2.01 -2.04 1.02 0 0 Z " fill="#F7FAFB" transform="translate(695,694)"/>
<path d="M0 0 C0.66 0.66 1.32 1.32 2 2 C1 15 1 15 -1 17 C-1 4 -1 4 0 0 Z " fill="#657E9E" transform="translate(631,996)"/>
<path d="M0 0 C2 2 2 2 2 6 C4.31 6.66 6.62 7.32 9 8 C9 8.33 9 8.66 9 9 C6.36 9 3.72 9 1 9 C0.67 10.32 0.34 11.64 0 13 C-1 8 -1 8 0 0 Z " fill="#6F8093" transform="translate(465,984)"/>
<path d="M0 0 C0.99 0.33 1.98 0.66 3 1 C0.36 2.98 -2.28 4.96 -5 7 C-6.65 9.31 -8.3 11.62 -10 14 C-10.33 13.34 -10.66 12.68 -11 12 C-4 3 -4 3 0 0 Z " fill="#4C607C" transform="translate(172,473)"/>
<path d="M0 0 C0.66 0 1.32 0 2 0 C2 1.65 2 3.3 2 5 C2.99 5 3.98 5 5 5 C5 3.35 5 1.7 5 0 C5.33 0 5.66 0 6 0 C6 2.31 6 4.62 6 7 C5.01 7.33 4.02 7.66 3 8 C2.01 7.34 1.02 6.68 0 6 C0 4.02 0 2.04 0 0 Z " fill="#E7F0F7" transform="translate(629,555)"/>
<path d="M0 0 C2 2 2 2 4 8 C2.02 8 0.04 8 -2 8 C-1 2 -1 2 0 0 Z " fill="#B1CAE2" transform="translate(24,1302)"/>
<path d="M0 0 C4.29 0.33 8.58 0.66 13 1 C10 3 10 3 -2 2 C-1.34 1.34 -0.68 0.68 0 0 Z " fill="#667C96" transform="translate(210,916)"/>
<path d="M0 0 C0.66 0.165 0.66 0.165 4 1 C3.67 1.165 3.67 1.165 2 2 C1.67 6.29 1.34 10.58 1 15 C0.34 14.34 -0.32 13.68 -1 13 C-0.67 8.71 -0.34 4.42 0 0 Z " fill="#6A7788" transform="translate(128,970)"/>
<path d="M0 0 C0.33 0 0.66 0 1 0 C1 5.94 1 11.88 1 18 C-0.32 16.68 -1.64 15.36 -3 14 C-2.34 13.67 -1.68 13.34 -1 13 C-0.67 8.71 -0.34 4.42 0 0 Z " fill="#D8E0E6" transform="translate(564,860)"/>
<path d="M0 0 C0.66 0 1.32 0 2 0 C1.67 1.32 1.34 2.64 1 4 C1.99 4.165 1.99 4.165 7 5 C7 5.33 7 5.66 7 6 C4.69 6.33 2.38 6.66 0 7 C-0.33 7.495 -0.33 7.495 -2 10 C-2.66 9.67 -3.32 9.34 -4 9 C-2.68 6.03 -1.36 3.06 0 0 Z " fill="#D4E2EF" transform="translate(44,1298)"/>
<path d="M0 0 C0.66 0.165 0.66 0.165 4 1 C3.67 1.165 3.67 1.165 2 2 C1.67 2.99 1.34 3.98 1 5 C2.32 5 3.64 5 5 5 C5 5.66 5 6.32 5 7 C3.35 7 1.7 7 0 7 C-0.33 6.67 -0.66 6.34 -1 6 C-1 1 -1 1 0 0 Z " fill="#E9F0F5" transform="translate(666,555)"/>
<path d="M0 0 C0.99 0.33 1.98 0.66 3 1 C2.67 1.66 2.34 2.32 2 3 C1.67 8.61 1.34 14.22 1 20 C0.67 20 0.34 20 0 20 C0 13.4 0 6.8 0 0 Z " fill="#DAE4EA" transform="translate(87,460)"/>
<path d="M0 0 C5.61 0 11.22 0 17 0 C17 0.33 17 0.66 17 1 C12.38 1.33 7.76 1.66 3 2 C2.34 2.66 1.68 3.32 1 4 C0.67 2.68 0.34 1.36 0 0 Z " fill="#ECEDEE" transform="translate(124,881)"/>
<path d="M0 0 C1.32 0 2.64 0 4 0 C4 0.66 4 1.32 4 2 C3.01 2 2.02 2 1 2 C1 3.32 1 4.64 1 6 C1.99 6.33 2.98 6.66 4 7 C2.35 6.67 0.7 6.34 -1 6 C-1 1 -1 1 0 0 Z " fill="#EAF2F7" transform="translate(638,555)"/>
<path d="M0 0 C1.32 0.33 2.64 0.66 4 1 C3.34 1 2.68 1 2 1 C2 1.66 2 2.32 2 3 C2.66 3.33 3.32 3.66 4 4 C3.34 4 2.68 4 2 4 C2 4.66 2 5.32 2 6 C2.66 6.33 3.32 6.66 4 7 C2.68 7 1.36 7 0 7 C0 4.69 0 2.38 0 0 Z " fill="#F6F9FB" transform="translate(699,555)"/>
<path d="M0 0 C1.32 0.33 2.64 0.66 4 1 C3.34 1 2.68 1 2 1 C2 1.66 2 2.32 2 3 C2.66 3.33 3.32 3.66 4 4 C3.34 4 2.68 4 2 4 C2 4.66 2 5.32 2 6 C2.66 6.33 3.32 6.66 4 7 C2.68 7 1.36 7 0 7 C0 4.69 0 2.38 0 0 Z " fill="#F8FBFC" transform="translate(693,555)"/>
<path d="M0 0 C1.98 1.65 3.96 3.3 6 5 C6.66 5.33 7.32 5.66 8 6 C7.67 6.66 7.34 7.32 7 8 C0 4 0 4 -1 1 C-0.67 0.67 -0.34 0.34 0 0 Z " fill="#506681" transform="translate(662,981)"/>
<path d="M0 0 C1.98 0 3.96 0 6 0 C6 0.99 6 1.98 6 3 C4.02 3 2.04 3 0 3 C0 2.01 0 1.02 0 0 Z " fill="#E4ECF2" transform="translate(701,653)"/>
<path d="M0 0 C1.98 0 3.96 0 6 0 C6 0.99 6 1.98 6 3 C4.02 3 2.04 3 0 3 C0 2.01 0 1.02 0 0 Z " fill="#ECF2F7" transform="translate(650,653)"/>
<path d="M0 0 C1.98 0 3.96 0 6 0 C6 0.99 6 1.98 6 3 C4.02 3 2.04 3 0 3 C0 2.01 0 1.02 0 0 Z " fill="#E7EFF4" transform="translate(701,618)"/>
<path d="M0 0 C1.98 0 3.96 0 6 0 C6 0.99 6 1.98 6 3 C4.02 3 2.04 3 0 3 C0 2.01 0 1.02 0 0 Z " fill="#E6EFF6" transform="translate(650,618)"/>
<path d="M0 0 C1.98 0 3.96 0 6 0 C6 0.99 6 1.98 6 3 C4.02 3 2.04 3 0 3 C0 2.01 0 1.02 0 0 Z " fill="#E7F0F6" transform="translate(701,592)"/>
<path d="M0 0 C1.98 0 3.96 0 6 0 C6 0.99 6 1.98 6 3 C4.02 3 2.04 3 0 3 C0 2.01 0 1.02 0 0 Z " fill="#ECF3F7" transform="translate(650,592)"/>
<path d="M0 0 C1.98 0 3.96 0 6 0 C6 0.99 6 1.98 6 3 C4.02 3 2.04 3 0 3 C0 2.01 0 1.02 0 0 Z " fill="#EAF2F7" transform="translate(650,583)"/>
<path d="M0 0 C1.65 0 3.3 0 5 0 C5 0.99 5 1.98 5 3 C3.02 3 1.04 3 -1 3 C-0.67 2.01 -0.34 1.02 0 0 Z " fill="#E9F1F7" transform="translate(651,670)"/>
</svg>
