<?xml version="1.0" encoding="UTF-8"?>
<!-- Generator: visioncortex VTracer 0.6.12 -->
<svg version="1.1" xmlns="http://www.w3.org/2000/svg" width="768" height="1344">
<path d="M0 0 C253.44 0 506.88 0 768 0 C768 443.52 768 887.04 768 1344 C514.56 1344 261.12 1344 0 1344 C0 900.48 0 456.96 0 0 Z " fill="#FEFEFE" transform="translate(0,0)"/>
<path d="M0 0 C5.321 13.302 9.847 27.767 7 42 C4.03 42.66 1.06 43.32 -2 44 C0.64 55.88 3.28 67.76 6 80 C6 80.66 6 81.32 6 82 C6.66 81.67 7.32 81.34 8 81 C59.615 76.308 59.615 76.308 79 86 C79 89.3 79 92.6 79 96 C77.35 96.66 75.7 97.32 74 98 C74.08 98.563 74.161 99.126 74.244 99.706 C79 133 79 133 79 139 C93.19 139 107.38 139 122 139 C122 109.96 122 80.92 122 51 C111.11 51 100.22 51 89 51 C40.391 45.391 40.391 45.391 32 37 C32 33.04 32 29.08 32 25 C73.999 -3 154.847 10.634 201 17 C221 22 221 22 225 26 C225 29.63 225 33.26 225 37 C202.872 54.702 162.016 52 135 52 C135 80.38 135 108.76 135 138 C148.53 138 162.06 138 176 138 C176.33 134.7 176.66 131.4 177 128 C177.66 123.38 178.32 118.76 179 114 C179.66 108.72 180.32 103.44 181 98 C179.35 97.34 177.7 96.68 176 96 C176 93.03 176 90.06 176 87 C195.912 73.725 226.554 78.793 249 82 C250.32 75.4 251.64 68.8 253 62 C254.32 56.39 255.64 50.78 257 45 C254.03 44.01 251.06 43.02 248 42 C247.67 41.67 247.34 41.34 247 41 C247 27.115 247.112 11.832 255 0 C264 1 264 1 266 2 C266 4.64 266 7.28 266 10 C267.65 10.33 269.3 10.66 271 11 C271.33 11.33 271.66 11.66 272 12 C269.519 34.331 263.236 56.185 258 78 C258 79.98 258 81.96 258 84 C258.99 84.66 259.98 85.32 261 86 C261 89.3 261 92.6 261 96 C259.68 96.33 258.36 96.66 257 97 C258.65 107.56 260.3 118.12 262 129 C262.33 131.97 262.66 134.94 263 138 C287.09 138.33 311.18 138.66 336 139 C336.33 136.03 336.66 133.06 337 130 C337.246 127.956 337.497 125.913 337.754 123.871 C337.886 122.817 338.018 121.763 338.154 120.678 C338.222 120.143 338.222 120.143 338.562 117.438 C338.701 116.333 338.84 115.229 338.982 114.092 C339.69 108.453 340.595 103.619 342 98 C340.35 97.34 338.7 96.68 337 96 C336.67 95.67 336.34 95.34 336 95 C336 92.03 336 89.06 336 86 C337.65 85.34 339.3 84.68 341 84 C338 68 338 68 336.391 61.195 C325.869 16.656 325.869 16.656 327 11 C328.65 10.67 330.3 10.34 332 10 C332 7.36 332 4.72 332 2 C336 0 336 0 343 0 C347.425 13.274 351 26.887 351 41 C346 44 346 44 341 44 C342.32 49.94 342.32 49.94 349 80 C349 80.66 349 81.32 349 82 C350.815 81.67 350.815 81.67 360 80 C409 80 409 80 423 87 C423 89.64 423 92.28 423 95 C419 98 419 98 417 98 C417.66 100.97 418.32 103.94 419 107 C420.473 117.314 421.783 127.652 423 138 C437.19 138 451.38 138 466 138 C466 109.62 466 81.24 466 52 C461.71 52 457.42 52 453 52 C385.833 46.833 385.833 46.833 375 36 C375 32.7 375 29.4 375 26 C412.325 -3.86 499.782 12.075 541 16 C564.385 20.385 564.385 20.385 570 26 C570 29.63 570 33.26 570 37 C543.975 53.266 508.503 51 479 51 C479 79.71 479 108.42 479 138 C492.86 138 506.72 138 521 138 C521.33 134.04 521.66 130.08 522 126 C523.32 116.76 524.64 107.52 526 98 C525.175 97.67 525.175 97.67 521 96 C520.67 95.67 520.34 95.34 520 95 C520 92.36 520 89.72 520 87 C539.013 72.74 573.241 79.824 595 82 C595.33 79.36 595.66 76.72 596 74 C596.99 69.71 596.99 69.71 602 48 C602 46.68 602 45.36 602 44 C599.36 43.34 596.72 42.68 594 42 C593.67 41.67 593.34 41.34 593 41 C595.538 5.462 595.538 5.462 601 0 C609 1 609 1 612 3 C612 5.31 612 7.62 612 10 C612.825 10.165 612.825 10.165 617 11 C617 25.252 612.264 39.127 609 53 C603 81 603 81 603 84 C604.32 84.66 605.64 85.32 607 86 C607 89.3 607 92.6 607 96 C605.35 96.66 603.7 97.32 602 98 C603.976 111.445 605.973 124.885 608.062 138.312 C613 170.096 613 170.096 613 183 C611.35 183.33 609.7 183.66 608 184 C599.63 175.63 603.722 160.711 602 149 C601.34 146.03 600.68 143.06 600 140 C599.67 137.03 599.34 134.06 599 131 C594.71 130.67 590.42 130.34 586 130 C586.33 131.32 586.66 132.64 587 134 C588.187 147.652 589.24 161.318 590 175 C610 187 610 187 613 188 C614.32 189.32 615.64 190.64 617 192 C617.613 192.372 618.226 192.743 618.857 193.126 C637.699 204.559 656.364 216.23 675 228 C675 255.06 675 282.12 675 310 C436.41 310 197.82 310 -48 310 C-48 186.815 -48 186.815 -31.438 163.188 C-30.81 162.292 -30.183 161.397 -29.537 160.475 C-26.783 156.543 -24.009 152.634 -21.188 148.75 C-20.48 147.775 -19.772 146.801 -19.043 145.797 C-17.378 143.518 -15.7 141.252 -14 139 C-11.69 139 -9.38 139 -7 139 C-6.34 131.74 -5.68 124.48 -5 117 C-4.01 110.73 -3.02 104.46 -2 98 C-3.32 97.34 -4.64 96.68 -6 96 C-6.33 95.67 -6.66 95.34 -7 95 C-7 92.36 -7 89.72 -7 87 C-6.01 86.01 -5.02 85.02 -4 84 C-3.34 84 -2.68 84 -2 84 C-6.371 63.601 -11.085 43.275 -16 23 C-16.33 19.37 -16.66 15.74 -17 12 C-16.34 11.34 -15.68 10.68 -15 10 C-13.68 10 -12.36 10 -11 10 C-11.165 8.845 -11.165 8.845 -12 3 C-7 0 -7 0 0 0 Z " fill="#EAC9AA" transform="translate(75,830)"/>
<path d="M0 0 C253.44 0 506.88 0 768 0 C768 45.21 768 90.42 768 137 C514.56 137 261.12 137 0 137 C0 91.79 0 46.58 0 0 Z " fill="#E79958" transform="translate(0,0)"/>
<path d="M0 0 C253.44 0 506.88 0 768 0 C768 44.88 768 89.76 768 136 C514.56 136 261.12 136 0 136 C0 91.12 0 46.24 0 0 Z " fill="#E79858" transform="translate(0,1208)"/>
<path d="M0 0 C101.64 0 203.28 0 308 0 C308 101.97 308 203.94 308 309 C313.61 309 319.22 309 325 309 C325 312.3 325 315.6 325 319 C212.8 319 100.6 319 -15 319 C-15 315.7 -15 312.4 -15 309 C-10.05 309 -5.1 309 0 309 C0 207.03 0 105.06 0 0 Z " fill="#EAE9DE" transform="translate(175,501)"/>
<path d="M0 0 C14 8 14 8 18 11 C18 38.06 18 65.12 18 93 C-220.59 93 -459.18 93 -705 93 C-705 29 -705 29 -704 2 C-471.68 2 -239.36 2 0 2 C0 1.34 0 0.68 0 0 Z " fill="#EAC9AA" transform="translate(732,1047)"/>
<path d="M0 0 C101.64 0 203.28 0 308 0 C308 101.97 308 203.94 308 309 C313.61 309 319.22 309 325 309 C325 312.3 325 315.6 325 319 C212.8 319 100.6 319 -15 319 C-15 315.7 -15 312.4 -15 309 C-10.05 309 -5.1 309 0 309 C0 207.03 0 105.06 0 0 Z M12 12 C12 88.23 12 164.46 12 243 C89.88 243 167.76 243 248 243 C248 236.4 248 229.8 248 223 C243.38 222.01 238.76 221.02 234 220 C222.644 213.691 218.825 209.063 214 197 C214 183.728 215.266 179.049 223 168 C222.67 165.69 222.34 163.38 222 161 C222 148.631 223.009 141.59 231 132 C231.33 127.71 231.66 123.42 232 119 C236 107 236 107 243 99 C245 98 245 98 254 98 C264.243 103.121 265.617 107.234 271 118 C274.674 130.859 273.195 143.853 272 157 C275.3 159.97 278.6 162.94 282 166 C288.557 179.115 289.381 185.397 285 200 C278.778 211.2 274.503 215.248 263 221 C260.69 221.33 258.38 221.66 256 222 C256 228.93 256 235.86 256 243 C269.2 243 282.4 243 296 243 C296 166.77 296 90.54 296 12 C202.28 12 108.56 12 12 12 Z " fill="#A3AFB0" transform="translate(175,501)"/>
<path d="M0 0 C15.241 20.321 24.563 50.407 34 74 C76.24 74.33 118.48 74.66 162 75 C162 84.57 162 94.14 162 104 C153.75 104 145.5 104 137 104 C137 110.27 137 116.54 137 123 C136.01 123.99 135.02 124.98 134 126 C127.07 126 120.14 126 113 126 C113 131.94 113 137.88 113 144 C105.74 144 98.48 144 91 144 C91 151.26 91 158.52 91 166 C90.34 166.66 89.68 167.32 89 168 C81.74 168 74.48 168 67 168 C67 175.92 67 183.84 67 192 C66.67 192.33 66.34 192.66 66 193 C55.44 193 44.88 193 34 193 C34 249.43 34 305.86 34 364 C45.55 363.67 57.1 363.34 69 363 C68.505 362.34 68.505 362.34 66 359 C63.363 351.088 65 342.34 65 334 C66.32 333.34 67.64 332.68 69 332 C66.69 329.36 64.38 326.72 62 324 C54 309 54 309 53 300 C53.99 299.67 54.98 299.34 56 299 C64 305 64 305 66 307 C66 299.74 66 292.48 66 285 C70 286 70 286 74 291 C75.98 294.96 77.96 298.92 80 303 C80.825 300.69 80.825 300.69 85 289 C86.32 287.02 87.64 285.04 89 283 C89.99 283.33 90.98 283.66 92 284 C94.427 291.28 93 299.326 93 307 C94.32 305.68 94.32 305.68 101 299 C102.32 299 103.64 299 105 299 C105 312.262 100.503 320.282 93 331 C92.67 331.33 92.34 331.66 92 332 C93.32 332.66 94.64 333.32 96 334 C96 356 96 356 92 363 C104.54 363.33 117.08 363.66 130 364 C130 367.63 130 371.26 130 375 C126.37 375 122.74 375 119 375 C119 380.28 119 385.56 119 391 C116.36 391 113.72 391 111 391 C111 385.72 111 380.44 111 375 C92.85 375 74.7 375 56 375 C56 380.28 56 385.56 56 391 C53.03 391 50.06 391 47 391 C47 385.72 47 380.44 47 375 C43.04 375.33 39.08 375.66 35 376 C34.67 435.07 34.34 494.14 34 555 C33.34 555.99 32.68 556.98 32 558 C33.48 574.276 38.137 590.12 42 606 C46 625 46 625 46 630 C44.68 630.99 43.36 631.98 42 633 C42 635.64 42 638.28 42 641 C42.66 641.495 42.66 641.495 46 644 C46 652 46 652 44 663 C43.34 668.94 42.68 674.88 42 681 C41.67 682.32 41.34 683.64 41 685 C38.69 685.33 36.38 685.66 34 686 C22.738 701.485 11.813 717.2 1 733 C0.67 733 0.34 733 0 733 C-1 23 -1 23 0 0 Z " fill="#F4F0E8" transform="translate(27,284)"/>
<path d="M0 0 C14 1 14 1 20.91 2.023 C23.174 2.358 25.438 2.692 27.702 3.026 C29.249 3.255 30.796 3.484 32.342 3.713 C39.899 4.833 47.456 5.941 55.031 6.938 C66.18 8.405 77.307 10.029 88.438 11.625 C90.73 11.953 93.022 12.281 95.314 12.609 C100.876 13.405 106.438 14.203 112 15 C122.56 16.32 133.12 17.64 144 19 C210.233 85.233 145 206.333 145 300 C123.737 288.402 103.151 275.434 83 262 C83 261.34 83 260.68 83 260 C81.35 259.67 79.7 259.34 78 259 C60 248 60 248 59 247 C58.835 244.03 58.835 244.03 58 229 C57.67 225.205 57.67 225.205 56 206 C56 204.68 56 203.36 56 202 C60.29 202 64.58 202 69 202 C72.837 205.837 71.283 212.621 72 218 C72.99 223.28 73.98 228.56 75 234 C75.99 240.93 76.98 247.86 78 255 C79.32 255 80.64 255 82 255 C82 230.138 76.873 203.367 72 179 C72 176.03 72 173.06 72 170 C73.32 169.34 74.64 168.68 76 168 C76.33 164.7 76.66 161.4 77 158 C75.35 157.34 73.7 156.68 72 156 C75.648 134.113 80.863 112.575 86 91 C86.33 88.36 86.66 85.72 87 83 C85.35 82.67 83.7 82.34 82 82 C81.67 79.69 81.34 77.38 81 75 C76 73 76 73 71 73 C67.257 86.099 64 99.326 64 113 C66.97 113.99 69.94 114.98 73 116 C71.169 128.814 67.851 141.374 65 154 C61.7 153.835 61.7 153.835 45 153 C4.5 153 4.5 153 -9 159 C-9 161.64 -9 164.28 -9 167 C-7.35 167.99 -5.7 168.98 -4 170 C-5 186 -5 186 -9 210 C-22.86 210 -36.72 210 -51 210 C-51 181.29 -51 152.58 -51 123 C-44.235 122.67 -44.235 122.67 -10 121 C22.895 117.053 22.895 117.053 39 109 C39 105.37 39 101.74 39 98 C25.937 88.203 6.682 88.307 -9 87 C-9 86.67 -9 86.34 -9 86 C-6.03 86 -3.06 86 0 86 C0 57.62 0 29.24 0 0 Z " fill="#F3EFE7" transform="translate(605,758)"/>
<path d="M0 0 C9 1 9 1 11 2 C11 4.64 11 7.28 11 10 C12.65 10.33 14.3 10.66 16 11 C16.33 11.33 16.66 11.66 17 12 C14.519 34.331 8.236 56.185 3 78 C3 79.98 3 81.96 3 84 C3.99 84.66 4.98 85.32 6 86 C6 89.3 6 92.6 6 96 C4.68 96.33 3.36 96.66 2 97 C3.65 107.56 5.3 118.12 7 129 C7.33 131.97 7.66 134.94 8 138 C32.09 138.33 56.18 138.66 81 139 C81.33 136.03 81.66 133.06 82 130 C82.246 127.956 82.497 125.913 82.754 123.871 C82.886 122.817 83.018 121.763 83.154 120.678 C83.222 120.143 83.222 120.143 83.562 117.438 C83.701 116.333 83.84 115.229 83.982 114.092 C84.69 108.453 85.595 103.619 87 98 C85.35 97.34 83.7 96.68 82 96 C81.67 95.67 81.34 95.34 81 95 C81 92.03 81 89.06 81 86 C82.65 85.34 84.3 84.68 86 84 C83 68 83 68 81.391 61.195 C70.869 16.656 70.869 16.656 72 11 C73.65 10.67 75.3 10.34 77 10 C77 7.36 77 4.72 77 2 C81 0 81 0 88 0 C92.425 13.274 96 26.887 96 41 C91 44 91 44 86 44 C87.32 49.94 87.32 49.94 94 80 C94 80.66 94 81.32 94 82 C95.815 81.67 95.815 81.67 105 80 C154 80 154 80 168 87 C168 89.64 168 92.28 168 95 C164 98 164 98 162 98 C162.66 100.97 163.32 103.94 164 107 C164.061 107.428 164.061 107.428 164.369 109.591 C165.549 117.862 166.741 126.131 167.945 134.398 C168.12 135.599 168.295 136.8 168.475 138.038 C169.025 141.817 169.575 145.596 170.125 149.375 C170.501 151.961 170.878 154.547 171.254 157.133 C172.169 163.422 173.084 169.711 174 176 C174 178.31 174 180.62 174 183 C173.67 183.33 173.34 183.66 173 184 C171.35 184 169.7 184 168 184 C160.436 176.436 161.618 145.329 160 134 C160 132.68 160 131.36 160 130 C155.38 130 150.76 130 146 130 C146.33 131.98 146.66 133.96 147 136 C147.33 141.61 147.66 147.22 148 153 C148.66 160.26 149.32 167.52 150 175 C150 176.98 150 178.96 150 181 C149.67 181.33 149.34 181.66 149 182 C147.35 182 145.7 182 144 182 C136.165 174.165 141.034 160.032 140 149 C140 142.73 140 136.46 140 130 C129.77 130 119.54 130 109 130 C108.67 135.28 108.34 140.56 108 146 C105 181 105 181 104 182 C102.35 182 100.7 182 99 182 C98.67 181.67 98.34 181.34 98 181 C98 163.948 100.215 146.959 102 130 C97.71 130 93.42 130 89 130 C88.67 134.62 88.34 139.24 88 144 C86.68 150.93 85.36 157.86 84 165 C83.505 167.97 83.505 167.97 81 183 C80.67 183.33 80.34 183.66 80 184 C78.35 184 76.7 184 75 184 C74.67 183.01 74.34 182.02 74 181 C74 182.65 74 184.3 74 186 C75.98 187.65 77.96 189.3 80 191 C80 191.33 80 191.66 80 192 C55.91 192.33 31.82 192.66 7 193 C6.67 193.33 6.34 193.66 6 194 C-150.5 194 -150.5 194 -161 187 C-161.33 186.67 -161.33 186.67 -163 185 C-163 182.69 -163 180.38 -163 178 C-153.586 171.276 -144.54 169 -133 169 C-133 130.06 -133 91.12 -133 51 C-143.89 51 -154.78 51 -166 51 C-214.609 45.391 -214.609 45.391 -223 37 C-223 33.04 -223 29.08 -223 25 C-181.001 -3 -100.153 10.634 -54 17 C-34 22 -34 22 -30 26 C-30 29.63 -30 33.26 -30 37 C-52.128 54.702 -92.984 52 -120 52 C-120 80.38 -120 108.76 -120 138 C-106.47 138 -92.94 138 -79 138 C-78.67 134.7 -78.34 131.4 -78 128 C-77.34 123.38 -76.68 118.76 -76 114 C-75.34 108.72 -74.68 103.44 -74 98 C-75.65 97.34 -77.3 96.68 -79 96 C-79 93.03 -79 90.06 -79 87 C-59.088 73.725 -28.446 78.793 -6 82 C-4.68 75.4 -3.36 68.8 -2 62 C-0.68 56.39 0.64 50.78 2 45 C-0.97 44.01 -3.94 43.02 -7 42 C-7.33 41.67 -7.66 41.34 -8 41 C-8 27.115 -7.888 11.832 0 0 Z " fill="#DDB897" transform="translate(330,830)"/>
<path d="M0 0 C0 94.38 0 188.76 0 286 C-18 286 -18 286 -22.553 285.665 C-52.023 283.499 -81.484 281.414 -111 280 C-113.31 279.67 -115.62 279.34 -118 279 C-118 204.75 -118 130.5 -118 54 C-97.901 44.509 -77.849 35.088 -57.605 25.938 C-41.97 18.843 -26.496 11.393 -11 4 C-2 0 -2 0 0 0 Z " fill="#E0793D" transform="translate(735,450)"/>
<path d="M0 0 C14 8 14 8 18 11 C18 29 18 29 17 31 C-220.93 31 -458.86 31 -704 31 C-704 21.43 -704 11.86 -704 2 C-471.68 2 -239.36 2 0 2 C0 1.34 0 0.68 0 0 Z " fill="#E9C8A8" transform="translate(732,1047)"/>
<path d="M0 0 C39.6 0 79.2 0 120 0 C120 76.23 120 152.46 120 231 C106.8 231 93.6 231 80 231 C80 224.07 80 217.14 80 210 C81.65 209.67 81.65 209.67 90 208 C102.309 199.794 108.41 192.359 112 178 C112 162.939 109.131 158.257 99 147 C98.505 146.67 98.505 146.67 96 145 C96.33 141.37 96.66 137.74 97 134 C97 114.626 96.587 106.979 87 91 C78.946 85.631 79.206 86 69 86 C57.279 96.256 56.142 105.15 55 120 C53.02 122.64 51.04 125.28 49 128 C45.702 137.894 45.528 145.699 47 156 C44.69 159.3 42.38 162.6 40 166 C37.098 179.061 37.755 184.412 43 197 C52.796 206.796 58.124 208.027 72 211 C72 213.64 72 216.28 72 219 C48.24 219 24.48 219 0 219 C0 146.73 0 74.46 0 0 Z " fill="#E2E6E6" transform="translate(351,513)"/>
<path d="M0 0 C5.321 13.302 9.847 27.767 7 42 C4.03 42.66 1.06 43.32 -2 44 C0.64 55.88 3.28 67.76 6 80 C6 80.66 6 81.32 6 82 C6.66 81.67 7.32 81.34 8 81 C59.615 76.308 59.615 76.308 79 86 C79 89.3 79 92.6 79 96 C77.35 96.66 75.7 97.32 74 98 C74.08 98.563 74.161 99.126 74.244 99.706 C79 133 79 133 79 139 C93.19 139 107.38 139 122 139 C122 148.9 122 158.8 122 169 C116.39 169.99 110.78 170.98 105 172 C96 176 96 176 93 178 C93 180.31 93 182.62 93 185 C136.012 219.409 202.92 193.62 258 194 C202.398 231.068 84.979 211.273 25 203 C3 198 3 198 -6 195 C-12.765 194.835 -12.765 194.835 -47 194 C-47 201.26 -47 208.52 -47 216 C184.99 216 416.98 216 656 216 C656.33 216.99 656.66 217.98 657 219 C424.68 219 192.36 219 -47 219 C-47 227.91 -47 236.82 -47 246 C-47.33 246 -47.66 246 -48 246 C-48 186.815 -48 186.815 -31.438 163.188 C-30.81 162.292 -30.183 161.397 -29.537 160.475 C-26.783 156.543 -24.009 152.634 -21.188 148.75 C-20.48 147.775 -19.772 146.801 -19.043 145.797 C-17.378 143.518 -15.7 141.252 -14 139 C-11.69 139 -9.38 139 -7 139 C-6.34 131.74 -5.68 124.48 -5 117 C-4.01 110.73 -3.02 104.46 -2 98 C-3.32 97.34 -4.64 96.68 -6 96 C-6.33 95.67 -6.66 95.34 -7 95 C-7 92.36 -7 89.72 -7 87 C-6.01 86.01 -5.02 85.02 -4 84 C-3.34 84 -2.68 84 -2 84 C-6.371 63.601 -11.085 43.275 -16 23 C-16.33 19.37 -16.66 15.74 -17 12 C-16.34 11.34 -15.68 10.68 -15 10 C-13.68 10 -12.36 10 -11 10 C-11.165 8.845 -11.165 8.845 -12 3 C-7 0 -7 0 0 0 Z " fill="#DCB796" transform="translate(75,830)"/>
<path d="M0 0 C101.64 0 203.28 0 308 0 C308 101.97 308 203.94 308 309 C313.61 309 319.22 309 325 309 C325 312.3 325 315.6 325 319 C212.8 319 100.6 319 -15 319 C-15 315.7 -15 312.4 -15 309 C-10.05 309 -5.1 309 0 309 C0 207.03 0 105.06 0 0 Z M12 12 C12 106.38 12 200.76 12 298 C105.72 298 199.44 298 296 298 C296 203.62 296 109.24 296 12 C202.28 12 108.56 12 12 12 Z " fill="#C48B60" transform="translate(175,501)"/>
<path d="M0 0 C15.18 0 30.36 0 46 0 C46 72.27 46 144.54 46 219 C69.76 219 93.52 219 118 219 C118 222.96 118 226.92 118 231 C40.12 231 -37.76 231 -118 231 C-118 227.04 -118 223.08 -118 219 C-79.06 219 -40.12 219 0 219 C0 146.73 0 74.46 0 0 Z " fill="#CFD5D6" transform="translate(305,513)"/>
<path d="M0 0 C6 3 6 3 7 4 C7 5.65 7 7.3 7 9 C-1 13 -1 13 -6 13 C-6 39.4 -6 65.8 -6 93 C30.3 93 66.6 93 104 93 C131.814 120.814 105 171.665 105 211 C94.44 211 83.88 211 73 211 C68.363 204.044 71 194.36 71 186 C64.4 186 57.8 186 51 186 C50.34 185.67 49.68 185.34 49 185 C49 177.41 49 169.82 49 162 C41.74 162 34.48 162 27 162 C24.994 155.983 26 149.342 26 143 C25.01 143.33 24.02 143.66 23 144 C6 144 6 144 3 142 C3 135.4 3 128.8 3 122 C0.03 122 -2.94 122 -6 122 C-6 137.84 -6 153.68 -6 170 C-4.35 170.33 -2.7 170.66 -1 171 C0.167 172.167 0.167 172.167 6 178 C8.97 179.98 11.94 181.96 15 184 C19.29 187.3 23.58 190.6 28 194 C26.16 201.359 19.519 207.974 15 214 C0.15 214 -14.7 214 -30 214 C-44 198 -44 198 -44 194 C-25 180 -25 180 -19 176 C-17.35 174.02 -15.7 172.04 -14 170 C-12.35 169.67 -10.7 169.34 -9 169 C-9 117.52 -9 66.04 -9 13 C-11.31 13 -13.62 13 -16 13 C-18.31 11.68 -20.62 10.36 -23 9 C-23 7.35 -23 5.7 -23 4 C-17 0 -17 0 0 0 Z " fill="#F4EFE7" transform="translate(500,266)"/>
<path d="M0 0 C0 49.83 0 99.66 0 151 C-25 166 -25 166 -30 166 C-34.922 156.157 -31 144.005 -31 133 C-44 141 -44 141 -47 143 C-48.32 143 -49.64 143 -51 143 C-55.326 134.349 -52 123.672 -52 114 C-54.64 115.65 -54.64 115.65 -68 124 C-68.99 124 -69.98 124 -71 124 C-71 115.75 -71 107.5 -71 99 C-83.404 106.894 -95.135 115.299 -107 124 C-107.99 124 -108.98 124 -110 124 C-110.33 112.78 -110.66 101.56 -111 90 C-103.26 83.034 -95.188 76.434 -87 70 C-86.479 69.57 -86.479 69.57 -83.844 67.395 C-74.592 59.763 -65.31 52.17 -55.993 44.618 C-53.97 42.976 -51.952 41.33 -49.934 39.684 C-41.362 32.693 -32.722 25.801 -24 19 C-21.291 16.771 -18.583 14.542 -15.875 12.312 C-15.495 12 -15.495 12 -13.57 10.416 C-0.918 0 -0.918 0 0 0 Z " fill="#F5F1EB" transform="translate(750,240)"/>
<path d="M0 0 C4.62 0 9.24 0 14 0 C14 38.94 14 77.88 14 118 C7.07 119.32 0.14 120.64 -7 122 C-13 125 -13 125 -16 128 C-16 129.98 -16 131.96 -16 134 C30.662 165.108 95.921 142.611 152 143 C80.311 178.844 -30.432 163.633 -106 146 C-107.98 145.34 -109.96 144.68 -112 144 C-125.2 143.835 -125.2 143.835 -192 143 C-191.835 142.67 -191.835 142.67 -191 141 C-167.24 140.67 -143.48 140.34 -119 140 C-119.99 139.175 -119.99 139.175 -125 135 C-124.67 132.69 -124.34 130.38 -124 128 C-123.67 128 -123.34 128 -123 128 C-123 129.65 -123 131.3 -123 133 C-121.35 132.67 -119.7 132.34 -118 132 C-117.917 131.499 -117.917 131.499 -117.497 128.965 C-116.866 125.161 -116.234 121.357 -115.601 117.553 C-115.331 115.923 -115.06 114.293 -114.79 112.663 C-112.927 101.43 -111.001 90.21 -109 79 C-104.71 79 -100.42 79 -96 79 C-96.705 91.687 -97.736 104.357 -99 117 C-99 121.29 -99 125.58 -99 130 C-97.35 130 -95.7 130 -94 130 C-92.68 115.15 -91.36 100.3 -90 85 C-89.67 83.02 -89.34 81.04 -89 79 C-78.77 79 -68.54 79 -58 79 C-57.67 83.785 -57.67 83.785 -56 108 C-55.67 111.63 -55.67 111.63 -54 130 C-52.35 130 -50.7 130 -49 130 C-50 109 -50 109 -51 102 C-51.33 94.41 -51.66 86.82 -52 79 C-47.38 79 -42.76 79 -38 79 C-35.112 96.638 -32.473 114.3 -30 132 C-28.35 132 -26.7 132 -25 132 C-26.081 117.943 -28.074 103.967 -30 90 C-30 89.01 -30 88.02 -30 87 C-15.81 87 -1.62 87 13 87 C13 58.62 13 30.24 13 1 C8.71 1 4.42 1 0 1 C0 0.67 0 0.34 0 0 Z " fill="#DEB997" transform="translate(528,881)"/>
<path d="M0 0 C0.99 0.99 1.98 1.98 3 3 C3 6.63 3 10.26 3 14 C-23.025 30.266 -58.497 28 -88 28 C-88 66.94 -88 105.88 -88 146 C-83.71 146.33 -79.42 146.66 -75 147 C-61 152 -61 152 -57 157 C-58 162 -58 162 -63 166 C-83.745 173.779 -106.689 174.027 -127 165 C-128.32 164.01 -129.64 163.02 -131 162 C-131 156 -131 156 -126 151 C-117.339 148.113 -109.207 146 -100 146 C-100 107.06 -100 68.12 -100 28 C-109.9 28 -119.8 28 -130 28 C-181.476 23.524 -181.476 23.524 -192 13 C-192 9.7 -192 6.4 -192 3 C-152.114 -28.909 -41.908 -16.763 0 0 Z " fill="#A66234" transform="translate(642,853)"/>
<path d="M0 0 C2 2 2 2 2 13 C-20.509 31.007 -61.73 27 -89 27 C-89 65.94 -89 104.88 -89 145 C-86.69 145 -84.38 145 -82 145 C-63.333 149.667 -63.333 149.667 -58 155 C-58.33 157.31 -58.66 159.62 -59 162 C-78.671 173.241 -101.336 171.999 -123 167 C-129 163 -129 163 -131 161 C-131 158.69 -131 156.38 -131 154 C-121.586 147.276 -112.54 145 -101 145 C-101 106.06 -101 67.12 -101 27 C-111.89 27 -122.78 27 -134 27 C-182.609 21.391 -182.609 21.391 -191 13 C-191 9.04 -191 5.08 -191 1 C-149.24 -26.84 -42.711 -21.356 0 0 Z " fill="#A56135" transform="translate(298,854)"/>
<path d="M0 0 C0 78 0 78 -2 81 C-0.52 97.276 4.137 113.12 8 129 C12 148 12 148 12 153 C10.68 153.99 9.36 154.98 8 156 C8 158.64 8 161.28 8 164 C9.32 164.99 10.64 165.98 12 167 C12 175 12 175 10 186 C9.34 191.94 8.68 197.88 8 204 C7.67 205.32 7.34 206.64 7 208 C4.69 208.33 2.38 208.66 0 209 C-11.262 224.485 -22.187 240.2 -33 256 C-33.33 256 -33.66 256 -34 256 C-34 174.49 -34 92.98 -34 9 C-27.07 7.02 -20.14 5.04 -13 3 C-3 0 -3 0 0 0 Z " fill="#F1EEE6" transform="translate(61,761)"/>
<path d="M0 0 C8.286 4.143 11.045 8.073 16 16 C20.988 30.963 20.418 44.399 19 60 C20.32 61.155 20.32 61.155 27 67 C34.201 77.802 35 79.976 35 93 C31.401 104.997 27.89 111.11 19 120 C9 125 9 125 2 125 C2 127.64 2 130.28 2 133 C0.02 131.35 -1.96 129.7 -4 128 C-4.33 133.94 -4.66 139.88 -5 146 C-5.33 146 -5.66 146 -6 146 C-6 139.4 -6 132.8 -6 126 C-8.31 126 -10.62 126 -13 126 C-25.06 121.614 -28.629 119.567 -37 110 C-41.518 98.706 -41.617 92.775 -39 81 C-37.845 79.35 -37.845 79.35 -32 71 C-32.33 68.69 -32.66 66.38 -33 64 C-33 51.631 -31.991 44.59 -24 35 C-23.67 30.71 -23.34 26.42 -23 22 C-18.222 7.666 -15.296 0 0 0 Z " fill="#B7CBA5" transform="translate(429,598)"/>
<path d="M0 0 C5.321 13.302 9.847 27.767 7 42 C4.03 42.66 1.06 43.32 -2 44 C0.64 55.88 3.28 67.76 6 80 C6 80.66 6 81.32 6 82 C6.33 81.835 6.33 81.835 8 81 C59.615 76.308 59.615 76.308 79 86 C79 89.3 79 92.6 79 96 C77.35 96.66 75.7 97.32 74 98 C74.091 98.627 74.091 98.627 74.549 101.803 C76.588 115.984 78.534 130.176 80.45 144.374 C81.877 154.931 83.316 165.48 85 176 C85 178.31 85 180.62 85 183 C84.67 183.33 84.34 183.66 84 184 C82.35 184 80.7 184 79 184 C67.065 172.065 73.387 150.709 71 134 C71 132.68 71 131.36 71 130 C66.71 130 62.42 130 58 130 C58.33 134.95 58.33 134.95 60 160 C60 167.26 60 174.52 60 182 C58.35 182 56.7 182 55 182 C42.922 169.922 51.362 148.027 50 131 C40.43 131 30.86 131 21 131 C19.47 147.316 17.962 163.641 17 180 C16.34 180.66 15.68 181.32 15 182 C13.35 182 11.7 182 10 182 C10 164.583 10.837 147.306 13 130 C9.04 130 5.08 130 1 130 C0.34 135.28 -0.32 140.56 -1 146 C-1.66 149.96 -2.32 153.92 -3 158 C-3.99 165.26 -4.98 172.52 -6 180 C-6.33 180.66 -6.33 180.66 -8 184 C-9.65 184 -11.3 184 -13 184 C-13.33 183.67 -13.66 183.34 -14 183 C-12.579 164.528 -9.046 146.274 -6 128 C-5.34 122.06 -4.68 116.12 -4 110 C-3.67 108.02 -3.67 108.02 -2 98 C-3.32 97.34 -4.64 96.68 -6 96 C-6.33 95.67 -6.66 95.34 -7 95 C-7 92.36 -7 89.72 -7 87 C-6.01 86.01 -5.02 85.02 -4 84 C-3.34 84 -2.68 84 -2 84 C-6.371 63.601 -11.085 43.275 -16 23 C-16.33 19.37 -16.66 15.74 -17 12 C-16.34 11.34 -15.68 10.68 -15 10 C-13.68 10 -12.36 10 -11 10 C-11.33 7.69 -11.66 5.38 -12 3 C-7 0 -7 0 0 0 Z " fill="#A86437" transform="translate(75,830)"/>
<path d="M0 0 C4.425 13.274 8 26.887 8 41 C3 44 3 44 -2 44 C0.64 55.88 3.28 67.76 6 80 C6 80.66 6 81.32 6 82 C9.63 81.34 13.26 80.68 17 80 C66 80 66 80 80 87 C80 89.64 80 92.28 80 95 C76 98 76 98 74 98 C74.33 99.485 74.33 99.485 76 107 C76.122 107.855 76.244 108.71 76.369 109.591 C77.549 117.862 78.741 126.131 79.945 134.398 C80.12 135.599 80.295 136.8 80.475 138.038 C81.025 141.817 81.575 145.596 82.125 149.375 C82.501 151.961 82.878 154.547 83.254 157.133 C84.169 163.422 85.084 169.711 86 176 C86 178.31 86 180.62 86 183 C85.67 183.33 85.34 183.66 85 184 C83.35 184 81.7 184 80 184 C72.436 176.436 73.618 145.329 72 134 C72 132.68 72 131.36 72 130 C67.38 130 62.76 130 58 130 C58.33 131.98 58.66 133.96 59 136 C59.33 141.61 59.66 147.22 60 153 C60.33 156.63 60.33 156.63 62 175 C62 176.98 62 178.96 62 181 C61.67 181.33 61.34 181.66 61 182 C59.35 182 57.7 182 56 182 C48.165 174.165 53.034 160.032 52 149 C52 142.73 52 136.46 52 130 C41.77 130 31.54 130 21 130 C20.67 135.28 20.34 140.56 20 146 C17 181 17 181 16 182 C14.35 182 12.7 182 11 182 C10.67 181.67 10.34 181.34 10 181 C10 163.948 12.215 146.959 14 130 C9.71 130 5.42 130 1 130 C0.67 134.62 0.34 139.24 0 144 C-1.32 150.93 -2.64 157.86 -4 165 C-4.99 170.94 -5.98 176.88 -7 183 C-7.33 183.33 -7.66 183.66 -8 184 C-9.65 184 -11.3 184 -13 184 C-11.091 155.365 -6.628 126.141 -1 98 C-2.65 97.34 -4.3 96.68 -6 96 C-6.33 95.67 -6.66 95.34 -7 95 C-7 92.03 -7 89.06 -7 86 C-6.175 85.67 -6.175 85.67 -2 84 C-5 68 -5 68 -6.609 61.195 C-17.131 16.656 -17.131 16.656 -16 11 C-14.35 10.67 -12.7 10.34 -11 10 C-11 7.36 -11 4.72 -11 2 C-7 0 -7 0 0 0 Z " fill="#A96437" transform="translate(418,830)"/>
<path d="M0 0 C9 1 9 1 11 2 C11 4.64 11 7.28 11 10 C12.65 10.33 14.3 10.66 16 11 C16.165 11.165 16.165 11.165 17 12 C14.519 34.331 8.236 56.185 3 78 C3 79.98 3 81.96 3 84 C3.495 84.33 3.495 84.33 6 86 C6 89.3 6 92.6 6 96 C4.68 96.33 3.36 96.66 2 97 C3.65 107.56 5.3 118.12 7 129 C8.32 139.23 9.64 149.46 11 160 C11.66 163.3 12.32 166.6 13 170 C13.165 172.145 13.165 172.145 14 183 C13.67 183.33 13.34 183.66 13 184 C11.35 184 9.7 184 8 184 C3.613 175.226 4.169 164.739 3 155 C1.68 147.08 0.36 139.16 -1 131 C-5.29 130.67 -9.58 130.34 -14 130 C-12.68 144.19 -11.36 158.38 -10 173 C-10 175.64 -10 178.28 -10 181 C-10.33 181.33 -10.66 181.66 -11 182 C-12.65 182 -14.3 182 -16 182 C-23.639 166.722 -19.61 148.025 -21 131 C-30.57 131 -40.14 131 -50 131 C-53 165 -53 165 -54 181 C-54.33 181.33 -54.33 181.33 -56 183 C-57.65 182.67 -59.3 182.34 -61 182 C-61 166 -61 166 -60 160 C-59.67 152.74 -59.34 145.48 -59 138 C-58.67 135.36 -58.34 132.72 -58 130 C-62.29 130 -66.58 130 -71 130 C-71.66 135.61 -72.32 141.22 -73 147 C-78 182 -78 182 -79 184 C-80.65 184 -82.3 184 -84 184 C-84.33 183.67 -84.66 183.34 -85 183 C-84 169 -84 169 -81 150 C-80.34 144.06 -79.68 138.12 -79 132 C-77.68 124.08 -76.36 116.16 -75 108 C-74.67 104.7 -74.34 101.4 -74 98 C-75.65 97.34 -77.3 96.68 -79 96 C-79 93.03 -79 90.06 -79 87 C-59.088 73.725 -28.446 78.793 -6 82 C-4.68 75.4 -3.36 68.8 -2 62 C-0.68 56.39 0.64 50.78 2 45 C-0.97 44.01 -3.94 43.02 -7 42 C-7.33 41.67 -7.66 41.34 -8 41 C-8 27.115 -7.888 11.832 0 0 Z " fill="#A96537" transform="translate(330,830)"/>
<path d="M0 0 C8 1 8 1 11 3 C11 5.31 11 7.62 11 10 C12.65 10.33 14.3 10.66 16 11 C16 25.252 11.264 39.127 8 53 C2 81 2 81 2 84 C2.66 84.33 2.66 84.33 6 86 C6 89.3 6 92.6 6 96 C4.35 96.66 2.7 97.32 1 98 C2.976 111.445 4.973 124.885 7.062 138.312 C12 170.096 12 170.096 12 183 C10.35 183.33 8.7 183.66 7 184 C-1.37 175.63 2.722 160.711 1 149 C0.67 147.515 0.67 147.515 -1 140 C-1.165 138.515 -1.165 138.515 -2 131 C-6.29 130.67 -10.58 130.34 -15 130 C-14.67 131.32 -14.34 132.64 -14 134 C-12.64 149.64 -11.654 165.315 -11 181 C-11.33 181.33 -11.66 181.66 -12 182 C-13.65 182 -15.3 182 -17 182 C-28.141 170.859 -20.635 150.696 -22 135 C-22 133.35 -22 131.7 -22 130 C-31.9 130 -41.8 130 -52 130 C-52 133.63 -52 137.26 -52 141 C-55 181 -55 181 -57 183 C-58.65 182.67 -60.3 182.34 -62 182 C-62 164.638 -60.332 147.311 -59 130 C-63.29 130 -67.58 130 -72 130 C-72.99 138.25 -73.98 146.5 -75 155 C-79 182 -79 182 -80 184 C-81.65 184 -83.3 184 -85 184 C-85.33 183.67 -85.66 183.34 -86 183 C-84 157 -84 157 -82 151 C-81.34 144.73 -80.68 138.46 -80 132 C-79.01 126.06 -78.02 120.12 -77 114 C-76.34 108.72 -75.68 103.44 -75 98 C-76.65 97.34 -78.3 96.68 -80 96 C-80.33 95.67 -80.66 95.34 -81 95 C-81 92.36 -81 89.72 -81 87 C-61.987 72.74 -27.759 79.824 -6 82 C-5.67 79.36 -5.34 76.72 -5 74 C-3.02 65.42 -1.04 56.84 1 48 C1 46.68 1 45.36 1 44 C-1.64 43.34 -4.28 42.68 -7 42 C-7.33 41.67 -7.66 41.34 -8 41 C-5.462 5.462 -5.462 5.462 0 0 Z " fill="#AB6638" transform="translate(676,830)"/>
<path d="M0 0 C2.31 1.98 4.62 3.96 7 6 C7 10.29 7 14.58 7 19 C20.2 19 33.4 19 47 19 C47 37.15 47 55.3 47 74 C17.3 74 -12.4 74 -43 74 C-44.32 72.35 -45.64 70.7 -47 69 C-47.33 68.835 -47.33 68.835 -49 68 C-49 67.34 -49 66.68 -49 66 C-49.99 65.67 -50.98 65.34 -52 65 C-54.31 62.36 -56.62 59.72 -59 57 C-60.485 55.515 -60.485 55.515 -68 48 C-70.31 45.36 -72.62 42.72 -75 40 C-79.29 35.38 -83.58 30.76 -88 26 C-89.65 23.69 -91.3 21.38 -93 19 C-62.31 19 -31.62 19 0 19 C0 12.73 0 6.46 0 0 Z " fill="#B2BCBC" transform="translate(424,725)"/>
<path d="M0 0 C4.29 0 8.58 0 13 0 C13 13.017 12.081 26.028 11 39 C11 43.29 11 47.58 11 52 C11.825 51.835 11.825 51.835 16 51 C16.086 49.846 16.171 48.692 16.26 47.503 C16.581 43.173 16.904 38.844 17.227 34.514 C17.366 32.65 17.504 30.785 17.643 28.92 C17.843 26.221 18.044 23.523 18.246 20.824 C18.307 20.006 18.367 19.188 18.429 18.345 C18.888 12.222 19.444 6.117 20 0 C29.9 0 39.8 0 50 0 C52.416 16.91 53.62 33.974 55 51 C56.65 51 58.3 51 60 51 C60.33 49.35 60.66 47.7 61 46 C71 51 71 51 82 58 C82.33 59.65 82.66 61.3 83 63 C82.67 63.33 82.34 63.66 82 64 C40.75 64 -0.5 64 -43 64 C-43 63.67 -43 63.34 -43 63 C-37.72 61.68 -32.44 60.36 -27 59 C-25.02 57.68 -23.04 56.36 -21 55 C-20.67 53.35 -20.34 51.7 -20 50 C-28.572 41.428 -38.34 40.794 -50 39 C-50 28.77 -50 18.54 -50 8 C-36.14 8 -22.28 8 -8 8 C-9.011 21.146 -10.998 33.986 -13 47 C-13 48.98 -13 50.96 -13 53 C-11.35 53.33 -9.7 53.66 -8 54 C-2 11 -2 11 -1 2 C-0.67 1.34 -0.34 0.68 0 0 Z " fill="#DDB897" transform="translate(604,960)"/>
<path d="M0 0 C0.99 0.99 1.98 1.98 3 3 C3 6.63 3 10.26 3 14 C2.67 14 2.34 14 2 14 C2 11.36 2 8.72 2 6 C-0.64 7.32 -3.28 8.64 -6 10 C-60.913 21.767 -137.941 33.03 -190 7 C-190.33 8.98 -190.66 10.96 -191 13 C-191.33 13 -191.66 13 -192 13 C-192 9.7 -192 6.4 -192 3 C-152.114 -28.909 -41.908 -16.763 0 0 Z " fill="#C47A44" transform="translate(642,853)"/>
<path d="M0 0 C2 2 2 2 2 13 C1.67 13 1.34 13 1 13 C0.67 10.69 0.34 8.38 0 6 C-3.63 7.32 -7.26 8.64 -11 10 C-63.259 23.065 -141.883 29.558 -191 5 C-190.67 3.35 -190.34 1.7 -190 0 C-143.986 -23.007 -45.925 -22.962 0 0 Z " fill="#C47A44" transform="translate(298,854)"/>
<path d="M0 0 C23.1 0 46.2 0 70 0 C70 20.46 70 40.92 70 62 C46.9 62 23.8 62 0 62 C0 41.54 0 21.08 0 0 Z " fill="#CCD2D2" transform="translate(204,649)"/>
<path d="M0 0 C0 11.22 0 22.44 0 34 C-2.97 35.32 -5.94 36.64 -9 38 C-9 40.64 -9 43.28 -9 46 C-7.35 46.99 -5.7 47.98 -4 49 C-5 65 -5 65 -9 89 C-22.86 89 -36.72 89 -51 89 C-51 60.29 -51 31.58 -51 2 C-10 0 -10 0 0 0 Z " fill="#FDFCFC" transform="translate(605,879)"/>
<path d="M0 0 C0.99 0.33 1.98 0.66 3 1 C5.427 8.28 4 16.326 4 24 C6.64 21.36 9.28 18.72 12 16 C13.32 16 14.64 16 16 16 C16 29.262 11.503 37.282 4 48 C3.67 48.33 3.34 48.66 3 49 C4.32 49.66 5.64 50.32 7 51 C7 73 7 73 3 80 C9.27 80.165 9.27 80.165 41 81 C41 84.63 41 88.26 41 92 C37.37 92 33.74 92 30 92 C30 97.28 30 102.56 30 108 C27.36 108 24.72 108 22 108 C22 102.72 22 97.44 22 92 C3.85 92 -14.3 92 -33 92 C-33 97.28 -33 102.56 -33 108 C-35.97 108 -38.94 108 -42 108 C-42 102.72 -42 97.44 -42 92 C-46.29 92 -50.58 92 -55 92 C-55 88.7 -55 85.4 -55 82 C-43.12 81.67 -31.24 81.34 -19 81 C-20.32 79.35 -21.64 77.7 -23 76 C-25.637 68.088 -24 59.34 -24 51 C-22.68 50.34 -21.36 49.68 -20 49 C-22.31 46.36 -24.62 43.72 -27 41 C-35 26 -35 26 -36 17 C-35.01 16.67 -34.02 16.34 -33 16 C-25 22 -25 22 -23 24 C-23 16.74 -23 9.48 -23 2 C-19 3 -19 3 -15 8 C-13.02 11.96 -11.04 15.92 -9 20 C-7.35 15.38 -5.7 10.76 -4 6 C-2.68 4.02 -1.36 2.04 0 0 Z " fill="#B97A4F" transform="translate(116,567)"/>
<path d="M0 0 C23.76 0 47.52 0 72 0 C72 30 72 30 66 42 C66 43.65 66 45.3 66 47 C67.98 48.65 69.96 50.3 72 52 C72 52.33 72 52.66 72 53 C48.57 53 25.14 53 1 53 C3.333 50.667 5.667 48.333 8 46 C8 43.36 8 40.72 8 38 C7.01 37.67 6.02 37.34 5 37 C1 14 1 14 0 0 Z " fill="#E9C7A7" transform="translate(338,969)"/>
<path d="M0 0 C1.98 0 3.96 0 6 0 C5 14 5 14 1 38 C-0.32 38.99 -1.64 39.98 -3 41 C-3 47 -3 47 2 53 C-9.55 53 -21.1 53 -33 53 C-33 60.92 -33 68.84 -33 77 C198.99 77 430.98 77 670 77 C670.33 77.99 670.66 78.98 671 80 C438.68 80 206.36 80 -33 80 C-33 88.91 -33 97.82 -33 107 C-33.33 107 -33.66 107 -34 107 C-34 47.815 -34 47.815 -17.438 24.188 C-16.81 23.292 -16.183 22.397 -15.537 21.475 C-12.783 17.543 -10.009 13.634 -7.188 9.75 C-6.834 9.263 -6.834 9.263 -5.043 6.797 C-3.378 4.518 -1.7 2.252 0 0 Z " fill="#E3BF9E" transform="translate(61,969)"/>
<path d="M0 0 C34.65 0 69.3 0 105 0 C105 9.57 105 19.14 105 29 C95.938 29.172 86.875 29.34 77.812 29.5 C77.475 29.506 77.475 29.506 75.77 29.536 C50.511 29.978 25.262 30.115 0 30 C0 20.1 0 10.2 0 0 Z " fill="#D3D8D8" transform="translate(187,605)"/>
<path d="M0 0 C87.12 0 174.24 0 264 0 C208.398 37.068 90.979 17.273 31 9 C9 4 9 4 0 1 C0 0.67 0 0.34 0 0 Z " fill="#DEB998" transform="translate(69,1024)"/>
<path d="M0 0 C87.12 0 174.24 0 264 0 C192.311 35.844 81.568 20.633 6 3 C4.02 2.34 2.04 1.68 0 1 C0 0.67 0 0.34 0 0 Z " fill="#DEBA98" transform="translate(416,1024)"/>
<path d="M0 0 C111.87 0 223.74 0 339 0 C339 2.97 339 5.94 339 9 C227.13 9 115.26 9 0 9 C0 6.03 0 3.06 0 0 Z " fill="#A76337" transform="translate(160,811)"/>
<path d="M0 0 C6 3 6 3 7 4 C7 5.65 7 7.3 7 9 C-1 13 -1 13 -6 13 C-6 64.48 -6 115.96 -6 169 C-4.68 169.33 -3.36 169.66 -2 170 C-0.35 171.32 1.3 172.64 3 174 C3 174.99 3 175.98 3 177 C3.99 177.33 3.99 177.33 9 179 C13.29 182.3 17.58 185.6 22 189 C23.155 189.825 23.155 189.825 29 194 C28 198 28 198 18 211 C17.34 211.99 16.68 212.98 16 214 C0.82 214 -14.36 214 -30 214 C-34.813 208.117 -39.582 202.185 -44 196 C-39.095 186.189 -28.455 181.728 -19 177 C-18.01 175.35 -17.02 173.7 -16 172 C-12 169 -12 169 -9 169 C-9 117.52 -9 66.04 -9 13 C-11.97 12.67 -14.94 12.34 -18 12 C-19.65 10.68 -21.3 9.36 -23 8 C-22.67 6.35 -22.34 4.7 -22 3 C-17 0 -17 0 0 0 Z " fill="#E67B40" transform="translate(221,266)"/>
<path d="M0 0 C0.66 0.66 1.32 1.32 2 2 C1.67 3.65 1.34 5.3 1 7 C-6 10 -6 10 -12 10 C-12 61.15 -12 112.3 -12 165 C-11.01 165.33 -11.01 165.33 -6 167 C-5.34 167.825 -5.34 167.825 -2 172 C2.29 174.97 6.58 177.94 11 181 C14.96 183.97 18.92 186.94 23 190 C21.16 197.359 14.519 203.974 10 210 C-5.18 210 -20.36 210 -36 210 C-50 192 -50 192 -50 190 C-26.462 173 -26.462 173 -24 173 C-23.34 171.35 -22.68 169.7 -22 168 C-17 165 -17 165 -15 165 C-15 114.18 -15 63.36 -15 11 C-18.3 10.34 -21.6 9.68 -25 9 C-26.32 7.68 -27.64 6.36 -29 5 C-28 1 -28 1 -24 -2 C-15.094 -4.227 -8.353 -3.132 0 0 Z " fill="#F69F5F" transform="translate(364,268)"/>
<path d="M0 0 C6 3 6 3 7 4 C7 5.65 7 7.3 7 9 C-1 13 -1 13 -7 13 C-6.67 64.48 -6.34 115.96 -6 169 C-3.69 169.99 -1.38 170.98 1 172 C1.495 172.825 1.495 172.825 4 177 C7.3 178.98 10.6 180.96 14 183 C18.62 186.63 23.24 190.26 28 194 C26.16 201.359 19.519 207.974 15 214 C0.15 214 -14.7 214 -30 214 C-44 198 -44 198 -44 194 C-25 180 -25 180 -19 176 C-17.35 174.02 -15.7 172.04 -14 170 C-12.35 169.67 -10.7 169.34 -9 169 C-9 117.52 -9 66.04 -9 13 C-11.31 13 -13.62 13 -16 13 C-18.31 11.68 -20.62 10.36 -23 9 C-23 7.35 -23 5.7 -23 4 C-17 0 -17 0 0 0 Z " fill="#F69D5D" transform="translate(500,266)"/>
<path d="M0 0 C0 94.38 0 188.76 0 286 C-2.64 286 -5.28 286 -8 286 C-8 5 -8 5 -4 1 C-2 0 -2 0 0 0 Z " fill="#C36433" transform="translate(735,450)"/>
<path d="M0 0 C2.31 1.98 4.62 3.96 7 6 C7 10.29 7 14.58 7 19 C20.2 19 33.4 19 47 19 C47 37.15 47 55.3 47 74 C43.04 74 39.08 74 35 74 C13 52 13 52 6 44 C-1.59 36.41 -9.18 28.82 -17 21 C-17 20.34 -17 19.68 -17 19 C-11.39 19 -5.78 19 0 19 C0 12.73 0 6.46 0 0 Z " fill="#A3AFB2" transform="translate(424,725)"/>
<path d="M0 0 C14 1 14 1 20.91 2.023 C23.174 2.358 25.438 2.692 27.702 3.026 C29.249 3.255 30.796 3.484 32.342 3.713 C39.899 4.833 47.456 5.941 55.031 6.938 C66.18 8.405 77.307 10.029 88.438 11.625 C90.73 11.953 93.022 12.281 95.314 12.609 C100.876 13.405 106.438 14.203 112 15 C122.56 16.32 133.12 17.64 144 19 C148.249 23.249 145 30.991 145 37 C128.552 35.172 112.302 31.853 96 29 C91.545 28.34 91.545 28.34 69 25 C64.813 24.299 60.626 23.597 56.312 22.875 C38.219 19.852 20.11 16.923 2 14 C1.34 13.67 0.68 13.34 0 13 C0 8.71 0 4.42 0 0 Z " fill="#C77E47" transform="translate(605,758)"/>
<path d="M0 0 C5.321 13.302 9.847 27.767 7 42 C4.03 42.66 1.06 43.32 -2 44 C0.64 55.88 3.28 67.76 6 80 C6 80.66 6 81.32 6 82 C6.33 81.835 6.33 81.835 8 81 C59.615 76.308 59.615 76.308 79 86 C79 89.3 79 92.6 79 96 C78.67 96 78.34 96 78 96 C78 94.02 78 92.04 78 90 C74.37 91.32 70.74 92.64 67 94 C43.335 97.155 17.942 98.647 -5 91 C-5.66 92.32 -6.32 93.64 -7 95 C-7 92.36 -7 89.72 -7 87 C-6.01 86.01 -5.02 85.02 -4 84 C-3.34 84 -2.68 84 -2 84 C-6.371 63.601 -11.085 43.275 -16 23 C-16.33 19.37 -16.66 15.74 -17 12 C-16.34 11.34 -15.68 10.68 -15 10 C-13.68 10 -12.36 10 -11 10 C-11.33 7.69 -11.66 5.38 -12 3 C-7 0 -7 0 0 0 Z " fill="#C47A45" transform="translate(75,830)"/>
<path d="M0 0 C4.425 13.274 8 26.887 8 41 C3 44 3 44 -2 44 C0.64 55.88 3.28 67.76 6 80 C6 80.66 6 81.32 6 82 C9.63 81.34 13.26 80.68 17 80 C66 80 66 80 80 87 C80 89.64 80 92.28 80 95 C79.67 95 79.34 95 79 95 C79 93.35 79 91.7 79 90 C75.7 91.32 72.4 92.64 69 94 C43.964 97.577 17.997 98.999 -6 90 C-6 91.65 -6 93.3 -6 95 C-6.33 95 -6.66 95 -7 95 C-7 92.03 -7 89.06 -7 86 C-6.175 85.67 -6.175 85.67 -2 84 C-5 68 -5 68 -6.609 61.195 C-17.131 16.656 -17.131 16.656 -16 11 C-14.35 10.67 -12.7 10.34 -11 10 C-11 7.36 -11 4.72 -11 2 C-7 0 -7 0 0 0 Z " fill="#C67C47" transform="translate(418,830)"/>
<path d="M0 0 C9 1 9 1 11 2 C11 4.64 11 7.28 11 10 C12.65 10.33 14.3 10.66 16 11 C16.165 11.165 16.165 11.165 17 12 C14.519 34.331 8.236 56.185 3 78 C3 79.98 3 81.96 3 84 C3.495 84.33 3.495 84.33 6 86 C6 87.32 6 88.64 6 90 C-20.057 99.771 -52.118 100.353 -78 90 C-78 91.98 -78 93.96 -78 96 C-78.33 96 -78.66 96 -79 96 C-79 93.03 -79 90.06 -79 87 C-59.088 73.725 -28.446 78.793 -6 82 C-4.68 75.4 -3.36 68.8 -2 62 C-0.68 56.39 0.64 50.78 2 45 C-0.97 44.01 -3.94 43.02 -7 42 C-7.33 41.67 -7.66 41.34 -8 41 C-8 27.115 -7.888 11.832 0 0 Z " fill="#C47A45" transform="translate(330,830)"/>
<path d="M0 0 C8 1 8 1 11 3 C11 5.31 11 7.62 11 10 C12.65 10.33 14.3 10.66 16 11 C16 25.252 11.264 39.127 8 53 C2 81 2 81 2 84 C2.66 84.33 2.66 84.33 6 86 C6 89.3 6 92.6 6 96 C5.67 96 5.34 96 5 96 C5 94.35 5 92.7 5 91 C-0.28 92.32 -5.56 93.64 -11 95 C-34.337 96.556 -56.623 97.459 -79 90 C-79.33 91.65 -79.66 93.3 -80 95 C-80.33 95 -80.66 95 -81 95 C-81 92.36 -81 89.72 -81 87 C-61.987 72.74 -27.759 79.824 -6 82 C-5.67 79.36 -5.34 76.72 -5 74 C-3.02 65.42 -1.04 56.84 1 48 C1 46.68 1 45.36 1 44 C-1.64 43.34 -4.28 42.68 -7 42 C-7.33 41.67 -7.66 41.34 -8 41 C-5.462 5.462 -5.462 5.462 0 0 Z " fill="#C57A45" transform="translate(676,830)"/>
<path d="M0 0 C0.99 0.33 1.98 0.66 3 1 C5.427 8.28 4 16.326 4 24 C6.64 21.36 9.28 18.72 12 16 C13.32 16 14.64 16 16 16 C16 29.262 11.503 37.282 4 48 C3.34 48.66 2.68 49.32 2 50 C-4.93 50 -11.86 50 -19 50 C-28.096 39.768 -34.458 30.876 -36 17 C-35.01 16.67 -34.02 16.34 -33 16 C-25 22 -25 22 -23 24 C-23 16.74 -23 9.48 -23 2 C-19 3 -19 3 -15 8 C-13.02 11.96 -11.04 15.92 -9 20 C-7.35 15.38 -5.7 10.76 -4 6 C-2.68 4.02 -1.36 2.04 0 0 Z " fill="#6F9C5D" transform="translate(116,567)"/>
<path d="M0 0 C8.25 0 16.5 0 25 0 C25 20.13 25 40.26 25 61 C16.75 61 8.5 61 0 61 C0 40.87 0 20.74 0 0 Z " fill="#CED3D4" transform="translate(260,521)"/>
<path d="M0 0 C12.975 0.044 25.95 0.086 38.925 0.127 C39.858 0.13 40.792 0.133 41.754 0.136 C46.446 0.151 51.138 0.166 55.829 0.181 C93.839 0.303 131.848 0.427 169.857 0.555 C169.857 1.215 169.857 1.875 169.857 2.555 C-68.403 2.555 -306.663 2.555 -552.143 2.555 C-552.143 1.895 -552.143 1.235 -552.143 0.555 C-523.646 0.423 -495.149 0.296 -466.652 0.172 C-463.183 0.157 -459.714 0.142 -456.244 0.127 C-455.554 0.124 -454.865 0.121 -454.154 0.118 C-444.055 0.074 -433.956 0.029 -423.858 -0.018 C-344.699 -0.385 -265.542 -0.56 0 0 Z " fill="#E0BA99" transform="translate(580.142740726471,1105.445381641388)"/>
<path d="M0 0 C22 0 22 0 25 1 C25 42 25 42 24 61 C16.08 61 8.16 61 0 61 C0 40.87 0 20.74 0 0 Z " fill="#D1D5D6" transform="translate(204,521)"/>
<path d="M0 0 C4.62 0 9.24 0 14 0 C14 38.94 14 77.88 14 118 C-5 121 -5 121 -25 120 C-32.169 112.831 -28.615 100.043 -30 90 C-30 89.01 -30 88.02 -30 87 C-15.81 87 -1.62 87 13 87 C13 58.62 13 30.24 13 1 C8.71 1 4.42 1 0 1 C0 0.67 0 0.34 0 0 Z " fill="#DDB997" transform="translate(528,881)"/>
<path d="M0 0 C6.907 5.92 13.308 11.885 19 19 C21.64 21.31 24.28 23.62 27 26 C34 33 41 40 48 47 C45 49 45 49 38 49 C38 51.64 38 54.28 38 57 C37.01 56.175 37.01 56.175 32 52 C31.67 57.94 31.34 63.88 31 70 C30.67 70 30.34 70 30 70 C30 63.4 30 56.8 30 50 C27.69 50 25.38 50 23 50 C10.94 45.614 7.371 43.567 -1 34 C-5.518 22.706 -5.617 16.775 -3 5 C-2.01 3.35 -1.02 1.7 0 0 Z " fill="#C2D6B8" transform="translate(393,674)"/>
<path d="M0 0 C8.91 0 17.82 0 27 0 C27 15.51 27 31.02 27 47 C18.09 47 9.18 47 0 47 C0 31.49 0 15.98 0 0 Z " fill="#CAD1D2" transform="translate(437,547)"/>
<path d="M0 0 C8.91 0 17.82 0 27 0 C27 15.18 27 30.36 27 46 C18.084 47.274 9.006 47 0 47 C0 31.49 0 15.98 0 0 Z " fill="#CBD1D2" transform="translate(380,547)"/>
<path d="M0 0 C13.86 0 27.72 0 42 0 C41.166 10.846 39.783 21.303 38 32 C25.329 32 12.643 31.843 0 31 C0 20.77 0 10.54 0 0 Z " fill="#DEB998" transform="translate(554,968)"/>
<path d="M0 0 C14.19 0 28.38 0 43 0 C43 9.9 43 19.8 43 30 C30.025 30.865 17.004 31 4 31 C0 4 0 4 0 0 Z " fill="#DDB998" transform="translate(154,969)"/>
<path d="M0 0 C-1.054 4.215 -2.298 5.788 -4.812 9.25 C-5.52 10.225 -6.228 11.199 -6.957 12.203 C-8.621 14.481 -10.307 16.743 -12 19 C-27.18 19 -42.36 19 -58 19 C-71 2 -71 2 -71 0 C-20.286 -10.143 -20.286 -10.143 0 0 Z " fill="#E57A3E" transform="translate(386,459)"/>
<path d="M0 0 C-1.84 7.359 -8.481 13.974 -13 20 C-27.85 20 -42.7 20 -58 20 C-70 6.286 -70 6.286 -70 1 C-46.807 -1.577 -23.336 0 0 0 Z " fill="#E77A3F" transform="translate(528,460)"/>
<path d="M0 0 C9.57 0 19.14 0 29 0 C32.594 3.594 31 25.606 31 31 C19.679 33.264 8.57 35 -3 35 C-3 3 -3 3 0 0 Z " fill="#E6C5A4" transform="translate(96,960)"/>
<path d="M0 0 C4.425 13.274 8 26.887 8 41 C3 44 3 44 -2 44 C0.64 55.88 3.28 67.76 6 80 C6 80.99 6 81.98 6 83 C4.845 83.165 4.845 83.165 -1 84 C-5.095 68.44 -8.629 52.733 -12 37 C-13.65 30.07 -15.3 23.14 -17 16 C-16.67 14.35 -16.34 12.7 -16 11 C-14.35 10.67 -12.7 10.34 -11 10 C-11 7.36 -11 4.72 -11 2 C-7 0 -7 0 0 0 Z " fill="#AA6538" transform="translate(418,830)"/>
<path d="M0 0 C28 0 28 0 30 1 C30 23 30 23 26 30 C38.54 30.33 51.08 30.66 64 31 C64 31.33 64 31.66 64 32 C43.997 32 23.978 31.999 4 31 C-4.593 20.259 -1 19.75 -1 1 C-0.67 0.67 -0.34 0.34 0 0 Z " fill="#E47C44" transform="translate(93,617)"/>
<path d="M0 0 C9.9 0 19.8 0 30 0 C31.933 13.53 33 26.336 33 40 C22.978 34.989 13.527 28.898 4 23 C2.68 22.34 1.36 21.68 0 21 C0 14.07 0 7.14 0 0 Z " fill="#F1ECE3" transform="translate(624,960)"/>
<path d="M0 0 C6 3 6 3 7 4 C7 5.65 7 7.3 7 9 C-1 13 -1 13 -6 13 C-6 64.48 -6 115.96 -6 169 C-4.68 169.33 -3.36 169.66 -2 170 C-0.68 170.99 0.64 171.98 2 173 C2 173.99 2 174.98 2 176 C-4.27 176 -10.54 176 -17 176 C-16 172 -16 172 -12 169 C-11.01 169 -10.02 169 -9 169 C-9 117.52 -9 66.04 -9 13 C-11.97 12.67 -14.94 12.34 -18 12 C-19.65 10.68 -21.3 9.36 -23 8 C-22.67 6.35 -22.34 4.7 -22 3 C-17 0 -17 0 0 0 Z " fill="#C2987B" transform="translate(221,266)"/>
<path d="M0 0 C4.29 0 8.58 0 13 0 C16.837 3.837 15.283 10.621 16 16 C16.495 18.64 16.495 18.64 19 32 C19.495 35.465 19.495 35.465 22 53 C23.32 53 24.64 53 26 53 C26 49.04 26 45.08 26 41 C32 46 32 46 33 53 C31.35 54.98 29.7 56.96 28 59 C18.895 55.586 10.225 52.225 3 45 C2.67 39.06 2.34 33.12 2 27 C1.34 19.41 0.68 11.82 0 4 C0 2.68 0 1.36 0 0 Z " fill="#F2ECE4" transform="translate(661,960)"/>
<path d="M0 0 C0.99 0.33 1.98 0.66 3 1 C3.96 5.25 4.921 9.5 5.881 13.75 C6.207 15.192 6.532 16.634 6.858 18.076 C12 40.827 12 40.827 12 46 C10.68 46.99 9.36 47.98 8 49 C8 51.64 8 54.28 8 57 C9.32 57.99 10.64 58.98 12 60 C12 68 12 68 10 79 C9.34 84.94 8.68 90.88 8 97 C7.67 97.99 7.34 98.98 7 100 C4.69 100 2.38 100 0 100 C0 67 0 34 0 0 Z " fill="#FBFAF9" transform="translate(61,868)"/>
<path d="M0 0 C0.33 0.66 0.66 1.32 1 2 C7.27 2 13.54 2 20 2 C20.33 1.34 20.66 0.68 21 0 C21 0.99 21 1.98 21 3 C22.98 3.66 24.96 4.32 27 5 C29.145 6.65 29.145 6.65 40 15 C42.31 16.65 44.62 18.3 47 20 C46.835 20.495 46.835 20.495 46 23 C46 22.34 46 21.68 46 21 C-10.667 18.167 -10.667 18.167 -26 22 C-21.095 12.189 -10.455 7.728 -1 3 C-0.67 2.01 -0.34 1.02 0 0 Z " fill="#F69F60" transform="translate(203,440)"/>
<path d="M0 0 C9.279 9.279 8 10.088 8 25 C4 34 4 34 -1 38 C-3.64 38 -6.28 38 -9 38 C-15 32 -15 32 -17 26 C-17 12 -17 12 -12 3 C-8 0 -8 0 0 0 Z " fill="#DF8451" transform="translate(698,645)"/>
<path d="M0 0 C6 3 6 3 7 4 C7 5.65 7 7.3 7 9 C-1 13 -1 13 -7 13 C-6.67 64.48 -6.34 115.96 -6 169 C-3.69 169.99 -1.38 170.98 1 172 C1.33 172.825 1.33 172.825 3 177 C-3.93 177 -10.86 177 -18 177 C-17 173 -17 173 -12 169 C-11.01 169 -10.02 169 -9 169 C-9 117.52 -9 66.04 -9 13 C-11.31 13 -13.62 13 -16 13 C-17.155 12.34 -17.155 12.34 -23 9 C-23 7.35 -23 5.7 -23 4 C-17 0 -17 0 0 0 Z " fill="#A96E45" transform="translate(500,266)"/>
<path d="M0 0 C0.33 0 0.66 0 1 0 C1 74.91 1 149.82 1 227 C-12.2 227 -25.4 227 -39 227 C-39 220.07 -39 213.14 -39 206 C-37.68 206.33 -36.36 206.66 -35 207 C-35.99 207 -36.98 207 -38 207 C-38 209.64 -38 212.28 -38 215 C-25.46 214.67 -12.92 214.34 0 214 C0 143.38 0 72.76 0 0 Z " fill="#D9DAD9" transform="translate(470,517)"/>
<path d="M0 0 C23.76 0 47.52 0 72 0 C72 2.97 72 5.94 72 9 C48.57 9 25.14 9 1 9 C0.67 6.03 0.34 3.06 0 0 Z " fill="#EAC9AA" transform="translate(338,969)"/>
<path d="M0 0 C1 3 1 3 2 8 C2.99 9.32 3.98 10.64 5 12 C4.856 11.711 4.856 11.711 4.125 10.25 C3.604 9.208 3.604 9.208 1 4 C1.99 3.34 2.98 2.68 4 2 C11 10 11 10 11 20 C7 26 7 26 0 30 C-4.29 30 -8.58 30 -13 30 C-17 26 -17 26 -18 23 C-18 15 -18 15 -14 7 C-12.68 6.34 -11.36 5.68 -10 5 C-9.67 6.32 -9.34 7.64 -9 9 C-9.99 10.32 -10.98 11.64 -12 13 C-11.67 13.33 -11.34 13.66 -11 14 C-8.545 9.09 -8.681 6.276 -10 1 C-5 0 -5 0 0 0 Z " fill="#FBFAF8" transform="translate(698,590)"/>
<path d="M0 0 C0 5.61 0 11.22 0 17 C-6.93 19.64 -13.86 22.28 -21 25 C-24.63 26.65 -28.26 28.3 -32 30 C-32.66 30 -33.32 30 -34 30 C-34 23.07 -34 16.14 -34 9 C-24.125 6.187 -24.125 6.187 -21.079 5.321 C-2.427 0 -2.427 0 0 0 Z " fill="#C47C48" transform="translate(61,761)"/>
<path d="M0 0 C4.29 0 8.58 0 13 0 C15.182 13.639 17.287 27.294 19 41 C13.72 41 8.44 41 3 41 C3 44.3 3 47.6 3 51 C2.67 51 2.34 51 2 51 C0 15 0 15 0 0 Z " fill="#D8B18E" transform="translate(133,960)"/>
<path d="M0 0 C4.29 0 8.58 0 13 0 C12 30 12 30 10 41 C4.72 41 -0.56 41 -6 41 C-3.167 12.667 -3.167 12.667 0 0 Z " fill="#DAB391" transform="translate(259,960)"/>
<path d="M0 0 C4.29 0 8.58 0 13 0 C16.739 13.086 19 26.385 19 40 C14.05 40 9.1 40 4 40 C1.351 26.757 0 13.52 0 0 Z " fill="#EAC6A5" transform="translate(316,960)"/>
<path d="M0 0 C8.58 0 17.16 0 26 0 C27 11 27 11 27 21 C17.43 21 7.86 21 -2 21 C-1.461 13.989 -0.872 6.977 0 0 Z " fill="#F8F4F1" transform="translate(98,933)"/>
<path d="M0 0 C10.23 0 20.46 0 31 0 C31 5.94 31 11.88 31 18 C20.44 18 9.88 18 -1 18 C-1 6 -1 6 0 0 Z " fill="#E9CAAB" transform="translate(439,960)"/>
<path d="M0 0 C4.29 0 8.58 0 13 0 C10.941 37.059 10.941 37.059 9 39 C4.38 39.33 -0.24 39.66 -5 40 C-5 29 -5 29 -2 14 C-1.34 9.38 -0.68 4.76 0 0 Z " fill="#E9C7A7" transform="translate(419,960)"/>
<path d="M0 0 C9.57 0 19.14 0 29 0 C33.249 4.249 30 11.991 30 18 C19.77 18 9.54 18 -1 18 C-1 1 -1 1 0 0 Z " fill="#EACAAB" transform="translate(280,960)"/>
<path d="M0 0 C5.321 13.302 9.847 27.767 7 42 C4.03 42.66 1.06 43.32 -2 44 C-2.33 45.32 -2.66 46.64 -3 48 C-3.266 46.795 -3.531 45.589 -3.805 44.348 C-5.207 38.036 -6.668 31.737 -8.125 25.438 C-8.402 24.238 -8.679 23.039 -8.965 21.803 C-9.643 18.868 -10.321 15.934 -11 13 C-11 12.34 -11 11.68 -11 11 C-12.32 10.67 -13.64 10.34 -15 10 C-13.68 10 -12.36 10 -11 10 C-11.33 7.69 -11.66 5.38 -12 3 C-7 0 -7 0 0 0 Z " fill="#C67E49" transform="translate(75,830)"/>
<path d="M0 0 C8.25 0 16.5 0 25 0 C27 12 27 12 27 20 C17.43 20 7.86 20 -2 20 C-2 7 -2 7 0 0 Z " fill="#FAF8F5" transform="translate(442,934)"/>
<path d="M0 0 C8.58 0 17.16 0 26 0 C27 5 27 5 27 20 C17.76 20 8.52 20 -1 20 C-1 8 -1 8 0 0 Z " fill="#FAF8F6" transform="translate(281,933)"/>
<path d="M0 0 C9 1 9 1 11 2 C11 4.64 11 7.28 11 10 C12.32 10.33 13.64 10.66 15 11 C13.35 11 11.7 11 10 11 C9.67 13.64 9.34 16.28 9 19 C8.01 22.96 7.02 26.92 6 31 C5.34 35.29 4.68 39.58 4 44 C-5 43 -5 43 -8 41 C-8 27.115 -7.888 11.832 0 0 Z " fill="#C57E4A" transform="translate(330,830)"/>
<path d="M0 0 C1.98 0 3.96 0 6 0 C6.33 0.33 6.66 0.66 7 1 C4.634 22.292 0.63 53.74 -9 73 C-10.98 72.67 -12.96 72.34 -15 72 C-15 56.87 -10.767 42.301 -6 28 C-5.01 22.72 -4.02 17.44 -3 12 C-2.01 8.04 -1.02 4.08 0 0 Z " fill="#A9663A" transform="translate(340,841)"/>
<path d="M0 0 C-2 4 -2 4 -11 11 C-12.32 12.32 -13.64 13.64 -15 15 C-10.05 12.36 -5.1 9.72 0 7 C0.99 7 1.98 7 3 7 C3 7.66 3 8.32 3 9 C-2.61 11.64 -8.22 14.28 -14 17 C-14.66 17.99 -15.32 18.98 -16 20 C-14.35 20.33 -12.7 20.66 -11 21 C-7 27 -7 27 -7 29 C-6.01 29.33 -5.02 29.66 -4 30 C-7 39 -7 39 -12 43 C-16 44 -16 44 -24 44 C-29 39 -29 39 -30 32 C-29.34 32 -28.68 32 -28 32 C-27.67 30.35 -27.34 28.7 -27 27 C-25.68 25.68 -24.36 24.36 -23 23 C-22.01 23 -21.02 23 -20 23 C-20 20.03 -20 17.06 -20 14 C-17.03 12.02 -14.06 10.04 -11 8 C-2 0 -2 0 0 0 Z " fill="#EED0BC" transform="translate(659,585)"/>
<path d="M0 0 C3.96 0 7.92 0 12 0 C11 25 11 25 10 37 C6 39 6 39 -6 40 C-4.867 26.399 -2.517 13.425 0 0 Z " fill="#E9C9AB" transform="translate(76,960)"/>
<path d="M0 0 C8.25 0 16.5 0 25 0 C26 6 26 6 26 20 C16.76 20 7.52 20 -2 20 C-1 3 -1 3 0 0 Z " fill="#EFE7DE" transform="translate(627,934)"/>
<path d="M0 0 C8 1 8 1 11 3 C11 5.31 11 7.62 11 10 C11.99 10.33 12.98 10.66 14 11 C12.68 11 11.36 11 10 11 C7.49 22.295 5.269 33.654 3 45 C-7 42 -7 42 -8 41 C-5.462 5.462 -5.462 5.462 0 0 Z " fill="#C77F48" transform="translate(676,830)"/>
<path d="M0 0 C1.65 0 3.3 0 5 0 C11.751 24.303 11.751 24.303 13.773 33.527 C15.334 40.552 16.986 47.556 18.625 54.562 C18.953 55.967 19.281 57.371 19.609 58.775 C20.406 62.184 21.203 65.592 22 69 C22 69.99 22 70.98 22 72 C20.845 72.165 20.845 72.165 15 73 C13 68 13 68 12.576 66.061 C8.252 46.325 3.666 26.657 -1 7 C-1 1 -1 1 0 0 Z " fill="#A86538" transform="translate(59,841)"/>
<path d="M0 0 C1.98 0 3.96 0 6 0 C6 14.252 1.264 28.127 -2 42 C-3.98 51.24 -5.96 60.48 -8 70 C-8.66 70.99 -9.32 71.98 -10 73 C-11.65 73 -13.3 73 -15 73 C-15.33 72.67 -15.66 72.34 -16 72 C-15 63 -15 63 -14.529 60.978 C-10.889 45.346 -7.365 29.694 -4 14 C-2.68 9.38 -1.36 4.76 0 0 Z " fill="#AC683A" transform="translate(686,841)"/>
<path d="M0 0 C4.425 13.274 8 26.887 8 41 C3 44 3 44 -2 44 C-2.33 44.66 -2.66 45.32 -3 46 C-4.32 39.4 -5.64 32.8 -7 26 C-7.99 22.04 -8.98 18.08 -10 14 C-10 13.01 -10 12.02 -10 11 C-11.65 11 -13.3 11 -15 11 C-13.68 10.67 -12.36 10.34 -11 10 C-11 7.36 -11 4.72 -11 2 C-7 0 -7 0 0 0 Z " fill="#C77F4A" transform="translate(418,830)"/>
<path d="M0 0 C4.62 0 9.24 0 14 0 C14 88 14 88 13 97 C-0.86 97 -14.72 97 -29 97 C-29.33 93.7 -29.66 90.4 -30 87 C-15.81 87 -1.62 87 13 87 C13 58.62 13 30.24 13 1 C8.71 1 4.42 1 0 1 C0 0.67 0 0.34 0 0 Z " fill="#EBCFB4" transform="translate(528,881)"/>
<path d="M0 0 C0.33 0.66 0.66 1.32 1 2 C11.56 2 22.12 2 33 2 C36.073 5.073 34 10.654 34 15 C8 19 8 19 0 19 C0 12.73 0 6.46 0 0 Z " fill="#E8C6A5" transform="translate(437,976)"/>
<path d="M0 0 C5 1 5 1 6 2 C6 10.218 4.722 17.556 1 25 C-5.25 30 -5.25 30 -13 30 C-15.31 28.02 -17.62 26.04 -20 24 C-20 14 -20 14 -16 8 C-14.845 7.835 -14.845 7.835 -9 7 C-8.34 6.01 -7.68 5.02 -7 4 C-5.35 4 -3.7 4 -2 4 C-1.34 2.68 -0.68 1.36 0 0 Z " fill="#E9A174" transform="translate(650,653)"/>
<path d="M0 0 C0.33 0 0.66 0 1 0 C1 1.65 1 3.3 1 5 C11.23 5 21.46 5 32 5 C32 3.35 32 1.7 32 0 C32.33 0 32.66 0 33 0 C33 7.26 33 14.52 33 22 C23.089 26.955 10.939 19.764 0 18 C0 12.06 0 6.12 0 0 Z " fill="#E8C6A6" transform="translate(278,973)"/>
<path d="M0 0 C0.99 0 1.98 0 3 0 C3 8.58 3 17.16 3 26 C-12 36 -12 36 -16 36 C-16 27.42 -16 18.84 -16 10 C-11.05 7.03 -6.1 4.06 -1 1 C-0.67 0.67 -0.34 0.34 0 0 Z " fill="#FEFEFD" transform="translate(742,358)"/>
<path d="M0 0 C0.33 0 0.66 0 1 0 C1 50.82 1 101.64 1 154 C0.67 154 0.34 154 0 154 C0 138.49 0 122.98 0 107 C-3.63 107 -7.26 107 -11 107 C-11.33 106.67 -11.66 106.34 -12 106 C-12 96.76 -12 87.52 -12 78 C-8.04 78 -4.08 78 0 78 C0 52.26 0 26.52 0 0 Z " fill="#F2ECE5" transform="translate(490,281)"/>
<path d="M0 0 C4.62 0 9.24 0 14 0 C14 0.33 14 0.66 14 1 C9.71 1 5.42 1 1 1 C1 29.38 1 57.76 1 87 C14.53 87 28.06 87 42 87 C41.34 90.3 40.68 93.6 40 97 C27.13 97 14.26 97 1 97 C-2.571 64.863 0 32.335 0 0 Z " fill="#E8CAAE" transform="translate(209,881)"/>
<path d="M0 0 C0.33 0 0.66 0 1 0 C1 6.6 1 13.2 1 20 C3.64 17.36 6.28 14.72 9 12 C10.32 12 11.64 12 13 12 C13 25.262 8.503 33.282 1 44 C0.34 44.66 -0.32 45.32 -1 46 C-4.3 46 -7.6 46 -11 46 C-8 34 -8 34 -6 30 C-5.34 24.06 -4.68 18.12 -4 12 C-3.34 10.02 -2.68 8.04 -2 6 C-1.67 6 -1.34 6 -1 6 C-0.67 4.02 -0.34 2.04 0 0 Z " fill="#7DAB68" transform="translate(119,571)"/>
<path d="M0 0 C0 7.92 0 15.84 0 24 C-2.062 25.588 -4.125 27.176 -6.25 28.812 C-6.571 29.06 -6.571 29.06 -8.196 30.312 C-16.887 37 -16.887 37 -20 37 C-20 29.41 -20 21.82 -20 14 C-3.2 0 -3.2 0 0 0 Z " fill="#FEFEFD" transform="translate(745,256)"/>
<path d="M0 0 C1.98 0 3.96 0 6 0 C5 14 5 14 1 38 C0.67 38 0.34 38 0 38 C0 36.02 0 34.04 0 32 C-6.93 32 -13.86 32 -21 32 C-18.067 20.269 -7.205 9.607 0 0 Z " fill="#E8C7A8" transform="translate(61,969)"/>
<path d="M0 0 C0.66 0.66 1.32 1.32 2 2 C1.67 3.65 1.34 5.3 1 7 C-6 10 -6 10 -13 10 C-13 61.15 -13 112.3 -13 165 C-13.33 165 -13.66 165 -14 165 C-14 113.85 -14 62.7 -14 10 C-16.64 10 -19.28 10 -22 10 C-27 7 -27 7 -29 5 C-28 1 -28 1 -24 -2 C-15.094 -4.227 -8.353 -3.132 0 0 Z " fill="#A16137" transform="translate(364,268)"/>
<path d="M0 0 C0 7.92 0 15.84 0 24 C-5.61 27.63 -11.22 31.26 -17 35 C-17.99 34.67 -18.98 34.34 -20 34 C-20 27.07 -20 20.14 -20 13 C-2.667 0 -2.667 0 0 0 Z " fill="#FEFDFD" transform="translate(745,323)"/>
<path d="M0 0 C10.56 0 21.12 0 32 0 C33 3 33 3 33 11 C21.679 13.264 10.57 15 -1 15 C-1 2 -1 2 0 0 Z " fill="#EAC9A9" transform="translate(94,980)"/>
<path d="M0 0 C0 7.26 0 14.52 0 22 C-1.815 23.155 -1.815 23.155 -11 29 C-12.155 29.825 -12.155 29.825 -18 34 C-18.66 34 -19.32 34 -20 34 C-20 27.07 -20 20.14 -20 13 C-3.286 0 -3.286 0 0 0 Z " fill="#FEFEFD" transform="translate(745,291)"/>
<path d="M0 0 C1.98 0 3.96 0 6 0 C6 51.15 6 102.3 6 155 C7.98 155.66 9.96 156.32 12 157 C12.99 157.99 13.98 158.98 15 160 C15 160.99 15 161.98 15 163 C8.4 163 1.8 163 -5 163 C-4.67 161.35 -4.34 159.7 -4 158 C1 155 1 155 3 155 C3 104.18 3 53.36 3 1 C2.01 0.67 1.02 0.34 0 0 Z " fill="#C39A7C" transform="translate(346,278)"/>
<path d="M0 0 C4.29 0 8.58 0 13 0 C13 15 13 15 11 30 C0 30 0 30 -3 29 C-3 6 -3 6 0 0 Z " fill="#ECCCAC" transform="translate(604,960)"/>
<path d="M0 0 C11.803 4.721 15.37 11.226 22 22 C26 33 26 33 26 34 C22.7 34 19.4 34 16 34 C6.904 23.768 0.542 14.876 -1 1 C-0.67 0.67 -0.34 0.34 0 0 Z " fill="#7BAB67" transform="translate(81,583)"/>
<path d="M0 0 C9.9 0 19.8 0 30 0 C30 9.24 30 18.48 30 28 C27 27 27 27 20 19 C3 2 3 2 0 0 Z " fill="#B2BCBE" transform="translate(441,744)"/>
<path d="M0 0 C13.53 0 27.06 0 41 0 C40.34 3.3 39.68 6.6 39 10 C26.13 10 13.26 10 0 10 C0 6.7 0 3.4 0 0 Z " fill="#EBCBAE" transform="translate(555,968)"/>
<path d="M0 0 C-1.399 8.392 -4.356 13.685 -11 19 C-17 21 -17 21 -24 21 C-29 16 -29 16 -31 12 C-31 10.68 -31 9.36 -31 8 C-2 0 -2 0 0 0 Z " fill="#FBFAF7" transform="translate(710,531)"/>
<path d="M0 0 C14.19 0 28.38 0 43 0 C43 2.97 43 5.94 43 9 C29.14 9 15.28 9 1 9 C0.67 6.03 0.34 3.06 0 0 Z " fill="#E8C7A7" transform="translate(154,969)"/>
<path d="M0 0 C3 1 3 1 10 9 C17.26 16.26 24.52 23.52 32 31 C31.67 31.66 31.34 32.32 31 33 C19.794 33 14.312 29.273 6 22 C0 12.4 0 12.4 0 0 Z " fill="#B9CEA9" transform="translate(389,690)"/>
<path d="M0 0 C0.33 0 0.66 0 1 0 C1 3.3 1 6.6 1 10 C2.98 10.66 4.96 11.32 7 12 C31 27 31 27 33 29 C21.78 29 10.56 29 -1 29 C-1 10 -1 10 0 0 Z " fill="#DDBA99" transform="translate(623,971)"/>
<path d="M0 0 C6.27 0 12.54 0 19 0 C19 5.94 19 11.88 19 18 C12.73 18 6.46 18 0 18 C0 12.06 0 6.12 0 0 Z " fill="#FDFEFD" transform="translate(578,452)"/>
<path d="M0 0 C6.6 0 13.2 0 20 0 C20 5.61 20 11.22 20 17 C13.4 17 6.8 17 0 17 C0 11.39 0 5.78 0 0 Z " fill="#FEFEFD" transform="translate(68,428)"/>
<path d="M0 0 C0 7.59 0 15.18 0 23 C-4.29 25.64 -8.58 28.28 -13 31 C-13.66 30.34 -14.32 29.68 -15 29 C-15 22.4 -15 15.8 -15 9 C-1 0 -1 0 0 0 Z " fill="#FEFDFD" transform="translate(719,340)"/>
<path d="M0 0 C0 7.92 0 15.84 0 24 C-10 32 -10 32 -14 33 C-14 25.41 -14 17.82 -14 10 C-1 0 -1 0 0 0 Z " fill="#FEFEFE" transform="translate(718,276)"/>
<path d="M0 0 C0.99 0 1.98 0 3 0 C3.99 1.98 4.98 3.96 6 6 C7.65 6.33 9.3 6.66 11 7 C12 8 12 8 12 15 C9 25 9 25 7 27 C5.35 26.67 3.7 26.34 2 26 C2 25.34 2 24.68 2 24 C0.35 24.33 -1.3 24.66 -3 25 C-3.99 24.01 -4.98 23.02 -6 22 C-6 15 -6 15 -3 10 C-3 7.69 -3 5.38 -3 3 C-2.01 2.01 -1.02 1.02 0 0 Z " fill="#E79969" transform="translate(691,650)"/>
<path d="M0 0 C6 3 6 3 7 4 C7 5.65 7 7.3 7 9 C-1 13 -1 13 -16 13 C-17.155 12.34 -17.155 12.34 -23 9 C-23 7.35 -23 5.7 -23 4 C-17 0 -17 0 0 0 Z " fill="#A5643A" transform="translate(500,266)"/>
<path d="M0 0 C4.29 0.99 8.58 1.98 13 3 C14.32 3 15.64 3 17 3 C17.66 7.95 18.32 12.9 19 18 C20.32 18 21.64 18 23 18 C23 14.04 23 10.08 23 6 C29 11 29 11 30 18 C28.35 19.98 26.7 21.96 25 24 C15.895 20.586 7.225 17.225 0 10 C0 6.7 0 3.4 0 0 Z " fill="#E7DCD1" transform="translate(664,995)"/>
<path d="M0 0 C5.94 0 11.88 0 18 0 C18 5.94 18 11.88 18 18 C12.06 18 6.12 18 0 18 C0 12.06 0 6.12 0 0 Z " fill="#FEFEFE" transform="translate(69,452)"/>
<path d="M0 0 C6.27 0 12.54 0 19 0 C19 5.61 19 11.22 19 17 C12.73 17 6.46 17 0 17 C0 11.39 0 5.78 0 0 Z " fill="#FEFEFD" transform="translate(578,428)"/>
<path d="M0 0 C6.27 0 12.54 0 19 0 C19 5.61 19 11.22 19 17 C12.73 17 6.46 17 0 17 C0 11.39 0 5.78 0 0 Z " fill="#FEFEFD" transform="translate(578,365)"/>
<path d="M0 0 C6.27 0 12.54 0 19 0 C19 5.28 19 10.56 19 16 C18.67 16.33 18.34 16.66 18 17 C12.06 17 6.12 17 0 17 C0 11.39 0 5.78 0 0 Z " fill="#FEFEFD" transform="translate(69,365)"/>
<path d="M0 0 C12.87 0 25.74 0 39 0 C38.67 2.97 38.34 5.94 38 9 C25.46 8.67 12.92 8.34 0 8 C0 5.36 0 2.72 0 0 Z " fill="#EAC9AA" transform="translate(555,980)"/>
<path d="M0 0 C12.87 0 25.74 0 39 0 C39 2.31 39 4.62 39 7 C26.347 11.218 12.337 8 -1 8 C-1 1 -1 1 0 0 Z " fill="#EAC8A8" transform="translate(502,980)"/>
<path d="M0 0 C0.33 0 0.66 0 1 0 C1 2.97 1 5.94 1 9 C3.64 9 6.28 9 9 9 C12.96 9.66 12.96 9.66 33 13 C33.33 10.03 33.66 7.06 34 4 C34.33 4 34.66 4 35 4 C35.165 7.135 35.165 7.135 36 23 C35.835 22.505 35.835 22.505 35 20 C23.12 19.67 11.24 19.34 -1 19 C-0.67 12.73 -0.34 6.46 0 0 Z " fill="#D9B493" transform="translate(277,982)"/>
<path d="M0 0 C0 6.6 0 13.2 0 20 C-11 28 -11 28 -15 30 C-15 23.07 -15 16.14 -15 9 C-3 0 -3 0 0 0 Z " fill="#FDFEFD" transform="translate(719,310)"/>
<path d="M0 0 C6 3 6 3 7 4 C7 5.65 7 7.3 7 9 C2 12 2 12 -18 12 C-19.65 10.68 -21.3 9.36 -23 8 C-22.67 6.35 -22.34 4.7 -22 3 C-17 0 -17 0 0 0 Z " fill="#A4653B" transform="translate(221,266)"/>
<path d="M0 0 C-3 10 -3 10 -7 15 C-14 18 -14 18 -20 18 C-24 14 -24 14 -25 5 C-3.462 -1.154 -3.462 -1.154 0 0 Z " fill="#FBFAF9" transform="translate(655,545)"/>
<path d="M0 0 C5.94 0 11.88 0 18 0 C18 5.61 18 11.22 18 17 C12.06 17 6.12 17 0 17 C0 11.39 0 5.78 0 0 Z " fill="#FEFEFC" transform="translate(164,365)"/>
<path d="M0 0 C0.33 0 0.66 0 1 0 C1 1.98 1 3.96 1 6 C9.91 4.68 18.82 3.36 28 2 C30.31 2 32.62 2 35 2 C35.33 1.34 35.66 0.68 36 0 C37 11 37 11 37 21 C36.67 21 36.34 21 36 21 C36 18.03 36 15.06 36 12 C24.12 12 12.24 12 0 12 C0 8.04 0 4.08 0 0 Z " fill="#DBB593" transform="translate(436,989)"/>
<path d="M0 0 C0 6.27 0 12.54 0 19 C-11 28 -11 28 -15 29 C-15 22.73 -15 16.46 -15 10 C-2.778 0 -2.778 0 0 0 Z " fill="#FEFEFE" transform="translate(660,323)"/>
<path d="M0 0 C-0.33 7.59 -0.66 15.18 -1 23 C-12 31 -12 31 -14 31 C-14 23.74 -14 16.48 -14 9 C-2 0 -2 0 0 0 Z " fill="#FEFEFE" transform="translate(698,293)"/>
<path d="M0 0 C3.96 0 7.92 0 12 0 C14 12 14 12 14 20 C9.05 20 4.1 20 -1 20 C-2.9 14.299 -2 8.009 -2 2 C-1.34 1.34 -0.68 0.68 0 0 Z " fill="#E8C7A7" transform="translate(321,980)"/>
<path d="M0 0 C12.54 0 25.08 0 38 0 C38 2.31 38 4.62 38 7 C25.009 7.59 12.004 8 -1 8 C-1 1 -1 1 0 0 Z " fill="#E9C9A9" transform="translate(158,980)"/>
<path d="M0 0 C5.61 0 11.22 0 17 0 C17 5.61 17 11.22 17 17 C11.39 17 5.78 17 0 17 C0 11.39 0 5.78 0 0 Z " fill="#FEFDFC" transform="translate(140,365)"/>
<path d="M0 0 C0 7.26 0 14.52 0 22 C-11 30 -11 30 -13 30 C-13 23.07 -13 16.14 -13 9 C-2 0 -2 0 0 0 Z " fill="#FEFDFE" transform="translate(678,308)"/>
<path d="M0 0 C12.87 0 25.74 0 39 0 C38.67 2.64 38.34 5.28 38 8 C25.46 7.67 12.92 7.34 0 7 C0 4.69 0 2.38 0 0 Z " fill="#EAC8A9" transform="translate(210,980)"/>
<path d="M0 0 C6.6 0 13.2 0 20 0 C20 4.62 20 9.24 20 14 C13.4 14 6.8 14 0 14 C0 9.38 0 4.76 0 0 Z " fill="#FDFDFC" transform="translate(68,388)"/>
<path d="M0 0 C29.7 0 59.4 0 90 0 C90 0.99 90 1.98 90 3 C59.97 3 29.94 3 -1 3 C-0.67 2.01 -0.34 1.02 0 0 Z " fill="#F4E0CF" transform="translate(626,703)"/>
<path d="M0 0 C5.28 0 10.56 0 16 0 C16 5.61 16 11.22 16 17 C10.72 17 5.44 17 0 17 C0 11.39 0 5.78 0 0 Z " fill="#FEFEFD" transform="translate(510,365)"/>
<path d="M0 0 C5.28 0 10.56 0 16 0 C16 5.61 16 11.22 16 17 C10.72 17 5.44 17 0 17 C0 11.39 0 5.78 0 0 Z " fill="#FEFEFD" transform="translate(117,365)"/>
<path d="M0 0 C4.29 0 8.58 0 13 0 C12 18 12 18 11 20 C6.38 20.33 1.76 20.66 -3 21 C-1 5 -1 5 0 0 Z " fill="#E6C1A0" transform="translate(419,960)"/>
<path d="M0 0 C9.57 0 19.14 0 29 0 C29 2.97 29 5.94 29 9 C19.1 9 9.2 9 -1 9 C-1 1 -1 1 0 0 Z " fill="#F7F3EE" transform="translate(96,960)"/>
<path d="M0 0 C3.63 0.33 7.26 0.66 11 1 C10.67 8.26 10.34 15.52 10 23 C5.71 23 1.42 23 -3 23 C-1 6 -1 6 0 0 Z " fill="#EEE5DB" transform="translate(608,931)"/>
<path d="M0 0 C3 19 3 19 3 23 C-1.29 23 -5.58 23 -10 23 C-10.33 15.74 -10.66 8.48 -11 1 C-7 0 -7 0 0 0 Z " fill="#F6F3F0" transform="translate(142,931)"/>
<path d="M0 0 C6.27 0 12.54 0 19 0 C19 4.62 19 9.24 19 14 C12.73 14 6.46 14 0 14 C0 9.38 0 4.76 0 0 Z " fill="#FEFEFD" transform="translate(578,388)"/>
<path d="M0 0 C3.96 0 7.92 0 12 0 C11.67 8.25 11.34 16.5 11 25 C10.67 25 10.34 25 10 25 C10 23.35 10 21.7 10 20 C5.71 20 1.42 20 -3 20 C-1 4 -1 4 0 0 Z " fill="#E5C2A3" transform="translate(76,960)"/>
<path d="M0 0 C3.63 0.33 7.26 0.66 11 1 C11 12 11 12 10 23 C5.71 23 1.42 23 -3 23 C-1 7 -1 7 0 0 Z " fill="#F8F5F2" transform="translate(423,931)"/>
<path d="M0 0 C0.33 0 0.66 0 1 0 C1 51.48 1 102.96 1 156 C2.65 156.33 4.3 156.66 6 157 C7.32 157.99 8.64 158.98 10 160 C10 160.99 10 161.98 10 163 C3.73 163 -2.54 163 -9 163 C-8 159 -8 159 -6 157 C-4.02 157 -2.04 157 0 157 C0 105.19 0 53.38 0 0 Z " fill="#9F5E35" transform="translate(213,279)"/>
<path d="M0 0 C4.975 4.975 3 15.933 3 23 C-0.96 23 -4.92 23 -9 23 C-10.44 15.802 -10 8.341 -10 1 C-5 0 -5 0 0 0 Z " fill="#F7F5F3" transform="translate(485,931)"/>
<path d="M0 0 C0 6.27 0 12.54 0 19 C-11 27 -11 27 -13 27 C-13 20.73 -13 14.46 -13 8 C-2 0 -2 0 0 0 Z " fill="#FDFEFD" transform="translate(698,325)"/>
<path d="M0 0 C3 16 3 16 3 23 C-0.96 23 -4.92 23 -9 23 C-10 16 -10 16 -10 1 C-6 0 -6 0 0 0 Z " fill="#F8F6F3" transform="translate(325,931)"/>
<path d="M0 0 C4.95 0 9.9 0 15 0 C15 5.61 15 11.22 15 17 C10.05 17 5.1 17 0 17 C0 11.39 0 5.78 0 0 Z " fill="#FEFEFE" transform="translate(556,428)"/>
<path d="M0 0 C4.95 0 9.9 0 15 0 C15 5.61 15 11.22 15 17 C10.05 17 5.1 17 0 17 C0 11.39 0 5.78 0 0 Z " fill="#FEFEFD" transform="translate(95,428)"/>
<path d="M0 0 C4.95 0 9.9 0 15 0 C15 5.61 15 11.22 15 17 C10.05 17 5.1 17 0 17 C0 11.39 0 5.78 0 0 Z " fill="#FEFEFC" transform="translate(556,365)"/>
<path d="M0 0 C4.95 0 9.9 0 15 0 C15 5.61 15 11.22 15 17 C10.05 17 5.1 17 0 17 C0 11.39 0 5.78 0 0 Z " fill="#FEFEFD" transform="translate(533,365)"/>
<path d="M0 0 C3 18 3 18 3 23 C-0.96 23 -4.92 23 -9 23 C-10 16 -10 16 -10 1 C-7 0 -7 0 0 0 Z " fill="#EEE6DD" transform="translate(670,931)"/>
<path d="M0 0 C3.63 0.33 7.26 0.66 11 1 C11 12 11 12 10 22 C5.71 22 1.42 22 -3 22 C-2.01 14.74 -1.02 7.48 0 0 Z " fill="#F7F7F5" transform="translate(263,931)"/>
<path d="M0 0 C4.62 0 9.24 0 14 0 C15 4 15 4 15 17 C14.67 17.33 14.34 17.66 14 18 C10.04 18 6.08 18 2 18 C0 6 0 6 0 0 Z " fill="#EAC9AB" transform="translate(476,960)"/>
<path d="M0 0 C-3 9 -3 9 -8 13 C-12 14 -12 14 -20 14 C-25 9 -25 9 -26 3 C-6 0 -6 0 0 0 Z " fill="#FBFBF8" transform="translate(655,615)"/>
<path d="M0 0 C0.66 0.33 1.32 0.66 2 1 C1.67 1.33 1.34 1.66 1 2 C35.32 2.33 69.64 2.66 105 3 C104.67 3.66 104.34 4.32 104 5 C63.74 5 23.48 5 -18 5 C-18 4.67 -18 4.34 -18 4 C-13.71 3.34 -9.42 2.68 -5 2 C-3.35 1.34 -1.7 0.68 0 0 Z " fill="#D2A883" transform="translate(232,1019)"/>
<path d="M0 0 C0 0.99 0 1.98 0 3 C-73 5 -73 5 -91 5 C-91 4.01 -91 3.02 -91 2 C-60.674 0.736 -30.354 0 0 0 Z " fill="#F7E4D4" transform="translate(716,691)"/>
<path d="M0 0 C35.31 0.33 70.62 0.66 107 1 C106.34 1.66 105.68 2.32 105 3 C65.07 3 25.14 3 -16 3 C-16 2.67 -16 2.34 -16 2 C-2 -1 -2 -1 0 0 Z " fill="#D2A884" transform="translate(577,1021)"/>
<path d="M0 0 C4.29 0 8.58 0 13 0 C12.67 5.94 12.34 11.88 12 18 C7.38 18 2.76 18 -2 18 C-2 10 -2 10 0 0 Z " fill="#E8C9AB" transform="translate(259,960)"/>
<path d="M0 0 C0.33 0 0.66 0 1 0 C1 4.62 1 9.24 1 14 C-10.55 14 -22.1 14 -34 14 C-34 12.35 -34 10.7 -34 9 C-4 5 -4 5 0 5 C0 3.35 0 1.7 0 0 Z " fill="#DDB998" transform="translate(127,986)"/>
<path d="M0 0 C4.29 0 8.58 0 13 0 C14 4 14 4 14 18 C9.71 18 5.42 18 1 18 C-0.9 12.299 0 6.009 0 0 Z " fill="#E8C8AA" transform="translate(133,960)"/>
<path d="M0 0 C3.63 0.33 7.26 0.66 11 1 C11 9 11 9 9 22 C5.04 22 1.08 22 -3 22 C-2.01 14.74 -1.02 7.48 0 0 Z " fill="#FAF8F6" transform="translate(80,931)"/>
<path d="M0 0 C2.31 0.66 4.62 1.32 7 2 C9.97 2.33 12.94 2.66 16 3 C16 3.33 16 3.66 16 4 C-24.26 4 -64.52 4 -106 4 C-106.66 3.34 -107.32 2.68 -108 2 C-72.36 2 -36.72 2 0 2 C0 1.34 0 0.68 0 0 Z " fill="#D3A985" transform="translate(520,1020)"/>
<path d="M0 0 C7.18 3.59 12.324 10.324 18 16 C15 18 15 18 8 18 C8 20.64 8 23.28 8 26 C6.02 24.35 4.04 22.7 2 21 C1.67 26.94 1.34 32.88 1 39 C0.67 39 0.34 39 0 39 C0 26.13 0 13.26 0 0 Z " fill="#CCBFB2" transform="translate(423,705)"/>
<path d="M0 0 C5 1 5 1 9 6 C9.33 7.65 9.66 9.3 10 11 C-12 17 -12 17 -14 17 C-13 9 -13 9 -9 3 C-7.35 3 -5.7 3 -4 3 C-3.67 3.33 -3.34 3.66 -3 4 C-2.01 2.68 -1.02 1.36 0 0 Z " fill="#E48E59" transform="translate(645,533)"/>
<path d="M0 0 C4.95 0 9.9 0 15 0 C15 5.28 15 10.56 15 16 C10.05 16 5.1 16 0 16 C0 10.72 0 5.44 0 0 Z " fill="#FEFEFD" transform="translate(95,365)"/>
<path d="M0 0 C0 0.33 0 0.66 0 1 C-39.93 1 -79.86 1 -121 1 C-121.33 0.34 -121.66 -0.32 -122 -1 C-11 -2 -11 -2 0 0 Z " fill="#D2A985" transform="translate(188,1023)"/>
<path d="M0 0 C9.57 0 19.14 0 29 0 C29 2.64 29 5.28 29 8 C19.1 8 9.2 8 -1 8 C-1 1 -1 1 0 0 Z " fill="#F8F7F3" transform="translate(280,960)"/>
<path d="M0 0 C6.6 0 13.2 0 20 0 C20 3.63 20 7.26 20 11 C19.67 11.33 19.34 11.66 19 12 C12.73 12 6.46 12 0 12 C0 8.04 0 4.08 0 0 Z " fill="#FDFDFB" transform="translate(68,409)"/>
<path d="M0 0 C5.61 0 11.22 0 17 0 C17 4.62 17 9.24 17 14 C11.39 14 5.78 14 0 14 C0 9.38 0 4.76 0 0 Z " fill="#FDFDFB" transform="translate(140,388)"/>
<path d="M0 0 C6.27 0 12.54 0 19 0 C19 3.96 19 7.92 19 12 C12.73 12 6.46 12 0 12 C0 8.04 0 4.08 0 0 Z " fill="#FEFEFC" transform="translate(578,409)"/>
<path d="M0 0 C0.99 0.99 1.98 1.98 3 3 C3 3.66 3 4.32 3 5 C3.99 5 4.98 5 6 5 C5.67 5.99 5.34 6.98 5 8 C-19 14 -19 14 -23 14 C-23 13.34 -23 12.68 -23 12 C-22.34 12 -21.68 12 -21 12 C-20.67 10.02 -20.34 8.04 -20 6 C-13.568 0.855 -8.147 0 0 0 Z " fill="#F7F1EE" transform="translate(703,522)"/>
<path d="M0 0 C5.28 0 10.56 0 16 0 C16 4.62 16 9.24 16 14 C10.72 14 5.44 14 0 14 C0 9.38 0 4.76 0 0 Z " fill="#FDFEFD" transform="translate(510,388)"/>
<path d="M0 0 C9.279 9.279 8 10.088 8 25 C4 34 4 34 -1 38 C-3.64 38 -6.28 38 -9 38 C-15 32 -15 32 -17 26 C-17 12 -17 12 -12 3 C-8 0 -8 0 0 0 Z M-12 7 C-15 13 -15 13 -15 26 C-12 32 -12 32 -8 35 C-5.69 35 -3.38 35 -1 35 C4 30 4 30 7 22 C7 14 7 14 3 6 C-3.352 1.236 -5.945 2.156 -12 7 Z " fill="#F3E4D4" transform="translate(698,645)"/>
<path d="M0 0 C1.98 0 3.96 0 6 0 C13.075 7.075 7 19.994 7 30 C4.36 28.02 1.72 26.04 -1 24 C-1 1 -1 1 0 0 Z " fill="#C4AC96" transform="translate(424,681)"/>
<path d="M0 0 C4.95 0 9.9 0 15 0 C15 4.62 15 9.24 15 14 C10.05 14 5.1 14 0 14 C0 9.38 0 4.76 0 0 Z " fill="#FEFEFD" transform="translate(556,388)"/>
<path d="M0 0 C4.95 0 9.9 0 15 0 C15 4.62 15 9.24 15 14 C10.05 14 5.1 14 0 14 C0 9.38 0 4.76 0 0 Z " fill="#FEFEFD" transform="translate(533,388)"/>
<path d="M0 0 C4.95 0 9.9 0 15 0 C15 4.62 15 9.24 15 14 C10.05 14 5.1 14 0 14 C0 9.38 0 4.76 0 0 Z " fill="#FEFEFD" transform="translate(95,388)"/>
<path d="M0 0 C4.95 0 9.9 0 15 0 C15 4.62 15 9.24 15 14 C10.05 14 5.1 14 0 14 C0 9.38 0 4.76 0 0 Z " fill="#FEFEFE" transform="translate(118,388)"/>
<path d="M0 0 C9.57 0 19.14 0 29 0 C29 2.31 29 4.62 29 7 C19.1 7 9.2 7 -1 7 C-1 1 -1 1 0 0 Z " fill="#FDFEFD" transform="translate(440,961)"/>
<path d="M0 0 C0.33 1.32 0.66 2.64 1 4 C3.31 4.165 3.31 4.165 15 5 C15 14 15 14 14 17 C8.72 17.33 3.44 17.66 -2 18 C-1.34 12.06 -0.68 6.12 0 0 Z " fill="#DAB390" transform="translate(600,985)"/>
<path d="M0 0 C5 2 5 2 7 4 C6.34 5.32 5.68 6.64 5 8 C5.664 9.062 6.328 10.124 7.012 11.219 C20 32 20 32 20 34 C15 33 15 33 8 25 C0 10 0 10 -1 1 C-0.67 0.67 -0.34 0.34 0 0 Z " fill="#80AE6A" transform="translate(81,583)"/>
<path d="M0 0 C0.33 0 0.66 0 1 0 C2 6 2 6 2 18 C-1 19 -1 19 -13 19 C-14 12 -14 12 -14 4 C-13.67 4.99 -13.34 5.98 -13 7 C-11.02 6.835 -11.02 6.835 -1 6 C-0.67 4.02 -0.34 2.04 0 0 Z " fill="#E9C8A8" transform="translate(491,971)"/>
<path d="M0 0 C5.28 0 10.56 0 16 0 C16 3.96 16 7.92 16 12 C11.05 12 6.1 12 1 12 C0.67 11.67 0.34 11.34 0 11 C0 7.37 0 3.74 0 0 Z " fill="#FEFEFC" transform="translate(94,409)"/>
<path d="M0 0 C0.33 0 0.66 0 1 0 C1.66 5.28 2.32 10.56 3 16 C-2.28 16 -7.56 16 -13 16 C-13.33 17.32 -13.66 18.64 -14 20 C-14 15.05 -14 10.1 -14 5 C-9.38 4.67 -4.76 4.34 0 4 C0 2.68 0 1.36 0 0 Z " fill="#DBB593" transform="translate(493,985)"/>
<path d="M0 0 C0.33 0 0.66 0 1 0 C2 8 2 8 2 19 C-2.62 19.66 -7.24 20.32 -12 21 C-12.33 20.67 -12.66 20.34 -13 20 C-13 16.04 -13 12.08 -13 8 C-8.71 8 -4.42 8 0 8 C0 5.36 0 2.72 0 0 Z " fill="#E8C6A7" transform="translate(147,970)"/>
<path d="M0 0 C27 0 27 0 40 1 C40 1.33 40 1.66 40 2 C36.04 2 32.08 2 28 2 C27.34 3.32 26.68 4.64 26 6 C21 9 21 9 12 9 C6 4 6 4 5 2 C3.35 1.67 1.7 1.34 0 1 C0 0.67 0 0.34 0 0 Z " fill="#FBF4DE" transform="translate(334,477)"/>
<path d="M0 0 C4.95 0 9.9 0 15 0 C15 3.96 15 7.92 15 12 C10.05 12 5.1 12 0 12 C0 8.04 0 4.08 0 0 Z " fill="#FEFEFE" transform="translate(556,409)"/>
<path d="M0 0 C4.95 0 9.9 0 15 0 C15 3.96 15 7.92 15 12 C10.05 12 5.1 12 0 12 C0 8.04 0 4.08 0 0 Z " fill="#FDFEFC" transform="translate(533,409)"/>
<path d="M0 0 C4.95 0.33 9.9 0.66 15 1 C15 4.96 15 8.92 15 13 C5 13 5 13 0 12 C0 8.04 0 4.08 0 0 Z " fill="#E6C2A0" transform="translate(256,977)"/>
<path d="M0 0 C6.93 0 13.86 0 21 0 C21.33 0.99 21.66 1.98 22 3 C17 8 17 8 15 9 C6 9 6 9 0 5 C-0.33 3.68 -0.66 2.36 -1 1 C-0.67 0.67 -0.34 0.34 0 0 Z " fill="#FDFBE7" transform="translate(203,479)"/>
<path d="M0 0 C7.26 0 14.52 0 22 0 C22.33 0.66 22.66 1.32 23 2 C18 8 18 8 15 9 C6 9 6 9 0 4 C-0.33 3.01 -0.66 2.02 -1 1 C-0.67 0.67 -0.34 0.34 0 0 Z " fill="#FBEFD0" transform="translate(481,479)"/>
<path d="M0 0 C4.95 0 9.9 0 15 0 C15 3.63 15 7.26 15 11 C10.05 11 5.1 11 0 11 C0 7.37 0 3.74 0 0 Z " fill="#FEFEFC" transform="translate(118,410)"/>
<path d="M0 0 C4.29 0 8.58 0 13 0 C13 4.95 13 9.9 13 15 C7 13 7 13 0 8 C0 5.36 0 2.72 0 0 Z " fill="#EFE9E0" transform="translate(604,960)"/>
<path d="M0 0 C2.97 0 5.94 0 9 0 C9 5.61 9 11.22 9 17 C6.03 17 3.06 17 0 17 C0 11.39 0 5.78 0 0 Z " fill="#FDFDFD" transform="translate(494,365)"/>
<path d="M0 0 C1 3 1 3 2 8 C2.66 9.32 3.32 10.64 4 12 C3.01 12.33 2.02 12.66 1 13 C0.67 13.99 0.34 14.98 0 16 C-2.31 16.33 -4.62 16.66 -7 17 C-7 15.02 -7 13.04 -7 11 C-7.66 10.67 -8.32 10.34 -9 10 C-9 8.35 -9 6.7 -9 5 C-9.33 3.68 -9.66 2.36 -10 1 C-5 0 -5 0 0 0 Z " fill="#F6F2EE" transform="translate(698,590)"/>
<path d="M0 0 C1.65 0 3.3 0 5 0 C3.68 0.33 2.36 0.66 1 1 C1 1.66 1 2.32 1 3 C2.155 2.835 2.155 2.835 8 2 C8.99 2.99 9.98 3.98 11 5 C11 7.31 11 9.62 11 12 C6.05 12 1.1 12 -4 12 C-4 6 -4 6 0 0 Z " fill="#FAF9F6" transform="translate(634,661)"/>
<path d="M0 0 C0.66 0 1.32 0 2 0 C2 1.65 2 3.3 2 5 C4.97 5 7.94 5 11 5 C11 5.33 11 5.66 11 6 C8.03 6 5.06 6 2 6 C2.66 8.64 3.32 11.28 4 14 C5.65 12.35 7.3 10.7 9 9 C8.34 10.98 7.68 12.96 7 15 C6.67 16.65 6.34 18.3 6 20 C6.99 20.99 7.98 21.98 9 23 C9.33 21.35 9.66 19.7 10 18 C11 22 11 22 10 24 C5 23 5 23 3 21 C1.35 21.99 -0.3 22.98 -2 24 C-2 23.34 -2 22.68 -2 22 C-0.68 21.01 0.64 20.02 2 19 C1.67 17.35 1.34 15.7 1 14 C1 11.36 1 8.72 1 6 C-2.3 6 -5.6 6 -9 6 C-9 7.65 -9 9.3 -9 11 C-6.69 11 -4.38 11 -2 11 C-2 13.97 -2 16.94 -2 20 C-2.66 20.66 -3.32 21.32 -4 22 C-5.32 22 -6.64 22 -8 22 C-8 21.34 -8 20.68 -8 20 C-6.68 19.67 -5.36 19.34 -4 19 C-3.67 16.69 -3.34 14.38 -3 12 C-4.98 12 -6.96 12 -9 12 C-9 14.64 -9 17.28 -9 20 C-9.66 21.32 -10.32 22.64 -11 24 C-11.33 23.34 -11.66 22.68 -12 22 C-11.835 21.505 -11.835 21.505 -11 19 C-10.67 14.38 -10.34 9.76 -10 5 C-6.7 5 -3.4 5 0 5 C0 3.35 0 1.7 0 0 Z " fill="#F5D5BB" transform="translate(78,1296)"/>
<path d="M0 0 C0.33 0 0.66 0 1 0 C1 1.98 1 3.96 1 6 C2.32 6.66 3.64 7.32 5 8 C7.64 9.65 10.28 11.3 13 13 C13 16.3 13 19.6 13 23 C12.67 23 12.34 23 12 23 C12 21.02 12 19.04 12 17 C9.855 17.165 9.855 17.165 -1 18 C-1.33 18.99 -1.66 19.98 -2 21 C-1.67 17.535 -1.67 17.535 0 0 Z " fill="#E5C6A8" transform="translate(603,962)"/>
<path d="M0 0 C7.26 0 14.52 0 22 0 C20 4 20 4 14 8 C7 8 7 8 0 2 C0 1.34 0 0.68 0 0 Z " fill="#FBF6F2" transform="translate(630,675)"/>
<path d="M0 0 C0.66 0.66 1.32 1.32 2 2 C3.155 2.495 3.155 2.495 9 5 C9.66 6.65 10.32 8.3 11 10 C4.07 10 -2.86 10 -10 10 C-9 6 -9 6 -6 3 C-4.02 3 -2.04 3 0 3 C0 2.01 0 1.02 0 0 Z " fill="#BF6A38" transform="translate(492,433)"/>
<path d="M0 0 C0.33 0 0.66 0 1 0 C1 1.65 1 3.3 1 5 C4.3 5 7.6 5 11 5 C11 5.66 11 6.32 11 7 C8.03 7 5.06 7 2 7 C2 8.65 2 10.3 2 12 C4.64 12 7.28 12 10 12 C10 12.66 10 13.32 10 14 C7.03 14 4.06 14 1 14 C1 16.31 1 18.62 1 21 C4.63 21 8.26 21 12 21 C12 21.33 12 21.66 12 22 C4.41 22 -3.18 22 -11 22 C-11 21.67 -11 21.34 -11 21 C-7.37 21 -3.74 21 0 21 C0 18.69 0 16.38 0 14 C-2.64 14 -5.28 14 -8 14 C-8 13.67 -8 13.34 -8 13 C-5.36 13 -2.72 13 0 13 C0 11.02 0 9.04 0 7 C-2.31 7.33 -4.62 7.66 -7 8 C-7.33 8.495 -7.33 8.495 -9 11 C-9.66 10.67 -10.32 10.34 -11 10 C-9.68 7.03 -8.36 4.06 -7 1 C-6.34 1 -5.68 1 -5 1 C-5.33 2.32 -5.66 3.64 -6 5 C-4.02 5 -2.04 5 0 5 C0 3.35 0 1.7 0 0 Z " fill="#F3C9A8" transform="translate(51,1297)"/>
<path d="M0 0 C0.33 0 0.66 0 1 0 C1 3.3 1 6.6 1 10 C2.98 10.66 4.96 11.32 7 12 C9.145 13.32 9.145 13.32 20 20 C20 20.33 20 20.66 20 21 C13.4 20.67 6.8 20.34 0 20 C0 13.4 0 6.8 0 0 Z " fill="#EACDB2" transform="translate(623,971)"/>
<path d="M0 0 C1.65 1.32 3.3 2.64 5 4 C5 4.99 5 5.98 5 7 C-1.6 7 -8.2 7 -15 7 C-14.67 5.35 -14.34 3.7 -14 2 C-11 0 -11 0 0 0 Z " fill="#BC6937" transform="translate(356,434)"/>
<path d="M0 0 C4.29 0 8.58 0 13 0 C13 2.97 13 5.94 13 9 C8.71 9 4.42 9 0 9 C0 6.03 0 3.06 0 0 Z " fill="#F8F5F1" transform="translate(133,960)"/>
<path d="M0 0 C4.29 0 8.58 0 13 0 C13 2.64 13 5.28 13 8 C12.67 8.33 12.34 8.66 12 9 C8.04 9 4.08 9 0 9 C0 6.03 0 3.06 0 0 Z " fill="#F9F5F1" transform="translate(259,960)"/>
<path d="M0 0 C2.31 1.98 4.62 3.96 7 6 C7 10.29 7 14.58 7 19 C4.69 19 2.38 19 0 19 C0 12.73 0 6.46 0 0 Z " fill="#C1A894" transform="translate(424,725)"/>
<path d="M0 0 C2.31 0 4.62 0 7 0 C7 5.28 7 10.56 7 16 C4.69 16 2.38 16 0 16 C0 10.72 0 5.44 0 0 Z " fill="#9D582F" transform="translate(138,659)"/>
<path d="M0 0 C2.31 0 4.62 0 7 0 C7 5.28 7 10.56 7 16 C4.69 16 2.38 16 0 16 C0 10.72 0 5.44 0 0 Z " fill="#9B5930" transform="translate(75,659)"/>
<path d="M0 0 C4.29 0 8.58 0 13 0 C14 1 14 1 14 8 C9.38 8 4.76 8 0 8 C0 5.36 0 2.72 0 0 Z " fill="#F4EEE9" transform="translate(316,960)"/>
<path d="M0 0 C4.62 0 9.24 0 14 0 C14 2.64 14 5.28 14 8 C9.71 8 5.42 8 1 8 C0 6 0 6 0 0 Z " fill="#F5F1EC" transform="translate(476,960)"/>
<path d="M0 0 C3 3 3 3 9 20 C8.01 19.67 7.02 19.34 6 19 C5.67 17.02 5.34 15.04 5 13 C2.36 13.33 -0.28 13.66 -3 14 C-3.99 15.98 -4.98 17.96 -6 20 C-7 17 -7 17 -1 1 C-0.67 0.67 -0.34 0.34 0 0 Z " fill="#F3CFB1" transform="translate(24,1299)"/>
<path d="M0 0 C0.33 0.66 0.66 1.32 1 2 C2.65 2.33 4.3 2.66 6 3 C7.32 3.99 8.64 4.98 10 6 C10 6.99 10 7.98 10 9 C3.73 9 -2.54 9 -9 9 C-8 5 -8 5 -6 3 C-4.02 3 -2.04 3 0 3 C0 2.01 0 1.02 0 0 Z " fill="#BA6A3B" transform="translate(213,433)"/>
<path d="M0 0 C4.29 0 8.58 0 13 0 C13 2.64 13 5.28 13 8 C8.71 8 4.42 8 0 8 C0 5.36 0 2.72 0 0 Z " fill="#F7F4F1" transform="translate(419,960)"/>
<path d="M0 0 C3.96 0 7.92 0 12 0 C12 2.64 12 5.28 12 8 C8.04 8 4.08 8 0 8 C0 5.36 0 2.72 0 0 Z " fill="#F6F6F4" transform="translate(76,960)"/>
<path d="M0 0 C3.3 0 6.6 0 10 0 C10.66 4.29 11.32 8.58 12 13 C11.01 13.99 10.02 14.98 9 16 C8.34 16 7.68 16 7 16 C6.67 16.66 6.34 17.32 6 18 C5.67 17.01 5.34 16.02 5 15 C5.33 14.67 5.66 14.34 6 14 C6.33 11.03 6.66 8.06 7 5 C4.69 5 2.38 5 0 5 C0 3.35 0 1.7 0 0 Z " fill="#E99E63" transform="translate(69,1302)"/>
<path d="M0 0 C2.31 0.66 4.62 1.32 7 2 C7 2.66 7 3.32 7 4 C6.34 4 5.68 4 5 4 C5 4.66 5 5.32 5 6 C5.99 6 6.98 6 8 6 C8.33 5.34 8.66 4.68 9 4 C9 4.66 9 5.32 9 6 C11 5 11 5 12 3 C12.66 3.33 13.32 3.66 14 4 C14.33 3.34 14.66 2.68 15 2 C15.33 3.32 15.66 4.64 16 6 C8.754 8.898 2.831 9 -5 9 C-4.34 8.67 -3.68 8.34 -3 8 C-2.67 6.35 -2.34 4.7 -2 3 C-1.34 2.01 -0.68 1.02 0 0 Z " fill="#E4A076" transform="translate(634,609)"/>
<path d="M0 0 C6 5 6 5 7 12 C5.35 13.98 3.7 15.96 2 18 C0.02 17.34 -1.96 16.68 -4 16 C-3.67 15.01 -3.34 14.02 -3 13 C-2.01 12.67 -1.02 12.34 0 12 C0 8.04 0 4.08 0 0 Z " fill="#E4D6CB" transform="translate(687,1001)"/>
<path d="M0 0 C1.65 0 3.3 0 5 0 C5.66 1.32 6.32 2.64 7 4 C6.34 4 5.68 4 5 4 C5 3.34 5 2.68 5 2 C3.68 2.33 2.36 2.66 1 3 C2.65 3.99 4.3 4.98 6 6 C6 6.66 6 7.32 6 8 C5.34 8 4.68 8 4 8 C4 8.66 4 9.32 4 10 C2.68 10.33 1.36 10.66 0 11 C0 11.66 0 12.32 0 13 C-1.65 13.33 -3.3 13.66 -5 14 C-4 6 -4 6 0 0 Z " fill="#ECB897" transform="translate(636,536)"/>
<path d="M0 0 C0.66 0.99 1.32 1.98 2 3 C2.99 2.01 3.98 1.02 5 0 C6 12 6 12 3 17 C2.34 16.34 1.68 15.68 1 15 C0.01 15.66 -0.98 16.32 -2 17 C-1.67 13.7 -1.34 10.4 -1 7 C-1.33 5.68 -1.66 4.36 -2 3 C-1.34 2.01 -0.68 1.02 0 0 Z " fill="#EEC2A6" transform="translate(644,515)"/>
<path d="M0 0 C1 2 1 2 1 8 C1.66 9.32 2.32 10.64 3 12 C2.67 13.65 2.34 15.3 2 17 C1.34 17.33 0.68 17.66 0 18 C-0.33 15.36 -0.66 12.72 -1 10 C-1.66 12.31 -2.32 14.62 -3 17 C-3.99 17 -4.98 17 -6 17 C-8 9 -8 9 -8 1 C-7.34 1 -6.68 1 -6 1 C-5.34 3.31 -4.68 5.62 -4 8 C-3.67 8 -3.34 8 -3 8 C-2.34 5.69 -1.68 3.38 -1 1 C-0.67 0.67 -0.34 0.34 0 0 Z " fill="#EFBD9D" transform="translate(700,502)"/>
<path d="M0 0 C0 0.99 0 1.98 0 3 C-11.22 3 -22.44 3 -34 3 C-33.67 2.34 -33.34 1.68 -33 1 C-22.023 0.216 -11.005 0 0 0 Z " fill="#F7EEE3" transform="translate(716,691)"/>
<path d="M0 0 C38 0 38 0 41 2 C28.13 2.33 15.26 2.66 2 3 C1.34 4.32 0.68 5.64 0 7 C0 4.69 0 2.38 0 0 Z " fill="#E0BA97" transform="translate(500,978)"/>
<path d="M0 0 C0.66 0 1.32 0 2 0 C2 2.97 2 5.94 2 9 C1.34 9 0.68 9 0 9 C-2 20 -2 20 -3 31 C-3.495 31.825 -3.495 31.825 -6 36 C-9.599 25.203 -3.708 12.831 -1 2 C-0.67 1.34 -0.34 0.68 0 0 Z " fill="#699957" transform="translate(117,570)"/>
<path d="M0 0 C0.33 0 0.66 0 1 0 C1 20 1 20 -5 28 C-5 10 -5 10 -1 6 C-0.67 4.02 -0.34 2.04 0 0 Z " fill="#7AA868" transform="translate(119,571)"/>
<path d="M0 0 C6.93 0 13.86 0 21 0 C21.33 0.99 21.66 1.98 22 3 C17 8 17 8 15 9 C6 9 6 9 0 5 C-0.33 3.68 -0.66 2.36 -1 1 C-0.67 0.67 -0.34 0.34 0 0 Z M1 1 C5 6 5 6 14 7 C15.65 6.01 17.3 5.02 19 4 C19 3.34 19 2.68 19 2 C19.66 1.67 20.32 1.34 21 1 C14.4 1 7.8 1 1 1 Z " fill="#FDF4DA" transform="translate(203,479)"/>
<path d="M0 0 C1.32 0 2.64 0 4 0 C4 5.61 4 11.22 4 17 C2.35 16.67 0.7 16.34 -1 16 C-1 1 -1 1 0 0 Z " fill="#FAFCFB" transform="translate(486,365)"/>
<path d="M0 0 C0.33 0.99 0.66 1.98 1 3 C1.99 2.67 2.98 2.34 4 2 C6.64 3.32 9.28 4.64 12 6 C12.33 7.32 12.66 8.64 13 10 C11 10 9 10 7 10 C5.68 10.33 4.36 10.66 3 11 C2.01 11 1.02 11 0 11 C0 10.34 0 9.68 0 9 C0.66 9 1.32 9 2 9 C2 8.34 2 7.68 2 7 C1.01 6.835 1.01 6.835 -4 6 C-3.67 5.34 -3.34 4.68 -3 4 C-2.01 4 -1.02 4 0 4 C0 2.68 0 1.36 0 0 Z " fill="#E6A680" transform="translate(639,604)"/>
<path d="M0 0 C1.98 0 3.96 0 6 0 C6 7 6 7 5 9 C1.37 9 -2.26 9 -6 9 C-4.02 6.03 -2.04 3.06 0 0 Z " fill="#E9CEB3" transform="translate(61,969)"/>
<path d="M0 0 C10.89 0 21.78 0 33 0 C33 0.66 33 1.32 33 2 C27.885 2.165 27.885 2.165 2 3 C1.34 4.32 0.68 5.64 0 7 C0 4.69 0 2.38 0 0 Z " fill="#DFBC9A" transform="translate(156,978)"/>
<path d="M0 0 C1.65 0 3.3 0 5 0 C5.66 0.66 6.32 1.32 7 2 C6.67 3.98 6.34 5.96 6 8 C5.34 7.67 4.68 7.34 4 7 C4.33 8.32 4.66 9.64 5 11 C4.67 11.66 4.34 12.32 4 13 C0 11 0 11 -1 10 C-1 3 -1 3 0 0 Z " fill="#F8F1EA" transform="translate(686,662)"/>
<path d="M0 0 C5 1 5 1 6 2 C6 9 6 9 4 12 C3.175 11.67 3.175 11.67 -1 10 C-1 1 -1 1 0 0 Z " fill="#F7EDE3" transform="translate(697,656)"/>
<path d="M0 0 C0.33 0.66 0.66 1.32 1 2 C1.66 2 2.32 2 3 2 C3.99 2.99 4.98 3.98 6 5 C6.99 5 7.98 5 9 5 C8.34 5.66 7.68 6.32 7 7 C6.67 8.98 6.34 10.96 6 13 C6.99 13.165 6.99 13.165 12 14 C11.67 14.66 11.34 15.32 11 16 C10.01 15.835 10.01 15.835 5 15 C-0.28 14.67 -5.56 14.34 -11 14 C-11 13.67 -11 13.34 -11 13 C-6.05 13 -1.1 13 4 13 C3 6 3 6 1 4 C-1.31 4 -3.62 4 -6 4 C-6 3.34 -6 2.68 -6 2 C-4.02 1.34 -2.04 0.68 0 0 Z " fill="#EBA77C" transform="translate(641,660)"/>
<path d="M0 0 C0.99 0.99 1.98 1.98 3 3 C2.01 4.98 1.02 6.96 0 9 C-2 5 -2 5 -3 2 C-9.256 5.754 -9.689 7.377 -13 14 C-13.33 12.68 -13.66 11.36 -14 10 C-7.75 0 -7.75 0 0 0 Z " fill="#E28C56" transform="translate(697,648)"/>
<path d="M0 0 C7 6 7 6 10 10 C7 11 7 11 0 11 C0 7.37 0 3.74 0 0 Z " fill="#C3D3B8" transform="translate(431,712)"/>
<path d="M0 0 C0.99 0 1.98 0 3 0 C4 7 4 7 3 11 C2.01 10.835 2.01 10.835 -3 10 C-3 7.69 -3 5.38 -3 3 C-2.01 2.01 -1.02 1.02 0 0 Z " fill="#F6ECE2" transform="translate(691,650)"/>
<path d="M0 0 C0.99 0.66 0.99 0.66 6 4 C13 4 13 4 16 3 C16.33 2.01 16.66 1.02 17 0 C17.66 0 18.32 0 19 0 C17 5 17 5 13 8 C10.36 8 7.72 8 5 8 C3.35 6.35 1.7 4.7 0 3 C0 2.01 0 1.02 0 0 Z " fill="#F1E5D7" transform="translate(684,675)"/>
<path d="M0 0 C0.33 0 0.66 0 1 0 C1.33 1.98 1.66 3.96 2 6 C3.65 4.35 5.3 2.7 7 1 C6.34 2.98 5.68 4.96 5 7 C4.67 8.65 4.34 10.3 4 12 C4.99 12.99 5.98 13.98 7 15 C7.33 13.35 7.66 11.7 8 10 C9 14 9 14 8 16 C3 15 3 15 1 13 C0.175 13.495 0.175 13.495 -4 16 C-4 15.34 -4 14.68 -4 14 C-2.68 13.01 -1.36 12.02 0 11 C-0.33 8.03 -0.66 5.06 -1 2 C-0.67 1.34 -0.34 0.68 0 0 Z " fill="#F3CEAF" transform="translate(80,1304)"/>
<path d="M0 0 C9.9 0.33 19.8 0.66 30 1 C26 3 26 3 18 3 C18 3.66 18 4.32 18 5 C15.03 4.34 15.03 4.34 0 1 C0 0.67 0 0.34 0 0 Z " fill="#CFA37D" transform="translate(216,999)"/>
<path d="M0 0 C0 4.29 0 8.58 0 13 C-0.33 13 -0.66 13 -1 13 C-1 10.03 -1 7.06 -1 4 C-5.62 4 -10.24 4 -15 4 C-15.33 4.99 -15.66 5.98 -16 7 C-15.67 5.35 -15.34 3.7 -15 2 C-3 0 -3 0 0 0 Z " fill="#D7B190" transform="translate(85,998)"/>
<path d="M0 0 C5 1 5 1 6 2 C6 4.31 6 6.62 6 9 C5.34 9.33 5.34 9.33 2 11 C2.99 9.35 3.98 7.7 5 6 C4.34 6 3.68 6 3 6 C2.67 6.99 2.34 7.98 2 9 C1.01 9 0.02 9 -1 9 C-1 2 -1 2 0 0 Z " fill="#F7ECE2" transform="translate(650,653)"/>
<path d="M0 0 C0.33 0.66 0.66 1.32 1 2 C2.32 2.33 3.64 2.66 5 3 C5 3.66 5 4.32 5 5 C-2 8 -2 8 -5 8 C-5 6.02 -5 4.04 -5 2 C-6.65 2 -8.3 2 -10 2 C-10 1.67 -10 1.34 -10 1 C-5 0 -5 0 0 0 Z " fill="#F2E1D5" transform="translate(698,523)"/>
<path d="M0 0 C2.31 0 4.62 0 7 0 C7 1.98 7 3.96 7 6 C5.515 6.165 5.515 6.165 -2 7 C-2 6.34 -2 5.68 -2 5 C-2.66 4.67 -3.32 4.34 -4 4 C-3.34 4 -2.68 4 -2 4 C-1.34 2.68 -0.68 1.36 0 0 Z " fill="#E99F64" transform="translate(44,1304)"/>
<path d="M0 0 C0.33 0 0.66 0 1 0 C1 1.65 1 3.3 1 5 C5.29 5 9.58 5 14 5 C14 3.35 14 1.7 14 0 C14.33 0 14.66 0 15 0 C15 2.31 15 4.62 15 7 C11.37 7.33 7.74 7.66 4 8 C3 9 3 9 2 17 C1.67 17 1.34 17 1 17 C0.67 11.39 0.34 5.78 0 0 Z " fill="#D9AD87" transform="translate(317,973)"/>
<path d="M0 0 C0 0.99 0 1.98 0 3 C-0.99 3.66 -1.98 4.32 -3 5 C-3.33 5.99 -3.66 6.98 -4 8 C-7 9 -7 9 -15 9 C-15 7.68 -15 6.36 -15 5 C-13.185 4.67 -13.185 4.67 -4 3 C-2.68 2.01 -1.36 1.02 0 0 Z " fill="#E89663" transform="translate(651,624)"/>
<path d="M0 0 C0.99 0.33 1.98 0.66 3 1 C2 5 2 5 0 8 C0 9.32 0 10.64 0 12 C-0.66 12 -1.32 12 -2 12 C-2.33 11.34 -2.66 10.68 -3 10 C-4 11 -4 11 -5 18 C-5.33 18 -5.66 18 -6 18 C-6 10.453 -5.662 5.662 0 0 Z " fill="#F5E9DF" transform="translate(686,595)"/>
<path d="M0 0 C0 0.33 0 0.66 0 1 C-13 4 -13 4 -28 3 C-28.66 2.34 -29.32 1.68 -30 1 C-7 0 -7 0 0 0 Z " fill="#D2A985" transform="translate(189,999)"/>
<path d="M0 0 C3 3 3 3 4 10 C1.69 10.33 -0.62 10.66 -3 11 C-2 4 -2 4 0 0 Z " fill="#E38D57" transform="translate(694,596)"/>
<path d="M0 0 C1.65 0.33 3.3 0.66 5 1 C5.66 2.98 6.32 4.96 7 7 C0 8 0 8 -2 7 C-1 1 -1 1 0 0 Z " fill="#ECBFA4" transform="translate(645,538)"/>
<path d="M0 0 C1.98 0 3.96 0 6 0 C6 2.31 6 4.62 6 7 C4.845 7.495 4.845 7.495 -1 10 C-0.67 6.7 -0.34 3.4 0 0 Z " fill="#E9A167" transform="translate(69,1308)"/>
<path d="M0 0 C1.65 0 3.3 0 5 0 C6 1 6 1 6 6 C5.34 6.66 4.68 7.32 4 8 C2.35 7.67 0.7 7.34 -1 7 C-1 1 -1 1 0 0 Z " fill="#F7F3EF" transform="translate(694,669)"/>
<path d="M0 0 C0 0.33 0 0.66 0 1 C-2.97 1 -5.94 1 -9 1 C-9 3.31 -9 5.62 -9 8 C-5.37 8 -1.74 8 2 8 C2 8.33 2 8.66 2 9 C-5.59 9 -13.18 9 -21 9 C-21 8.67 -21 8.34 -21 8 C-17.37 8 -13.74 8 -10 8 C-10 5.69 -10 3.38 -10 1 C-12.64 1 -15.28 1 -18 1 C-18 0.67 -18 0.34 -18 0 C-10 -1 -10 -1 0 0 Z " fill="#F6D9C2" transform="translate(61,1310)"/>
<path d="M0 0 C3 3 3 3 5 10 C4.34 10 3.68 10 3 10 C2.34 8.35 1.68 6.7 1 5 C-1 8 -1 8 -4 17 C-4.99 17.99 -5.98 18.98 -7 20 C-4.4 4.4 -4.4 4.4 0 0 Z " fill="#F4D2B7" transform="translate(24,1299)"/>
<path d="M0 0 C0.66 0.33 1.32 0.66 2 1 C2 2.32 2 3.64 2 5 C2.66 5.33 3.32 5.66 4 6 C3.01 6.33 2.02 6.66 1 7 C0 10 0 10 0 17 C0.33 17.66 0.66 18.32 1 19 C0.34 19.66 -0.32 20.32 -1 21 C-3 16 -3 16 -3 7 C-2.01 4.69 -1.02 2.38 0 0 Z " fill="#E18651" transform="translate(686,655)"/>
<path d="M0 0 C1.98 0 3.96 0 6 0 C6.99 0.99 7.98 1.98 9 3 C9 3.66 9 4.32 9 5 C9.99 5 10.98 5 12 5 C11.67 5.99 11.34 6.98 11 8 C8.36 7.67 5.72 7.34 3 7 C3.99 6.67 4.98 6.34 6 6 C6 5.34 6 4.68 6 4 C4.35 3.67 2.7 3.34 1 3 C0.67 2.01 0.34 1.02 0 0 Z " fill="#F7EEE7" transform="translate(697,522)"/>
<path d="M0 0 C2.31 1.98 4.62 3.96 7 6 C6.67 6.99 6.34 7.98 6 9 C5.34 9 4.68 9 4 9 C4 9.99 4 10.98 4 12 C3.34 11.67 2.68 11.34 2 11 C1.67 9.68 1.34 8.36 1 7 C0.01 5.35 -0.98 3.7 -2 2 C-1.34 1.34 -0.68 0.68 0 0 Z " fill="#F4ECE3" transform="translate(701,592)"/>
<path d="M0 0 C0.66 0.33 1.32 0.66 2 1 C2 8 2 8 1 11 C-1.31 11.33 -3.62 11.66 -6 12 C-5.67 10.68 -5.34 9.36 -5 8 C-3.68 8 -2.36 8 -1 8 C-0.67 5.36 -0.34 2.72 0 0 Z " fill="#DF814A" transform="translate(698,511)"/>
<path d="M0 0 C10.23 0.33 20.46 0.66 31 1 C31 1.33 31 1.66 31 2 C26.38 2.33 21.76 2.66 17 3 C15.68 3.33 14.36 3.66 13 4 C11.02 3.34 9.04 2.68 7 2 C4.69 1.67 2.38 1.34 0 1 C0 0.67 0 0.34 0 0 Z " fill="#D0A580" transform="translate(560,999)"/>
<path d="M0 0 C0 0.33 0 0.66 0 1 C-14 3 -14 3 -34 2 C-34 1.67 -34 1.34 -34 1 C-22.675 0.461 -11.338 0 0 0 Z " fill="#CEA37D" transform="translate(537,999)"/>
<path d="M0 0 C0 0.66 0 1.32 0 2 C-5.61 4.64 -11.22 7.28 -17 10 C-17.99 10.99 -18.98 11.98 -20 13 C-19.67 11.68 -19.34 10.36 -19 9 C-3.25 0 -3.25 0 0 0 Z " fill="#F5E8DE" transform="translate(662,592)"/>
<path d="M0 0 C0.33 0 0.66 0 1 0 C1 1.65 1 3.3 1 5 C3.31 5 5.62 5 8 5 C8.33 5.66 8.66 6.32 9 7 C0 9 0 9 -4 9 C-4 8.34 -4 7.68 -4 7 C-3.34 7 -2.68 7 -2 7 C-1.67 5.02 -1.34 3.04 -1 1 C-0.67 0.67 -0.34 0.34 0 0 Z " fill="#F3E3D9" transform="translate(684,527)"/>
<path d="M0 0 C2.97 0 5.94 0 9 0 C4 8 4 8 2 10 C1.34 6.7 0.68 3.4 0 0 Z " fill="#E9A066" transform="translate(80,1302)"/>
<path d="M0 0 C1.65 0 3.3 0 5 0 C3.68 0.33 2.36 0.66 1 1 C1 1.66 1 2.32 1 3 C1.99 3 2.98 3 4 3 C4.33 5.31 4.66 7.62 5 10 C4.67 9.01 4.34 8.02 4 7 C2.35 7.33 0.7 7.66 -1 8 C-1.66 6.68 -2.32 5.36 -3 4 C-2.01 2.68 -1.02 1.36 0 0 Z " fill="#F1D1B9" transform="translate(634,661)"/>
<path d="M0 0 C0.99 0.33 1.98 0.66 3 1 C6 8 6 8 6 16 C4 13 4 13 2 6 C1.01 5.67 0.02 5.34 -1 5 C-0.67 3.35 -0.34 1.7 0 0 Z " fill="#E48F5C" transform="translate(699,651)"/>
<path d="M0 0 C0.66 0 1.32 0 2 0 C4.539 5.077 3 11.324 3 17 C2.34 18.98 1.68 20.96 1 23 C0.34 22.67 -0.32 22.34 -1 22 C-0.34 19.36 0.32 16.72 1 14 C1 6 1 6 0 0 Z " fill="#F2E2D4" transform="translate(703,653)"/>
<path d="M0 0 C7 1 7 1 11 6 C10.67 6.99 10.34 7.98 10 9 C7.69 7.02 5.38 5.04 3 3 C1.68 2.34 0.36 1.68 -1 1 C-0.67 0.67 -0.34 0.34 0 0 Z " fill="#F5E8DB" transform="translate(693,645)"/>
<path d="M0 0 C5 1 5 1 9 6 C9 6.99 9 7.98 9 9 C8.34 9 7.68 9 7 9 C6.01 7.35 5.02 5.7 4 4 C2.02 4.33 0.04 4.66 -2 5 C-1 1 -1 1 0 0 Z " fill="#F1DDD0" transform="translate(645,533)"/>
<path d="M0 0 C1 2 1 2 1 8 C1.66 9.32 2.32 10.64 3 12 C2.67 13.65 2.34 15.3 2 17 C1.34 17.33 0.68 17.66 0 18 C-2 7 -2 7 -1 1 C-0.67 0.67 -0.34 0.34 0 0 Z " fill="#F4DECF" transform="translate(700,502)"/>
<path d="M0 0 C0.33 0 0.66 0 1 0 C1.33 3.3 1.66 6.6 2 10 C1.67 9.34 1.34 8.68 1 8 C-3.62 8 -8.24 8 -13 8 C-13.33 9.32 -13.66 10.64 -14 12 C-14 9.36 -14 6.72 -14 4 C-13.67 4.99 -13.34 5.98 -13 7 C-11.02 6.835 -11.02 6.835 -1 6 C-0.67 4.02 -0.34 2.04 0 0 Z " fill="#D4A882" transform="translate(491,971)"/>
<path d="M0 0 C2.31 0 4.62 0 7 0 C7 2.31 7 4.62 7 7 C3 5 3 5 0 2 C0 1.34 0 0.68 0 0 Z " fill="#A2AFB2" transform="translate(464,744)"/>
<path d="M0 0 C2.31 0 4.62 0 7 0 C7.99 2.31 8.98 4.62 10 7 C7.69 7 5.38 7 3 7 C3 6.34 3 5.68 3 5 C3.66 5 4.32 5 5 5 C5 4.34 5 3.68 5 3 C4.01 2.835 4.01 2.835 -1 2 C-0.67 1.34 -0.34 0.68 0 0 Z " fill="#F5E2CF" transform="translate(636,608)"/>
<path d="M0 0 C-4 2 -4 2 -17 5 C-17.99 4.34 -18.98 3.68 -20 3 C-5 -1 -5 -1 0 0 Z " fill="#E49767" transform="translate(708,531)"/>
<path d="M0 0 C1.32 0.33 2.64 0.66 4 1 C4 1.66 4 2.32 4 3 C0.04 4.98 -3.92 6.96 -8 9 C-6 5 -6 5 0 0 Z " fill="#E38348" transform="translate(651,592)"/>
<path d="M0 0 C1.65 0 3.3 0 5 0 C5.66 1.32 6.32 2.64 7 4 C6.34 4 5.68 4 5 4 C5 3.34 5 2.68 5 2 C3.02 2.33 1.04 2.66 -1 3 C-1.66 5.97 -2.32 8.94 -3 12 C-3.66 12 -4.32 12 -5 12 C-4 6 -4 6 0 0 Z " fill="#F3E2D9" transform="translate(636,536)"/>
<path d="M0 0 C0.33 0 0.66 0 1 0 C1.33 3.96 1.66 7.92 2 12 C1.67 11.34 1.34 10.68 1 10 C-2.3 10 -5.6 10 -9 10 C-9 9.34 -9 8.68 -9 8 C-6.03 8 -3.06 8 0 8 C0 5.36 0 2.72 0 0 Z " fill="#DAB08B" transform="translate(147,970)"/>
<path d="M0 0 C1.65 0 3.3 0 5 0 C6 4 6 4 5 6 C6.32 7.65 7.64 9.3 9 11 C8.67 11.99 8.34 12.98 8 14 C3 8 3 8 3 2 C2.01 1.34 1.02 0.68 0 0 Z " fill="#EBB088" transform="translate(695,589)"/>
<path d="M0 0 C3 4 3 4 4 8 C2.02 8 0.04 8 -2 8 C-1 2 -1 2 0 0 Z " fill="#E89E61" transform="translate(24,1302)"/>
<path d="M0 0 C0.99 0 1.98 0 3 0 C3.33 2.31 3.66 4.62 4 7 C2.35 7 0.7 7 -1 7 C-1 1 -1 1 0 0 Z " fill="#F6F3F1" transform="translate(648,666)"/>
<path d="M0 0 C3 1 3 1 6 3 C2.346 4.044 -1.313 5.078 -5 6 C-3 2 -3 2 0 0 Z " fill="#F4E5D8" transform="translate(690,645)"/>
<path d="M0 0 C0.33 1.32 0.66 2.64 1 4 C1.66 4.33 2.32 4.66 3 5 C2.67 5.99 2.34 6.98 2 8 C0.02 8 -1.96 8 -4 8 C-2.68 5.36 -1.36 2.72 0 0 Z " fill="#77A563" transform="translate(116,609)"/>
<path d="M0 0 C-0.33 0.99 -0.66 1.98 -1 3 C-6 5 -6 5 -10 5 C-9.67 4.01 -9.34 3.02 -9 2 C-3 0 -3 0 0 0 Z " fill="#F6E6DB" transform="translate(647,563)"/>
<path d="M0 0 C0 0.66 0 1.32 0 2 C-6 4 -6 4 -11 4 C-10.67 3.01 -10.34 2.02 -10 1 C-4 0 -4 0 0 0 Z " fill="#F6E4D8" transform="translate(700,552)"/>
<path d="M0 0 C6.93 0 13.86 0 21 0 C21 0.33 21 0.66 21 1 C17.865 1.165 17.865 1.165 2 2 C1.34 2.66 0.68 3.32 0 4 C0 2.68 0 1.36 0 0 Z " fill="#FBEED2" transform="translate(203,479)"/>
<path d="M0 0 C-4 2 -4 2 -12 2 C-12 2.66 -12 3.32 -12 4 C-12.99 3.67 -13.98 3.34 -15 3 C-15 2.34 -15 1.68 -15 1 C-10 0 -10 0 0 0 Z " fill="#D5AD8A" transform="translate(246,1000)"/>
<path d="M0 0 C0.66 0 1.32 0 2 0 C2 2.97 2 5.94 2 9 C1.01 9 0.02 9 -1 9 C-2 4 -2 4 0 0 Z " fill="#6B995B" transform="translate(117,570)"/>
<path d="M0 0 C0.66 0 1.32 0 2 0 C2 1.65 2 3.3 2 5 C4.97 5 7.94 5 11 5 C11 5.33 11 5.66 11 6 C8.03 6 5.06 6 2 6 C1.67 7.32 1.34 8.64 1 10 C0.67 6.7 0.34 3.4 0 0 Z " fill="#F4D0B3" transform="translate(78,1296)"/>
<path d="M0 0 C0.825 0.33 0.825 0.33 5 2 C4.01 4.31 3.02 6.62 2 9 C0 5 0 5 0 0 Z " fill="#DF7A41" transform="translate(695,648)"/>
<path d="M0 0 C-2 4 -2 4 -9 9 C-9.66 8.67 -10.32 8.34 -11 8 C-2 0 -2 0 0 0 Z " fill="#F7E8DD" transform="translate(659,585)"/>
<path d="M0 0 C0.66 0 1.32 0 2 0 C3.65 1.98 5.3 3.96 7 6 C4.69 6 2.38 6 0 6 C-1 3 -1 3 0 0 Z " fill="#E3C3A4" transform="translate(686,1018)"/>
<path d="M0 0 C3.3 1.98 6.6 3.96 10 6 C10 6.33 10 6.66 10 7 C8.02 7 6.04 7 4 7 C2.68 5.68 1.36 4.36 0 3 C0 2.01 0 1.02 0 0 Z " fill="#F6F3EC" transform="translate(684,675)"/>
<path d="M0 0 C0.33 0.99 0.66 1.98 1 3 C1.66 3 2.32 3 3 3 C2.34 4.32 1.68 5.64 1 7 C0.01 7 -0.98 7 -2 7 C-2 5.02 -2 3.04 -2 1 C-1.34 0.67 -0.68 0.34 0 0 Z " fill="#F9F1E9" transform="translate(632,666)"/>
<path d="M0 0 C2.97 0 5.94 0 9 0 C8.67 0.66 8.34 1.32 8 2 C6.02 2.33 4.04 2.66 2 3 C1.34 4.32 0.68 5.64 0 7 C0 4.69 0 2.38 0 0 Z " fill="#E0BB96" transform="translate(156,978)"/>
<path d="M0 0 C1.65 0.33 3.3 0.66 5 1 C4.67 2.32 4.34 3.64 4 5 C2.35 5 0.7 5 -1 5 C-0.67 3.35 -0.34 1.7 0 0 Z " fill="#F2D8C5" transform="translate(650,653)"/>
<path d="M0 0 C0.33 0 0.66 0 1 0 C0.67 2.97 0.34 5.94 0 9 C-0.99 9 -1.98 9 -3 9 C-1 1 -1 1 0 0 Z " fill="#E2824D" transform="translate(703,664)"/>
<path d="M0 0 C0 0.66 0 1.32 0 2 C-2 3 -2 3 -10 3 C-10 2.34 -10 1.68 -10 1 C-4 0 -4 0 0 0 Z " fill="#F8EFE9" transform="translate(646,630)"/>
<path d="M0 0 C5 2 5 2 7 4 C6.01 4.66 5.02 5.32 4 6 C4 5.34 4 4.68 4 4 C3.01 3.67 2.02 3.34 1 3 C0.34 3.66 -0.32 4.32 -1 5 C-0.67 3.35 -0.34 1.7 0 0 Z " fill="#8FB77B" transform="translate(81,583)"/>
<path d="M0 0 C0.66 0 1.32 0 2 0 C2 0.66 2 1.32 2 2 C2.99 2 3.98 2 5 2 C4.67 2.99 4.34 3.98 4 5 C1.36 4.67 -1.28 4.34 -4 4 C-2.68 3.67 -1.36 3.34 0 3 C0 2.01 0 1.02 0 0 Z " fill="#F4E7DD" transform="translate(704,525)"/>
<path d="M0 0 C0.66 0 1.32 0 2 0 C0 5 0 5 -3 7 C-3.99 7 -4.98 7 -6 7 C-6 6.01 -6 5.02 -6 4 C-4.35 3.34 -2.7 2.68 -1 2 C-0.67 1.34 -0.34 0.68 0 0 Z " fill="#E48B59" transform="translate(700,673)"/>
<path d="M0 0 C0.99 0.99 1.98 1.98 3 3 C2.67 4.32 2.34 5.64 2 7 C-2 5 -2 5 -3 2 C-2.34 2 -1.68 2 -1 2 C-0.67 1.34 -0.34 0.68 0 0 Z " fill="#F5EFE7" transform="translate(688,668)"/>
<path d="M0 0 C0.33 0.99 0.66 1.98 1 3 C1.33 2.34 1.66 1.68 2 1 C2.99 1.33 3.98 1.66 5 2 C5 2.99 5 3.98 5 5 C2.69 5 0.38 5 -2 5 C-1.34 3.35 -0.68 1.7 0 0 Z " fill="#F0D7C3" transform="translate(633,611)"/>
<path d="M0 0 C1.98 0 3.96 0 6 0 C6.66 1.65 7.32 3.3 8 5 C5.261 5 4.857 4.952 2 4 C1.34 2.68 0.68 1.36 0 0 Z " fill="#F2D2BC" transform="translate(644,609)"/>
<path d="M0 0 C0.66 0.33 1.32 0.66 2 1 C1 8 1 8 -3 12 C-2 7 -2 7 0 5 C0 3.35 0 1.7 0 0 Z " fill="#E59156" transform="translate(688,594)"/>
<path d="M0 0 C0.66 0.33 1.32 0.66 2 1 C0.68 2.32 -0.64 3.64 -2 5 C-2.33 6.32 -2.66 7.64 -3 9 C-3.66 8.34 -4.32 7.68 -5 7 C-4 3 -4 3 0 0 Z " fill="#AD724C" transform="translate(340,266)"/>
<path d="M0 0 C0.33 0.99 0.66 1.98 1 3 C0.67 3.495 0.67 3.495 -1 6 C-1 5.34 -1 4.68 -1 4 C-2.32 4.33 -3.64 4.66 -5 5 C-5.66 4.34 -6.32 3.68 -7 3 C-4.69 2.01 -2.38 1.02 0 0 Z " fill="#E18855" transform="translate(648,559)"/>
<path d="M0 0 C0.99 0 1.98 0 3 0 C3.33 1.32 3.66 2.64 4 4 C3.01 4.66 2.02 5.32 1 6 C0.34 4.68 -0.32 3.36 -1 2 C-0.67 1.34 -0.34 0.68 0 0 Z " fill="#F7ECE4" transform="translate(645,660)"/>
<path d="M0 0 C1.65 0 3.3 0 5 0 C5 0.66 5 1.32 5 2 C4.01 2 3.02 2 2 2 C2 2.99 2 3.98 2 5 C1.01 5 0.02 5 -1 5 C-0.67 3.35 -0.34 1.7 0 0 Z " fill="#EFC6AD" transform="translate(643,657)"/>
<path d="M0 0 C-0.33 1.32 -0.66 2.64 -1 4 C-1 3.34 -1 2.68 -1 2 C-2.98 2.99 -4.96 3.98 -7 5 C-7 4.01 -7 3.02 -7 2 C-4 0 -4 0 0 0 Z " fill="#E4925B" transform="translate(695,648)"/>
<path d="M0 0 C2.64 0 5.28 0 8 0 C8 0.99 8 1.98 8 3 C5.36 2.67 2.72 2.34 0 2 C0 1.34 0 0.68 0 0 Z " fill="#D9B390" transform="translate(420,999)"/>
<path d="M0 0 C0 3 0 3 -1 7 C-2.65 6.67 -4.3 6.34 -6 6 C-4 4 -2 2 0 0 Z " fill="#E07A41" transform="translate(658,587)"/>
<path d="M0 0 C1 4 1 4 1 9 C-0.32 9.33 -1.64 9.66 -3 10 C-2.01 6.7 -1.02 3.4 0 0 Z " fill="#94BA82" transform="translate(109,580)"/>
<path d="M0 0 C2.31 0 4.62 0 7 0 C6.67 0.66 6.34 1.32 6 2 C3.69 2.66 1.38 3.32 -1 4 C-0.67 2.68 -0.34 1.36 0 0 Z " fill="#F7F4F0" transform="translate(697,529)"/>
<path d="M0 0 C0.33 0 0.66 0 1 0 C1.33 2.31 1.66 4.62 2 7 C2.33 7.66 2.66 8.32 3 9 C2.34 9.66 1.68 10.32 1 11 C-1 6 -1 6 0 0 Z " fill="#E59E6E" transform="translate(684,665)"/>
<path d="M0 0 C0.66 0 1.32 0 2 0 C2.33 0.99 2.66 1.98 3 3 C2.67 3.495 2.67 3.495 1 6 C-0.32 5.01 -1.64 4.02 -3 3 C-2.34 3 -1.68 3 -1 3 C-0.67 2.01 -0.34 1.02 0 0 Z " fill="#E69868" transform="translate(641,532)"/>
<path d="M0 0 C0 0.66 0 1.32 0 2 C-2.64 2.66 -5.28 3.32 -8 4 C-7.67 3.01 -7.34 2.02 -7 1 C-4 0 -4 0 0 0 Z " fill="#E19467" transform="translate(703,526)"/>
</svg>
