<?xml version="1.0" encoding="UTF-8"?>
<!-- Generator: visioncortex VTracer 0.6.12 -->
<svg version="1.1" xmlns="http://www.w3.org/2000/svg" width="768" height="1344">
<path d="M0 0 C253.44 0 506.88 0 768 0 C768 443.52 768 887.04 768 1344 C514.56 1344 261.12 1344 0 1344 C0 900.48 0 456.96 0 0 Z " fill="#DFE3E6" transform="translate(0,0)"/>
<path d="M0 0 C0.33 0 0.66 0 1 0 C1 6.93 1 13.86 1 21 C36.97 21 72.94 21 110 21 C110 35.85 110 50.7 110 66 C109.505 66.165 109.505 66.165 107 67 C104.36 70.3 101.72 73.6 99 77 C95.7 80.63 92.4 84.26 89 88 C87.598 89.712 86.195 91.424 84.75 93.188 C83.961 94.15 83.172 95.113 82.359 96.105 C80.224 98.725 78.106 101.357 76 104 C77 110 77 110 86 127 C111.5 135.5 111.5 135.5 137 127 C148.1 108.5 148.1 108.5 147 103 C142.71 98.05 138.42 93.1 134 88 C131.03 84.37 128.06 80.74 125 77 C115 66 115 66 113 65 C113 50.48 113 35.96 113 21 C155.57 21 198.14 21 242 21 C242 425 242 425 239 432 C238.34 434.31 237.68 436.62 237 439 C163.41 439 89.82 439 14 439 C13.01 435.7 12.02 432.4 11 429 C10.34 427.68 9.68 426.36 9 425 C2 425 2 425 -8 430 C-11 434 -11 434 -13 439 C-13.66 438.67 -14.32 438.34 -15 438 C-15.33 436.845 -15.33 436.845 -17 431 C-22 427 -22 427 -28 424 C-28 423.67 -28 423.34 -28 423 C34.37 423 96.74 423 161 423 C161 390.99 161 358.98 161 326 C143.84 326 126.68 326 109 326 C109 345.8 109 365.6 109 386 C91.51 386 74.02 386 56 386 C56.33 367.52 56.66 349.04 57 330 C55.35 330.33 53.7 330.66 52 331 C28.998 331 5.996 330.523 -17 330 C-17 354.75 -17 379.5 -17 405 C-40.76 405 -64.52 405 -89 405 C-89 372.66 -89 340.32 -89 307 C-112.1 307 -135.2 307 -159 307 C-159 285.88 -159 264.76 -159 243 C-174.51 243 -190.02 243 -206 243 C-206 302.07 -206 361.14 -206 422 C-194.45 422 -182.9 422 -171 422 C-171 413.75 -171 405.5 -171 397 C-166 395 -166 395 -157 395 C-157 395.33 -157 395.66 -157 396 C-159.31 396.33 -161.62 396.66 -164 397 C-164 397.33 -164 397.66 -164 398 C-143 398 -143 398 -135 397 C-135 405.58 -135 414.16 -135 423 C-101.01 423 -67.02 423 -32 423 C-32.66 423.33 -33.32 423.66 -34 424 C-37 435 -37 435 -38 439 C-104.33 439 -170.66 439 -239 439 C-275.749 304.253 -241.342 159.668 -241 20 C-220.21 20.165 -220.21 20.165 -115 21 C-115 43.77 -115 66.54 -115 90 C-116.65 91.65 -118.3 93.3 -120 95 C-127.21 102.811 -134.269 110.773 -141 119 C-142.155 120.32 -142.155 120.32 -148 127 C-147 134 -147 134 -138 151 C-113.532 159.511 -113.532 159.511 -88 151 C-76.87 131.522 -76.87 131.522 -78 127 C-106.875 91.708 -106.875 91.708 -112 90 C-112 67.23 -112 44.46 -112 21 C-76.03 21 -40.06 21 -3 21 C-3 31.23 -3 41.46 -3 52 C-4.32 52.66 -5.64 53.32 -7 54 C-9.97 57.63 -12.94 61.26 -16 65 C-19.96 69.29 -23.92 73.58 -28 78 C-37 89 -37 89 -38 94 C-26.197 115.246 -25.703 113.766 -4 121 C4 120 4 120 24 113 C35.13 93.522 35.13 93.522 34 89 C31.03 85.7 28.06 82.4 25 79 C22.03 75.37 19.06 71.74 16 68 C3 54 3 54 0 51 C0 34.17 0 17.34 0 0 Z " fill="#EEF2F4" transform="translate(428,346)"/>
<path d="M0 0 C8 6 8 6 19 17 C21.64 19.31 24.28 21.62 27 24 C28.076 25.016 29.153 26.032 30.262 27.078 C41.059 37.259 51.925 47.358 62.875 57.375 C69.964 63.866 76.982 70.433 84 77 C85.65 78.485 85.65 78.485 94 86 C99.28 90.95 104.56 95.9 110 101 C110.495 101.33 110.495 101.33 113 103 C113 103.66 113 104.32 113 105 C113.66 105.33 113.66 105.33 117 107 C119.64 109.64 122.28 112.28 125 115 C126.32 116.155 126.32 116.155 133 122 C133.981 122.92 134.962 123.841 135.973 124.789 C163.71 150.807 163.71 150.807 167 153 C167 153.66 167 154.32 167 155 C168.32 155.66 169.64 156.32 171 157 C173.97 159.97 176.94 162.94 180 166 C182.31 167.98 184.62 169.96 187 172 C187 306.64 187 441.28 187 580 C185.68 578.68 184.36 577.36 183 576 C176 576 176 576 166 580 C156.774 589.226 160 586.389 160 604 C166.409 670.227 166.409 670.227 170 681 C166.812 722.447 166.812 722.447 151 736 C143.667 742 136.333 748 129 754 C124.38 757.96 119.76 761.92 115 766 C113.536 767.196 112.071 768.393 110.562 769.625 C88.693 787.526 88.693 787.526 78.532 796.167 C74.351 799.718 70.11 803.19 65.855 806.652 C60.519 811.04 55.263 815.524 50 820 C48.35 821.32 48.35 821.32 40 828 C39.189 828.69 38.378 829.379 37.543 830.09 C31.362 835.339 25.145 840.533 18.855 845.652 C13.519 850.04 8.263 854.524 3 859 C2.01 859.33 1.02 859.66 0 860 C0 576.2 0 292.4 0 0 Z " fill="#FDFEFD" transform="translate(0,194)"/>
<path d="M0 0 C42.57 0 85.14 0 129 0 C129 404 129 404 126 411 C125.34 413.31 124.68 415.62 124 418 C50.41 418 -23.18 418 -99 418 C-99.99 414.7 -100.98 411.4 -102 408 C-102.33 407.34 -102.33 407.34 -104 404 C-111 404 -111 404 -121 409 C-124 413 -124 413 -126 418 C-126.66 417.67 -127.32 417.34 -128 417 C-128.66 414.69 -129.32 412.38 -130 410 C-135 406 -135 406 -141 403 C-141 402.67 -141 402.34 -141 402 C-75.99 402 -10.98 402 56 402 C56 296.73 56 191.46 56 83 C49.07 83 42.14 83 35 83 C28.832 76.147 22.838 69.136 17 62 C15.185 60.02 15.185 60.02 6 50 C5.34 49.175 5.34 49.175 2 45 C1.34 44.67 0.68 44.34 0 44 C0 29.48 0 14.96 0 0 Z " fill="#FDFEFE" transform="translate(541,367)"/>
<path d="M0 0 C15.51 0 31.02 0 47 0 C47 21.12 47 42.24 47 64 C70.1 64 93.2 64 117 64 C117 96.34 117 128.68 117 162 C140.76 162 164.52 162 189 162 C189 137.25 189 112.5 189 87 C213.42 87 237.84 87 263 87 C263 105.15 263 123.3 263 142 C280.16 142.33 297.32 142.66 315 143 C315 123.2 315 103.4 315 83 C332.16 83 349.32 83 367 83 C367 115.01 367 147.02 367 180 C305.29 180.33 243.58 180.66 180 181 C182.64 182.65 185.28 184.3 188 186 C199.212 200.949 187.09 253.904 185 274 C184.34 277.63 183.68 281.26 183 285 C184.535 311.091 188.02 337.034 191 363 C190.67 364.32 190.34 365.64 190 367 C189.01 367 188.02 367 187 367 C184.745 357.981 183.491 348.926 182.119 339.743 C181.794 337.566 181.468 335.389 181.142 333.212 C176 298.901 176 298.901 176 289 C172.04 289 168.08 289 164 289 C164.727 301.352 165.769 313.688 167 326 C167.33 331.61 167.66 337.22 168 343 C166.68 342.67 165.36 342.34 164 342 C163.889 341.084 163.779 340.168 163.665 339.225 C163.244 335.743 162.822 332.261 162.401 328.78 C162.22 327.289 162.04 325.797 161.86 324.306 C160.598 313.868 159.312 303.432 158 293 C158 291.68 158 290.36 158 289 C146.45 289 134.9 289 123 289 C122.67 297.91 122.34 306.82 122 316 C118 363 118 363 116 368 C115.01 368 114.02 368 113 368 C113 343.979 114.589 319.979 116 296 C116 288 116 288 108 279 C108 278.34 108 277.68 108 277 C107.34 277 106.68 277 106 277 C105.67 284.59 105.34 292.18 105 300 C104.01 309.24 103.02 318.48 102 328 C101.67 332.29 101.34 336.58 101 341 C100.01 341 99.02 341 98 341 C98 262 98 262 103 257 C121.48 256.67 139.96 256.34 159 256 C159.33 252.37 159.66 248.74 160 245 C168 189 168 189 172 181 C138.67 180.67 105.34 180.34 71 180 C71 171.42 71 162.84 71 154 C69.68 154.33 69.68 154.33 63 156 C42 156 42 156 39 154 C38.01 154 37.02 154 36 154 C35.67 162.25 35.34 170.5 35 179 C23.45 179 11.9 179 0 179 C0 119.93 0 60.86 0 0 Z " fill="#C6D0DA" transform="translate(222,589)"/>
<path d="M0 0 C10.23 0 20.46 0 31 0 C31 22.11 31 44.22 31 67 C37.6 67 44.2 67 51 67 C51 91.75 51 116.5 51 142 C58.26 142 65.52 142 73 142 C73 112.63 73 83.26 73 53 C83.23 53 93.46 53 104 53 C104 64.22 104 75.44 104 87 C113.24 87 122.48 87 132 87 C132 99.21 132 111.42 132 124 C138.27 124 144.54 124 151 124 C151 89.35 151 54.7 151 19 C167.5 19 184 19 201 19 C201 39.79 201 60.58 201 82 C217.5 82 234 82 251 82 C251 94.54 251 107.08 251 120 C238.46 120 225.92 120 213 120 C213 139.8 213 159.6 213 180 C195.51 180 178.02 180 160 180 C160.33 161.52 160.66 143.04 161 124 C160.175 124.165 160.175 124.165 156 125 C132.998 125 109.996 124.523 87 124 C87 148.75 87 173.5 87 199 C63.24 199 39.48 199 15 199 C15 166.66 15 134.32 15 101 C-8.1 101 -31.2 101 -55 101 C-55 100.67 -55 100.34 -55 100 C-43.78 100 -32.56 100 -21 100 C-21 88.12 -21 76.24 -21 64 C-14.07 64 -7.14 64 0 64 C0 42.88 0 21.76 0 0 Z " fill="#D8E3E9" transform="translate(324,552)"/>
<path d="M0 0 C20.79 0.165 20.79 0.165 126 1 C126 23.77 126 46.54 126 70 C124.35 71.65 122.7 73.3 121 75 C119.68 76.485 119.68 76.485 113 84 C84.95 84 56.9 84 28 84 C28 189.27 28 294.54 28 403 C42.19 403 56.38 403 71 403 C71 394.09 71 385.18 71 376 C75 375 75 375 84 375 C84 375.33 84 375.66 84 376 C81.69 376.33 79.38 376.66 77 377 C77 377.33 77 377.66 77 378 C98 378 98 378 106 377 C106 385.58 106 394.16 106 403 C139.99 403 173.98 403 209 403 C208.34 403.33 207.68 403.66 207 404 C204 415 204 415 203 419 C136.67 419 70.34 419 2 419 C-34.749 284.253 -0.342 139.668 0 0 Z " fill="#FDFDFD" transform="translate(187,366)"/>
<path d="M0 0 C21.611 3.087 42.995 10.138 64 16 C72.25 17.98 80.5 19.96 89 22 C89.66 22.33 90.32 22.66 91 23 C91 75.47 91 127.94 91 182 C83.08 182.99 83.08 182.99 43 188 C30.996 189.642 18.994 191.285 7 193 C4.69 193.33 2.38 193.66 0 194 C0 129.98 0 65.96 0 0 Z " fill="#484747" transform="translate(51,493)"/>
<path d="M0 0 C15.51 0 31.02 0 47 0 C47 21.12 47 42.24 47 64 C70.1 64 93.2 64 117 64 C117 101.95 117 139.9 117 179 C102.15 179 87.3 179 72 179 C72 170.42 72 161.84 72 153 C68.7 153 65.4 153 62 153 C63.98 153.33 65.96 153.66 68 154 C68 154.33 68 154.66 68 155 C46.846 159.231 46.846 159.231 39 154 C38.01 154 37.02 154 36 154 C35.67 162.25 35.34 170.5 35 179 C23.45 179 11.9 179 0 179 C0 119.93 0 60.86 0 0 Z " fill="#ACB8C5" transform="translate(222,589)"/>
<path d="M0 0 C73.59 0 147.18 0 223 0 C220.275 17.711 217.089 35.349 214 53 C213.67 55.31 213.34 57.62 213 60 C197.898 75.102 170.351 62.526 149 63 C148 64 148 64 147.832 66.959 C147.622 70.664 147.411 74.369 147.2 78.075 C147.11 79.663 147.02 81.251 146.93 82.839 C146.322 93.562 145.679 104.282 145 115 C134.44 115 123.88 115 113 115 C113 90.25 113 65.5 113 40 C116.795 39.835 116.795 39.835 136 39 C164.875 34.875 164.875 34.875 173 30 C173.33 28.35 173.66 26.7 174 25 C172.35 25.99 170.7 26.98 169 28 C143.848 33.918 92.409 43.704 69 32 C65.7 31.67 62.4 31.34 59 31 C50 29 50 29 42 25 C42.66 26.98 43.32 28.96 44 31 C63.484 38.085 81.078 38.605 102 40 C102 64.75 102 89.5 102 115 C93.09 115 84.18 115 75 115 C74.67 106.585 74.67 106.585 73 64 C58.134 49.134 31.013 61.678 10 61 C7.724 49.049 5.608 37.059 4 25 C2.68 17.41 1.36 9.82 0 2 C0 1.34 0 0.68 0 0 Z " fill="#EDF0F2" transform="translate(442,785)"/>
<path d="M0 0 C0.33 0 0.66 0 1 0 C1 199.98 1 399.96 1 606 C-3 604 -3 604 -12 593 C-17.758 551.545 -17.758 551.545 -13 523 C-7 472.786 -7 472.786 -7 453 C-13.023 445.471 -20.695 442.551 -30 441 C-30 36 -30 36 0 0 Z " fill="#FDFEFD" transform="translate(701,328)"/>
<path d="M0 0 C66.33 0 132.66 0 201 0 C199.841 8.114 198.681 16.227 197.492 24.336 C197.362 25.226 197.231 26.116 197.097 27.034 C196.69 29.814 196.283 32.595 195.875 35.375 C195.595 37.286 195.315 39.198 195.035 41.109 C193.003 54.985 193.003 54.985 192 60 C173.684 63.663 154.675 61.634 136 62 C123.488 74.512 133.68 97.318 133 115 C127.39 115 121.78 115 116 115 C116 90.25 116 65.5 116 40 C122.27 39.67 128.54 39.34 135 39 C149.542 37.384 160.762 35.884 174 30 C174.33 28.35 174.66 26.7 175 25 C171.37 26.32 167.74 27.64 164 29 C128.185 39.233 78.164 39.642 44 25 C44.66 26.98 45.32 28.96 46 31 C66.352 38.401 80.428 38.089 104 40 C104 64.75 104 89.5 104 115 C95.09 115 86.18 115 77 115 C72.028 110.028 75.351 101.023 75 94 C74.67 92.02 74.34 90.04 74 88 C73.835 83.71 73.835 83.71 73 62 C52.21 61.34 31.42 60.68 10 60 C7.087 45.437 5.161 30.693 3 16 C2.01 10.72 1.02 5.44 0 0 Z " fill="#EDF0F2" transform="translate(189,785)"/>
<path d="M0 0 C35.97 0 71.94 0 109 0 C109 10.23 109 20.46 109 31 C107.68 31.66 106.36 32.32 105 33 C102.03 36.63 99.06 40.26 96 44 C92.04 48.29 88.08 52.58 84 57 C75 68 75 68 74 73 C74.99 74.65 75.98 76.3 77 78 C77 79.65 77 81.3 77 83 C56.87 83.33 36.74 83.66 16 84 C8 76 8 76 3 70 C2.01 69.67 1.02 69.34 0 69 C0 46.23 0 23.46 0 0 Z " fill="#FDFDFD" transform="translate(316,367)"/>
<path d="M0 0 C0.33 0 0.66 0 1 0 C1 6.93 1 13.86 1 21 C36.97 21 72.94 21 110 21 C110 35.85 110 50.7 110 66 C109.505 66.165 109.505 66.165 107 67 C105.68 68.65 105.68 68.65 99 77 C95.7 80.63 92.4 84.26 89 88 C87.597 89.712 86.195 91.424 84.75 93.188 C83.961 94.15 83.172 95.113 82.359 96.105 C80.224 98.725 78.111 101.361 76 104 C61.15 104 46.3 104 31 104 C32 99 32 99 35 93 C34 89 34 89 25 79 C22.03 75.37 19.06 71.74 16 68 C3 54 3 54 0 51 C0 34.17 0 17.34 0 0 Z " fill="#FDFDFD" transform="translate(428,346)"/>
<path d="M0 0 C10.669 0 15.84 2.2 24 9 C35.444 31.888 21.229 80.082 15 105 C15 120.424 17.878 135.723 20 151 C20.33 153.97 20.33 153.97 22 169 C22.33 170.815 22.33 170.815 24 180 C24 182.97 24 185.94 24 189 C22.68 189 21.36 189 20 189 C6 133 6 133 6 109 C0.72 109 -4.56 109 -10 109 C-6 148 -6 148 -5 152 C-5 156.29 -5 160.58 -5 165 C-5.99 165 -6.98 165 -8 165 C-12.08 150.72 -13.011 135.717 -15 121 C-15.33 119.185 -15.33 119.185 -17 110 C-23.105 109.835 -23.105 109.835 -54 109 C-54 112.63 -54 116.26 -54 120 C-55.32 132.21 -56.64 144.42 -58 157 C-58.66 164.59 -59.32 172.18 -60 180 C-60.66 183.3 -61.32 186.6 -62 190 C-63.32 190 -64.64 190 -66 190 C-66 169.908 -65.498 149.981 -63 130 C-63 122.74 -63 115.48 -63 108 C-73 98 -73 98 -75 97 C-75.33 101.62 -75.66 106.24 -76 111 C-79 141 -79 141 -80 145 C-80.33 149.62 -80.66 154.24 -81 159 C-81.33 159.99 -81.66 160.98 -82 162 C-82.99 162 -83.98 162 -85 162 C-85 141.642 -83.486 121.304 -82 101 C-81.67 93.74 -81.34 86.48 -81 79 C-69.899 67.899 -49.695 76.349 -34 76 C-28.06 75.67 -22.12 75.34 -16 75 C-13.69 61.14 -11.38 47.28 -9 33 C-3.6 6 -3.6 6 0 0 Z " fill="#CFD2D6" transform="translate(670,770)"/>
<path d="M0 0 C14.393 14.393 13.384 55.208 16 73 C16 73.99 16 74.98 16 76 C26.56 76 37.12 76 48 76 C79 77 79 77 80 78 C80.33 86.58 80.66 95.16 81 104 C81.33 105.98 81.66 107.96 82 110 C83.049 127.314 84 144.654 84 162 C82.68 161.67 81.36 161.34 80 161 C79.505 155.39 79.505 155.39 77 127 C76.67 125.35 76.34 123.7 76 122 C75.67 117.38 75.34 112.76 75 108 C74.67 106.68 74.34 105.36 74 104 C74 101.69 74 99.38 74 97 C69.916 100.573 65.837 104.163 62 108 C62 121.35 63.014 134.686 64 148 C64.165 154.765 64.165 154.765 65 189 C63.35 188.67 61.7 188.34 60 188 C53 121.871 53 121.871 53 109 C41.12 109 29.24 109 17 109 C15.02 121.87 13.04 134.74 11 148 C10.01 153.28 9.02 158.56 8 164 C7.01 164 6.02 164 5 164 C5 145.591 8.011 127.301 10 109 C4.72 109 -0.56 109 -6 109 C-6.17 110.203 -6.34 111.405 -6.516 112.645 C-16.305 181.61 -16.305 181.61 -19 187 C-20.32 187 -21.64 187 -23 187 C-22.17 175.377 -21.282 164.409 -19 153 C-18.34 146.07 -17.68 139.14 -17 132 C-16.01 125.07 -15.02 118.14 -14 111 C-14.836 104.311 -15.892 97.65 -17 91 C-26.04 15.061 -26.04 15.061 -20 6 C-8 0 -8 0 0 0 Z " fill="#CFD2D7" transform="translate(183,769)"/>
<path d="M0 0 C16.83 0 33.66 0 51 0 C51 31.68 51 63.36 51 96 C15.36 96 -20.28 96 -57 96 C-57 84.45 -57 72.9 -57 61 C-38.19 61 -19.38 61 0 61 C0 40.87 0 20.74 0 0 Z " fill="#ACB7C4" transform="translate(538,672)"/>
<path d="M0 0 C11.948 20.908 12.343 52.085 15 76 C23.25 76 31.5 76 40 76 C77 77 77 77 79 79 C79.011 79.299 79.011 79.299 79.069 80.815 C79.311 87.144 79.555 93.472 79.8 99.801 C79.89 102.151 79.98 104.502 80.07 106.853 C80.594 120.576 81.171 134.291 82 148 C82 152.62 82 157.24 82 162 C81.01 162 80.02 162 79 162 C72.102 141.305 73 118.703 73 97 C72.34 97 71.68 97 71 97 C70.67 97.66 70.67 97.66 69 101 C66.69 103.31 64.38 105.62 62 108 C62 131 62 131 63 136 C65 176 65 176 65 189 C63.68 189.33 62.36 189.66 61 190 C50.355 168.711 54.618 134.896 53 109 C40.79 109 28.58 109 16 109 C15.34 114.28 14.68 119.56 14 125 C13.376 129.083 12.751 133.167 12.125 137.25 C11.951 138.39 11.777 139.529 11.598 140.703 C10.456 148.146 9.258 155.576 8 163 C6.68 163.33 5.36 163.66 4 164 C5.415 145.609 6.965 127.208 10 109 C5.05 109 0.1 109 -5 109 C-5.33 113.62 -5.66 118.24 -6 123 C-7.32 130.26 -8.64 137.52 -10 145 C-10.99 151.93 -11.98 158.86 -13 166 C-13.165 166.33 -13.165 166.33 -14 168 C-14.66 173.28 -15.32 178.56 -16 184 C-16.33 184.99 -16.66 185.98 -17 187 C-18.32 187 -19.64 187 -21 187 C-21 163.101 -16.718 139.547 -13 116 C-13 104 -13 104 -17 75 C-23.222 12.778 -23.222 12.778 -17 5 C-7 0 -7 0 0 0 Z " fill="#D1D4D7" transform="translate(437,770)"/>
<path d="M0 0 C8 0 8 0 16 5 C27.212 19.949 15.09 72.904 13 93 C12.34 96.63 11.68 100.26 11 104 C12.535 130.091 16.02 156.034 19 182 C18.67 183.32 18.34 184.64 18 186 C17.01 186 16.02 186 15 186 C12.745 176.981 11.491 167.926 10.119 158.743 C9.794 156.566 9.468 154.389 9.142 152.212 C4 117.901 4 117.901 4 108 C0.04 108 -3.92 108 -8 108 C-7.273 120.352 -6.231 132.688 -5 145 C-4.67 150.61 -4.34 156.22 -4 162 C-5.32 161.67 -6.64 161.34 -8 161 C-8.111 160.084 -8.221 159.168 -8.335 158.225 C-8.756 154.743 -9.178 151.261 -9.599 147.78 C-9.78 146.289 -9.96 144.797 -10.14 143.306 C-11.402 132.868 -12.688 122.432 -14 112 C-14 110.68 -14 109.36 -14 108 C-25.55 108 -37.1 108 -49 108 C-49.33 116.91 -49.66 125.82 -50 135 C-54 182 -54 182 -56 187 C-56.99 187 -57.98 187 -59 187 C-59 162.979 -57.411 138.979 -56 115 C-56 107 -56 107 -64 98 C-64 97.34 -64 96.68 -64 96 C-64.66 96 -65.32 96 -66 96 C-66.33 103.59 -66.66 111.18 -67 119 C-67.99 128.24 -68.98 137.48 -70 147 C-70.165 149.145 -70.165 149.145 -71 160 C-71.99 160 -72.98 160 -74 160 C-74 81 -74 81 -69 76 C-50.52 75.67 -32.04 75.34 -13 75 C-12.67 71.37 -12.34 67.74 -12 64 C-4 8 -4 8 0 0 Z " fill="#CBCED1" transform="translate(394,770)"/>
<path d="M0 0 C0.825 0.495 0.825 0.495 5 3 C4.67 4.65 4.34 6.3 4 8 C1 10 1 10 -3 10 C-3 36.07 -3 62.14 -3 89 C-2.01 89.33 -1.02 89.66 0 90 C0.401 90.461 0.802 90.923 1.215 91.398 C6.085 96.986 11.033 102.498 16 108 C18.97 111.63 21.94 115.26 25 119 C27.64 121.97 30.28 124.94 33 128 C32 133 32 133 23 150 C12.657 156.206 2.061 160.723 -10 159 C-32.042 151.285 -31.82 150.663 -42 132 C-39.519 119.596 -25.387 109.15 -17 100 C-15.68 98.35 -15.68 98.35 -9 90 C-8.01 90 -7.02 90 -6 90 C-6 63.6 -6 37.2 -6 10 C-7.65 10 -9.3 10 -11 10 C-11.99 9.34 -12.98 8.68 -14 8 C-14 6.35 -14 4.7 -14 3 C-10 0 -10 0 0 0 Z " fill="#636362" transform="translate(431,308)"/>
<path d="M0 0 C21.611 3.087 42.995 10.138 64 16 C72.25 17.98 80.5 19.96 89 22 C89.66 22.33 90.32 22.66 91 23 C91 75.47 91 127.94 91 182 C83.08 182.99 83.08 182.99 43 188 C30.996 189.642 18.994 191.285 7 193 C4.69 193.33 2.38 193.66 0 194 C0 129.98 0 65.96 0 0 Z M8 10 C8 67.42 8 124.84 8 184 C26 183 26 183 38 181 C43.94 180.34 43.94 180.34 74 177 C75.815 176.67 75.815 176.67 85 175 C85 126.49 85 77.98 85 28 C75.1 25.69 65.2 23.38 55 21 C47.036 19.04 39.077 17.069 31.125 15.062 C29.142 14.564 27.159 14.066 25.176 13.568 C20.45 12.382 15.725 11.192 11 10 C10.01 10 9.02 10 8 10 Z " fill="#4E4E4D" transform="translate(51,493)"/>
<path d="M0 0 C1.98 0.99 3.96 1.98 6 3 C5.67 4.65 5.34 6.3 5 8 C1 10 1 10 -3 10 C-3 40.69 -3 71.38 -3 103 C-1.68 103.66 -0.36 104.32 1 105 C7.518 112.17 13.864 119.501 20 127 C22.97 130.3 25.94 133.6 29 137 C30.32 138.65 31.64 140.3 33 142 C32 147 32 147 23 164 C12.9 170.06 2.804 174.686 -9 173 C-30 166 -30 166 -41 146 C-40 140 -40 140 -29 128 C-26.03 124.37 -23.06 120.74 -20 117 C-17.03 113.7 -14.06 110.4 -11 107 C-10.34 106.01 -9.68 105.02 -9 104 C-8.01 103.67 -7.02 103.34 -6 103 C-5.67 72.31 -5.34 41.62 -5 10 C-7.31 9.67 -9.62 9.34 -12 9 C-12.66 8.34 -13.32 7.68 -14 7 C-13.67 5.35 -13.34 3.7 -13 2 C-10 0 -10 0 0 0 Z " fill="#5B5C5B" transform="translate(544,308)"/>
<path d="M0 0 C5 3 5 3 6 7 C2 10 2 10 -3 10 C-3 48.94 -3 87.88 -3 128 C-1.68 128.33 -0.36 128.66 1 129 C14 143 14 143 17.875 147.75 C22.878 153.866 27.932 159.938 33 166 C32 171 32 171 23 188 C13.34 193.796 3.375 198.896 -8 197 C-29 190 -29 190 -38 174 C-40 170 -40 170 -40 165 C-37.03 161.7 -34.06 158.4 -31 155 C-29.515 153.185 -29.515 153.185 -22 144 C-20.35 142.185 -20.35 142.185 -12 133 C-10.68 131.35 -9.36 129.7 -8 128 C-7.34 127.67 -6.68 127.34 -6 127 C-5.67 88.39 -5.34 49.78 -5 10 C-6.98 10 -8.96 10 -11 10 C-11.99 9.01 -12.98 8.02 -14 7 C-13.67 5.35 -13.34 3.7 -13 2 C-9 0 -9 0 0 0 Z " fill="#5A5A59" transform="translate(319,308)"/>
<path d="M0 0 C6 2 6 2 11 8 C11 39.013 8.554 71.783 1 102 C1 117.424 3.878 132.723 6 148 C6.33 150.97 6.33 150.97 8 166 C8.33 167.815 8.33 167.815 10 177 C10 179.97 10 182.94 10 186 C8.68 186 7.36 186 6 186 C-8 130 -8 130 -8 106 C-13.28 106 -18.56 106 -24 106 C-20 145 -20 145 -19 149 C-19 153.29 -19 157.58 -19 162 C-19.99 162 -20.98 162 -22 162 C-26.08 147.72 -27.011 132.717 -29 118 C-29.33 116.185 -29.33 116.185 -31 107 C-37.105 106.835 -37.105 106.835 -68 106 C-68 109.63 -68 113.26 -68 117 C-69.32 129.21 -70.64 141.42 -72 154 C-72.66 161.59 -73.32 169.18 -74 177 C-74.66 180.3 -75.32 183.6 -76 187 C-77.32 187 -78.64 187 -80 187 C-80 166.908 -79.498 146.981 -77 127 C-77 119.74 -77 112.48 -77 105 C-87 95 -87 95 -89 94 C-89.33 98.62 -89.66 103.24 -90 108 C-93 138 -93 138 -94 142 C-94.33 146.62 -94.66 151.24 -95 156 C-95.33 156.99 -95.66 157.98 -96 159 C-96.99 159 -97.98 159 -99 159 C-99 138.642 -97.486 118.304 -96 98 C-95.67 90.74 -95.34 83.48 -95 76 C-91 78 -91 78 -80 89 C-61.518 104.401 -32.058 94 -8 94 C-7.34 89.71 -6.68 85.42 -6 81 C-5.01 75.885 -5.01 75.885 0 50 C5.364 12.455 5.364 12.455 3 3 C2.01 2.67 1.02 2.34 0 2 C0 1.34 0 0.68 0 0 Z " fill="#C1C4C7" transform="translate(684,773)"/>
<path d="M0 0 C-2 5 -2 5 -3 7 C-3 34.995 2.673 61.602 8 89 C8 89.99 8 90.98 8 92 C13.61 92 19.22 92 25 92 C29.29 92.165 29.29 92.165 51 93 C74 93 74 93 86 82 C87.98 80.02 89.96 78.04 92 76 C92.66 76 93.32 76 94 76 C94.165 79.96 94.165 79.96 95 100 C95.33 101.98 95.66 103.96 96 106 C97.049 123.314 98 140.654 98 158 C96.68 157.67 95.36 157.34 94 157 C93.505 151.39 93.505 151.39 91 123 C90.67 121.35 90.34 119.7 90 118 C89.67 113.38 89.34 108.76 89 104 C88.67 102.68 88.34 101.36 88 100 C88 97.69 88 95.38 88 93 C83.916 96.573 79.837 100.163 76 104 C76 117.35 77.014 130.686 78 144 C78.165 150.765 78.165 150.765 79 185 C77.35 184.67 75.7 184.34 74 184 C67 117.871 67 117.871 67 105 C55.12 105 43.24 105 31 105 C29.02 117.87 27.04 130.74 25 144 C24.01 149.28 23.02 154.56 22 160 C21.01 160 20.02 160 19 160 C19 141.591 22.011 123.301 24 105 C18.72 105 13.44 105 8 105 C7.83 106.203 7.66 107.405 7.484 108.645 C-2.305 177.61 -2.305 177.61 -5 183 C-6.32 183 -7.64 183 -9 183 C-8.17 171.377 -7.282 160.409 -5 149 C-4.34 142.07 -3.68 135.14 -3 128 C-2.01 121.07 -1.02 114.14 0 107 C-0.836 100.311 -1.892 93.65 -3 87 C-12.04 11.061 -12.04 11.061 -6 2 C-3 0 -3 0 0 0 Z " fill="#C1C4C8" transform="translate(169,773)"/>
<path d="M0 0 C-0.33 0.99 -0.66 1.98 -1 3 C-1.66 3 -2.32 3 -3 3 C-3 32.884 0.734 62.936 8 92 C52 93 52 93 72 93 C77.61 87.39 83.22 81.78 89 76 C89.33 76 89.66 76 90 76 C94 144 94 144 94 158 C93.01 158 92.02 158 91 158 C84.102 137.305 85 114.703 85 93 C84.34 93 83.68 93 83 93 C82.67 93.66 82.67 93.66 81 97 C78.69 99.31 76.38 101.62 74 104 C74 127 74 127 75 132 C77 172 77 172 77 185 C75.68 185.33 74.36 185.66 73 186 C62.355 164.711 66.618 130.896 65 105 C52.79 105 40.58 105 28 105 C27.34 110.28 26.68 115.56 26 121 C25.376 125.083 24.751 129.167 24.125 133.25 C23.951 134.39 23.777 135.529 23.598 136.703 C22.456 144.146 21.258 151.576 20 159 C18.68 159.33 17.36 159.66 16 160 C17.415 141.609 18.965 123.208 22 105 C17.05 105 12.1 105 7 105 C6.67 109.62 6.34 114.24 6 119 C4.68 126.26 3.36 133.52 2 141 C1.01 147.93 0.02 154.86 -1 162 C-1.165 162.33 -1.165 162.33 -2 164 C-2.66 169.28 -3.32 174.56 -4 180 C-4.33 180.99 -4.66 181.98 -5 183 C-6.32 183 -7.64 183 -9 183 C-9 159.101 -4.718 135.547 -1 112 C-1 100 -1 100 -5 71 C-11.222 8.778 -11.222 8.778 -5 1 C-3 0 -3 0 0 0 Z " fill="#C2C5C9" transform="translate(425,774)"/>
<path d="M0 0 C27.72 0 55.44 0 84 0 C82.02 2.64 80.04 5.28 78 8 C54.331 8 30.666 7.348 7 7 C7 109.63 7 212.26 7 318 C18.55 318 30.1 318 42 318 C42 309.75 42 301.5 42 293 C42.33 293 42.66 293 43 293 C43 301.58 43 310.16 43 319 C28.81 319 14.62 319 0 319 C0 213.73 0 108.46 0 0 Z " fill="#DEE2E6" transform="translate(215,450)"/>
<path d="M0 0 C6.6 0 13.2 0 20 0 C20 105.27 20 210.54 20 319 C17.36 319 14.72 319 12 319 C12 216.04 12 113.08 12 7 C7.38 7 2.76 7 -2 7 C-1.34 4.69 -0.68 2.38 0 0 Z " fill="#DFE3E8" transform="translate(577,450)"/>
<path d="M0 0 C73.59 0 147.18 0 223 0 C222.34 4.29 221.68 8.58 221 13 C220.67 12.01 220.34 11.02 220 10 C148.06 10 76.12 10 2 10 C-0.404 7.596 0.375 3.379 0 0 Z " fill="#DFE4E7" transform="translate(442,785)"/>
<path d="M0 0 C66.33 0 132.66 0 201 0 C200.67 3.3 200.34 6.6 200 10 C134.99 10 69.98 10 3 10 C2.67 10.99 2.34 11.98 2 13 C1.34 8.71 0.68 4.42 0 0 Z " fill="#DFE4E7" transform="translate(189,785)"/>
<path d="M0 0 C3.3 0 6.6 0 10 0 C10 34.65 10 69.3 10 105 C13.63 105.33 17.26 105.66 21 106 C31 110 31 110 33 112 C32.67 113.65 32.34 115.3 32 117 C17.231 125.861 0.44 124.653 -16 121 C-17.98 119.68 -19.96 118.36 -22 117 C-22.165 116.175 -22.165 116.175 -23 112 C-15.85 106.28 -9.032 105 0 105 C0 70.35 0 35.7 0 0 Z " fill="#404141" transform="translate(294,825)"/>
<path d="M0 0 C2.97 0 5.94 0 9 0 C9 34.32 9 68.64 9 104 C12.63 104.33 16.26 104.66 20 105 C30 109 30 109 32 111 C32 112.65 32 114.3 32 116 C18.992 124.672 8.437 122 -8 122 C-17 120 -17 120 -23 116 C-23 114.35 -23 112.7 -23 111 C-15.85 105.28 -9.032 104 0 104 C0 69.68 0 35.36 0 0 Z " fill="#3D3E3E" transform="translate(545,826)"/>
<path d="M0 0 C5 3 5 3 6 7 C2 10 2 10 -3 10 C-3 48.94 -3 87.88 -3 128 C-1.68 128.33 -0.36 128.66 1 129 C2.65 130.98 4.3 132.96 6 135 C5.67 135.66 5.34 136.32 5 137 C4.01 136.01 3.02 135.02 2 134 C1.34 134.33 0.68 134.66 0 135 C-0.33 133.68 -0.66 132.36 -1 131 C-1.66 131 -2.32 131 -3 131 C-3 134.3 -3 137.6 -3 141 C-3.66 141 -4.32 141 -5 141 C-5 137.7 -5 134.4 -5 131 C-5.66 131 -6.32 131 -7 131 C-7.66 132.32 -8.32 133.64 -9 135 C-9.66 135 -10.32 135 -11 135 C-12.485 136.815 -12.485 136.815 -20 146 C-22.97 149.3 -25.94 152.6 -29 156 C-31.64 159.3 -34.28 162.6 -37 166 C-31.72 164.02 -26.44 162.04 -21 160 C-21 160.66 -21 161.32 -21 162 C-10.77 162 -0.54 162 10 162 C10 162.33 10 162.66 10 163 C0.43 163 -9.14 163 -19 163 C-15.04 168.94 -11.08 174.88 -7 181 C-6.34 182.65 -5.68 184.3 -5 186 C-4.01 185.67 -3.02 185.34 -2 185 C-2 185.66 -2 186.32 -2 187 C5.26 187 12.52 187 20 187 C15 192 15 192 -2 198 C-11.259 196.457 -20.095 192.968 -29 190 C-40 170.444 -40 170.444 -40 165 C-37.03 161.7 -34.06 158.4 -31 155 C-29.515 153.185 -29.515 153.185 -22 144 C-20.35 142.185 -20.35 142.185 -12 133 C-10.68 131.35 -9.36 129.7 -8 128 C-7.34 127.67 -6.68 127.34 -6 127 C-5.67 88.39 -5.34 49.78 -5 10 C-6.98 10 -8.96 10 -11 10 C-11.99 9.01 -12.98 8.02 -14 7 C-13.67 5.35 -13.34 3.7 -13 2 C-9 0 -9 0 0 0 Z " fill="#595958" transform="translate(319,308)"/>
<path d="M0 0 C1.98 0.99 3.96 1.98 6 3 C5.67 4.65 5.34 6.3 5 8 C1 10 1 10 -3 10 C-3 40.69 -3 71.38 -3 103 C-1.68 103.66 -0.36 104.32 1 105 C1.99 106.32 2.98 107.64 4 109 C3.67 109.66 3.34 110.32 3 111 C5.389 120.555 10.751 129.115 15 138 C14.67 138.66 14.34 139.32 14 140 C13.34 140 12.68 140 12 140 C11.34 141.65 10.68 143.3 10 145 C9.01 145.99 8.02 146.98 7 148 C8 144 8 144 10 140 C0.76 140.33 -8.48 140.66 -18 141 C-8 157 -8 157 -6 160 C-6.99 160 -7.98 160 -9 160 C-12.96 154.06 -16.92 148.12 -21 142 C-22.32 145.3 -23.64 148.6 -25 152 C-25.33 152.66 -25.33 152.66 -27 156 C-28 152 -28 152 -24 140 C-27.3 140.99 -30.6 141.98 -34 143 C-34.33 142.34 -34.66 141.68 -35 141 C-26 138 -26 138 -23 138 C-22.34 136.02 -21.68 134.04 -21 132 C-18.03 125.4 -15.06 118.8 -12 112 C-20.823 121.706 -29.132 131.509 -37 142 C-37.66 142.33 -38.32 142.66 -39 143 C-39.33 142.01 -39.66 141.02 -40 140 C-36.37 136.04 -32.74 132.08 -29 128 C-26.03 124.37 -23.06 120.74 -20 117 C-17.03 113.7 -14.06 110.4 -11 107 C-10.34 106.01 -9.68 105.02 -9 104 C-8.505 103.835 -8.505 103.835 -6 103 C-5.67 72.31 -5.34 41.62 -5 10 C-7.31 9.67 -9.62 9.34 -12 9 C-12.66 8.34 -13.32 7.68 -14 7 C-13.67 5.35 -13.34 3.7 -13 2 C-10 0 -10 0 0 0 Z " fill="#545353" transform="translate(544,308)"/>
<path d="M0 0 C0.99 0 1.98 0 3 0 C3.33 6.93 3.66 13.86 4 21 C10 78 10 78 12 90 C12 102 12 102 10 116 C4.72 116 -0.56 116 -6 116 C-10.301 111.699 -8.289 104.041 -9 98 C-9 90 -9 90 -6 71 C-1.562 23.154 -1.562 23.154 0 0 Z " fill="#EEF1F1" transform="translate(413,784)"/>
<path d="M0 0 C0.99 0.99 1.98 1.98 3 3 C3 9 3 9 -1 17 C0.65 17.33 2.3 17.66 4 18 C5 19 5 19 5 27 C-4.129 34.608 -3.956 34 -17 34 C-23 31 -23 31 -24 28 C-30 37 -30 37 -31 42 C-28.69 40.68 -26.38 39.36 -24 38 C-11.778 39.222 -11.778 39.222 -7 44 C-7 45.98 -7 47.96 -7 50 C-13 55 -13 55 -24 55 C-25.98 54.01 -27.96 53.02 -30 52 C-30.99 54.64 -31.98 57.28 -33 60 C-29.37 60.33 -25.74 60.66 -22 61 C-22 61.33 -22 61.66 -22 62 C-43.154 66.231 -43.154 66.231 -51 61 C-48 60 -48 60 -38 60 C-38 46.8 -38 33.6 -38 20 C-37.67 20 -37.34 20 -37 20 C-36.34 30.56 -35.68 41.12 -35 52 C-34.67 48.37 -34.34 44.74 -34 41 C-30 32 -30 32 -25 25 C-24.67 21.7 -24.34 18.4 -24 15 C-16.513 3.769 -13.732 0 0 0 Z " fill="#87A67E" transform="translate(312,682)"/>
<path d="M0 0 C0.825 0.495 0.825 0.495 5 3 C4.67 4.65 4.34 6.3 4 8 C1 10 1 10 -3 10 C-3 36.07 -3 62.14 -3 89 C-2.01 89.33 -1.02 89.66 0 90 C0.401 90.461 0.802 90.923 1.215 91.398 C6.085 96.986 11.033 102.498 16 108 C18.97 111.63 21.94 115.26 25 119 C27.64 121.97 30.28 124.94 33 128 C32 133 32 133 23 150 C12.657 156.206 2.061 160.723 -10 159 C-32.042 151.285 -31.82 150.663 -42 132 C-39.519 119.596 -25.387 109.15 -17 100 C-15.68 98.35 -15.68 98.35 -9 90 C-8.01 90 -7.02 90 -6 90 C-6 63.6 -6 37.2 -6 10 C-7.65 10 -9.3 10 -11 10 C-11.99 9.34 -12.98 8.68 -14 8 C-14 6.35 -14 4.7 -14 3 C-10 0 -10 0 0 0 Z M-9 93 C-15.518 100.17 -21.864 107.501 -28 115 C-31.63 118.96 -35.26 122.92 -39 127 C-38.67 127.66 -38.34 128.32 -38 129 C-35.69 128.175 -35.69 128.175 -24 124 C-12 124 0 124 12 124 C11.835 124.165 11.835 124.165 11 125 C0.77 125 -9.46 125 -20 125 C-18 130 -18 130 -10 141 C-8.68 143.31 -7.36 145.62 -6 148 C-5.01 148.33 -4.02 148.66 -3 149 C-4.32 149 -5.64 149 -7 149 C-7.66 147.68 -8.32 146.36 -9 145 C-9.699 143.952 -10.397 142.904 -11.117 141.824 C-12.764 139.354 -12.764 139.354 -21 127 C-21.66 127 -22.32 127 -23 127 C-29 146 -29 146 -29 150 C-28.01 150 -27.02 150 -26 150 C-26 150.66 -26 151.32 -26 152 C-4.473 158.458 -3.732 158.071 16 152 C16 151.34 16 150.68 16 150 C17.32 150 18.64 150 20 150 C20 149.01 20 148.02 20 147 C20.99 146.67 21.98 146.34 23 146 C30 133 30 133 30 127 C26.04 122.71 22.08 118.42 18 114 C15.03 110.37 12.06 106.74 9 103 C6.69 100.36 4.38 97.72 2 95 C1.67 95.99 1.34 96.98 1 98 C0.01 96.35 -0.98 94.7 -2 93 C-2.33 93 -2.66 93 -3 93 C-3 96.3 -3 99.6 -3 103 C-3.99 103 -4.98 103 -6 103 C-6 99.7 -6 96.4 -6 93 C-6.99 93 -7.98 93 -9 93 Z " fill="#858789" transform="translate(431,308)"/>
<path d="M0 0 C7 2 7 2 8 3 C17 5 17 5 27 6 C27.66 6.33 28.32 6.66 29 7 C108.119 9.552 108.119 9.552 132 0 C132 1.65 132 3.3 132 5 C113.707 16.433 91.798 15 71 15 C71 49.65 71 84.3 71 120 C70.67 120 70.34 120 70 120 C70 85.68 70 51.36 70 16 C67.03 16 64.06 16 61 16 C61 50.32 61 84.64 61 120 C60.67 120 60.34 120 60 120 C60 85.35 60 50.7 60 15 C53.4 15 46.8 15 40 15 C7.719 10.789 7.719 10.789 0 5 C0 3.35 0 1.7 0 0 Z " fill="#B2B5B8" transform="translate(484,810)"/>
<path d="M0 0 C9.803 1.4 12.543 4.467 19 12 C22 18 22 18 22 31 C24.31 35.62 26.62 40.24 29 45 C29 46.98 29 48.96 29 51 C28.34 51 27.68 51 27 51 C27 51.99 27 52.98 27 54 C21 57 21 57 13 57 C6.144 53.572 2.223 51.335 -2 45 C-2 39 -2 39 0 37 C21 37 21 37 23 38 C22.505 37.175 22.505 37.175 20 33 C20 32.34 20 31.68 20 31 C18.02 31 16.04 31 14 31 C5.198 24.399 0.9 18.8 -4 9 C-4 4 -4 4 0 0 Z " fill="#86A57C" transform="translate(243,675)"/>
<path d="M0 0 C20.79 0.165 20.79 0.165 126 1 C126 1.33 126 1.66 126 2 C85.08 2 44.16 2 2 2 C2 136.97 2 271.94 2 411 C1.34 411 0.68 411 0 411 C-43.323 281.03 -0.336 137 0 0 Z " fill="#F0F4F5" transform="translate(187,366)"/>
<path d="M0 0 C5.28 1.32 10.56 2.64 16 4 C52.606 11.844 93.126 11.038 129 0 C129.66 0 130.32 0 131 0 C131 1.65 131 3.3 131 5 C115.076 16.943 90.659 15 72 15 C72.33 49.65 72.66 84.3 73 120 C72.34 120 71.68 120 71 120 C71 85.35 71 50.7 71 15 C63.41 15 55.82 15 48 15 C6.696 11.696 6.696 11.696 0 5 C0 3.35 0 1.7 0 0 Z " fill="#CBCED2" transform="translate(233,810)"/>
<path d="M0 0 C11.349 4.539 18.454 16.777 26 26 C27.98 28.31 29.96 30.62 32 33 C31 38 31 38 23 53 C22.01 53 21.02 53 20 53 C19.67 53.66 19.34 54.32 19 55 C11.41 55 3.82 55 -4 55 C-4.66 54.34 -5.32 53.68 -6 53 C2 42 2 42 6 37 C6.33 37.33 6.66 37.66 7 38 C8.32 35.69 9.64 33.38 11 31 C11.66 30.34 12.32 29.68 13 29 C8.71 20.09 4.42 11.18 0 2 C0 1.34 0 0.68 0 0 Z " fill="#5A5B5B" transform="translate(545,417)"/>
<path d="M0 0 C11.88 0 23.76 0 36 0 C38 16 38 16 38 22 C24.47 22 10.94 22 -3 22 C-3 6 -3 6 0 0 Z " fill="#EEF1F3" transform="translate(200,878)"/>
<path d="M0 0 C12.21 0 24.42 0 37 0 C39.516 7.548 40 12.941 40 21 C26.47 21 12.94 21 -1 21 C-1 11 -1 11 0 0 Z " fill="#EEF0F1" transform="translate(616,879)"/>
<path d="M0 0 C12.21 0 24.42 0 37 0 C39 16 39 16 39 21 C25.14 21 11.28 21 -3 21 C-2.219 13.972 -1.162 6.975 0 0 Z " fill="#EEF0F1" transform="translate(453,879)"/>
<path d="M0 0 C11.55 0 23.1 0 35 0 C37 15 37 15 37 22 C24.46 22 11.92 22 -1 22 C-1 7 -1 7 0 0 Z " fill="#EEF1F1" transform="translate(345,878)"/>
<path d="M0 0 C9 1 9 1 27 6 C37.604 8.677 48.226 11.269 58.865 13.805 C59.874 14.046 60.883 14.287 61.922 14.535 C62.805 14.745 63.687 14.956 64.597 15.172 C69.737 16.423 74.867 17.717 80 19 C80 68.17 80 117.34 80 168 C79 169 79 169 76.975 169.252 C69.949 170.128 62.924 171.004 55.898 171.881 C53.285 172.207 50.671 172.533 48.057 172.858 C20.189 176.331 20.189 176.331 8 178 C5.36 178 2.72 178 0 178 C0 119.26 0 60.52 0 0 Z M1 2 C1 59.42 1 116.84 1 176 C19 175 19 175 31 173 C36.94 172.34 36.94 172.34 67 169 C68.815 168.67 68.815 168.67 78 167 C78 118.49 78 69.98 78 20 C68.1 17.69 58.2 15.38 48 13 C40.036 11.04 32.077 9.069 24.125 7.062 C22.142 6.564 20.159 6.066 18.176 5.568 C13.45 4.382 8.725 3.192 4 2 C3.01 2 2.02 2 1 2 Z " fill="#E4E2E1" transform="translate(58,501)"/>
<path d="M0 0 C0.165 0.495 0.165 0.495 1 3 C-1.97 6.3 -4.94 9.6 -8 13 C-10.97 16.63 -13.94 20.26 -17 24 C-20.63 27.96 -24.26 31.92 -28 36 C-25 36 -25 36 -12 31 C-12 31.66 -12 32.32 -12 33 C-0.78 33 10.44 33 22 33 C21.835 33.33 21.835 33.33 21 35 C10.77 34.67 0.54 34.34 -10 34 C-7.69 37.465 -7.69 37.465 4 55 C4 55.66 4 56.32 4 57 C4.66 56.835 4.66 56.835 8 56 C8 56.33 8 56.66 8 57 C13.28 57.33 18.56 57.66 24 58 C24 58.33 24 58.66 24 59 C14.76 59 5.52 59 -4 59 C-4 58.67 -4 58.34 -4 58 C-1.69 58 0.62 58 3 58 C0.855 54.865 0.855 54.865 -10 39 C-10.33 38.01 -10.66 37.02 -11 36 C-11.66 36 -12.32 36 -13 36 C-13.66 38.97 -14.32 41.94 -15 45 C-16.32 49.62 -17.64 54.24 -19 59 C-18.01 59 -17.02 59 -16 59 C-16 59.66 -16 60.32 -16 61 C-14.845 61.165 -14.845 61.165 -9 62 C-4.71 63.32 -0.42 64.64 4 66 C10.708 64.509 17.37 62.808 24 61 C24.33 61.66 24.66 62.32 25 63 C1.462 70.846 4.066 69.423 -20 61 C-32.308 42.538 -32.308 42.538 -31 36 C-23.114 26.9 -15.137 17.877 -7 9 C-4.69 6.03 -2.38 3.06 0 0 Z " fill="#616162" transform="translate(421,399)"/>
<path d="M0 0 C0.33 0 0.66 0 1 0 C1 3.3 1 6.6 1 10 C1.99 10 2.98 10 4 10 C4 6.7 4 3.4 4 0 C4.66 0 5.32 0 6 0 C8.97 6.93 11.94 13.86 15 21 C16.32 23.64 17.64 26.28 19 29 C19 29.66 19 30.32 19 31 C8.11 31 -2.78 31 -14 31 C-5.5 5.5 -5.5 5.5 0 0 Z " fill="#F6F5F4" transform="translate(537,415)"/>
<path d="M0 0 C0.66 0 1.32 0 2 0 C2 3.3 2 6.6 2 10 C2.66 10 3.32 10 4 10 C4 6.7 4 3.4 4 0 C4.66 0 5.32 0 6 0 C19 29 19 29 19 30 C8.44 30 -2.12 30 -13 30 C-9.554 19.661 -4.686 9.84 0 0 Z " fill="#DFE3E2" transform="translate(312,439)"/>
<path d="M0 0 C0.33 0 0.66 0 1 0 C1 3.3 1 6.6 1 10 C1.99 10 2.98 10 4 10 C4 6.7 4 3.4 4 0 C11.169 7.169 13.776 17.784 18 27 C18 27.99 18 28.98 18 30 C7.44 30 -3.12 30 -14 30 C-6 6 -6 6 0 0 Z " fill="#DEE1E0" transform="translate(424,401)"/>
<path d="M0 0 C0.33 0 0.66 0 1 0 C1.66 10.56 2.32 21.12 3 32 C3.33 28.37 3.66 24.74 4 21 C4.66 19.02 5.32 17.04 6 15 C6.66 15.66 7.32 16.32 8 17 C7.67 18.65 7.34 20.3 7 22 C9.31 20.68 11.62 19.36 14 18 C26.222 19.222 26.222 19.222 31 24 C31 25.98 31 27.96 31 30 C25 35 25 35 14 35 C12.02 34.01 10.04 33.02 8 32 C7.01 34.64 6.02 37.28 5 40 C8.63 40.33 12.26 40.66 16 41 C16 41.33 16 41.66 16 42 C-5.154 46.231 -5.154 46.231 -13 41 C-10 40 -10 40 0 40 C0 26.8 0 13.6 0 0 Z " fill="#89A580" transform="translate(274,702)"/>
<path d="M0 0 C0.99 0.33 1.98 0.66 3 1 C7 10 7 10 7 16 C6.34 16 5.68 16 5 16 C5 16.99 5 17.98 5 19 C-1 22 -1 22 -9 22 C-15.856 18.572 -19.777 16.335 -24 10 C-24 4 -24 4 -22 2 C-1 2 -1 2 1 3 C0.67 2.01 0.34 1.02 0 0 Z " fill="#88A67E" transform="translate(265,710)"/>
<path d="M0 0 C5 3 5 3 6 7 C2 10 2 10 -3 10 C-3 48.94 -3 87.88 -3 128 C-1.68 128.33 -0.36 128.66 1 129 C2.65 130.98 4.3 132.96 6 135 C5.67 135.66 5.34 136.32 5 137 C4.01 136.01 3.02 135.02 2 134 C1.34 134.33 0.68 134.66 0 135 C-0.33 133.68 -0.66 132.36 -1 131 C-1.66 131 -2.32 131 -3 131 C-3 134.3 -3 137.6 -3 141 C-3.66 141 -4.32 141 -5 141 C-5 137.7 -5 134.4 -5 131 C-5.66 131 -6.32 131 -7 131 C-7.33 131.66 -7.33 131.66 -9 135 C-9.66 135 -10.32 135 -11 135 C-11.66 135.33 -12.32 135.66 -13 136 C-11 131 -11 131 -6 127 C-5.67 88.39 -5.34 49.78 -5 10 C-6.98 10 -8.96 10 -11 10 C-11.99 9.01 -12.98 8.02 -14 7 C-13.67 5.35 -13.34 3.7 -13 2 C-9 0 -9 0 0 0 Z " fill="#47484A" transform="translate(319,308)"/>
<path d="M0 0 C5.28 0 10.56 0 16 0 C16 9 16 9 14 22 C12.35 22.66 10.7 23.32 9 24 C6.855 25.65 6.855 25.65 -4 34 C-4.33 34 -4.66 34 -5 34 C-4 21 -4 21 0 0 Z " fill="#FCFBFB" transform="translate(177,878)"/>
<path d="M0 0 C3 4 3 4 6 10 C-13.47 10 -32.94 10 -53 10 C-53.33 10.99 -53.66 11.98 -54 13 C-60 6 -60 6 -60 3 C-40.2 3 -20.4 3 0 3 C0 2.01 0 1.02 0 0 Z " fill="#DEE2E5" transform="translate(393,447)"/>
<path d="M0 0 C5.28 0 10.56 0 16 0 C18.726 10.902 21 21.722 21 33 C15 28 15 28 10 22 C7.36 21.67 4.72 21.34 2 21 C-2.972 16.028 0.351 7.023 0 0 Z " fill="#F0F2F3" transform="translate(660,879)"/>
<path d="M0 0 C0.66 0 1.32 0 2 0 C4 11 4 11 5 34 C0.05 34 -4.9 34 -10 34 C-11 24 -11 24 -11 11 C-7.37 7.37 -3.74 3.74 0 0 Z " fill="#EDF0F0" transform="translate(255,866)"/>
<path d="M0 0 C4 2 4 2 13 11 C13 18.26 13 25.52 13 33 C7.72 33 2.44 33 -3 33 C-2 14 -2 14 0 0 Z " fill="#ECEEEF" transform="translate(595,867)"/>
<path d="M0 0 C5 4 5 4 6 6 C6 16 6 16 1 24 C0.67 24.33 0.34 24.66 0 25 C-2.97 25 -5.94 25 -9 25 C-12 22 -12 22 -13 19 C-13 7 -13 7 -8 1 C-6 0 -6 0 0 0 Z " fill="#85A47C" transform="translate(280,675)"/>
<path d="M0 0 C0.33 0 0.66 0 1 0 C1 49.17 1 98.34 1 149 C0 150 0 150 -2.025 150.252 C-9.051 151.128 -16.076 152.004 -23.102 152.881 C-25.715 153.207 -28.329 153.533 -30.943 153.858 C-58.811 157.331 -58.811 157.331 -71 159 C-73.31 158.67 -75.62 158.34 -78 158 C-78 157.67 -78 157.34 -78 157 C-59.025 154.449 -40.017 152.208 -21 150 C-18.69 149.67 -18.69 149.67 -7 148 C-5.02 148 -3.04 148 -1 148 C-1 117.97 -1 87.94 -1 57 C-0.67 38.19 -0.34 19.38 0 0 Z " fill="#BBBAB9" transform="translate(137,520)"/>
<path d="M0 0 C9.9 0 19.8 0 30 0 C28 5 28 5 21 15 C19.35 17.64 17.7 20.28 16 23 C15.34 23 14.68 23 14 23 C11.69 19.37 9.38 15.74 7 12 C4.69 8.7 2.38 5.4 0 2 C0 1.34 0 0.68 0 0 Z " fill="#E8EBEB" transform="translate(300,471)"/>
<path d="M0 0 C0.66 0 1.32 0 2 0 C4 17 4 17 4 33 C-0.29 33 -4.58 33 -9 33 C-10 24 -10 24 -10 11 C-7.03 8.03 -4.06 5.06 -1 2 C-0.67 1.34 -0.34 0.68 0 0 Z " fill="#EDEFEF" transform="translate(508,867)"/>
<path d="M0 0 C4 2 4 2 6 4 C6 21.099 5.169 38.324 1 55 C0.67 59.62 0.34 64.24 0 69 C-0.33 69.99 -0.66 70.98 -1 72 C-1.99 72 -2.98 72 -4 72 C-4 47.963 -1.844 23.966 0 0 Z " fill="#A9ABAD" transform="translate(589,860)"/>
<path d="M0 0 C9.57 0 19.14 0 29 0 C25.942 7.644 20.664 14.216 16 21 C15.01 21 14.02 21 13 21 C3 6 3 6 0 0 Z " fill="#E2E4E5" transform="translate(525,448)"/>
<path d="M0 0 C9.57 0 19.14 0 29 0 C27 4 27 4 24.883 7.176 C24.441 7.839 23.999 8.502 23.543 9.186 C22.156 11.266 20.77 13.346 19.383 15.426 C18.974 16.038 18.566 16.651 18.145 17.282 C17.097 18.855 16.048 20.427 15 22 C14.34 22 13.68 22 13 22 C11.35 19.36 11.35 19.36 3 6 C2.01 4.68 1.02 3.36 0 2 C0 1.34 0 0.68 0 0 Z " fill="#FBFAF9" transform="translate(412,434)"/>
<path d="M0 0 C0.66 0 1.32 0 2 0 C4.492 23.67 6 47.195 6 71 C4.68 70.67 3.36 70.34 2 70 C1.01 58.78 0.02 47.56 -1 36 C-1.33 34.35 -1.66 32.7 -2 31 C-3 17 -3 17 -3 3 C-2.01 2.01 -1.02 1.02 0 0 Z " fill="#A6AAAC" transform="translate(261,860)"/>
<path d="M0 0 C0.66 0 1.32 0 2 0 C4.31 2.97 6.62 5.94 9 9 C9.66 9.66 10.32 10.32 11 11 C10.67 18.59 10.34 26.18 10 34 C6.04 34 2.08 34 -2 34 C-2 22.647 -0.983 11.31 0 0 Z " fill="#EDF0F0" transform="translate(328,866)"/>
<path d="M0 0 C14.85 0.33 29.7 0.66 45 1 C45.66 3.31 46.32 5.62 47 8 C30.17 8 13.34 8 -4 8 C-2.68 5.36 -1.36 2.72 0 0 Z " fill="#DEE3E6" transform="translate(458,449)"/>
<path d="M0 0 C0.33 0 0.66 0 1 0 C3.487 23.628 5 47.229 5 71 C4.01 71 3.02 71 2 71 C-5.1 49.699 -4 26.335 -4 4 C-2.68 2.68 -1.36 1.36 0 0 Z " fill="#A7AAAC" transform="translate(514,861)"/>
<path d="M0 0 C4.95 0 9.9 0 15 0 C14.461 7.011 13.872 14.023 13 21 C8.05 21 3.1 21 -2 21 C-1 6 -1 6 0 0 Z " fill="#EDF0F0" transform="translate(432,879)"/>
<path d="M0 0 C7 2 7 2 8 3 C17 5 17 5 27 6 C27.66 6.33 28.32 6.66 29 7 C34.94 7.33 40.88 7.66 47 8 C48 9 48 9 48 14 C47.67 14.33 47.34 14.66 47 15 C7.688 12.688 7.688 12.688 0 5 C0 3.35 0 1.7 0 0 Z " fill="#CBCED2" transform="translate(484,810)"/>
<path d="M0 0 C0.33 0 0.66 0 1 0 C1 3.3 1 6.6 1 10 C1.99 10 2.98 10 4 10 C4 6.7 4 3.4 4 0 C4.66 0 5.32 0 6 0 C12 13 12 13 10 22 C6 25 6 25 -2 24 C-5 19 -5 19 -6 11 C-4.02 7.37 -2.04 3.74 0 0 Z " fill="#DCE0DF" transform="translate(537,415)"/>
<path d="M0 0 C3.96 0 7.92 0 12 0 C14 15 14 15 14 22 C9.71 22 5.42 22 1 22 C-0.44 14.802 0 7.341 0 0 Z " fill="#EDEFF0" transform="translate(386,878)"/>
<path d="M0 0 C4 4 4 4 4 16 C3.807 17.959 3.613 19.919 3.414 21.938 C1.811 38.282 0.301 54.628 -1 71 C-1.99 71 -2.98 71 -4 71 C-4 47.23 -2.776 23.597 0 0 Z " fill="#A8ABAE" transform="translate(324,859)"/>
<path d="M0 0 C-5 5 -5 5 -22 11 C-28 10 -28 10 -45 4 C-44.67 3.01 -44.34 2.02 -44 1 C-8 0 -8 0 0 0 Z " fill="#5D5E5E" transform="translate(339,495)"/>
<path d="M0 0 C0.33 0 0.66 0 1 0 C1.66 4.29 2.32 8.58 3 13 C5 15 5 15 12 16 C11.34 16.33 10.68 16.66 10 17 C10 24.26 10 31.52 10 39 C9.67 39 9.34 39 9 39 C8.67 45.27 8.34 51.54 8 58 C7.01 58 6.02 58 5 58 C4 52 4 52 4 42 C4.66 42 5.32 42 6 42 C4 33 4 33 -2 22 C-1.34 14.74 -0.68 7.48 0 0 Z " fill="#AAB6BE" transform="translate(266,684)"/>
<path d="M0 0 C1.65 0 3.3 0 5 0 C8.179 12.715 8.738 25.955 10 39 C10.33 40.32 10.66 41.64 11 43 C11 47.29 11 51.58 11 56 C10.01 56 9.02 56 8 56 C2.8 37.799 1.567 18.801 0 0 Z " fill="#ADB0B4" transform="translate(654,879)"/>
<path d="M0 0 C0.66 0 1.32 0 2 0 C15 19 15 19 16 22 C8.74 22 1.48 22 -6 22 C-4 12 -4 12 0 0 Z " fill="#DFE1E3" transform="translate(408,435)"/>
<path d="M0 0 C0.66 0.33 1.32 0.66 2 1 C7 17 7 17 7 22 C-0.26 22 -7.52 22 -15 22 C-10.235 14.512 -5.22 7.178 0 0 Z " fill="#DEE0E2" transform="translate(443,435)"/>
<path d="M0 0 C2 1 2 1 7 12 C7 12.99 7 13.98 7 15 C-3.56 15 -14.12 15 -25 15 C-22 6 -22 6 -20 2 C-19.01 1.67 -18.02 1.34 -17 1 C-16.01 2.98 -15.02 4.96 -14 7 C-12 8 -12 8 -5 8 C-1 4 -1 4 0 0 Z " fill="#FAF9F8" transform="translate(435,416)"/>
<path d="M0 0 C1.98 0.99 3.96 1.98 6 3 C5.67 4.65 5.34 6.3 5 8 C1 10 1 10 -4 10 C-4 40.69 -4 71.38 -4 103 C-4.33 103 -4.66 103 -5 103 C-5 72.31 -5 41.62 -5 10 C-7.31 9.67 -9.62 9.34 -12 9 C-12.66 8.34 -13.32 7.68 -14 7 C-13.67 5.35 -13.34 3.7 -13 2 C-10 0 -10 0 0 0 Z " fill="#3A3C3E" transform="translate(544,308)"/>
<path d="M0 0 C0.66 0.33 1.32 0.66 2 1 C8 19 8 19 8 22 C0.74 22 -6.52 22 -14 22 C-10.113 14.225 -4.822 7.232 0 0 Z " fill="#E8EBEB" transform="translate(331,473)"/>
<path d="M0 0 C1.32 0 2.64 0 4 0 C4 12 4 12 2 20 C0.68 29.9 -0.64 39.8 -2 50 C-2.33 50.825 -2.33 50.825 -4 55 C-4.99 55 -5.98 55 -7 55 C-3.6 10.8 -3.6 10.8 0 0 Z " fill="#AEB1B4" transform="translate(448,879)"/>
<path d="M0 0 C6.534 6.534 11.786 13.571 16 22 C8.74 22 1.48 22 -6 22 C-5 15 -5 15 0 0 Z " fill="#EFF0F0" transform="translate(522,449)"/>
<path d="M0 0 C0.66 0 1.32 0 2 0 C4.64 3.96 7.28 7.92 10 12 C11.98 14.64 13.96 17.28 16 20 C16 20.66 16 21.32 16 22 C8.74 22 1.48 22 -6 22 C-2 6 -2 6 0 0 Z " fill="#ECEEEE" transform="translate(297,473)"/>
<path d="M0 0 C1.65 0 3.3 0 5 0 C1.9 40.3 1.9 40.3 -3 55 C-3.99 55 -4.98 55 -6 55 C-6 36.483 -4.017 18.075 0 0 Z " fill="#ACAFB3" transform="translate(194,878)"/>
<path d="M0 0 C0.66 0.33 1.32 0.66 2 1 C7 17 7 17 7 22 C0.07 22 -6.86 22 -14 22 C-12 17 -12 17 -4 6 C-2.68 4.02 -1.36 2.04 0 0 Z " fill="#F0F1F1" transform="translate(556,449)"/>
<path d="M0 0 C1.65 0.99 3.3 1.98 5 3 C4.67 4.65 4.34 6.3 4 8 C1 10 1 10 -4 10 C-4 36.07 -4 62.14 -4 89 C-4.33 89 -4.66 89 -5 89 C-5 62.93 -5 36.86 -5 10 C-6.98 10 -8.96 10 -11 10 C-11.99 9.34 -12.98 8.68 -14 8 C-14 6.35 -14 4.7 -14 3 C-10 0 -10 0 0 0 Z " fill="#393B3D" transform="translate(431,308)"/>
<path d="M0 0 C0.825 0.165 0.825 0.165 5 1 C10 39.333 10 39.333 10 55 C8.68 54.67 7.36 54.34 6 54 C5.889 53.084 5.779 52.168 5.665 51.225 C5.244 47.743 4.822 44.261 4.401 40.78 C4.22 39.289 4.04 37.797 3.86 36.306 C2.598 25.868 1.312 15.432 0 5 C0 3.35 0 1.7 0 0 Z " fill="#B2B5B8" transform="translate(380,877)"/>
<path d="M0 0 C7.444 7.444 14.276 14.782 21 23 C23.31 25.64 25.62 28.28 28 31 C28 31.66 28 32.32 28 33 C19 31 19 31 13 29 C0 2 0 2 0 0 Z " fill="#F1F0F0" transform="translate(545,417)"/>
<path d="M0 0 C1.65 0 3.3 0 5 0 C7.726 10.902 10 21.722 10 33 C4 28 4 28 0 23 C0 15.41 0 7.82 0 0 Z " fill="#FBFBFA" transform="translate(671,879)"/>
<path d="M0 0 C6 5 6 5 15 16 C16.485 17.65 16.485 17.65 24 26 C24.99 27.65 25.98 29.3 27 31 C20 30 20 30 12 27 C0 3 0 3 0 0 Z " fill="#E7E8E8" transform="translate(321,442)"/>
<path d="M0 0 C7 6 7 6 9.379 8.781 C14.887 15.216 20.397 21.647 26 28 C26 28.66 26 29.32 26 30 C15 27 15 27 10 24 C0 3 0 3 0 0 Z " fill="#F4F3F1" transform="translate(434,406)"/>
<path d="M0 0 C0.33 0 0.66 0 1 0 C1.33 38.28 1.66 76.56 2 116 C3.65 116.99 5.3 117.98 7 119 C8.32 120.65 9.64 122.3 11 124 C10.67 124.66 10.34 125.32 10 126 C9.01 125.01 8.02 124.02 7 123 C6.67 123.165 6.67 123.165 5 124 C4.67 122.68 4.34 121.36 4 120 C3.34 120 2.68 120 2 120 C2 123.3 2 126.6 2 130 C1.34 130 0.68 130 0 130 C0 126.7 0 123.4 0 120 C-0.66 120 -1.32 120 -2 120 C-2.66 121.32 -3.32 122.64 -4 124 C-4.66 124 -5.32 124 -6 124 C-6.33 124.165 -6.33 124.165 -8 125 C-6 120 -6 120 -1 116 C-0.67 77.72 -0.34 39.44 0 0 Z " fill="#3B3B3B" transform="translate(314,319)"/>
<path d="M0 0 C0.33 0 0.66 0 1 0 C1 30.69 1 61.38 1 93 C2.32 93.66 3.64 94.32 5 95 C5.99 96.32 6.98 97.64 8 99 C7.835 99.33 7.835 99.33 7 101 C8 105 8 105 10 109 C9.67 109.99 9.34 110.98 9 112 C3 100 3 100 3 97 C2.34 97 1.68 97 1 97 C1 100.3 1 103.6 1 107 C0.01 107 -0.98 107 -2 107 C-2.33 104.03 -2.66 101.06 -3 98 C-3.33 98.33 -3.33 98.33 -5 100 C-5.99 100 -6.98 100 -8 100 C-7.34 98.35 -6.68 96.7 -6 95 C-5.01 94.67 -5.01 94.67 0 93 C0 62.31 0 31.62 0 0 Z " fill="#5B5B5C" transform="translate(540,318)"/>
<path d="M0 0 C0 0.33 0 0.66 0 1 C-2.31 1 -4.62 1 -7 1 C-7 1.66 -7 2.32 -7 3 C-10.465 3.33 -10.465 3.33 -28 5 C-37 8 -37 8 -38 9 C-42.62 9 -47.24 9 -52 9 C-56.95 9.66 -61.9 10.32 -67 11 C-71.95 11 -76.9 11 -82 11 C-82.33 11.66 -82.66 12.32 -83 13 C-85.64 13 -88.28 13 -91 13 C-90.34 12.67 -89.68 12.34 -89 12 C-89 11.34 -89 10.68 -89 10 C-89.99 9.67 -90.98 9.34 -92 9 C-90 8 -90 8 -85 9 C-83.68 8.67 -82.36 8.34 -81 8 C-76.71 8 -72.42 8 -68 8 C-41 6 -41 6 -25 1 C-17 0 -17 0 0 0 Z " fill="#DCDFE2" transform="translate(354,805)"/>
<path d="M0 0 C0.33 0.66 0.66 1.32 1 2 C-2.96 10.25 -6.92 18.5 -11 27 C-23 31 -23 31 -26 30 C-25.201 29.08 -24.402 28.159 -23.578 27.211 C-16.02 18.501 -8.495 9.764 -1 1 C-0.67 0.67 -0.34 0.34 0 0 Z " fill="#F3F3F2" transform="translate(532,419)"/>
<path d="M0 0 C0.33 0.66 0.66 1.32 1 2 C-8 21 -8 21 -11 26 C-13.475 26.825 -13.475 26.825 -26 31 C-24 27 -24 27 -13 15 C-10.03 11.37 -7.06 7.74 -4 4 C-2.68 2.68 -1.36 1.36 0 0 Z " fill="#F5F3F2" transform="translate(418,406)"/>
<path d="M0 0 C0.33 0.66 0.66 1.32 1 2 C-2.63 9.26 -6.26 16.52 -10 24 C-10.33 24.99 -10.66 25.98 -11 27 C-24 32 -24 32 -26 32 C-24 28 -24 28 -15 18 C-12.03 14.37 -9.06 10.74 -6 7 C-4.02 4.69 -2.04 2.38 0 0 Z " fill="#E4E6E7" transform="translate(308,442)"/>
<path d="M0 0 C7 1 7 1 16 4 C13.36 9.61 10.72 15.22 8 21 C7.34 21 6.68 21 6 21 C0 2 0 2 0 0 Z " fill="#E7E9E9" transform="translate(334,472)"/>
<path d="M0 0 C9 2 9 2 15 4 C14 9 14 9 7 21 C2.838 14.757 0 7.572 0 0 Z " fill="#F8F7F7" transform="translate(446,434)"/>
<path d="M0 0 C12 3 12 3 15 4 C14 9 14 9 8 21 C7.34 21 6.68 21 6 21 C0 2 0 2 0 0 Z " fill="#DFE1E1" transform="translate(559,448)"/>
<path d="M0 0 C0 1.65 0 3.3 0 5 C-6.858 10.144 -13.65 11.33 -22 13 C-23.32 12.67 -24.64 12.34 -26 12 C-25.34 10.35 -24.68 8.7 -24 7 C-24.99 6.67 -25.98 6.34 -27 6 C-23.04 5.34 -19.08 4.68 -15 4 C-2 0 -2 0 0 0 Z " fill="#CDD0D4" transform="translate(364,810)"/>
<path d="M0 0 C-1.561 7.024 -3.255 14.019 -5 21 C-5.66 21 -6.32 21 -7 21 C-15 6 -15 6 -15 4 C-2 0 -2 0 0 0 Z " fill="#DDDEE0" transform="translate(520,448)"/>
<path d="M0 0 C-1.98 6.27 -3.96 12.54 -6 19 C-6.66 19 -7.32 19 -8 19 C-15 6 -15 6 -15 3 C-3 -1 -3 -1 0 0 Z " fill="#F6F5F4" transform="translate(407,435)"/>
<path d="M0 0 C-1.65 5.94 -3.3 11.88 -5 18 C-5.99 18 -6.98 18 -8 18 C-10.31 13.71 -12.62 9.42 -15 5 C-14.67 4.01 -14.34 3.02 -14 2 C-4 -1 -4 -1 0 0 Z " fill="#EAEBEB" transform="translate(296,473)"/>
<path d="M0 0 C13.2 0 26.4 0 40 0 C30.01 6.66 22.963 7.193 12 5 C8.04 3.68 4.08 2.36 0 1 C0 0.67 0 0.34 0 0 Z " fill="#E6EAED" transform="translate(406,459)"/>
<path d="M0 0 C1.32 0.33 2.64 0.66 4 1 C3.34 1 2.68 1 2 1 C1.67 1.99 1.34 2.98 1 4 C-14 8 -14 8 -30 8 C-32.31 8.33 -34.62 8.66 -37 9 C-40.63 9.165 -40.63 9.165 -59 10 C-59 10.66 -59 11.32 -59 12 C-61.64 12 -64.28 12 -67 12 C-66.01 11.67 -65.02 11.34 -64 11 C-64 10.34 -64 9.68 -64 9 C-64.66 8.67 -65.32 8.34 -66 8 C-49.008 6.867 -32.01 5.81 -15 5 C-1 1 -1 1 0 0 Z " fill="#DDE0E2" transform="translate(580,806)"/>
<path d="M0 0 C0 1.65 0 3.3 0 5 C-8 10 -8 10 -25 13 C-25 11.02 -25 9.04 -25 7 C-18.481 4.827 -11.719 3.44 -5 2 C-2 0 -2 0 0 0 Z " fill="#CED1D4" transform="translate(616,810)"/>
<path d="M0 0 C13.2 0 26.4 0 40 0 C31.928 5.381 24.281 7.326 15 6 C10.05 4.35 5.1 2.7 0 1 C0 0.67 0 0.34 0 0 Z " fill="#EBEDEE" transform="translate(520,473)"/>
<path d="M0 0 C0.33 0 0.66 0 1 0 C1 2.64 1 5.28 1 8 C0.666 8.042 0.666 8.042 -1.025 8.252 C-8.051 9.128 -15.076 10.004 -22.102 10.881 C-24.715 11.207 -27.329 11.533 -29.943 11.858 C-57.811 15.331 -57.811 15.331 -70 17 C-72.31 16.67 -74.62 16.34 -77 16 C-77 15.67 -77 15.34 -77 15 C-58.025 12.449 -39.017 10.208 -20 8 C-17.69 7.67 -17.69 7.67 -6 6 C-4.02 6 -2.04 6 0 6 C0 4.02 0 2.04 0 0 Z " fill="#C4C3C2" transform="translate(136,662)"/>
<path d="M0 0 C0.99 0.99 1.98 1.98 3 3 C13.23 3 23.46 3 34 3 C33.67 3.66 33.34 4.32 33 5 C23.76 5 14.52 5 5 5 C15 21 15 21 17 24 C16.01 24 15.02 24 14 24 C10.04 18.06 6.08 12.12 2 6 C0.68 9.3 -0.64 12.6 -2 16 C-2.66 17.32 -3.32 18.64 -4 20 C-5 16 -5 16 -1 4 C-2.65 4.495 -2.65 4.495 -11 7 C-11.33 6.34 -11.66 5.68 -12 5 C-3 2 -3 2 0 2 C0 1.34 0 0.68 0 0 Z " fill="#6A6B6B" transform="translate(521,444)"/>
<path d="M0 0 C11.88 0 23.76 0 36 0 C28.82 4.787 22.355 6 14 6 C9.38 4.35 4.76 2.7 0 1 C0 0.67 0 0.34 0 0 Z " fill="#EAECEC" transform="translate(297,497)"/>
<path d="M0 0 C2.64 0 5.28 0 8 0 C8.33 1.65 8.66 3.3 9 5 C9.66 5 10.32 5 11 5 C11.33 4.01 11.66 3.02 12 2 C12.33 2.99 12.66 3.98 13 5 C12.67 5.33 12.34 5.66 12 6 C11.67 8.64 11.34 11.28 11 14 C10.34 14 9.68 14 9 14 C8.34 13.34 7.68 12.68 7 12 C6.67 12.33 6.34 12.66 6 13 C4.35 13 2.7 13 1 13 C0.67 12.67 0.34 12.34 0 12 C0 8.04 0 4.08 0 0 Z " fill="#797877" transform="translate(85,529)"/>
<path d="M0 0 C0.66 0 1.32 0 2 0 C2 1.65 2 3.3 2 5 C4.97 5 7.94 5 11 5 C11 5.33 11 5.66 11 6 C8.03 6 5.06 6 2 6 C2.66 8.97 3.32 11.94 4 15 C5.32 13.02 6.64 11.04 8 9 C8.33 9.66 8.66 10.32 9 11 C8.01 12.98 7.02 14.96 6 17 C6.33 18.65 6.66 20.3 7 22 C7.66 22.33 8.32 22.66 9 23 C9.33 21.35 9.66 19.7 10 18 C11 22 11 22 10 24 C5 23 5 23 3 21 C2.01 21 1.02 21 0 21 C0.66 19.68 1.32 18.36 2 17 C1.67 13.37 1.34 9.74 1 6 C-2.3 6 -5.6 6 -9 6 C-9 7.65 -9 9.3 -9 11 C-6.69 11 -4.38 11 -2 11 C-2 13.97 -2 16.94 -2 20 C-2.66 20.66 -3.32 21.32 -4 22 C-5.32 22 -6.64 22 -8 22 C-8 21.34 -8 20.68 -8 20 C-6.68 20 -5.36 20 -4 20 C-3.67 17.36 -3.34 14.72 -3 12 C-4.98 12 -6.96 12 -9 12 C-9 14.97 -9 17.94 -9 21 C-9.99 21.99 -10.98 22.98 -12 24 C-11.67 22.35 -11.34 20.7 -11 19 C-10.67 14.38 -10.34 9.76 -10 5 C-6.7 5 -3.4 5 0 5 C0 3.35 0 1.7 0 0 Z " fill="#EFF1F2" transform="translate(78,1296)"/>
<path d="M0 0 C0.33 0.66 0.66 1.32 1 2 C12.22 2 23.44 2 35 2 C34.67 2.66 34.34 3.32 34 4 C23.77 3.67 13.54 3.34 3 3 C5.31 6.465 5.31 6.465 17 24 C17 24.66 17 25.32 17 26 C18.32 25.67 19.64 25.34 21 25 C21 25.33 21 25.66 21 26 C26.28 26.33 31.56 26.66 37 27 C37 27.33 37 27.66 37 28 C27.76 28 18.52 28 9 28 C9 27.67 9 27.34 9 27 C11.31 27 13.62 27 16 27 C11.71 20.73 7.42 14.46 3 8 C2.67 7.01 2.34 6.02 2 5 C1.01 5.33 0.02 5.66 -1 6 C-1.33 4.68 -1.66 3.36 -2 2 C-1.34 1.34 -0.68 0.68 0 0 Z " fill="#595A5B" transform="translate(408,430)"/>
<path d="M0 0 C0.33 0 0.66 0 1 0 C1.634 13.322 2 26.663 2 40 C4.64 40 7.28 40 10 40 C11.98 40.33 13.96 40.66 16 41 C16 41.33 16 41.66 16 42 C-5.154 46.231 -5.154 46.231 -13 41 C-10 40 -10 40 0 40 C0 26.8 0 13.6 0 0 Z " fill="#7A806B" transform="translate(274,702)"/>
<path d="M0 0 C0.66 0.33 1.32 0.66 2 1 C5 12 5 12 4 16 C-0.29 15.67 -4.58 15.34 -9 15 C-8 11 -8 11 0 0 Z " fill="#F6F5F4" transform="translate(443,435)"/>
<path d="M0 0 C4 4 4 4 4 16 C3.67 20.62 3.34 25.24 3 30 C2.34 28.68 1.68 27.36 1 26 C0.34 26 -0.32 26 -1 26 C-1 28.31 -1 30.62 -1 33 C-1.33 33 -1.66 33 -2 33 C-2 17 -2 17 0 0 Z " fill="#ADB0B2" transform="translate(324,859)"/>
<path d="M0 0 C0.66 0 1.32 0 2 0 C11 13 11 13 11 15 C6.38 15 1.76 15 -3 15 C-2 6 -2 6 0 0 Z " fill="#F7F6F3" transform="translate(408,435)"/>
<path d="M0 0 C11 0 11 0 14 1 C12 6 12 6 7 13 C2 8 2 8 -1 3 C-0.67 2.01 -0.34 1.02 0 0 Z " fill="#EFF0F1" transform="translate(533,457)"/>
<path d="M0 0 C0.33 0 0.66 0 1 0 C1.592 10.655 2 21.328 2 32 C1.01 32 0.02 32 -1 32 C-3.968 23.095 -3.251 13.357 -4 4 C-3.34 4.66 -2.68 5.32 -2 6 C-1.34 4.02 -0.68 2.04 0 0 Z " fill="#ABAEB1" transform="translate(517,900)"/>
<path d="M0 0 C0.66 0.33 1.32 0.66 2 1 C2.66 3.97 3.32 6.94 4 10 C4.99 12.97 5.98 15.94 7 19 C6.67 20.98 6.34 22.96 6 25 C4.68 25 3.36 25 2 25 C1.67 25.66 1.34 26.32 1 27 C-12.53 27 -26.06 27 -40 27 C-40 26.34 -40 25.68 -40 25 C-40.99 24.67 -41.98 24.34 -43 24 C-27.16 24 -11.32 24 5 24 C3.02 16.74 1.04 9.48 -1 2 C-0.67 1.34 -0.34 0.68 0 0 Z " fill="#6B6B6C" transform="translate(445,433)"/>
<path d="M0 0 C3 3 3 3 9 20 C8.34 20 7.68 20 7 20 C6.34 17.69 5.68 15.38 5 13 C2.36 13.33 -0.28 13.66 -3 14 C-3.99 15.98 -4.98 17.96 -6 20 C-7 17 -7 17 -1 1 C-0.67 0.67 -0.34 0.34 0 0 Z " fill="#EFF0F2" transform="translate(24,1299)"/>
<path d="M0 0 C0.33 0 0.66 0 1 0 C1 1.65 1 3.3 1 5 C4.3 5 7.6 5 11 5 C11 5.33 11 5.66 11 6 C7.7 6 4.4 6 1 6 C1 8.31 1 10.62 1 13 C3.97 13 6.94 13 10 13 C10 13.33 10 13.66 10 14 C7.03 14 4.06 14 1 14 C1 16.31 1 18.62 1 21 C4.63 21 8.26 21 12 21 C12 21.33 12 21.66 12 22 C4.41 22 -3.18 22 -11 22 C-11 21.67 -11 21.34 -11 21 C-7.37 21 -3.74 21 0 21 C0 18.69 0 16.38 0 14 C-2.97 14 -5.94 14 -9 14 C-9 13.67 -9 13.34 -9 13 C-6.03 13 -3.06 13 0 13 C0 11.02 0 9.04 0 7 C-2.31 7.33 -4.62 7.66 -7 8 C-7.33 8.495 -7.33 8.495 -9 11 C-9.66 10.67 -10.32 10.34 -11 10 C-9.68 7.03 -8.36 4.06 -7 1 C-6.34 1 -5.68 1 -5 1 C-5.33 2.32 -5.66 3.64 -6 5 C-4.02 5 -2.04 5 0 5 C0 3.35 0 1.7 0 0 Z " fill="#F2F3F4" transform="translate(51,1297)"/>
<path d="M0 0 C4.685 7.027 6.354 13.876 5 22 C-2.59 22 -10.18 22 -18 22 C-18.66 21.34 -19.32 20.68 -20 20 C-12 9 -12 9 -8 4 C-9 9 -9 9 -17 21 C-10.07 21 -3.14 21 4 21 C2.35 15.39 0.7 9.78 -1 4 C-0.67 2.68 -0.34 1.36 0 0 Z " fill="#6E6E6E" transform="translate(559,450)"/>
<path d="M0 0 C0.66 0.33 1.32 0.66 2 1 C-1.63 8.26 -5.26 15.52 -9 23 C-9.99 25.31 -10.98 27.62 -12 30 C-1.11 29.67 9.78 29.34 21 29 C21 29.66 21 30.32 21 31 C9.78 31 -1.44 31 -13 31 C-14 27 -14 27 -6 11 C-4.68 8.03 -3.36 5.06 -2 2 C-1.34 1.34 -0.68 0.68 0 0 Z " fill="#7F7F7E" transform="translate(422,401)"/>
<path d="M0 0 C1.65 0 3.3 0 5 0 C5 9 5 9 3 22 C2.01 22 1.02 22 0 22 C0 14.74 0 7.48 0 0 Z " fill="#EDEFF1" transform="translate(188,878)"/>
<path d="M0 0 C0.825 0.165 0.825 0.165 5 1 C6 10 6 10 6 20 C5.34 20 4.68 20 4 20 C3.67 20.66 3.34 21.32 3 22 C1 16 1 16 0 0 Z " fill="#ABAEB1" transform="translate(380,877)"/>
<path d="M0 0 C-9.148 6.099 -21.233 5.772 -32 8 C-32.66 8.66 -33.32 9.32 -34 10 C-35.98 9.34 -37.96 8.68 -40 8 C-34.765 4.51 -29.146 4 -23 4 C-23.33 3.01 -23.66 2.02 -24 1 C-20.7 1 -17.4 1 -14 1 C-2 -1 -2 -1 0 0 Z " fill="#DCE0E2" transform="translate(277,804)"/>
<path d="M0 0 C0 0.66 0 1.32 0 2 C-11.283 4.564 -22.586 7.098 -34 9 C-34 9.66 -34 10.32 -34 11 C-38 10 -38 10 -41 8 C-38.69 7.505 -38.69 7.505 -27 5 C-24 4 -24 4 -22 2 C-17.38 1.67 -12.76 1.34 -8 1 C-3 0 -3 0 0 0 Z " fill="#DEE2E4" transform="translate(529,803)"/>
<path d="M0 0 C10 3 10 3 16 6 C15.34 7.32 14.68 8.64 14 10 C3.5 8.5 3.5 8.5 0 5 C0 3.35 0 1.7 0 0 Z " fill="#C3C6CB" transform="translate(233,810)"/>
<path d="M0 0 C2.404 9.615 -5.871 18.991 -10 28 C0.56 28 11.12 28 22 28 C22 28.33 22 28.66 22 29 C11.11 29 0.22 29 -11 29 C-12 25 -12 25 -1 3 C-0.67 2.01 -0.34 1.02 0 0 Z " fill="#636464" transform="translate(309,441)"/>
<path d="M0 0 C2.805 0.825 2.805 0.825 17 5 C23.708 3.509 30.37 1.808 37 0 C37.165 0.33 37.165 0.33 38 2 C18 8.667 18 8.667 -2 2 C-1.34 1.34 -0.68 0.68 0 0 Z " fill="#626363" transform="translate(408,460)"/>
<path d="M0 0 C10.23 0 20.46 0 31 0 C31.66 0.66 32.32 1.32 33 2 C29.37 6.95 25.74 11.9 22 17 C21.01 18.65 20.02 20.3 19 22 C18.01 21.67 17.02 21.34 16 21 C18.64 17.37 21.28 13.74 24 10 C24.99 8.515 24.99 8.515 30 1 C20.1 1.33 10.2 1.66 0 2 C0 1.34 0 0.68 0 0 Z " fill="#80807F" transform="translate(411,433)"/>
<path d="M0 0 C7 6 7 6 9.16 8.562 C14.387 14.756 19.628 20.931 25 27 C24.67 27.99 24.34 28.98 24 30 C22.35 30.33 20.7 30.66 19 31 C19.99 30.01 20.98 29.02 22 28 C17.71 23.05 13.42 18.1 9 13 C0 2 0 2 0 0 Z " fill="#5E5E5F" transform="translate(325,444)"/>
<path d="M0 0 C4.95 0 9.9 0 15 0 C14.67 1.65 14.34 3.3 14 5 C1 5 1 5 -2 4 C-1.34 2.68 -0.68 1.36 0 0 Z " fill="#C4C7CB" transform="translate(269,819)"/>
<path d="M0 0 C0 0.33 0 0.66 0 1 C-2.31 1 -4.62 1 -7 1 C-7 1.66 -7 2.32 -7 3 C-10.465 3.33 -10.465 3.33 -28 5 C-30.31 5.33 -32.62 5.66 -35 6 C-34 4 -34 4 -25 1 C-17 0 -17 0 0 0 Z " fill="#DEE1E4" transform="translate(354,805)"/>
<path d="M0 0 C0.66 0.33 1.32 0.66 2 1 C-2 18 -2 18 -3 20 C-4.65 20 -6.3 20 -8 20 C-10.64 14.72 -13.28 9.44 -16 4 C-13 5 -13 5 -6 18 C-5.67 18 -5.34 18 -5 18 C-3.35 12.06 -1.7 6.12 0 0 Z " fill="#595A5A" transform="translate(295,473)"/>
<path d="M0 0 C-1 5 -1 5 -5 13 C-5.66 13 -6.32 13 -7 13 C-10 4 -10 4 -10 1 C-3 0 -3 0 0 0 Z " fill="#EBECEC" transform="translate(572,456)"/>
<path d="M0 0 C0.66 0.66 1.32 1.32 2 2 C-30.308 6.846 -30.308 6.846 -36 4 C-35.34 3.914 -34.68 3.829 -34 3.74 C-30.979 3.348 -27.958 2.955 -24.938 2.562 C-23.899 2.428 -22.861 2.293 -21.791 2.154 C-5.24 0 -5.24 0 0 0 Z " fill="#BCBBB9" transform="translate(95,673)"/>
<path d="M0 0 C9.694 0.692 19.367 1.716 29 3 C29 3.66 29 4.32 29 5 C9 5 9 5 0 2 C0 1.34 0 0.68 0 0 Z " fill="#C6C4C1" transform="translate(68,562)"/>
<path d="M0 0 C0.99 0.66 1.98 1.32 3 2 C2 7 2 7 -7 24 C-8.65 24.99 -10.3 25.98 -12 27 C-13.32 26.67 -14.64 26.34 -16 26 C-13 24 -13 24 -10 24 C-9.67 22.68 -9.34 21.36 -9 20 C-8.34 20.33 -7.68 20.66 -7 21 C-6.34 19.02 -5.68 17.04 -5 15 C-3.35 11.37 -1.7 7.74 0 4 C-0.66 3.34 -1.32 2.68 -2 2 C-1.34 2 -0.68 2 0 2 C0 1.34 0 0.68 0 0 Z " fill="#565755" transform="translate(349,472)"/>
<path d="M0 0 C0.66 0.33 1.32 0.66 2 1 C2 1.66 2 2.32 2 3 C2.99 2.67 3.98 2.34 5 2 C5 2.66 5 3.32 5 4 C9.62 4 14.24 4 19 4 C19 4.33 19 4.66 19 5 C7.12 5 -4.76 5 -17 5 C-17 5.66 -17 6.32 -17 7 C-18.65 7 -20.3 7 -22 7 C-22.66 5.35 -23.32 3.7 -24 2 C-23.01 2 -22.02 2 -21 2 C-21 2.66 -21 3.32 -21 4 C-13.74 4 -6.48 4 1 4 C0.67 2.68 0.34 1.36 0 0 Z " fill="#484948" transform="translate(312,491)"/>
<path d="M0 0 C0.66 0 1.32 0 2 0 C0 4 0 4 -9 14 C-18 25 -18 25 -18 27 C-18.66 27 -19.32 27 -20 27 C-20.33 26.01 -20.66 25.02 -21 24 C-17.37 20.04 -13.74 16.08 -10 12 C-7.03 8.37 -4.06 4.74 -1 1 C-0.67 0.67 -0.34 0.34 0 0 Z " fill="#5E6060" transform="translate(525,424)"/>
<path d="M0 0 C0.66 0.66 1.32 1.32 2 2 C-1.96 6.29 -5.92 10.58 -10 15 C-12.97 18.63 -15.94 22.26 -19 26 C-19.66 25.34 -20.32 24.68 -21 24 C-17.7 20.37 -14.4 16.74 -11 13 C-8.03 9.37 -5.06 5.74 -2 2 C-1.34 1.34 -0.68 0.68 0 0 Z " fill="#5A5B5A" transform="translate(305,443)"/>
<path d="M0 0 C2.404 9.615 -5.871 18.991 -10 28 C-10.66 28 -11.32 28 -12 28 C-9 19 -9 19 -2 4 C-3.32 5.32 -4.64 6.64 -6 8 C-6.66 7.67 -7.32 7.34 -8 7 C-3 1 -3 1 0 0 Z " fill="#5A5C5B" transform="translate(534,416)"/>
<path d="M0 0 C0.33 0 0.66 0 1 0 C1 6.27 1 12.54 1 19 C0.01 19 -0.98 19 -2 19 C-3 13 -3 13 -3 3 C-2.34 3 -1.68 3 -1 3 C-0.67 2.01 -0.34 1.02 0 0 Z " fill="#9EB0A5" transform="translate(273,723)"/>
<path d="M0 0 C2.64 0 5.28 0 8 0 C7.34 3.96 6.68 7.92 6 12 C5.34 12 4.68 12 4 12 C0 4 0 4 0 0 Z " fill="#E7E8E9" transform="translate(509,457)"/>
<path d="M0 0 C2.97 0 5.94 0 9 0 C9.33 1.32 9.66 2.64 10 4 C9.01 4 8.02 4 7 4 C6.67 6.97 6.34 9.94 6 13 C5.01 13 4.02 13 3 13 C3 9.7 3 6.4 3 3 C2.01 3 1.02 3 0 3 C0 2.01 0 1.02 0 0 Z " fill="#3C3C3B" transform="translate(422,398)"/>
<path d="M0 0 C0 0.66 0 1.32 0 2 C-0.99 2 -1.98 2 -3 2 C-3 2.66 -3 3.32 -3 4 C-15 5 -15 5 -18 3 C-11.128 0.055 -7.313 -1.463 0 0 Z " fill="#DEE1E3" transform="translate(581,800)"/>
<path d="M0 0 C21 1 21 1 28 2 C28 2.66 28 3.32 28 4 C18.643 4 9.306 2.98 0 2 C0 1.34 0 0.68 0 0 Z " fill="#D6D2CD" transform="translate(69,571)"/>
<path d="M0 0 C0.33 1.32 0.66 2.64 1 4 C1.66 4.33 2.32 4.66 3 5 C1.35 6.65 -0.3 8.3 -2 10 C-2.66 11.65 -3.32 13.3 -4 15 C-5.32 15.33 -6.64 15.66 -8 16 C-6.877 9.262 -5.307 5.307 0 0 Z " fill="#91A893" transform="translate(288,709)"/>
<path d="M0 0 C0.33 0 0.66 0 1 0 C1 9 1 9 0 11 C-0.99 11.33 -1.98 11.66 -3 12 C-3.66 14.31 -4.32 16.62 -5 19 C-5.99 18.34 -6.98 17.68 -8 17 C-6 11 -6 11 0 0 Z " fill="#ECEDEE" transform="translate(424,401)"/>
<path d="M0 0 C-9.659 7.244 -32.856 3 -45 3 C-44.67 2.34 -44.34 1.68 -44 1 C-8 0 -8 0 0 0 Z " fill="#767777" transform="translate(339,495)"/>
<path d="M0 0 C13.2 0 26.4 0 40 0 C31.675 5.55 19.999 1.37 10 1 C10.33 1.99 10.66 2.98 11 4 C7.37 3.01 3.74 2.02 0 1 C0 0.67 0 0.34 0 0 Z " fill="#D8D9DA" transform="translate(520,473)"/>
<path d="M0 0 C0 0.33 0 0.66 0 1 C-18 3 -18 3 -28 3 C-28 2.34 -28 1.68 -28 1 C-18.755 -0.321 -9.339 0 0 0 Z " fill="#D8D5D1" transform="translate(97,647)"/>
<path d="M0 0 C0.66 0.33 1.32 0.66 2 1 C2 1.66 2 2.32 2 3 C10.25 3.33 18.5 3.66 27 4 C27.33 3.01 27.66 2.02 28 1 C28.66 1.33 29.32 1.66 30 2 C29.34 3.32 28.68 4.64 28 6 C26.02 6.33 24.04 6.66 22 7 C22 6.67 22 6.34 22 6 C14.08 5.67 6.16 5.34 -2 5 C-1.01 4.67 -0.02 4.34 1 4 C0.67 2.68 0.34 1.36 0 0 Z " fill="#4A4A4B" transform="translate(537,468)"/>
<path d="M0 0 C8.722 1.744 17.419 3.66 26 6 C25.67 6.66 25.34 7.32 25 8 C15.959 6.192 6.944 4.236 -2 2 C-1.34 1.34 -0.68 0.68 0 0 Z " fill="#BCBAB9" transform="translate(108,513)"/>
<path d="M0 0 C0.99 0.33 1.98 0.66 3 1 C3.66 4.63 4.32 8.26 5 12 C4.34 11.67 3.68 11.34 3 11 C3 10.34 3 9.68 3 9 C1.68 9 0.36 9 -1 9 C-1.33 9.66 -1.66 10.32 -2 11 C-1 2 -1 2 0 0 Z " fill="#CAC8C9" transform="translate(116,535)"/>
<path d="M0 0 C6 5 6 5 10 11 C9.34 11.66 8.68 12.32 8 13 C8 13.66 8 14.32 8 15 C7.34 15 6.68 15 6 15 C0 2 0 2 0 0 Z " fill="#E5E4E6" transform="translate(321,442)"/>
<path d="M0 0 C4.914 6.143 9.427 12.598 14 19 C13.34 19.66 12.68 20.32 12 21 C0 4 0 4 0 2 C-0.66 1.67 -1.32 1.34 -2 1 C-1.34 0.67 -0.68 0.34 0 0 Z " fill="#5D5F5E" transform="translate(299,471)"/>
<path d="M0 0 C0.33 0.66 0.66 1.32 1 2 C12.22 2 23.44 2 35 2 C34.67 2.66 34.34 3.32 34 4 C22.78 4 11.56 4 0 4 C-0.33 4.66 -0.66 5.32 -1 6 C-1.33 4.68 -1.66 3.36 -2 2 C-1.34 1.34 -0.68 0.68 0 0 Z " fill="#3E3D3D" transform="translate(408,430)"/>
<path d="M0 0 C2.31 0.66 4.62 1.32 7 2 C7.33 3.65 7.66 5.3 8 7 C6.68 7.33 5.36 7.66 4 8 C2.68 7.01 1.36 6.02 0 5 C0 3.35 0 1.7 0 0 Z " fill="#BFC2C6" transform="translate(484,810)"/>
<path d="M0 0 C0.99 0.33 1.98 0.66 3 1 C3 2.32 3 3.64 3 5 C3.33 3.35 3.66 1.7 4 0 C5.667 0 7.333 0 9 0 C9 1.98 9 3.96 9 6 C8.01 5.67 7.02 5.34 6 5 C6 5.66 6 6.32 6 7 C4.02 7 2.04 7 0 7 C0 4.69 0 2.38 0 0 Z " fill="#A0A0A1" transform="translate(76,612)"/>
<path d="M0 0 C0.66 0 1.32 0 2 0 C2 1.65 2 3.3 2 5 C3.32 5 4.64 5 6 5 C6.33 3.68 6.66 2.36 7 1 C7 4.96 7 8.92 7 13 C6.67 13 6.34 13 6 13 C6 11.02 6 9.04 6 7 C4.68 7 3.36 7 2 7 C2 8.65 2 10.3 2 12 C1.34 12 0.68 12 0 12 C0 8.04 0 4.08 0 0 Z " fill="#D8D7D8" transform="translate(75,527)"/>
<path d="M0 0 C0.33 0.66 0.66 1.32 1 2 C11.23 2 21.46 2 32 2 C32 2.33 32 2.66 32 3 C26.72 3.165 26.72 3.165 0 4 C-0.33 4.66 -0.66 5.32 -1 6 C-1 5.01 -1 4.02 -1 3 C-1.66 2.67 -2.32 2.34 -3 2 C-2.01 1.34 -1.02 0.68 0 0 Z " fill="#434343" transform="translate(297,468)"/>
<path d="M0 0 C0.33 1.32 0.66 2.64 1 4 C-1.97 8.29 -4.94 12.58 -8 17 C-6.02 17 -4.04 17 -2 17 C-2 17.33 -2 17.66 -2 18 C-4.31 18 -6.62 18 -9 18 C-9.66 17.34 -10.32 16.68 -11 16 C-8.36 12.37 -5.72 8.74 -3 5 C-2.01 3.35 -1.02 1.7 0 0 Z " fill="#636464" transform="translate(550,454)"/>
<path d="M0 0 C1 4 1 4 -8 20 C-8.99 19.67 -9.98 19.34 -11 19 C-10.34 19 -9.68 19 -9 19 C-8.34 17.02 -7.68 15.04 -7 13 C-1 1 -1 1 0 0 Z " fill="#5F6061" transform="translate(576,450)"/>
<path d="M0 0 C0.66 0.33 1.32 0.66 2 1 C-2 17 -2 17 -4 22 C-4.99 21.01 -5.98 20.02 -7 19 C-6.34 19 -5.68 19 -5 19 C-4.34 16.03 -3.68 13.06 -3 10 C-2.01 6.7 -1.02 3.4 0 0 Z " fill="#606261" transform="translate(406,435)"/>
<path d="M0 0 C1.65 0 3.3 0 5 0 C5 0.66 5 1.32 5 2 C4.01 2 3.02 2 2 2 C2 2.99 2 3.98 2 5 C2.99 5 3.98 5 5 5 C5 5.66 5 6.32 5 7 C4.01 7 3.02 7 2 7 C2 7.99 2 8.98 2 10 C2.99 10 3.98 10 5 10 C5 10.66 5 11.32 5 12 C3.35 11.67 1.7 11.34 0 11 C0 7.37 0 3.74 0 0 Z " fill="#CFCDCF" transform="translate(107,533)"/>
<path d="M0 0 C0 0.33 0 0.66 0 1 C-3.63 1.66 -7.26 2.32 -11 3 C-11.66 3.66 -12.32 4.32 -13 5 C-14.98 4.34 -16.96 3.68 -19 3 C-12.74 -1.173 -7.132 -1.019 0 0 Z " fill="#DDE0E3" transform="translate(256,809)"/>
<path d="M0 0 C0.66 0.33 1.32 0.66 2 1 C2 1.99 2 2.98 2 4 C2.66 4.33 3.32 4.66 4 5 C3.34 6.485 3.34 6.485 0 14 C-0.66 14 -1.32 14 -2 14 C-2 11.36 -2 8.72 -2 6 C-1.34 6 -0.68 6 0 6 C0 4.02 0 2.04 0 0 Z " fill="#9BAD9F" transform="translate(279,728)"/>
<path d="M0 0 C0.66 0.33 1.32 0.66 2 1 C2.66 3.64 3.32 6.28 4 9 C1.03 8.67 -1.94 8.34 -5 8 C-3.35 5.36 -1.7 2.72 0 0 Z " fill="#D7D8DA" transform="translate(556,449)"/>
<path d="M0 0 C2.31 0.66 4.62 1.32 7 2 C7.33 2.66 7.66 3.32 8 4 C7.67 4.495 7.67 4.495 6 7 C1 6 1 6 0 5 C0 3.35 0 1.7 0 0 Z " fill="#C0C3C7" transform="translate(233,810)"/>
<path d="M0 0 C5 5 5 5 6 8 C3.36 8 0.72 8 -2 8 C-1 2 -1 2 0 0 Z " fill="#D9DCDD" transform="translate(522,449)"/>
<path d="M0 0 C1.861 7.445 -0.197 15.368 -1 23 C-1.33 23 -1.66 23 -2 23 C-2 3 -2 3 0 0 Z " fill="#AFBBC3" transform="translate(278,719)"/>
<path d="M0 0 C1.65 0 3.3 0 5 0 C5 0.66 5 1.32 5 2 C4.01 2 3.02 2 2 2 C2 2.99 2 3.98 2 5 C2.99 5 3.98 5 5 5 C5 5.66 5 6.32 5 7 C3.68 7 2.36 7 1 7 C2 10 2 10 5 12 C3.35 12 1.7 12 0 12 C0 8.04 0 4.08 0 0 Z " fill="#E1E0E2" transform="translate(85,529)"/>
<path d="M0 0 C3.596 5.394 6 11.449 6 18 C5.34 18 4.68 18 4 18 C-1 3 -1 3 0 0 Z " fill="#666967" transform="translate(334,474)"/>
<path d="M0 0 C0.66 0.33 1.32 0.66 2 1 C0.68 6.61 -0.64 12.22 -2 18 C-2.66 17.34 -3.32 16.68 -4 16 C-2 6 -2 6 0 0 Z " fill="#6B6D6D" transform="translate(295,473)"/>
<path d="M0 0 C4 4 4 4 7 9 C7.99 9.33 8.98 9.66 10 10 C10 10.66 10 11.32 10 12 C10.99 12.33 11.98 12.66 13 13 C10.69 12.67 8.38 12.34 6 12 C0 3 0 3 0 0 Z " fill="#4B4C4D" transform="translate(395,448)"/>
<path d="M0 0 C0.33 0.99 0.66 1.98 1 3 C-0.65 5.31 -2.3 7.62 -4 10 C-6.31 10.33 -8.62 10.66 -11 11 C-10.01 10.01 -9.02 9.02 -8 8 C-7.01 8 -6.02 8 -5 8 C-4.67 6.68 -4.34 5.36 -4 4 C-3.34 4.33 -2.68 4.66 -2 5 C-1.34 3.35 -0.68 1.7 0 0 Z " fill="#494A49" transform="translate(344,488)"/>
<path d="M0 0 C0.99 0 1.98 0 3 0 C3 3.63 3 7.26 3 11 C2.01 11 1.02 11 0 11 C0 7.37 0 3.74 0 0 Z " fill="#DEE2E5" transform="translate(413,784)"/>
<path d="M0 0 C10 1 10 1 19 4 C19 4.33 19 4.66 19 5 C9 4 9 4 0 1 C0 0.67 0 0.34 0 0 Z " fill="#CFCCCA" transform="translate(89,509)"/>
<path d="M0 0 C1.65 0 3.3 0 5 0 C5.33 0.66 5.66 1.32 6 2 C5.34 2 4.68 2 4 2 C4 5.3 4 8.6 4 12 C3.34 12 2.68 12 2 12 C2 8.7 2 5.4 2 2 C1.34 2 0.68 2 0 2 C0 1.34 0 0.68 0 0 Z " fill="#CCCACB" transform="translate(100,532)"/>
<path d="M0 0 C0.66 0 1.32 0 2 0 C0 6 0 6 -5 9 C-6.32 8.67 -7.64 8.34 -9 8 C-8.34 8 -7.68 8 -7 8 C-7 7.34 -7 6.68 -7 6 C-5.68 6 -4.36 6 -3 6 C-3 5.01 -3 4.02 -3 3 C-2.01 2.01 -1.02 1.02 0 0 Z " fill="#49494A" transform="translate(454,452)"/>
<path d="M0 0 C1 4 1 4 0 9 C-0.99 9.33 -1.98 9.66 -3 10 C-3.99 8.02 -4.98 6.04 -6 4 C-5.67 3.01 -5.34 2.02 -5 1 C-4.34 2.65 -3.68 4.3 -3 6 C-2.34 6 -1.68 6 -1 6 C-1 4.35 -1 2.7 -1 1 C-0.67 0.67 -0.34 0.34 0 0 Z " fill="#4E5151" transform="translate(516,463)"/>
<path d="M0 0 C0.99 0.33 1.98 0.66 3 1 C0.36 3.97 -2.28 6.94 -5 10 C-5 10.66 -5 11.32 -5 12 C-5.66 12 -6.32 12 -7 12 C-7.33 11.01 -7.66 10.02 -8 9 C-5.36 6.03 -2.72 3.06 0 0 Z " fill="#6C6C6C" transform="translate(512,439)"/>
<path d="M0 0 C0.33 0 0.66 0 1 0 C1 2.64 1 5.28 1 8 C-0.65 8.66 -2.3 9.32 -4 10 C-3 5 -3 5 0 0 Z " fill="#E3E9ED" transform="translate(312,440)"/>
<path d="M0 0 C3 3 3 3 5 10 C3.35 9.67 1.7 9.34 0 9 C0 6.03 0 3.06 0 0 Z " fill="#F0F1F3" transform="translate(317,440)"/>
<path d="M0 0 C0.33 0.99 0.66 1.98 1 3 C-2.3 6.63 -5.6 10.26 -9 14 C-9.66 13.67 -10.32 13.34 -11 13 C-8.03 9.7 -5.06 6.4 -2 3 C-1.34 2.01 -0.68 1.02 0 0 Z " fill="#535352" transform="translate(421,399)"/>
<path d="M0 0 C0.66 0.33 0.66 0.33 4 2 C4 1.34 4 0.68 4 0 C4.66 0 5.32 0 6 0 C6 2.31 6 4.62 6 7 C5.34 7 4.68 7 4 7 C3.34 6.34 2.68 5.68 2 5 C1.67 5.165 1.67 5.165 0 6 C0 4.02 0 2.04 0 0 Z " fill="#A9A9A8" transform="translate(69,612)"/>
<path d="M0 0 C2.64 0 5.28 0 8 0 C7 2 6 4 5 6 C4.34 6 3.68 6 3 6 C2.01 4.02 1.02 2.04 0 0 Z " fill="#D6D8DA" transform="translate(422,450)"/>
<path d="M0 0 C0.66 0.99 1.32 1.98 2 3 C0.02 6.96 -1.96 10.92 -4 15 C-4.66 14.67 -5.32 14.34 -6 14 C-4.114 9.286 -2.062 4.64 0 0 Z " fill="#656666" transform="translate(461,438)"/>
<path d="M0 0 C2.31 0 4.62 0 7 0 C6.505 0.495 6.505 0.495 4 3 C4 3.99 4 4.98 4 6 C3.01 5.835 3.01 5.835 -2 5 C-1.34 3.35 -0.68 1.7 0 0 Z " fill="#CED1D5" transform="translate(492,814)"/>
<path d="M0 0 C4.95 0 9.9 0 15 0 C12 2 12 2 5 3 C5 2.34 5 1.68 5 1 C3.35 1 1.7 1 0 1 C0 0.67 0 0.34 0 0 Z " fill="#F1F3F3" transform="translate(318,497)"/>
<path d="M0 0 C-3 2 -3 2 -14 5 C-14 4.34 -14 3.68 -14 3 C-4 -1 -4 -1 0 0 Z " fill="#666565" transform="translate(407,433)"/>
<path d="M0 0 C3 3 3 3 5 7 C4.67 7.99 4.34 8.98 4 10 C2.68 9.34 1.36 8.68 0 8 C0 5.36 0 2.72 0 0 Z " fill="#ECEEED" transform="translate(542,417)"/>
<path d="M0 0 C-0.66 0 -1.32 0 -2 0 C-2.33 0.99 -2.66 1.98 -3 3 C-5.64 3.33 -8.28 3.66 -11 4 C-11.33 3.34 -11.66 2.68 -12 2 C-4 -1 -4 -1 0 0 Z " fill="#DEE0E3" transform="translate(584,807)"/>
<path d="M0 0 C0.33 0.66 0.66 1.32 1 2 C-1.31 5.63 -3.62 9.26 -6 13 C-6.33 12.01 -6.66 11.02 -7 10 C-1 1 -1 1 0 0 Z " fill="#ABB5BD" transform="translate(288,709)"/>
<path d="M0 0 C0.66 0.66 1.32 1.32 2 2 C-0.64 5.63 -3.28 9.26 -6 13 C-6.66 12.67 -7.32 12.34 -8 12 C-5.36 8.04 -2.72 4.08 0 0 Z " fill="#5A5C5A" transform="translate(324,480)"/>
<path d="M0 0 C0.66 0.66 1.32 1.32 2 2 C-0.64 4.97 -3.28 7.94 -6 11 C-6.66 10.34 -7.32 9.68 -8 9 C-5.36 6.03 -2.72 3.06 0 0 Z " fill="#666765" transform="translate(292,458)"/>
<path d="M0 0 C0.99 0.33 1.98 0.66 3 1 C5 6 5 6 4 9 C4 8.34 4 7.68 4 7 C2.68 7 1.36 7 0 7 C0 4.69 0 2.38 0 0 Z " fill="#F6F6F6" transform="translate(429,405)"/>
<path d="M0 0 C2 2 2 2 4 8 C2.02 8 0.04 8 -2 8 C-1.34 5.36 -0.68 2.72 0 0 Z " fill="#DDE0E3" transform="translate(24,1302)"/>
<path d="M0 0 C2.31 1.98 4.62 3.96 7 6 C6.67 6.99 6.34 7.98 6 9 C4.35 7.35 2.7 5.7 1 4 C0.67 4.66 0.34 5.32 0 6 C-0.66 4.68 -1.32 3.36 -2 2 C-1.34 1.34 -0.68 0.68 0 0 Z " fill="#525351" transform="translate(432,401)"/>
<path d="M0 0 C0.66 0 1.32 0 2 0 C1.67 1.32 1.34 2.64 1 4 C1.99 4.165 1.99 4.165 7 5 C7 5.33 7 5.66 7 6 C4.69 6.33 2.38 6.66 0 7 C-0.33 7.495 -0.33 7.495 -2 10 C-2.66 9.67 -3.32 9.34 -4 9 C-2.68 6.03 -1.36 3.06 0 0 Z " fill="#EDEEF0" transform="translate(44,1298)"/>
<path d="M0 0 C0.33 0 0.66 0 1 0 C1.33 3.96 1.66 7.92 2 12 C1.34 12 0.68 12 0 12 C0 13.98 0 15.96 0 18 C-0.33 18 -0.66 18 -1 18 C-1 9 -1 9 0 0 Z " fill="#9CAEAA" transform="translate(266,684)"/>
<path d="M0 0 C9 2 9 2 12 4 C2 3 2 3 -1 1 C-0.67 0.67 -0.34 0.34 0 0 Z " fill="#D3D1D1" transform="translate(60,501)"/>
<path d="M0 0 C5 1 5 1 8 5 C7.67 5.66 7.34 6.32 7 7 C6.01 6.01 5.02 5.02 4 4 C3.67 4.165 3.67 4.165 2 5 C1.34 3.35 0.68 1.7 0 0 Z " fill="#4A4B4B" transform="translate(317,438)"/>
<path d="M0 0 C0 1.65 0 3.3 0 5 C-1.65 5 -3.3 5 -5 5 C-5 3.68 -5 2.36 -5 1 C-2 0 -2 0 0 0 Z " fill="#B3B7BC" transform="translate(532,819)"/>
<path d="M0 0 C2.97 0 5.94 0 9 0 C9.66 1.32 10.32 2.64 11 4 C7.37 3.01 3.74 2.02 0 1 C0 0.67 0 0.34 0 0 Z " fill="#DBDCDE" transform="translate(406,459)"/>
<path d="M0 0 C2.31 0.33 4.62 0.66 7 1 C7 1.99 7 2.98 7 4 C4.36 4 1.72 4 -1 4 C-0.01 3.67 0.98 3.34 2 3 C2 2.34 2 1.68 2 1 C1.34 0.67 0.68 0.34 0 0 Z " fill="#D9DCDF" transform="translate(514,814)"/>
<path d="M0 0 C1.32 0.66 2.64 1.32 4 2 C2.35 3.32 0.7 4.64 -1 6 C-1.99 5.34 -2.98 4.68 -4 4 C-2.68 2.68 -1.36 1.36 0 0 Z " fill="#C7CACE" transform="translate(241,813)"/>
<path d="M0 0 C2.31 0.66 4.62 1.32 7 2 C5.35 3.32 3.7 4.64 2 6 C1.34 5.67 0.68 5.34 0 5 C0 3.35 0 1.7 0 0 Z " fill="#C2C6CA" transform="translate(484,810)"/>
<path d="M0 0 C5 5 5 5 8 10 C7.01 10 6.02 10 5 10 C0 2 0 2 0 0 Z " fill="#5C5E5D" transform="translate(530,458)"/>
<path d="M0 0 C2.64 0.66 5.28 1.32 8 2 C7.67 2.99 7.34 3.98 7 5 C5.02 5 3.04 5 1 5 C1.66 4.67 2.32 4.34 3 4 C3 3.34 3 2.68 3 2 C2.01 1.67 1.02 1.34 0 1 C0 0.67 0 0.34 0 0 Z " fill="#DADDDF" transform="translate(262,813)"/>
<path d="M0 0 C3.96 0 7.92 0 12 0 C12 0.33 12 0.66 12 1 C9.69 1 7.38 1 5 1 C5 1.66 5 2.32 5 3 C3.68 3 2.36 3 1 3 C0.67 2.01 0.34 1.02 0 0 Z " fill="#DBDDE1" transform="translate(342,805)"/>
<path d="M0 0 C0.99 0 1.98 0 3 0 C3 1.98 3 3.96 3 6 C1.68 6 0.36 6 -1 6 C-1 1 -1 1 0 0 Z " fill="#9F9D9F" transform="translate(87,612)"/>
<path d="M0 0 C0.99 0.33 1.98 0.66 3 1 C2.67 2.98 2.34 4.96 2 7 C1.34 7 0.68 7 0 7 C-1 2 -1 2 0 0 Z " fill="#ABAAAA" transform="translate(116,535)"/>
<path d="M0 0 C4 2 4 2 6 5 C5.01 5.99 4.02 6.98 3 8 C2.01 7.67 1.02 7.34 0 7 C0.99 6.34 1.98 5.68 3 5 C2.01 3.35 1.02 1.7 0 0 Z " fill="#70716F" transform="translate(344,467)"/>
<path d="M0 0 C7 6 7 6 8 9 C4 7 4 7 0 2 C0 1.34 0 0.68 0 0 Z " fill="#585858" transform="translate(337,458)"/>
<path d="M0 0 C2.97 0 5.94 0 9 0 C6 2 6 2 -1 3 C-0.67 2.01 -0.34 1.02 0 0 Z " fill="#ECEDEF" transform="translate(437,459)"/>
<path d="M0 0 C1.32 0 2.64 0 4 0 C4 1.32 4 2.64 4 4 C2.35 4 0.7 4 -1 4 C-0.67 2.68 -0.34 1.36 0 0 Z " fill="#B8BBC0" transform="translate(276,820)"/>
<path d="M0 0 C0.99 0.33 1.98 0.66 3 1 C2.67 2.32 2.34 3.64 2 5 C0.68 4.67 -0.64 4.34 -2 4 C-1.34 2.68 -0.68 1.36 0 0 Z " fill="#C2C4C9" transform="translate(497,815)"/>
<path d="M0 0 C1.65 0 3.3 0 5 0 C4.34 1.65 3.68 3.3 3 5 C2.01 4.67 1.02 4.34 0 4 C0 2.68 0 1.36 0 0 Z " fill="#F6F6F6" transform="translate(509,457)"/>
<path d="M0 0 C1.98 1.65 3.96 3.3 6 5 C5.67 6.32 5.34 7.64 5 9 C4.67 8.34 4.34 7.68 4 7 C3.34 6.67 2.68 6.34 2 6 C1.34 4.02 0.68 2.04 0 0 Z " fill="#4E4E4E" transform="translate(458,431)"/>
<path d="M0 0 C1.98 0 3.96 0 6 0 C5.67 1.65 5.34 3.3 5 5 C4.01 5 3.02 5 2 5 C2 3.68 2 2.36 2 1 C1.34 0.67 0.68 0.34 0 0 Z " fill="#C1C4C9" transform="translate(278,819)"/>
<path d="M0 0 C1.32 0.33 2.64 0.66 4 1 C3.67 1.99 3.34 2.98 3 4 C3 4.99 3 5.98 3 7 C2.01 6.34 1.02 5.68 0 5 C0 3.35 0 1.7 0 0 Z " fill="#C6C8CC" transform="translate(233,810)"/>
<path d="M0 0 C1.65 0 3.3 0 5 0 C5 0.66 5 1.32 5 2 C4.01 2 3.02 2 2 2 C2 3.32 2 4.64 2 6 C1.34 6 0.68 6 0 6 C0 4.02 0 2.04 0 0 Z " fill="#D9D9D9" transform="translate(85,529)"/>
<path d="M0 0 C2 3 2 3 3 9 C2.34 9 1.68 9 1 9 C0.34 6.36 -0.32 3.72 -1 1 C-0.67 0.67 -0.34 0.34 0 0 Z " fill="#6D6E6C" transform="translate(334,474)"/>
<path d="M0 0 C0.66 1.32 1.32 2.64 2 4 C0.35 5.32 -1.3 6.64 -3 8 C-2 3 -2 3 0 0 Z " fill="#E9EBEC" transform="translate(305,455)"/>
<path d="M0 0 C0.33 0.66 0.66 1.32 1 2 C3.31 2 5.62 2 8 2 C8 2.33 8 2.66 8 3 C5.36 3.33 2.72 3.66 0 4 C-0.33 4.66 -0.66 5.32 -1 6 C-1.33 4.68 -1.66 3.36 -2 2 C-1.34 1.34 -0.68 0.68 0 0 Z " fill="#454443" transform="translate(408,430)"/>
<path d="M0 0 C2.31 1.98 4.62 3.96 7 6 C6.34 6.66 5.68 7.32 5 8 C0 2 0 2 0 0 Z " fill="#606060" transform="translate(548,418)"/>
<path d="M0 0 C0.99 0.33 1.98 0.66 3 1 C1.02 2.98 -0.96 4.96 -3 7 C-3.66 6.67 -4.32 6.34 -5 6 C-3.35 4.02 -1.7 2.04 0 0 Z " fill="#5F5F5E" transform="translate(409,413)"/>
<path d="M0 0 C0.33 0.66 0.66 1.32 1 2 C-2 6 -2 6 -6 8 C-4 4 -4 4 0 0 Z " fill="#E7E7E7" transform="translate(418,406)"/>
<path d="M0 0 C-0.33 0.495 -0.33 0.495 -2 3 C-3.98 2.34 -5.96 1.68 -8 1 C-5 -1 -5 -1 0 0 Z " fill="#E0E3E5" transform="translate(245,811)"/>
<path d="M0 0 C1.98 0 3.96 0 6 0 C6 0.99 6 1.98 6 3 C4.35 3 2.7 3 1 3 C0.67 2.01 0.34 1.02 0 0 Z " fill="#DEE1E3" transform="translate(311,802)"/>
<path d="M0 0 C0.66 1.32 1.32 2.64 2 4 C1.34 5.65 0.68 7.3 0 9 C-0.99 8.01 -1.98 7.02 -3 6 C-2.34 6 -1.68 6 -1 6 C-0.67 4.02 -0.34 2.04 0 0 Z " fill="#6A6C6C" transform="translate(402,448)"/>
<path d="M0 0 C2.31 1.98 4.62 3.96 7 6 C6.34 6.66 5.68 7.32 5 8 C0 2 0 2 0 0 Z " fill="#616162" transform="translate(452,424)"/>
</svg>
