<?xml version="1.0" encoding="UTF-8"?>
<!-- Generator: visioncortex VTracer 0.6.12 -->
<svg version="1.1" xmlns="http://www.w3.org/2000/svg" width="768" height="1344">
<path d="M0 0 C253.44 0 506.88 0 768 0 C768 443.52 768 887.04 768 1344 C514.56 1344 261.12 1344 0 1344 C0 900.48 0 456.96 0 0 Z " fill="#FEFEFD" transform="translate(0,0)"/>
<path d="M0 0 C253.44 0 506.88 0 768 0 C768 86.46 768 172.92 768 262 C749.85 262 731.7 262 713 262 C712.67 268.27 712.34 274.54 712 281 C711.062 290.25 711.062 290.25 710.774 293.083 C708.853 312.165 708.524 330.626 708 350 C693.81 350 679.62 350 665 350 C665 324.87 666.5 300.002 669 275 C669.33 270.71 669.66 266.42 670 262 C648.88 262 627.76 262 606 262 C606 280.15 606 298.3 606 317 C608.97 317 611.94 317 615 317 C635.146 323.715 645.518 333.138 657 351 C661 363 661 363 661 376 C622.39 376 583.78 376 544 376 C544 356.875 550.347 345.059 563 331 C574.645 321.943 584.009 317 599 317 C599 298.85 599 280.7 599 262 C468.65 262 338.3 262 204 262 C206.97 270.91 209.94 279.82 213 289 C228.85 339.719 237.21 392.994 240 446 C240.33 448.31 240.66 450.62 241 453 C241 462.9 241 472.8 241 483 C225.82 483 210.64 483 195 483 C194.34 465.51 193.68 448.02 193 430 C191.68 416.8 190.36 403.6 189 390 C187.845 391.32 187.845 391.32 182 398 C174 402 174 402 160 402 C147.261 395.631 145.908 394.498 141 381 C141 379.35 141 377.7 141 376 C130.11 376 119.22 376 108 376 C108 356.073 115.69 343.52 129 329 C141.437 321.086 148.229 317 163 317 C163 298.85 163 280.7 163 262 C131.65 262 100.3 262 68 262 C67.34 264.97 66.68 267.94 66 271 C63.69 279.58 61.38 288.16 59 297 C56.348 308.934 54.01 320.942 52 333 C51.34 335.64 50.68 338.28 50 341 C49.67 344.3 49.34 347.6 49 351 C48.34 353.64 47.68 356.28 47 359 C44.634 380.296 42.527 401.628 41 423 C40.34 429.93 39.68 436.86 39 444 C38.67 456.87 38.34 469.74 38 483 C25.46 483 12.92 483 0 483 C0 323.61 0 164.22 0 0 Z " fill="#EDEEEE" transform="translate(0,0)"/>
<path d="M0 0 C6 1 6 1 10 6 C14 15 14 15 14 21 C15.65 20.01 17.3 19.02 19 18 C21.31 18 23.62 18 26 18 C30 22 30 22 30 33 C26 42 26 42 23 47 C24.98 47 26.96 47 29 47 C29.99 47.99 30.98 48.98 32 50 C32 52.31 32 54.62 32 57 C31.67 57.33 31.67 57.33 30 59 C28.68 59 27.36 59 26 59 C25.67 63.29 25.34 67.58 25 72 C24.34 74.97 23.68 77.94 23 81 C22.34 84.96 21.68 88.92 21 93 C20.34 93.66 19.68 94.32 19 95 C46.39 95.33 73.78 95.66 102 96 C107 99 107 99 111 105 C111 112 111 112 107 119 C79.258 132.871 45.016 122 14 122 C14 154.34 14 186.68 14 220 C28.52 220 43.04 220 58 220 C58 210.76 58 201.52 58 192 C55.36 191.67 52.72 191.34 50 191 C42 185 42 185 38 176 C38 165 38 165 42 158 C68.417 135.357 71.787 150 129 150 C129 145.05 129 140.1 129 135 C132 93 132 93 133 87 C133.33 81.06 133.66 75.12 134 69 C137.655 61.691 140.205 56.898 148 53 C162 53 162 53 171 59 C182.876 76.814 173.62 106.177 172 124 C171.34 133.57 170.68 143.14 170 153 C167.24 179.223 167.24 179.223 157 188 C154.69 188.99 152.38 189.98 150 191 C149.67 200.57 149.34 210.14 149 220 C182.99 220 216.98 220 252 220 C252 210.43 252 200.86 252 191 C250.35 190.67 248.7 190.34 247 190 C239.852 184.639 237.013 182.027 233 174 C232.34 165.09 231.68 156.18 231 147 C230.67 145.02 230.34 143.04 230 141 C229.67 134.4 229.34 127.8 229 121 C228.34 114.565 228.34 114.565 225 82 C225 68 225 68 230 59 C239 53 239 53 253 53 C262 59 262 59 267 68 C268.634 85.975 269.874 103.986 271 122 C271.33 124.64 271.66 127.28 272 130 C272 136.6 272 143.2 272 150 C296.42 150 320.84 150 346 150 C356 155 356 155 362 164 C362 177 362 177 358 185 C350.5 191 350.5 191 342 191 C342 200.57 342 210.14 342 220 C362.46 220 382.92 220 404 220 C404 187.66 404 155.32 404 122 C374.63 122 345.26 122 315 122 C310 119 310 119 306 113 C306 105 306 105 310 99 C344.409 73.193 395.988 96 439 96 C439.66 88.08 440.32 80.16 441 72 C445 42 445 42 447 33 C447.495 30.03 447.495 30.03 450 15 C455.28 13.68 460.56 12.36 466 11 C471.28 8.36 476.56 5.72 482 3 C483.32 2.67 484.64 2.34 486 2 C484.829 16.05 482.863 30.025 481 44 C479.251 61.328 477.545 78.653 476 96 C489.2 96 502.4 96 516 96 C522 100 522 100 525 105 C525 112 525 112 521 119 C507.256 125.872 490.366 122 475 122 C475 127.28 475 132.56 475 138 C462.79 138 450.58 138 438 138 C438 132.72 438 127.44 438 122 C435.03 122 432.06 122 429 122 C429 154.34 429 186.68 429 220 C443.19 220 457.38 220 472 220 C472 210.76 472 201.52 472 192 C469.03 191.34 466.06 190.68 463 190 C456 184 456 184 452 176 C452 166 452 166 456 158 C482.179 135.561 485.314 150 542 150 C542.66 137.79 543.32 125.58 544 113 C547.07 68.488 547.07 68.488 553 59 C562.26 51.283 561.108 53 575 53 C584 59 584 59 589 67 C589 189.76 589 312.52 589 439 C335.56 439 82.12 439 -179 439 C-179 366.73 -179 294.46 -179 220 C-168.11 220 -157.22 220 -146 220 C-145.67 241.12 -145.34 262.24 -145 284 C-143.35 285.65 -141.7 287.3 -140 289 C-62 289 -62 289 -57 285 C-56.67 263.55 -56.34 242.1 -56 220 C-41.15 220 -26.3 220 -11 220 C-11 187.66 -11 155.32 -11 122 C-40.37 122 -69.74 122 -100 122 C-107 116 -107 116 -108 114 C-108 103 -108 103 -103 97 C-76.757 83.878 -44.339 95.341 -15 95 C-15.66 94.01 -16.32 93.02 -17 92 C-22 69.5 -22 69.5 -22 59 C-23.32 58.67 -24.64 58.34 -26 58 C-28 55 -28 55 -27 49 C-25 47 -25 47 -20 46 C-20.66 44.68 -20.66 44.68 -24 38 C-26 31 -26 31 -26 23 C-25.34 22.175 -25.34 22.175 -22 18 C-16 18 -16 18 -10 21 C-9.01 17.04 -8.02 13.08 -7 9 C-3 3 -3 3 0 0 Z " fill="#898989" transform="translate(179,905)"/>
<path d="M0 0 C25.996 20.219 39.512 41.558 46 74 C46 161.78 46 249.56 46 340 C50.62 340 55.24 340 60 340 C79.281 345.509 91.788 354.182 103 371 C103 424.79 103 478.58 103 534 C102.01 532.68 101.02 531.36 100 530 C96 525 96 525 89 521 C76 521 76 521 69 525 C53.443 544.446 58.35 589.854 57 611 C56.67 612.98 56.34 614.96 56 617 C31.25 617.33 6.5 617.66 -19 618 C-30.571 625.714 -30.571 625.714 -33 633 C-33 643 -33 643 -28 652 C-21 657 -21 657 -14 659 C-14 668.24 -14 677.48 -14 687 C-28.19 687 -42.38 687 -57 687 C-57 654.66 -57 622.32 -57 589 C-54.03 589 -51.06 589 -48 589 C-48 594.28 -48 599.56 -48 605 C-35.79 605 -23.58 605 -11 605 C-11 599.72 -11 594.44 -11 589 C2.2 588.67 15.4 588.34 29 588 C35 585 35 585 38 579 C38 572 38 572 34 566 C20.851 559.426 4.696 563.367 -10 563 C-8.564 531.401 -4.996 500.223 0 469 C-2.64 470.32 -2.64 470.32 -16 477 C-93.236 510.101 -190.762 502.966 -270 475 C-298.598 457.841 -315.034 437.892 -325 406 C-346.112 289.881 -372.016 141.029 -312 31 C-245.122 -55.942 -89.54 -47.404 0 0 Z " fill="#E5E5E5" transform="translate(665,438)"/>
<path d="M0 0 C24.718 17.976 37.954 37.77 44 68 C44 111.56 44 155.12 44 200 C38.39 198.68 32.78 197.36 27 196 C2.645 196 -8.959 198.964 -27 215 C-34.822 227.167 -39.603 236.62 -42 251 C-49.26 251 -56.52 251 -64 251 C-76.617 256.047 -80.96 259.267 -88 271 C-88.99 274.63 -89.98 278.26 -91 282 C-97.93 282 -104.86 282 -112 282 C-122.338 287.169 -128.109 290.182 -134 300 C-134.66 302.31 -135.32 304.62 -136 307 C-137.32 306.34 -138.64 305.68 -140 305 C-151 300 -151 300 -170 300 C-171.32 297.03 -172.64 294.06 -174 291 C-183.701 283.239 -187.713 284 -201 284 C-201.66 281.03 -202.32 278.06 -203 275 C-207.042 265.3 -210.483 257.517 -218 250 C-218 249.34 -218 248.68 -218 248 C-219.32 247.34 -220.64 246.68 -222 246 C-224.64 244.02 -227.28 242.04 -230 240 C-251.251 229.375 -266.827 228.758 -290 236 C-291.65 236.99 -293.3 237.98 -295 239 C-295.66 239 -296.32 239 -297 239 C-297 46.818 -297 46.818 -272 15 C-202.706 -47.365 -79.803 -39.902 0 0 Z " fill="#98D7FB" transform="translate(651,452)"/>
<path d="M0 0 C36.556 82.252 4 179.99 4 270 C-1 280 -1 280 -9 285 C-70.033 305.344 -137.666 286 -202 286 C-210 282 -210 282 -216 274 C-237.586 187.657 -217 96.001 -217 7 C-212 -1 -212 -1 -207 -5 C-47.4 -31.6 -47.4 -31.6 0 0 Z " fill="#F8C55A" transform="translate(270,517)"/>
<path d="M0 0 C4 4 4 4 4 24 C-7.448 31.632 -17.168 32 -31 32 C-31 50.48 -31 68.96 -31 88 C110.57 88 252.14 88 398 88 C398 69.52 398 51.04 398 32 C394.37 32 390.74 32 387 32 C368.091 29.091 368.091 29.091 363 24 C363 17.4 363 10.8 363 4 C380.237 -10.364 403.344 -4 425 -4 C436 0 436 0 440 4 C440 10.6 440 17.2 440 24 C426.549 32.407 421.678 31.158 404 32 C404.33 87.11 404.66 142.22 405 199 C409.62 199.66 414.24 200.32 419 201 C437.091 210.046 445.089 217.027 456 234 C460 246 460 246 460 259 C421.39 259 382.78 259 343 259 C343 239.875 349.347 228.059 362 214 C373.645 204.943 383.009 200 398 200 C398 181.85 398 163.7 398 145 C267.65 145 137.3 145 3 145 C5.97 153.91 8.94 162.82 12 172 C27.85 222.719 36.21 275.994 39 329 C39.33 331.31 39.66 333.62 40 336 C40 345.9 40 355.8 40 366 C24.82 366 9.64 366 -6 366 C-6.66 348.51 -7.32 331.02 -8 313 C-8.66 306.4 -8.66 306.4 -12 273 C-13.155 274.32 -13.155 274.32 -19 281 C-27 285 -27 285 -41 285 C-53.739 278.631 -55.092 277.498 -60 264 C-60 262.35 -60 260.7 -60 259 C-70.89 259 -81.78 259 -93 259 C-93 239.073 -85.31 226.52 -72 212 C-59.747 204.203 -52.4 200.44 -38 199 C-37.67 143.89 -37.34 88.78 -37 32 C-41.62 32 -46.24 32 -51 32 C-67.545 28.455 -67.545 28.455 -72 24 C-72 17.4 -72 10.8 -72 4 C-52.542 -12.215 -22.856 -7.619 0 0 Z " fill="#E3E4E3" transform="translate(201,117)"/>
<path d="M0 0 C18.858 18.858 1 53.331 1 80 C-5.957 113.047 -19.946 133.297 -48 152 C-119.205 181.32 -204.04 177.723 -278 158 C-308.811 142.594 -326.986 124.041 -338 91 C-341.937 69.345 -340 47.01 -340 25 C-303.842 15.96 -266.71 33.493 -234 46 C-190.627 58.392 -156.315 40.54 -116 24 C-76.001 9.186 -42.826 0 0 0 Z " fill="#66975D" transform="translate(694,744)"/>
<path d="M0 0 C33.433 20.06 45.324 59.296 54.32 95.279 C63 130 63 130 63 142 C39.24 142.33 15.48 142.66 -9 143 C-14 147 -14 147 -15 149 C-15 160 -15 160 -10 166 C17.138 179.569 50.661 167.659 81 168 C81 200.34 81 232.68 81 266 C66.15 266 51.3 266 36 266 C36 287.45 36 308.9 36 331 C14.452 348.957 -19.95 336 -48 336 C-53 332 -53 332 -54 330 C-54 308.88 -54 287.76 -54 266 C-64.89 266 -75.78 266 -87 266 C-87 48.667 -87 48.667 -61 14 C-42.977 -4.023 -24.534 -8.178 0 0 Z " fill="#F8C559" transform="translate(87,859)"/>
<path d="M0 0 C0 30.36 0 60.72 0 92 C-5.775 92.165 -5.775 92.165 -35 93 C-77.585 101.189 -115.956 116.572 -156 133 C-201.865 148.288 -232.398 140.294 -274 124 C-300.276 117.744 -311.97 116.806 -341 116 C-341 90.92 -341 65.84 -341 40 C-327.49 29.192 -313.719 30 -297 30 C-277.969 34.758 -266.004 42.996 -254 58 C-246.143 73.714 -246.143 73.714 -245 84 C-244.34 83.67 -243.68 83.34 -243 83 C-230 83 -230 83 -220 88 C-215 94 -215 94 -214 100 C-212.68 99.67 -211.36 99.34 -210 99 C-196.093 99 -191.566 99.29 -180 107 C-179.34 104.03 -178.68 101.06 -178 98 C-170.627 89.808 -166.051 85.02 -156 81 C-138 81 -138 81 -135 82 C-134.67 79.03 -134.34 76.06 -134 73 C-127.35 61.03 -121.591 54.53 -108 50 C-91 50 -91 50 -86 51 C-85.67 47.7 -85.34 44.4 -85 41 C-78.298 20.894 -68.755 10.414 -51 -1 C-33.317 -6.441 -17.333 -6.933 0 0 Z " fill="#FEFEFE" transform="translate(695,652)"/>
<path d="M0 0 C11 0 11 0 20 4 C45.433 29.433 51.323 69.941 57 104 C57 126.44 57 148.88 57 172 C56.01 170.68 55.02 169.36 54 168 C50 163 50 163 43 159 C30 159 30 159 23 163 C7.443 182.446 12.35 227.854 11 249 C10.835 249.99 10.835 249.99 10 255 C-14.75 255.33 -39.5 255.66 -65 256 C-76.571 263.714 -76.571 263.714 -79 271 C-79 281 -79 281 -74 290 C-67 295 -67 295 -60 297 C-60 306.24 -60 315.48 -60 325 C-74.19 325 -88.38 325 -103 325 C-103 292.66 -103 260.32 -103 227 C-100.03 227 -97.06 227 -94 227 C-94 232.28 -94 237.56 -94 243 C-81.79 243 -69.58 243 -57 243 C-57 237.72 -57 232.44 -57 227 C-43.8 226.67 -30.6 226.34 -17 226 C-11 223 -11 223 -8 217 C-8 210 -8 210 -12 204 C-25.149 197.426 -41.304 201.367 -56 201 C-54.542 168.917 -52.815 136.26 -45 105 C-35 97 -35 97 -32 96 C-32 95.34 -32 94.68 -32 94 C-31.01 93.01 -30.02 92.02 -29 91 C-28.34 91 -27.68 91 -27 91 C-26.67 90.34 -26.67 90.34 -25 87 C-23.68 85.35 -23.68 85.35 -17 77 C-2.352 49.332 -0.961 31.703 0 0 Z " fill="#FEFDFD" transform="translate(711,800)"/>
<path d="M0 0 C18.858 18.858 1 53.331 1 80 C0.67 81.98 0.34 83.96 0 86 C-0.33 85.34 -0.66 84.68 -1 84 C-2.98 83.67 -4.96 83.34 -7 83 C-11.29 81.68 -15.58 80.36 -20 79 C-62.799 72.886 -99.68 79.126 -141 90 C-166.298 94.743 -188.665 94.63 -214 89 C-216.97 88.67 -219.94 88.34 -223 88 C-223.66 87.67 -224.32 87.34 -225 87 C-263.487 82.472 -295.974 85.49 -332 99 C-332.495 99.165 -332.495 99.165 -335 100 C-343.662 74.013 -340 56.277 -340 25 C-303.842 15.96 -266.71 33.493 -234 46 C-190.627 58.392 -156.315 40.54 -116 24 C-76.001 9.186 -42.826 0 0 0 Z " fill="#81B166" transform="translate(694,744)"/>
<path d="M0 0 C9 6 9 6 14 14 C14 64.49 14 114.98 14 167 C5.42 167 -3.16 167 -12 167 C-12 188.12 -12 209.24 -12 231 C-16 236 -16 236 -19 237 C-97 237 -97 237 -102 233 C-111.909 203.273 -103 170.335 -103 139 C-105.97 138.34 -108.94 137.68 -112 137 C-119 131 -119 131 -123 123 C-123 113 -123 113 -119 105 C-92.821 82.561 -89.686 97 -33 97 C-32.34 84.79 -31.68 72.58 -31 60 C-27.93 15.488 -27.93 15.488 -22 6 C-12.74 -1.717 -13.892 0 0 0 Z " fill="#F7C459" transform="translate(754,958)"/>
<path d="M0 0 C11.571 7.714 11.571 7.714 14 15 C14 33.714 11.694 52.363 10 71 C9.34 80.57 8.68 90.14 8 100 C5.24 126.223 5.24 126.223 -5 135 C-7.31 135.99 -9.62 136.98 -12 138 C-12.33 169.02 -12.66 200.04 -13 232 C-17 236 -17 236 -19 237 C-98 237 -98 237 -103 233 C-112.909 203.273 -104 170.335 -104 139 C-106.64 138.67 -109.28 138.34 -112 138 C-120 132 -120 132 -124 123 C-124 112 -124 112 -120 105 C-93.583 82.357 -90.213 97 -33 97 C-33 92.05 -33 87.1 -33 82 C-30 40 -30 40 -29 34 C-28.67 28.06 -28.34 22.12 -28 16 C-20.415 0.83 -16.113 0 0 0 Z " fill="#E55950" transform="translate(341,958)"/>
<path d="M0 0 C9 6 9 6 14 15 C15.634 32.975 16.874 50.986 18 69 C18.165 70.32 18.165 70.32 19 77 C19 83.6 19 90.2 19 97 C43.42 97 67.84 97 93 97 C103 102 103 102 109 111 C109 124 109 124 105 132 C97.5 138 97.5 138 89 138 C89.165 142.785 89.165 142.785 90 167 C90 230 90 230 87 235 C62.545 247.227 32.341 237 5 237 C4.01 236.175 4.01 236.175 -1 232 C-1 200.98 -1 169.96 -1 138 C-2.65 137.67 -4.3 137.34 -6 137 C-13.148 131.639 -15.987 129.027 -20 121 C-20.66 112.09 -21.32 103.18 -22 94 C-22.165 93.01 -22.165 93.01 -23 88 C-23.33 81.4 -23.66 74.8 -24 68 C-25.32 55.13 -26.64 42.26 -28 29 C-28 15 -28 15 -23 6 C-14 0 -14 0 0 0 Z " fill="#E65A50" transform="translate(432,958)"/>
<path d="M0 0 C6 1 6 1 10 6 C14 15 14 15 14 21 C15.65 20.01 17.3 19.02 19 18 C21.31 18 23.62 18 26 18 C30 22 30 22 30 33 C26 42 26 42 23 47 C24.98 47 26.96 47 29 47 C29.99 47.99 30.98 48.98 32 50 C32 52.31 32 54.62 32 57 C31.67 57.33 31.67 57.33 30 59 C28.68 59 27.36 59 26 59 C25.67 63.29 25.34 67.58 25 72 C24.34 74.97 23.68 77.94 23 81 C22.34 84.96 21.68 88.92 21 93 C20.34 93.66 19.68 94.32 19 95 C46.39 95.33 73.78 95.66 102 96 C107 99 107 99 111 105 C111 112 111 112 107 119 C79.258 132.871 45.016 122 14 122 C14 167.54 14 213.08 14 260 C20.6 260 27.2 260 34 260 C40.448 264.299 44.102 267.756 47 275 C47 279.95 47 284.9 47 290 C16.64 290 -13.72 290 -45 290 C-45 277 -45 277 -40 267 C-31.833 260 -31.833 260 -11 260 C-11 214.46 -11 168.92 -11 122 C-40.37 122 -69.74 122 -100 122 C-107 116 -107 116 -108 114 C-108 103 -108 103 -103 97 C-76.757 83.878 -44.339 95.341 -15 95 C-15.66 94.01 -16.32 93.02 -17 92 C-22 69.5 -22 69.5 -22 59 C-22.66 58.835 -22.66 58.835 -26 58 C-28 55 -28 55 -27 49 C-25 47 -25 47 -20 46 C-21.32 43.36 -22.64 40.72 -24 38 C-26 31 -26 31 -26 23 C-24.68 21.35 -23.36 19.7 -22 18 C-16 18 -16 18 -10 21 C-9.01 17.04 -8.02 13.08 -7 9 C-3 3 -3 3 0 0 Z " fill="#F8C558" transform="translate(179,905)"/>
<path d="M0 0 C-1.171 14.05 -3.137 28.025 -5 42 C-6.749 59.328 -8.455 76.653 -10 94 C3.2 94 16.4 94 30 94 C36 98 36 98 39 103 C39 110 39 110 35 117 C21.256 123.872 4.366 120 -11 120 C-11 125.28 -11 130.56 -11 136 C-23.21 136 -35.42 136 -48 136 C-48 130.72 -48 125.44 -48 120 C-50.97 120 -53.94 120 -57 120 C-57 165.54 -57 211.08 -57 258 C-50.73 258 -44.46 258 -38 258 C-31.212 261.879 -26.61 265.169 -24 273 C-24 277.95 -24 282.9 -24 288 C-54.36 288 -84.72 288 -116 288 C-116 275.557 -115.089 270.437 -107 261 C-102 258 -102 258 -82 258 C-82 212.46 -82 166.92 -82 120 C-111.37 120 -140.74 120 -171 120 C-176 117 -176 117 -180 111 C-180 103 -180 103 -176 97 C-141.591 71.193 -90.012 94 -47 94 C-46.34 86.08 -45.68 78.16 -45 70 C-41 40 -41 40 -39 31 C-38.01 25.06 -37.02 19.12 -36 13 C-30.72 11.68 -25.44 10.36 -20 9 C-18.868 8.434 -17.736 7.868 -16.57 7.285 C-2 0 -2 0 0 0 Z " fill="#F8C559" transform="translate(665,907)"/>
<path d="M0 0 C20.13 0 40.26 0 61 0 C61 13.2 61 26.4 61 40 C57.7 40.165 57.7 40.165 41 41 C33 47 33 47 29 54 C28.34 59.28 27.68 64.56 27 70 C57.36 70 87.72 70 119 70 C118 55 118 55 114 47 C103.232 38.026 104.031 40.949 86 40 C86 26.8 86 13.6 86 0 C100.19 0 114.38 0 129 0 C129.33 20.79 129.66 41.58 130 63 C133 68 133 68 135 69 C213 69 213 69 218 66 C227.843 46.314 219.656 22.007 220 0 C228.58 0 237.16 0 246 0 C246 23.1 246 46.2 246 70 C189.617 118.328 56.521 95.621 -9 93 C-88.655 86.172 -88.655 86.172 -113 74 C-113.33 73.01 -113.33 73.01 -115 68 C-108.642 61.642 -100.671 59.168 -92 57 C-91.34 59.64 -90.68 62.28 -90 65 C-68.371 82.303 -34.699 69 -7 69 C-3 67 -3 67 -1 63 C-0.67 42.21 -0.34 21.42 0 0 Z " fill="#7C7C7B" transform="translate(522,1125)"/>
<path d="M0 0 C14.85 0 29.7 0 45 0 C45 13.2 45 26.4 45 40 C41.7 40.165 41.7 40.165 25 41 C17 47 17 47 12 57 C11.67 61.29 11.34 65.58 11 70 C41.36 70 71.72 70 103 70 C102 55 102 55 98 47 C86.661 37.551 90.664 41.033 70 40 C70 26.8 70 13.6 70 0 C84.52 0 99.04 0 114 0 C114.33 20.79 114.66 41.58 115 63 C118 68 118 68 120 69 C199 69 199 69 203 67 C205 63 205 63 206 57 C222 61 222 61 231 66 C231.33 67.98 231.66 69.96 232 72 C170.934 115.619 -14.423 95.55 -83 85 C-109.563 78.75 -109.563 78.75 -118 72 C-118.33 71.01 -118.66 70.02 -119 69 C-110.864 60.864 -104.371 59.624 -93 57 C-92.01 57 -91.02 57 -90 57 C-89.34 59.97 -88.68 62.94 -88 66 C-66.119 82.411 -33.352 69 -6 69 C-4.35 67.68 -2.7 66.36 -1 65 C-0.67 43.55 -0.34 22.1 0 0 Z " fill="#7B7A7A" transform="translate(123,1125)"/>
<path d="M0 0 C16.17 0 32.34 0 49 0 C47.68 0.66 46.36 1.32 45 2 C14.833 18.759 7.329 56.348 -2 87 C-4.958 100.607 -7.711 114.265 -10 128 C-10.66 130.64 -11.32 133.28 -12 136 C-12.33 139.3 -12.66 142.6 -13 146 C-13.66 148.64 -14.32 151.28 -15 154 C-17.366 175.296 -19.473 196.628 -21 218 C-21.66 224.93 -22.32 231.86 -23 239 C-23.33 251.87 -23.66 264.74 -24 278 C-36.54 278 -49.08 278 -62 278 C-62 143 -62 143 -42 83 C-40.68 78.71 -39.36 74.42 -38 70 C-18.308 18.308 -18.308 18.308 0 0 Z " fill="#FBD786" transform="translate(62,205)"/>
<path d="M0 0 C31.453 20.968 35.22 66.102 42 100 C42.99 108.58 43.98 117.16 45 126 C32.13 126.33 19.26 126.66 6 127 C1 131 1 131 0 133 C0 144 0 144 5 150 C17.834 156.417 33.655 151.65 48 152 C49 163 49 163 49 180 C26.89 180 4.78 180 -18 180 C-20.396 156.036 -22.284 132.022 -24 108 C-26.538 92.769 -26.538 92.769 -35 86 C-40 84 -40 84 -51 83 C-51 56.376 -38.477 26.597 -22 6 C-13 0 -13 0 0 0 Z " fill="#FEFEFC" transform="translate(72,875)"/>
<path d="M0 0 C4 4 4 4 4 24 C-7.448 31.632 -17.168 32 -31 32 C-30 88 -30 88 -21 99 C2 136.375 2 136.375 2 145 C-8.89 145 -19.78 145 -31 145 C-31 162.82 -31 180.64 -31 199 C-25.39 199.99 -19.78 200.98 -14 202 C7.294 214.422 17.537 226.302 24 250 C24 252.97 24 255.94 24 259 C-14.61 259 -53.22 259 -93 259 C-93 239.073 -85.31 226.52 -72 212 C-59.747 204.203 -52.4 200.44 -38 199 C-37.67 143.89 -37.34 88.78 -37 32 C-41.62 32 -46.24 32 -51 32 C-67.545 28.455 -67.545 28.455 -72 24 C-72 17.4 -72 10.8 -72 4 C-52.542 -12.215 -22.856 -7.619 0 0 Z " fill="#F8C559" transform="translate(201,117)"/>
<path d="M0 0 C33.433 20.06 45.324 59.296 54.32 95.279 C63 130 63 130 63 142 C52.11 142 41.22 142 30 142 C26.079 134.157 27.088 124.701 26 116 C12.038 46.192 12.038 46.192 -6 23 C-15 17 -15 17 -28 17 C-52.803 33.536 -58.204 64.815 -65 92 C-65 94.64 -65 97.28 -65 100 C-67.64 101.32 -70.28 102.64 -73 104 C-90.187 128.062 -73.281 193.453 -72 207 C-71.67 211.29 -71.34 215.58 -71 220 C-66.589 228.822 -62.79 232.605 -54 237 C-54 246.57 -54 256.14 -54 266 C-64.89 266 -75.78 266 -87 266 C-87 48.667 -87 48.667 -61 14 C-42.977 -4.023 -24.534 -8.178 0 0 Z " fill="#FBD787" transform="translate(87,859)"/>
<path d="M0 0 C4 4 4 4 4 24 C-9.451 32.407 -14.322 31.158 -32 32 C-31.67 87.11 -31.34 142.22 -31 199 C-26.38 199.66 -21.76 200.32 -17 201 C1.091 210.046 9.089 217.027 20 234 C24 246 24 246 24 259 C-14.61 259 -53.22 259 -93 259 C-93 239.875 -86.653 228.059 -74 214 C-62.355 204.943 -52.991 200 -38 200 C-38 144.56 -38 89.12 -38 32 C-41.63 32 -45.26 32 -49 32 C-67.909 29.091 -67.909 29.091 -73 24 C-73 17.4 -73 10.8 -73 4 C-53.801 -11.999 -22.246 -8.09 0 0 Z " fill="#F9C558" transform="translate(637,117)"/>
<path d="M0 0 C10.89 0 21.78 0 33 0 C35.843 5.686 37.818 10.585 39.688 16.5 C39.81 16.886 39.81 16.886 40.428 18.84 C57.349 72.388 67.048 127.906 70 184 C70.165 185.155 70.165 185.155 71 191 C71 200.9 71 210.8 71 221 C55.82 221 40.64 221 25 221 C24.34 203.51 23.68 186.02 23 168 C21.68 154.8 20.36 141.6 19 128 C16.69 130.64 14.38 133.28 12 136 C4 140 4 140 -10 140 C-22.739 133.631 -24.092 132.498 -29 119 C-29 117.35 -29 115.7 -29 114 C-1.28 114 26.44 114 55 114 C52.339 96.702 48.456 84.366 37 71 C24.069 61.596 15.911 57.273 0 55 C-0.165 54.835 -0.165 54.835 -1 54 C-1 35.997 -0.946 17.978 0 0 Z " fill="#FAD787" transform="translate(170,262)"/>
<path d="M0 0 C9 6 9 6 14 14 C14 33 14 33 12 53 C10.35 74.12 8.7 95.24 7 117 C2.219 128.952 -0.214 132.762 -12 138 C-44.451 148.817 -81.813 149.366 -113 136 C-119 131 -119 131 -123 123 C-123 113 -123 113 -119 105 C-92.821 82.561 -89.686 97 -33 97 C-32.34 84.79 -31.68 72.58 -31 60 C-27.93 15.488 -27.93 15.488 -22 6 C-12.74 -1.717 -13.892 0 0 0 Z " fill="#E5584F" transform="translate(754,958)"/>
<path d="M0 0 C30.03 0 60.06 0 91 0 C91 30.69 91 61.38 91 93 C87 97 87 97 85 98 C6 98 6 98 1 94 C-8.909 64.273 0 31.335 0 0 Z " fill="#F7C457" transform="translate(237,1097)"/>
<path d="M0 0 C14.85 0.165 14.85 0.165 90 1 C93.124 88.461 93.124 88.461 88 97 C63.545 109.227 33.341 99 6 99 C4.02 97.35 2.04 95.7 0 94 C0 62.98 0 31.96 0 0 Z " fill="#F7C559" transform="translate(431,1096)"/>
<path d="M0 0 C29.37 0 58.74 0 89 0 C89 30.69 89 61.38 89 93 C67.452 110.957 33.05 98 5 98 C0 94 0 94 -1 92 C-1.092 72.349 -0.802 52.71 -0.5 33.062 C-0.417 27.607 -0.417 27.607 0 0 Z " fill="#F7C457" transform="translate(34,1097)"/>
<path d="M0 0 C8.25 0 16.5 0 25 0 C25 45.54 25 91.08 25 138 C31.6 138 38.2 138 45 138 C51.448 142.299 55.102 145.756 58 153 C58 157.95 58 162.9 58 168 C27.64 168 -2.72 168 -34 168 C-34 155 -34 155 -29 145 C-20.833 138 -20.833 138 0 138 C0 92.46 0 46.92 0 0 Z " fill="#E25950" transform="translate(168,1027)"/>
<path d="M0 0 C8.25 0 16.5 0 25 0 C25 45.54 25 91.08 25 138 C31.27 138 37.54 138 44 138 C50.788 141.879 55.39 145.169 58 153 C58 157.95 58 162.9 58 168 C27.64 168 -2.72 168 -34 168 C-34 155.557 -33.089 150.437 -25 141 C-20 138 -20 138 0 138 C0 92.46 0 46.92 0 0 Z " fill="#E1594F" transform="translate(583,1027)"/>
<path d="M0 0 C12.87 0 25.74 0 39 0 C37.661 16.069 35.218 32.029 33 48 C32.34 57.24 31.68 66.48 31 76 C30.063 85.25 30.063 85.25 29.774 88.083 C27.853 107.165 27.524 125.626 27 145 C12.81 145 -1.38 145 -16 145 C-16 95.92 -10.276 47.956 0 0 Z " fill="#FBD784" transform="translate(681,205)"/>
<path d="M0 0 C5 1 5 1 11 8 C44.055 90.637 13 185.998 13 275 C7.333 286.333 7.333 286.333 0 290 C-194 290 -194 290 -200 287 C-201.65 285.35 -203.3 283.7 -205 282 C-204.67 281.34 -204.34 280.68 -204 280 C-141.3 280 -78.6 280 -14 280 C-4 275 -4 275 1 265 C1 4 1 4 0 0 Z " fill="#E3E3E3" transform="translate(272,522)"/>
<path d="M0 0 C36.556 82.252 4 179.99 4 270 C-1 280 -1 280 -9 285 C-70.033 305.344 -137.666 286 -202 286 C-210 282 -210 282 -216 274 C-237.586 187.657 -217 96.001 -217 7 C-212 -1 -212 -1 -207 -5 C-47.4 -31.6 -47.4 -31.6 0 0 Z M-209 4 C-248.655 83.311 -212 181.328 -212 270 C-208 276 -208 276 -202 281 C-13 281 -13 281 -5 276 C38.996 199.007 -1 98.677 -1 10 C-5 3 -5 3 -13 -1 C-202 -1 -202 -1 -209 4 Z " fill="#E8AE4A" transform="translate(270,517)"/>
<path d="M0 0 C0.33 0 0.66 0 1 0 C1 55.11 1 110.22 1 167 C0.67 167 0.34 167 0 167 C0 149.18 0 131.36 0 113 C-31.02 113 -62.04 113 -94 113 C-87.069 92.208 -79.174 74.312 -62 60 C-60.02 59.01 -58.04 58.02 -56 57 C-70.85 56.67 -85.7 56.34 -101 56 C-101 55.67 -101 55.34 -101 55 C-67.67 55 -34.34 55 0 55 C0 36.85 0 18.7 0 0 Z " fill="#E2E2E1" transform="translate(163,149)"/>
<path d="M0 0 C4 4 4 4 4 24 C-7.448 31.632 -17.168 32 -31 32 C-30 88 -30 88 -21 99 C2 136.375 2 136.375 2 145 C-8.89 145 -19.78 145 -31 145 C-31 151.27 -31 157.54 -31 164 C-31.33 175.55 -31.66 187.1 -32 199 C-33.65 199 -35.3 199 -37 199 C-37 143.89 -37 88.78 -37 32 C-41.62 32 -46.24 32 -51 32 C-67.545 28.455 -67.545 28.455 -72 24 C-72 17.4 -72 10.8 -72 4 C-52.542 -12.215 -22.856 -7.619 0 0 Z " fill="#E4AD4D" transform="translate(201,117)"/>
<path d="M0 0 C10 5 10 5 17 13 C17.33 13.99 17.33 13.99 19 19 C20.65 18.34 22.3 17.68 24 17 C36 17 36 17 44 23 C47 29 47 29 47 40 C49.97 40 52.94 40 56 40 C62 43 62 43 66 47 C66.33 48.65 66.66 50.3 67 52 C16.84 52 -33.32 52 -85 52 C-85 50.35 -85 48.7 -85 47 C-77 40 -77 40 -66 40 C-65.34 40.33 -64.68 40.66 -64 41 C-63.67 39.02 -63.34 37.04 -63 35 C-53.857 27 -53.857 27 -41 27 C-38.36 28.65 -35.72 30.3 -33 32 C-33 28.37 -33 24.74 -33 21 C-24.743 4.486 -18.265 0 0 0 Z " fill="#FDFEFE" transform="translate(606,504)"/>
<path d="M0 0 C0.33 0 0.66 0 1 0 C1 18.48 1 36.96 1 56 C25.75 56 50.5 56 76 56 C74.532 67.745 72.155 79.361 70 91 C68.68 100.24 67.36 109.48 66 119 C65.67 119 65.34 119 65 119 C65 117.02 65 115.04 65 113 C43.88 113 22.76 113 1 113 C1 130.82 1 148.64 1 167 C0.67 167 0.34 167 0 167 C0 111.89 0 56.78 0 0 Z " fill="#E2E2E1" transform="translate(605,149)"/>
<path d="M0 0 C6 1 6 1 10 6 C14 15 14 15 14 21 C14.825 20.505 14.825 20.505 19 18 C21.31 18 23.62 18 26 18 C30 22 30 22 30 33 C26 42 26 42 23 47 C24.98 47 26.96 47 29 47 C29.99 47.99 30.98 48.98 32 50 C32 52.31 32 54.62 32 57 C31.34 57.66 30.68 58.32 30 59 C28.68 59 27.36 59 26 59 C25.67 63.29 25.34 67.58 25 72 C24.34 74.97 23.68 77.94 23 81 C22.34 84.96 21.68 88.92 21 93 C11.632 100.026 -2.291 96 -14 96 C-21.255 86.326 -22 70.664 -22 59 C-23.32 58.67 -24.64 58.34 -26 58 C-28 55 -28 55 -27 49 C-25 47 -25 47 -20 46 C-21.32 43.36 -22.64 40.72 -24 38 C-26 31 -26 31 -26 23 C-24.68 21.35 -23.36 19.7 -22 18 C-16 18 -16 18 -10 21 C-9.01 17.04 -8.02 13.08 -7 9 C-3 3 -3 3 0 0 Z " fill="#E25A51" transform="translate(179,905)"/>
<path d="M0 0 C4 4 4 4 4 24 C-9.451 32.407 -14.322 31.158 -32 32 C-32 87.11 -32 142.22 -32 199 C-33.98 199 -35.96 199 -38 199 C-38 143.89 -38 88.78 -38 32 C-41.63 32 -45.26 32 -49 32 C-67.909 29.091 -67.909 29.091 -73 24 C-73 17.4 -73 10.8 -73 4 C-53.801 -11.999 -22.246 -8.09 0 0 Z " fill="#EABF65" transform="translate(637,117)"/>
<path d="M0 0 C-1.171 14.05 -3.137 28.025 -5 42 C-6.749 59.328 -8.455 76.653 -10 94 C-22.21 94 -34.42 94 -47 94 C-43.4 50.8 -43.4 50.8 -39 31 C-38.01 25.06 -37.02 19.12 -36 13 C-30.72 11.68 -25.44 10.36 -20 9 C-19.434 8.717 -19.434 8.717 -16.57 7.285 C-2 0 -2 0 0 0 Z " fill="#FBD886" transform="translate(665,907)"/>
<path d="M0 0 C2.64 0 5.28 0 8 0 C8.66 3.63 9.32 7.26 10 11 C11 10 11 10 12 2 C14.97 2 17.94 2 21 2 C21 17.333 21 32.667 21 48 C28 48 28 48 35 44 C39 36 39 36 40 33 C43.96 33 47.92 33 52 33 C52 49.108 50.268 65.464 43 80 C28.81 80 14.62 80 0 80 C-9.17 66.246 -9 48.269 -9 32 C-6.03 32 -3.06 32 0 32 C0 31.01 0 30.02 0 29 C-1.98 29 -3.96 29 -6 29 C-9 17 -9 17 -9 12 C-6.36 12 -3.72 12 -1 12 C-0.67 12.33 -0.34 12.66 0 13 C0 8.71 0 4.42 0 0 Z " fill="#FDFDFC" transform="translate(194,673)"/>
<path d="M0 0 C29.002 0 58.005 0.383 87 1 C87 19.81 87 38.62 87 58 C68.85 58 50.7 58 32 58 C32 38.779 35.848 19.91 39 1 C26.13 1 13.26 1 0 1 C0 0.67 0 0.34 0 0 Z " fill="#E3E3E2" transform="translate(681,204)"/>
<path d="M0 0 C33.33 0 66.66 0 101 0 C101 9.24 101 18.48 101 28 C67.67 28 34.34 28 0 28 C0 18.76 0 9.52 0 0 Z " fill="#5C5B5B" transform="translate(329,1125)"/>
<path d="M0 0 C12.87 0 25.74 0 39 0 C37.661 16.069 35.218 32.029 33 48 C32.67 50.97 32.34 53.94 32 57 C18.47 57 4.94 57 -9 57 C-9 37.551 -4.43 18.828 0 0 Z " fill="#E3C173" transform="translate(681,205)"/>
<path d="M0 0 C20.147 0 31.947 4.829 47 18 C75.675 53.844 57 33.897 57 126 C56.67 126 56.34 126 56 126 C55.34 122.205 55.34 122.205 52 103 C37.495 42.079 37.495 42.079 17 25 C10 22 10 22 0 21 C0 14.07 0 7.14 0 0 Z " fill="#FBD785" transform="translate(711,778)"/>
<path d="M0 0 C4.29 0 8.58 0 13 0 C13 32.34 13 64.68 13 98 C-1.85 98 -16.7 98 -32 98 C-32 88.43 -32 78.86 -32 69 C-30.515 68.67 -30.515 68.67 -23 67 C-18 64 -18 64 -15 60 C-9.06 60 -3.12 60 3 60 C1 22 1 22 0 16 C0 10.72 0 5.44 0 0 Z " fill="#FCFBF9" transform="translate(155,1027)"/>
<path d="M0 0 C16.17 0 32.34 0 49 0 C47.68 0.66 46.36 1.32 45 2 C23.506 13.941 15.481 34.949 7 57 C-5.87 57 -18.74 57 -32 57 C-28.736 37.414 -14.135 14.135 0 0 Z " fill="#E5C378" transform="translate(62,205)"/>
<path d="M0 0 C9.228 6.152 14.609 10.755 19 21 C19 22.98 19 24.96 19 27 C18.34 27.66 17.68 28.32 17 29 C-9.07 29 -35.14 29 -62 29 C-62.66 28.34 -63.32 27.68 -64 27 C-64 19 -64 19 -57 8 C-38.489 -5.463 -22.184 -7.395 0 0 Z " fill="#FCFBF4" transform="translate(144,678)"/>
<path d="M0 0 C1.98 0 3.96 0 6 0 C6.33 22.44 6.66 44.88 7 68 C9.97 71.63 12.94 75.26 16 79 C39 116.375 39 116.375 39 125 C28.11 125 17.22 125 6 125 C6 131.27 6 137.54 6 144 C5.67 155.55 5.34 167.1 5 179 C3.35 179 1.7 179 0 179 C0 119.93 0 60.86 0 0 Z " fill="#DEBD78" transform="translate(164,137)"/>
<path d="M0 0 C26.4 0 52.8 0 80 0 C78.576 18.506 73.09 30.91 60 44 C58.68 44.825 58.68 44.825 52 49 C50.481 37.356 48.975 25.702 48 14 C45.69 16.64 43.38 19.28 41 22 C33 26 33 26 19 26 C6.261 19.631 4.908 18.498 0 5 C0 3.35 0 1.7 0 0 Z " fill="#FDF2AC" transform="translate(141,376)"/>
<path d="M0 0 C5 9 5 9 6 15 C6.99 14.34 7.98 13.68 9 13 C19 13 19 13 24 17 C24.165 17.66 24.165 17.66 25 21 C27.64 21 30.28 21 33 21 C34.65 22.32 36.3 23.64 38 25 C38 26.32 38 27.64 38 29 C5.33 29 -27.34 29 -61 29 C-59 24 -59 24 -54 21 C-52.35 21 -50.7 21 -49 21 C-48.67 18.36 -48.34 15.72 -48 13 C-43 7 -43 7 -41 6 C-32 6 -32 6 -29 7 C-28.34 5.35 -27.68 3.7 -27 2 C-17.13 -6.46 -11.685 -6.677 0 0 Z " fill="#FBFDFD" transform="translate(439,472)"/>
<path d="M0 0 C6 1 6 1 10 6 C14 15 14 15 14 21 C14.825 20.505 14.825 20.505 19 18 C21.31 18 23.62 18 26 18 C30 22 30 22 30 33 C26 42 26 42 23 47 C9.14 47 -4.72 47 -19 47 C-23.769 38.653 -26 32.657 -26 23 C-24.68 21.35 -23.36 19.7 -22 18 C-16 18 -16 18 -10 21 C-9.01 17.04 -8.02 13.08 -7 9 C-3 3 -3 3 0 0 Z " fill="#85AF6B" transform="translate(179,905)"/>
<path d="M0 0 C20.13 0 40.26 0 61 0 C61 9.24 61 18.48 61 28 C40.87 28 20.74 28 0 28 C0 18.76 0 9.52 0 0 Z " fill="#5C5B5B" transform="translate(522,1125)"/>
<path d="M0 0 C11.55 0 23.1 0 35 0 C35.165 2.64 35.165 2.64 36 16 C36.66 22.6 37.32 29.2 38 36 C38 43.92 38 51.84 38 60 C32.06 60 26.12 60 20 60 C20.66 58.35 21.32 56.7 22 55 C22 42 22 42 17 34 C7 29 7 29 1 28 C0.452 18.677 0 9.339 0 0 Z " fill="#FAD786" transform="translate(120,1027)"/>
<path d="M0 0 C0.33 0 0.66 0 1 0 C3.035 16.96 4.69 33.969 6 51 C10.411 59.822 14.21 63.605 23 68 C23 77.57 23 87.14 23 97 C12.11 97 1.22 97 -10 97 C-10 84.46 -10 71.92 -10 59 C-7.69 59 -5.38 59 -3 59 C-3 50.09 -3 41.18 -3 32 C-2.01 21.44 -1.02 10.88 0 0 Z " fill="#FCFCF9" transform="translate(10,1028)"/>
<path d="M0 0 C9.57 0 19.14 0 29 0 C26.88 7.067 24.522 14.066 22 21 C13.139 52.703 4.655 84.109 1 117 C0.67 117 0.34 117 0 117 C0 78.39 0 39.78 0 0 Z " fill="#FEFEFD" transform="translate(0,262)"/>
<path d="M0 0 C0.33 0 0.66 0 1 0 C1 43.89 1 87.78 1 133 C-7.58 133 -16.16 133 -25 133 C-25 123.43 -25 113.86 -25 104 C-22.03 102.68 -19.06 101.36 -16 100 C5.226 75.237 -3.234 35.04 -1 6 C-0.67 4.02 -0.34 2.04 0 0 Z " fill="#FDFBFA" transform="translate(767,991)"/>
<path d="M0 0 C4 4 4 4 4 21 C0.7 19.35 -2.6 17.7 -6 16 C-53.115 9.269 -53.115 9.269 -71 20 C-71.66 20 -72.32 20 -73 20 C-73 14.72 -73 9.44 -73 4 C-53.801 -11.999 -22.246 -8.09 0 0 Z " fill="#E4AD4E" transform="translate(637,117)"/>
<path d="M0 0 C14.85 0 29.7 0 45 0 C45 9.24 45 18.48 45 28 C30.15 28 15.3 28 0 28 C0 18.76 0 9.52 0 0 Z " fill="#5C5A59" transform="translate(123,1125)"/>
<path d="M0 0 C14.52 0 29.04 0 44 0 C44 9.24 44 18.48 44 28 C29.48 28 14.96 28 0 28 C0 18.76 0 9.52 0 0 Z " fill="#5C5B5A" transform="translate(193,1125)"/>
<path d="M0 0 C14.19 0 28.38 0 43 0 C43 9.24 43 18.48 43 28 C28.81 28 14.62 28 0 28 C0 18.76 0 9.52 0 0 Z " fill="#5C5B5B" transform="translate(608,1125)"/>
<path d="M0 0 C0.33 0 0.66 0 1 0 C1 2.64 1 5.28 1 8 C-10.22 8 -21.44 8 -33 8 C-33 10.31 -33 12.62 -33 15 C-39 25 -39 25 -44 29 C-44.66 29 -45.32 29 -46 29 C-46 29.66 -46 30.32 -46 31 C-51 33 -51 33 -66 33 C-75.144 28.428 -80.685 23.944 -84 14 C-84 11.69 -84 9.38 -84 7 C-56.28 7 -28.56 7 0 7 C0 4.69 0 2.38 0 0 Z " fill="#FDF1B0" transform="translate(661,369)"/>
<path d="M0 0 C-0.33 1.65 -0.66 3.3 -1 5 C-13.53 11.265 -20.861 12 -35 12 C-35 8.04 -35 4.08 -35 0 C-36.98 0 -38.96 0 -41 0 C-41 3.96 -41 7.92 -41 12 C-64.5 12 -64.5 12 -75 5 C-75.33 3.35 -75.66 1.7 -76 0 C-53.805 -11.098 -21.899 -12.514 0 0 Z " fill="#F5C35D" transform="translate(205,137)"/>
<path d="M0 0 C9.57 0 19.14 0 29 0 C27.576 18.506 22.09 30.91 9 44 C7.68 44.825 7.68 44.825 1 49 C-3.263 16.316 -3.263 16.316 0 0 Z " fill="#FBE1AA" transform="translate(192,376)"/>
<path d="M0 0 C27.06 0 54.12 0 82 0 C82 7 82 7 77 13 C53.24 13 29.48 13 5 13 C1 9 1 9 0 7 C0 4.69 0 2.38 0 0 Z " fill="#FDFDFC" transform="translate(80,735)"/>
<path d="M0 0 C14.85 0.165 14.85 0.165 90 1 C90 4.63 90 8.26 90 12 C60.3 12 30.6 12 0 12 C0 8.04 0 4.08 0 0 Z " fill="#EAB14C" transform="translate(431,1096)"/>
<path d="M0 0 C29.7 0 59.4 0 90 0 C90 3.63 90 7.26 90 11 C60.3 11 30.6 11 0 11 C0 7.37 0 3.74 0 0 Z " fill="#EAB04B" transform="translate(238,1097)"/>
<path d="M0 0 C0 3.96 0 7.92 0 12 C-29.37 12 -58.74 12 -89 12 C-89 8.37 -89 4.74 -89 1 C-77.691 0.869 -66.382 0.739 -55.073 0.609 C-49.823 0.548 -44.572 0.488 -39.321 0.427 C-34.257 0.369 -29.193 0.31 -24.13 0.252 C-22.194 0.23 -20.259 0.208 -18.324 0.185 C-15.62 0.154 -12.917 0.123 -10.213 0.092 C-9.407 0.082 -8.601 0.073 -7.77 0.063 C-2.228 0 -2.228 0 0 0 Z " fill="#EAB04C" transform="translate(741,1096)"/>
<path d="M0 0 C29.37 0 58.74 0 89 0 C89 3.63 89 7.26 89 11 C59.63 11 30.26 11 0 11 C0 7.37 0 3.74 0 0 Z " fill="#EBB34A" transform="translate(34,1097)"/>
<path d="M0 0 C2.64 0 5.28 0 8 0 C8.66 3.63 9.32 7.26 10 11 C11 10 11 10 12 2 C14.97 2 17.94 2 21 2 C21 17.333 21 32.667 21 48 C14 48 14 48 8 44 C4 36 4 36 4 33 C-0.29 33 -4.58 33 -9 33 C-9 32.67 -9 32.34 -9 32 C-6.03 32 -3.06 32 0 32 C0 31.01 0 30.02 0 29 C-1.98 29 -3.96 29 -6 29 C-9 17 -9 17 -9 12 C-6.36 12 -3.72 12 -1 12 C-0.67 12.33 -0.34 12.66 0 13 C0 8.71 0 4.42 0 0 Z " fill="#F5CA6E" transform="translate(194,673)"/>
<path d="M0 0 C10.89 0 21.78 0 33 0 C33 9.24 33 18.48 33 28 C22.11 28 11.22 28 0 28 C0 18.76 0 9.52 0 0 Z " fill="#5B5B5B" transform="translate(0,1125)"/>
<path d="M0 0 C1.65 0 3.3 0 5 0 C5 59.07 5 118.14 5 179 C3.35 179 1.7 179 0 179 C0 119.93 0 60.86 0 0 Z " fill="#60605F" transform="translate(164,137)"/>
<path d="M0 0 C1.65 0 3.3 0 5 0 C5 59.07 5 118.14 5 179 C3.35 179 1.7 179 0 179 C0 119.93 0 60.86 0 0 Z " fill="#5E5E5E" transform="translate(600,137)"/>
<path d="M0 0 C20.13 0 40.26 0 61 0 C61 3.96 61 7.92 61 12 C57.7 12.165 57.7 12.165 41 13 C39.35 13.99 37.7 14.98 36 16 C24.12 16.33 12.24 16.66 0 17 C0 11.39 0 5.78 0 0 Z " fill="#8A8988" transform="translate(522,1153)"/>
<path d="M0 0 C13.53 0 27.06 0 41 0 C41 17.16 41 34.32 41 52 C36.081 45.441 33.33 37.492 30 30 C22.863 16.916 16.453 8.727 3 2 C2.01 1.34 1.02 0.68 0 0 Z " fill="#E3C076" transform="translate(123,205)"/>
<path d="M0 0 C8.58 0 17.16 0 26 0 C26 9.24 26 18.48 26 28 C17.42 28 8.84 28 0 28 C0 18.76 0 9.52 0 0 Z " fill="#5C5B5B" transform="translate(742,1125)"/>
<path d="M0 0 C17.82 0 35.64 0 54 0 C54.99 0.99 55.98 1.98 57 3 C57 5.31 57 7.62 57 10 C56.34 10.66 55.68 11.32 55 12 C53.68 12 52.36 12 51 12 C51 13.65 51 15.3 51 17 C50.67 17 50.34 17 50 17 C50 15.35 50 13.7 50 12 C34.82 12 19.64 12 4 12 C4 13.65 4 15.3 4 17 C3.67 17 3.34 17 3 17 C3 15.35 3 13.7 3 12 C1.68 11.67 0.36 11.34 -1 11 C-3 8 -3 8 -2 2 C-1.34 1.34 -0.68 0.68 0 0 Z " fill="#E55C54" transform="translate(154,952)"/>
<path d="M0 0 C7.92 0 15.84 0 24 0 C24 9.24 24 18.48 24 28 C16.08 28 8.16 28 0 28 C0 18.76 0 9.52 0 0 Z " fill="#D04D46" transform="translate(168,1027)"/>
<path d="M0 0 C7.92 0 15.84 0 24 0 C24 9.24 24 18.48 24 28 C16.08 28 8.16 28 0 28 C0 18.76 0 9.52 0 0 Z " fill="#D04B46" transform="translate(583,1027)"/>
<path d="M0 0 C2 3 2 3 2 9 C3.65 8.01 5.3 7.02 7 6 C9.31 6 11.62 6 14 6 C18 10 18 10 18 21 C14 30 14 30 11 35 C-2.86 35 -16.72 35 -31 35 C-31 34.34 -31 33.68 -31 33 C-23.74 33 -16.48 33 -9 33 C-8.67 29.37 -8.34 25.74 -8 22 C-3 14 -3 14 0 11 C0 7.37 0 3.74 0 0 Z " fill="#88B16A" transform="translate(191,917)"/>
<path d="M0 0 C14.85 0 29.7 0 45 0 C45 3.96 45 7.92 45 12 C41.7 12.165 41.7 12.165 25 13 C23.35 13.99 21.7 14.98 20 16 C13.73 16 7.46 16 1 16 C1 22.27 1 28.54 1 35 C0.67 35 0.34 35 0 35 C0 23.45 0 11.9 0 0 Z " fill="#8B8885" transform="translate(123,1153)"/>
<path d="M0 0 C14.52 0 29.04 0 44 0 C44 5.61 44 11.22 44 17 C26 17 26 17 20 13 C13.4 12.67 6.8 12.34 0 12 C0 8.04 0 4.08 0 0 Z " fill="#8A8988" transform="translate(193,1153)"/>
<path d="M0 0 C14.19 0 28.38 0 43 0 C43 5.61 43 11.22 43 17 C26 17 26 17 19 13 C12.73 12.67 6.46 12.34 0 12 C0 8.04 0 4.08 0 0 Z " fill="#898887" transform="translate(608,1153)"/>
<path d="M0 0 C12.21 0 24.42 0 37 0 C37 5.28 37 10.56 37 16 C24.79 16 12.58 16 0 16 C0 10.72 0 5.44 0 0 Z " fill="#FAD886" transform="translate(617,1027)"/>
<path d="M0 0 C23.43 0 46.86 0 71 0 C71.33 0.33 71.33 0.33 73 2 C72 7 72 7 71 8 C47.57 8 24.14 8 0 8 C-0.66 7.34 -1.32 6.68 -2 6 C-1 1 -1 1 0 0 Z " fill="#FCF8EE" transform="translate(79,571)"/>
<path d="M0 0 C23.43 0 46.86 0 71 0 C71.33 0.33 71.33 0.33 73 2 C72 7 72 7 71 8 C47.57 8 24.14 8 0 8 C-0.66 7.34 -1.32 6.68 -2 6 C-1 1 -1 1 0 0 Z " fill="#FDF9EF" transform="translate(79,628)"/>
<path d="M0 0 C23.43 0 46.86 0 71 0 C71.33 0.33 71.33 0.33 73 2 C72 7 72 7 71 8 C47.57 8 24.14 8 0 8 C-0.66 6.35 -1.32 4.7 -2 3 C-1.34 2.01 -0.68 1.02 0 0 Z " fill="#FCF8EE" transform="translate(79,590)"/>
<path d="M0 0 C23.43 0 46.86 0 71 0 C71.33 0.33 71.33 0.33 73 2 C72 7 72 7 71 8 C47.9 8 24.8 8 1 8 C0.34 7.34 -0.32 6.68 -1 6 C-1 1 -1 1 0 0 Z " fill="#FDFAF0" transform="translate(79,609)"/>
<path d="M0 0 C6 1 6 1 10 6 C12 10 12 10 13 23 C12.01 24.155 12.01 24.155 7 30 C4 39 4 39 3 45 C1 42 1 42 -2 32 C-3.98 29.36 -5.96 26.72 -8 24 C-8 12.702 -7.942 7.942 0 0 Z " fill="#6D9C64" transform="translate(179,905)"/>
<path d="M0 0 C27.39 0 54.78 0 83 0 C82.67 1.98 82.34 3.96 82 6 C79 8 79 8 72 8 C70.35 6.68 68.7 5.36 67 4 C65.02 5.32 63.04 6.64 61 8 C58.69 8 56.38 8 54 8 C52.68 6.68 51.36 5.36 50 4 C49.423 4.289 48.845 4.577 48.25 4.875 C42 8 42 8 35 7 C34.01 6.01 33.02 5.02 32 4 C28 6 28 6 26 8 C18 8 18 8 12 4 C10.35 5.32 8.7 6.64 7 8 C5.02 8 3.04 8 1 8 C0.34 7.34 -0.32 6.68 -1 6 C-1 1 -1 1 0 0 Z " fill="#FCFBF4" transform="translate(79,711)"/>
<path d="M0 0 C16.5 0 33 0 50 0 C50.66 0.66 51.32 1.32 52 2 C51 7 51 7 50 8 C33.17 8 16.34 8 -1 8 C-1.33 6.02 -1.66 4.04 -2 2 C-1.34 1.34 -0.68 0.68 0 0 Z " fill="#FDF8EE" transform="translate(192,628)"/>
<path d="M0 0 C16.5 0 33 0 50 0 C50.66 0.66 51.32 1.32 52 2 C51 7 51 7 50 8 C33.5 8 17 8 0 8 C-0.66 7.34 -1.32 6.68 -2 6 C-1 1 -1 1 0 0 Z " fill="#FCF9ED" transform="translate(192,609)"/>
<path d="M0 0 C16.5 0 33 0 50 0 C50.66 0.66 51.32 1.32 52 2 C51 7 51 7 50 8 C33.5 8 17 8 0 8 C-0.66 7.34 -1.32 6.68 -2 6 C-1 1 -1 1 0 0 Z " fill="#FBF8ED" transform="translate(192,590)"/>
<path d="M0 0 C16.5 0 33 0 50 0 C50.66 0.66 51.32 1.32 52 2 C51 7 51 7 50 8 C33.5 8 17 8 0 8 C-0.66 7.34 -1.32 6.68 -2 6 C-1 1 -1 1 0 0 Z " fill="#FCF8ED" transform="translate(192,571)"/>
<path d="M0 0 C2.97 0 5.94 0 9 0 C9 16.867 8.437 33.688 3 50 C2.01 50 1.02 50 0 50 C0 33.5 0 17 0 0 Z " fill="#FBF6ED" transform="translate(218,668)"/>
<path d="M0 0 C2.64 0 5.28 0 8 0 C8 14.19 8 28.38 8 43 C5.69 42.67 3.38 42.34 1 42 C0.002 28.032 0 14.004 0 0 Z " fill="#FBFAF4" transform="translate(207,675)"/>
<path d="M0 0 C1.98 0.66 3.96 1.32 6 2 C14 2 14 2 18 0 C22 1 22 1 25 3 C9 11 9 11 1 11 C-3.95 9.35 -8.9 7.7 -14 6 C-16.64 5.34 -19.28 4.68 -22 4 C-22 3.34 -22 2.68 -22 2 C-14 1 -14 1 -12 2 C-4 2 -4 2 0 0 Z " fill="#FDFAF1" transform="translate(126,720)"/>
<path d="M0 0 C4 2 4 2 7 4 C14 3 14 3 18 0 C22 2 22 2 24 4 C31 4 31 4 37 0 C37.825 0.66 37.825 0.66 42 4 C42.825 4.165 42.825 4.165 47 5 C45.68 5.33 44.36 5.66 43 6 C43 7.32 43 8.64 43 10 C41.68 9.34 40.36 8.68 39 8 C35 7 35 7 31 9 C23 9 23 9 17 7 C16.34 7.33 16.34 7.33 13 9 C5 9 5 9 -2 8 C-2.99 8 -3.98 8 -5 8 C-5 8.66 -5 9.32 -5 10 C-5.99 10 -6.98 10 -8 10 C-8 9.01 -8 8.02 -8 7 C-8.66 6.34 -9.32 5.68 -10 5 C-7.69 4.34 -5.38 3.68 -3 3 C-2.01 2.01 -1.02 1.02 0 0 Z " fill="#F7CB6A" transform="translate(109,714)"/>
<path d="M0 0 C2.64 0.33 5.28 0.66 8 1 C0 37 0 37 -6 41 C-3.1 6.2 -3.1 6.2 0 0 Z " fill="#FAF7F2" transform="translate(231,674)"/>
<path d="M0 0 C2.64 0 5.28 0 8 0 C10.455 13.505 11 26.27 11 40 C3.691 32.691 2.277 17.867 0 8 C0 5.36 0 2.72 0 0 Z " fill="#FBF9F2" transform="translate(194,673)"/>
<path d="M0 0 C16.17 0 32.34 0 49 0 C48.67 1.98 48.34 3.96 48 6 C45 8 45 8 38 8 C37.175 7.34 37.175 7.34 33 4 C31.02 5.32 29.04 6.64 27 8 C20 8 20 8 13 2 C8.71 1.67 4.42 1.34 0 1 C0 0.67 0 0.34 0 0 Z " fill="#FBF9F0" transform="translate(113,711)"/>
<path d="M0 0 C15.18 0 30.36 0 46 0 C46 1.65 46 3.3 46 5 C30.82 5 15.64 5 0 5 C0 3.35 0 1.7 0 0 Z " fill="#CF4E46" transform="translate(158,964)"/>
<path d="M0 0 C6.759 10.138 9 22.794 9 35 C6.03 35 3.06 35 0 35 C0 23.45 0 11.9 0 0 Z " fill="#FDFCF7" transform="translate(170,282)"/>
<path d="M0 0 C0.66 0 1.32 0 2 0 C2 1.65 2 3.3 2 5 C4.97 5 7.94 5 11 5 C11 5.33 11 5.66 11 6 C8.03 6 5.06 6 2 6 C2.66 8.64 3.32 11.28 4 14 C5.65 12.35 7.3 10.7 9 9 C8.34 10.98 7.68 12.96 7 15 C6.67 16.65 6.34 18.3 6 20 C6.99 20.99 7.98 21.98 9 23 C9.33 21.35 9.66 19.7 10 18 C11 22 11 22 10 24 C5 23 5 23 3 21 C1.35 21.99 -0.3 22.98 -2 24 C-2 23.34 -2 22.68 -2 22 C-0.68 21.01 0.64 20.02 2 19 C1.67 17.35 1.34 15.7 1 14 C1 11.36 1 8.72 1 6 C-2.3 6 -5.6 6 -9 6 C-9 7.65 -9 9.3 -9 11 C-6.69 11 -4.38 11 -2 11 C-2 13.97 -2 16.94 -2 20 C-2.66 20.66 -3.32 21.32 -4 22 C-5.32 22 -6.64 22 -8 22 C-8 21.34 -8 20.68 -8 20 C-6.68 20 -5.36 20 -4 20 C-4 17.36 -4 14.72 -4 12 C-5.65 12 -7.3 12 -9 12 C-9 14.64 -9 17.28 -9 20 C-9.66 21.32 -10.32 22.64 -11 24 C-11.33 23.34 -11.66 22.68 -12 22 C-11.835 21.505 -11.835 21.505 -11 19 C-10.67 14.38 -10.34 9.76 -10 5 C-6.7 5 -3.4 5 0 5 C0 3.35 0 1.7 0 0 Z " fill="#CBCBCB" transform="translate(78,1296)"/>
<path d="M0 0 C0.33 0 0.66 0 1 0 C1 1.98 1 3.96 1 6 C1.66 6 2.32 6 3 6 C2.67 10.62 2.34 15.24 2 20 C2.66 19.67 3.32 19.34 4 19 C4.33 20.65 4.66 22.3 5 24 C-2 28 -2 28 -14 28 C-14 27.67 -14 27.34 -14 27 C-12.35 26.67 -10.7 26.34 -9 26 C-9.99 25.34 -10.98 24.68 -12 24 C-11.01 24 -10.02 24 -9 24 C-9 20.37 -9 16.74 -9 13 C-8.67 13 -8.34 13 -8 13 C-8 16.63 -8 20.26 -8 24 C-6.35 24 -4.7 24 -3 24 C-2.01 16.08 -1.02 8.16 0 0 Z " fill="#F6CB70" transform="translate(224,694)"/>
<path d="M0 0 C2.64 0 5.28 0 8 0 C11 14 11 14 11 17 C8.36 17 5.72 17 3 17 C0 5 0 5 0 0 Z " fill="#FCFBF8" transform="translate(185,685)"/>
<path d="M0 0 C2.31 0 4.62 0 7 0 C6 9 6 9 4 17 C1.36 17 -1.28 17 -4 17 C-1 3 -1 3 0 0 Z " fill="#FBFAF5" transform="translate(240,685)"/>
<path d="M0 0 C0.33 0 0.66 0 1 0 C1 1.65 1 3.3 1 5 C4.3 5 7.6 5 11 5 C11 5.66 11 6.32 11 7 C8.03 7 5.06 7 2 7 C2 8.65 2 10.3 2 12 C4.64 12 7.28 12 10 12 C10 12.66 10 13.32 10 14 C7.03 14 4.06 14 1 14 C1 16.31 1 18.62 1 21 C4.63 21 8.26 21 12 21 C12 21.33 12 21.66 12 22 C4.41 22 -3.18 22 -11 22 C-11 21.67 -11 21.34 -11 21 C-7.37 21 -3.74 21 0 21 C0 18.69 0 16.38 0 14 C-2.64 14 -5.28 14 -8 14 C-8 13.67 -8 13.34 -8 13 C-5.36 13 -2.72 13 0 13 C0 11.02 0 9.04 0 7 C-2.31 7.33 -4.62 7.66 -7 8 C-7.33 8.495 -7.33 8.495 -9 11 C-9.66 10.67 -10.32 10.34 -11 10 C-9.68 7.03 -8.36 4.06 -7 1 C-6.34 1 -5.68 1 -5 1 C-5.33 2.32 -5.66 3.64 -6 5 C-4.02 5 -2.04 5 0 5 C0 3.35 0 1.7 0 0 Z " fill="#C1C1C2" transform="translate(51,1297)"/>
<path d="M0 0 C0.33 0 0.66 0 1 0 C2.32 5.61 3.64 11.22 5 17 C5.99 19.97 6.98 22.94 8 26 C8 27.65 8 29.3 8 31 C7.34 31.33 6.68 31.66 6 32 C3 25 3 25 3 22 C-1.29 22 -5.58 22 -10 22 C-10 21.67 -10 21.34 -10 21 C-7.03 21 -4.06 21 -1 21 C-1 20.01 -1 19.02 -1 18 C-0.34 18 0.32 18 1 18 C0.01 14.37 -0.98 10.74 -2 7 C-1 2 -1 2 0 0 Z " fill="#F6CB6D" transform="translate(195,684)"/>
<path d="M0 0 C3 3 3 3 9 20 C8.01 19.67 7.02 19.34 6 19 C5.67 17.02 5.34 15.04 5 13 C2.36 13.33 -0.28 13.66 -3 14 C-3.99 15.98 -4.98 17.96 -6 20 C-7 17 -7 17 -1 1 C-0.67 0.67 -0.34 0.34 0 0 Z " fill="#C8C8C8" transform="translate(24,1299)"/>
<path d="M0 0 C3.3 0 6.6 0 10 0 C10.66 4.29 11.32 8.58 12 13 C11.01 13.99 10.02 14.98 9 16 C8.34 16 7.68 16 7 16 C6.67 16.66 6.34 17.32 6 18 C5.67 17.01 5.34 16.02 5 15 C5.33 14.67 5.66 14.34 6 14 C6.33 11.03 6.66 8.06 7 5 C4.69 5 2.38 5 0 5 C0 3.35 0 1.7 0 0 Z " fill="#919090" transform="translate(69,1302)"/>
<path d="M0 0 C1.32 0.66 2.64 1.32 4 2 C5.155 2.495 5.155 2.495 11 5 C10.34 5.66 9.68 6.32 9 7 C10.32 7.66 11.64 8.32 13 9 C5 9 5 9 -2 8 C-2.99 8 -3.98 8 -5 8 C-5 8.66 -5 9.32 -5 10 C-5.99 10 -6.98 10 -8 10 C-8 9.01 -8 8.02 -8 7 C-8.66 6.34 -9.32 5.68 -10 5 C-7.69 4.34 -5.38 3.68 -3 3 C-2.01 2.01 -1.02 1.02 0 0 Z " fill="#F6CA6E" transform="translate(109,714)"/>
<path d="M0 0 C4 2 4 2 8 6 C7.67 6.66 7.34 7.32 7 8 C4.36 7.67 1.72 7.34 -1 7 C-1.33 7.33 -1.66 7.66 -2 8 C-4.64 8 -7.28 8 -10 8 C-6 4 -6 4 0 0 Z " fill="#F7C661" transform="translate(127,714)"/>
<path d="M0 0 C0.66 0 1.32 0 2 0 C2 3.3 2 6.6 2 10 C4.64 10.66 7.28 11.32 10 12 C9.67 12.66 9.34 13.32 9 14 C2 14 2 14 -4 10 C-4 7.69 -4 5.38 -4 3 C-3.67 3.165 -3.67 3.165 -2 4 C-2 4.99 -2 5.98 -2 7 C-1.34 7 -0.68 7 0 7 C0 4.69 0 2.38 0 0 Z " fill="#F7C257" transform="translate(206,707)"/>
<path d="M0 0 C1 4 1 4 -3 14 C-3.33 14.495 -3.33 14.495 -5 17 C-5.99 16.67 -6.98 16.34 -8 16 C-4 3 -4 3 0 0 Z " fill="#F6BF53" transform="translate(235,700)"/>
<path d="M0 0 C0.33 0 0.66 0 1 0 C1.33 1.98 1.66 3.96 2 6 C3.65 4.35 5.3 2.7 7 1 C6.34 2.98 5.68 4.96 5 7 C4.67 8.65 4.34 10.3 4 12 C4.99 12.99 5.98 13.98 7 15 C7.33 13.35 7.66 11.7 8 10 C9 14 9 14 8 16 C3 15 3 15 1 13 C0.175 13.495 0.175 13.495 -4 16 C-4 15.34 -4 14.68 -4 14 C-2.68 13.01 -1.36 12.02 0 11 C-0.33 8.03 -0.66 5.06 -1 2 C-0.67 1.34 -0.34 0.68 0 0 Z " fill="#C6C6C6" transform="translate(80,1304)"/>
<path d="M0 0 C0.99 0.33 1.98 0.66 3 1 C3 8 3 8 1 17 C-0.32 17 -1.64 17 -3 17 C-1 5 -1 5 0 0 Z " fill="#F5C660" transform="translate(236,684)"/>
<path d="M0 0 C2.31 0 4.62 0 7 0 C7 1.98 7 3.96 7 6 C5.515 6.165 5.515 6.165 -2 7 C-2 6.34 -2 5.68 -2 5 C-2.66 4.67 -3.32 4.34 -4 4 C-3.34 4 -2.68 4 -2 4 C-1.34 2.68 -0.68 1.36 0 0 Z " fill="#919191" transform="translate(44,1304)"/>
<path d="M0 0 C0 0.33 0 0.66 0 1 C-2.97 1 -5.94 1 -9 1 C-9 3.31 -9 5.62 -9 8 C-5.37 8 -1.74 8 2 8 C2 8.33 2 8.66 2 9 C-5.59 9 -13.18 9 -21 9 C-21 8.67 -21 8.34 -21 8 C-17.37 8 -13.74 8 -10 8 C-10 5.69 -10 3.38 -10 1 C-12.64 1 -15.28 1 -18 1 C-18 0.67 -18 0.34 -18 0 C-10 -1 -10 -1 0 0 Z " fill="#D4D4D4" transform="translate(61,1310)"/>
<path d="M0 0 C3 3 3 3 5 10 C4.34 10 3.68 10 3 10 C2.34 8.35 1.68 6.7 1 5 C-1 8 -1 8 -4 17 C-4.99 17.99 -5.98 18.98 -7 20 C-4.4 4.4 -4.4 4.4 0 0 Z " fill="#CCCCCC" transform="translate(24,1299)"/>
<path d="M0 0 C1.65 0 3.3 0 5 0 C5 2.64 5 5.28 5 8 C3.02 8.66 1.04 9.32 -1 10 C-0.67 6.7 -0.34 3.4 0 0 Z " fill="#8E8E8E" transform="translate(69,1308)"/>
<path d="M0 0 C2.97 0 5.94 0 9 0 C4 8 4 8 2 10 C1.34 6.7 0.68 3.4 0 0 Z " fill="#929292" transform="translate(80,1302)"/>
<path d="M0 0 C0.66 0 1.32 0 2 0 C1 11 1 11 0 15 C-0.66 15 -1.32 15 -2 15 C-2 5 -2 5 0 0 Z " fill="#F3C35C" transform="translate(227,685)"/>
<path d="M0 0 C-1.32 0.33 -2.64 0.66 -4 1 C-4 2.32 -4 3.64 -4 5 C-8 3 -8 3 -12 0 C-8 -2 -8 -2 0 0 Z " fill="#F9CB67" transform="translate(156,719)"/>
<path d="M0 0 C0.66 0.33 1.32 0.66 2 1 C3 9 3 9 2 12 C-1 8 -1 8 0 0 Z " fill="#F6C96A" transform="translate(200,704)"/>
<path d="M0 0 C1.32 0.66 2.64 1.32 4 2 C3.67 2.495 3.67 2.495 2 5 C1.01 5 0.02 5 -1 5 C-1.33 5.99 -1.66 6.98 -2 8 C-2.33 7.01 -2.66 6.02 -3 5 C-3.66 4.67 -4.32 4.34 -5 4 C-3.35 2.68 -1.7 1.36 0 0 Z " fill="#F8CD70" transform="translate(145,714)"/>
<path d="M0 0 C0.33 0 0.66 0 1 0 C1 1.98 1 3.96 1 6 C1.66 6 2.32 6 3 6 C2.67 8.31 2.34 10.62 2 13 C1.01 13.33 0.02 13.66 -1 14 C-0.67 9.38 -0.34 4.76 0 0 Z " fill="#F4C871" transform="translate(224,694)"/>
<path d="M0 0 C3 4 3 4 4 8 C2.02 8 0.04 8 -2 8 C-1 2 -1 2 0 0 Z " fill="#8F908F" transform="translate(24,1302)"/>
<path d="M0 0 C0 2.31 0 4.62 0 7 C0.66 6.67 1.32 6.34 2 6 C1.67 6.99 1.34 7.98 1 9 C0.01 9 -0.98 9 -2 9 C-4 6 -4 6 -4 1 C-2 0 -2 0 0 0 Z " fill="#F6CE7E" transform="translate(226,707)"/>
<path d="M0 0 C0.66 0 1.32 0 2 0 C2 1.65 2 3.3 2 5 C4.97 5 7.94 5 11 5 C11 5.33 11 5.66 11 6 C8.03 6 5.06 6 2 6 C1.67 7.32 1.34 8.64 1 10 C0.67 6.7 0.34 3.4 0 0 Z " fill="#C9C9C9" transform="translate(78,1296)"/>
<path d="M0 0 C1.32 0.33 2.64 0.66 4 1 C2 6 2 6 1 8 C0.01 7.67 -0.98 7.34 -2 7 C-1.34 4.69 -0.68 2.38 0 0 Z " fill="#F7C55E" transform="translate(229,709)"/>
<path d="M0 0 C0.66 1.32 1.32 2.64 2 4 C1.01 4 0.02 4 -1 4 C-1 4.66 -1 5.32 -1 6 C-1.99 6 -2.98 6 -4 6 C-4 5.01 -4 4.02 -4 3 C-4.66 2.34 -5.32 1.68 -6 1 C-4.02 0.67 -2.04 0.34 0 0 Z " fill="#F8D17C" transform="translate(105,718)"/>
<path d="M0 0 C0.33 0 0.66 0 1 0 C1.33 3.63 1.66 7.26 2 11 C1.01 11.66 0.02 12.32 -1 13 C-0.67 8.71 -0.34 4.42 0 0 Z " fill="#FBF6E9" transform="translate(10,1028)"/>
<path d="M0 0 C0.99 0.99 1.98 1.98 3 3 C2.67 4.32 2.34 5.64 2 7 C1.01 7 0.02 7 -1 7 C-0.67 4.69 -0.34 2.38 0 0 Z " fill="#F5CA71" transform="translate(234,694)"/>
<path d="M0 0 C0.99 0 1.98 0 3 0 C3 1.65 3 3.3 3 5 C1.68 4.67 0.36 4.34 -1 4 C-0.67 2.68 -0.34 1.36 0 0 Z " fill="#F8D273" transform="translate(136,684)"/>
<path d="M0 0 C0.495 0.33 0.495 0.33 3 2 C3 2.99 3 3.98 3 5 C2.34 5 1.68 5 1 5 C0.67 5.66 0.34 6.32 0 7 C-0.33 5.02 -0.66 3.04 -1 1 C-0.67 0.67 -0.34 0.34 0 0 Z " fill="#F5CE76" transform="translate(196,695)"/>
<path d="M0 0 C0.99 0.33 1.98 0.66 3 1 C3 1.99 3 2.98 3 4 C2.34 4 1.68 4 1 4 C0.67 5.65 0.34 7.3 0 9 C-1 5 -1 5 0 0 Z " fill="#F7CC6F" transform="translate(236,684)"/>
</svg>
