<?xml version="1.0" encoding="UTF-8"?>
<!-- Generator: visioncortex VTracer 0.6.12 -->
<svg version="1.1" xmlns="http://www.w3.org/2000/svg" width="768" height="1344">
<path d="M0 0 C253.44 0 506.88 0 768 0 C768 443.52 768 887.04 768 1344 C514.56 1344 261.12 1344 0 1344 C0 900.48 0 456.96 0 0 Z " fill="#F2F1EF" transform="translate(0,0)"/>
<path d="M0 0 C253.44 0 506.88 0 768 0 C768 126.39 768 252.78 768 383 C636 383 504 383 368 383 C368 407.75 368 432.5 368 458 C366.35 458.66 364.7 459.32 363 460 C362.01 462.97 361.02 465.94 360 469 C357.36 469.99 354.72 470.98 352 472 C348.916 474.57 345.838 477.162 343 480 C343 447.99 343 415.98 343 383 C229.81 383 116.62 383 0 383 C0 256.61 0 130.22 0 0 Z " fill="#FEFEFE" transform="translate(0,0)"/>
<path d="M0 0 C253.44 0 506.88 0 768 0 C768 115.83 768 231.66 768 351 C514.56 351 261.12 351 0 351 C0 235.17 0 119.34 0 0 Z " fill="#FDFEFE" transform="translate(0,993)"/>
<path d="M0 0 C76.89 0 153.78 0 233 0 C233 163.5 233 163.5 224 177 C215.636 185.364 205.815 191.457 196 198 C172.077 216.796 160.051 235.035 153 265 C152.835 284.635 152.835 284.635 152 384 C148.04 384 144.08 384 140 384 C140 391.26 140 398.52 140 406 C143.96 406 147.92 406 152 406 C151.67 432.73 151.34 459.46 151 487 C168.49 487 185.98 487 204 487 C246.264 488.321 246.264 488.321 261 491 C261 493.97 261 496.94 261 500 C248.88 504.04 235.72 503.807 223 505 C215.563 523.593 220.364 544.978 220 565 C228.58 565 237.16 565 246 565 C246 557.08 246 549.16 246 541 C270.42 541 294.84 541 320 541 C320 549.25 320 557.5 320 566 C329.57 565.67 339.14 565.34 349 565 C414 565 414 565 445 566 C445 576.23 445 586.46 445 597 C446.98 596.67 448.96 596.34 451 596 C451.33 586.1 451.66 576.2 452 566 C461.24 566 470.48 566 480 566 C480 576.23 480 586.46 480 597 C481.98 596.67 483.96 596.34 486 596 C486.33 586.1 486.66 576.2 487 566 C494.92 566 502.84 566 511 566 C511 576.23 511 586.46 511 597 C513.31 597 515.62 597 518 597 C518 586.77 518 576.54 518 566 C536.81 566 555.62 566 575 566 C575 573.26 575 580.52 575 588 C568.73 588.33 562.46 588.66 556 589 C551 592 551 592 548 598 C569.12 598 590.24 598 612 598 C610 593 610 593 604 589 C597.73 588.67 591.46 588.34 585 588 C585 580.74 585 573.48 585 566 C603.48 566 621.96 566 641 566 C641 576.23 641 586.46 641 597 C643.31 597 645.62 597 648 597 C648 586.77 648 576.54 648 566 C655.59 566 663.18 566 671 566 C671.33 575.9 671.66 585.8 672 596 C673.98 596 675.96 596 678 596 C678.33 586.1 678.66 576.2 679 566 C688.24 566 697.48 566 707 566 C707 576.23 707 586.46 707 597 C708.98 596.67 710.96 596.34 713 596 C713.33 586.1 713.66 576.2 714 566 C731.82 566 749.64 566 768 566 C768 580.52 768 595.04 768 610 C514.56 610 261.12 610 0 610 C0 408.7 0 207.4 0 0 Z " fill="#F1F1F1" transform="translate(0,383)"/>
<path d="M0 0 C36.3 0 72.6 0 110 0 C110.33 31.68 110.66 63.36 111 96 C111.825 95.01 111.825 95.01 116 90 C123 86 123 86 127 86 C127.33 83.69 127.66 81.38 128 79 C128.66 78.34 128.66 78.34 132 75 C132.99 75 133.98 75 135 75 C135 50.25 135 25.5 135 0 C135.99 0 136.98 0 138 0 C138 24.75 138 49.5 138 75 C139.32 75.33 140.64 75.66 142 76 C145 80 145 80 145 86 C147.31 86.33 149.62 86.66 152 87 C161.261 94.203 164.802 98.807 168 110 C168 112.31 168 114.62 168 117 C148.86 117 129.72 117 110 117 C111.184 169.094 111.184 169.094 122 183 C127.878 188.143 133.901 193.121 140 198 C144.29 201.96 148.58 205.92 153 210 C153 210.66 153 211.32 153 212 C154.32 212.66 155.64 213.32 157 214 C196.326 266.435 181 312.563 181 383 C184.96 383 188.92 383 193 383 C193 390.59 193 398.18 193 406 C189.04 406 185.08 406 181 406 C181 458.47 181 510.94 181 565 C116 566 116 566 87 566 C87 557.75 87 549.5 87 541 C62.58 541 38.16 541 13 541 C13 548.92 13 556.84 13 565 C4.42 565 -4.16 565 -13 565 C-13 510 -13 510 -10 504 C0.56 503.01 11.12 502.02 22 501 C23.98 500.67 25.96 500.34 28 500 C28 497.03 28 494.06 28 491 C-8.552 487.677 -45.326 487.655 -82 487 C-82 412 -82 412 -81 406 C-84.96 406 -88.92 406 -93 406 C-93 398.74 -93 391.48 -93 384 C-89.04 384 -85.08 384 -81 384 C-81 344.73 -81 305.46 -81 265 C-71.758 225.72 -51.481 206.654 -19 185 C-18.01 184.175 -18.01 184.175 -13 180 C-12.34 180 -11.68 180 -11 180 C-10.34 178.68 -9.68 177.36 -9 176 C-7.35 173.36 -5.7 170.72 -4 168 C7.737 113.228 -0.364 56.015 0 0 Z " fill="#EBA376" transform="translate(233,383)"/>
<path d="M0 0 C0.66 0 1.32 0 2 0 C2.33 24.42 2.66 48.84 3 74 C4.65 74.99 6.3 75.98 8 77 C10 81 10 81 10 86 C12.31 86.33 14.62 86.66 17 87 C25 93 25 93 27 96 C27.66 96 28.32 96 29 96 C32.3 91.71 35.6 87.42 39 83 C68.25 53.75 68.25 53.75 87 50 C87 33.5 87 17 87 0 C87.99 0 88.98 0 90 0 C90 15.84 90 31.68 90 48 C92.31 47.01 94.62 46.02 97 45 C137.27 33.494 174.001 38.5 211 57 C243.013 79.163 262.295 104.545 274 142 C290.77 242.617 277 345.995 277 448 C187.24 448 97.48 448 5 448 C5 153 5 153 9 141 C9.99 137.37 10.98 133.74 12 130 C12.99 127.36 13.98 124.72 15 122 C15.33 120.35 15.66 118.7 16 117 C0.82 117 -14.36 117 -30 117 C-30 104.2 -27.399 99.599 -19 90 C-13 86 -13 86 -8 85 C-7.67 83.02 -7.34 81.04 -7 79 C-6.01 77.68 -5.02 76.36 -4 75 C-2.68 75 -1.36 75 0 75 C0 50.25 0 25.5 0 0 Z " fill="#C74A40" transform="translate(459,383)"/>
<path d="M0 0 C16.477 11.534 25.61 23.238 31 43 C31 46.3 31 49.6 31 53 C35.125 52.505 35.125 52.505 56 50 C59.3 50 62.6 50 66 50 C66 56.93 66 63.86 66 71 C81.84 71 97.68 71 114 71 C114 78.26 114 85.52 114 93 C110.04 93 106.08 93 102 93 C102 145.47 102 197.94 102 252 C37 253 37 253 8 253 C8 244.75 8 236.5 8 228 C-16.42 228 -40.84 228 -66 228 C-66 235.92 -66 243.84 -66 252 C-74.58 252 -83.16 252 -92 252 C-92 197 -92 197 -89 191 C-78.44 190.01 -67.88 189.02 -57 188 C-55.02 187.67 -53.04 187.34 -51 187 C-51 184.03 -51 181.06 -51 178 C-87.552 174.677 -124.326 174.655 -161 174 C-161 99 -161 99 -160 93 C-163.96 93 -167.92 93 -172 93 C-172 85.74 -172 78.48 -172 71 C-144.28 71 -116.56 71 -88 71 C-88 65.06 -88 59.12 -88 53 C-87.835 52.67 -87.835 52.67 -87 51 C-86.34 46.05 -85.68 41.1 -85 36 C-84.01 33.36 -83.02 30.72 -82 28 C-81.34 28 -80.68 28 -80 28 C-79.67 26.35 -79.34 24.7 -79 23 C-71 12 -71 12 -67 8 C-66.34 8 -65.68 8 -65 8 C-65 7.34 -65 6.68 -65 6 C-42.215 -8.021 -25.45 -8.483 0 0 Z " fill="#E9A175" transform="translate(312,696)"/>
<path d="M0 0 C75.24 0 150.48 0 228 0 C228 52.14 228 104.28 228 158 C224.7 157.67 221.4 157.34 218 157 C200.898 157 192.669 161.598 180 173 C174 185 174 185 172 196 C169.69 194.02 167.38 192.04 165 190 C153.911 183.839 150.937 184 138 184 C127.489 188.204 123.293 190.492 116 199 C114.02 203.62 112.04 208.24 110 213 C103.4 204.2 103.4 204.2 102 200 C101.34 199.67 101.34 199.67 98 198 C96.515 197.175 96.515 197.175 89 193 C70 193 70 193 63 195 C62.34 190.71 61.68 186.42 61 182 C52.211 164.421 48.987 160.147 32 151 C20.541 148.453 11.532 148.903 0 151 C0 101.17 0 51.34 0 0 Z " fill="#BCDCE9" transform="translate(486,555)"/>
<path d="M0 0 C8.58 0 17.16 0 26 0 C26 27.72 26 55.44 26 84 C22.7 84.165 22.7 84.165 6 85 C1 89 1 89 -1 94 C20.12 94 41.24 94 63 94 C61 89 61 89 55 85 C48.73 84.67 42.46 84.34 36 84 C34.976 56.35 35 28.669 35 1 C47.21 0.67 59.42 0.34 72 0 C71.34 1.98 70.68 3.96 70 6 C69.67 24.15 69.34 42.3 69 61 C77.58 61 86.16 61 95 61 C95 53.08 95 45.16 95 37 C119.42 37 143.84 37 169 37 C169 45.25 169 53.5 169 62 C178.57 61.67 188.14 61.34 198 61 C263 61 263 61 294 62 C294 72.23 294 82.46 294 93 C295.98 92.67 297.96 92.34 300 92 C300.33 82.1 300.66 72.2 301 62 C310.24 62 319.48 62 329 62 C329 72.23 329 82.46 329 93 C330.98 92.67 332.96 92.34 335 92 C335.33 82.1 335.66 72.2 336 62 C343.92 62 351.84 62 360 62 C360 72.23 360 82.46 360 93 C362.31 93 364.62 93 367 93 C367 82.77 367 72.54 367 62 C385.81 62 404.62 62 424 62 C424 69.26 424 76.52 424 84 C417.73 84.33 411.46 84.66 405 85 C400 88 400 88 397 94 C418.12 94 439.24 94 461 94 C459 89 459 89 453 85 C446.73 84.67 440.46 84.34 434 84 C434 76.74 434 69.48 434 62 C452.48 62 470.96 62 490 62 C490 72.23 490 82.46 490 93 C492.31 93 494.62 93 497 93 C497 82.77 497 72.54 497 62 C504.59 62 512.18 62 520 62 C520.33 71.9 520.66 81.8 521 92 C522.98 92 524.96 92 527 92 C527.33 82.1 527.66 72.2 528 62 C537.24 62 546.48 62 556 62 C556 72.23 556 82.46 556 93 C556.99 92.835 556.99 92.835 562 92 C562.33 82.1 562.66 72.2 563 62 C580.82 62 598.64 62 617 62 C617 76.52 617 91.04 617 106 C363.56 106 110.12 106 -151 106 C-151 91.48 -151 76.96 -151 62 C-136.15 62 -121.3 62 -106 62 C-105.67 71.9 -105.34 81.8 -105 92 C-103.02 92 -101.04 92 -99 92 C-98.67 82.1 -98.34 72.2 -98 62 C-89.09 62 -80.18 62 -71 62 C-70.67 71.9 -70.34 81.8 -70 92 C-68.02 92.33 -66.04 92.66 -64 93 C-64 82.77 -64 72.54 -64 62 C-56.08 62 -48.16 62 -40 62 C-40 72.23 -40 82.46 -40 93 C-37.69 93 -35.38 93 -33 93 C-33 82.77 -33 72.54 -33 62 C-22.11 62 -11.22 62 0 62 C0 41.54 0 21.08 0 0 Z " fill="#AEAEAE" transform="translate(151,887)"/>
<path d="M0 0 C8.796 8.796 14.848 16.391 18 29 C18 31.97 18 34.94 18 38 C20.31 37.01 22.62 36.02 25 35 C44 35 44 35 53 40 C57.451 44.451 61.231 48.974 65 54 C66.65 50.04 68.3 46.08 70 42 C81.903 28.774 81.903 28.774 93 26 C106.745 26 111.232 26.939 123 34 C123.99 35.32 124.98 36.64 126 38 C126.66 34.7 127.32 31.4 128 28 C134.103 15.795 138.539 10.163 150 3 C153.3 2.01 156.6 1.02 160 0 C160.33 -0.33 160.66 -0.66 161 -1 C173 -1 173 -1 183 1 C183 32.68 183 64.36 183 97 C107.76 97 32.52 97 -45 97 C-45 63.01 -45 29.02 -45 -6 C-27.165 -10.864 -16.105 -8.785 0 0 Z " fill="#64935B" transform="translate(531,712)"/>
<path d="M0 0 C0 16.5 0 33 0 50 C-2.64 51.32 -2.64 51.32 -16 58 C-32.841 69.228 -45.837 80.782 -58 97 C-62 95 -62 95 -67 90 C-73 87 -73 87 -77 86 C-77.99 83.03 -78.98 80.06 -80 77 C-81.65 76.01 -83.3 75.02 -85 74 C-85 49.58 -85 25.16 -85 0 C-85.66 0 -86.32 0 -87 0 C-87 24.75 -87 49.5 -87 75 C-88.65 75.66 -90.3 76.32 -92 77 C-92.99 79.64 -93.98 82.28 -95 85 C-98.3 86.65 -101.6 88.3 -105 90 C-115.587 101.91 -116 104.807 -116 121 C-120.62 138.49 -125.24 155.98 -130 174 C-130.66 174 -131.32 174 -132 174 C-146 123.6 -146 123.6 -146 110 C-149.159 99.471 -151.811 94.126 -161 88 C-163.31 87.34 -165.62 86.68 -168 86 C-168.66 83.36 -169.32 80.72 -170 78 C-171.65 77.01 -173.3 76.02 -175 75 C-175 50.25 -175 25.5 -175 0 C-116.671 -0.67 -58.33 -0.663 0 0 Z " fill="#F1F1F0" transform="translate(546,383)"/>
<path d="M0 0 C16.477 11.534 25.61 23.238 31 43 C31 46.3 31 49.6 31 53 C35.125 52.505 35.125 52.505 56 50 C59.3 50 62.6 50 66 50 C66 56.93 66 63.86 66 71 C81.84 71 97.68 71 114 71 C114 78.26 114 85.52 114 93 C19.62 93 -74.76 93 -172 93 C-172 85.74 -172 78.48 -172 71 C-144.28 71 -116.56 71 -88 71 C-88 65.06 -88 59.12 -88 53 C-87.835 52.67 -87.835 52.67 -87 51 C-86.34 46.05 -85.68 41.1 -85 36 C-84.01 33.36 -83.02 30.72 -82 28 C-81.34 28 -80.68 28 -80 28 C-79.67 26.35 -79.34 24.7 -79 23 C-71 12 -71 12 -67 8 C-66.34 8 -65.68 8 -65 8 C-65 7.34 -65 6.68 -65 6 C-42.215 -8.021 -25.45 -8.483 0 0 Z " fill="#C14239" transform="translate(312,696)"/>
<path d="M0 0 C28.71 0 57.42 0 87 0 C87 51.15 87 102.3 87 155 C58.29 155 29.58 155 0 155 C0 103.85 0 52.7 0 0 Z " fill="#C4463F" transform="translate(34,504)"/>
<path d="M0 0 C0.33 0.66 0.66 1.32 1 2 C2.65 2.33 4.3 2.66 6 3 C9.96 4.815 9.96 4.815 30 14 C35.61 16.31 41.22 18.62 47 21 C48.002 21.434 48.002 21.434 53.07 23.633 C55.063 24.497 57.056 25.361 59.048 26.225 C60.408 26.814 61.767 27.404 63.126 27.993 C72.408 32.019 81.698 36.023 91 40 C91.57 40.262 92.14 40.525 92.727 40.795 C102.21 45.133 111.763 49.312 121.312 53.5 C122.207 53.893 123.102 54.285 124.024 54.69 C140.328 61.844 156.654 68.943 173 76 C178.28 78.64 183.56 81.28 189 84 C187.35 85.65 185.7 87.3 184 89 C176.754 97.454 173.385 104.924 172 116 C169.69 114.02 167.38 112.04 165 110 C153.911 103.839 150.937 104 138 104 C127.489 108.204 123.293 110.492 116 119 C114.02 123.62 112.04 128.24 110 133 C103.4 124.2 103.4 124.2 102 120 C101.34 119.67 101.34 119.67 98 118 C95.03 116.35 92.06 114.7 89 113 C70 113 70 113 63 115 C62.34 110.71 61.68 106.42 61 102 C52.211 84.421 48.987 80.147 32 71 C20.541 68.453 11.532 68.903 0 71 C0 47.57 0 24.14 0 0 Z " fill="#A5D2EC" transform="translate(486,635)"/>
<path d="M0 0 C39.93 0 79.86 0 121 0 C121 34.32 121 68.64 121 104 C106.131 101.026 92.482 92.741 79 86 C74.05 84.02 69.1 82.04 64 80 C62.942 79.504 62.942 79.504 57.59 76.996 C48.943 72.955 40.255 69.004 31.562 65.062 C30.041 64.372 28.519 63.681 26.998 62.99 C23.332 61.326 19.666 59.663 16 58 C10.481 38.682 5.174 19.401 0 0 Z " fill="#A5D2EB" transform="translate(593,555)"/>
<path d="M0 0 C-1.32 2.31 -2.64 4.62 -4 7 C-4.045 7.595 -4.09 8.19 -4.136 8.803 C-5.513 26.895 -7.204 44.946 -9 63 C-6.03 63 -3.06 63 0 63 C0 57.06 0 51.12 0 45 C0.33 42.69 0.66 40.38 1 38 C9.58 38 18.16 38 27 38 C26.483 48.342 25.937 58.688 25 69 C25.495 69.165 25.495 69.165 28 70 C28.99 71.65 29.98 73.3 31 75 C32.32 63.12 33.64 51.24 35 39 C35.99 31.41 36.98 23.82 38 16 C38.66 16 39.32 16 40 16 C40 16.66 40 17.32 40 18 C40.495 18.165 40.495 18.165 43 19 C64.698 48.835 60 63.852 60 104 C50.43 104 40.86 104 31 104 C31 95.75 31 87.5 31 79 C6.58 79 -17.84 79 -43 79 C-43 86.92 -43 94.84 -43 103 C-51.58 103 -60.16 103 -69 103 C-69 48 -69 48 -66 42 C-55.44 41.01 -44.88 40.02 -34 39 C-33.01 38.835 -33.01 38.835 -28 38 C-28 35.03 -28 32.06 -28 29 C-28.606 28.946 -29.213 28.892 -29.837 28.836 C-38.291 28.076 -46.739 27.258 -55.188 26.438 C-56.631 26.297 -58.074 26.158 -59.518 26.018 C-63.012 25.679 -66.506 25.339 -70 25 C-70 20.71 -70 16.42 -70 12 C-61.09 11.67 -52.18 11.34 -43 11 C-39.7 9.02 -36.4 7.04 -33 5 C-17 0 -17 0 0 0 Z " fill="#56221D" transform="translate(289,845)"/>
<path d="M0 0 C19.8 0 39.6 0 60 0 C60 5.28 60 10.56 60 16 C60.66 16 61.32 16 62 16 C62.66 14.68 63.32 13.36 64 12 C64.66 11.34 65.32 10.68 66 10 C66.33 6.7 66.66 3.4 67 0 C70.3 0 73.6 0 77 0 C76.34 0.99 75.68 1.98 75 3 C74.34 3 73.68 3 73 3 C89 25 89 25 95 31 C92.69 32.98 90.38 34.96 88 37 C81 47 81 47 80 51 C79.34 51 78.68 51 78 51 C77.67 52.65 77.34 54.3 77 56 C76.34 58.64 75.68 61.28 75 64 C74.67 67.3 74.34 70.6 74 74 C73.67 74.66 73.34 75.32 73 76 C72.67 81.94 72.34 87.88 72 94 C48.24 94 24.48 94 0 94 C0 62.98 0 31.96 0 0 Z " fill="#C14439" transform="translate(152,673)"/>
<path d="M0 0 C26.728 0 48.602 12.973 69 29 C87.331 47.331 100.273 67.914 104 94 C69.68 94 35.36 94 0 94 C0 62.98 0 31.96 0 0 Z " fill="#A6D1EA" transform="translate(609,444)"/>
<path d="M0 0 C29.04 0.33 58.08 0.66 88 1 C88 17.5 88 34 88 51 C85.36 52.32 85.36 52.32 72 59 C55.159 70.228 42.163 81.782 30 98 C26 96 26 96 21 91 C15 88 15 88 11 87 C10.01 84.03 9.02 81.06 8 78 C6.35 77.01 4.7 76.02 3 75 C3 50.58 3 26.16 3 1 C2.34 1 1.68 1 1 1 C1 25.75 1 50.5 1 76 C0.34 75.67 -0.32 75.34 -1 75 C-0.67 50.25 -0.34 25.5 0 0 Z " fill="#EEEEED" transform="translate(458,382)"/>
<path d="M0 0 C0.66 0 1.32 0 2 0 C2.33 24.42 2.66 48.84 3 74 C4.65 74.99 6.3 75.98 8 77 C10 81 10 81 10 86 C12.31 86.33 14.62 86.66 17 87 C25 93 25 93 27 96 C27.66 96 28.32 96 29 96 C32.3 91.71 35.6 87.42 39 83 C68.25 53.75 68.25 53.75 87 50 C87 33.5 87 17 87 0 C87.99 0 88.98 0 90 0 C90 24.75 90 49.5 90 75 C90.66 75.165 90.66 75.165 94 76 C94.99 76.99 95.98 77.98 97 79 C97 81.31 97 83.62 97 86 C99.31 86.33 101.62 86.66 104 87 C112.894 93.671 116.936 99.275 120 110 C120 112.31 120 114.62 120 117 C99.54 117 79.08 117 58 117 C58 104.2 60.601 99.599 69 90 C75 86 75 86 79 85 C79.66 82.69 80.32 80.38 81 78 C58.805 89.098 46.172 109.897 35 131 C33 129 33 129 30 118 C10.048 116.465 -9.993 116.426 -30 116 C-30 103.831 -26.982 99.123 -19 90 C-13 86 -13 86 -8 85 C-7.67 83.02 -7.34 81.04 -7 79 C-6.01 77.68 -5.02 76.36 -4 75 C-2.68 75 -1.36 75 0 75 C0 50.25 0 25.5 0 0 Z " fill="#C4433B" transform="translate(459,383)"/>
<path d="M0 0 C0 31.35 0 62.7 0 95 C-34.65 95 -69.3 95 -105 95 C-101.595 67.757 -85.945 45.945 -67 27 C-62.05 23.37 -57.1 19.74 -52 16 C-51.34 16.33 -50.68 16.66 -50 17 C-50.66 17.99 -51.32 18.98 -52 20 C-52.66 21.98 -53.32 23.96 -54 26 C-56.31 26.99 -58.62 27.98 -61 29 C-71.811 38.46 -72.787 42.616 -75 57 C-54.54 57 -34.08 57 -13 57 C-15.209 43.746 -18.242 36.069 -29 28 C-31.31 27.34 -33.62 26.68 -36 26 C-36.165 24.845 -36.165 24.845 -37 19 C-40 16 -40 16 -43 15 C-43 14.01 -43 13.02 -43 12 C-29.245 5.982 -15.294 0 0 0 Z " fill="#D0DFD2" transform="translate(592,443)"/>
<path d="M0 0 C75.24 0 150.48 0 228 0 C228 7.92 228 15.84 228 24 C152.76 24 77.52 24 0 24 C0 16.08 0 8.16 0 0 Z " fill="#9FBF6C" transform="translate(486,785)"/>
<path d="M0 0 C16.477 11.534 25.61 23.238 31 43 C32 53 32 53 32 70 C26.06 70 20.12 70 14 70 C13.34 65.71 12.68 61.42 12 57 C6 48 6 48 -6 37 C-6.33 35.35 -6.66 33.7 -7 32 C-10 34 -10 34 -12 42 C-17 41 -17 41 -23 34 C-24 32 -24 32 -24 22 C-23.67 21.34 -23.34 20.68 -23 20 C-32 26 -32 26 -34 29 C-34.33 33.29 -34.66 37.58 -35 42 C-39 46 -39 46 -43 47 C-43.33 43.7 -43.66 40.4 -44 37 C-44.33 36.835 -44.33 36.835 -46 36 C-46.66 37.32 -47.32 38.64 -48 40 C-49.729 41.417 -51.458 42.834 -53.188 44.25 C-54.15 45.039 -55.113 45.828 -56.105 46.641 C-58.725 48.776 -61.357 50.894 -64 53 C-67 59 -67 59 -68 71 C-74.27 71 -80.54 71 -87 71 C-87 41.333 -87 41.333 -82 28 C-81.34 28 -80.68 28 -80 28 C-79.67 26.35 -79.34 24.7 -79 23 C-71 12 -71 12 -67 8 C-66.34 8 -65.68 8 -65 8 C-65 7.34 -65 6.68 -65 6 C-42.215 -8.021 -25.45 -8.483 0 0 Z " fill="#7B2D26" transform="translate(312,696)"/>
<path d="M0 0 C0.33 0 0.66 0 1 0 C1 52.47 1 104.94 1 159 C10.9 159 20.8 159 31 159 C31 153.72 31 148.44 31 143 C33.31 143.33 35.62 143.66 38 144 C38 148.95 38 153.9 38 159 C47.24 159 56.48 159 66 159 C66 154.38 66 149.76 66 145 C67.155 144.67 67.155 144.67 73 143 C73 148.28 73 153.56 73 159 C80.59 159 88.18 159 96 159 C96 154.05 96 149.1 96 144 C96.33 143.67 96.66 143.34 97 143 C98.98 143 100.96 143 103 143 C104 146 104 146 104 159 C122.81 159 141.62 159 161 159 C161 139.2 161 119.4 161 99 C151.43 99 141.86 99 132 99 C93.56 96.52 93.56 96.52 86 94 C86 91.69 86 89.38 86 87 C94.25 87.99 102.5 88.98 111 90 C156.028 92.37 201.255 92.966 246 87 C246 89.31 246 91.62 246 94 C222.255 100.784 195.316 99 171 99 C171 118.8 171 138.6 171 159 C189.48 159 207.96 159 227 159 C227 154.05 227 149.1 227 144 C227.33 143.67 227.66 143.34 228 143 C229.65 143 231.3 143 233 143 C236.779 146.779 234 153.656 234 159 C241.59 159 249.18 159 257 159 C257 153.72 257 148.44 257 143 C259.64 143 262.28 143 265 143 C265 148.28 265 153.56 265 159 C274.24 159 283.48 159 293 159 C292.67 157.35 292.34 155.7 292 154 C292 146 292 146 293 143 C295.31 143 297.62 143 300 143 C300 148.28 300 153.56 300 159 C317.82 159 335.64 159 354 159 C354 159.33 354 159.66 354 160 C336.18 160 318.36 160 300 160 C300 169.9 300 179.8 300 190 C299.67 190.33 299.34 190.66 299 191 C297.02 191 295.04 191 293 191 C293 180.77 293 170.54 293 160 C283.76 160 274.52 160 265 160 C265 169.9 265 179.8 265 190 C264.67 190.33 264.34 190.66 264 191 C262.02 191 260.04 191 258 191 C257.67 190.67 257.34 190.34 257 190 C257 180.1 257 170.2 257 160 C249.41 160 241.82 160 234 160 C234 170.23 234 180.46 234 191 C231.69 191 229.38 191 227 191 C227 180.77 227 170.54 227 160 C208.52 160 190.04 160 171 160 C171 167.26 171 174.52 171 182 C177.27 182 183.54 182 190 182 C196 186 196 186 198 188 C198 189.32 198 190.64 198 192 C176.88 192 155.76 192 134 192 C136 186 136 186 142 182 C148.27 182 154.54 182 161 182 C161 174.74 161 167.48 161 160 C142.19 160 123.38 160 104 160 C104 170.23 104 180.46 104 191 C101.69 191 99.38 191 97 191 C97 180.77 97 170.54 97 160 C89.08 160 81.16 160 73 160 C73 169.9 73 179.8 73 190 C72.67 190.33 72.34 190.66 72 191 C70.02 191 68.04 191 66 191 C66 180.77 66 170.54 66 160 C56.76 160 47.52 160 38 160 C38 169.9 38 179.8 38 190 C37.67 190.33 37.34 190.66 37 191 C35.02 191 33.04 191 31 191 C31 180.77 31 170.54 31 160 C20.77 160 10.54 160 0 160 C0 107.2 0 54.4 0 0 Z " fill="#E0E0DF" transform="translate(414,789)"/>
<path d="M0 0 C28.71 0 57.42 0 87 0 C87 51.15 87 102.3 87 155 C58.29 155 29.58 155 0 155 C0 103.85 0 52.7 0 0 Z M5 32 C5 70.61 5 109.22 5 149 C30.08 149 55.16 149 81 149 C81 110.39 81 71.78 81 32 C55.92 32 30.84 32 5 32 Z " fill="#C44943" transform="translate(34,504)"/>
<path d="M0 0 C20.46 0 40.92 0 62 0 C62 8.25 62 16.5 62 25 C52.925 25.165 52.925 25.165 7 26 C9.64 27.65 12.28 29.3 15 31 C15 35 15 35 1 54 C-0.32 55.98 -1.64 57.96 -3 60 C-6.96 58.02 -10.92 56.04 -15 54 C-28 50 -28 50 -49 50 C-49.66 46.205 -49.66 46.205 -53 27 C-53.66 24.03 -54.32 21.06 -55 18 C-58.96 18.33 -62.92 18.66 -67 19 C-67 13.06 -67 7.12 -67 1 C-46.87 1 -26.74 1 -6 1 C-6 7.6 -6 14.2 -6 21 C-4.02 21.33 -2.04 21.66 0 22 C0 14.74 0 7.48 0 0 Z " fill="#BC4138" transform="translate(322,641)"/>
<path d="M0 0 C20.46 0 40.92 0 62 0 C62 6.93 62 13.86 62 21 C63.65 20.67 65.3 20.34 67 20 C67 13.4 67 6.8 67 0 C87.79 0 108.58 0 130 0 C130 6.93 130 13.86 130 21 C129.67 21 129.34 21 129 21 C129 14.4 129 7.8 129 1 C108.87 1 88.74 1 68 1 C68 6.94 68 12.88 68 19 C69.98 18.34 71.96 17.68 74 17 C75.98 17 77.96 17 80 17 C83.108 27.879 86 38.633 86 50 C83.525 50.825 83.525 50.825 71 55 C67.37 57.31 63.74 59.62 60 62 C49.882 56.941 44.425 45.996 38 37 C38 36.34 38 35.68 38 35 C38.99 34.34 39.98 33.68 41 33 C38.03 32.67 35.06 32.34 32 32 C32 35.3 32 38.6 32 42 C31.67 42 31.34 42 31 42 C31 38.37 31 34.74 31 31 C35.95 30.67 40.9 30.34 46 30 C47.32 29.01 48.64 28.02 50 27 C50.99 27 51.98 27 53 27 C53 26.34 53 25.68 53 25 C35.51 25 18.02 25 0 25 C0 16.75 0 8.5 0 0 Z " fill="#DE6F48" transform="translate(187,641)"/>
<path d="M0 0 C3.96 0 7.92 0 12 0 C12 8.25 12 16.5 12 25 C11.34 25 10.68 25 10 25 C10.165 25.99 10.165 25.99 11 31 C23.21 31 35.42 31 48 31 C48 41.23 48 51.46 48 62 C51.96 62 55.92 62 60 62 C60 62.33 60 62.66 60 63 C44.16 63 28.32 63 12 63 C12 56.07 12 49.14 12 42 C2.43 42.99 -7.14 43.98 -17 45 C-18.98 45 -20.96 45 -23 45 C-23.66 40.05 -24.32 35.1 -25 30 C-26.32 26.37 -27.64 22.74 -29 19 C-20.09 14.38 -11.18 9.76 -2 5 C-1.01 4.34 -0.02 3.68 1 3 C0.67 2.01 0.34 1.02 0 0 Z " fill="#E07048" transform="translate(366,704)"/>
<path d="M0 0 C0.66 0 1.32 0 2 0 C2 2.97 2 5.94 2 9 C-20.929 16.643 -49.091 14 -73 14 C-72.67 32.48 -72.34 50.96 -72 70 C-72 78.91 -72 87.82 -72 97 C-65.73 97 -59.46 97 -53 97 C-47 101 -47 101 -45 103 C-45 104.32 -45 105.64 -45 107 C-66.12 107 -87.24 107 -109 107 C-108 102 -108 102 -102 97 C-95.4 97 -88.8 97 -82 97 C-82 69.28 -82 41.56 -82 13 C-95.86 13 -109.72 13 -124 13 C-151 11 -151 11 -158 9 C-158 6.69 -158 4.38 -158 2 C-148.1 2.99 -138.2 3.98 -128 5 C-85.736 7.113 -41.975 8.996 0 2 C0 1.34 0 0.68 0 0 Z " fill="#DDDBDA" transform="translate(259,874)"/>
<path d="M0 0 C0 3.96 0 7.92 0 12 C6 20 6 20 11 22 C11.33 19.36 11.66 16.72 12 14 C13.32 13.34 14.64 12.68 16 12 C16.99 13.98 17.98 15.96 19 18 C23.29 21.96 27.58 25.92 32 30 C36 37 36 37 36 51 C9.27 51 -17.46 51 -45 51 C-45 39 -45 39 -40 31 C-37.69 29.185 -37.69 29.185 -26 20 C-25.01 18.68 -24.02 17.36 -23 16 C-22.01 16.33 -21.02 16.66 -20 17 C-20 20.3 -20 23.6 -20 27 C-14 24 -14 24 -13 22 C-12.835 19.855 -12.835 19.855 -12 9 C-4.5 0 -4.5 0 0 0 Z " fill="#EB7D4F" transform="translate(289,716)"/>
<path d="M0 0 C19.8 0 39.6 0 60 0 C60 5.28 60 10.56 60 16 C60.66 16 61.32 16 62 16 C62.66 14.68 63.32 13.36 64 12 C64.66 11.34 65.32 10.68 66 10 C66.33 6.7 66.66 3.4 67 0 C70.3 0 73.6 0 77 0 C76.34 0.99 75.68 1.98 75 3 C74.34 3 73.68 3 73 3 C89 25 89 25 95 31 C92.69 32.98 90.38 34.96 88 37 C86.02 39.97 84.04 42.94 82 46 C71.863 40.932 61.84 35.623 52 30 C52.66 28.35 53.32 26.7 54 25 C36.18 25 18.36 25 0 25 C0 16.75 0 8.5 0 0 Z " fill="#BE4238" transform="translate(152,673)"/>
<path d="M0 0 C16.477 11.534 25.61 23.238 31 43 C31 48.28 31 53.56 31 59 C25.265 56.133 24.57 47.874 22 42 C9.992 25.989 0.344 20.689 -19 15 C-37 15 -37 15 -43 17 C-47 18.333 -51 19.667 -55 21 C-71.398 32.479 -79.173 43.577 -85 63 C-85.33 65.31 -85.66 67.62 -86 70 C-86.33 70 -86.66 70 -87 70 C-87 41.333 -87 41.333 -82 28 C-81.34 28 -80.68 28 -80 28 C-79.67 26.35 -79.34 24.7 -79 23 C-71 12 -71 12 -67 8 C-66.34 8 -65.68 8 -65 8 C-65 7.34 -65 6.68 -65 6 C-42.215 -8.021 -25.45 -8.483 0 0 Z " fill="#52211D" transform="translate(312,696)"/>
<path d="M0 0 C1.98 0 3.96 0 6 0 C6.66 1.98 7.32 3.96 8 6 C8.66 7.32 9.32 8.64 10 10 C10.66 10 11.32 10 12 10 C12 6.7 12 3.4 12 0 C31.8 0 51.6 0 72 0 C72 8.25 72 16.5 72 25 C56.16 25 40.32 25 24 25 C24.165 25.825 24.165 25.825 25 30 C1 44 1 44 -3 45 C-3.33 45.66 -3.66 46.32 -4 47 C-6.31 43.7 -8.62 40.4 -11 37 C-11.99 35.845 -11.99 35.845 -17 30 C-14.36 27.03 -11.72 24.06 -9 21 C2 7 2 7 3 3 C2.01 2.01 1.02 1.02 0 0 Z " fill="#D96543" transform="translate(339,673)"/>
<path d="M0 0 C4 1 4 1 8 7 C10 15 10 15 11 25 C12.32 23.35 13.64 21.7 15 20 C17.31 19.67 19.62 19.34 22 19 C24.838 21.838 23 26.986 23 31 C16 45 16 45 11 50 C13.97 50.33 16.94 50.66 20 51 C21 52 21 52 21 60 C20.34 60.165 20.34 60.165 17 61 C16.67 64.3 16.34 67.6 16 71 C14 81 14 81 13 82 C5.08 82 -2.84 82 -11 82 C-15 65 -15 65 -15 61 C-15.99 61 -16.98 61 -18 61 C-18 57.7 -18 54.4 -18 51 C-16.515 50.835 -16.515 50.835 -9 50 C-11.64 46.37 -14.28 42.74 -17 39 C-20 32 -20 32 -20 24 C-19.67 23.67 -19.34 23.34 -19 23 C-12 24 -12 24 -8 29 C-7.67 23.39 -7.34 17.78 -7 12 C-3 2 -3 2 0 0 Z " fill="#77A466" transform="translate(78,684)"/>
<path d="M0 0 C6 3 6 3 10 9 C10 32.087 6.646 55.065 4 78 C1 77 1 77 -3 72 C-3 48 -3 48 -1 42 C-6.94 42 -12.88 42 -19 42 C-21.31 41.67 -23.62 41.34 -26 41 C-26.66 48.92 -27.32 56.84 -28 65 C-30.97 65 -33.94 65 -37 65 C-34.03 11.545 -34.03 11.545 -29 4 C-19.132 -3.401 -16.577 0 0 0 Z " fill="#FEFDFE" transform="translate(711,842)"/>
<path d="M0 0 C6 3 6 3 9 6 C11.146 14.585 10.195 23.306 9.195 31.988 C5.571 63.514 5.571 63.514 4 79 C1.667 76.667 -0.667 74.333 -3 72 C-3 61 -3 61 -1 41 C-9.58 41 -18.16 41 -27 41 C-27.33 49.25 -27.66 57.5 -28 66 C-30.97 66 -33.94 66 -37 66 C-37 52.629 -35.33 39.304 -34 26 C-33.67 20.72 -33.34 15.44 -33 10 C-23.653 -4.02 -19.458 0 0 0 Z " fill="#FBFAF8" transform="translate(317,842)"/>
<path d="M0 0 C8.25 0 16.5 0 25 0 C25 24.75 25 49.5 25 75 C24.175 75.33 24.175 75.33 20 77 C19.01 79.97 18.02 82.94 17 86 C14.36 86.99 11.72 87.98 9 89 C5.916 91.57 2.838 94.162 0 97 C0 64.99 0 32.98 0 0 Z " fill="#EEEDEC" transform="translate(343,383)"/>
<path d="M0 0 C-0.66 1.98 -1.32 3.96 -2 6 C-2.33 24.15 -2.66 42.3 -3 61 C5.58 61 14.16 61 23 61 C23 61.33 23 61.66 23 62 C3.53 62 -15.94 62 -36 62 C-39.988 42.059 -37 21.336 -37 1 C-5 0 -5 0 0 0 Z " fill="#D76D46" transform="translate(223,887)"/>
<path d="M0 0 C0.99 0 1.98 0 3 0 C3 24.75 3 49.5 3 75 C4.32 75.33 5.64 75.66 7 76 C10 80 10 80 10 86 C12.31 86.33 14.62 86.66 17 87 C26.261 94.203 29.802 98.807 33 110 C33 112.31 33 114.62 33 117 C12.54 117 -7.92 117 -29 117 C-29 104.911 -26.856 99.166 -19 90 C-12 86 -12 86 -8 86 C-7.67 83.69 -7.34 81.38 -7 79 C-5.68 77.68 -4.36 76.36 -3 75 C-2.01 75 -1.02 75 0 75 C0 50.25 0 25.5 0 0 Z " fill="#C5453B" transform="translate(368,383)"/>
<path d="M0 0 C0.66 0 1.32 0 2 0 C2 0.66 2 1.32 2 2 C2.99 2.33 3.98 2.66 5 3 C26.851 33.045 21 45.295 21 87 C12.09 87 3.18 87 -6 87 C-6 57.154 -3.847 29.496 0 0 Z " fill="#56221D" transform="translate(327,861)"/>
<path d="M0 0 C8.58 0 17.16 0 26 0 C25.483 10.342 24.937 20.688 24 31 C24.495 31.165 24.495 31.165 27 32 C31 38 31 38 31 65 C39.91 65 48.82 65 58 65 C58 48.83 58 32.66 58 16 C58.33 16 58.66 16 59 16 C59 32.5 59 49 59 66 C49.43 66 39.86 66 30 66 C30 57.75 30 49.5 30 41 C5.58 41 -18.84 41 -44 41 C-43 36 -43 36 -37 29 C-27 25 -27 25 -1 25 C-1 19.06 -1 13.12 -1 7 C-0.67 4.69 -0.34 2.38 0 0 Z " fill="#BD443C" transform="translate(290,883)"/>
<path d="M0 0 C0.33 0 0.66 0 1 0 C1 1.65 1 3.3 1 5 C6.28 5 11.56 5 17 5 C29.17 9.057 31.303 11.838 38 23 C40 30 40 30 40 37 C19.54 37 -0.92 37 -22 37 C-22 24.2 -19.399 19.599 -11 10 C-5 6 -5 6 -1 5 C-0.67 3.35 -0.34 1.7 0 0 Z " fill="#C5443B" transform="translate(539,463)"/>
<path d="M0 0 C20.46 0 40.92 0 62 0 C62 8.58 62 17.16 62 26 C41.54 26 21.08 26 0 26 C0 17.42 0 8.84 0 0 Z " fill="#E17348" transform="translate(250,423)"/>
<path d="M0 0 C20.46 0 40.92 0 62 0 C62 8.25 62 16.5 62 25 C61.835 25.165 61.835 25.165 61 26 C40.87 26 20.74 26 0 26 C0 17.42 0 8.84 0 0 Z " fill="#BF4539" transform="translate(248,485)"/>
<path d="M0 0 C20.13 0 40.26 0 61 0 C61 8.58 61 17.16 61 26 C41.2 26 21.4 26 1 26 C0.67 25.67 0.34 25.34 0 25 C0 16.75 0 8.5 0 0 Z " fill="#C14539" transform="translate(282,454)"/>
<path d="M0 0 C17.82 0 35.64 0 54 0 C53.34 1.65 52.68 3.3 52 5 C52.825 5.33 52.825 5.33 57 7 C64.92 11.29 72.84 15.58 81 20 C80.34 21.65 79.68 23.3 79 25 C68.817 21.606 59.517 15.965 50 11 C49.835 10.67 49.835 10.67 49 9 C49.66 7.68 50.32 6.36 51 5 C45.06 5 39.12 5 33 5 C33 13.58 33 22.16 33 31 C35.64 31 38.28 31 41 31 C40.67 32.98 40.34 34.96 40 37 C26.8 37 13.6 37 0 37 C0 24.79 0 12.58 0 0 Z " fill="#E9A175" transform="translate(152,698)"/>
<path d="M0 0 C20.46 0 40.92 0 62 0 C62 8.25 62 16.5 62 25 C41.54 25 21.08 25 0 25 C0 16.75 0 8.5 0 0 Z " fill="#C65945" transform="translate(286,610)"/>
<path d="M0 0 C24.42 0 48.84 0 74 0 C74 18.48 74 36.96 74 56 C72.02 56 70.04 56 68 56 C67.67 55.67 67.34 55.34 67 55 C67 39.49 67 23.98 67 8 C57.76 8 48.52 8 39 8 C39 23.51 39 39.02 39 55 C38.67 55.33 38.34 55.66 38 56 C36.02 56 34.04 56 32 56 C32 40.16 32 24.32 32 8 C23.75 8 15.5 8 7 8 C7 23.84 7 39.68 7 56 C5.02 56 3.04 56 1 56 C0.67 37.52 0.34 19.04 0 0 Z " fill="#F7F0F0" transform="translate(246,924)"/>
<path d="M0 0 C20.13 0 40.26 0 61 0 C61 8.25 61 16.5 61 25 C40.87 25 20.74 25 0 25 C0 16.75 0 8.5 0 0 Z " fill="#DF7047" transform="translate(351,857)"/>
<path d="M0 0 C20.13 0 40.26 0 61 0 C61 8.25 61 16.5 61 25 C40.87 25 20.74 25 0 25 C0 16.75 0 8.5 0 0 Z " fill="#BF4138" transform="translate(349,795)"/>
<path d="M0 0 C20.13 0 40.26 0 61 0 C61 8.25 61 16.5 61 25 C40.87 25 20.74 25 0 25 C0 16.75 0 8.5 0 0 Z " fill="#BC4037" transform="translate(282,795)"/>
<path d="M0 0 C20.13 0 40.26 0 61 0 C61 8.25 61 16.5 61 25 C40.87 25 20.74 25 0 25 C0 16.75 0 8.5 0 0 Z " fill="#DE7048" transform="translate(216,795)"/>
<path d="M0 0 C20.13 0 40.26 0 61 0 C61 8.25 61 16.5 61 25 C40.87 25 20.74 25 0 25 C0 16.75 0 8.5 0 0 Z " fill="#E07248" transform="translate(220,610)"/>
<path d="M0 0 C20.13 0 40.26 0 61 0 C61 20 61 20 60 25 C40.2 25 20.4 25 0 25 C0 16.75 0 8.5 0 0 Z " fill="#E07247" transform="translate(254,579)"/>
<path d="M0 0 C19.8 0 39.6 0 60 0 C60 8.25 60 16.5 60 25 C40.2 25 20.4 25 0 25 C0 16.75 0 8.5 0 0 Z " fill="#BD4338" transform="translate(351,919)"/>
<path d="M0 0 C19.8 0 39.6 0 60 0 C60 8.25 60 16.5 60 25 C40.2 25 20.4 25 0 25 C0 16.75 0 8.5 0 0 Z " fill="#BC4138" transform="translate(184,826)"/>
<path d="M0 0 C0 8.25 0 16.5 0 25 C-20.46 25 -40.92 25 -62 25 C-62 19.72 -62 14.44 -62 9 C-51 0 -51 0 0 0 Z " fill="#BD4037" transform="translate(248,579)"/>
<path d="M0 0 C50 0 50 0 62 11 C62 15.62 62 20.24 62 25 C41.54 25 21.08 25 0 25 C0 16.75 0 8.5 0 0 Z " fill="#E38758" transform="translate(321,579)"/>
<path d="M0 0 C19.47 0 38.94 0 59 0 C59 8.25 59 16.5 59 25 C39.53 25 20.06 25 0 25 C0 16.75 0 8.5 0 0 Z " fill="#BF4339" transform="translate(152,795)"/>
<path d="M0 0 C20.13 0 40.26 0 61 0 C61 8.25 61 16.5 61 25 C44.17 25 27.34 25 10 25 C8.35 23.02 6.7 21.04 5 19 C4.175 18.67 4.175 18.67 0 17 C0 11.39 0 5.78 0 0 Z " fill="#DF7048" transform="translate(317,826)"/>
<path d="M0 0 C26.73 0 53.46 0 81 0 C85 14 85 14 85 17 C49.69 17 14.38 17 -22 17 C-22 16.67 -22 16.34 -22 16 C-16.39 16 -10.78 16 -5 16 C-5 15.34 -5 14.68 -5 14 C-4.34 14 -3.68 14 -3 14 C-2.67 12.02 -2.34 10.04 -2 8 C-1.34 5.36 -0.68 2.72 0 0 Z " fill="#DD865B" transform="translate(508,538)"/>
<path d="M0 0 C19.8 0 39.6 0 60 0 C60 7.92 60 15.84 60 24 C40.2 24 20.4 24 0 24 C0 16.08 0 8.16 0 0 Z " fill="#BF4236" transform="translate(283,393)"/>
<path d="M0 0 C0 3.63 0 7.26 0 11 C-1.485 11.165 -1.485 11.165 -9 12 C-9.33 15.96 -9.66 19.92 -10 24 C-13.3 24 -16.6 24 -20 24 C-20 19.71 -20 15.42 -20 11 C-41.45 11 -62.9 11 -85 11 C-85 15.62 -85 20.24 -85 25 C-88.63 25 -92.26 25 -96 25 C-96 20.38 -96 15.76 -96 11 C-98.64 11 -101.28 11 -104 11 C-104 7.37 -104 3.74 -104 0 C-69.337 -0.517 -34.654 -0.937 0 0 Z " fill="#E0E0E0" transform="translate(128,766)"/>
<path d="M0 0 C16.83 0 33.66 0 51 0 C51 8.25 51 16.5 51 25 C31.2 25 11.4 25 -9 25 C-9 15 -9 15 -2 5 C-1.34 3.35 -0.68 1.7 0 0 Z " fill="#DF7148" transform="translate(230,548)"/>
<path d="M0 0 C0 0.66 0 1.32 0 2 C-50.164 13.148 -105.435 10.779 -156 3 C-156.66 2.34 -157.32 1.68 -158 1 C-111.985 -17.406 -47.687 -8.67 0 0 Z " fill="#FEFEFD" transform="translate(659,874)"/>
<path d="M0 0 C0 0.66 0 1.32 0 2 C-49.293 14.323 -106.151 9.647 -156 3 C-156.33 2.01 -156.66 1.02 -157 0 C-107.904 -8.927 -49.107 -10.913 0 0 Z " fill="#FCFDFC" transform="translate(259,874)"/>
<path d="M0 0 C15.84 0 31.68 0 48 0 C48 8.25 48 16.5 48 25 C28.86 25 9.72 25 -10 25 C-8.685 15.797 -4.128 8.256 0 0 Z " fill="#BF4238" transform="translate(166,610)"/>
<path d="M0 0 C24.75 0 49.5 0 75 0 C74.34 2.31 73.68 4.62 73 7 C71.02 7.33 69.04 7.66 67 8 C66.67 12.95 66.34 17.9 66 23 C58.41 23 50.82 23 43 23 C42.835 20.525 42.835 20.525 42 8 C40.35 8.33 38.7 8.66 37 9 C36.67 13.62 36.34 18.24 36 23 C26.76 23 17.52 23 8 23 C8 18.05 8 13.1 8 8 C7.01 7.835 7.01 7.835 2 7 C1.34 4.69 0.68 2.38 0 0 Z " fill="#FDFEFD" transform="translate(444,925)"/>
<path d="M0 0 C0.33 0 0.66 0 1 0 C1 52.47 1 104.94 1 159 C10.9 159 20.8 159 31 159 C31 153.72 31 148.44 31 143 C33.31 143.33 35.62 143.66 38 144 C38 148.95 38 153.9 38 159 C47.24 159 56.48 159 66 159 C66 154.38 66 149.76 66 145 C67.155 144.67 67.155 144.67 73 143 C73 148.28 73 153.56 73 159 C80.59 159 88.18 159 96 159 C96 154.05 96 149.1 96 144 C96.33 143.67 96.66 143.34 97 143 C98.98 143 100.96 143 103 143 C104 146 104 146 104 159 C122.81 159 141.62 159 161 159 C161 159.33 161 159.66 161 160 C142.19 160 123.38 160 104 160 C104 170.23 104 180.46 104 191 C101.69 191 99.38 191 97 191 C97 180.77 97 170.54 97 160 C89.08 160 81.16 160 73 160 C73 169.9 73 179.8 73 190 C72.67 190.33 72.34 190.66 72 191 C70.02 191 68.04 191 66 191 C66 180.77 66 170.54 66 160 C56.76 160 47.52 160 38 160 C38 169.9 38 179.8 38 190 C37.67 190.33 37.34 190.66 37 191 C35.02 191 33.04 191 31 191 C31 180.77 31 170.54 31 160 C20.77 160 10.54 160 0 160 C0 107.2 0 54.4 0 0 Z " fill="#DDDDDD" transform="translate(414,789)"/>
<path d="M0 0 C14.85 0 29.7 0 45 0 C56 18.333 56 18.333 56 25 C37.52 25 19.04 25 0 25 C0 16.75 0 8.5 0 0 Z " fill="#C95D47" transform="translate(354,610)"/>
<path d="M0 0 C1.65 0 3.3 0 5 0 C8.779 3.779 6 10.656 6 16 C13.59 16 21.18 16 29 16 C29 10.72 29 5.44 29 0 C31.64 0 34.28 0 37 0 C37 5.28 37 10.56 37 16 C46.24 16 55.48 16 65 16 C64.835 15.175 64.835 15.175 64 11 C64 3 64 3 65 0 C67.31 0 69.62 0 72 0 C72 5.28 72 10.56 72 16 C89.82 16 107.64 16 126 16 C126 16.33 126 16.66 126 17 C108.18 17 90.36 17 72 17 C72 26.9 72 36.8 72 47 C71.67 47.33 71.34 47.66 71 48 C69.02 48 67.04 48 65 48 C65 37.77 65 27.54 65 17 C55.76 17 46.52 17 37 17 C37 26.9 37 36.8 37 47 C36.67 47.33 36.34 47.66 36 48 C34.02 48 32.04 48 30 48 C29.67 47.67 29.34 47.34 29 47 C29 37.1 29 27.2 29 17 C21.41 17 13.82 17 6 17 C6 27.23 6 37.46 6 48 C3.69 48 1.38 48 -1 48 C-1 37.77 -1 27.54 -1 17 C-19.48 17 -37.96 17 -57 17 C-57 16.67 -57 16.34 -57 16 C-38.52 16 -20.04 16 -1 16 C-1 11.05 -1 6.1 -1 1 C-0.67 0.67 -0.34 0.34 0 0 Z " fill="#DDDDDE" transform="translate(642,932)"/>
<path d="M0 0 C0 14.19 0 28.38 0 43 C-1.32 42.67 -2.64 42.34 -4 42 C-11 42 -11 42 -16 43 C-17.98 39.7 -19.96 36.4 -22 33 C-29 28 -29 28 -36 26 C-36.33 23.69 -36.66 21.38 -37 19 C-40 16 -40 16 -43 15 C-43 14.01 -43 13.02 -43 12 C-29.245 5.982 -15.294 0 0 0 Z " fill="#A7CEE7" transform="translate(592,443)"/>
<path d="M0 0 C20.13 0 40.26 0 61 0 C61 5.28 61 10.56 61 16 C58.195 16.165 58.195 16.165 44 17 C42.35 17.99 40.7 18.98 39 20 C33.39 20 27.78 20 22 20 C19.36 20.825 19.36 20.825 6 25 C4.02 25 2.04 25 0 25 C0 16.75 0 8.5 0 0 Z " fill="#DF6F48" transform="translate(250,826)"/>
<path d="M0 0 C16.83 0 33.66 0 51 0 C50 8 50 8 46 24 C30.82 24 15.64 24 0 24 C0 16.08 0 8.16 0 0 Z " fill="#BE4137" transform="translate(284,517)"/>
<path d="M0 0 C2.31 0 4.62 0 7 0 C7 5.28 7 10.56 7 16 C15.91 16 24.82 16 34 16 C34 11.05 34 6.1 34 1 C36.31 1 38.62 1 41 1 C41 5.95 41 10.9 41 16 C48.92 16 56.84 16 65 16 C65 10.72 65 5.44 65 0 C67.31 0 69.62 0 72 0 C72 5.28 72 10.56 72 16 C82.89 16 93.78 16 105 16 C105 16.33 105 16.66 105 17 C94.11 17 83.22 17 72 17 C72 27.23 72 37.46 72 48 C69.69 48 67.38 48 65 48 C65 37.77 65 27.54 65 17 C57.08 17 49.16 17 41 17 C41 27.23 41 37.46 41 48 C39.02 48 37.04 48 35 48 C34.67 47.67 34.34 47.34 34 47 C34 37.1 34 27.2 34 17 C25.09 17 16.18 17 7 17 C7 26.9 7 36.8 7 47 C6.67 47.33 6.34 47.66 6 48 C4.02 48 2.04 48 0 48 C-0.33 47.67 -0.66 47.34 -1 47 C-1 37.1 -1 27.2 -1 17 C-15.85 17 -30.7 17 -46 17 C-46 16.67 -46 16.34 -46 16 C-30.82 16 -15.64 16 0 16 C0 10.72 0 5.44 0 0 Z " fill="#DCDDDD" transform="translate(46,932)"/>
<path d="M0 0 C11 0 11 0 23 2 C26.63 2.33 30.26 2.66 34 3 C33.67 10.92 33.34 18.84 33 27 C9.24 27 -14.52 27 -39 27 C-39 24.69 -39 22.38 -39 20 C-26.46 20 -13.92 20 -1 20 C-1 14.39 -1 8.78 -1 3 C-0.67 2.01 -0.34 1.02 0 0 Z " fill="#D96443" transform="translate(191,740)"/>
<path d="M0 0 C14.85 0 29.7 0 45 0 C45 8.25 45 16.5 45 25 C30.15 25 15.3 25 0 25 C0 16.75 0 8.5 0 0 Z " fill="#BE4037" transform="translate(233,517)"/>
<path d="M0 0 C14.19 0 28.38 0 43 0 C43 8.58 43 17.16 43 26 C28.81 26 14.62 26 0 26 C0 17.42 0 8.84 0 0 Z " fill="#DF7247" transform="translate(233,454)"/>
<path d="M0 0 C3.96 0 7.92 0 12 0 C12 8.25 12 16.5 12 25 C11.34 25 10.68 25 10 25 C10.165 26.65 10.165 26.65 11 35 C0.44 36.65 -10.12 38.3 -21 40 C-21.165 40.825 -21.165 40.825 -22 45 C-22.33 45 -22.66 45 -23 45 C-23.66 40.05 -24.32 35.1 -25 30 C-26.32 26.37 -27.64 22.74 -29 19 C-20.09 14.38 -11.18 9.76 -2 5 C-1.01 4.34 -0.02 3.68 1 3 C0.67 2.01 0.34 1.02 0 0 Z " fill="#C14339" transform="translate(366,704)"/>
<path d="M0 0 C14.52 0 29.04 0 44 0 C44 8.25 44 16.5 44 25 C29.48 25 14.96 25 0 25 C0 16.75 0 8.5 0 0 Z " fill="#C14638" transform="translate(233,392)"/>
<path d="M0 0 C12 6 12 6 17 13 C17 13.99 17 14.98 17 16 C-7.09 16 -31.18 16 -56 16 C-55 10 -55 10 -50 5 C-32.783 -6.478 -32.202 0 0 0 Z " fill="#C6463E" transform="translate(501,908)"/>
<path d="M0 0 C10 5 10 5 15 11 C15 12.65 15 14.3 15 16 C-8.76 16 -32.52 16 -57 16 C-56 11 -56 11 -51 5 C-41 0 -41 0 0 0 Z " fill="#C4453C" transform="translate(698,908)"/>
<path d="M0 0 C7.437 2.789 12.464 5.196 17 12 C17 13.32 17 14.64 17 16 C-6.76 16 -30.52 16 -55 16 C-54 10 -54 10 -49 4 C-41 0 -41 0 0 0 Z " fill="#C5453C" transform="translate(101,908)"/>
<path d="M0 0 C0.66 0.33 1.32 0.66 2 1 C1.34 1.99 0.68 2.98 0 4 C-0.66 5.98 -1.32 7.96 -2 10 C-4.31 10.99 -6.62 11.98 -9 13 C-19.811 22.46 -20.787 26.616 -23 41 C-22.34 41 -21.68 41 -21 41 C-23 51 -23 51 -27 65 C-27.99 69.29 -28.98 73.58 -30 78 C-33.63 78 -37.26 78 -41 78 C-47 59 -47 59 -44 49 C-32.097 28.17 -19.272 14.133 0 0 Z " fill="#A9D0E8" transform="translate(540,459)"/>
<path d="M0 0 C12.54 0 25.08 0 38 0 C39 1 39 1 39 9 C37.68 9.33 36.36 9.66 35 10 C34.67 13.3 34.34 16.6 34 20 C32 30 32 30 31 31 C23.08 31 15.16 31 7 31 C3 14 3 14 3 10 C2.01 10 1.02 10 0 10 C0 6.7 0 3.4 0 0 Z " fill="#BD423B" transform="translate(60,735)"/>
<path d="M0 0 C13.2 0 26.4 0 40 0 C36 18 36 18 34 25 C22.78 25 11.56 25 0 25 C0 16.75 0 8.5 0 0 Z " fill="#BF4238" transform="translate(287,548)"/>
<path d="M0 0 C0.99 0 1.98 0 3 0 C4.32 2.97 5.64 5.94 7 9 C10 11 10 11 16 10 C16.99 8.35 17.98 6.7 19 5 C23 6 23 6 29 13 C30 15 30 15 30 24 C29.835 24.165 29.835 24.165 29 25 C10.19 25 -8.62 25 -28 25 C-28 16 -28 16 -24 11 C-22.68 10.34 -21.36 9.68 -20 9 C-18.68 9.99 -17.36 10.98 -16 12 C-13.69 12 -11.38 12 -9 12 C-7.35 9.36 -5.7 6.72 -4 4 C-2.68 2.68 -1.36 1.36 0 0 Z " fill="#F7D384" transform="translate(285,742)"/>
<path d="M0 0 C25.08 0 50.16 0 76 0 C76 38.61 76 77.22 76 117 C50.92 117 25.84 117 0 117 C0 78.39 0 39.78 0 0 Z M3 2 C3 39.29 3 76.58 3 115 C26.43 115 49.86 115 74 115 C74 77.71 74 40.42 74 2 C50.57 2 27.14 2 3 2 Z " fill="#E4CAC5" transform="translate(39,536)"/>
<path d="M0 0 C10.23 0 20.46 0 31 0 C31 8.25 31 16.5 31 25 C20.77 25 10.54 25 0 25 C0 16.75 0 8.5 0 0 Z " fill="#BE4337" transform="translate(383,888)"/>
<path d="M0 0 C10.23 0 20.46 0 31 0 C31 8.25 31 16.5 31 25 C20.77 25 10.54 25 0 25 C0 16.75 0 8.5 0 0 Z " fill="#C14238" transform="translate(383,826)"/>
<path d="M0 0 C10.23 0 20.46 0 31 0 C31 8.25 31 16.5 31 25 C20.77 25 10.54 25 0 25 C0 16.75 0 8.5 0 0 Z " fill="#BC4237" transform="translate(383,704)"/>
<path d="M0 0 C5.445 0.165 5.445 0.165 33 1 C33 9.25 33 17.5 33 26 C23.43 26 13.86 26 4 26 C3.67 21.38 3.34 16.76 3 12 C2.01 8.04 1.02 4.08 0 0 Z " fill="#DF6E45" transform="translate(345,887)"/>
<path d="M0 0 C20.13 0 40.26 0 61 0 C61 4.29 61 8.58 61 13 C50.935 12.835 50.935 12.835 0 12 C0 8.04 0 4.08 0 0 Z " fill="#DE7247" transform="translate(152,857)"/>
<path d="M0 0 C9.24 0 18.48 0 28 0 C28 8.25 28 16.5 28 25 C18.43 25 8.86 25 -1 25 C-1 2 -1 2 0 0 Z " fill="#C1443A" transform="translate(154,641)"/>
<path d="M0 0 C8.58 0 17.16 0 26 0 C26 8.58 26 17.16 26 26 C17.42 26 8.84 26 0 26 C0 17.42 0 8.84 0 0 Z " fill="#BF463A" transform="translate(317,423)"/>
<path d="M0 0 C8.91 0 17.82 0 27 0 C27 8.25 27 16.5 27 25 C18.09 25 9.18 25 0 25 C0 16.75 0 8.5 0 0 Z " fill="#E07248" transform="translate(152,704)"/>
<path d="M0 0 C8.58 0 17.16 0 26 0 C25 20 25 20 23 29 C20.36 28.01 17.72 27.02 15 26 C9.72 25.67 4.44 25.34 -1 25 C-1 7 -1 7 0 0 Z " fill="#5A2621" transform="translate(290,883)"/>
<path d="M0 0 C8.58 0 17.16 0 26 0 C26 8.25 26 16.5 26 25 C17.42 25 8.84 25 0 25 C0 16.75 0 8.5 0 0 Z " fill="#DF7149" transform="translate(152,826)"/>
<path d="M0 0 C7.92 0 15.84 0 24 0 C25.509 7.546 25.573 15.316 26 23 C32.93 23 39.86 23 47 23 C47 23.33 47 23.66 47 24 C40.73 24.165 40.73 24.165 9 25 C7.02 25.99 5.04 26.98 3 28 C2.34 28 1.68 28 1 28 C-1 10 -1 10 -1 1 C-0.67 0.67 -0.34 0.34 0 0 Z " fill="#F0EFEF" transform="translate(51,884)"/>
<path d="M0 0 C8.25 0.33 16.5 0.66 25 1 C24.34 10.57 23.68 20.14 23 30 C18.71 28.35 14.42 26.7 10 25 C6.04 24.67 2.08 24.34 -2 24 C-2 13 -2 13 0 0 Z " fill="#F0F0F0" transform="translate(685,883)"/>
<path d="M0 0 C8.25 0 16.5 0 25 0 C25 8.25 25 16.5 25 25 C16.75 25 8.5 25 0 25 C0 16.75 0 8.5 0 0 Z " fill="#BD4137" transform="translate(187,919)"/>
<path d="M0 0 C8.25 0 16.5 0 25 0 C25 8.25 25 16.5 25 25 C16.75 25 8.5 25 0 25 C0 16.75 0 8.5 0 0 Z " fill="#BD4338" transform="translate(152,919)"/>
<path d="M0 0 C8.25 0 16.5 0 25 0 C25 8.25 25 16.5 25 25 C16.75 25 8.5 25 0 25 C0 16.75 0 8.5 0 0 Z " fill="#CA563F" transform="translate(152,888)"/>
<path d="M0 0 C0 5.375 -1.183 10.688 -2 16 C-1.34 16.33 -0.68 16.66 0 17 C-0.99 19.97 -1.98 22.94 -3 26 C-10.59 26 -18.18 26 -26 26 C-26 17.75 -26 9.5 -26 1 C-17.42 0.67 -8.84 0.34 0 0 Z " fill="#E17248" transform="translate(341,484)"/>
<path d="M0 0 C6 5 6 5 7 8 C8.98 8.66 10.96 9.32 13 10 C15 15 15 15 15 19 C0.48 19 -14.04 19 -29 19 C-28 12 -28 12 -26 10 C-24.35 10 -22.7 10 -21 10 C-20.34 8.35 -19.68 6.7 -19 5 C-12 0 -12 0 0 0 Z " fill="#C9E4F2" transform="translate(681,604)"/>
<path d="M0 0 C5.94 0 11.88 0 18 0 C22 11 22 11 22 25 C12.76 25 3.52 25 -6 25 C-4.204 16.62 -2.255 8.268 0 0 Z " fill="#D88055" transform="translate(327,548)"/>
<path d="M0 0 C7.26 0 14.52 0 22 0 C24 8 24 8 24 25 C16.08 25 8.16 25 0 25 C0 16.75 0 8.5 0 0 Z " fill="#E27E50" transform="translate(390,641)"/>
<path d="M0 0 C0.33 0 0.66 0 1 0 C1 8.25 1 16.5 1 25 C11.56 25 22.12 25 33 25 C33 36.88 33 48.76 33 61 C22.44 61 11.88 61 1 61 C-2.988 41.059 0 20.336 0 0 Z M1 31 C1 39.25 1 47.5 1 56 C9.25 56 17.5 56 26 56 C26 47.75 26 39.5 26 31 C17.75 31 9.5 31 1 31 Z " fill="#E79F78" transform="translate(186,888)"/>
<path d="M0 0 C1.98 1.65 3.96 3.3 6 5 C6 6.32 6 7.64 6 9 C-15.12 9 -36.24 9 -58 9 C-53.454 -13.728 -10.572 0 0 0 Z " fill="#F7F8F7" transform="translate(208,972)"/>
<path d="M0 0 C1.98 1.65 3.96 3.3 6 5 C6 6.32 6 7.64 6 9 C-15.12 9 -36.24 9 -58 9 C-50.371 -13.887 -24.599 0 0 0 Z " fill="#F7F7F7" transform="translate(606,972)"/>
<path d="M0 0 C12 0 12 0 22 2 C22 9.26 22 16.52 22 24 C8.945 19.648 -3.493 13.73 -16 8 C-11 4 -11 4 -1 1 C-0.67 0.67 -0.34 0.34 0 0 Z " fill="#98B78E" transform="translate(692,711)"/>
<path d="M0 0 C0.33 0 0.66 0 1 0 C1 52.47 1 104.94 1 159 C10.9 159 20.8 159 31 159 C31 153.72 31 148.44 31 143 C33.31 143.33 35.62 143.66 38 144 C38 159.18 38 174.36 38 190 C37.67 190.33 37.34 190.66 37 191 C35.02 191 33.04 191 31 191 C31 180.77 31 170.54 31 160 C20.77 160 10.54 160 0 160 C0 107.2 0 54.4 0 0 Z " fill="#E2D8D3" transform="translate(414,789)"/>
<path d="M0 0 C24.09 0 48.18 0 73 0 C72.67 1.98 72.34 3.96 72 6 C51.128 16.436 25.336 7 2 7 C1.34 6.34 0.68 5.68 0 5 C0 3.35 0 1.7 0 0 Z " fill="#FDFEFD" transform="translate(46,925)"/>
<path d="M0 0 C7.59 0 15.18 0 23 0 C19 18 19 18 17 24 C11.39 24 5.78 24 0 24 C0 16.08 0 8.16 0 0 Z " fill="#BD3F37" transform="translate(287,611)"/>
<path d="M0 0 C8.91 0 17.82 0 27 0 C27 5.61 27 11.22 27 17 C18.09 17 9.18 17 0 17 C0 11.39 0 5.78 0 0 Z " fill="#592823" transform="translate(285,932)"/>
<path d="M0 0 C12.21 0 24.42 0 37 0 C37 0.33 37 0.66 37 1 C35.35 1.33 33.7 1.66 32 2 C31.67 6.62 31.34 11.24 31 16 C21.76 16 12.52 16 3 16 C3 11.05 3 6.1 3 1 C2.01 0.67 1.02 0.34 0 0 Z " fill="#F1F1F0" transform="translate(449,932)"/>
<path d="M0 0 C1.65 0 3.3 0 5 0 C8.779 3.779 6 10.656 6 16 C13.92 16 21.84 16 30 16 C30 26.23 30 36.46 30 47 C29.67 47 29.34 47 29 47 C29 37.1 29 27.2 29 17 C21.41 17 13.82 17 6 17 C6 27.23 6 37.46 6 48 C3.69 48 1.38 48 -1 48 C-1 37.77 -1 27.54 -1 17 C-19.48 17 -37.96 17 -57 17 C-57 16.67 -57 16.34 -57 16 C-38.52 16 -20.04 16 -1 16 C-1 11.05 -1 6.1 -1 1 C-0.67 0.67 -0.34 0.34 0 0 Z " fill="#DBDBDC" transform="translate(642,932)"/>
<path d="M0 0 C2.31 0 4.62 0 7 0 C7 5.28 7 10.56 7 16 C15.91 16 24.82 16 34 16 C34 16.33 34 16.66 34 17 C25.09 17 16.18 17 7 17 C7 26.9 7 36.8 7 47 C6.67 47.33 6.34 47.66 6 48 C4.02 48 2.04 48 0 48 C-0.33 47.67 -0.66 47.34 -1 47 C-1 37.1 -1 27.2 -1 17 C-15.85 17 -30.7 17 -46 17 C-46 16.67 -46 16.34 -46 16 C-30.82 16 -15.64 16 0 16 C0 10.72 0 5.44 0 0 Z " fill="#DBDBDB" transform="translate(46,932)"/>
<path d="M0 0 C19.8 0 39.6 0 60 0 C60 8.58 60 17.16 60 26 C40.2 26 20.4 26 0 26 C0 17.42 0 8.84 0 0 Z M1 1 C1 8.92 1 16.84 1 25 C16.18 25 31.36 25 47 25 C52 5 52 5 52 1 C35.17 1 18.34 1 1 1 Z " fill="#DB855C" transform="translate(283,516)"/>
<path d="M0 0 C12.54 0 25.08 0 38 0 C39 1 39 1 39 9 C38.67 9.33 38.34 9.66 38 10 C26.78 10 15.56 10 4 10 C3.67 11.32 3.34 12.64 3 14 C3 12.68 3 11.36 3 10 C2.01 10 1.02 10 0 10 C0 6.7 0 3.4 0 0 Z " fill="#CB4D44" transform="translate(60,735)"/>
<path d="M0 0 C0.99 0 1.98 0 3 0 C3 24.75 3 49.5 3 75 C4.32 75.33 5.64 75.66 7 76 C9 78 9 78 9 85 C3.72 85 -1.56 85 -7 85 C-7 79 -7 79 -3 75 C-2.01 75 -1.02 75 0 75 C0 50.25 0 25.5 0 0 Z " fill="#5A312B" transform="translate(368,383)"/>
<path d="M0 0 C7.92 0 15.84 0 24 0 C23.67 5.28 23.34 10.56 23 16 C15.41 16 7.82 16 0 16 C0 10.72 0 5.44 0 0 Z " fill="#F1F1F0" transform="translate(487,932)"/>
<path d="M0 0 C7.59 0 15.18 0 23 0 C23 5.28 23 10.56 23 16 C15.41 16 7.82 16 0 16 C0 10.72 0 5.44 0 0 Z " fill="#57231F" transform="translate(254,932)"/>
<path d="M0 0 C2.838 2.838 1 7.986 1 12 C-6 26 -6 26 -12 32 C-13.98 32 -15.96 32 -18 32 C-16.859 19.445 -15.008 12.512 -8 2 C-5 0 -5 0 0 0 Z " fill="#638E5F" transform="translate(100,703)"/>
<path d="M0 0 C0.99 0 1.98 0 3 0 C3 24.75 3 49.5 3 75 C4.32 75.33 5.64 75.66 7 76 C7.99 76.99 8.98 77.98 10 79 C10 80.98 10 82.96 10 85 C4.72 85 -0.56 85 -6 85 C-6 82.69 -6 80.38 -6 78 C-2 75 -2 75 0 75 C0 50.25 0 25.5 0 0 Z " fill="#562822" transform="translate(546,383)"/>
<path d="M0 0 C0.825 0.825 0.825 0.825 5 5 C14 13 14 13 21 18 C21 18.33 21 18.66 21 19 C4.5 19 -12 19 -29 19 C-29 14 -29 14 -28 13 C-18.76 13 -9.52 13 0 13 C0 8.71 0 4.42 0 0 Z " fill="#EFB380" transform="translate(349,560)"/>
<path d="M0 0 C2.64 0 5.28 0 8 0 C8 15.51 8 31.02 8 47 C7.835 47.165 7.835 47.165 7 48 C5.02 48 3.04 48 1 48 C0 16 0 16 0 0 Z " fill="#E0E1E1" transform="translate(671,932)"/>
<path d="M0 0 C0 1.32 0 2.64 0 4 C-2.31 4.33 -4.62 4.66 -7 5 C-7.33 5.99 -7.66 6.98 -8 8 C-32 7 -32 7 -38 4 C-38 2.68 -38 1.36 -38 0 C-24.444 -6.778 -14.104 -4.03 0 0 Z " fill="#E0AEA8" transform="translate(99,606)"/>
<path d="M0 0 C5.94 0 11.88 0 18 0 C17.67 1.98 17.34 3.96 17 6 C16.34 6 15.68 6 15 6 C14.01 9.63 13.02 13.26 12 17 C11.01 20.3 10.02 23.6 9 27 C6.03 26.67 3.06 26.34 0 26 C0 17.42 0 8.84 0 0 Z " fill="#E0724A" transform="translate(185,703)"/>
<path d="M0 0 C0 16.17 0 32.34 0 49 C-1.98 49 -3.96 49 -6 49 C-6.33 48.67 -6.66 48.34 -7 48 C-7 32.49 -7 16.98 -7 1 C-1 0 -1 0 0 0 Z " fill="#DDDDDC" transform="translate(320,931)"/>
<path d="M0 0 C2.31 0 4.62 0 7 0 C7 15.51 7 31.02 7 47 C6.835 47.165 6.835 47.165 6 48 C4.02 48 2.04 48 0 48 C0 32.16 0 16.32 0 0 Z " fill="#DEDEDE" transform="translate(278,932)"/>
<path d="M0 0 C2.31 0 4.62 0 7 0 C7 15.51 7 31.02 7 47 C5.02 47 3.04 47 1 47 C0.67 46.67 0.34 46.34 0 46 C0 30.82 0 15.64 0 0 Z " fill="#DFDFDF" transform="translate(80,933)"/>
<path d="M0 0 C4.62 0 9.24 0 14 0 C14 11.88 14 23.76 14 36 C12.35 35.67 10.7 35.34 9 35 C7.35 28.4 5.7 21.8 4 15 C2.68 10.71 1.36 6.42 0 2 C0 1.34 0 0.68 0 0 Z " fill="#A8CFE8" transform="translate(578,502)"/>
<path d="M0 0 C4.95 0 9.9 0 15 0 C16.32 1.98 17.64 3.96 19 6 C19.33 4.02 19.66 2.04 20 0 C21.32 0 22.64 0 24 0 C24 5.28 24 10.56 24 16 C23.175 15.835 23.175 15.835 19 15 C18.01 13.02 17.02 11.04 16 9 C15.67 10.98 15.34 12.96 15 15 C13.68 15 12.36 15 11 15 C10.67 13.35 10.34 11.7 10 10 C7.69 10 5.38 10 3 10 C3 10.66 3 11.32 3 12 C5.31 12 7.62 12 10 12 C10 13.32 10 14.64 10 16 C6.37 16 2.74 16 -1 16 C-1 1 -1 1 0 0 Z " fill="#D28681" transform="translate(67,545)"/>
<path d="M0 0 C0.99 0.66 1.98 1.32 3 2 C3 2.66 3 3.32 3 4 C4.65 3.67 6.3 3.34 8 3 C9 8 9 8 8 10 C5.69 10.66 3.38 11.32 1 12 C0.01 12.66 -0.98 13.32 -2 14 C-10 14 -10 14 -14 11 C-16.31 10.34 -18.62 9.68 -21 9 C-21 7.35 -21 5.7 -21 4 C-19.35 3.34 -17.7 2.68 -16 2 C-13 0 -13 0 0 0 Z " fill="#E6E1E0" transform="translate(69,624)"/>
<path d="M0 0 C2.31 0.33 4.62 0.66 7 1 C13.357 10.536 15.761 16.804 18 28 C15.69 28 13.38 28 11 28 C-1 13 -1 13 -1 1 C-0.67 0.67 -0.34 0.34 0 0 Z " fill="#678F61" transform="translate(59,707)"/>
<path d="M0 0 C0.66 0 1.32 0 2 0 C2.33 24.42 2.66 48.84 3 74 C4.65 74.99 6.3 75.98 8 77 C9 79 9 79 9 85 C3.72 85 -1.56 85 -7 85 C-7 79 -7 79 -4 75 C-2.68 75 -1.36 75 0 75 C0 50.25 0 25.5 0 0 Z " fill="#4D201B" transform="translate(459,383)"/>
<path d="M0 0 C9.57 0 19.14 0 29 0 C28 8 28 8 26 13 C25.67 11.68 25.34 10.36 25 9 C24.01 9 23.02 9 22 9 C22 9.66 22 10.32 22 11 C20 12 20 12 9 12 C3 8 3 8 0 3 C0 2.01 0 1.02 0 0 Z " fill="#FDE6A5" transform="translate(446,500)"/>
<path d="M0 0 C0.33 0 0.66 0 1 0 C1.33 4.29 1.66 8.58 2 13 C21.8 13 41.6 13 62 13 C62.66 10.69 63.32 8.38 64 6 C64.33 6 64.66 6 65 6 C65 9.96 65 13.92 65 18 C43.55 18 22.1 18 0 18 C0 12.06 0 6.12 0 0 Z " fill="#EDA276" transform="translate(349,930)"/>
<path d="M0 0 C1.98 0 3.96 0 6 0 C6 15.84 6 31.68 6 48 C4.02 48 2.04 48 0 48 C0 32.16 0 16.32 0 0 Z " fill="#DDDEDE" transform="translate(247,932)"/>
<path d="M0 0 C1.32 0.66 2.64 1.32 4 2 C4 7.28 4 12.56 4 18 C-6.312 18.737 -16.661 19 -27 19 C-27 18.01 -27 17.02 -27 16 C-21.06 16 -15.12 16 -9 16 C-9.66 11.38 -10.32 6.76 -11 2 C-7 0 -7 0 0 0 Z " fill="#D7E6EE" transform="translate(588,484)"/>
<path d="M0 0 C3.63 0 7.26 0 11 0 C11 8.58 11 17.16 11 26 C7.37 26 3.74 26 0 26 C0 17.42 0 8.84 0 0 Z " fill="#D96541" transform="translate(233,423)"/>
<path d="M0 0 C5.94 0 11.88 0 18 0 C18 8.25 18 16.5 18 25 C17.01 25.33 16.02 25.66 15 26 C12.69 21.71 10.38 17.42 8 13 C3 7 3 7 1 6 C1 5.34 1 4.68 1 4 C0.34 3.67 -0.32 3.34 -1 3 C-0.67 2.01 -0.34 1.02 0 0 Z " fill="#DA6D45" transform="translate(328,857)"/>
<path d="M0 0 C9.24 0 18.48 0 28 0 C27 5 27 5 22 11 C20 12 20 12 9 12 C4 9 4 9 0 3 C0 2.01 0 1.02 0 0 Z " fill="#FDE7A7" transform="translate(355,500)"/>
<path d="M0 0 C3.3 0 6.6 0 10 0 C10 8.58 10 17.16 10 26 C6.7 26 3.4 26 0 26 C0 17.42 0 8.84 0 0 Z " fill="#CA5440" transform="translate(233,485)"/>
<path d="M0 0 C8.91 0 17.82 0 27 0 C26 6 26 6 20 11 C17 12 17 12 9 12 C3 8 3 8 0 3 C0 2.01 0 1.02 0 0 Z " fill="#FAE3A0" transform="translate(534,500)"/>
<path d="M0 0 C8.25 0 16.5 0 25 0 C23.35 1.65 21.7 3.3 20 5 C15 11 15 11 14 14 C11.69 13.835 11.69 13.835 0 13 C0 8.71 0 4.42 0 0 Z " fill="#BA463A" transform="translate(219,857)"/>
<path d="M0 0 C6 2 6 2 10 6 C14 16 14 16 14 21 C13.67 21.33 13.34 21.66 13 22 C7 22 7 22 1 18 C-2 13 -2 13 -1 1 C-0.67 0.67 -0.34 0.34 0 0 Z " fill="#DEA9A3" transform="translate(91,622)"/>
<path d="M0 0 C0.66 0 1.32 0 2 0 C7 17 7 17 7 19 C36.37 19 65.74 19 96 19 C96 19.33 96 19.66 96 20 C62.67 20 29.34 20 -5 20 C-4 12 -4 12 0 0 Z " fill="#D3D0C3" transform="translate(492,518)"/>
<path d="M0 0 C12.54 0 25.08 0 38 0 C38 1.98 38 3.96 38 6 C25.46 6 12.92 6 0 6 C0 4.02 0 2.04 0 0 Z " fill="#EBA175" transform="translate(152,760)"/>
<path d="M0 0 C5.781 7.226 9.474 14.842 11 24 C5.39 24 -0.22 24 -6 24 C-4 16 -2 8 0 0 Z " fill="#CC6D52" transform="translate(399,611)"/>
<path d="M0 0 C11.55 0 23.1 0 35 0 C35 1.98 35 3.96 35 6 C23.45 6 11.9 6 0 6 C0 4.02 0 2.04 0 0 Z " fill="#EDA273" transform="translate(379,760)"/>
<path d="M0 0 C2.64 0 5.28 0 8 0 C8 0.33 8 0.66 8 1 C6.35 1.33 4.7 1.66 3 2 C3.99 2.66 4.98 3.32 6 4 C3.68 13.28 -6.92 22.569 -13 30 C-14.32 30 -15.64 30 -17 30 C-17 18.853 -6.649 11.311 0 3 C0 2.01 0 1.02 0 0 Z " fill="#E8A174" transform="translate(337,672)"/>
<path d="M0 0 C1.98 0 3.96 0 6 0 C9.108 10.879 12 21.633 12 33 C10.35 33 8.7 33 7 33 C1 9 1 9 0 0 Z " fill="#E79F74" transform="translate(261,658)"/>
<path d="M0 0 C1.98 0 3.96 0 6 0 C8.712 10.847 2.623 22.132 0 33 C-1.65 33 -3.3 33 -5 33 C-4 20 -4 20 0 0 Z " fill="#E6A176" transform="translate(300,658)"/>
<path d="M0 0 C11 0 11 0 23 2 C24.815 2.165 24.815 2.165 34 3 C34 4.98 34 6.96 34 9 C22.642 8.332 11.299 7.329 0 6 C0 4.02 0 2.04 0 0 Z " fill="#E9A175" transform="translate(191,740)"/>
<path d="M0 0 C4 1 4 1 5.022 2.449 C6.577 4.654 8.132 6.858 9.688 9.062 C10.218 9.815 10.748 10.567 11.295 11.342 C14.515 15.905 17.749 20.458 21 25 C21 25.99 21 26.98 21 28 C19.68 28.33 18.36 28.66 17 29 C-3 5.364 -3 5.364 -3 2 C-2.01 1.34 -1.02 0.68 0 0 Z " fill="#E9A377" transform="translate(228,674)"/>
<path d="M0 0 C0 1.65 0 3.3 0 5 C-10.899 7.422 -21.788 9 -33 9 C-33 4 -33 4 -32 3 C-11 0 -11 0 0 0 Z " fill="#E9A176" transform="translate(377,740)"/>
<path d="M0 0 C3.96 0 7.92 0 12 0 C12 8.25 12 16.5 12 25 C11.34 25 10.68 25 10 25 C9.67 25.66 9.34 26.32 9 27 C8.01 23.04 7.02 19.08 6 15 C5.01 11.7 4.02 8.4 3 5 C2.34 4.67 1.68 4.34 1 4 C0.67 2.68 0.34 1.36 0 0 Z " fill="#E0734C" transform="translate(366,704)"/>
<path d="M0 0 C0 2.31 0 4.62 0 7 C-1.98 7.33 -3.96 7.66 -6 8 C-6 8.66 -6 9.32 -6 10 C-19 10 -19 10 -22 9 C-21 5 -21 5 -19 3 C-19.33 2.01 -19.66 1.02 -20 0 C-18.02 0 -16.04 0 -14 0 C-16 5 -16 5 -17 6 C-13 5 -13 5 -11 3 C-11.66 2.34 -12.32 1.68 -13 1 C-9.491 -2.509 -4.18 -1.045 0 0 Z " fill="#E2C0BF" transform="translate(79,518)"/>
<path d="M0 0 C5 1 5 1 8 5 C8.99 3.35 9.98 1.7 11 0 C12.32 0 13.64 0 15 0 C15 5.28 15 10.56 15 16 C13.68 16 12.36 16 11 16 C10.67 13.69 10.34 11.38 10 9 C9.01 9.99 8.02 10.98 7 12 C6.01 10.68 5.02 9.36 4 8 C3.67 10.31 3.34 12.62 3 15 C2.01 15 1.02 15 0 15 C0 10.05 0 5.1 0 0 Z " fill="#E9DBD9" transform="translate(49,545)"/>
<path d="M0 0 C35.31 0 70.62 0 107 0 C107 0.33 107 0.66 107 1 C92.81 1.165 92.81 1.165 21 2 C19.68 3.32 18.36 4.64 17 6 C17 4.35 17 2.7 17 1 C11.72 1 6.44 1 1 1 C1 13.87 1 26.74 1 40 C0.67 40 0.34 40 0 40 C0 26.8 0 13.6 0 0 Z " fill="#CCD5CC" transform="translate(486,555)"/>
<path d="M0 0 C8.25 0 16.5 0 25 0 C25 1.98 25 3.96 25 6 C16.75 6 8.5 6 0 6 C0 4.02 0 2.04 0 0 Z " fill="#E89F75" transform="translate(152,913)"/>
<path d="M0 0 C4.29 0.66 8.58 1.32 13 2 C20.59 2.33 28.18 2.66 36 3 C36 3.66 36 4.32 36 5 C34.35 5 32.7 5 31 5 C30.67 5.99 30.34 6.98 30 8 C6 7 6 7 0 4 C0 2.68 0 1.36 0 0 Z " fill="#F4F1EF" transform="translate(61,606)"/>
<path d="M0 0 C0.66 0.33 1.32 0.66 2 1 C1.67 1.495 1.67 1.495 0 4 C-0.66 5.98 -1.32 7.96 -2 10 C-3.155 10.495 -3.155 10.495 -9 13 C-17 20 -17 20 -19 22 C-19.99 22 -20.98 22 -22 22 C-23.65 23.65 -25.3 25.3 -27 27 C-27.66 26.67 -28.32 26.34 -29 26 C-19.916 15.907 -11.122 7.785 0 0 Z " fill="#B2C5E0" transform="translate(540,459)"/>
<path d="M0 0 C1.32 0 2.64 0 4 0 C4 5.28 4 10.56 4 16 C2.35 15.67 0.7 15.34 -1 15 C-1.99 13.02 -2.98 11.04 -4 9 C-4.33 10.98 -4.66 12.96 -5 15 C-5.99 15 -6.98 15 -8 15 C-8 10.38 -8 5.76 -8 1 C-4 2 -4 2 -1 6 C-0.67 4.02 -0.34 2.04 0 0 Z " fill="#ECE0DC" transform="translate(87,545)"/>
<path d="M0 0 C10.23 0 20.46 0 31 0 C31 1.32 31 2.64 31 4 C20.77 4 10.54 4 0 4 C0 2.68 0 1.36 0 0 Z " fill="#EFE1DD" transform="translate(48,580)"/>
<path d="M0 0 C3.3 0 6.6 0 10 0 C10 3.96 10 7.92 10 12 C6.7 12 3.4 12 0 12 C0 8.04 0 4.08 0 0 Z " fill="#D1D2D2" transform="translate(108,778)"/>
<path d="M0 0 C2.97 0 5.94 0 9 0 C9 4.29 9 8.58 9 13 C5.7 13 2.4 13 -1 13 C-0.67 8.71 -0.34 4.42 0 0 Z " fill="#D2D2D2" transform="translate(33,777)"/>
<path d="M0 0 C1.32 0 2.64 0 4 0 C4.33 3.63 4.66 7.26 5 11 C5.99 11 6.98 11 8 11 C8.33 7.37 8.66 3.74 9 0 C9.99 0 10.98 0 12 0 C12 3.96 12 7.92 12 12 C11.01 12.99 10.02 13.98 9 15 C6.69 14.67 4.38 14.34 2 14 C0 11 0 11 0 0 Z " fill="#ECE3E0" transform="translate(93,546)"/>
<path d="M0 0 C16 0 16 0 21 1 C21 3.64 21 6.28 21 9 C16 8 16 8 0 1 C0 0.67 0 0.34 0 0 Z " fill="#699562" transform="translate(693,712)"/>
<path d="M0 0 C8.25 0 16.5 0 25 0 C25 1.32 25 2.64 25 4 C16.75 4 8.5 4 0 4 C0 2.68 0 1.36 0 0 Z " fill="#EC996E" transform="translate(152,944)"/>
<path d="M0 0 C0.99 0.66 1.98 1.32 3 2 C2.67 3.32 2.34 4.64 2 6 C-3.28 6 -8.56 6 -14 6 C-14.33 4.35 -14.66 2.7 -15 1 C-10.518 -1.241 -5.011 0 0 0 Z " fill="#F5F7F7" transform="translate(69,624)"/>
<path d="M0 0 C5 0 5 0 9 2 C9 7 9 7 7 11 C5.68 11 4.36 11 3 11 C3 10.34 3 9.68 3 9 C0 10 0 10 -1 12 C-1.66 12 -2.32 12 -3 12 C-1 1 -1 1 0 0 Z " fill="#E5C5C2" transform="translate(48,516)"/>
<path d="M0 0 C10.23 0 20.46 0 31 0 C31 0.99 31 1.98 31 3 C20.77 3 10.54 3 0 3 C0 2.01 0 1.02 0 0 Z " fill="#F9FBFA" transform="translate(48,571)"/>
<path d="M0 0 C1.32 0.33 2.64 0.66 4 1 C8 10 8 10 7 15 C2 12 2 12 -2 7 C-2 2 -2 2 0 0 Z " fill="#F3F3F4" transform="translate(94,627)"/>
<path d="M0 0 C0.66 0.99 1.32 1.98 2 3 C3.12 3 4.24 3 5.395 3 C10.596 3 15.798 3 21 3 C16 9 16 9 14 10 C6 10 6 10 3 8 C3 7.01 3 6.02 3 5 C1.68 4.34 0.36 3.68 -1 3 C-0.67 2.01 -0.34 1.02 0 0 Z " fill="#DA9690" transform="translate(53,626)"/>
<path d="M0 0 C2.97 0 5.94 0 9 0 C9 0.66 9 1.32 9 2 C7.02 2 5.04 2 3 2 C3 2.99 3 3.98 3 5 C4.98 5 6.96 5 9 5 C9 5.99 9 6.98 9 8 C6.69 8 4.38 8 2 8 C2 9.32 2 10.64 2 12 C4.31 12 6.62 12 9 12 C9 12.66 9 13.32 9 14 C6.03 14 3.06 14 0 14 C0 9.38 0 4.76 0 0 Z " fill="#F6F8F7" transform="translate(67,546)"/>
<path d="M0 0 C3.3 0 6.6 0 10 0 C9 8 9 8 7 14 C6.34 14 5.68 14 5 14 C3.68 10.04 2.36 6.08 1 2 C0.67 1.34 0.34 0.68 0 0 Z " fill="#CB5041" transform="translate(498,538)"/>
<path d="M0 0 C7.92 0 15.84 0 24 0 C19 5 19 5 17 6 C17 4.35 17 2.7 17 1 C11.72 1 6.44 1 1 1 C1 13.87 1 26.74 1 40 C0.67 40 0.34 40 0 40 C0 26.8 0 13.6 0 0 Z " fill="#CAD7D6" transform="translate(486,555)"/>
<path d="M0 0 C4.62 0 9.24 0 14 0 C14.33 1.65 14.66 3.3 15 5 C9.72 5 4.44 5 -1 5 C-0.67 3.35 -0.34 1.7 0 0 Z " fill="#F1B984" transform="translate(329,542)"/>
<path d="M0 0 C0.66 0 1.32 0 2 0 C2 5.28 2 10.56 2 16 C-0.31 16 -2.62 16 -5 16 C-2 4 -2 4 0 0 Z " fill="#F0AE73" transform="translate(341,500)"/>
<path d="M0 0 C7.59 0 15.18 0 23 0 C23 0.99 23 1.98 23 3 C15.41 3 7.82 3 0 3 C0 2.01 0 1.02 0 0 Z " fill="#F4EDEC" transform="translate(48,590)"/>
<path d="M0 0 C0 2.31 0 4.62 0 7 C-1.98 7.33 -3.96 7.66 -6 8 C-6.33 8.66 -6.66 9.32 -7 10 C-7 9.34 -7 8.68 -7 8 C-8.65 8 -10.3 8 -12 8 C-11.01 7.34 -10.02 6.68 -9 6 C-9 5.01 -9 4.02 -9 3 C-6.124 -1.315 -4.994 -1.248 0 0 Z " fill="#CC6F68" transform="translate(79,518)"/>
<path d="M0 0 C0 0.66 0 1.32 0 2 C-0.99 2.33 -1.98 2.66 -3 3 C-3.99 5.31 -4.98 7.62 -6 10 C-6.66 10 -7.32 10 -8 10 C-7 5 -7 5 -6 3 C-6.99 3 -7.98 3 -9 3 C-9.33 4.65 -9.66 6.3 -10 8 C-10.33 8.33 -10.66 8.66 -11 9 C-12.65 9 -14.3 9 -16 9 C-16.33 8.01 -16.66 7.02 -17 6 C-16.34 4.68 -15.68 3.36 -15 2 C-14.34 2 -13.68 2 -13 2 C-13.33 3.65 -13.66 5.3 -14 7 C-13.34 7 -12.68 7 -12 7 C-11.34 5.02 -10.68 3.04 -10 1 C-3 0 -3 0 0 0 Z " fill="#E0C7C5" transform="translate(110,517)"/>
<path d="M0 0 C0.66 0 1.32 0 2 0 C1 6 1 6 -1 11 C-1.66 11 -2.32 11 -3 11 C-3 9.68 -3 8.36 -3 7 C-5 8 -5 8 -7 12 C-7.66 12 -8.32 12 -9 12 C-7 3 -7 3 -6 1 C-5.34 1 -4.68 1 -4 1 C-4 2.32 -4 3.64 -4 5 C-1 2 -1 2 0 0 Z " fill="#E8D3CD" transform="translate(92,516)"/>
<path d="M0 0 C0.99 0 1.98 0 3 0 C3 5.28 3 10.56 3 16 C1.35 15.67 -0.3 15.34 -2 15 C-2.33 13.35 -2.66 11.7 -3 10 C-2.01 10 -1.02 10 0 10 C0 6.7 0 3.4 0 0 Z " fill="#ECDDD9" transform="translate(88,545)"/>
<path d="M0 0 C1.32 0.66 2.64 1.32 4 2 C2.02 4.64 0.04 7.28 -2 10 C-2.99 9.67 -3.98 9.34 -5 9 C-6.98 10.98 -8.96 12.96 -11 15 C-11.66 14.67 -12.32 14.34 -13 14 C-4 4 -4 4 0 0 Z " fill="#A4BFDA" transform="translate(524,471)"/>
<path d="M0 0 C1.32 0 2.64 0 4 0 C4.33 4.29 4.66 8.58 5 13 C4.01 13.33 3.02 13.66 2 14 C0 11 0 11 0 0 Z " fill="#E6CFCA" transform="translate(93,546)"/>
<path d="M0 0 C0 0.66 0 1.32 0 2 C0.99 2.66 1.98 3.32 3 4 C-3.93 3.67 -10.86 3.34 -18 3 C-18.33 2.34 -18.66 1.68 -19 1 C-12.983 -1.006 -6.342 0 0 0 Z " fill="#DDA49F" transform="translate(85,602)"/>
<path d="M0 0 C4.29 0 8.58 0 13 0 C13 1.32 13 2.64 13 4 C8.71 4 4.42 4 0 4 C0 2.68 0 1.36 0 0 Z " fill="#F2E3E0" transform="translate(93,580)"/>
<path d="M0 0 C4.29 0 8.58 0 13 0 C13 1.32 13 2.64 13 4 C8.71 4 4.42 4 0 4 C0 2.68 0 1.36 0 0 Z " fill="#E5CBC9" transform="translate(93,570)"/>
<path d="M0 0 C5.61 0 11.22 0 17 0 C17 0.99 17 1.98 17 3 C11.39 3 5.78 3 0 3 C0 2.01 0 1.02 0 0 Z " fill="#DBE7DC" transform="translate(561,500)"/>
<path d="M0 0 C3.3 0 6.6 0 10 0 C9.67 0.495 9.67 0.495 8 3 C7.34 3 6.68 3 6 3 C5.67 3.99 5.34 4.98 5 6 C4.175 6.495 4.175 6.495 0 9 C0 6.03 0 3.06 0 0 Z " fill="#CE4A37" transform="translate(219,673)"/>
<path d="M0 0 C1.32 0 2.64 0 4 0 C3.67 2.31 3.34 4.62 3 7 C3 9.64 3 12.28 3 15 C2.01 15 1.02 15 0 15 C0 10.05 0 5.1 0 0 Z " fill="#E9DEDB" transform="translate(49,545)"/>
<path d="M0 0 C1.65 0 3.3 0 5 0 C4.34 1.32 3.68 2.64 3 4 C3 4.99 3 5.98 3 7 C3.66 7.33 4.32 7.66 5 8 C5 8.66 5 9.32 5 10 C2.69 10 0.38 10 -2 10 C-1 5 -1 5 1 3 C0.34 2.34 -0.32 1.68 -1 1 C-0.67 0.67 -0.34 0.34 0 0 Z " fill="#EBDEDB" transform="translate(67,518)"/>
<path d="M0 0 C4.29 0 8.58 0 13 0 C13 0.99 13 1.98 13 3 C8.71 3 4.42 3 0 3 C0 2.01 0 1.02 0 0 Z " fill="#F6F0F0" transform="translate(93,590)"/>
<path d="M0 0 C0 0.99 0 1.98 0 3 C-4.95 3 -9.9 3 -15 3 C-14.67 2.34 -14.34 1.68 -14 1 C-10 0 -10 0 0 0 Z " fill="#F6F2F1" transform="translate(79,571)"/>
<path d="M0 0 C0 2.64 0 5.28 0 8 C-2.64 8 -5.28 8 -8 8 C-8 7.34 -8 6.68 -8 6 C-1 0 -1 0 0 0 Z " fill="#E2744B" transform="translate(180,596)"/>
<path d="M0 0 C0.99 0 1.98 0 3 0 C3 5 3 5 1 9 C-0.32 9 -1.64 9 -3 9 C-3 8.34 -3 7.68 -3 7 C-3.66 7 -4.32 7 -5 7 C-5 6.34 -5 5.68 -5 5 C-3.68 4.34 -2.36 3.68 -1 3 C-0.67 2.01 -0.34 1.02 0 0 Z " fill="#CE6661" transform="translate(54,518)"/>
<path d="M0 0 C0.99 0 1.98 0 3 0 C3.99 1.98 4.98 3.96 6 6 C5.67 6.33 5.34 6.66 5 7 C3.35 7 1.7 7 0 7 C-0.33 6.67 -0.66 6.34 -1 6 C-1 1 -1 1 0 0 Z " fill="#F1EAEA" transform="translate(49,627)"/>
<path d="M0 0 C1.65 0 3.3 0 5 0 C5 1.98 5 3.96 5 6 C2.69 6 0.38 6 -2 6 C-1.34 4.02 -0.68 2.04 0 0 Z " fill="#F4BE82" transform="translate(338,510)"/>
<path d="M0 0 C-0.33 3.3 -0.66 6.6 -1 10 C-1.33 10 -1.66 10 -2 10 C-2.33 7.69 -2.66 5.38 -3 3 C-5.64 5.64 -8.28 8.28 -11 11 C-11 8 -11 8 -7 3 C-2 0 -2 0 0 0 Z " fill="#D46845" transform="translate(289,716)"/>
<path d="M0 0 C1.98 0.66 3.96 1.32 6 2 C4.68 2.33 3.36 2.66 2 3 C1.01 6.3 0.02 9.6 -1 13 C-1.33 13 -1.66 13 -2 13 C-1 1 -1 1 0 0 Z " fill="#E0C1BD" transform="translate(91,622)"/>
<path d="M0 0 C0.99 0.33 1.98 0.66 3 1 C3 2.65 3 4.3 3 6 C0.69 6 -1.62 6 -4 6 C-2 2 -2 2 0 0 Z " fill="#EFE2DE" transform="translate(76,519)"/>
<path d="M0 0 C0.99 0.33 1.98 0.66 3 1 C2.67 2.65 2.34 4.3 2 6 C0.02 6 -1.96 6 -4 6 C-2 2 -2 2 0 0 Z " fill="#F1E9E9" transform="translate(75,627)"/>
<path d="M0 0 C3 1 3 1 7 9 C7 9.99 7 10.98 7 12 C6.01 12 5.02 12 4 12 C3.01 8.7 2.02 5.4 1 2 C0.67 1.34 0.34 0.68 0 0 Z " fill="#DEB1AC" transform="translate(97,625)"/>
<path d="M0 0 C0.66 0 1.32 0 2 0 C1.67 1.65 1.34 3.3 1 5 C1.66 5 2.32 5 3 5 C3.33 4.01 3.66 3.02 4 2 C4.33 3.32 4.66 4.64 5 6 C4.67 6.33 4.34 6.66 4 7 C2.35 7 0.7 7 -1 7 C-1.33 6.01 -1.66 5.02 -2 4 C-1.34 2.68 -0.68 1.36 0 0 Z " fill="#EDE3DE" transform="translate(95,519)"/>
<path d="M0 0 C0.33 0.99 0.66 1.98 1 3 C2.98 3 4.96 3 7 3 C7 3.99 7 4.98 7 6 C4.36 6.33 1.72 6.66 -1 7 C-0.67 4.69 -0.34 2.38 0 0 Z " fill="#E9DCD9" transform="translate(69,548)"/>
<path d="M0 0 C0.33 0 0.66 0 1 0 C0 8 0 8 -2 13 C-2.33 11.68 -2.66 10.36 -3 9 C-3.66 8.67 -4.32 8.34 -5 8 C-3.68 6.35 -2.36 4.7 -1 3 C-0.67 2.01 -0.34 1.02 0 0 Z " fill="#F4D4B0" transform="translate(474,500)"/>
<path d="M0 0 C3.96 0 7.92 0 12 0 C12 0.66 12 1.32 12 2 C10.02 2.165 10.02 2.165 0 3 C0 2.01 0 1.02 0 0 Z " fill="#F9FBFB" transform="translate(93,571)"/>
<path d="M0 0 C4 2 4 2 6 6 C4.02 6 2.04 6 0 6 C0 4.02 0 2.04 0 0 Z " fill="#DF865B" transform="translate(354,567)"/>
<path d="M0 0 C2.97 0 5.94 0 9 0 C9 0.66 9 1.32 9 2 C6.69 2 4.38 2 2 2 C2 3.32 2 4.64 2 6 C1.34 6 0.68 6 0 6 C0 4.02 0 2.04 0 0 Z " fill="#F3F9F8" transform="translate(67,546)"/>
<path d="M0 0 C0.66 0.33 1.32 0.66 2 1 C-0.97 3.97 -3.94 6.94 -7 10 C-7.66 9.67 -8.32 9.34 -9 9 C-3 2 -3 2 0 0 Z " fill="#CF564D" transform="translate(352,471)"/>
<path d="M0 0 C0.66 0 1.32 0 2 0 C2 0.99 2 1.98 2 3 C2.66 3.33 3.32 3.66 4 4 C3.67 4.165 3.67 4.165 2 5 C1.34 6.32 0.68 7.64 0 9 C-0.66 9 -1.32 9 -2 9 C-1.34 6.03 -0.68 3.06 0 0 Z " fill="#F0E1DC" transform="translate(85,519)"/>
<path d="M0 0 C1.98 0 3.96 0 6 0 C4 5 4 5 2 6 C1.34 5.34 0.68 4.68 0 4 C0 2.68 0 1.36 0 0 Z " fill="#E4C9C7" transform="translate(59,518)"/>
<path d="M0 0 C3.63 0 7.26 0 11 0 C10.505 0.495 10.505 0.495 8 3 C2 3 2 3 0 2 C0 1.34 0 0.68 0 0 Z " fill="#F2ECEC" transform="translate(58,632)"/>
<path d="M0 0 C2.64 0 5.28 0 8 0 C8 0.33 8 0.66 8 1 C6.35 1 4.7 1 3 1 C2.67 1.99 2.34 2.98 2 4 C0.35 4 -1.3 4 -3 4 C-2.34 3.67 -1.68 3.34 -1 3 C-0.67 2.01 -0.34 1.02 0 0 Z " fill="#EDDBD7" transform="translate(89,610)"/>
<path d="M0 0 C0.99 0.165 0.99 0.165 6 1 C6 2.32 6 3.64 6 5 C4.68 4.67 3.36 4.34 2 4 C2 3.34 2 2.68 2 2 C1.01 1.67 0.02 1.34 -1 1 C-0.67 0.67 -0.34 0.34 0 0 Z " fill="#ECDCDA" transform="translate(93,605)"/>
<path d="M0 0 C0.33 0.99 0.66 1.98 1 3 C1.66 3.33 2.32 3.66 3 4 C2.01 4.99 1.02 5.98 0 7 C-0.33 7.66 -0.66 8.32 -1 9 C-1.66 9 -2.32 9 -3 9 C-2 3 -2 3 0 0 Z " fill="#F2ECE9" transform="translate(48,519)"/>
<path d="M0 0 C0.99 0 1.98 0 3 0 C2.34 1.98 1.68 3.96 1 6 C-1.31 6.33 -3.62 6.66 -6 7 C-4.68 6.34 -3.36 5.68 -2 5 C-1.34 3.35 -0.68 1.7 0 0 Z " fill="#CA5A52" transform="translate(101,520)"/>
<path d="M0 0 C8 0 8 0 13 2 C12.67 2.66 12.34 3.32 12 4 C10.02 3.505 10.02 3.505 0 1 C0 0.67 0 0.34 0 0 Z " fill="#F1F1F1" transform="translate(80,603)"/>
<path d="M0 0 C1.65 1.32 3.3 2.64 5 4 C5 4.66 5 5.32 5 6 C3.35 6 1.7 6 0 6 C0 4.02 0 2.04 0 0 Z " fill="#D7775B" transform="translate(389,598)"/>
<path d="M0 0 C0.99 0 1.98 0 3 0 C3 0.99 3 1.98 3 3 C-0.63 3 -4.26 3 -8 3 C-8 2.67 -8 2.34 -8 2 C-6.845 1.835 -6.845 1.835 -1 1 C-0.67 0.67 -0.34 0.34 0 0 Z " fill="#F0E6E5" transform="translate(103,590)"/>
<path d="M0 0 C1.98 0 3.96 0 6 0 C1 5 1 5 -1 6 C-1 1 -1 1 0 0 Z " fill="#D3E0D4" transform="translate(504,555)"/>
<path d="M0 0 C0.99 0 1.98 0 3 0 C2 6 2 6 1 8 C0.34 8 -0.32 8 -1 8 C-0.67 5.36 -0.34 2.72 0 0 Z " fill="#E7D8D5" transform="translate(103,519)"/>
<path d="M0 0 C0 0.33 0 0.66 0 1 C-2.31 1.66 -4.62 2.32 -7 3 C-7.99 3.99 -8.98 4.98 -10 6 C-10.33 4.68 -10.66 3.36 -11 2 C-7 0 -7 0 0 0 Z " fill="#C9E0ED" transform="translate(588,484)"/>
<path d="M0 0 C0.66 0 1.32 0 2 0 C2 1.32 2 2.64 2 4 C0.02 4 -1.96 4 -4 4 C-2.68 2.68 -1.36 1.36 0 0 Z " fill="#C74E3C" transform="translate(213,569)"/>
<path d="M0 0 C0.33 0 0.66 0 1 0 C1 2.64 1 5.28 1 8 C-3 3 -3 3 -4 1 C-3.01 1.33 -2.02 1.66 -1 2 C-0.67 1.34 -0.34 0.68 0 0 Z " fill="#C65047" transform="translate(86,545)"/>
<path d="M0 0 C0.33 0 0.66 0 1 0 C1 5 1 5 -1 9 C-1.66 9 -2.32 9 -3 9 C-2 4 -2 4 0 0 Z " fill="#E7D6D5" transform="translate(56,518)"/>
</svg>
