<?xml version="1.0" encoding="UTF-8"?>
<!-- Generator: visioncortex VTracer 0.6.12 -->
<svg version="1.1" xmlns="http://www.w3.org/2000/svg" width="768" height="1344">
<path d="M0 0 C253.44 0 506.88 0 768 0 C768 443.52 768 887.04 768 1344 C514.56 1344 261.12 1344 0 1344 C0 900.48 0 456.96 0 0 Z " fill="#FEFEFE" transform="translate(0,0)"/>
<path d="M0 0 C253.44 0 506.88 0 768 0 C768 94.38 768 188.76 768 286 C759.75 286.33 751.5 286.66 743 287 C740.53 287.436 738.06 287.871 735.516 288.32 C714.079 292.095 692.627 295.766 671.151 299.313 C664.766 300.369 658.383 301.435 652 302.5 C650.803 302.699 649.607 302.898 648.374 303.104 C642.366 304.104 636.358 305.107 630.352 306.117 C577.487 315 577.487 315 569 315 C569 305.43 569 295.86 569 286 C568.01 286 567.02 286 566 286 C566 295.9 566 305.8 566 316 C550.211 320.511 535.782 319.934 519.453 318.52 C499.909 316.833 480.362 315.19 460.812 313.562 C459.525 313.455 458.238 313.348 456.912 313.238 C444.564 312.21 432.216 311.183 419.867 310.16 C395.905 308.175 371.948 306.151 348 304 C348 301.36 348 298.72 348 296 C347.01 296 346.02 296 345 296 C345 298.31 345 300.62 345 303 C326.968 302.216 308.965 300.739 291 299 C287.574 298.734 284.147 298.469 280.617 298.195 C277.218 297.931 273.818 297.666 270.419 297.401 C268.096 297.22 265.773 297.04 263.449 296.86 C249.135 295.752 234.832 294.571 220.537 293.236 C216.025 292.817 211.513 292.409 207 292 C207 290.02 207 288.04 207 286 C206.01 286 205.02 286 204 286 C204 287.65 204 289.3 204 291 C184.973 290.135 165.977 288.627 147 287 C98.49 286.67 49.98 286.34 0 286 C0 191.62 0 97.24 0 0 Z " fill="#FDFEFE" transform="translate(0,0)"/>
<path d="M0 0 C253.44 0 506.88 0 768 0 C768 89.1 768 178.2 768 270 C514.56 270 261.12 270 0 270 C0 180.9 0 91.8 0 0 Z " fill="#FDFEFE" transform="translate(0,1074)"/>
<path d="M0 0 C13 0 13 0 16.869 0.228 C51.906 2.287 86.949 4.186 122 6 C122 19.2 122 32.4 122 46 C120.02 47.32 118.04 48.64 116 50 C115.01 51.32 114.02 52.64 113 54 C111.35 54.66 109.7 55.32 108 56 C96.906 63.396 91.666 71.169 88 84 C87.67 87.3 87.34 90.6 87 94 C86.34 94.495 86.34 94.495 83 97 C83 98.98 83 100.96 83 103 C87 106 87 106 98 108 C99.65 109.65 101.3 111.3 103 113 C114.034 121.276 114.455 121 129 121 C143 114 143 114 147 109 C151.29 108.01 155.58 107.02 160 106 C161.32 105.67 162.64 105.34 164 105 C164 102.36 164 99.72 164 97 C162.68 96.01 161.36 95.02 160 94 C159.01 88.39 158.02 82.78 157 77 C150.436 65.185 145.988 60.539 134 54 C133.34 53.175 133.34 53.175 130 49 C128.35 48.34 126.7 47.68 125 47 C125 33.8 125 20.6 125 7 C156 8 156 8 164.934 8.551 C197.614 10.552 230.302 12.319 263 14 C263 27.53 263 41.06 263 55 C261.02 56.32 259.04 57.64 257 59 C255.68 60.32 254.36 61.64 253 63 C249.7 64.98 246.4 66.96 243 69 C233.348 80.031 231.083 87.421 229 102 C228.34 102.495 228.34 102.495 225 105 C225 106.98 225 108.96 225 111 C230 114 230 114 241 117 C242.32 118.65 243.64 120.3 245 122 C256.667 129 256.667 129 267 129 C276.368 126.324 282.705 123.554 289 116 C290.65 115.67 290.65 115.67 299 114 C300.65 113.34 302.3 112.68 304 112 C304.33 109.36 304.66 106.72 305 104 C303.68 103.34 302.36 102.68 301 102 C300.01 97.05 299.02 92.1 298 87 C291.346 73.692 286.669 68.601 274 61 C272.02 59.35 270.04 57.7 268 56 C267.34 55.67 266.68 55.34 266 55 C266 41.8 266 28.6 266 15 C301.076 15 336.03 17.502 371 20 C374.96 20.165 374.96 20.165 395 21 C395 56.97 395 92.94 395 130 C388.07 130 381.14 130 374 130 C358.247 135.251 351.424 140.96 343 155 C342.505 156.155 342.505 156.155 340 162 C338.68 161.34 337.36 160.68 336 160 C331 158 331 158 316 158 C306.156 164.563 304.059 167.176 300 178 C298.35 177.67 296.7 177.34 295 177 C284 177 284 177 264 184 C257.07 185.98 250.14 187.96 243 190 C268.08 190.165 268.08 190.165 395 191 C395 272.51 395 354.02 395 438 C386.09 438 377.18 438 368 438 C370 412 370 412 372 403 C358.8 403 345.6 403 332 403 C332.99 412.24 333.98 421.48 335 431 C335 433.64 335 436.28 335 439 C301.484 440.365 267.97 441.489 234.437 442.349 C228.516 442.502 222.596 442.658 216.676 442.814 C205.382 443.11 194.088 443.404 182.794 443.695 C173.376 443.938 163.957 444.183 154.539 444.428 C151.766 444.5 148.994 444.572 146.221 444.644 C145.878 444.653 145.878 444.653 144.143 444.698 C114.429 445.471 84.715 446.237 55 447 C48.235 447.33 48.235 447.33 14 449 C9.38 449 4.76 449 0 449 C0 395.87 0 342.74 0 288 C51.15 287.67 102.3 287.34 155 287 C153.02 286.505 153.02 286.505 143 284 C135.948 281.83 128.909 279.591 122 277 C116.72 277 111.44 277 106 277 C104.68 273.7 103.36 270.4 102 267 C92.667 260 92.667 260 78 260 C77.175 260.495 77.175 260.495 73 263 C72.34 263 71.68 263 71 263 C69.68 259.7 68.36 256.4 67 253 C58.915 242.22 52.813 239.271 40 235 C22.706 235 16.805 238.359 4 250 C2.68 251.65 1.36 253.3 0 255 C0 170.85 0 86.7 0 0 Z " fill="#AADEFA" transform="translate(82,394)"/>
<path d="M0 0 C5 4 5 4 8 13 C8.99 23.23 9.98 33.46 11 44 C15 76 15 76 18 80 C18.606 80.121 18.606 80.121 21.672 80.734 C24.261 81.252 26.851 81.77 29.44 82.288 C30.357 82.471 31.274 82.655 32.219 82.844 C36.073 83.615 39.927 84.385 43.781 85.156 C44.698 85.34 45.615 85.523 46.56 85.712 C58 88 58 88 63 94 C63 95.65 63 97.3 63 99 C62.34 99.33 62.34 99.33 59 101 C59.66 104.63 59.66 104.63 63 123 C66 142 66 142 66 149 C66.66 148.67 67.32 148.34 68 148 C74.765 147.67 74.765 147.67 109 146 C109 113.66 109 81.32 109 48 C101.08 48 93.16 48 85 48 C37.5 45.5 37.5 45.5 31 39 C31 37.02 31 35.04 31 33 C31.536 33.11 32.073 33.219 32.625 33.332 C85.884 44.106 145.942 46.264 199 33 C199 34.98 199 36.96 199 39 C188.105 49.895 158.068 47.297 144 48 C136.41 48 128.82 48 121 48 C121 80.34 121 112.68 121 146 C131.56 145.01 142.12 144.02 153 143 C156.63 143 160.26 143 164 143 C168.383 114.702 168.383 114.702 170 103 C170.33 102.34 170.66 101.68 171 101 C169.68 100.34 168.36 99.68 167 99 C167 93 167 93 172 88 C185.074 84.265 198.622 82.432 212 80 C221.003 67.996 221.918 12.807 222 12 C224 5 224 5 230 0 C278 0 278 0 286 4 C299.152 25.92 285.775 61.028 283 86 C282.505 86.99 282.505 86.99 280 92 C280 105.4 282.285 118.71 284 132 C284 133.32 284 134.64 284 136 C286.97 135.67 286.97 135.67 302 134 C306.29 134 310.58 134 315 134 C315.33 128.39 315.66 122.78 316 117 C316.66 110.73 317.32 104.46 318 98 C318 92 318 92 315 86 C314.889 84.772 314.779 83.544 314.665 82.278 C314.244 77.619 313.823 72.959 313.401 68.3 C313.22 66.302 313.04 64.305 312.86 62.308 C311.648 48.864 310.369 35.429 309 22 C309 9 309 9 313 3 C329.422 -5.211 349.639 0 368 0 C384.155 13.463 380.275 51.595 382 70 C382.99 72.97 383.98 75.94 385 79 C397.28 83.093 410.277 84.615 423 87 C428 90 428 90 431 93 C431 94.98 431 96.96 431 99 C429.68 99.33 428.36 99.66 427 100 C428.32 107.26 429.64 114.52 431 122 C431 123.65 431 125.3 431 127 C432.65 126.67 434.3 126.34 436 126 C443.26 126 450.52 126 458 126 C458 100.26 458 74.52 458 48 C453.71 48 449.42 48 445 48 C405.278 43.185 405.278 43.185 399 39 C399 36.69 399 34.38 399 32 C400.32 32.66 401.64 33.32 403 34 C440.838 41.207 480.716 43.254 519 39 C522.465 38.835 522.465 38.835 540 38 C560 35 560 35 568 32 C568 34.31 568 36.62 568 39 C546.456 51.927 512.949 48 489 48 C489 74.73 489 101.46 489 129 C492.96 129.33 496.92 129.66 501 130 C508.59 130.99 516.18 131.98 524 133 C527.3 133.33 530.6 133.66 534 134 C534.66 128.72 535.32 123.44 536 118 C536.495 115.195 536.495 115.195 539 101 C537.68 100.34 536.36 99.68 535 99 C536 92 536 92 540 88 C553.274 85.05 566.65 82.584 580 80 C597.167 62.833 588.458 32.145 591 8 C595 2 595 2 598 0 C647 0 647 0 653 3 C663.722 16.402 653.827 60.898 653 70 C651 88 651 88 648 93 C649 110 649 110 653 136 C653.33 140.95 653.66 145.9 654 151 C663.9 152.32 673.8 153.64 684 155 C684 166.22 684 177.44 684 189 C430.56 189 177.12 189 -84 189 C-84 178.77 -84 168.54 -84 158 C-71 157 -71 157 -57 157 C-55.68 145.12 -54.36 133.24 -53 121 C-52.67 119.02 -52.67 119.02 -51 109 C-50 93 -50 93 -53 86 C-61.768 13.152 -61.768 13.152 -55 3 C-38.578 -5.211 -18.361 0 0 0 Z " fill="#F6D9D5" transform="translate(84,885)"/>
<path d="M0 0 C169 0 169 0 204 5 C204 3.35 204 1.7 204 0 C204.99 0 205.98 0 207 0 C207 1.98 207 3.96 207 6 C210.63 6 214.26 6 218 6 C218.861 6.075 219.723 6.15 220.61 6.228 C244.064 8.27 267.528 10.175 291 12 C296.115 12.495 296.115 12.495 322 15 C327.94 15.33 333.88 15.66 340 16 C341.65 16.33 343.3 16.66 345 17 C345 14.69 345 12.38 345 10 C345.99 10 346.98 10 348 10 C348 12.64 348 15.28 348 18 C351.3 18 354.6 18 358 18 C367.334 18.724 376.667 19.453 386 20.188 C386.706 20.243 387.412 20.299 388.14 20.356 C410.105 22.086 432.053 23.948 453.996 25.943 C470.44 27.437 486.888 28.812 503.354 30.041 C514.914 30.904 526.461 31.887 538 33 C551 32 551 32 562 30 C563.32 30 564.64 30 566 30 C566 20.1 566 10.2 566 0 C566.99 0 567.98 0 569 0 C569 9.57 569 19.14 569 29 C615 22 615 22 637 18 C643.04 16.965 649.08 15.938 655.125 14.938 C655.89 14.81 656.655 14.683 657.444 14.552 C669.279 12.585 681.125 10.718 693 9 C693.473 8.91 693.473 8.91 695.867 8.456 C706.231 6.496 716.611 4.635 727 2.812 C728.565 2.537 730.13 2.262 731.695 1.986 C744.474 -0.263 753.672 0 768 0 C768 7.59 768 15.18 768 23 C747.209 27.455 726.049 29.993 705 33 C700.05 33.825 700.05 33.825 675 38 C662.773 39.76 650.542 41.482 638.306 43.173 C625.636 44.924 612.973 46.704 600.33 48.644 C595.805 49.335 591.277 50.01 586.75 50.688 C585.057 50.941 583.365 51.195 581.672 51.449 C578 52 578 52 569 52 C569.33 85.66 569.66 119.32 570 154 C571.98 155.32 573.96 156.64 576 158 C576.33 158.99 576.66 159.98 577 161 C570.73 161 564.46 161 558 161 C560 157 560 157 564 154 C564.66 154 565.32 154 566 154 C566 120.67 566 87.34 566 53 C561.05 53.99 556.1 54.98 551 56 C548.36 56 545.72 56 543 56 C543 93.95 543 131.9 543 171 C542.67 171 542.34 171 542 171 C542 133.05 542 95.1 542 56 C537.05 56 532.1 56 527 56 C520.4 55.34 513.8 54.68 507 54 C499.74 53.505 499.74 53.505 463 51 C458.05 50.34 453.1 49.68 448 49 C446.513 48.895 445.026 48.789 443.494 48.68 C353.045 42.261 353.045 42.261 348 41 C348 67.07 348 93.14 348 120 C351.63 120 355.26 120 359 120 C360.655 120.105 362.31 120.211 364.015 120.32 C369.782 120.686 375.549 121.049 381.316 121.409 C384.778 121.626 388.241 121.844 391.703 122.065 C422.456 124.025 453.217 125.461 484 127 C484 265.6 484 404.2 484 547 C481.69 546.67 479.38 546.34 477 546 C477 464.49 477 382.98 477 299 C425.19 299 373.38 299 320 299 C320 298.67 320 298.34 320 298 C326.6 296.35 333.2 294.7 340 293 C348.701 290.1 357.381 287.134 366 284 C377 284 377 284 382 286 C382.33 284.68 382.66 283.36 383 282 C386.764 273.218 389.677 269.756 398 265 C413 265 413 265 419 268 C419.99 268.33 420.98 268.66 422 269 C423.32 265.7 424.64 262.4 426 259 C434.755 246.492 441.532 241.823 456 237 C473 237 473 237 477 238 C477 202.03 477 166.06 477 129 C469.08 129 461.16 129 453 129 C448.38 128.67 448.38 128.67 425 127 C423.017 126.898 423.017 126.898 412.98 126.379 C409.759 126.212 406.538 126.046 403.317 125.879 C399.949 125.705 396.582 125.531 393.214 125.357 C389.323 125.156 385.433 124.955 381.543 124.754 C380.372 124.693 379.202 124.633 377.996 124.571 C367.997 124.054 357.998 123.526 348 123 C348 136.2 348 149.4 348 163 C349.65 163.66 351.3 164.32 353 165 C354.98 166.65 356.96 168.3 359 170 C361.97 171.98 364.94 173.96 368 176 C378.62 186.62 381.06 195.299 384 210 C384.99 210.66 385.98 211.32 387 212 C387 214.64 387 217.28 387 220 C379 224 379 224 371 225 C369.35 226.98 367.7 228.96 366 231 C354.742 237.141 352.218 238 340 238 C325.333 230.667 325.333 230.667 323 226 C318.71 224.68 314.42 223.36 310 222 C308.68 221.01 307.36 220.02 306 219 C306 217.02 306 215.04 306 213 C307.32 212.01 308.64 211.02 310 210 C310.66 205.38 311.32 200.76 312 196 C318.955 182.09 321.791 177.338 335 170 C335.66 170 336.32 170 337 170 C337.66 168.68 338.32 167.36 339 166 C343 163 343 163 345 163 C345 149.47 345 135.94 345 122 C339.06 122 333.12 122 327 122 C250 118 250 118 238 117 C229.09 116.67 220.18 116.34 211 116 C209.68 115.67 208.36 115.34 207 115 C207 128.2 207 141.4 207 155 C208.65 155.33 210.3 155.66 212 156 C216 160 216 160 216 162 C216.99 162.33 216.99 162.33 222 164 C236.291 174.718 240.321 184.589 243 202 C244.32 202.99 245.64 203.98 247 205 C247 206.98 247 208.96 247 211 C241.849 216.151 234.84 217.046 228 219 C226.68 220.65 225.36 222.3 224 224 C211 230 211 230 198 230 C188 225 188 225 180 217 C176.37 216.34 172.74 215.68 169 215 C167.35 213.68 165.7 212.36 164 211 C164 209.02 164 207.04 164 205 C165.32 204.01 166.64 203.02 168 202 C168.66 197.38 169.32 192.76 170 188 C175.435 175.772 181.124 167.787 193 161 C193.66 161 194.32 161 195 161 C196.65 159.02 198.3 157.04 200 155 C201.32 154.67 202.64 154.34 204 154 C204 140.8 204 127.6 204 114 C196.08 114 188.16 114 180 114 C108 110 108 110 82 108 C82 107.34 82 106.68 82 106 C111.697 106 141.363 108.118 171 110 C178.59 110.33 186.18 110.66 194 111 C197.3 111.33 200.6 111.66 204 112 C204 84.61 204 57.22 204 29 C197.4 28.67 190.8 28.34 184 28 C178.06 27.34 172.12 26.68 166 26 C164.706 25.9 163.413 25.8 162.08 25.696 C138.402 23.86 114.727 21.996 91.062 20 C73.693 18.536 56.318 17.148 38.938 15.812 C37.838 15.728 36.739 15.643 35.606 15.556 C23.741 14.643 11.876 13.765 0 13 C0 8.71 0 4.42 0 0 Z " fill="#F5D9D5" transform="translate(0,286)"/>
<path d="M0 0 C0 69.96 0 139.92 0 212 C-0.66 212.66 -1.32 213.32 -2 214 C-53.012 213.25 -104.014 211.799 -155 210 C-155 145.32 -155 80.64 -155 14 C-134.21 12.02 -113.42 10.04 -92 8 C-79.785 6.768 -67.572 5.534 -55.364 4.249 C-52.809 3.98 -50.255 3.712 -47.7 3.444 C-14.842 0 -14.842 0 0 0 Z " fill="#EE746E" transform="translate(727,527)"/>
<path d="M0 0 C48.13 3.438 48.13 3.438 71.25 5.5 C93.491 7.471 115.74 9.243 138 11 C138 38.06 138 65.12 138 93 C102.274 93 66.605 90.967 31 88 C22.09 87.67 13.18 87.34 4 87 C2.68 86.67 1.36 86.34 0 86 C0 57.62 0 29.24 0 0 Z " fill="#FEFEFE" transform="translate(207,315)"/>
<path d="M0 0 C0.99 0 1.98 0 3 0 C3 9.57 3 19.14 3 29 C49 22 49 22 71 18 C77.04 16.965 83.08 15.938 89.125 14.938 C89.89 14.81 90.655 14.683 91.444 14.552 C103.279 12.585 115.125 10.718 127 9 C127.473 8.91 127.473 8.91 129.867 8.456 C140.231 6.496 150.611 4.635 161 2.812 C162.565 2.537 164.13 2.262 165.695 1.986 C178.474 -0.263 187.672 0 202 0 C202 7.59 202 15.18 202 23 C181.209 27.455 160.049 29.993 139 33 C134.05 33.825 134.05 33.825 109 38 C96.773 39.76 84.542 41.482 72.306 43.173 C59.636 44.924 46.973 46.704 34.33 48.644 C29.805 49.335 25.277 50.01 20.75 50.688 C19.057 50.941 17.365 51.195 15.672 51.449 C12 52 12 52 3 52 C3.33 85.66 3.66 119.32 4 154 C4.99 154.66 4.99 154.66 10 158 C10.33 158.99 10.66 159.98 11 161 C4.73 161 -1.54 161 -8 161 C-6 157 -6 157 -2 154 C-1.34 154 -0.68 154 0 154 C0 120.67 0 87.34 0 53 C-4.95 53.99 -9.9 54.98 -15 56 C-17.64 56 -20.28 56 -23 56 C-23 93.95 -23 131.9 -23 171 C-23.33 171 -23.66 171 -24 171 C-24 133.05 -24 95.1 -24 56 C-28.95 56 -33.9 56 -39 56 C-45.6 55.34 -52.2 54.68 -59 54 C-66.26 53.505 -66.26 53.505 -103 51 C-107.95 50.34 -112.9 49.68 -118 49 C-119.487 48.895 -120.974 48.789 -122.506 48.68 C-212.955 42.261 -212.955 42.261 -218 41 C-218 33.41 -218 25.82 -218 18 C-205.282 18 -192.673 19.19 -180 20.188 C-179.647 20.215 -179.647 20.215 -177.86 20.356 C-155.895 22.086 -133.947 23.948 -112.004 25.943 C-95.56 27.437 -79.112 28.812 -62.646 30.041 C-51.086 30.904 -39.539 31.887 -28 33 C-15 32 -15 32 -4 30 C-2.68 30 -1.36 30 0 30 C0 20.1 0 10.2 0 0 Z " fill="#F5D9D5" transform="translate(566,286)"/>
<path d="M0 0 C5 4 5 4 8 13 C8.99 23.23 9.98 33.46 11 44 C15 76 15 76 18 80 C18.606 80.121 18.606 80.121 21.672 80.734 C24.261 81.252 26.851 81.77 29.44 82.288 C30.357 82.471 31.274 82.655 32.219 82.844 C36.073 83.615 39.927 84.385 43.781 85.156 C44.698 85.34 45.615 85.523 46.56 85.712 C58 88 58 88 63 94 C63 95.65 63 97.3 63 99 C62.34 99.33 62.34 99.33 59 101 C60.32 108.26 61.64 115.52 63 123 C70 167 70 167 70 176 C68.35 176.33 66.7 176.66 65 177 C63 174 63 174 62.345 170.449 C54.316 126.963 54.316 126.963 50 106 C50 104.68 50 103.36 50 102 C39.44 102.99 28.88 103.98 18 105 C16.02 105 14.04 105 12 105 C12 136 12 136 15 154 C17 169 17 169 17 181 C15.35 181 13.7 181 12 181 C6 157 6 157 6 145 C5.34 145 4.68 145 4 145 C3.34 151.6 2.68 158.2 2 165 C1.34 166.98 0.68 168.96 0 171 C-1.65 171 -3.3 171 -5 171 C-8.86 155.56 -3.582 139.495 -1 124 C-1 112 -1 112 -2 107 C-13.965 104.175 -25.984 101.596 -38 99 C-48 95 -48 95 -52 89 C-58.36 63.559 -59 35.203 -59 9 C-45.874 -10.688 -25.461 0 0 0 Z " fill="#EE736E" transform="translate(84,885)"/>
<path d="M0 0 C16.155 13.463 12.275 51.595 14 70 C14.99 72.97 15.98 75.94 17 79 C29.28 83.093 42.277 84.615 55 87 C60 90 60 90 63 93 C63 94.98 63 96.96 63 99 C61.68 99.33 60.36 99.66 59 100 C60.32 107.26 61.64 114.52 63 122 C70 166 70 166 70 176 C68.35 176 66.7 176 65 176 C60.575 162.726 58.579 148.752 56 135 C54.02 125.76 52.04 116.52 50 107 C50 105.35 50 103.7 50 102 C44.885 102.495 44.885 102.495 19 105 C16.69 105 14.38 105 12 105 C12 127.896 13.896 149.428 18 172 C18 174.64 18 177.28 18 180 C16.35 180.33 14.7 180.66 13 181 C8.246 173.869 8.533 164.432 7 156 C6.67 154.515 6.67 154.515 5 147 C3.68 154.59 2.36 162.18 1 170 C0.67 170.33 0.34 170.66 0 171 C-1.65 171 -3.3 171 -5 171 C-8.084 155.582 -2.859 139.613 -1 124 C-1 118.06 -1 112.12 -1 106 C-3.64 105.67 -6.28 105.34 -9 105 C-43.811 98.553 -43.811 98.553 -52 89 C-53 86 -53 86 -53.335 82.278 C-53.756 77.619 -54.177 72.959 -54.599 68.3 C-54.78 66.302 -54.96 64.305 -55.14 62.308 C-56.352 48.864 -57.631 35.429 -59 22 C-59 9 -59 9 -55 3 C-38.578 -5.211 -18.361 0 0 0 Z " fill="#EE736F" transform="translate(452,885)"/>
<path d="M0 0 C6 3 6 3 10 8 C10 79.6 10 79.6 -1 95 C-13.925 101.463 -29.873 103.056 -44 106 C-44.495 106.165 -44.495 106.165 -47 107 C-48.287 114.719 -48.921 122.315 -47 130 C-46.67 133.465 -46.67 133.465 -45 151 C-44.67 153.31 -44.67 153.31 -43 165 C-43 166.65 -43 168.3 -43 170 C-43.66 170.66 -44.32 171.32 -45 172 C-46.32 171.67 -47.64 171.34 -49 171 C-50.773 163.023 -52.397 155.013 -54 147 C-55.98 157.23 -57.96 167.46 -60 178 C-60.66 178.99 -61.32 179.98 -62 181 C-63.65 180.67 -65.3 180.34 -67 180 C-65.23 164.955 -63.142 149.993 -61 135 C-61 125.43 -61 115.86 -61 106 C-74.438 104.562 -74.438 104.562 -78.619 104.115 C-79.733 103.996 -80.848 103.877 -81.996 103.754 C-83.122 103.633 -84.248 103.513 -85.408 103.389 C-89.606 102.934 -93.803 102.466 -98 102 C-99.65 110.58 -101.3 119.16 -103 128 C-104.102 133.247 -105.205 138.494 -106.308 143.741 C-106.683 145.523 -107.057 147.304 -107.431 149.086 C-107.972 151.66 -108.513 154.234 -109.055 156.809 C-109.219 157.593 -109.384 158.378 -109.554 159.187 C-112.851 174.851 -112.851 174.851 -114 176 C-115.65 176 -117.3 176 -119 176 C-118.258 164.866 -116.946 154.481 -115.174 143.562 C-114.855 141.593 -114.536 139.624 -114.217 137.654 C-112.238 125.419 -110.196 113.199 -108 101 C-109.32 100.34 -110.64 99.68 -112 99 C-111 92 -111 92 -107 88 C-93.726 85.05 -80.35 82.584 -67 80 C-49.833 62.833 -58.542 32.145 -56 8 C-42.684 -11.974 -36.681 0 0 0 Z " fill="#EF746F" transform="translate(731,885)"/>
<path d="M0 0 C8 4 8 4 11 9 C11 75.5 11 75.5 1 93 C-10.258 102.006 -33.702 106 -47 106 C-47 126 -47 126 -43 156 C-42.835 158.31 -42.835 158.31 -42 170 C-42.66 170.66 -43.32 171.32 -44 172 C-45.32 171.67 -46.64 171.34 -48 171 C-49.915 162.385 -51.466 153.691 -53 145 C-54.65 153.58 -56.3 162.16 -58 171 C-58.66 173.97 -59.32 176.94 -60 180 C-61.65 180.33 -63.3 180.66 -65 181 C-65.33 180.67 -65.66 180.34 -66 180 C-66 171 -66 171 -63 154 C-62.67 150.37 -62.34 146.74 -62 143 C-61.67 142.34 -61.34 141.68 -61 141 C-60.079 129.031 -60 117.005 -60 105 C-64.29 105 -68.58 105 -73 105 C-81.25 104.01 -89.5 103.02 -98 102 C-98.33 105.3 -98.66 108.6 -99 112 C-99.252 113.198 -99.503 114.396 -99.763 115.63 C-100.718 120.177 -101.672 124.725 -102.625 129.273 C-103.034 131.222 -103.443 133.171 -103.853 135.12 C-106.643 148.399 -109.364 161.689 -112 175 C-112.33 175.33 -112.66 175.66 -113 176 C-114.65 176 -116.3 176 -118 176 C-117 158 -117 158 -114 145 C-113.67 141.37 -113.34 137.74 -113 134 C-111.68 127.07 -110.36 120.14 -109 113 C-108.67 109.7 -108.34 106.4 -108 103 C-107.835 102.67 -107.835 102.67 -107 101 C-108.32 100.34 -109.64 99.68 -111 99 C-111 93 -111 93 -106 88 C-92.926 84.265 -79.378 82.432 -66 80 C-56.997 67.996 -56.082 12.807 -56 12 C-49.036 -12.372 -24.968 0 0 0 Z " fill="#EE7470" transform="translate(362,885)"/>
<path d="M0 0 C169 0 169 0 204 5 C204 3.35 204 1.7 204 0 C204.99 0 205.98 0 207 0 C207 51.15 207 102.3 207 155 C208.65 155.33 210.3 155.66 212 156 C216 160 216 160 216 162 C216.99 162.33 216.99 162.33 222 164 C236.291 174.718 240.321 184.589 243 202 C244.32 202.99 245.64 203.98 247 205 C247 206.98 247 208.96 247 211 C241.849 216.151 234.84 217.046 228 219 C226.68 220.65 225.36 222.3 224 224 C211 230 211 230 198 230 C188 225 188 225 180 217 C176.37 216.34 172.74 215.68 169 215 C167.35 213.68 165.7 212.36 164 211 C164 209.02 164 207.04 164 205 C165.32 204.01 166.64 203.02 168 202 C168.66 197.38 169.32 192.76 170 188 C175.435 175.772 181.124 167.787 193 161 C193.66 161 194.32 161 195 161 C196.65 159.02 198.3 157.04 200 155 C201.32 154.67 202.64 154.34 204 154 C204 140.8 204 127.6 204 114 C196.08 114 188.16 114 180 114 C108 110 108 110 82 108 C82 107.34 82 106.68 82 106 C111.697 106 141.363 108.118 171 110 C178.59 110.33 186.18 110.66 194 111 C197.3 111.33 200.6 111.66 204 112 C204 84.61 204 57.22 204 29 C197.4 28.67 190.8 28.34 184 28 C178.06 27.34 172.12 26.68 166 26 C164.706 25.9 163.413 25.8 162.08 25.696 C138.402 23.86 114.727 21.996 91.062 20 C73.693 18.536 56.318 17.148 38.938 15.812 C37.838 15.728 36.739 15.643 35.606 15.556 C23.741 14.643 11.876 13.765 0 13 C0 8.71 0 4.42 0 0 Z " fill="#F4D7D4" transform="translate(0,286)"/>
<path d="M0 0 C0 69.96 0 139.92 0 212 C-0.66 212.66 -1.32 213.32 -2 214 C-53.012 213.25 -104.014 211.799 -155 210 C-155 145.32 -155 80.64 -155 14 C-134.21 12.02 -113.42 10.04 -92 8 C-79.785 6.768 -67.572 5.534 -55.364 4.249 C-52.809 3.98 -50.255 3.712 -47.7 3.444 C-14.842 0 -14.842 0 0 0 Z M-55 11 C-69.85 12.32 -84.7 13.64 -100 15 C-109.24 15.99 -118.48 16.98 -128 18 C-130.145 18.165 -130.145 18.165 -141 19 C-147 23 -147 23 -150 28 C-150 196 -150 196 -146 202 C-129.18 213.214 -51.215 206 -20 206 C-15 203 -15 203 -12 197 C-12 16 -12 16 -18 9 C-25.77 5.115 -52.997 10.769 -55 11 Z " fill="#EE7772" transform="translate(727,527)"/>
<path d="M0 0 C12.718 0 25.327 1.19 38 2.188 C38.353 2.215 38.353 2.215 40.14 2.356 C62.105 4.086 84.053 5.948 105.996 7.943 C122.44 9.437 138.888 10.812 155.354 12.041 C166.914 12.904 178.461 13.887 190 15 C203 14 203 14 214 12 C215.32 12 216.64 12 218 12 C218 19.59 218 27.18 218 35 C203 38 203 38 195 38 C195 75.95 195 113.9 195 153 C194.67 153 194.34 153 194 153 C194 115.05 194 77.1 194 38 C189.05 38 184.1 38 179 38 C172.4 37.34 165.8 36.68 159 36 C151.74 35.505 151.74 35.505 115 33 C110.05 32.34 105.1 31.68 100 31 C98.513 30.895 97.026 30.789 95.494 30.68 C5.045 24.261 5.045 24.261 0 23 C0 15.41 0 7.82 0 0 Z " fill="#F5D9D6" transform="translate(348,304)"/>
<path d="M0 0 C0 20.13 0 40.26 0 61 C-51.48 61 -102.96 61 -156 61 C-156 60.67 -156 60.34 -156 60 C-152.7 59.175 -152.7 59.175 -136 55 C-127.299 52.1 -118.619 49.134 -110 46 C-99 46 -99 46 -94 48 C-93.67 46.68 -93.34 45.36 -93 44 C-89.236 35.218 -86.323 31.756 -78 27 C-63 27 -63 27 -57 30 C-56.505 30.165 -56.505 30.165 -54 31 C-52.68 27.7 -51.36 24.4 -50 21 C-38.56 4.658 -21.172 -7.057 0 0 Z " fill="#FDFEFE" transform="translate(476,524)"/>
<path d="M0 0 C0 2.97 0 5.94 0 9 C-10 10 -10 10 -12.241 10.067 C-168.933 14.747 -168.933 14.747 -241.89 17.065 C-245.673 17.185 -249.457 17.305 -253.24 17.425 C-288.829 18.552 -324.415 19.758 -360 21 C-400 21 -400 21 -419 17 C-419 13.04 -419 9.08 -419 5 C-411.309 6.183 -403.631 7.474 -396 9 C-361.818 9 -327.813 8.683 -293.688 7.688 C-292.544 7.654 -291.4 7.621 -290.221 7.586 C-255.704 6.579 -221.19 5.502 -186.678 4.343 C-157.982 3.378 -129.285 2.482 -100.583 1.702 C-67.007 0.789 -33.644 0 0 0 Z " fill="#F6DAD7" transform="translate(501,838)"/>
<path d="M0 0 C0 0.66 0 1.32 0 2 C1.98 2.66 3.96 3.32 6 4 C20.291 14.718 24.321 24.589 27 42 C28.32 42.99 29.64 43.98 31 45 C31 46.98 31 48.96 31 51 C25.849 56.151 18.84 57.046 12 59 C11.34 59.825 11.34 59.825 8 64 C-5 70 -5 70 -18 70 C-28 65 -28 65 -36 57 C-39.63 56.34 -43.26 55.68 -47 55 C-48.65 53.68 -50.3 52.36 -52 51 C-52 49.02 -52 47.04 -52 45 C-50.68 44.01 -49.36 43.02 -48 42 C-47.34 37.38 -46.68 32.76 -46 28 C-40.565 15.772 -34.876 7.787 -23 1 C-16 0 -16 0 0 0 Z " fill="#FCFDFC" transform="translate(216,446)"/>
<path d="M0 0 C14.686 11.014 19.988 20.926 23 39 C23.495 39.33 23.495 39.33 26 41 C26 43.64 26 46.28 26 49 C18 53 18 53 10 54 C9.175 54.99 9.175 54.99 5 60 C-6.258 66.141 -8.782 67 -21 67 C-35.667 59.667 -35.667 59.667 -38 55 C-42.29 53.68 -46.58 52.36 -51 51 C-52.32 50.01 -53.64 49.02 -55 48 C-55 46.02 -55 44.04 -55 42 C-53.68 41.01 -52.36 40.02 -51 39 C-50.34 34.38 -49.68 29.76 -49 25 C-42.045 11.09 -39.209 6.338 -26 -1 C-16.989 -3.253 -8.85 -1.967 0 0 Z " fill="#FCFDFD" transform="translate(361,457)"/>
<path d="M0 0 C13.2 0 26.4 0 40 0 C39.67 2.97 39.34 5.94 39 9 C38.34 16.26 37.68 23.52 37 31 C35 38 35 38 33 41 C34.32 41.33 35.64 41.66 37 42 C8.546 43.151 -19.909 44.151 -48.375 44.938 C-75.712 45.693 -103.046 46.527 -130.38 47.402 C-299.863 52.827 -299.863 52.827 -329 47 C-329 46.67 -329 46.34 -329 46 C-308.691 44.599 -288.478 43.295 -268.129 42.772 C-213.181 41.361 -158.234 39.938 -103.287 38.471 C-99.723 38.376 -96.158 38.281 -92.594 38.187 C-67.727 37.526 -42.862 36.847 -18 36 C-11.07 36 -4.14 36 3 36 C2.01 27.42 1.02 18.84 0 10 C0 6.7 0 3.4 0 0 Z " fill="#FBFAF9" transform="translate(414,797)"/>
<path d="M0 0 C11 0 11 0 16.015 0.32 C21.782 0.686 27.549 1.049 33.316 1.409 C36.778 1.626 40.241 1.844 43.703 2.065 C74.456 4.025 105.217 5.461 136 7 C136 145.6 136 284.2 136 427 C133.69 426.67 131.38 426.34 129 426 C128.871 395.572 128.744 365.144 128.618 334.716 C128.603 331.084 128.588 327.453 128.573 323.821 C128.57 323.098 128.567 322.376 128.564 321.631 C128.516 310.088 128.467 298.544 128.418 287 C128.368 275.064 128.318 263.127 128.269 251.191 C128.242 244.525 128.214 237.859 128.185 231.193 C128.064 203 127.979 174.807 127.973 146.613 C127.972 145.382 127.972 144.15 127.971 142.881 C127.961 116.347 128.192 89.816 128.464 63.283 C128.526 57.111 128.585 50.939 128.645 44.768 C128.76 32.845 128.879 20.923 129 9 C121.08 9 113.16 9 105 9 C100.38 8.67 100.38 8.67 77 7 C73.034 6.795 69.067 6.59 64.98 6.379 C61.759 6.212 58.538 6.046 55.317 5.879 C51.949 5.705 48.582 5.531 45.214 5.357 C30.142 4.578 15.071 3.798 0 3 C0 2.01 0 1.02 0 0 Z " fill="#F6DBD8" transform="translate(348,406)"/>
<path d="M0 0 C31.765 3.176 31.765 3.176 39 8 C41.077 18.386 39.596 27.626 38 38 C37.34 43.28 36.68 48.56 36 54 C21.041 55.496 6.021 56.399 -9 57 C-7.399 37.792 -4.681 18.723 0 0 Z " fill="#FDFDFC" transform="translate(44,984)"/>
<path d="M0 0 C8 39 8 39 8 48 C-29 50 -29 50 -36 50 C-38.958 34.222 -41.229 19.145 -38 3 C-10 0 -10 0 0 0 Z " fill="#FCFCFC" transform="translate(134,987)"/>
<path d="M0 0 C2.459 9.835 3.63 19.955 5 30 C5.99 34.95 6.98 39.9 8 45 C8 46.98 8 48.96 8 51 C-3.743 51 -15.384 48.721 -27 47 C-30.3 46.67 -33.6 46.34 -37 46 C-39.256 41.488 -38.613 36.029 -39 31 C-39.33 29.68 -39.66 28.36 -40 27 C-40 14 -40 14 -38 7 C-12.333 0 -12.333 0 0 0 Z " fill="#FCFCFB" transform="translate(722,984)"/>
<path d="M0 0 C4 1 4 1 5 2 C5 71.63 5 141.26 5 213 C4.67 213.33 4.34 213.66 4 214 C-28.34 214 -60.683 213.22 -93 212 C-109.83 211.67 -126.66 211.34 -144 211 C-144.66 210.34 -145.32 209.68 -146 209 C-146 208.01 -146 207.02 -146 206 C-148.97 206 -151.94 206 -155 206 C-155 205.67 -155 205.34 -155 205 C-126.659 205 -98.323 205.988 -70 207 C-58.78 207.165 -58.78 207.165 -2 208 C47.028 158.972 -0.335 69.336 0 0 Z " fill="#F6D7D2" transform="translate(727,532)"/>
<path d="M0 0 C0 2.64 0 5.28 0 8 C-8 12 -8 12 -16 13 C-17.65 14.98 -19.3 16.96 -21 19 C-32.258 25.141 -34.782 26 -47 26 C-61.667 18.667 -61.667 18.667 -64 14 C-68.29 12.68 -72.58 11.36 -77 10 C-78.32 9.01 -79.64 8.02 -81 7 C-81 5.02 -81 3.04 -81 1 C-60.915 -15.068 -21.338 -10.669 0 0 Z " fill="#FCFCFC" transform="translate(387,498)"/>
<path d="M0 0 C12.681 0.793 25.346 1.85 38 3 C39.512 15.094 38.999 26.005 37 38 C-1 41 -1 41 -7 41 C-7 27.136 -2.796 13.58 0 0 Z " fill="#FCFDFC" transform="translate(264,987)"/>
<path d="M0 0 C2 9 2 9 4 24 C4.165 24.495 4.165 24.495 5 27 C5 30.3 5 33.6 5 37 C-9.27 38.679 -23.642 39.448 -38 40 C-41.524 17.095 -41.524 17.095 -39 7 C-11 0 -11 0 0 0 Z " fill="#FCFCFC" transform="translate(354,984)"/>
<path d="M0 0 C6.27 0 12.54 0 19 0 C19 26.4 19 52.8 19 80 C12.658 79.423 6.319 78.79 0 78 C0 52.26 0 26.52 0 0 Z " fill="#FDFDFC" transform="translate(543,933)"/>
<path d="M0 0 C12.374 0 24.697 1.682 37 3 C44.075 10.075 38 22.994 38 33 C37.67 35.31 37.34 37.62 37 40 C2 36 2 36 -6 34 C-6 22.44 -5.331 10.661 0 0 Z " fill="#FCFCFC" transform="translate(633,987)"/>
<path d="M0 0 C1.98 0 3.96 0 6 0 C6 69.96 6 139.92 6 212 C5.67 212.33 5.67 212.33 4 214 C2.68 214 1.36 214 0 214 C0 143.38 0 72.76 0 0 Z " fill="#E1625D" transform="translate(721,527)"/>
<path d="M0 0 C16 2 16 2 39 7 C41.163 15.651 40.4 23.6 38 32 C5 34 5 34 -5 34 C-4 21 -4 21 0 0 Z " fill="#FDFDFC" transform="translate(412,984)"/>
<path d="M0 0 C7 6 7 6 8 8 C8 189 8 189 5 195 C-31.587 216.952 -80.344 197.016 -123 196 C-128 192 -128 192 -130 188 C-130 20 -130 20 -126 14 C-121 11 -121 11 -118.805 10.788 C-101.495 9.116 -84.186 7.435 -66.878 5.744 C-57.857 4.862 -48.835 3.982 -39.812 3.113 C-39.098 3.044 -38.383 2.975 -37.647 2.905 C-34.341 2.586 -31.035 2.268 -27.729 1.951 C-7.461 0 -7.461 0 0 0 Z M-46 6 C-53.288 6.676 -60.575 7.351 -67.863 8.026 C-70.332 8.255 -72.8 8.484 -75.269 8.713 C-90.845 10.157 -106.421 11.59 -122 13 C-127 17 -127 17 -128 19 C-128 75.1 -128 131.2 -128 189 C-109.541 207.459 -76.095 195.285 -50 196 C-33.17 196 -16.34 196 1 196 C41.132 147.841 6 70.689 6 8 C2 3 2 3 0 2 C-15.406 2 -30.724 4.203 -46 6 Z " fill="#F5D8D2" transform="translate(707,535)"/>
<path d="M0 0 C0 0.66 0 1.32 0 2 C-2.31 2.33 -4.62 2.66 -7 3 C-7.66 4.65 -8.32 6.3 -9 8 C-16 16 -16 16 -29 22 C-42 22 -42 22 -52 17 C-59 10 -59 10 -63 3 C-64.98 2.34 -66.96 1.68 -69 1 C-52.737 -9.842 -17.091 -8.545 0 0 Z " fill="#FCFCFC" transform="translate(240,494)"/>
<path d="M0 0 C7 1 7 1 12 7 C12 78.6 12 78.6 1 94 C-13.059 101.03 -31.304 104 -47 104 C-46 99 -46 99 -43 96 C-31.848 92.654 -20.398 90.375 -9 88 C0.497 78.503 -1.631 74.49 0 59 C0.33 57.68 0.66 56.36 1 55 C5.735 7.647 5.735 7.647 0 0 Z " fill="#E35D59" transform="translate(729,886)"/>
<path d="M0 0 C-1.65 1.32 -3.3 2.64 -5 4 C-8.802 13.506 -6.436 21.951 -5 32 C-3.35 47.51 -1.7 63.02 0 79 C3 85 3 85 6 88 C14.25 89.65 22.5 91.3 31 93 C41 96 41 96 45 101 C45 101.99 45 102.98 45 104 C28.997 104 13.954 100.438 -1 95 C-17.739 78.261 -12.439 42.851 -14 21 C-14 8 -14 8 -10 2 C-7 0 -7 0 0 0 Z " fill="#E35E5A" transform="translate(39,886)"/>
<path d="M0 0 C6 1 6 1 11 6 C21.547 27.094 8.643 61.21 6 85 C2 92 2 92 -3 96 C-33 104 -33 104 -48 104 C-47.01 101.69 -46.02 99.38 -45 97 C-34.402 93.026 -23.099 91.22 -12 89 C-5 85 -5 85 -2 76 C-0.35 61.15 1.3 46.3 3 31 C3.33 29.02 3.66 27.04 4 25 C4 6 4 6 0 0 Z " fill="#E25D5A" transform="translate(361,886)"/>
<path d="M0 0 C-0.33 1.65 -0.66 3.3 -1 5 C-1 70 -1 70 9 85 C17.88 90.92 29.565 90.764 40 93 C47 96 47 96 51 102 C51 102.33 51 102.66 51 103 C34.647 103 19.17 100.068 4 94 C-2.815 86.049 -2.815 86.049 -3.335 80.278 C-3.756 75.619 -4.177 70.959 -4.599 66.3 C-4.78 64.302 -4.96 62.305 -5.14 60.308 C-6.352 46.864 -7.631 33.429 -9 20 C-9 7 -9 7 -5 1 C-3 0 -3 0 0 0 Z " fill="#E45E5A" transform="translate(402,887)"/>
<path d="M0 0 C3 14 3 14 3 25 C-8.664 28.888 -27.524 27 -39 27 C-39 8 -39 8 -38 3 C-25.263 1.408 -12.838 0 0 0 Z " fill="#FCFCFB" transform="translate(502,987)"/>
<path d="M0 0 C2.97 0 5.94 0 9 0 C9.33 3.63 9.66 7.26 10 11 C10.66 11 11.32 11 12 11 C12.66 17.6 13.32 24.2 14 31 C17 55 17 55 19 66 C19 68.64 19 71.28 19 74 C18.175 74.165 18.175 74.165 14 75 C9.246 67.869 9.533 58.432 8 50 C7.34 47.03 6.68 44.06 6 41 C4.68 48.59 3.36 56.18 2 64 C1.835 64.165 1.835 64.165 1 65 C-0.65 65 -2.3 65 -4 65 C-7.084 49.582 -1.859 33.613 0 18 C0 12.06 0 6.12 0 0 Z " fill="#F69E96" transform="translate(451,991)"/>
<path d="M0 0 C2.97 0 5.94 0 9 0 C9 6.6 9 13.2 9 20 C10.32 29.9 11.64 39.8 13 50 C13.165 52.31 13.165 52.31 14 64 C13.67 64.33 13.67 64.33 12 66 C10.68 65.67 9.36 65.34 8 65 C6.085 56.385 4.534 47.691 3 39 C1.35 47.58 -0.3 56.16 -2 65 C-2.66 67.97 -3.32 70.94 -4 74 C-4.825 74.165 -4.825 74.165 -9 75 C-9.33 74.67 -9.66 74.34 -10 74 C-10 65 -10 65 -7 48 C-6.67 44.37 -6.34 40.74 -6 37 C-5.67 36.34 -5.34 35.68 -5 35 C-4.34 28.4 -3.68 21.8 -3 15 C-2.01 10.05 -1.02 5.1 0 0 Z " fill="#F69E97" transform="translate(306,991)"/>
<path d="M0 0 C3.3 0 6.6 0 10 0 C10.33 3.63 10.66 7.26 11 11 C11.33 11.495 11.33 11.495 13 14 C13.165 16.64 13.165 16.64 14 30 C14.99 35.94 15.98 41.88 17 48 C19 63 19 63 19 75 C17.35 75 15.7 75 14 75 C8 51 8 51 8 39 C7.34 39 6.68 39 6 39 C5.34 45.6 4.68 52.2 4 59 C3.34 60.98 2.68 62.96 2 65 C0.35 65 -1.3 65 -3 65 C-6.86 49.56 -1.582 33.495 1 18 C1 6 1 6 0 0 Z " fill="#F69E97" transform="translate(82,991)"/>
<path d="M0 0 C2.97 0 5.94 0 9 0 C8.67 2.31 8.34 4.62 8 7 C8 20 8 20 9 24 C9.66 30.93 10.32 37.86 11 45 C11.66 49.62 12.32 54.24 13 59 C13 60.65 13 62.3 13 64 C12.67 64.33 12.67 64.33 11 66 C9.68 65.67 8.36 65.34 7 65 C5.227 57.023 3.603 49.013 2 41 C0.02 51.23 -1.96 61.46 -4 72 C-4.66 72.99 -5.32 73.98 -6 75 C-7.65 74.67 -9.3 74.34 -11 74 C-9.507 61.312 -7.807 48.647 -6 36 C-5.34 28.74 -4.68 21.48 -4 14 C-3.67 14 -3.34 14 -3 14 C-2.01 9.38 -1.02 4.76 0 0 Z " fill="#F69E98" transform="translate(675,991)"/>
<path d="M0 0 C0.33 2.31 0.66 4.62 1 7 C3.97 7 6.94 7 10 7 C10.33 4.69 10.66 2.38 11 0 C21.822 0 31.467 0.28 41 6 C41 7.32 41 8.64 41 10 C18.884 18.846 -5.472 18.509 -28 11 C-28.66 10.34 -29.32 9.68 -30 9 C-29 5 -29 5 -26 3 C-10 0 -10 0 0 0 Z " fill="#FCF8F6" transform="translate(562,1046)"/>
<path d="M0 0 C0.33 1.98 0.66 3.96 1 6 C3.97 6.33 6.94 6.66 10 7 C10.66 5.02 11.32 3.04 12 1 C34.5 1 34.5 1 42 6 C41.67 7.32 41.34 8.64 41 10 C21.308 19.846 -2.137 17.471 -23 13 C-24.65 12.01 -26.3 11.02 -28 10 C-28.33 8.68 -28.66 7.36 -29 6 C-20.369 -0.473 -10.293 0 0 0 Z " fill="#FCF7F6" transform="translate(193,1046)"/>
<path d="M0 0 C0.825 0.165 0.825 0.165 5 1 C3.666 5.001 0.948 7.052 -2 10 C-2.66 13.63 -3.32 17.26 -4 21 C-10 30 -10 30 -16 32 C-27 32 -27 32 -33 28 C-38 20 -38 20 -39 10 C-39.66 8.68 -40.32 7.36 -41 6 C-42.32 5.67 -43.64 5.34 -45 5 C-45 4.34 -45 3.68 -45 3 C-44.01 3 -43.02 3 -42 3 C-42 2.34 -42 1.68 -42 1 C-41.34 1 -40.68 1 -40 1 C-39.34 2.98 -38.68 4.96 -38 7 C-37.34 7 -36.68 7 -36 7 C-35.67 6.34 -35.34 5.68 -35 5 C-34.01 5 -33.02 5 -32 5 C-32 5.66 -32 6.32 -32 7 C-26 8 -26 8 -13 8 C-11.68 7.01 -10.36 6.02 -9 5 C-7.68 5.33 -6.36 5.66 -5 6 C-4.835 6.33 -4.835 6.33 -4 8 C-1 4 -1 4 0 0 Z " fill="#FBF7F6" transform="translate(665,587)"/>
<path d="M0 0 C2 2 2 2 2 8 C-1 11 -1 11 -10 14 C-11.65 14 -13.3 14 -15 14 C-14.01 12.02 -13.02 10.04 -12 8 C-10.845 7.835 -10.845 7.835 -5 7 C-5 6.34 -5 5.68 -5 5 C-28.443 1.484 -49.831 0.208 -73 6 C-71.02 6.66 -69.04 7.32 -67 8 C-66.34 9.98 -65.68 11.96 -65 14 C-76 12 -76 12 -81 8 C-81 6.02 -81 4.04 -81 2 C-57.713 -12.555 -24.987 -9.37 0 0 Z " fill="#EC7A74" transform="translate(245,489)"/>
<path d="M0 0 C0 2.31 0 4.62 0 7 C-8 11 -8 11 -16 12 C-14 7 -14 7 -7 4 C-29.375 -3.458 -53.166 -1.567 -76 3 C-73 5 -73 5 -68 7 C-67.34 8.65 -66.68 10.3 -66 12 C-78.222 10.778 -78.222 10.778 -83 6 C-83 4.02 -83 2.04 -83 0 C-62.591 -16.327 -20.772 -12.983 0 0 Z " fill="#EE7A73" transform="translate(609,491)"/>
<path d="M0 0 C0 2.64 0 5.28 0 8 C-8 12 -8 12 -15 12 C-13 8 -13 8 -7 5 C-29.267 -1.68 -52.267 0.211 -75 4 C-75 4.66 -75 5.32 -75 6 C-72.69 6.33 -70.38 6.66 -68 7 C-65 11 -65 11 -65 13 C-77 11 -77 11 -81 7 C-81 5.02 -81 3.04 -81 1 C-60.915 -15.068 -21.338 -10.669 0 0 Z " fill="#ED7B75" transform="translate(387,498)"/>
<path d="M0 0 C1.65 0 3.3 0 5 0 C12.735 9.283 12 12.213 12 25 C7 37 7 37 3 41 C2.67 48.59 2.34 56.18 2 64 C1.67 64 1.34 64 1 64 C0.67 56.41 0.34 48.82 0 41 C-1.98 38.36 -3.96 35.72 -6 33 C-9.848 23.379 -8.157 15.47 -5 6 C-3.35 4.02 -1.7 2.04 0 0 Z " fill="#77B96E" transform="translate(433,733)"/>
<path d="M0 0 C0.33 0 0.66 0 1 0 C1.125 0.982 1.251 1.965 1.38 2.977 C4.529 27.659 7.736 52.333 11 77 C11 78.65 11 80.3 11 82 C10.67 82.33 10.34 82.66 10 83 C8.35 83 6.7 83 5 83 C1.831 66.365 -1.123 49.688 -4 33 C-4.66 30.03 -5.32 27.06 -6 24 C-6.66 18.06 -7.32 12.12 -8 6 C-8.66 5.67 -9.32 5.34 -10 5 C-7.36 4.01 -4.72 3.02 -2 2 C-1.34 1.34 -0.68 0.68 0 0 Z " fill="#F69D97" transform="translate(362,978)"/>
<path d="M0 0 C0.99 7.59 1.98 15.18 3 23 C3.99 29.27 4.98 35.54 6 42 C10 73.429 10 73.429 10 82 C9.34 82.165 9.34 82.165 6 83 C0.169 77.169 1.475 67.113 0 59 C-0.99 55.04 -1.98 51.08 -3 47 C-8 13 -8 13 -9 5 C-9.99 4.67 -10.98 4.34 -12 4 C-9.03 3.01 -6.06 2.02 -3 1 C-1 0 -1 0 0 0 Z " fill="#F69E96" transform="translate(731,979)"/>
<path d="M0 0 C3.63 1.32 7.26 2.64 11 4 C10.67 4.165 10.67 4.165 9 5 C8.896 5.693 8.791 6.387 8.683 7.101 C7.057 17.789 5.308 28.456 3.562 39.125 C1.335 52.744 -0.863 66.367 -3 80 C-3.165 80.33 -3.165 80.33 -4 82 C-5.65 82 -7.3 82 -9 82 C-9.33 81.67 -9.66 81.34 -10 81 C-8.299 58.884 -5.647 36.881 -2 15 C-1.34 10.05 -0.68 5.1 0 0 Z " fill="#F59D96" transform="translate(35,979)"/>
<path d="M0 0 C1.155 0.66 1.155 0.66 7 4 C8.32 4.66 9.64 5.32 11 6 C10.34 6 9.68 6 9 6 C8.67 9.3 8.34 12.6 8 16 C4 42 4 42 2.75 48.562 C0.712 59.353 -1.138 70.178 -3 81 C-3.165 81.33 -3.165 81.33 -4 83 C-5.65 83 -7.3 83 -9 83 C-9 66.582 -6.142 50.278 -4 34 C-3.01 24.43 -2.02 14.86 -1 5 C-0.67 3.35 -0.34 1.7 0 0 Z " fill="#F59B94" transform="translate(403,978)"/>
<path d="M0 0 C4.62 0 9.24 0 14 0 C12.68 0.33 11.36 0.66 10 1 C8.35 9.58 6.7 18.16 5 27 C3.898 32.247 2.795 37.494 1.692 42.741 C1.317 44.523 0.943 46.304 0.569 48.086 C0.028 50.66 -0.513 53.234 -1.055 55.809 C-1.219 56.593 -1.384 57.378 -1.554 58.187 C-4.851 73.851 -4.851 73.851 -6 75 C-7.65 75 -9.3 75 -11 75 C-10.258 63.866 -8.946 53.481 -7.174 42.562 C-6.855 40.593 -6.536 38.624 -6.217 36.654 C-4.238 24.419 -2.196 12.199 0 0 Z " fill="#F59993" transform="translate(623,986)"/>
<path d="M0 0 C11 60.5 11 60.5 11 75 C10.175 75.165 10.175 75.165 6 76 C4 73 4 73 3.345 69.449 C-4.684 25.963 -4.684 25.963 -9 5 C-9 3.68 -9 2.36 -9 1 C-3 0 -3 0 0 0 Z " fill="#F59A94" transform="translate(143,986)"/>
<path d="M0 0 C3.96 0 7.92 0 12 0 C23 55 23 55 23 75 C21.35 75 19.7 75 18 75 C13.575 61.726 11.579 47.752 9 34 C7.02 24.76 5.04 15.52 3 6 C3 4.35 3 2.7 3 1 C2.01 0.67 1.02 0.34 0 0 Z " fill="#F59690" transform="translate(499,986)"/>
<path d="M0 0 C4.62 0 9.24 0 14 0 C14 0.33 14 0.66 14 1 C12.35 1 10.7 1 9 1 C8.67 4.3 8.34 7.6 8 11 C7.748 12.198 7.497 13.396 7.237 14.63 C6.282 19.177 5.328 23.725 4.375 28.273 C3.966 30.222 3.557 32.171 3.147 34.12 C0.357 47.399 -2.364 60.689 -5 74 C-5.165 74.165 -5.165 74.165 -6 75 C-7.65 75 -9.3 75 -11 75 C-10 57 -10 57 -7 44 C-6.67 40.37 -6.34 36.74 -6 33 C-4.68 26.07 -3.36 19.14 -2 12 C-1.67 8.7 -1.34 5.4 -1 2 C-0.67 1.34 -0.34 0.68 0 0 Z " fill="#F49992" transform="translate(255,986)"/>
<path d="M0 0 C16 0 16 0 21 3 C23 6 23 6 23 15 C21 19 21 19 13 23 C5 24 5 24 -1 21 C-5 16 -5 16 -5 7 C-1 1 -1 1 0 0 Z " fill="#F9F2F2" transform="translate(636,569)"/>
<path d="M0 0 C0.99 0 1.98 0 3 0 C3 50.49 3 100.98 3 153 C4.65 153.66 6.3 154.32 8 155 C8.66 155.825 8.66 155.825 12 160 C5.4 160 -1.2 160 -8 160 C-6 156 -6 156 -2 153 C-1.34 153 -0.68 153 0 153 C0 102.51 0 52.02 0 0 Z " fill="#E4AFB3" transform="translate(345,296)"/>
<path d="M0 0 C0.99 0 1.98 0 3 0 C3.33 50.82 3.66 101.64 4 154 C5.98 155.32 7.96 156.64 10 158 C10.33 158.99 10.66 159.98 11 161 C4.73 161 -1.54 161 -8 161 C-6 157 -6 157 -2 154 C-1.34 154 -0.68 154 0 154 C0 103.18 0 52.36 0 0 Z " fill="#EBACAC" transform="translate(566,286)"/>
<path d="M0 0 C15.045 8.206 20.999 14.498 27 31 C27.33 34.63 27.66 38.26 28 42 C22.72 41.01 17.44 40.02 12 39 C12.495 38.835 12.495 38.835 15 38 C11.974 21.859 9.564 13.564 -2 2 C-1.34 1.34 -0.68 0.68 0 0 Z " fill="#F7E0DD" transform="translate(577,446)"/>
<path d="M0 0 C0.66 0 1.32 0 2 0 C2 50.82 2 101.64 2 154 C3.65 154.33 5.3 154.66 7 155 C7.99 155.99 8.98 156.98 10 158 C10 158.66 10 159.32 10 160 C3.73 160 -2.54 160 -9 160 C-7 156 -7 156 -3 153 C-2.01 153 -1.02 153 0 153 C0 102.51 0 52.02 0 0 Z " fill="#E18A8A" transform="translate(205,287)"/>
<path d="M0 0 C10.493 1.749 15.099 8.237 22 16 C27 28 27 28 28 40 C23.05 39.01 18.1 38.02 13 37 C13.495 36.835 13.495 36.835 16 36 C9.231 8.923 9.231 8.923 0 2 C0 1.34 0 0.68 0 0 Z " fill="#F4DFDC" transform="translate(355,456)"/>
<path d="M0 0 C24 0 24 0 35 1 C59.854 2.216 84.708 3.423 109.562 4.625 C110.269 4.659 110.975 4.693 111.703 4.729 C120.469 5.152 129.234 5.576 138 6 C138 6.99 138 7.98 138 9 C102.274 9 66.605 6.967 31 4 C22.09 3.67 13.18 3.34 4 3 C2.68 2.67 1.36 2.34 0 2 C0 1.34 0 0.68 0 0 Z " fill="#F3DBD6" transform="translate(207,399)"/>
<path d="M0 0 C0.33 0.66 0.66 1.32 1 2 C2.98 2.66 4.96 3.32 7 4 C16.925 11.443 21.39 17.475 26 29 C26.33 33.29 26.66 37.58 27 42 C22.05 41.01 17.1 40.02 12 39 C12.495 38.835 12.495 38.835 15 38 C12.494 24.634 10.513 15.641 2 5 C1.34 4.67 0.68 4.34 0 4 C0 3.34 0 2.68 0 2 C-0.66 1.67 -1.32 1.34 -2 1 C-1.34 0.67 -0.68 0.34 0 0 Z " fill="#F4DFDC" transform="translate(215,446)"/>
<path d="M0 0 C7 1 7 1 15 7 C19 15 19 15 20 25 C20.66 26.98 21.32 28.96 22 31 C21.34 31 20.68 31 20 31 C19.01 29.02 18.02 27.04 17 25 C14.36 24.34 11.72 23.68 9 23 C1 17 1 17 -2 10 C-2 2 -2 2 0 0 Z " fill="#76B872" transform="translate(410,766)"/>
<path d="M0 0 C0.66 0.66 1.32 1.32 2 2 C1 10 1 10 -4 18 C-11 22 -11 22 -19 22 C-19.33 22.825 -19.33 22.825 -21 27 C-21.66 26.67 -22.32 26.34 -23 26 C-22.67 25.505 -22.67 25.505 -21 23 C-20.67 19.37 -20.34 15.74 -20 12 C-13.82 2.73 -10.813 0 0 0 Z " fill="#7ABA73" transform="translate(460,770)"/>
<path d="M0 0 C13.2 0 26.4 0 40 0 C39.67 2.97 39.34 5.94 39 9 C38.34 16.26 37.68 23.52 37 31 C35 38 35 38 33 40 C29.7 40 26.4 40 23 40 C24.32 37.69 25.64 35.38 27 33 C29.132 22.339 30.918 11.821 32 1 C21.44 1 10.88 1 0 1 C0 0.67 0 0.34 0 0 Z " fill="#F2DDDD" transform="translate(414,797)"/>
<path d="M0 0 C29.697 0 59.363 2.118 89 4 C96.59 4.33 104.18 4.66 112 5 C113.65 5.165 113.65 5.165 122 6 C122 6.66 122 7.32 122 8 C81.238 8 40.627 5.125 0 2 C0 1.34 0 0.68 0 0 Z " fill="#F8D9D2" transform="translate(82,392)"/>
<path d="M0 0 C4.859 4.859 3.87 13.222 5 20 C2.636 48.364 2.636 48.364 0 51 C-1.65 51 -3.3 51 -5 51 C-8.389 34.057 -4.165 16.658 0 0 Z " fill="#DC7573" transform="translate(452,1005)"/>
<path d="M0 0 C0.66 0 1.32 0 2 0 C4.452 15.937 6.54 31.942 8 48 C7.34 48.66 6.68 49.32 6 50 C4.68 49.67 3.36 49.34 2 49 C-2.054 30.755 -3.64 18.202 0 0 Z " fill="#E3827E" transform="translate(312,1007)"/>
<path d="M0 0 C4.834 9.669 3.837 16.785 5 29 C5.66 33.62 6.32 38.24 7 43 C7 44.65 7 46.3 7 48 C6.34 48.66 5.68 49.32 5 50 C3.68 49.67 2.36 49.34 1 49 C-3.336 29.489 -4.365 19.642 0 0 Z " fill="#E17E7A" transform="translate(681,1007)"/>
<path d="M0 0 C0.33 0 0.66 0 1 0 C4.084 15.42 7.433 35.135 0 50 C-1.65 50 -3.3 50 -5 50 C-9.099 33.603 -3.608 16.238 0 0 Z " fill="#DF7976" transform="translate(84,1006)"/>
<path d="M0 0 C1.815 0.495 1.815 0.495 11 3 C31.726 6.189 50.819 5.766 71 0 C70.67 1.32 70.34 2.64 70 4 C52.76 14.344 28.826 10.51 10 8 C8.515 7.34 8.515 7.34 1 4 C0.67 2.68 0.34 1.36 0 0 Z " fill="#EDC3BF" transform="translate(532,1056)"/>
<path d="M0 0 C4.708 1.177 9.351 2.605 14 4 C33.949 6.85 52.805 5.484 72 0 C71.67 1.32 71.34 2.64 71 4 C50.403 13.154 28.82 11.364 7 7 C1 3 1 3 0 0 Z " fill="#EDC4BF" transform="translate(163,1056)"/>
<path d="M0 0 C0.33 0 0.66 0 1 0 C1 50.16 1 100.32 1 152 C2.65 152.33 4.3 152.66 6 153 C7.65 154.98 9.3 156.96 11 159 C4.4 159 -2.2 159 -9 159 C-7 155 -7 155 -3 152 C-2.01 152 -1.02 152 0 152 C0 101.84 0 51.68 0 0 Z " fill="#E16F70" transform="translate(346,297)"/>
<path d="M0 0 C14 0 14 0 16 1 C16 4.3 16 7.6 16 11 C16.825 11.165 16.825 11.165 21 12 C21 13.32 21 14.64 21 16 C18.36 15.34 15.72 14.68 13 14 C6.73 14 0.46 14 -6 14 C-5.67 13.01 -5.34 12.02 -5 11 C-3.68 10.67 -2.36 10.34 -1 10 C-0.67 6.7 -0.34 3.4 0 0 Z " fill="#FDFCFC" transform="translate(638,554)"/>
<path d="M0 0 C0.33 0 0.66 0 1 0 C1 50.49 1 100.98 1 153 C2.98 153.66 4.96 154.32 7 155 C7.99 155.99 8.98 156.98 10 158 C10 158.66 10 159.32 10 160 C3.73 160 -2.54 160 -9 160 C-7 156 -7 156 -3 153 C-2.01 153 -1.02 153 0 153 C0 102.51 0 52.02 0 0 Z " fill="#DE6C6E" transform="translate(567,287)"/>
<path d="M0 0 C17.49 0 34.98 0 53 0 C53 0.99 53 1.98 53 3 C35.022 3.946 17.003 4 -1 4 C-0.67 2.68 -0.34 1.36 0 0 Z " fill="#F7DCD9" transform="translate(592,674)"/>
<path d="M0 0 C25.368 0 50.68 2.442 76 4 C61.987 11.006 0.757 3.043 0 3 C0 2.01 0 1.02 0 0 Z " fill="#F4DDD9" transform="translate(348,406)"/>
<path d="M0 0 C11 1 11 1 13 3 C11.845 3.495 11.845 3.495 6 6 C5.34 7.65 4.68 9.3 4 11 C2.35 12.32 0.7 13.64 -1 15 C-2.98 16.65 -4.96 18.3 -7 20 C-10.3 21.32 -13.6 22.64 -17 24 C-17.33 23.34 -17.66 22.68 -18 22 C-15.36 20.35 -12.72 18.7 -10 17 C-4 9 -4 9 0 0 Z " fill="#F5DBD9" transform="translate(590,492)"/>
<path d="M0 0 C7 1 7 1 15 3 C14 5 14 5 8 8 C5.36 11.3 2.72 14.6 0 18 C-11 24 -11 24 -15 23 C-12.36 21.02 -9.72 19.04 -7 17 C-2 11 -2 11 1 2 C0.67 1.34 0.34 0.68 0 0 Z " fill="#F0E0DD" transform="translate(366,499)"/>
<path d="M0 0 C0 0.33 0 0.66 0 1 C23.76 1.165 23.76 1.165 144 2 C144 2.33 144 2.66 144 3 C92.52 3 41.04 3 -12 3 C-12 2.67 -12 2.34 -12 2 C-5 0 -5 0 0 0 Z " fill="#EEF9FC" transform="translate(332,582)"/>
<path d="M0 0 C17.82 0 35.64 0 54 0 C54 0.99 54 1.98 54 3 C36.18 3 18.36 3 0 3 C0 2.01 0 1.02 0 0 Z " fill="#F9ECEA" transform="translate(591,698)"/>
<path d="M0 0 C0.825 0.165 0.825 0.165 5 1 C5.33 0.67 5.66 0.34 6 0 C7.65 0 9.3 0 11 0 C11.33 0.66 11.66 1.32 12 2 C12.66 2 13.32 2 14 2 C14 1.34 14 0.68 14 0 C14.99 0 15.98 0 17 0 C19 5 19 5 18 9 C16.68 8.34 15.36 7.68 14 7 C14 7.99 14 8.98 14 10 C10.7 10 7.4 10 4 10 C3.67 9.34 3.34 8.68 3 8 C2.01 8.33 1.02 8.66 0 9 C0 6.03 0 3.06 0 0 Z " fill="#F1958F" transform="translate(619,652)"/>
<path d="M0 0 C10 1 10 1 12 2 C12 2.66 12 3.32 12 4 C9.69 4.33 7.38 4.66 5 5 C4.34 6.65 3.68 8.3 3 10 C-4 18 -4 18 -12 22 C-13.32 21.67 -14.64 21.34 -16 21 C-13.36 19.02 -10.72 17.04 -8 15 C-2 6 -2 6 0 0 Z " fill="#EFDEDA" transform="translate(228,492)"/>
<path d="M0 0 C0 0.99 0 1.98 0 3 C-19.012 3 -38.013 1.974 -57 1 C-57 0.67 -57 0.34 -57 0 C-37.864 -1.126 -19.138 -1.063 0 0 Z " fill="#F5DEDA" transform="translate(345,405)"/>
<path d="M0 0 C13.86 0 27.72 0 42 0 C42 0.99 42 1.98 42 3 C28.14 3 14.28 3 0 3 C0 2.01 0 1.02 0 0 Z " fill="#F9E7E4" transform="translate(592,710)"/>
<path d="M0 0 C0.99 0 1.98 0 3 0 C3.33 2.31 3.66 4.62 4 7 C4.33 6.01 4.66 5.02 5 4 C5.99 4.33 6.98 4.66 8 5 C8 5.66 8 6.32 8 7 C8.66 7 9.32 7 10 7 C10.33 6.01 10.66 5.02 11 4 C11.66 4 12.32 4 13 4 C12.67 5.98 12.34 7.96 12 10 C12.33 11.65 12.66 13.3 13 15 C11.68 14.34 10.36 13.68 9 13 C8.01 13.99 7.02 14.98 6 16 C5.01 15.835 5.01 15.835 0 15 C0 10 0 5 0 0 Z " fill="#F2AAA6" transform="translate(635,622)"/>
<path d="M0 0 C37.667 0 37.667 0 43 4 C28.651 4 14.307 3.101 0 2 C0 1.34 0 0.68 0 0 Z " fill="#F1DAD8" transform="translate(82,392)"/>
<path d="M0 0 C9.9 0 19.8 0 30 0 C30 0.99 30 1.98 30 3 C20.1 3 10.2 3 0 3 C0 2.01 0 1.02 0 0 Z " fill="#F9EEEC" transform="translate(591,686)"/>
<path d="M0 0 C2.97 0 5.94 0 9 0 C9.99 0.99 10.98 1.98 12 3 C12 5.64 12 8.28 12 11 C11.01 11 10.02 11 9 11 C9 8.36 9 5.72 9 3 C8.01 3 7.02 3 6 3 C6 5.64 6 8.28 6 11 C5.34 11 4.68 11 4 11 C4 8.36 4 5.72 4 3 C3.01 3.33 2.02 3.66 1 4 C0.67 6.64 0.34 9.28 0 12 C-0.66 12 -1.32 12 -2 12 C-2 2 -2 2 0 0 Z " fill="#FBEEED" transform="translate(621,626)"/>
<path d="M0 0 C0.33 1.32 0.66 2.64 1 4 C-5 8 -5 8 -21 8 C-21.99 7.34 -22.98 6.68 -24 6 C-24 5.34 -24 4.68 -24 4 C-24.66 3.67 -25.32 3.34 -26 3 C-19 3 -19 3 -11 4 C-2 0 -2 0 0 0 Z " fill="#EB7D76" transform="translate(657,588)"/>
<path d="M0 0 C3.3 0 6.6 0 10 0 C9.01 0.33 8.02 0.66 7 1 C7 1.66 7 2.32 7 3 C7.66 3 8.32 3 9 3 C9 3.66 9 4.32 9 5 C8.34 5 7.68 5 7 5 C7 5.66 7 6.32 7 7 C7.99 7 8.98 7 10 7 C10 7.66 10 8.32 10 9 C6.7 9 3.4 9 0 9 C-0.66 8.34 -1.32 7.68 -2 7 C-2 2 -2 2 0 0 Z " fill="#EE807E" transform="translate(598,653)"/>
<path d="M0 0 C10 0 10 0 15 4 C15 4.66 15 5.32 15 6 C8.73 6 2.46 6 -4 6 C-2 2 -2 2 0 0 Z " fill="#E36867" transform="translate(200,441)"/>
<path d="M0 0 C0 0.66 0 1.32 0 2 C-13.337 2 -26.688 1.832 -40 1 C-40 0.67 -40 0.34 -40 0 C-26.516 -1.037 -13.472 -1.347 0 0 Z " fill="#EFD9D7" transform="translate(204,398)"/>
<path d="M0 0 C0.99 0.165 0.99 0.165 6 1 C6.33 2.65 6.66 4.3 7 6 C6.67 6.33 6.34 6.66 6 7 C4.02 7 2.04 7 0 7 C0.33 7.66 0.66 8.32 1 9 C2.65 9.33 4.3 9.66 6 10 C5.67 10.66 5.34 11.32 5 12 C3.35 12 1.7 12 0 12 C-0.99 11.01 -1.98 10.02 -3 9 C-3 7.02 -3 5.04 -3 3 C-2.01 2.01 -1.02 1.02 0 0 Z " fill="#FBF4F3" transform="translate(664,624)"/>
<path d="M0 0 C0.99 1.98 1.98 3.96 3 6 C-7 5 -7 5 -13 1 C-13 0.01 -13 -0.98 -13 -2 C-10 -3 -10 -3 0 0 Z " fill="#E0635D" transform="translate(540,497)"/>
<path d="M0 0 C10 0 10 0 15 4 C15 4.66 15 5.32 15 6 C8.73 6 2.46 6 -4 6 C-2 2 -2 2 0 0 Z " fill="#E66866" transform="translate(562,441)"/>
<path d="M0 0 C9 0 9 0 14 2 C14 2.33 14 2.66 14 3 C12.02 3.33 10.04 3.66 8 4 C8.99 4.33 9.98 4.66 11 5 C11 6.32 11 7.64 11 9 C4 8 4 8 0 3 C0 2.01 0 1.02 0 0 Z " fill="#FBF9F8" transform="translate(632,583)"/>
<path d="M0 0 C-11.131 5.565 -29.972 1.633 -42 1 C-42 0.67 -42 0.34 -42 0 C-27.694 -0.954 -14.296 -1.021 0 0 Z " fill="#EDDBDB" transform="translate(424,410)"/>
<path d="M0 0 C-0.33 1.32 -0.66 2.64 -1 4 C-12 8 -12 8 -16 8 C-15.34 6.35 -14.68 4.7 -14 3 C-5 0 -5 0 0 0 Z " fill="#E3615D" transform="translate(609,495)"/>
<path d="M0 0 C0 0.33 0 0.66 0 1 C-13.863 2.848 -27.021 4 -41 4 C-41 3.67 -41 3.34 -41 3 C-17 0 -17 0 0 0 Z " fill="#F6DCDA" transform="translate(706,536)"/>
<path d="M0 0 C0 0.99 0 1.98 0 3 C-11 7 -11 7 -16 7 C-11.45 -2.101 -11.019 0 0 0 Z " fill="#DB696A" transform="translate(246,496)"/>
<path d="M0 0 C0.33 0 0.66 0 1 0 C1 1.98 1 3.96 1 6 C-7 10 -7 10 -14 10 C-12 6 -12 6 -9 4 C-7.515 3.835 -7.515 3.835 0 3 C0 2.01 0 1.02 0 0 Z " fill="#E26562" transform="translate(386,500)"/>
<path d="M0 0 C3.63 0 7.26 0 11 0 C11 1.65 11 3.3 11 5 C10.34 5 9.68 5 9 5 C9 5.66 9 6.32 9 7 C9.66 7 10.32 7 11 7 C11 7.66 11 8.32 11 9 C9.35 9 7.7 9 6 9 C6 6.69 6 4.38 6 2 C5.34 2 4.68 2 4 2 C4 4.31 4 6.62 4 9 C3.34 9 2.68 9 2 9 C2 6.69 2 4.38 2 2 C1.34 2 0.68 2 0 2 C0 1.34 0 0.68 0 0 Z " fill="#F6D1CC" transform="translate(663,651)"/>
<path d="M0 0 C4.29 0.33 8.58 0.66 13 1 C13.66 2.98 14.32 4.96 15 7 C4 5 4 5 0 2 C0 1.34 0 0.68 0 0 Z " fill="#DE6462" transform="translate(165,496)"/>
<path d="M0 0 C3 4 3 4 3 6 C-3 5 -3 5 -11 2 C-11 1.34 -11 0.68 -11 0 C-9 -1 -9 -1 0 0 Z " fill="#DF6A65" transform="translate(319,505)"/>
<path d="M0 0 C0.33 0 0.66 0 1 0 C1.33 3.96 1.66 7.92 2 12 C2.99 12 3.98 12 5 12 C5 19 5 19 2 23 C1.34 23 0.68 23 0 23 C0 15.41 0 7.82 0 0 Z " fill="#9DD5DC" transform="translate(435,774)"/>
<path d="M0 0 C0.66 0 1.32 0 2 0 C2.33 2.64 2.66 5.28 3 8 C3.66 8 4.32 8 5 8 C5.33 5.36 5.66 2.72 6 0 C6.66 0 7.32 0 8 0 C8 3.3 8 6.6 8 10 C7.34 10.66 6.68 11.32 6 12 C1 11 1 11 0 10 C0 6.7 0 3.4 0 0 Z " fill="#FAEFEC" transform="translate(651,625)"/>
<path d="M0 0 C0.99 0.33 1.98 0.66 3 1 C3 1.66 3 2.32 3 3 C3.66 3 4.32 3 5 3 C5.33 2.01 5.66 1.02 6 0 C6.66 0 7.32 0 8 0 C7.67 1.98 7.34 3.96 7 6 C7.33 7.65 7.66 9.3 8 11 C6.68 10.34 5.36 9.68 4 9 C3.34 9.33 3.34 9.33 0 11 C0.66 9.02 1.32 7.04 2 5 C1.34 4.34 0.68 3.68 0 3 C0 2.01 0 1.02 0 0 Z " fill="#FAF0EE" transform="translate(640,626)"/>
<path d="M0 0 C7.92 0 15.84 0 24 0 C20 3 20 3 4 3 C2.68 2.67 1.36 2.34 0 2 C0 1.34 0 0.68 0 0 Z " fill="#EDDFDE" transform="translate(207,399)"/>
<path d="M0 0 C0.66 0 1.32 0 2 0 C1.34 1.98 0.68 3.96 0 6 C0.33 6.66 0.66 7.32 1 8 C-1.64 8.33 -4.28 8.66 -7 9 C-6.34 7.35 -5.68 5.7 -5 4 C-6.32 3.67 -7.64 3.34 -9 3 C-9 2.67 -9 2.34 -9 2 C-6.36 1.67 -3.72 1.34 -1 1 C-0.67 0.67 -0.34 0.34 0 0 Z " fill="#F7EBE9" transform="translate(648,584)"/>
<path d="M0 0 C5.28 0 10.56 0 16 0 C16 0.99 16 1.98 16 3 C10.72 3 5.44 3 0 3 C0 2.01 0 1.02 0 0 Z " fill="#F8E6E4" transform="translate(683,674)"/>
<path d="M0 0 C21 1 21 1 25 4 C8 4 8 4 5 2 C3.35 1.67 1.7 1.34 0 1 C0 0.67 0 0.34 0 0 Z " fill="#EDDEDE" transform="translate(100,392)"/>
<path d="M0 0 C-1 15 -1 15 -3 17 C-4 12 -4 12 -4 1 C-1 0 -1 0 0 0 Z " fill="#E17875" transform="translate(96,990)"/>
<path d="M0 0 C0 0.33 0 0.66 0 1 C0.99 1.165 0.99 1.165 6 2 C6 2.33 6 2.66 6 3 C-4.672 3 -15.352 2.71 -26 2 C-26 1.67 -26 1.34 -26 1 C-17.349 0.382 -8.673 0 0 0 Z " fill="#E4DADF" transform="translate(464,412)"/>
<path d="M0 0 C4.95 0 9.9 0 15 0 C15 0.99 15 1.98 15 3 C10.05 3 5.1 3 0 3 C0 2.01 0 1.02 0 0 Z " fill="#F9EAE7" transform="translate(683,698)"/>
<path d="M0 0 C4.95 0 9.9 0 15 0 C15 0.99 15 1.98 15 3 C10.05 3 5.1 3 0 3 C0 2.01 0 1.02 0 0 Z " fill="#FAF2EF" transform="translate(683,686)"/>
<path d="M0 0 C4.62 0 9.24 0 14 0 C14.33 0.99 14.66 1.98 15 3 C10.05 3 5.1 3 0 3 C0 2.01 0 1.02 0 0 Z " fill="#F7E2E0" transform="translate(684,710)"/>
<path d="M0 0 C-4 3 -4 3 -30 2 C-30 1.67 -30 1.34 -30 1 C-20.017 0.334 -10.006 0 0 0 Z " fill="#ECDDDC" transform="translate(159,395)"/>
<path d="M0 0 C4.62 0 9.24 0 14 0 C14 0.99 14 1.98 14 3 C9.38 3 4.76 3 0 3 C0 2.01 0 1.02 0 0 Z " fill="#F7EAE8" transform="translate(631,686)"/>
<path d="M0 0 C0.825 0.165 0.825 0.165 5 1 C5 3.64 5 6.28 5 9 C3.333 9 1.667 9 0 9 C0 6.03 0 3.06 0 0 Z " fill="#F7D3D2" transform="translate(619,652)"/>
<path d="M0 0 C0.99 0.33 1.98 0.66 3 1 C3 1.66 3 2.32 3 3 C3.66 3 4.32 3 5 3 C5 2.01 5 1.02 5 0 C5.66 0 6.32 0 7 0 C7 2.97 7 5.94 7 9 C6.34 7.68 5.68 6.36 5 5 C4.67 5.165 4.67 5.165 3 6 C2.67 6.99 2.34 7.98 2 9 C1.34 9 0.68 9 0 9 C0 6.03 0 3.06 0 0 Z " fill="#F5DFDD" transform="translate(639,652)"/>
<path d="M0 0 C0 0.33 0 0.66 0 1 C-19 2 -19 2 -24 1 C-24 0.67 -24 0.34 -24 0 C-14 -1 -14 -1 0 0 Z " fill="#F5CAC5" transform="translate(641,543)"/>
<path d="M0 0 C0.99 0.33 1.98 0.66 3 1 C3 9 3 9 2 16 C1.34 15.67 0.68 15.34 0 15 C0 10.05 0 5.1 0 0 Z " fill="#DF6A6A" transform="translate(671,990)"/>
<path d="M0 0 C0.99 0.33 1.98 0.66 3 1 C5 6 5 6 5 9 C4.34 9 3.68 9 3 9 C3 8.34 3 7.68 3 7 C1.35 7.66 -0.3 8.32 -2 9 C-1 3 -1 3 0 0 Z " fill="#F5D7D6" transform="translate(677,651)"/>
<path d="M0 0 C0.66 0.165 0.66 0.165 4 1 C4 9 4 9 2 13 C1.34 12.67 0.68 12.34 0 12 C-1 5 -1 5 0 0 Z " fill="#EF908B" transform="translate(647,625)"/>
<path d="M0 0 C2.31 0.165 2.31 0.165 14 1 C14 1.33 14 1.66 14 2 C2.662 2 -8.679 1.629 -20 1 C-20 0.67 -20 0.34 -20 0 C-3 -1 -3 -1 0 0 Z " fill="#E5D9DD" transform="translate(308,405)"/>
<path d="M0 0 C1.32 1.65 2.64 3.3 4 5 C3.34 6.32 2.68 7.64 2 9 C1.67 11.31 1.34 13.62 1 16 C0.67 16 0.34 16 0 16 C-0.33 13.36 -0.66 10.72 -1 8 C-1.66 6.68 -2.32 5.36 -3 4 C-2.01 2.68 -1.02 1.36 0 0 Z " fill="#EB6765" transform="translate(633,621)"/>
<path d="M0 0 C0.99 0.165 0.99 0.165 6 1 C5.67 2.32 5.34 3.64 5 5 C3.515 5.165 3.515 5.165 -4 6 C-2 2 -2 2 0 0 Z " fill="#E87473" transform="translate(200,441)"/>
<path d="M0 0 C0.99 0 1.98 0 3 0 C5 5 5 5 4 9 C2.68 8.34 1.36 7.68 0 7 C-0.33 7.66 -0.66 8.32 -1 9 C-0.67 6.03 -0.34 3.06 0 0 Z " fill="#F7E3E1" transform="translate(633,652)"/>
<path d="M0 0 C7 0 7 0 14 3 C14 3.33 14 3.66 14 4 C5 5 5 5 2 3 C2 2.34 2 1.68 2 1 C1.34 0.67 0.68 0.34 0 0 Z " fill="#E98179" transform="translate(631,591)"/>
<path d="M0 0 C0 1.32 0 2.64 0 4 C-3.63 3.67 -7.26 3.34 -11 3 C-7.426 -0.574 -5.222 0 0 0 Z " fill="#EE7D79" transform="translate(644,579)"/>
<path d="M0 0 C1.65 0 3.3 0 5 0 C4.01 0.33 3.02 0.66 2 1 C2 1.66 2 2.32 2 3 C2.66 3 3.32 3 4 3 C4 3.66 4 4.32 4 5 C3.34 5 2.68 5 2 5 C2 5.66 2 6.32 2 7 C2.99 7 3.98 7 5 7 C5 7.66 5 8.32 5 9 C3.35 9 1.7 9 0 9 C0 6.03 0 3.06 0 0 Z " fill="#F7DDDA" transform="translate(603,653)"/>
<path d="M0 0 C1.32 0.33 2.64 0.66 4 1 C4 2.32 4 3.64 4 5 C2.35 5 0.7 5 -1 5 C-1.66 6.32 -2.32 7.64 -3 9 C-3 7.02 -3 5.04 -3 3 C-2.01 2.01 -1.02 1.02 0 0 Z " fill="#F5C5C4" transform="translate(664,624)"/>
<path d="M0 0 C0.33 0 0.66 0 1 0 C1.33 3.3 1.66 6.6 2 10 C2.66 11.98 3.32 13.96 4 16 C3.34 16 2.68 16 2 16 C1.01 14.02 0.02 12.04 -1 10 C-1.99 9.835 -1.99 9.835 -7 9 C-7 8.67 -7 8.34 -7 8 C-5.02 7.67 -3.04 7.34 -1 7 C-0.67 4.69 -0.34 2.38 0 0 Z " fill="#85C692" transform="translate(428,781)"/>
<path d="M0 0 C1.32 0 2.64 0 4 0 C4 1.65 4 3.3 4 5 C3.34 5 2.68 5 2 5 C2 5.66 2 6.32 2 7 C2.66 7 3.32 7 4 7 C4 7.66 4 8.32 4 9 C2.68 9 1.36 9 0 9 C0 6.03 0 3.06 0 0 Z " fill="#F6DFDD" transform="translate(670,651)"/>
<path d="M0 0 C0.99 0.33 1.98 0.66 3 1 C2.67 3.31 2.34 5.62 2 8 C2.33 8.66 2.66 9.32 3 10 C0.36 10 -2.28 10 -5 10 C-5 9.67 -5 9.34 -5 9 C-3.35 9 -1.7 9 0 9 C0 8.34 0 7.68 0 7 C-0.66 7 -1.32 7 -2 7 C-2 6.34 -2 5.68 -2 5 C-1.34 5 -0.68 5 0 5 C0 4.34 0 3.68 0 3 C-0.66 2.67 -1.32 2.34 -2 2 C-1.34 2 -0.68 2 0 2 C0 1.34 0 0.68 0 0 Z " fill="#EE817C" transform="translate(674,651)"/>
<path d="M0 0 C0 0.99 0 1.98 0 3 C-4 5 -4 5 -7 5 C-7 4.34 -7 3.68 -7 3 C-7.66 2.34 -8.32 1.68 -9 1 C-6 0 -6 0 0 0 Z " fill="#DF6666" transform="translate(246,496)"/>
<path d="M0 0 C1.32 0 2.64 0 4 0 C4 0.66 4 1.32 4 2 C3.01 2 2.02 2 1 2 C1 2.66 1 3.32 1 4 C1.99 4 2.98 4 4 4 C4 5.65 4 7.3 4 9 C2.68 9 1.36 9 0 9 C0 6.03 0 3.06 0 0 Z " fill="#F6E5E2" transform="translate(626,652)"/>
<path d="M0 0 C0.66 0 1.32 0 2 0 C2 3.3 2 6.6 2 10 C0.68 10.33 -0.64 10.66 -2 11 C-2.33 10.34 -2.66 9.68 -3 9 C-2.34 8.67 -1.68 8.34 -1 8 C-0.67 5.36 -0.34 2.72 0 0 Z " fill="#FBF3F0" transform="translate(657,625)"/>
<path d="M0 0 C0.495 0.33 0.495 0.33 3 2 C3 4.64 3 7.28 3 10 C2.01 10 1.02 10 0 10 C0 6.7 0 3.4 0 0 Z " fill="#F7D4D1" transform="translate(630,627)"/>
<path d="M0 0 C1.32 0.33 2.64 0.66 4 1 C3.67 1.66 3.34 2.32 3 3 C2.01 2.67 1.02 2.34 0 2 C1 7 1 7 3 9 C1.35 8.67 -0.3 8.34 -2 8 C-2 2 -2 2 0 0 Z " fill="#F5D7D4" transform="translate(614,652)"/>
<path d="M0 0 C0.99 0 1.98 0 3 0 C3 2.64 3 5.28 3 8 C2.01 8.33 1.02 8.66 0 9 C0 6.03 0 3.06 0 0 Z " fill="#E96563" transform="translate(627,629)"/>
<path d="M0 0 C0.66 0 1.32 0 2 0 C2.66 2.31 3.32 4.62 4 7 C3.01 7 2.02 7 1 7 C1 6.34 1 5.68 1 5 C-0.32 4.67 -1.64 4.34 -3 4 C-3 3.34 -3 2.68 -3 2 C-2.01 2 -1.02 2 0 2 C0 1.34 0 0.68 0 0 Z " fill="#F6E6E4" transform="translate(623,588)"/>
<path d="M0 0 C-0.66 1.65 -1.32 3.3 -2 5 C-3.98 4.34 -5.96 3.68 -8 3 C-8 2.34 -8 1.68 -8 1 C-6 0 -6 0 0 0 Z " fill="#E1645F" transform="translate(316,504)"/>
<path d="M0 0 C0.99 0.33 1.98 0.66 3 1 C2.67 1.165 2.67 1.165 1 2 C1 3.32 1 4.64 1 6 C1.99 6.66 2.98 7.32 4 8 C2.68 8.33 1.36 8.66 0 9 C-0.66 8.34 -1.32 7.68 -2 7 C-2 2 -2 2 0 0 Z " fill="#F8E2DD" transform="translate(598,653)"/>
<path d="M0 0 C0.99 0 1.98 0 3 0 C3.33 1.65 3.66 3.3 4 5 C3.67 5.33 3.34 5.66 3 6 C1.02 6 -0.96 6 -3 6 C-2.67 5.34 -2.34 4.68 -2 4 C-1.01 4 -0.02 4 1 4 C0.67 2.68 0.34 1.36 0 0 Z " fill="#F9EAEA" transform="translate(667,625)"/>
<path d="M0 0 C-0.33 0.495 -0.33 0.495 -2 3 C-5.3 2.67 -8.6 2.34 -12 2 C-12 1.67 -12 1.34 -12 1 C-6 0 -6 0 0 0 Z " fill="#E86E65" transform="translate(652,592)"/>
<path d="M0 0 C0.66 0 1.32 0 2 0 C1 3 1 3 -1 4 C-3.31 4 -5.62 4 -8 4 C-8.33 3.34 -8.66 2.68 -9 2 C-6.36 1.67 -3.72 1.34 -1 1 C-0.67 0.67 -0.34 0.34 0 0 Z " fill="#ED8F8A" transform="translate(648,584)"/>
<path d="M0 0 C0.66 0.33 1.32 0.66 2 1 C2 3.64 2 6.28 2 9 C0 8 0 8 -2 2 C-1.34 1.34 -0.68 0.68 0 0 Z " fill="#A2DEF6" transform="translate(431,788)"/>
<path d="M0 0 C0.66 0.165 0.66 0.165 4 1 C3.34 2.65 2.68 4.3 2 6 C1.01 6 0.02 6 -1 6 C-1 1 -1 1 0 0 Z " fill="#F1BEBC" transform="translate(643,595)"/>
<path d="M0 0 C0 0.99 0 1.98 0 3 C0.66 3 1.32 3 2 3 C1.67 3.66 1.34 4.32 1 5 C-1.31 4.34 -3.62 3.68 -6 3 C-6 2.34 -6 1.68 -6 1 C-3 0 -3 0 0 0 Z " fill="#B7C6D3" transform="translate(318,501)"/>
<path d="M0 0 C0.66 0.33 1.32 0.66 2 1 C1.01 1.825 1.01 1.825 -4 6 C-4.66 7.32 -5.32 8.64 -6 10 C-6 8.02 -6 6.04 -6 4 C-4.02 2.68 -2.04 1.36 0 0 Z " fill="#EA8583" transform="translate(170,487)"/>
<path d="M0 0 C1.32 0.33 2.64 0.66 4 1 C4 2.32 4 3.64 4 5 C2.68 5 1.36 5 0 5 C0 3.35 0 1.7 0 0 Z " fill="#EB6A66" transform="translate(614,654)"/>
<path d="M0 0 C0 1.32 0 2.64 0 4 C-2.64 3.34 -5.28 2.68 -8 2 C-5 0 -5 0 0 0 Z " fill="#F9ECEE" transform="translate(659,566)"/>
<path d="M0 0 C0.825 0.165 0.825 0.165 5 1 C4.67 1.99 4.34 2.98 4 4 C3.01 4.33 2.02 4.66 1 5 C0.67 3.35 0.34 1.7 0 0 Z " fill="#FAF3F3" transform="translate(665,587)"/>
</svg>
