<svg xmlns="http://www.w3.org/2000/svg" viewBox="0 0 24 24" fill="none" stroke="currentColor" stroke-width="1.6" stroke-linecap="round" stroke-linejoin="round" aria-hidden="true">
  <path d="M12 15.5v5"/>
  <path d="M12 15.5c-2.2 0-4.2-1.6-6.2-3.6-1.4-1.4-1.1-3.3 0-4.3 1.6-1.2 3.3.3 4.4 1.8"/>
  <path d="M12 15.5c2.2 0 4.2-1.6 6.2-3.6 1.4-1.4 1.1-3.3 0-4.3-1.6-1.2-3.3.3-4.4 1.8"/>
  <circle cx="12" cy="15.5" r="1.3" fill="currentColor" stroke="none"/>
  <path d="M8.5 20.2c1.6-.9 3.1-.9 3.5-.9"/>
  <path d="M15.5 20.2c-1.6-.9-3.1-.9-3.5-.9"/>
  <path d="M9 9.5l3-2.5 3 2.5"/>
</svg>
